G75*
%MOIN*%
%OFA0B0*%
%FSLAX25Y25*%
%IPPOS*%
%LPD*%
%AMOC8*
5,1,8,0,0,1.08239X$1,22.5*
%
%ADD10C,0.00000*%
%ADD11R,0.03937X0.10236*%
%ADD12C,0.07087*%
%ADD13C,0.05200*%
%ADD14R,0.12598X0.03937*%
%ADD15OC8,0.05740*%
%ADD16C,0.13055*%
%ADD17R,0.03937X0.12598*%
%ADD18R,0.04724X0.03150*%
%ADD19C,0.07874*%
%ADD20C,0.06299*%
%ADD21OC8,0.06299*%
%ADD22C,0.03150*%
%ADD23C,0.01600*%
%ADD24C,0.00787*%
%ADD25C,0.03150*%
D10*
X0004543Y0016354D02*
X0004543Y0189583D01*
X0010055Y0189583D02*
X0010057Y0189741D01*
X0010063Y0189899D01*
X0010073Y0190057D01*
X0010087Y0190215D01*
X0010105Y0190372D01*
X0010126Y0190529D01*
X0010152Y0190685D01*
X0010182Y0190841D01*
X0010215Y0190996D01*
X0010253Y0191149D01*
X0010294Y0191302D01*
X0010339Y0191454D01*
X0010388Y0191605D01*
X0010441Y0191754D01*
X0010497Y0191902D01*
X0010557Y0192048D01*
X0010621Y0192193D01*
X0010689Y0192336D01*
X0010760Y0192478D01*
X0010834Y0192618D01*
X0010912Y0192755D01*
X0010994Y0192891D01*
X0011078Y0193025D01*
X0011167Y0193156D01*
X0011258Y0193285D01*
X0011353Y0193412D01*
X0011450Y0193537D01*
X0011551Y0193659D01*
X0011655Y0193778D01*
X0011762Y0193895D01*
X0011872Y0194009D01*
X0011985Y0194120D01*
X0012100Y0194229D01*
X0012218Y0194334D01*
X0012339Y0194436D01*
X0012462Y0194536D01*
X0012588Y0194632D01*
X0012716Y0194725D01*
X0012846Y0194815D01*
X0012979Y0194901D01*
X0013114Y0194985D01*
X0013250Y0195064D01*
X0013389Y0195141D01*
X0013530Y0195213D01*
X0013672Y0195283D01*
X0013816Y0195348D01*
X0013962Y0195410D01*
X0014109Y0195468D01*
X0014258Y0195523D01*
X0014408Y0195574D01*
X0014559Y0195621D01*
X0014711Y0195664D01*
X0014864Y0195703D01*
X0015019Y0195739D01*
X0015174Y0195770D01*
X0015330Y0195798D01*
X0015486Y0195822D01*
X0015643Y0195842D01*
X0015801Y0195858D01*
X0015958Y0195870D01*
X0016117Y0195878D01*
X0016275Y0195882D01*
X0016433Y0195882D01*
X0016591Y0195878D01*
X0016750Y0195870D01*
X0016907Y0195858D01*
X0017065Y0195842D01*
X0017222Y0195822D01*
X0017378Y0195798D01*
X0017534Y0195770D01*
X0017689Y0195739D01*
X0017844Y0195703D01*
X0017997Y0195664D01*
X0018149Y0195621D01*
X0018300Y0195574D01*
X0018450Y0195523D01*
X0018599Y0195468D01*
X0018746Y0195410D01*
X0018892Y0195348D01*
X0019036Y0195283D01*
X0019178Y0195213D01*
X0019319Y0195141D01*
X0019458Y0195064D01*
X0019594Y0194985D01*
X0019729Y0194901D01*
X0019862Y0194815D01*
X0019992Y0194725D01*
X0020120Y0194632D01*
X0020246Y0194536D01*
X0020369Y0194436D01*
X0020490Y0194334D01*
X0020608Y0194229D01*
X0020723Y0194120D01*
X0020836Y0194009D01*
X0020946Y0193895D01*
X0021053Y0193778D01*
X0021157Y0193659D01*
X0021258Y0193537D01*
X0021355Y0193412D01*
X0021450Y0193285D01*
X0021541Y0193156D01*
X0021630Y0193025D01*
X0021714Y0192891D01*
X0021796Y0192755D01*
X0021874Y0192618D01*
X0021948Y0192478D01*
X0022019Y0192336D01*
X0022087Y0192193D01*
X0022151Y0192048D01*
X0022211Y0191902D01*
X0022267Y0191754D01*
X0022320Y0191605D01*
X0022369Y0191454D01*
X0022414Y0191302D01*
X0022455Y0191149D01*
X0022493Y0190996D01*
X0022526Y0190841D01*
X0022556Y0190685D01*
X0022582Y0190529D01*
X0022603Y0190372D01*
X0022621Y0190215D01*
X0022635Y0190057D01*
X0022645Y0189899D01*
X0022651Y0189741D01*
X0022653Y0189583D01*
X0022651Y0189425D01*
X0022645Y0189267D01*
X0022635Y0189109D01*
X0022621Y0188951D01*
X0022603Y0188794D01*
X0022582Y0188637D01*
X0022556Y0188481D01*
X0022526Y0188325D01*
X0022493Y0188170D01*
X0022455Y0188017D01*
X0022414Y0187864D01*
X0022369Y0187712D01*
X0022320Y0187561D01*
X0022267Y0187412D01*
X0022211Y0187264D01*
X0022151Y0187118D01*
X0022087Y0186973D01*
X0022019Y0186830D01*
X0021948Y0186688D01*
X0021874Y0186548D01*
X0021796Y0186411D01*
X0021714Y0186275D01*
X0021630Y0186141D01*
X0021541Y0186010D01*
X0021450Y0185881D01*
X0021355Y0185754D01*
X0021258Y0185629D01*
X0021157Y0185507D01*
X0021053Y0185388D01*
X0020946Y0185271D01*
X0020836Y0185157D01*
X0020723Y0185046D01*
X0020608Y0184937D01*
X0020490Y0184832D01*
X0020369Y0184730D01*
X0020246Y0184630D01*
X0020120Y0184534D01*
X0019992Y0184441D01*
X0019862Y0184351D01*
X0019729Y0184265D01*
X0019594Y0184181D01*
X0019458Y0184102D01*
X0019319Y0184025D01*
X0019178Y0183953D01*
X0019036Y0183883D01*
X0018892Y0183818D01*
X0018746Y0183756D01*
X0018599Y0183698D01*
X0018450Y0183643D01*
X0018300Y0183592D01*
X0018149Y0183545D01*
X0017997Y0183502D01*
X0017844Y0183463D01*
X0017689Y0183427D01*
X0017534Y0183396D01*
X0017378Y0183368D01*
X0017222Y0183344D01*
X0017065Y0183324D01*
X0016907Y0183308D01*
X0016750Y0183296D01*
X0016591Y0183288D01*
X0016433Y0183284D01*
X0016275Y0183284D01*
X0016117Y0183288D01*
X0015958Y0183296D01*
X0015801Y0183308D01*
X0015643Y0183324D01*
X0015486Y0183344D01*
X0015330Y0183368D01*
X0015174Y0183396D01*
X0015019Y0183427D01*
X0014864Y0183463D01*
X0014711Y0183502D01*
X0014559Y0183545D01*
X0014408Y0183592D01*
X0014258Y0183643D01*
X0014109Y0183698D01*
X0013962Y0183756D01*
X0013816Y0183818D01*
X0013672Y0183883D01*
X0013530Y0183953D01*
X0013389Y0184025D01*
X0013250Y0184102D01*
X0013114Y0184181D01*
X0012979Y0184265D01*
X0012846Y0184351D01*
X0012716Y0184441D01*
X0012588Y0184534D01*
X0012462Y0184630D01*
X0012339Y0184730D01*
X0012218Y0184832D01*
X0012100Y0184937D01*
X0011985Y0185046D01*
X0011872Y0185157D01*
X0011762Y0185271D01*
X0011655Y0185388D01*
X0011551Y0185507D01*
X0011450Y0185629D01*
X0011353Y0185754D01*
X0011258Y0185881D01*
X0011167Y0186010D01*
X0011078Y0186141D01*
X0010994Y0186275D01*
X0010912Y0186411D01*
X0010834Y0186548D01*
X0010760Y0186688D01*
X0010689Y0186830D01*
X0010621Y0186973D01*
X0010557Y0187118D01*
X0010497Y0187264D01*
X0010441Y0187412D01*
X0010388Y0187561D01*
X0010339Y0187712D01*
X0010294Y0187864D01*
X0010253Y0188017D01*
X0010215Y0188170D01*
X0010182Y0188325D01*
X0010152Y0188481D01*
X0010126Y0188637D01*
X0010105Y0188794D01*
X0010087Y0188951D01*
X0010073Y0189109D01*
X0010063Y0189267D01*
X0010057Y0189425D01*
X0010055Y0189583D01*
X0004543Y0189583D02*
X0004546Y0189868D01*
X0004557Y0190154D01*
X0004574Y0190439D01*
X0004598Y0190723D01*
X0004629Y0191007D01*
X0004667Y0191290D01*
X0004712Y0191571D01*
X0004763Y0191852D01*
X0004821Y0192132D01*
X0004886Y0192410D01*
X0004958Y0192686D01*
X0005036Y0192960D01*
X0005121Y0193233D01*
X0005213Y0193503D01*
X0005311Y0193771D01*
X0005415Y0194037D01*
X0005526Y0194300D01*
X0005643Y0194560D01*
X0005766Y0194818D01*
X0005896Y0195072D01*
X0006032Y0195323D01*
X0006173Y0195571D01*
X0006321Y0195815D01*
X0006474Y0196056D01*
X0006634Y0196292D01*
X0006799Y0196525D01*
X0006969Y0196754D01*
X0007145Y0196979D01*
X0007327Y0197199D01*
X0007513Y0197415D01*
X0007705Y0197626D01*
X0007902Y0197833D01*
X0008104Y0198035D01*
X0008311Y0198232D01*
X0008522Y0198424D01*
X0008738Y0198610D01*
X0008958Y0198792D01*
X0009183Y0198968D01*
X0009412Y0199138D01*
X0009645Y0199303D01*
X0009881Y0199463D01*
X0010122Y0199616D01*
X0010366Y0199764D01*
X0010614Y0199905D01*
X0010865Y0200041D01*
X0011119Y0200171D01*
X0011377Y0200294D01*
X0011637Y0200411D01*
X0011900Y0200522D01*
X0012166Y0200626D01*
X0012434Y0200724D01*
X0012704Y0200816D01*
X0012977Y0200901D01*
X0013251Y0200979D01*
X0013527Y0201051D01*
X0013805Y0201116D01*
X0014085Y0201174D01*
X0014366Y0201225D01*
X0014647Y0201270D01*
X0014930Y0201308D01*
X0015214Y0201339D01*
X0015498Y0201363D01*
X0015783Y0201380D01*
X0016069Y0201391D01*
X0016354Y0201394D01*
X0189583Y0201394D01*
X0183284Y0189583D02*
X0183286Y0189741D01*
X0183292Y0189899D01*
X0183302Y0190057D01*
X0183316Y0190215D01*
X0183334Y0190372D01*
X0183355Y0190529D01*
X0183381Y0190685D01*
X0183411Y0190841D01*
X0183444Y0190996D01*
X0183482Y0191149D01*
X0183523Y0191302D01*
X0183568Y0191454D01*
X0183617Y0191605D01*
X0183670Y0191754D01*
X0183726Y0191902D01*
X0183786Y0192048D01*
X0183850Y0192193D01*
X0183918Y0192336D01*
X0183989Y0192478D01*
X0184063Y0192618D01*
X0184141Y0192755D01*
X0184223Y0192891D01*
X0184307Y0193025D01*
X0184396Y0193156D01*
X0184487Y0193285D01*
X0184582Y0193412D01*
X0184679Y0193537D01*
X0184780Y0193659D01*
X0184884Y0193778D01*
X0184991Y0193895D01*
X0185101Y0194009D01*
X0185214Y0194120D01*
X0185329Y0194229D01*
X0185447Y0194334D01*
X0185568Y0194436D01*
X0185691Y0194536D01*
X0185817Y0194632D01*
X0185945Y0194725D01*
X0186075Y0194815D01*
X0186208Y0194901D01*
X0186343Y0194985D01*
X0186479Y0195064D01*
X0186618Y0195141D01*
X0186759Y0195213D01*
X0186901Y0195283D01*
X0187045Y0195348D01*
X0187191Y0195410D01*
X0187338Y0195468D01*
X0187487Y0195523D01*
X0187637Y0195574D01*
X0187788Y0195621D01*
X0187940Y0195664D01*
X0188093Y0195703D01*
X0188248Y0195739D01*
X0188403Y0195770D01*
X0188559Y0195798D01*
X0188715Y0195822D01*
X0188872Y0195842D01*
X0189030Y0195858D01*
X0189187Y0195870D01*
X0189346Y0195878D01*
X0189504Y0195882D01*
X0189662Y0195882D01*
X0189820Y0195878D01*
X0189979Y0195870D01*
X0190136Y0195858D01*
X0190294Y0195842D01*
X0190451Y0195822D01*
X0190607Y0195798D01*
X0190763Y0195770D01*
X0190918Y0195739D01*
X0191073Y0195703D01*
X0191226Y0195664D01*
X0191378Y0195621D01*
X0191529Y0195574D01*
X0191679Y0195523D01*
X0191828Y0195468D01*
X0191975Y0195410D01*
X0192121Y0195348D01*
X0192265Y0195283D01*
X0192407Y0195213D01*
X0192548Y0195141D01*
X0192687Y0195064D01*
X0192823Y0194985D01*
X0192958Y0194901D01*
X0193091Y0194815D01*
X0193221Y0194725D01*
X0193349Y0194632D01*
X0193475Y0194536D01*
X0193598Y0194436D01*
X0193719Y0194334D01*
X0193837Y0194229D01*
X0193952Y0194120D01*
X0194065Y0194009D01*
X0194175Y0193895D01*
X0194282Y0193778D01*
X0194386Y0193659D01*
X0194487Y0193537D01*
X0194584Y0193412D01*
X0194679Y0193285D01*
X0194770Y0193156D01*
X0194859Y0193025D01*
X0194943Y0192891D01*
X0195025Y0192755D01*
X0195103Y0192618D01*
X0195177Y0192478D01*
X0195248Y0192336D01*
X0195316Y0192193D01*
X0195380Y0192048D01*
X0195440Y0191902D01*
X0195496Y0191754D01*
X0195549Y0191605D01*
X0195598Y0191454D01*
X0195643Y0191302D01*
X0195684Y0191149D01*
X0195722Y0190996D01*
X0195755Y0190841D01*
X0195785Y0190685D01*
X0195811Y0190529D01*
X0195832Y0190372D01*
X0195850Y0190215D01*
X0195864Y0190057D01*
X0195874Y0189899D01*
X0195880Y0189741D01*
X0195882Y0189583D01*
X0195880Y0189425D01*
X0195874Y0189267D01*
X0195864Y0189109D01*
X0195850Y0188951D01*
X0195832Y0188794D01*
X0195811Y0188637D01*
X0195785Y0188481D01*
X0195755Y0188325D01*
X0195722Y0188170D01*
X0195684Y0188017D01*
X0195643Y0187864D01*
X0195598Y0187712D01*
X0195549Y0187561D01*
X0195496Y0187412D01*
X0195440Y0187264D01*
X0195380Y0187118D01*
X0195316Y0186973D01*
X0195248Y0186830D01*
X0195177Y0186688D01*
X0195103Y0186548D01*
X0195025Y0186411D01*
X0194943Y0186275D01*
X0194859Y0186141D01*
X0194770Y0186010D01*
X0194679Y0185881D01*
X0194584Y0185754D01*
X0194487Y0185629D01*
X0194386Y0185507D01*
X0194282Y0185388D01*
X0194175Y0185271D01*
X0194065Y0185157D01*
X0193952Y0185046D01*
X0193837Y0184937D01*
X0193719Y0184832D01*
X0193598Y0184730D01*
X0193475Y0184630D01*
X0193349Y0184534D01*
X0193221Y0184441D01*
X0193091Y0184351D01*
X0192958Y0184265D01*
X0192823Y0184181D01*
X0192687Y0184102D01*
X0192548Y0184025D01*
X0192407Y0183953D01*
X0192265Y0183883D01*
X0192121Y0183818D01*
X0191975Y0183756D01*
X0191828Y0183698D01*
X0191679Y0183643D01*
X0191529Y0183592D01*
X0191378Y0183545D01*
X0191226Y0183502D01*
X0191073Y0183463D01*
X0190918Y0183427D01*
X0190763Y0183396D01*
X0190607Y0183368D01*
X0190451Y0183344D01*
X0190294Y0183324D01*
X0190136Y0183308D01*
X0189979Y0183296D01*
X0189820Y0183288D01*
X0189662Y0183284D01*
X0189504Y0183284D01*
X0189346Y0183288D01*
X0189187Y0183296D01*
X0189030Y0183308D01*
X0188872Y0183324D01*
X0188715Y0183344D01*
X0188559Y0183368D01*
X0188403Y0183396D01*
X0188248Y0183427D01*
X0188093Y0183463D01*
X0187940Y0183502D01*
X0187788Y0183545D01*
X0187637Y0183592D01*
X0187487Y0183643D01*
X0187338Y0183698D01*
X0187191Y0183756D01*
X0187045Y0183818D01*
X0186901Y0183883D01*
X0186759Y0183953D01*
X0186618Y0184025D01*
X0186479Y0184102D01*
X0186343Y0184181D01*
X0186208Y0184265D01*
X0186075Y0184351D01*
X0185945Y0184441D01*
X0185817Y0184534D01*
X0185691Y0184630D01*
X0185568Y0184730D01*
X0185447Y0184832D01*
X0185329Y0184937D01*
X0185214Y0185046D01*
X0185101Y0185157D01*
X0184991Y0185271D01*
X0184884Y0185388D01*
X0184780Y0185507D01*
X0184679Y0185629D01*
X0184582Y0185754D01*
X0184487Y0185881D01*
X0184396Y0186010D01*
X0184307Y0186141D01*
X0184223Y0186275D01*
X0184141Y0186411D01*
X0184063Y0186548D01*
X0183989Y0186688D01*
X0183918Y0186830D01*
X0183850Y0186973D01*
X0183786Y0187118D01*
X0183726Y0187264D01*
X0183670Y0187412D01*
X0183617Y0187561D01*
X0183568Y0187712D01*
X0183523Y0187864D01*
X0183482Y0188017D01*
X0183444Y0188170D01*
X0183411Y0188325D01*
X0183381Y0188481D01*
X0183355Y0188637D01*
X0183334Y0188794D01*
X0183316Y0188951D01*
X0183302Y0189109D01*
X0183292Y0189267D01*
X0183286Y0189425D01*
X0183284Y0189583D01*
X0189583Y0201394D02*
X0189868Y0201391D01*
X0190154Y0201380D01*
X0190439Y0201363D01*
X0190723Y0201339D01*
X0191007Y0201308D01*
X0191290Y0201270D01*
X0191571Y0201225D01*
X0191852Y0201174D01*
X0192132Y0201116D01*
X0192410Y0201051D01*
X0192686Y0200979D01*
X0192960Y0200901D01*
X0193233Y0200816D01*
X0193503Y0200724D01*
X0193771Y0200626D01*
X0194037Y0200522D01*
X0194300Y0200411D01*
X0194560Y0200294D01*
X0194818Y0200171D01*
X0195072Y0200041D01*
X0195323Y0199905D01*
X0195571Y0199764D01*
X0195815Y0199616D01*
X0196056Y0199463D01*
X0196292Y0199303D01*
X0196525Y0199138D01*
X0196754Y0198968D01*
X0196979Y0198792D01*
X0197199Y0198610D01*
X0197415Y0198424D01*
X0197626Y0198232D01*
X0197833Y0198035D01*
X0198035Y0197833D01*
X0198232Y0197626D01*
X0198424Y0197415D01*
X0198610Y0197199D01*
X0198792Y0196979D01*
X0198968Y0196754D01*
X0199138Y0196525D01*
X0199303Y0196292D01*
X0199463Y0196056D01*
X0199616Y0195815D01*
X0199764Y0195571D01*
X0199905Y0195323D01*
X0200041Y0195072D01*
X0200171Y0194818D01*
X0200294Y0194560D01*
X0200411Y0194300D01*
X0200522Y0194037D01*
X0200626Y0193771D01*
X0200724Y0193503D01*
X0200816Y0193233D01*
X0200901Y0192960D01*
X0200979Y0192686D01*
X0201051Y0192410D01*
X0201116Y0192132D01*
X0201174Y0191852D01*
X0201225Y0191571D01*
X0201270Y0191290D01*
X0201308Y0191007D01*
X0201339Y0190723D01*
X0201363Y0190439D01*
X0201380Y0190154D01*
X0201391Y0189868D01*
X0201394Y0189583D01*
X0201394Y0016354D01*
X0183284Y0016354D02*
X0183286Y0016512D01*
X0183292Y0016670D01*
X0183302Y0016828D01*
X0183316Y0016986D01*
X0183334Y0017143D01*
X0183355Y0017300D01*
X0183381Y0017456D01*
X0183411Y0017612D01*
X0183444Y0017767D01*
X0183482Y0017920D01*
X0183523Y0018073D01*
X0183568Y0018225D01*
X0183617Y0018376D01*
X0183670Y0018525D01*
X0183726Y0018673D01*
X0183786Y0018819D01*
X0183850Y0018964D01*
X0183918Y0019107D01*
X0183989Y0019249D01*
X0184063Y0019389D01*
X0184141Y0019526D01*
X0184223Y0019662D01*
X0184307Y0019796D01*
X0184396Y0019927D01*
X0184487Y0020056D01*
X0184582Y0020183D01*
X0184679Y0020308D01*
X0184780Y0020430D01*
X0184884Y0020549D01*
X0184991Y0020666D01*
X0185101Y0020780D01*
X0185214Y0020891D01*
X0185329Y0021000D01*
X0185447Y0021105D01*
X0185568Y0021207D01*
X0185691Y0021307D01*
X0185817Y0021403D01*
X0185945Y0021496D01*
X0186075Y0021586D01*
X0186208Y0021672D01*
X0186343Y0021756D01*
X0186479Y0021835D01*
X0186618Y0021912D01*
X0186759Y0021984D01*
X0186901Y0022054D01*
X0187045Y0022119D01*
X0187191Y0022181D01*
X0187338Y0022239D01*
X0187487Y0022294D01*
X0187637Y0022345D01*
X0187788Y0022392D01*
X0187940Y0022435D01*
X0188093Y0022474D01*
X0188248Y0022510D01*
X0188403Y0022541D01*
X0188559Y0022569D01*
X0188715Y0022593D01*
X0188872Y0022613D01*
X0189030Y0022629D01*
X0189187Y0022641D01*
X0189346Y0022649D01*
X0189504Y0022653D01*
X0189662Y0022653D01*
X0189820Y0022649D01*
X0189979Y0022641D01*
X0190136Y0022629D01*
X0190294Y0022613D01*
X0190451Y0022593D01*
X0190607Y0022569D01*
X0190763Y0022541D01*
X0190918Y0022510D01*
X0191073Y0022474D01*
X0191226Y0022435D01*
X0191378Y0022392D01*
X0191529Y0022345D01*
X0191679Y0022294D01*
X0191828Y0022239D01*
X0191975Y0022181D01*
X0192121Y0022119D01*
X0192265Y0022054D01*
X0192407Y0021984D01*
X0192548Y0021912D01*
X0192687Y0021835D01*
X0192823Y0021756D01*
X0192958Y0021672D01*
X0193091Y0021586D01*
X0193221Y0021496D01*
X0193349Y0021403D01*
X0193475Y0021307D01*
X0193598Y0021207D01*
X0193719Y0021105D01*
X0193837Y0021000D01*
X0193952Y0020891D01*
X0194065Y0020780D01*
X0194175Y0020666D01*
X0194282Y0020549D01*
X0194386Y0020430D01*
X0194487Y0020308D01*
X0194584Y0020183D01*
X0194679Y0020056D01*
X0194770Y0019927D01*
X0194859Y0019796D01*
X0194943Y0019662D01*
X0195025Y0019526D01*
X0195103Y0019389D01*
X0195177Y0019249D01*
X0195248Y0019107D01*
X0195316Y0018964D01*
X0195380Y0018819D01*
X0195440Y0018673D01*
X0195496Y0018525D01*
X0195549Y0018376D01*
X0195598Y0018225D01*
X0195643Y0018073D01*
X0195684Y0017920D01*
X0195722Y0017767D01*
X0195755Y0017612D01*
X0195785Y0017456D01*
X0195811Y0017300D01*
X0195832Y0017143D01*
X0195850Y0016986D01*
X0195864Y0016828D01*
X0195874Y0016670D01*
X0195880Y0016512D01*
X0195882Y0016354D01*
X0195880Y0016196D01*
X0195874Y0016038D01*
X0195864Y0015880D01*
X0195850Y0015722D01*
X0195832Y0015565D01*
X0195811Y0015408D01*
X0195785Y0015252D01*
X0195755Y0015096D01*
X0195722Y0014941D01*
X0195684Y0014788D01*
X0195643Y0014635D01*
X0195598Y0014483D01*
X0195549Y0014332D01*
X0195496Y0014183D01*
X0195440Y0014035D01*
X0195380Y0013889D01*
X0195316Y0013744D01*
X0195248Y0013601D01*
X0195177Y0013459D01*
X0195103Y0013319D01*
X0195025Y0013182D01*
X0194943Y0013046D01*
X0194859Y0012912D01*
X0194770Y0012781D01*
X0194679Y0012652D01*
X0194584Y0012525D01*
X0194487Y0012400D01*
X0194386Y0012278D01*
X0194282Y0012159D01*
X0194175Y0012042D01*
X0194065Y0011928D01*
X0193952Y0011817D01*
X0193837Y0011708D01*
X0193719Y0011603D01*
X0193598Y0011501D01*
X0193475Y0011401D01*
X0193349Y0011305D01*
X0193221Y0011212D01*
X0193091Y0011122D01*
X0192958Y0011036D01*
X0192823Y0010952D01*
X0192687Y0010873D01*
X0192548Y0010796D01*
X0192407Y0010724D01*
X0192265Y0010654D01*
X0192121Y0010589D01*
X0191975Y0010527D01*
X0191828Y0010469D01*
X0191679Y0010414D01*
X0191529Y0010363D01*
X0191378Y0010316D01*
X0191226Y0010273D01*
X0191073Y0010234D01*
X0190918Y0010198D01*
X0190763Y0010167D01*
X0190607Y0010139D01*
X0190451Y0010115D01*
X0190294Y0010095D01*
X0190136Y0010079D01*
X0189979Y0010067D01*
X0189820Y0010059D01*
X0189662Y0010055D01*
X0189504Y0010055D01*
X0189346Y0010059D01*
X0189187Y0010067D01*
X0189030Y0010079D01*
X0188872Y0010095D01*
X0188715Y0010115D01*
X0188559Y0010139D01*
X0188403Y0010167D01*
X0188248Y0010198D01*
X0188093Y0010234D01*
X0187940Y0010273D01*
X0187788Y0010316D01*
X0187637Y0010363D01*
X0187487Y0010414D01*
X0187338Y0010469D01*
X0187191Y0010527D01*
X0187045Y0010589D01*
X0186901Y0010654D01*
X0186759Y0010724D01*
X0186618Y0010796D01*
X0186479Y0010873D01*
X0186343Y0010952D01*
X0186208Y0011036D01*
X0186075Y0011122D01*
X0185945Y0011212D01*
X0185817Y0011305D01*
X0185691Y0011401D01*
X0185568Y0011501D01*
X0185447Y0011603D01*
X0185329Y0011708D01*
X0185214Y0011817D01*
X0185101Y0011928D01*
X0184991Y0012042D01*
X0184884Y0012159D01*
X0184780Y0012278D01*
X0184679Y0012400D01*
X0184582Y0012525D01*
X0184487Y0012652D01*
X0184396Y0012781D01*
X0184307Y0012912D01*
X0184223Y0013046D01*
X0184141Y0013182D01*
X0184063Y0013319D01*
X0183989Y0013459D01*
X0183918Y0013601D01*
X0183850Y0013744D01*
X0183786Y0013889D01*
X0183726Y0014035D01*
X0183670Y0014183D01*
X0183617Y0014332D01*
X0183568Y0014483D01*
X0183523Y0014635D01*
X0183482Y0014788D01*
X0183444Y0014941D01*
X0183411Y0015096D01*
X0183381Y0015252D01*
X0183355Y0015408D01*
X0183334Y0015565D01*
X0183316Y0015722D01*
X0183302Y0015880D01*
X0183292Y0016038D01*
X0183286Y0016196D01*
X0183284Y0016354D01*
X0189583Y0004543D02*
X0189868Y0004546D01*
X0190154Y0004557D01*
X0190439Y0004574D01*
X0190723Y0004598D01*
X0191007Y0004629D01*
X0191290Y0004667D01*
X0191571Y0004712D01*
X0191852Y0004763D01*
X0192132Y0004821D01*
X0192410Y0004886D01*
X0192686Y0004958D01*
X0192960Y0005036D01*
X0193233Y0005121D01*
X0193503Y0005213D01*
X0193771Y0005311D01*
X0194037Y0005415D01*
X0194300Y0005526D01*
X0194560Y0005643D01*
X0194818Y0005766D01*
X0195072Y0005896D01*
X0195323Y0006032D01*
X0195571Y0006173D01*
X0195815Y0006321D01*
X0196056Y0006474D01*
X0196292Y0006634D01*
X0196525Y0006799D01*
X0196754Y0006969D01*
X0196979Y0007145D01*
X0197199Y0007327D01*
X0197415Y0007513D01*
X0197626Y0007705D01*
X0197833Y0007902D01*
X0198035Y0008104D01*
X0198232Y0008311D01*
X0198424Y0008522D01*
X0198610Y0008738D01*
X0198792Y0008958D01*
X0198968Y0009183D01*
X0199138Y0009412D01*
X0199303Y0009645D01*
X0199463Y0009881D01*
X0199616Y0010122D01*
X0199764Y0010366D01*
X0199905Y0010614D01*
X0200041Y0010865D01*
X0200171Y0011119D01*
X0200294Y0011377D01*
X0200411Y0011637D01*
X0200522Y0011900D01*
X0200626Y0012166D01*
X0200724Y0012434D01*
X0200816Y0012704D01*
X0200901Y0012977D01*
X0200979Y0013251D01*
X0201051Y0013527D01*
X0201116Y0013805D01*
X0201174Y0014085D01*
X0201225Y0014366D01*
X0201270Y0014647D01*
X0201308Y0014930D01*
X0201339Y0015214D01*
X0201363Y0015498D01*
X0201380Y0015783D01*
X0201391Y0016069D01*
X0201394Y0016354D01*
X0189583Y0004543D02*
X0016354Y0004543D01*
X0010055Y0016354D02*
X0010057Y0016512D01*
X0010063Y0016670D01*
X0010073Y0016828D01*
X0010087Y0016986D01*
X0010105Y0017143D01*
X0010126Y0017300D01*
X0010152Y0017456D01*
X0010182Y0017612D01*
X0010215Y0017767D01*
X0010253Y0017920D01*
X0010294Y0018073D01*
X0010339Y0018225D01*
X0010388Y0018376D01*
X0010441Y0018525D01*
X0010497Y0018673D01*
X0010557Y0018819D01*
X0010621Y0018964D01*
X0010689Y0019107D01*
X0010760Y0019249D01*
X0010834Y0019389D01*
X0010912Y0019526D01*
X0010994Y0019662D01*
X0011078Y0019796D01*
X0011167Y0019927D01*
X0011258Y0020056D01*
X0011353Y0020183D01*
X0011450Y0020308D01*
X0011551Y0020430D01*
X0011655Y0020549D01*
X0011762Y0020666D01*
X0011872Y0020780D01*
X0011985Y0020891D01*
X0012100Y0021000D01*
X0012218Y0021105D01*
X0012339Y0021207D01*
X0012462Y0021307D01*
X0012588Y0021403D01*
X0012716Y0021496D01*
X0012846Y0021586D01*
X0012979Y0021672D01*
X0013114Y0021756D01*
X0013250Y0021835D01*
X0013389Y0021912D01*
X0013530Y0021984D01*
X0013672Y0022054D01*
X0013816Y0022119D01*
X0013962Y0022181D01*
X0014109Y0022239D01*
X0014258Y0022294D01*
X0014408Y0022345D01*
X0014559Y0022392D01*
X0014711Y0022435D01*
X0014864Y0022474D01*
X0015019Y0022510D01*
X0015174Y0022541D01*
X0015330Y0022569D01*
X0015486Y0022593D01*
X0015643Y0022613D01*
X0015801Y0022629D01*
X0015958Y0022641D01*
X0016117Y0022649D01*
X0016275Y0022653D01*
X0016433Y0022653D01*
X0016591Y0022649D01*
X0016750Y0022641D01*
X0016907Y0022629D01*
X0017065Y0022613D01*
X0017222Y0022593D01*
X0017378Y0022569D01*
X0017534Y0022541D01*
X0017689Y0022510D01*
X0017844Y0022474D01*
X0017997Y0022435D01*
X0018149Y0022392D01*
X0018300Y0022345D01*
X0018450Y0022294D01*
X0018599Y0022239D01*
X0018746Y0022181D01*
X0018892Y0022119D01*
X0019036Y0022054D01*
X0019178Y0021984D01*
X0019319Y0021912D01*
X0019458Y0021835D01*
X0019594Y0021756D01*
X0019729Y0021672D01*
X0019862Y0021586D01*
X0019992Y0021496D01*
X0020120Y0021403D01*
X0020246Y0021307D01*
X0020369Y0021207D01*
X0020490Y0021105D01*
X0020608Y0021000D01*
X0020723Y0020891D01*
X0020836Y0020780D01*
X0020946Y0020666D01*
X0021053Y0020549D01*
X0021157Y0020430D01*
X0021258Y0020308D01*
X0021355Y0020183D01*
X0021450Y0020056D01*
X0021541Y0019927D01*
X0021630Y0019796D01*
X0021714Y0019662D01*
X0021796Y0019526D01*
X0021874Y0019389D01*
X0021948Y0019249D01*
X0022019Y0019107D01*
X0022087Y0018964D01*
X0022151Y0018819D01*
X0022211Y0018673D01*
X0022267Y0018525D01*
X0022320Y0018376D01*
X0022369Y0018225D01*
X0022414Y0018073D01*
X0022455Y0017920D01*
X0022493Y0017767D01*
X0022526Y0017612D01*
X0022556Y0017456D01*
X0022582Y0017300D01*
X0022603Y0017143D01*
X0022621Y0016986D01*
X0022635Y0016828D01*
X0022645Y0016670D01*
X0022651Y0016512D01*
X0022653Y0016354D01*
X0022651Y0016196D01*
X0022645Y0016038D01*
X0022635Y0015880D01*
X0022621Y0015722D01*
X0022603Y0015565D01*
X0022582Y0015408D01*
X0022556Y0015252D01*
X0022526Y0015096D01*
X0022493Y0014941D01*
X0022455Y0014788D01*
X0022414Y0014635D01*
X0022369Y0014483D01*
X0022320Y0014332D01*
X0022267Y0014183D01*
X0022211Y0014035D01*
X0022151Y0013889D01*
X0022087Y0013744D01*
X0022019Y0013601D01*
X0021948Y0013459D01*
X0021874Y0013319D01*
X0021796Y0013182D01*
X0021714Y0013046D01*
X0021630Y0012912D01*
X0021541Y0012781D01*
X0021450Y0012652D01*
X0021355Y0012525D01*
X0021258Y0012400D01*
X0021157Y0012278D01*
X0021053Y0012159D01*
X0020946Y0012042D01*
X0020836Y0011928D01*
X0020723Y0011817D01*
X0020608Y0011708D01*
X0020490Y0011603D01*
X0020369Y0011501D01*
X0020246Y0011401D01*
X0020120Y0011305D01*
X0019992Y0011212D01*
X0019862Y0011122D01*
X0019729Y0011036D01*
X0019594Y0010952D01*
X0019458Y0010873D01*
X0019319Y0010796D01*
X0019178Y0010724D01*
X0019036Y0010654D01*
X0018892Y0010589D01*
X0018746Y0010527D01*
X0018599Y0010469D01*
X0018450Y0010414D01*
X0018300Y0010363D01*
X0018149Y0010316D01*
X0017997Y0010273D01*
X0017844Y0010234D01*
X0017689Y0010198D01*
X0017534Y0010167D01*
X0017378Y0010139D01*
X0017222Y0010115D01*
X0017065Y0010095D01*
X0016907Y0010079D01*
X0016750Y0010067D01*
X0016591Y0010059D01*
X0016433Y0010055D01*
X0016275Y0010055D01*
X0016117Y0010059D01*
X0015958Y0010067D01*
X0015801Y0010079D01*
X0015643Y0010095D01*
X0015486Y0010115D01*
X0015330Y0010139D01*
X0015174Y0010167D01*
X0015019Y0010198D01*
X0014864Y0010234D01*
X0014711Y0010273D01*
X0014559Y0010316D01*
X0014408Y0010363D01*
X0014258Y0010414D01*
X0014109Y0010469D01*
X0013962Y0010527D01*
X0013816Y0010589D01*
X0013672Y0010654D01*
X0013530Y0010724D01*
X0013389Y0010796D01*
X0013250Y0010873D01*
X0013114Y0010952D01*
X0012979Y0011036D01*
X0012846Y0011122D01*
X0012716Y0011212D01*
X0012588Y0011305D01*
X0012462Y0011401D01*
X0012339Y0011501D01*
X0012218Y0011603D01*
X0012100Y0011708D01*
X0011985Y0011817D01*
X0011872Y0011928D01*
X0011762Y0012042D01*
X0011655Y0012159D01*
X0011551Y0012278D01*
X0011450Y0012400D01*
X0011353Y0012525D01*
X0011258Y0012652D01*
X0011167Y0012781D01*
X0011078Y0012912D01*
X0010994Y0013046D01*
X0010912Y0013182D01*
X0010834Y0013319D01*
X0010760Y0013459D01*
X0010689Y0013601D01*
X0010621Y0013744D01*
X0010557Y0013889D01*
X0010497Y0014035D01*
X0010441Y0014183D01*
X0010388Y0014332D01*
X0010339Y0014483D01*
X0010294Y0014635D01*
X0010253Y0014788D01*
X0010215Y0014941D01*
X0010182Y0015096D01*
X0010152Y0015252D01*
X0010126Y0015408D01*
X0010105Y0015565D01*
X0010087Y0015722D01*
X0010073Y0015880D01*
X0010063Y0016038D01*
X0010057Y0016196D01*
X0010055Y0016354D01*
X0004543Y0016354D02*
X0004546Y0016069D01*
X0004557Y0015783D01*
X0004574Y0015498D01*
X0004598Y0015214D01*
X0004629Y0014930D01*
X0004667Y0014647D01*
X0004712Y0014366D01*
X0004763Y0014085D01*
X0004821Y0013805D01*
X0004886Y0013527D01*
X0004958Y0013251D01*
X0005036Y0012977D01*
X0005121Y0012704D01*
X0005213Y0012434D01*
X0005311Y0012166D01*
X0005415Y0011900D01*
X0005526Y0011637D01*
X0005643Y0011377D01*
X0005766Y0011119D01*
X0005896Y0010865D01*
X0006032Y0010614D01*
X0006173Y0010366D01*
X0006321Y0010122D01*
X0006474Y0009881D01*
X0006634Y0009645D01*
X0006799Y0009412D01*
X0006969Y0009183D01*
X0007145Y0008958D01*
X0007327Y0008738D01*
X0007513Y0008522D01*
X0007705Y0008311D01*
X0007902Y0008104D01*
X0008104Y0007902D01*
X0008311Y0007705D01*
X0008522Y0007513D01*
X0008738Y0007327D01*
X0008958Y0007145D01*
X0009183Y0006969D01*
X0009412Y0006799D01*
X0009645Y0006634D01*
X0009881Y0006474D01*
X0010122Y0006321D01*
X0010366Y0006173D01*
X0010614Y0006032D01*
X0010865Y0005896D01*
X0011119Y0005766D01*
X0011377Y0005643D01*
X0011637Y0005526D01*
X0011900Y0005415D01*
X0012166Y0005311D01*
X0012434Y0005213D01*
X0012704Y0005121D01*
X0012977Y0005036D01*
X0013251Y0004958D01*
X0013527Y0004886D01*
X0013805Y0004821D01*
X0014085Y0004763D01*
X0014366Y0004712D01*
X0014647Y0004667D01*
X0014930Y0004629D01*
X0015214Y0004598D01*
X0015498Y0004574D01*
X0015783Y0004557D01*
X0016069Y0004546D01*
X0016354Y0004543D01*
D11*
X0121394Y0124307D03*
X0121394Y0138480D03*
X0194543Y0098480D03*
X0194543Y0084307D03*
D12*
X0194543Y0081394D03*
X0194543Y0101394D03*
X0166394Y0136394D03*
X0136394Y0136394D03*
X0121394Y0141394D03*
X0121394Y0121394D03*
X0107831Y0103756D03*
X0097043Y0103756D03*
X0097043Y0073756D03*
X0107831Y0073756D03*
X0123756Y0063756D03*
X0121394Y0046394D03*
X0131394Y0026394D03*
X0131394Y0016394D03*
X0141394Y0016394D03*
X0151394Y0016394D03*
X0151394Y0026394D03*
X0161394Y0016394D03*
X0171394Y0016394D03*
X0171394Y0026394D03*
X0161394Y0046394D03*
X0153756Y0063756D03*
X0141394Y0046394D03*
X0121394Y0016394D03*
X0111394Y0016394D03*
X0111394Y0026394D03*
X0101394Y0016394D03*
X0101394Y0046394D03*
D13*
X0124543Y0073794D02*
X0124543Y0078994D01*
X0134543Y0078994D02*
X0134543Y0073794D01*
X0144543Y0073794D02*
X0144543Y0078994D01*
X0154543Y0078994D02*
X0154543Y0073794D01*
X0164543Y0073794D02*
X0164543Y0078994D01*
X0174543Y0078994D02*
X0174543Y0073794D01*
X0184543Y0073794D02*
X0184543Y0078994D01*
X0184543Y0103794D02*
X0184543Y0108994D01*
X0174543Y0108994D02*
X0174543Y0103794D01*
X0164543Y0103794D02*
X0164543Y0108994D01*
X0154543Y0108994D02*
X0154543Y0103794D01*
X0144543Y0103794D02*
X0144543Y0108994D01*
X0134543Y0108994D02*
X0134543Y0103794D01*
X0124543Y0103794D02*
X0124543Y0108994D01*
D14*
X0144307Y0136394D03*
X0158480Y0136394D03*
X0145843Y0063756D03*
X0131669Y0063756D03*
D15*
X0136472Y0152850D03*
X0136472Y0160724D03*
X0146315Y0160724D03*
X0146315Y0152850D03*
D16*
X0165094Y0171394D03*
X0117693Y0171394D03*
D17*
X0107831Y0095843D03*
X0097043Y0095843D03*
X0097043Y0081669D03*
X0107831Y0081669D03*
X0101394Y0038480D03*
X0101394Y0024307D03*
X0121394Y0024307D03*
X0121394Y0038480D03*
X0141394Y0038480D03*
X0141394Y0024307D03*
X0161394Y0024307D03*
X0161394Y0038480D03*
D18*
X0171394Y0023480D03*
X0171394Y0019307D03*
X0151394Y0019307D03*
X0151394Y0023480D03*
X0131394Y0023480D03*
X0131394Y0019307D03*
X0111394Y0019307D03*
X0111394Y0023480D03*
D19*
X0191394Y0126394D03*
X0191394Y0136394D03*
X0191394Y0146394D03*
X0191394Y0156394D03*
D20*
X0085724Y0162024D03*
X0075724Y0162024D03*
X0065724Y0162024D03*
X0055724Y0162024D03*
X0045724Y0162024D03*
X0035724Y0162024D03*
D21*
X0025724Y0162024D03*
D22*
X0025724Y0085724D01*
X0047850Y0063598D01*
X0123598Y0063598D01*
X0123756Y0063756D01*
X0124543Y0064543D01*
X0124543Y0076394D01*
X0123894Y0077043D01*
X0123894Y0079957D01*
X0134543Y0090606D01*
X0152575Y0090606D01*
X0159543Y0097575D01*
X0159543Y0119543D01*
X0162043Y0117043D01*
X0189543Y0117043D01*
X0194543Y0112043D01*
X0194543Y0101394D01*
X0194543Y0098480D01*
X0184543Y0099386D02*
X0179543Y0094386D01*
X0179543Y0057043D01*
X0169543Y0047043D01*
X0162043Y0047043D01*
X0161394Y0046394D01*
X0153756Y0063756D02*
X0154543Y0064543D01*
X0154543Y0076394D01*
X0150213Y0095094D02*
X0122654Y0095094D01*
X0110843Y0083283D01*
X0109445Y0083283D01*
X0107831Y0081669D01*
X0097043Y0081669D01*
X0097043Y0073756D01*
X0096728Y0073441D01*
X0087220Y0073441D01*
X0055724Y0104937D01*
X0055724Y0142339D01*
X0063598Y0142339D01*
X0065724Y0144465D01*
X0065724Y0162024D01*
X0055724Y0162024D02*
X0055724Y0142339D01*
X0075724Y0125075D02*
X0075724Y0162024D01*
X0085724Y0162024D02*
X0085724Y0130055D01*
X0106906Y0108874D01*
X0106906Y0104681D01*
X0107831Y0103756D01*
X0097043Y0103756D02*
X0097043Y0095843D01*
X0097043Y0103756D02*
X0075724Y0125075D01*
X0107831Y0081669D02*
X0107831Y0073756D01*
X0122654Y0095094D02*
X0118717Y0099031D01*
X0118717Y0118717D01*
X0121394Y0121394D01*
X0129543Y0122043D02*
X0134543Y0117043D01*
X0134543Y0106394D01*
X0129543Y0122043D02*
X0129543Y0164543D01*
X0132043Y0167043D01*
X0144543Y0167043D01*
X0146315Y0165272D01*
X0146315Y0160724D01*
X0167043Y0142043D02*
X0167043Y0137043D01*
X0166394Y0136394D01*
X0159543Y0129543D01*
X0159543Y0119543D01*
X0154543Y0106394D02*
X0154543Y0099425D01*
X0150213Y0095094D01*
X0184543Y0099386D02*
X0184543Y0106394D01*
X0166394Y0136394D02*
X0158480Y0136394D01*
X0167043Y0142043D02*
X0171394Y0146394D01*
X0191394Y0146394D01*
X0144307Y0136394D02*
X0136394Y0136394D01*
X0132043Y0027043D02*
X0124130Y0027043D01*
X0121394Y0024307D01*
X0121394Y0016394D01*
X0131394Y0023480D02*
X0131394Y0026394D01*
X0132043Y0027043D01*
X0141394Y0024307D02*
X0141394Y0020193D01*
X0142043Y0017043D01*
X0141394Y0016394D01*
X0141394Y0024307D02*
X0144130Y0027043D01*
X0152043Y0027043D01*
X0151394Y0026394D01*
X0151394Y0023480D01*
X0161394Y0024307D02*
X0162043Y0023657D01*
X0162043Y0022043D01*
X0162043Y0017043D01*
X0161394Y0016394D01*
X0162043Y0023657D02*
X0162043Y0027043D01*
X0172043Y0027043D01*
X0171394Y0026394D01*
X0171394Y0023480D01*
X0171394Y0019307D02*
X0171394Y0016394D01*
X0112043Y0027043D02*
X0104130Y0027043D01*
X0101394Y0024307D01*
X0101394Y0016394D01*
X0111394Y0023480D02*
X0111394Y0026394D01*
X0112043Y0027043D01*
D23*
X0121394Y0038480D02*
X0121394Y0046394D01*
X0123756Y0063756D02*
X0131669Y0063756D01*
X0145843Y0063756D02*
X0153756Y0063756D01*
X0161394Y0046394D02*
X0161394Y0038480D01*
X0141394Y0038480D02*
X0141394Y0046394D01*
X0101394Y0046394D02*
X0101394Y0038480D01*
X0107831Y0095843D02*
X0107831Y0103756D01*
D24*
X0112161Y0099735D02*
X0112161Y0090170D01*
X0117086Y0095094D01*
X0116486Y0095694D01*
X0115379Y0096801D01*
X0114780Y0098248D01*
X0114780Y0119500D01*
X0115379Y0120947D01*
X0115488Y0121056D01*
X0115488Y0122568D01*
X0116387Y0124739D01*
X0117063Y0125415D01*
X0117063Y0130404D01*
X0118447Y0131787D01*
X0124341Y0131787D01*
X0125606Y0130522D01*
X0125606Y0138793D01*
X0125159Y0138177D01*
X0124756Y0137774D01*
X0124756Y0133179D01*
X0124661Y0132824D01*
X0124477Y0132506D01*
X0124218Y0132247D01*
X0123900Y0132063D01*
X0123546Y0131969D01*
X0121787Y0131969D01*
X0121787Y0138087D01*
X0121000Y0138087D01*
X0121000Y0131969D01*
X0119242Y0131969D01*
X0118887Y0132063D01*
X0118569Y0132247D01*
X0118310Y0132506D01*
X0118126Y0132824D01*
X0118031Y0133179D01*
X0118031Y0137774D01*
X0117628Y0138177D01*
X0117171Y0138806D01*
X0116818Y0139499D01*
X0116578Y0140238D01*
X0116458Y0141000D01*
X0118031Y0141000D01*
X0118031Y0141787D01*
X0116458Y0141787D01*
X0116578Y0142550D01*
X0116818Y0143289D01*
X0117171Y0143981D01*
X0117628Y0144610D01*
X0118177Y0145159D01*
X0118806Y0145616D01*
X0119499Y0145969D01*
X0120238Y0146209D01*
X0121000Y0146330D01*
X0121000Y0144992D01*
X0121000Y0144992D01*
X0121000Y0141787D01*
X0121787Y0141787D01*
X0121787Y0144992D01*
X0121787Y0144992D01*
X0121787Y0146330D01*
X0122550Y0146209D01*
X0123289Y0145969D01*
X0123981Y0145616D01*
X0124610Y0145159D01*
X0125159Y0144610D01*
X0125606Y0143995D01*
X0125606Y0165326D01*
X0126206Y0166773D01*
X0127313Y0167881D01*
X0129813Y0170381D01*
X0131260Y0170980D01*
X0145326Y0170980D01*
X0146773Y0170381D01*
X0147881Y0169273D01*
X0149653Y0167502D01*
X0150252Y0166055D01*
X0150252Y0164187D01*
X0151547Y0162892D01*
X0151547Y0158557D01*
X0149777Y0156787D01*
X0151547Y0155018D01*
X0151547Y0150683D01*
X0148482Y0147618D01*
X0144148Y0147618D01*
X0141394Y0150372D01*
X0138640Y0147618D01*
X0134305Y0147618D01*
X0133480Y0148443D01*
X0133480Y0141579D01*
X0135219Y0142299D01*
X0137568Y0142299D01*
X0139739Y0141400D01*
X0140415Y0140724D01*
X0162373Y0140724D01*
X0163048Y0141400D01*
X0163106Y0141424D01*
X0163106Y0142826D01*
X0163706Y0144273D01*
X0164813Y0145381D01*
X0169164Y0149731D01*
X0170611Y0150331D01*
X0186422Y0150331D01*
X0187825Y0151734D01*
X0188407Y0151975D01*
X0187921Y0152328D01*
X0187328Y0152921D01*
X0186834Y0153600D01*
X0186454Y0154347D01*
X0186194Y0155145D01*
X0186063Y0155974D01*
X0186063Y0156000D01*
X0191000Y0156000D01*
X0191000Y0156787D01*
X0186063Y0156787D01*
X0186063Y0156813D01*
X0186194Y0157642D01*
X0186454Y0158440D01*
X0186834Y0159188D01*
X0187328Y0159866D01*
X0187921Y0160460D01*
X0188600Y0160953D01*
X0189347Y0161334D01*
X0190145Y0161593D01*
X0190974Y0161724D01*
X0191000Y0161724D01*
X0191000Y0156787D01*
X0191787Y0156787D01*
X0191787Y0161724D01*
X0191813Y0161724D01*
X0192642Y0161593D01*
X0193440Y0161334D01*
X0194188Y0160953D01*
X0194866Y0160460D01*
X0195460Y0159866D01*
X0195953Y0159188D01*
X0196334Y0158440D01*
X0196593Y0157642D01*
X0196724Y0156813D01*
X0196724Y0156787D01*
X0191787Y0156787D01*
X0191787Y0156000D01*
X0196724Y0156000D01*
X0196724Y0155974D01*
X0196593Y0155145D01*
X0196334Y0154347D01*
X0195953Y0153600D01*
X0195460Y0152921D01*
X0194866Y0152328D01*
X0194381Y0151975D01*
X0194962Y0151734D01*
X0196734Y0149962D01*
X0197693Y0147647D01*
X0197693Y0145141D01*
X0196734Y0142825D01*
X0195302Y0141394D01*
X0196734Y0139962D01*
X0197693Y0137647D01*
X0197693Y0135141D01*
X0196734Y0132825D01*
X0195302Y0131394D01*
X0196734Y0129962D01*
X0197693Y0127647D01*
X0197693Y0125141D01*
X0196734Y0122825D01*
X0194962Y0121053D01*
X0192647Y0120094D01*
X0192060Y0120094D01*
X0197881Y0114273D01*
X0198480Y0112826D01*
X0198480Y0105808D01*
X0199031Y0105257D01*
X0199031Y0177017D01*
X0198847Y0176832D01*
X0198847Y0176832D01*
X0194453Y0174593D01*
X0194453Y0174593D01*
X0189583Y0173822D01*
X0189583Y0173822D01*
X0184712Y0174593D01*
X0184712Y0174593D01*
X0180319Y0176832D01*
X0180319Y0176832D01*
X0176832Y0180319D01*
X0176832Y0180319D01*
X0174593Y0184712D01*
X0173822Y0189583D01*
X0174593Y0194453D01*
X0176832Y0198847D01*
X0177017Y0199031D01*
X0028920Y0199031D01*
X0029105Y0198847D01*
X0029105Y0198847D01*
X0031344Y0194453D01*
X0031344Y0194453D01*
X0032115Y0189583D01*
X0031344Y0184712D01*
X0031344Y0184712D01*
X0029105Y0180319D01*
X0029105Y0180319D01*
X0025618Y0176832D01*
X0025618Y0176832D01*
X0021225Y0174593D01*
X0021225Y0174593D01*
X0016354Y0173822D01*
X0016354Y0173822D01*
X0011484Y0174593D01*
X0011484Y0174593D01*
X0007090Y0176832D01*
X0007090Y0176832D01*
X0006905Y0177017D01*
X0006905Y0028920D01*
X0007090Y0029105D01*
X0011484Y0031344D01*
X0016354Y0032115D01*
X0021225Y0031344D01*
X0025618Y0029105D01*
X0025618Y0029105D01*
X0029105Y0025618D01*
X0029105Y0025618D01*
X0031344Y0021225D01*
X0031344Y0021225D01*
X0032115Y0016354D01*
X0031344Y0011484D01*
X0031344Y0011484D01*
X0029105Y0007090D01*
X0029105Y0007090D01*
X0028920Y0006905D01*
X0177017Y0006905D01*
X0176832Y0007090D01*
X0176832Y0007090D01*
X0174593Y0011484D01*
X0174593Y0011484D01*
X0174433Y0012499D01*
X0173981Y0012171D01*
X0173289Y0011818D01*
X0172550Y0011578D01*
X0171787Y0011458D01*
X0171787Y0016000D01*
X0171000Y0016000D01*
X0171000Y0011458D01*
X0170238Y0011578D01*
X0169499Y0011818D01*
X0168806Y0012171D01*
X0168177Y0012628D01*
X0167628Y0013177D01*
X0167171Y0013806D01*
X0166919Y0014301D01*
X0166400Y0013048D01*
X0164739Y0011387D01*
X0162568Y0010488D01*
X0160219Y0010488D01*
X0158048Y0011387D01*
X0156387Y0013048D01*
X0155868Y0014301D01*
X0155616Y0013806D01*
X0155159Y0013177D01*
X0154610Y0012628D01*
X0153981Y0012171D01*
X0153289Y0011818D01*
X0152550Y0011578D01*
X0151787Y0011458D01*
X0151787Y0016000D01*
X0151000Y0016000D01*
X0151000Y0011458D01*
X0150238Y0011578D01*
X0149499Y0011818D01*
X0148806Y0012171D01*
X0148177Y0012628D01*
X0147628Y0013177D01*
X0147171Y0013806D01*
X0146919Y0014301D01*
X0146400Y0013048D01*
X0144739Y0011387D01*
X0142568Y0010488D01*
X0140219Y0010488D01*
X0138048Y0011387D01*
X0136387Y0013048D01*
X0135868Y0014301D01*
X0135616Y0013806D01*
X0135159Y0013177D01*
X0134610Y0012628D01*
X0133981Y0012171D01*
X0133289Y0011818D01*
X0132550Y0011578D01*
X0131787Y0011458D01*
X0131787Y0016000D01*
X0131000Y0016000D01*
X0131000Y0011458D01*
X0130238Y0011578D01*
X0129499Y0011818D01*
X0128806Y0012171D01*
X0128177Y0012628D01*
X0127628Y0013177D01*
X0127171Y0013806D01*
X0126919Y0014301D01*
X0126400Y0013048D01*
X0124739Y0011387D01*
X0122568Y0010488D01*
X0120219Y0010488D01*
X0118048Y0011387D01*
X0116387Y0013048D01*
X0115868Y0014301D01*
X0115616Y0013806D01*
X0115159Y0013177D01*
X0114610Y0012628D01*
X0113981Y0012171D01*
X0113289Y0011818D01*
X0112550Y0011578D01*
X0111787Y0011458D01*
X0111787Y0016000D01*
X0111000Y0016000D01*
X0111000Y0011458D01*
X0110238Y0011578D01*
X0109499Y0011818D01*
X0108806Y0012171D01*
X0108177Y0012628D01*
X0107628Y0013177D01*
X0107171Y0013806D01*
X0106919Y0014301D01*
X0106400Y0013048D01*
X0104739Y0011387D01*
X0102568Y0010488D01*
X0100219Y0010488D01*
X0098048Y0011387D01*
X0096387Y0013048D01*
X0095488Y0015219D01*
X0095488Y0017568D01*
X0096387Y0019739D01*
X0097063Y0020415D01*
X0097063Y0042373D01*
X0096387Y0043048D01*
X0095488Y0045219D01*
X0095488Y0047568D01*
X0096387Y0049739D01*
X0098048Y0051400D01*
X0100219Y0052299D01*
X0102568Y0052299D01*
X0104739Y0051400D01*
X0106400Y0049739D01*
X0107299Y0047568D01*
X0107299Y0045219D01*
X0106400Y0043048D01*
X0105724Y0042373D01*
X0105724Y0030980D01*
X0107629Y0030980D01*
X0108048Y0031400D01*
X0110219Y0032299D01*
X0112568Y0032299D01*
X0114739Y0031400D01*
X0116400Y0029739D01*
X0117063Y0028139D01*
X0117063Y0042373D01*
X0116387Y0043048D01*
X0115488Y0045219D01*
X0115488Y0047568D01*
X0116387Y0049739D01*
X0118048Y0051400D01*
X0120219Y0052299D01*
X0122568Y0052299D01*
X0124739Y0051400D01*
X0126400Y0049739D01*
X0127299Y0047568D01*
X0127299Y0045219D01*
X0126400Y0043048D01*
X0125724Y0042373D01*
X0125724Y0030980D01*
X0127629Y0030980D01*
X0128048Y0031400D01*
X0130219Y0032299D01*
X0132568Y0032299D01*
X0134739Y0031400D01*
X0136400Y0029739D01*
X0137063Y0028139D01*
X0137063Y0042373D01*
X0136387Y0043048D01*
X0135488Y0045219D01*
X0135488Y0047568D01*
X0136387Y0049739D01*
X0138048Y0051400D01*
X0140219Y0052299D01*
X0142568Y0052299D01*
X0144739Y0051400D01*
X0146400Y0049739D01*
X0147299Y0047568D01*
X0147299Y0045219D01*
X0146400Y0043048D01*
X0145724Y0042373D01*
X0145724Y0030980D01*
X0147629Y0030980D01*
X0148048Y0031400D01*
X0150219Y0032299D01*
X0152568Y0032299D01*
X0154739Y0031400D01*
X0156400Y0029739D01*
X0157063Y0028139D01*
X0157063Y0042373D01*
X0156387Y0043048D01*
X0155488Y0045219D01*
X0155488Y0047568D01*
X0156387Y0049739D01*
X0158048Y0051400D01*
X0160219Y0052299D01*
X0162568Y0052299D01*
X0164739Y0051400D01*
X0165159Y0050980D01*
X0167913Y0050980D01*
X0175606Y0058674D01*
X0175606Y0068863D01*
X0175530Y0068831D01*
X0173556Y0068831D01*
X0171732Y0069587D01*
X0170337Y0070983D01*
X0169581Y0072807D01*
X0169581Y0079981D01*
X0170337Y0081805D01*
X0171732Y0083200D01*
X0173556Y0083956D01*
X0175530Y0083956D01*
X0175606Y0083924D01*
X0175606Y0095169D01*
X0176206Y0096616D01*
X0177313Y0097723D01*
X0180455Y0100865D01*
X0180337Y0100983D01*
X0179581Y0102807D01*
X0179581Y0109981D01*
X0180337Y0111805D01*
X0181638Y0113106D01*
X0177448Y0113106D01*
X0178750Y0111805D01*
X0179505Y0109981D01*
X0179505Y0102807D01*
X0178750Y0100983D01*
X0177354Y0099587D01*
X0175530Y0098831D01*
X0173556Y0098831D01*
X0171732Y0099587D01*
X0170337Y0100983D01*
X0169581Y0102807D01*
X0169581Y0109981D01*
X0170337Y0111805D01*
X0171638Y0113106D01*
X0167448Y0113106D01*
X0168750Y0111805D01*
X0169505Y0109981D01*
X0169505Y0102807D01*
X0168750Y0100983D01*
X0167354Y0099587D01*
X0165530Y0098831D01*
X0163556Y0098831D01*
X0163480Y0098863D01*
X0163480Y0096792D01*
X0162881Y0095345D01*
X0161773Y0094237D01*
X0154805Y0087269D01*
X0153358Y0086669D01*
X0136174Y0086669D01*
X0133393Y0083888D01*
X0133556Y0083956D01*
X0135530Y0083956D01*
X0137354Y0083200D01*
X0138750Y0081805D01*
X0139505Y0079981D01*
X0139505Y0072807D01*
X0138750Y0070983D01*
X0137354Y0069587D01*
X0135530Y0068831D01*
X0133556Y0068831D01*
X0131732Y0069587D01*
X0130337Y0070983D01*
X0129581Y0072807D01*
X0129581Y0079981D01*
X0129649Y0080144D01*
X0129500Y0079995D01*
X0129505Y0079981D01*
X0129505Y0072807D01*
X0128750Y0070983D01*
X0128480Y0070713D01*
X0128480Y0068087D01*
X0149735Y0068087D01*
X0150411Y0068762D01*
X0150606Y0068843D01*
X0150606Y0070713D01*
X0150337Y0070983D01*
X0149581Y0072807D01*
X0149581Y0079981D01*
X0150337Y0081805D01*
X0151732Y0083200D01*
X0153556Y0083956D01*
X0155530Y0083956D01*
X0157354Y0083200D01*
X0158750Y0081805D01*
X0159505Y0079981D01*
X0159505Y0072807D01*
X0158750Y0070983D01*
X0158480Y0070713D01*
X0158480Y0067383D01*
X0158762Y0067101D01*
X0159661Y0064931D01*
X0159661Y0062581D01*
X0158762Y0060411D01*
X0157101Y0058749D01*
X0154931Y0057850D01*
X0152581Y0057850D01*
X0150411Y0058749D01*
X0149735Y0059425D01*
X0127777Y0059425D01*
X0127101Y0058749D01*
X0124931Y0057850D01*
X0122581Y0057850D01*
X0120411Y0058749D01*
X0119499Y0059661D01*
X0047067Y0059661D01*
X0045620Y0060261D01*
X0044513Y0061368D01*
X0022387Y0083494D01*
X0021787Y0084941D01*
X0021787Y0158166D01*
X0020213Y0159741D01*
X0020213Y0164307D01*
X0023441Y0167535D01*
X0028007Y0167535D01*
X0030860Y0164683D01*
X0031052Y0165146D01*
X0032602Y0166696D01*
X0034628Y0167535D01*
X0036821Y0167535D01*
X0038847Y0166696D01*
X0040397Y0165146D01*
X0041236Y0163120D01*
X0041236Y0162729D01*
X0041293Y0163088D01*
X0041514Y0163768D01*
X0041839Y0164405D01*
X0042259Y0164983D01*
X0042765Y0165489D01*
X0043343Y0165909D01*
X0043980Y0166234D01*
X0044661Y0166455D01*
X0045331Y0166561D01*
X0045331Y0162417D01*
X0046118Y0162417D01*
X0046118Y0166561D01*
X0046788Y0166455D01*
X0047468Y0166234D01*
X0048106Y0165909D01*
X0048684Y0165489D01*
X0049190Y0164983D01*
X0049610Y0164405D01*
X0049935Y0163768D01*
X0050156Y0163088D01*
X0050213Y0162729D01*
X0050213Y0163120D01*
X0051052Y0165146D01*
X0052602Y0166696D01*
X0054628Y0167535D01*
X0056821Y0167535D01*
X0058847Y0166696D01*
X0060397Y0165146D01*
X0060724Y0164356D01*
X0061052Y0165146D01*
X0062602Y0166696D01*
X0064628Y0167535D01*
X0066821Y0167535D01*
X0068847Y0166696D01*
X0070397Y0165146D01*
X0070724Y0164356D01*
X0071052Y0165146D01*
X0072602Y0166696D01*
X0074628Y0167535D01*
X0076821Y0167535D01*
X0078847Y0166696D01*
X0080397Y0165146D01*
X0080724Y0164356D01*
X0081052Y0165146D01*
X0082602Y0166696D01*
X0084628Y0167535D01*
X0086821Y0167535D01*
X0088847Y0166696D01*
X0090397Y0165146D01*
X0091236Y0163120D01*
X0091236Y0160927D01*
X0090397Y0158901D01*
X0089661Y0158166D01*
X0089661Y0131686D01*
X0109136Y0112212D01*
X0110243Y0111104D01*
X0110843Y0109657D01*
X0110843Y0108900D01*
X0111176Y0108762D01*
X0112837Y0107101D01*
X0113736Y0104931D01*
X0113736Y0102581D01*
X0112837Y0100411D01*
X0112161Y0099735D01*
X0112161Y0099639D02*
X0114780Y0099639D01*
X0114780Y0100425D02*
X0112843Y0100425D01*
X0113168Y0101211D02*
X0114780Y0101211D01*
X0114780Y0101997D02*
X0113494Y0101997D01*
X0113736Y0102782D02*
X0114780Y0102782D01*
X0114780Y0103568D02*
X0113736Y0103568D01*
X0113736Y0104354D02*
X0114780Y0104354D01*
X0114780Y0105140D02*
X0113649Y0105140D01*
X0113324Y0105926D02*
X0114780Y0105926D01*
X0114780Y0106712D02*
X0112998Y0106712D01*
X0112440Y0107498D02*
X0114780Y0107498D01*
X0114780Y0108284D02*
X0111654Y0108284D01*
X0110843Y0109070D02*
X0114780Y0109070D01*
X0114780Y0109856D02*
X0110760Y0109856D01*
X0110435Y0110642D02*
X0114780Y0110642D01*
X0114780Y0111427D02*
X0109920Y0111427D01*
X0109134Y0112213D02*
X0114780Y0112213D01*
X0114780Y0112999D02*
X0108348Y0112999D01*
X0107562Y0113785D02*
X0114780Y0113785D01*
X0114780Y0114571D02*
X0106776Y0114571D01*
X0105990Y0115357D02*
X0114780Y0115357D01*
X0114780Y0116143D02*
X0105204Y0116143D01*
X0104418Y0116929D02*
X0114780Y0116929D01*
X0114780Y0117715D02*
X0103633Y0117715D01*
X0102847Y0118501D02*
X0114780Y0118501D01*
X0114780Y0119287D02*
X0102061Y0119287D01*
X0101275Y0120073D02*
X0115017Y0120073D01*
X0115342Y0120858D02*
X0100489Y0120858D01*
X0099703Y0121644D02*
X0115488Y0121644D01*
X0115488Y0122430D02*
X0098917Y0122430D01*
X0098131Y0123216D02*
X0115757Y0123216D01*
X0116082Y0124002D02*
X0097345Y0124002D01*
X0096559Y0124788D02*
X0116436Y0124788D01*
X0117063Y0125574D02*
X0095773Y0125574D01*
X0094987Y0126360D02*
X0117063Y0126360D01*
X0117063Y0127146D02*
X0094202Y0127146D01*
X0093416Y0127932D02*
X0117063Y0127932D01*
X0117063Y0128718D02*
X0092630Y0128718D01*
X0091844Y0129503D02*
X0117063Y0129503D01*
X0117063Y0130289D02*
X0091058Y0130289D01*
X0090272Y0131075D02*
X0117735Y0131075D01*
X0118229Y0132647D02*
X0089661Y0132647D01*
X0089661Y0131861D02*
X0125606Y0131861D01*
X0125606Y0131075D02*
X0125053Y0131075D01*
X0124559Y0132647D02*
X0125606Y0132647D01*
X0125606Y0133433D02*
X0124756Y0133433D01*
X0124756Y0134219D02*
X0125606Y0134219D01*
X0125606Y0135005D02*
X0124756Y0135005D01*
X0124756Y0135791D02*
X0125606Y0135791D01*
X0125606Y0136577D02*
X0124756Y0136577D01*
X0124756Y0137363D02*
X0125606Y0137363D01*
X0125606Y0138148D02*
X0125130Y0138148D01*
X0121787Y0138874D02*
X0121787Y0141000D01*
X0121000Y0141000D01*
X0121000Y0138874D01*
X0121787Y0138874D01*
X0121787Y0138934D02*
X0121000Y0138934D01*
X0121000Y0139720D02*
X0121787Y0139720D01*
X0121787Y0140506D02*
X0121000Y0140506D01*
X0121000Y0142078D02*
X0121787Y0142078D01*
X0121787Y0142864D02*
X0121000Y0142864D01*
X0121000Y0143650D02*
X0121787Y0143650D01*
X0121787Y0144436D02*
X0121000Y0144436D01*
X0121000Y0145222D02*
X0121787Y0145222D01*
X0121787Y0146008D02*
X0121000Y0146008D01*
X0119617Y0146008D02*
X0089661Y0146008D01*
X0089661Y0146794D02*
X0125606Y0146794D01*
X0125606Y0147579D02*
X0089661Y0147579D01*
X0089661Y0148365D02*
X0125606Y0148365D01*
X0125606Y0149151D02*
X0089661Y0149151D01*
X0089661Y0149937D02*
X0125606Y0149937D01*
X0125606Y0150723D02*
X0089661Y0150723D01*
X0089661Y0151509D02*
X0125606Y0151509D01*
X0125606Y0152295D02*
X0089661Y0152295D01*
X0089661Y0153081D02*
X0125606Y0153081D01*
X0125606Y0153867D02*
X0089661Y0153867D01*
X0089661Y0154653D02*
X0125606Y0154653D01*
X0125606Y0155439D02*
X0089661Y0155439D01*
X0089661Y0156224D02*
X0125606Y0156224D01*
X0125606Y0157010D02*
X0089661Y0157010D01*
X0089661Y0157796D02*
X0125606Y0157796D01*
X0125606Y0158582D02*
X0090078Y0158582D01*
X0090590Y0159368D02*
X0125606Y0159368D01*
X0125606Y0160154D02*
X0090916Y0160154D01*
X0091236Y0160940D02*
X0125606Y0160940D01*
X0125606Y0161726D02*
X0091236Y0161726D01*
X0091236Y0162512D02*
X0115906Y0162512D01*
X0115925Y0162504D02*
X0119461Y0162504D01*
X0122729Y0163857D01*
X0125229Y0166358D01*
X0126583Y0169625D01*
X0126583Y0173162D01*
X0125229Y0176429D01*
X0122729Y0178930D01*
X0119461Y0180283D01*
X0115925Y0180283D01*
X0112657Y0178930D01*
X0110157Y0176429D01*
X0108803Y0173162D01*
X0108803Y0169625D01*
X0110157Y0166358D01*
X0112657Y0163857D01*
X0115925Y0162504D01*
X0114008Y0163298D02*
X0091163Y0163298D01*
X0090837Y0164084D02*
X0112431Y0164084D01*
X0111645Y0164870D02*
X0090512Y0164870D01*
X0089887Y0165655D02*
X0110859Y0165655D01*
X0110122Y0166441D02*
X0089102Y0166441D01*
X0087565Y0167227D02*
X0109796Y0167227D01*
X0109471Y0168013D02*
X0006905Y0168013D01*
X0006905Y0167227D02*
X0023133Y0167227D01*
X0022347Y0166441D02*
X0006905Y0166441D01*
X0006905Y0165655D02*
X0021561Y0165655D01*
X0020775Y0164870D02*
X0006905Y0164870D01*
X0006905Y0164084D02*
X0020213Y0164084D01*
X0020213Y0163298D02*
X0006905Y0163298D01*
X0006905Y0162512D02*
X0020213Y0162512D01*
X0020213Y0161726D02*
X0006905Y0161726D01*
X0006905Y0160940D02*
X0020213Y0160940D01*
X0020213Y0160154D02*
X0006905Y0160154D01*
X0006905Y0159368D02*
X0020585Y0159368D01*
X0021371Y0158582D02*
X0006905Y0158582D01*
X0006905Y0157796D02*
X0021787Y0157796D01*
X0021787Y0157010D02*
X0006905Y0157010D01*
X0006905Y0156224D02*
X0021787Y0156224D01*
X0021787Y0155439D02*
X0006905Y0155439D01*
X0006905Y0154653D02*
X0021787Y0154653D01*
X0021787Y0153867D02*
X0006905Y0153867D01*
X0006905Y0153081D02*
X0021787Y0153081D01*
X0021787Y0152295D02*
X0006905Y0152295D01*
X0006905Y0151509D02*
X0021787Y0151509D01*
X0021787Y0150723D02*
X0006905Y0150723D01*
X0006905Y0149937D02*
X0021787Y0149937D01*
X0021787Y0149151D02*
X0006905Y0149151D01*
X0006905Y0148365D02*
X0021787Y0148365D01*
X0021787Y0147579D02*
X0006905Y0147579D01*
X0006905Y0146794D02*
X0021787Y0146794D01*
X0021787Y0146008D02*
X0006905Y0146008D01*
X0006905Y0145222D02*
X0021787Y0145222D01*
X0021787Y0144436D02*
X0006905Y0144436D01*
X0006905Y0143650D02*
X0021787Y0143650D01*
X0021787Y0142864D02*
X0006905Y0142864D01*
X0006905Y0142078D02*
X0021787Y0142078D01*
X0021787Y0141292D02*
X0006905Y0141292D01*
X0006905Y0140506D02*
X0021787Y0140506D01*
X0021787Y0139720D02*
X0006905Y0139720D01*
X0006905Y0138934D02*
X0021787Y0138934D01*
X0021787Y0138148D02*
X0006905Y0138148D01*
X0006905Y0137363D02*
X0021787Y0137363D01*
X0021787Y0136577D02*
X0006905Y0136577D01*
X0006905Y0135791D02*
X0021787Y0135791D01*
X0021787Y0135005D02*
X0006905Y0135005D01*
X0006905Y0134219D02*
X0021787Y0134219D01*
X0021787Y0133433D02*
X0006905Y0133433D01*
X0006905Y0132647D02*
X0021787Y0132647D01*
X0021787Y0131861D02*
X0006905Y0131861D01*
X0006905Y0131075D02*
X0021787Y0131075D01*
X0021787Y0130289D02*
X0006905Y0130289D01*
X0006905Y0129503D02*
X0021787Y0129503D01*
X0021787Y0128718D02*
X0006905Y0128718D01*
X0006905Y0127932D02*
X0021787Y0127932D01*
X0021787Y0127146D02*
X0006905Y0127146D01*
X0006905Y0126360D02*
X0021787Y0126360D01*
X0021787Y0125574D02*
X0006905Y0125574D01*
X0006905Y0124788D02*
X0021787Y0124788D01*
X0021787Y0124002D02*
X0006905Y0124002D01*
X0006905Y0123216D02*
X0021787Y0123216D01*
X0021787Y0122430D02*
X0006905Y0122430D01*
X0006905Y0121644D02*
X0021787Y0121644D01*
X0021787Y0120858D02*
X0006905Y0120858D01*
X0006905Y0120073D02*
X0021787Y0120073D01*
X0021787Y0119287D02*
X0006905Y0119287D01*
X0006905Y0118501D02*
X0021787Y0118501D01*
X0021787Y0117715D02*
X0006905Y0117715D01*
X0006905Y0116929D02*
X0021787Y0116929D01*
X0021787Y0116143D02*
X0006905Y0116143D01*
X0006905Y0115357D02*
X0021787Y0115357D01*
X0021787Y0114571D02*
X0006905Y0114571D01*
X0006905Y0113785D02*
X0021787Y0113785D01*
X0021787Y0112999D02*
X0006905Y0112999D01*
X0006905Y0112213D02*
X0021787Y0112213D01*
X0021787Y0111427D02*
X0006905Y0111427D01*
X0006905Y0110642D02*
X0021787Y0110642D01*
X0021787Y0109856D02*
X0006905Y0109856D01*
X0006905Y0109070D02*
X0021787Y0109070D01*
X0021787Y0108284D02*
X0006905Y0108284D01*
X0006905Y0107498D02*
X0021787Y0107498D01*
X0021787Y0106712D02*
X0006905Y0106712D01*
X0006905Y0105926D02*
X0021787Y0105926D01*
X0021787Y0105140D02*
X0006905Y0105140D01*
X0006905Y0104354D02*
X0021787Y0104354D01*
X0021787Y0103568D02*
X0006905Y0103568D01*
X0006905Y0102782D02*
X0021787Y0102782D01*
X0021787Y0101997D02*
X0006905Y0101997D01*
X0006905Y0101211D02*
X0021787Y0101211D01*
X0021787Y0100425D02*
X0006905Y0100425D01*
X0006905Y0099639D02*
X0021787Y0099639D01*
X0021787Y0098853D02*
X0006905Y0098853D01*
X0006905Y0098067D02*
X0021787Y0098067D01*
X0021787Y0097281D02*
X0006905Y0097281D01*
X0006905Y0096495D02*
X0021787Y0096495D01*
X0021787Y0095709D02*
X0006905Y0095709D01*
X0006905Y0094923D02*
X0021787Y0094923D01*
X0021787Y0094137D02*
X0006905Y0094137D01*
X0006905Y0093351D02*
X0021787Y0093351D01*
X0021787Y0092566D02*
X0006905Y0092566D01*
X0006905Y0091780D02*
X0021787Y0091780D01*
X0021787Y0090994D02*
X0006905Y0090994D01*
X0006905Y0090208D02*
X0021787Y0090208D01*
X0021787Y0089422D02*
X0006905Y0089422D01*
X0006905Y0088636D02*
X0021787Y0088636D01*
X0021787Y0087850D02*
X0006905Y0087850D01*
X0006905Y0087064D02*
X0021787Y0087064D01*
X0021787Y0086278D02*
X0006905Y0086278D01*
X0006905Y0085492D02*
X0021787Y0085492D01*
X0021885Y0084706D02*
X0006905Y0084706D01*
X0006905Y0083921D02*
X0022210Y0083921D01*
X0022746Y0083135D02*
X0006905Y0083135D01*
X0006905Y0082349D02*
X0023532Y0082349D01*
X0024318Y0081563D02*
X0006905Y0081563D01*
X0006905Y0080777D02*
X0025104Y0080777D01*
X0025890Y0079991D02*
X0006905Y0079991D01*
X0006905Y0079205D02*
X0026676Y0079205D01*
X0027462Y0078419D02*
X0006905Y0078419D01*
X0006905Y0077633D02*
X0028248Y0077633D01*
X0029034Y0076847D02*
X0006905Y0076847D01*
X0006905Y0076061D02*
X0029820Y0076061D01*
X0030606Y0075275D02*
X0006905Y0075275D01*
X0006905Y0074490D02*
X0031391Y0074490D01*
X0032177Y0073704D02*
X0006905Y0073704D01*
X0006905Y0072918D02*
X0032963Y0072918D01*
X0033749Y0072132D02*
X0006905Y0072132D01*
X0006905Y0071346D02*
X0034535Y0071346D01*
X0035321Y0070560D02*
X0006905Y0070560D01*
X0006905Y0069774D02*
X0036107Y0069774D01*
X0036893Y0068988D02*
X0006905Y0068988D01*
X0006905Y0068202D02*
X0037679Y0068202D01*
X0038465Y0067416D02*
X0006905Y0067416D01*
X0006905Y0066630D02*
X0039251Y0066630D01*
X0040037Y0065845D02*
X0006905Y0065845D01*
X0006905Y0065059D02*
X0040822Y0065059D01*
X0041608Y0064273D02*
X0006905Y0064273D01*
X0006905Y0063487D02*
X0042394Y0063487D01*
X0043180Y0062701D02*
X0006905Y0062701D01*
X0006905Y0061915D02*
X0043966Y0061915D01*
X0044752Y0061129D02*
X0006905Y0061129D01*
X0006905Y0060343D02*
X0045538Y0060343D01*
X0049481Y0067535D02*
X0029661Y0087355D01*
X0029661Y0158166D01*
X0030860Y0159364D01*
X0031052Y0158901D01*
X0032602Y0157351D01*
X0034628Y0156512D01*
X0036821Y0156512D01*
X0038847Y0157351D01*
X0040397Y0158901D01*
X0041236Y0160927D01*
X0041236Y0161318D01*
X0041293Y0160960D01*
X0041514Y0160280D01*
X0041839Y0159642D01*
X0042259Y0159064D01*
X0042765Y0158558D01*
X0043343Y0158138D01*
X0043980Y0157813D01*
X0044661Y0157592D01*
X0045331Y0157486D01*
X0045331Y0161630D01*
X0046118Y0161630D01*
X0046118Y0157486D01*
X0046788Y0157592D01*
X0047468Y0157813D01*
X0048106Y0158138D01*
X0048684Y0158558D01*
X0049190Y0159064D01*
X0049610Y0159642D01*
X0049935Y0160280D01*
X0050156Y0160960D01*
X0050213Y0161318D01*
X0050213Y0160927D01*
X0051052Y0158901D01*
X0051787Y0158166D01*
X0051787Y0104154D01*
X0052387Y0102707D01*
X0083883Y0071211D01*
X0084990Y0070103D01*
X0086437Y0069504D01*
X0092944Y0069504D01*
X0093698Y0068749D01*
X0095869Y0067850D01*
X0098218Y0067850D01*
X0100389Y0068749D01*
X0102050Y0070411D01*
X0102437Y0071346D01*
X0102824Y0070411D01*
X0104485Y0068749D01*
X0106656Y0067850D01*
X0109005Y0067850D01*
X0111176Y0068749D01*
X0112837Y0070411D01*
X0113736Y0072581D01*
X0113736Y0074931D01*
X0112837Y0077101D01*
X0112161Y0077777D01*
X0112161Y0079568D01*
X0113073Y0079946D01*
X0114180Y0081053D01*
X0124284Y0091157D01*
X0129527Y0091157D01*
X0120556Y0082187D01*
X0120441Y0081909D01*
X0120337Y0081805D01*
X0119581Y0079981D01*
X0119581Y0072807D01*
X0120337Y0070983D01*
X0120606Y0070713D01*
X0120606Y0068843D01*
X0120411Y0068762D01*
X0119184Y0067535D01*
X0049481Y0067535D01*
X0048814Y0068202D02*
X0095019Y0068202D01*
X0093459Y0068988D02*
X0048028Y0068988D01*
X0047242Y0069774D02*
X0085785Y0069774D01*
X0084534Y0070560D02*
X0046457Y0070560D01*
X0045671Y0071346D02*
X0083748Y0071346D01*
X0082962Y0072132D02*
X0044885Y0072132D01*
X0044099Y0072918D02*
X0082176Y0072918D01*
X0081390Y0073704D02*
X0043313Y0073704D01*
X0042527Y0074490D02*
X0080604Y0074490D01*
X0079818Y0075275D02*
X0041741Y0075275D01*
X0040955Y0076061D02*
X0079032Y0076061D01*
X0078246Y0076847D02*
X0040169Y0076847D01*
X0039383Y0077633D02*
X0077460Y0077633D01*
X0076675Y0078419D02*
X0038597Y0078419D01*
X0037812Y0079205D02*
X0075889Y0079205D01*
X0075103Y0079991D02*
X0037026Y0079991D01*
X0036240Y0080777D02*
X0074317Y0080777D01*
X0073531Y0081563D02*
X0035454Y0081563D01*
X0034668Y0082349D02*
X0072745Y0082349D01*
X0071959Y0083135D02*
X0033882Y0083135D01*
X0033096Y0083921D02*
X0071173Y0083921D01*
X0070387Y0084706D02*
X0032310Y0084706D01*
X0031524Y0085492D02*
X0069601Y0085492D01*
X0068815Y0086278D02*
X0030738Y0086278D01*
X0029952Y0087064D02*
X0068029Y0087064D01*
X0067244Y0087850D02*
X0029661Y0087850D01*
X0029661Y0088636D02*
X0066458Y0088636D01*
X0065672Y0089422D02*
X0029661Y0089422D01*
X0029661Y0090208D02*
X0064886Y0090208D01*
X0064100Y0090994D02*
X0029661Y0090994D01*
X0029661Y0091780D02*
X0063314Y0091780D01*
X0062528Y0092566D02*
X0029661Y0092566D01*
X0029661Y0093351D02*
X0061742Y0093351D01*
X0060956Y0094137D02*
X0029661Y0094137D01*
X0029661Y0094923D02*
X0060170Y0094923D01*
X0059384Y0095709D02*
X0029661Y0095709D01*
X0029661Y0096495D02*
X0058599Y0096495D01*
X0057813Y0097281D02*
X0029661Y0097281D01*
X0029661Y0098067D02*
X0057027Y0098067D01*
X0056241Y0098853D02*
X0029661Y0098853D01*
X0029661Y0099639D02*
X0055455Y0099639D01*
X0054669Y0100425D02*
X0029661Y0100425D01*
X0029661Y0101211D02*
X0053883Y0101211D01*
X0053097Y0101997D02*
X0029661Y0101997D01*
X0029661Y0102782D02*
X0052355Y0102782D01*
X0052030Y0103568D02*
X0029661Y0103568D01*
X0029661Y0104354D02*
X0051787Y0104354D01*
X0051787Y0105140D02*
X0029661Y0105140D01*
X0029661Y0105926D02*
X0051787Y0105926D01*
X0051787Y0106712D02*
X0029661Y0106712D01*
X0029661Y0107498D02*
X0051787Y0107498D01*
X0051787Y0108284D02*
X0029661Y0108284D01*
X0029661Y0109070D02*
X0051787Y0109070D01*
X0051787Y0109856D02*
X0029661Y0109856D01*
X0029661Y0110642D02*
X0051787Y0110642D01*
X0051787Y0111427D02*
X0029661Y0111427D01*
X0029661Y0112213D02*
X0051787Y0112213D01*
X0051787Y0112999D02*
X0029661Y0112999D01*
X0029661Y0113785D02*
X0051787Y0113785D01*
X0051787Y0114571D02*
X0029661Y0114571D01*
X0029661Y0115357D02*
X0051787Y0115357D01*
X0051787Y0116143D02*
X0029661Y0116143D01*
X0029661Y0116929D02*
X0051787Y0116929D01*
X0051787Y0117715D02*
X0029661Y0117715D01*
X0029661Y0118501D02*
X0051787Y0118501D01*
X0051787Y0119287D02*
X0029661Y0119287D01*
X0029661Y0120073D02*
X0051787Y0120073D01*
X0051787Y0120858D02*
X0029661Y0120858D01*
X0029661Y0121644D02*
X0051787Y0121644D01*
X0051787Y0122430D02*
X0029661Y0122430D01*
X0029661Y0123216D02*
X0051787Y0123216D01*
X0051787Y0124002D02*
X0029661Y0124002D01*
X0029661Y0124788D02*
X0051787Y0124788D01*
X0051787Y0125574D02*
X0029661Y0125574D01*
X0029661Y0126360D02*
X0051787Y0126360D01*
X0051787Y0127146D02*
X0029661Y0127146D01*
X0029661Y0127932D02*
X0051787Y0127932D01*
X0051787Y0128718D02*
X0029661Y0128718D01*
X0029661Y0129503D02*
X0051787Y0129503D01*
X0051787Y0130289D02*
X0029661Y0130289D01*
X0029661Y0131075D02*
X0051787Y0131075D01*
X0051787Y0131861D02*
X0029661Y0131861D01*
X0029661Y0132647D02*
X0051787Y0132647D01*
X0051787Y0133433D02*
X0029661Y0133433D01*
X0029661Y0134219D02*
X0051787Y0134219D01*
X0051787Y0135005D02*
X0029661Y0135005D01*
X0029661Y0135791D02*
X0051787Y0135791D01*
X0051787Y0136577D02*
X0029661Y0136577D01*
X0029661Y0137363D02*
X0051787Y0137363D01*
X0051787Y0138148D02*
X0029661Y0138148D01*
X0029661Y0138934D02*
X0051787Y0138934D01*
X0051787Y0139720D02*
X0029661Y0139720D01*
X0029661Y0140506D02*
X0051787Y0140506D01*
X0051787Y0141292D02*
X0029661Y0141292D01*
X0029661Y0142078D02*
X0051787Y0142078D01*
X0051787Y0142864D02*
X0029661Y0142864D01*
X0029661Y0143650D02*
X0051787Y0143650D01*
X0051787Y0144436D02*
X0029661Y0144436D01*
X0029661Y0145222D02*
X0051787Y0145222D01*
X0051787Y0146008D02*
X0029661Y0146008D01*
X0029661Y0146794D02*
X0051787Y0146794D01*
X0051787Y0147579D02*
X0029661Y0147579D01*
X0029661Y0148365D02*
X0051787Y0148365D01*
X0051787Y0149151D02*
X0029661Y0149151D01*
X0029661Y0149937D02*
X0051787Y0149937D01*
X0051787Y0150723D02*
X0029661Y0150723D01*
X0029661Y0151509D02*
X0051787Y0151509D01*
X0051787Y0152295D02*
X0029661Y0152295D01*
X0029661Y0153081D02*
X0051787Y0153081D01*
X0051787Y0153867D02*
X0029661Y0153867D01*
X0029661Y0154653D02*
X0051787Y0154653D01*
X0051787Y0155439D02*
X0029661Y0155439D01*
X0029661Y0156224D02*
X0051787Y0156224D01*
X0051787Y0157010D02*
X0038024Y0157010D01*
X0039292Y0157796D02*
X0044032Y0157796D01*
X0045331Y0157796D02*
X0046118Y0157796D01*
X0046118Y0158582D02*
X0045331Y0158582D01*
X0045331Y0159368D02*
X0046118Y0159368D01*
X0046118Y0160154D02*
X0045331Y0160154D01*
X0045331Y0160940D02*
X0046118Y0160940D01*
X0046118Y0162512D02*
X0045331Y0162512D01*
X0045331Y0163298D02*
X0046118Y0163298D01*
X0046118Y0164084D02*
X0045331Y0164084D01*
X0045331Y0164870D02*
X0046118Y0164870D01*
X0046118Y0165655D02*
X0045331Y0165655D01*
X0045331Y0166441D02*
X0046118Y0166441D01*
X0046830Y0166441D02*
X0052347Y0166441D01*
X0051561Y0165655D02*
X0048455Y0165655D01*
X0049273Y0164870D02*
X0050937Y0164870D01*
X0050612Y0164084D02*
X0049774Y0164084D01*
X0050088Y0163298D02*
X0050286Y0163298D01*
X0050213Y0160940D02*
X0050149Y0160940D01*
X0049871Y0160154D02*
X0050533Y0160154D01*
X0050858Y0159368D02*
X0049411Y0159368D01*
X0048708Y0158582D02*
X0051371Y0158582D01*
X0051787Y0157796D02*
X0047417Y0157796D01*
X0042741Y0158582D02*
X0040078Y0158582D01*
X0040590Y0159368D02*
X0042038Y0159368D01*
X0041578Y0160154D02*
X0040916Y0160154D01*
X0041236Y0160940D02*
X0041299Y0160940D01*
X0041361Y0163298D02*
X0041163Y0163298D01*
X0040837Y0164084D02*
X0041675Y0164084D01*
X0042176Y0164870D02*
X0040512Y0164870D01*
X0039887Y0165655D02*
X0042994Y0165655D01*
X0044618Y0166441D02*
X0039102Y0166441D01*
X0037565Y0167227D02*
X0053884Y0167227D01*
X0057565Y0167227D02*
X0063884Y0167227D01*
X0062347Y0166441D02*
X0059102Y0166441D01*
X0059887Y0165655D02*
X0061561Y0165655D01*
X0060937Y0164870D02*
X0060512Y0164870D01*
X0067565Y0167227D02*
X0073884Y0167227D01*
X0072347Y0166441D02*
X0069102Y0166441D01*
X0069887Y0165655D02*
X0071561Y0165655D01*
X0070937Y0164870D02*
X0070512Y0164870D01*
X0070724Y0159692D02*
X0071052Y0158901D01*
X0071787Y0158166D01*
X0071787Y0124292D01*
X0072387Y0122845D01*
X0091138Y0104094D01*
X0091138Y0102581D01*
X0092037Y0100411D01*
X0092713Y0099735D01*
X0092713Y0077777D01*
X0092314Y0077378D01*
X0088851Y0077378D01*
X0059661Y0106568D01*
X0059661Y0138402D01*
X0064382Y0138402D01*
X0065829Y0139001D01*
X0066936Y0140108D01*
X0069062Y0142234D01*
X0069661Y0143681D01*
X0069661Y0158166D01*
X0070397Y0158901D01*
X0070724Y0159692D01*
X0070590Y0159368D02*
X0070858Y0159368D01*
X0071371Y0158582D02*
X0070078Y0158582D01*
X0069661Y0157796D02*
X0071787Y0157796D01*
X0071787Y0157010D02*
X0069661Y0157010D01*
X0069661Y0156224D02*
X0071787Y0156224D01*
X0071787Y0155439D02*
X0069661Y0155439D01*
X0069661Y0154653D02*
X0071787Y0154653D01*
X0071787Y0153867D02*
X0069661Y0153867D01*
X0069661Y0153081D02*
X0071787Y0153081D01*
X0071787Y0152295D02*
X0069661Y0152295D01*
X0069661Y0151509D02*
X0071787Y0151509D01*
X0071787Y0150723D02*
X0069661Y0150723D01*
X0069661Y0149937D02*
X0071787Y0149937D01*
X0071787Y0149151D02*
X0069661Y0149151D01*
X0069661Y0148365D02*
X0071787Y0148365D01*
X0071787Y0147579D02*
X0069661Y0147579D01*
X0069661Y0146794D02*
X0071787Y0146794D01*
X0071787Y0146008D02*
X0069661Y0146008D01*
X0069661Y0145222D02*
X0071787Y0145222D01*
X0071787Y0144436D02*
X0069661Y0144436D01*
X0069648Y0143650D02*
X0071787Y0143650D01*
X0071787Y0142864D02*
X0069323Y0142864D01*
X0068906Y0142078D02*
X0071787Y0142078D01*
X0071787Y0141292D02*
X0068120Y0141292D01*
X0067334Y0140506D02*
X0071787Y0140506D01*
X0071787Y0139720D02*
X0066548Y0139720D01*
X0065668Y0138934D02*
X0071787Y0138934D01*
X0071787Y0138148D02*
X0059661Y0138148D01*
X0059661Y0137363D02*
X0071787Y0137363D01*
X0071787Y0136577D02*
X0059661Y0136577D01*
X0059661Y0135791D02*
X0071787Y0135791D01*
X0071787Y0135005D02*
X0059661Y0135005D01*
X0059661Y0134219D02*
X0071787Y0134219D01*
X0071787Y0133433D02*
X0059661Y0133433D01*
X0059661Y0132647D02*
X0071787Y0132647D01*
X0071787Y0131861D02*
X0059661Y0131861D01*
X0059661Y0131075D02*
X0071787Y0131075D01*
X0071787Y0130289D02*
X0059661Y0130289D01*
X0059661Y0129503D02*
X0071787Y0129503D01*
X0071787Y0128718D02*
X0059661Y0128718D01*
X0059661Y0127932D02*
X0071787Y0127932D01*
X0071787Y0127146D02*
X0059661Y0127146D01*
X0059661Y0126360D02*
X0071787Y0126360D01*
X0071787Y0125574D02*
X0059661Y0125574D01*
X0059661Y0124788D02*
X0071787Y0124788D01*
X0071907Y0124002D02*
X0059661Y0124002D01*
X0059661Y0123216D02*
X0072233Y0123216D01*
X0072801Y0122430D02*
X0059661Y0122430D01*
X0059661Y0121644D02*
X0073587Y0121644D01*
X0074373Y0120858D02*
X0059661Y0120858D01*
X0059661Y0120073D02*
X0075159Y0120073D01*
X0075945Y0119287D02*
X0059661Y0119287D01*
X0059661Y0118501D02*
X0076731Y0118501D01*
X0077517Y0117715D02*
X0059661Y0117715D01*
X0059661Y0116929D02*
X0078303Y0116929D01*
X0079088Y0116143D02*
X0059661Y0116143D01*
X0059661Y0115357D02*
X0079874Y0115357D01*
X0080660Y0114571D02*
X0059661Y0114571D01*
X0059661Y0113785D02*
X0081446Y0113785D01*
X0082232Y0112999D02*
X0059661Y0112999D01*
X0059661Y0112213D02*
X0083018Y0112213D01*
X0083804Y0111427D02*
X0059661Y0111427D01*
X0059661Y0110642D02*
X0084590Y0110642D01*
X0085376Y0109856D02*
X0059661Y0109856D01*
X0059661Y0109070D02*
X0086162Y0109070D01*
X0086948Y0108284D02*
X0059661Y0108284D01*
X0059661Y0107498D02*
X0087734Y0107498D01*
X0088519Y0106712D02*
X0059661Y0106712D01*
X0060303Y0105926D02*
X0089305Y0105926D01*
X0090091Y0105140D02*
X0061089Y0105140D01*
X0061875Y0104354D02*
X0090877Y0104354D01*
X0091138Y0103568D02*
X0062661Y0103568D01*
X0063447Y0102782D02*
X0091138Y0102782D01*
X0091380Y0101997D02*
X0064233Y0101997D01*
X0065019Y0101211D02*
X0091706Y0101211D01*
X0092031Y0100425D02*
X0065804Y0100425D01*
X0066590Y0099639D02*
X0092713Y0099639D01*
X0092713Y0098853D02*
X0067376Y0098853D01*
X0068162Y0098067D02*
X0092713Y0098067D01*
X0092713Y0097281D02*
X0068948Y0097281D01*
X0069734Y0096495D02*
X0092713Y0096495D01*
X0092713Y0095709D02*
X0070520Y0095709D01*
X0071306Y0094923D02*
X0092713Y0094923D01*
X0092713Y0094137D02*
X0072092Y0094137D01*
X0072878Y0093351D02*
X0092713Y0093351D01*
X0092713Y0092566D02*
X0073664Y0092566D01*
X0074450Y0091780D02*
X0092713Y0091780D01*
X0092713Y0090994D02*
X0075235Y0090994D01*
X0076021Y0090208D02*
X0092713Y0090208D01*
X0092713Y0089422D02*
X0076807Y0089422D01*
X0077593Y0088636D02*
X0092713Y0088636D01*
X0092713Y0087850D02*
X0078379Y0087850D01*
X0079165Y0087064D02*
X0092713Y0087064D01*
X0092713Y0086278D02*
X0079951Y0086278D01*
X0080737Y0085492D02*
X0092713Y0085492D01*
X0092713Y0084706D02*
X0081523Y0084706D01*
X0082309Y0083921D02*
X0092713Y0083921D01*
X0092713Y0083135D02*
X0083095Y0083135D01*
X0083880Y0082349D02*
X0092713Y0082349D01*
X0092713Y0081563D02*
X0084666Y0081563D01*
X0085452Y0080777D02*
X0092713Y0080777D01*
X0092713Y0079991D02*
X0086238Y0079991D01*
X0087024Y0079205D02*
X0092713Y0079205D01*
X0092713Y0078419D02*
X0087810Y0078419D01*
X0088596Y0077633D02*
X0092569Y0077633D01*
X0099067Y0068202D02*
X0105807Y0068202D01*
X0104247Y0068988D02*
X0100627Y0068988D01*
X0101413Y0069774D02*
X0103461Y0069774D01*
X0102762Y0070560D02*
X0102112Y0070560D01*
X0109855Y0068202D02*
X0119851Y0068202D01*
X0120606Y0068988D02*
X0111415Y0068988D01*
X0112201Y0069774D02*
X0120606Y0069774D01*
X0120606Y0070560D02*
X0112899Y0070560D01*
X0113225Y0071346D02*
X0120186Y0071346D01*
X0119861Y0072132D02*
X0113550Y0072132D01*
X0113736Y0072918D02*
X0119581Y0072918D01*
X0119581Y0073704D02*
X0113736Y0073704D01*
X0113736Y0074490D02*
X0119581Y0074490D01*
X0119581Y0075275D02*
X0113593Y0075275D01*
X0113268Y0076061D02*
X0119581Y0076061D01*
X0119581Y0076847D02*
X0112942Y0076847D01*
X0112305Y0077633D02*
X0119581Y0077633D01*
X0119581Y0078419D02*
X0112161Y0078419D01*
X0112161Y0079205D02*
X0119581Y0079205D01*
X0119585Y0079991D02*
X0113118Y0079991D01*
X0113904Y0080777D02*
X0119911Y0080777D01*
X0120236Y0081563D02*
X0114690Y0081563D01*
X0115476Y0082349D02*
X0120718Y0082349D01*
X0121504Y0083135D02*
X0116261Y0083135D01*
X0117047Y0083921D02*
X0122290Y0083921D01*
X0123076Y0084706D02*
X0117833Y0084706D01*
X0118619Y0085492D02*
X0123862Y0085492D01*
X0124648Y0086278D02*
X0119405Y0086278D01*
X0120191Y0087064D02*
X0125433Y0087064D01*
X0126219Y0087850D02*
X0120977Y0087850D01*
X0121763Y0088636D02*
X0127005Y0088636D01*
X0127791Y0089422D02*
X0122549Y0089422D01*
X0123335Y0090208D02*
X0128577Y0090208D01*
X0129363Y0090994D02*
X0124121Y0090994D01*
X0116915Y0094923D02*
X0112161Y0094923D01*
X0112161Y0094137D02*
X0116129Y0094137D01*
X0115343Y0093351D02*
X0112161Y0093351D01*
X0112161Y0092566D02*
X0114557Y0092566D01*
X0113771Y0091780D02*
X0112161Y0091780D01*
X0112161Y0090994D02*
X0112985Y0090994D01*
X0112199Y0090208D02*
X0112161Y0090208D01*
X0112161Y0095709D02*
X0116471Y0095709D01*
X0115685Y0096495D02*
X0112161Y0096495D01*
X0112161Y0097281D02*
X0115180Y0097281D01*
X0114855Y0098067D02*
X0112161Y0098067D01*
X0112161Y0098853D02*
X0114780Y0098853D01*
X0123351Y0099965D02*
X0123378Y0099953D01*
X0124150Y0099800D01*
X0124150Y0106000D01*
X0124937Y0106000D01*
X0124937Y0106787D01*
X0128537Y0106787D01*
X0128537Y0109387D01*
X0128384Y0110159D01*
X0128082Y0110885D01*
X0127645Y0111540D01*
X0127089Y0112096D01*
X0126435Y0112533D01*
X0125708Y0112834D01*
X0124937Y0112987D01*
X0124937Y0106787D01*
X0124150Y0106787D01*
X0124150Y0112987D01*
X0123378Y0112834D01*
X0122654Y0112534D01*
X0122654Y0115523D01*
X0124739Y0116387D01*
X0126400Y0118048D01*
X0126860Y0119159D01*
X0130606Y0115413D01*
X0130606Y0112074D01*
X0130337Y0111805D01*
X0129581Y0109981D01*
X0129581Y0102807D01*
X0130337Y0100983D01*
X0131732Y0099587D01*
X0133073Y0099031D01*
X0124284Y0099031D01*
X0123351Y0099965D01*
X0123677Y0099639D02*
X0131681Y0099639D01*
X0130895Y0100425D02*
X0126690Y0100425D01*
X0126435Y0100255D02*
X0127089Y0100692D01*
X0127645Y0101248D01*
X0128082Y0101902D01*
X0128384Y0102629D01*
X0128537Y0103400D01*
X0128537Y0106000D01*
X0124937Y0106000D01*
X0124937Y0099800D01*
X0125708Y0099953D01*
X0126435Y0100255D01*
X0124937Y0100425D02*
X0124150Y0100425D01*
X0124150Y0101211D02*
X0124937Y0101211D01*
X0124937Y0101997D02*
X0124150Y0101997D01*
X0124150Y0102782D02*
X0124937Y0102782D01*
X0124937Y0103568D02*
X0124150Y0103568D01*
X0124150Y0104354D02*
X0124937Y0104354D01*
X0124937Y0105140D02*
X0124150Y0105140D01*
X0124150Y0105926D02*
X0124937Y0105926D01*
X0124937Y0106712D02*
X0129581Y0106712D01*
X0129581Y0107498D02*
X0128537Y0107498D01*
X0128537Y0108284D02*
X0129581Y0108284D01*
X0129581Y0109070D02*
X0128537Y0109070D01*
X0128444Y0109856D02*
X0129581Y0109856D01*
X0129855Y0110642D02*
X0128183Y0110642D01*
X0127720Y0111427D02*
X0130180Y0111427D01*
X0130606Y0112213D02*
X0126913Y0112213D01*
X0124937Y0112213D02*
X0124150Y0112213D01*
X0124150Y0111427D02*
X0124937Y0111427D01*
X0124937Y0110642D02*
X0124150Y0110642D01*
X0124150Y0109856D02*
X0124937Y0109856D01*
X0124937Y0109070D02*
X0124150Y0109070D01*
X0124150Y0108284D02*
X0124937Y0108284D01*
X0124937Y0107498D02*
X0124150Y0107498D01*
X0128537Y0105926D02*
X0129581Y0105926D01*
X0129581Y0105140D02*
X0128537Y0105140D01*
X0128537Y0104354D02*
X0129581Y0104354D01*
X0129581Y0103568D02*
X0128537Y0103568D01*
X0128414Y0102782D02*
X0129591Y0102782D01*
X0129917Y0101997D02*
X0128122Y0101997D01*
X0127608Y0101211D02*
X0130242Y0101211D01*
X0130606Y0112999D02*
X0122654Y0112999D01*
X0122654Y0113785D02*
X0130606Y0113785D01*
X0130606Y0114571D02*
X0122654Y0114571D01*
X0122654Y0115357D02*
X0130606Y0115357D01*
X0129876Y0116143D02*
X0124149Y0116143D01*
X0125281Y0116929D02*
X0129090Y0116929D01*
X0128304Y0117715D02*
X0126066Y0117715D01*
X0126587Y0118501D02*
X0127518Y0118501D01*
X0121787Y0132647D02*
X0121000Y0132647D01*
X0121000Y0133433D02*
X0121787Y0133433D01*
X0121787Y0134219D02*
X0121000Y0134219D01*
X0121000Y0135005D02*
X0121787Y0135005D01*
X0121787Y0135791D02*
X0121000Y0135791D01*
X0121000Y0136577D02*
X0121787Y0136577D01*
X0121787Y0137363D02*
X0121000Y0137363D01*
X0118031Y0137363D02*
X0089661Y0137363D01*
X0089661Y0138148D02*
X0117657Y0138148D01*
X0117106Y0138934D02*
X0089661Y0138934D01*
X0089661Y0139720D02*
X0116746Y0139720D01*
X0116536Y0140506D02*
X0089661Y0140506D01*
X0089661Y0141292D02*
X0118031Y0141292D01*
X0116504Y0142078D02*
X0089661Y0142078D01*
X0089661Y0142864D02*
X0116680Y0142864D01*
X0117002Y0143650D02*
X0089661Y0143650D01*
X0089661Y0144436D02*
X0117501Y0144436D01*
X0118263Y0145222D02*
X0089661Y0145222D01*
X0089661Y0136577D02*
X0118031Y0136577D01*
X0118031Y0135791D02*
X0089661Y0135791D01*
X0089661Y0135005D02*
X0118031Y0135005D01*
X0118031Y0134219D02*
X0089661Y0134219D01*
X0089661Y0133433D02*
X0118031Y0133433D01*
X0125286Y0144436D02*
X0125606Y0144436D01*
X0125606Y0145222D02*
X0124524Y0145222D01*
X0125606Y0146008D02*
X0123170Y0146008D01*
X0133480Y0146008D02*
X0165440Y0146008D01*
X0166226Y0146794D02*
X0133480Y0146794D01*
X0133480Y0147579D02*
X0167012Y0147579D01*
X0167798Y0148365D02*
X0149229Y0148365D01*
X0150015Y0149151D02*
X0168584Y0149151D01*
X0169661Y0149937D02*
X0150801Y0149937D01*
X0151547Y0150723D02*
X0186815Y0150723D01*
X0187601Y0151509D02*
X0151547Y0151509D01*
X0151547Y0152295D02*
X0187966Y0152295D01*
X0187212Y0153081D02*
X0151547Y0153081D01*
X0151547Y0153867D02*
X0186698Y0153867D01*
X0186354Y0154653D02*
X0151547Y0154653D01*
X0151126Y0155439D02*
X0186148Y0155439D01*
X0186094Y0157010D02*
X0150001Y0157010D01*
X0150340Y0156224D02*
X0191000Y0156224D01*
X0191000Y0157010D02*
X0191787Y0157010D01*
X0191787Y0156224D02*
X0199031Y0156224D01*
X0199031Y0155439D02*
X0196640Y0155439D01*
X0196433Y0154653D02*
X0199031Y0154653D01*
X0199031Y0153867D02*
X0196089Y0153867D01*
X0195576Y0153081D02*
X0199031Y0153081D01*
X0199031Y0152295D02*
X0194821Y0152295D01*
X0195187Y0151509D02*
X0199031Y0151509D01*
X0199031Y0150723D02*
X0195973Y0150723D01*
X0196744Y0149937D02*
X0199031Y0149937D01*
X0199031Y0149151D02*
X0197070Y0149151D01*
X0197395Y0148365D02*
X0199031Y0148365D01*
X0199031Y0147579D02*
X0197693Y0147579D01*
X0197693Y0146794D02*
X0199031Y0146794D01*
X0199031Y0146008D02*
X0197693Y0146008D01*
X0197693Y0145222D02*
X0199031Y0145222D01*
X0199031Y0144436D02*
X0197401Y0144436D01*
X0197075Y0143650D02*
X0199031Y0143650D01*
X0199031Y0142864D02*
X0196750Y0142864D01*
X0195986Y0142078D02*
X0199031Y0142078D01*
X0199031Y0141292D02*
X0195404Y0141292D01*
X0196190Y0140506D02*
X0199031Y0140506D01*
X0199031Y0139720D02*
X0196834Y0139720D01*
X0197160Y0138934D02*
X0199031Y0138934D01*
X0199031Y0138148D02*
X0197485Y0138148D01*
X0197693Y0137363D02*
X0199031Y0137363D01*
X0199031Y0136577D02*
X0197693Y0136577D01*
X0197693Y0135791D02*
X0199031Y0135791D01*
X0199031Y0135005D02*
X0197637Y0135005D01*
X0197311Y0134219D02*
X0199031Y0134219D01*
X0199031Y0133433D02*
X0196986Y0133433D01*
X0196556Y0132647D02*
X0199031Y0132647D01*
X0199031Y0131861D02*
X0195770Y0131861D01*
X0195621Y0131075D02*
X0199031Y0131075D01*
X0199031Y0130289D02*
X0196406Y0130289D01*
X0196924Y0129503D02*
X0199031Y0129503D01*
X0199031Y0128718D02*
X0197249Y0128718D01*
X0197575Y0127932D02*
X0199031Y0127932D01*
X0199031Y0127146D02*
X0197693Y0127146D01*
X0197693Y0126360D02*
X0199031Y0126360D01*
X0199031Y0125574D02*
X0197693Y0125574D01*
X0197547Y0124788D02*
X0199031Y0124788D01*
X0199031Y0124002D02*
X0197221Y0124002D01*
X0196896Y0123216D02*
X0199031Y0123216D01*
X0199031Y0122430D02*
X0196339Y0122430D01*
X0195553Y0121644D02*
X0199031Y0121644D01*
X0199031Y0120858D02*
X0194491Y0120858D01*
X0192868Y0119287D02*
X0199031Y0119287D01*
X0199031Y0120073D02*
X0192082Y0120073D01*
X0193654Y0118501D02*
X0199031Y0118501D01*
X0199031Y0117715D02*
X0194440Y0117715D01*
X0195226Y0116929D02*
X0199031Y0116929D01*
X0199031Y0116143D02*
X0196011Y0116143D01*
X0196797Y0115357D02*
X0199031Y0115357D01*
X0199031Y0114571D02*
X0197583Y0114571D01*
X0198083Y0113785D02*
X0199031Y0113785D01*
X0199031Y0112999D02*
X0198409Y0112999D01*
X0198480Y0112213D02*
X0199031Y0112213D01*
X0199031Y0111427D02*
X0198480Y0111427D01*
X0198480Y0110642D02*
X0199031Y0110642D01*
X0199031Y0109856D02*
X0198480Y0109856D01*
X0198480Y0109070D02*
X0199031Y0109070D01*
X0199031Y0108284D02*
X0198480Y0108284D01*
X0198480Y0107498D02*
X0199031Y0107498D01*
X0199031Y0106712D02*
X0198480Y0106712D01*
X0198480Y0105926D02*
X0199031Y0105926D01*
X0199031Y0097530D02*
X0199031Y0083460D01*
X0198766Y0083981D01*
X0198309Y0084610D01*
X0197905Y0085013D01*
X0197905Y0089609D01*
X0197811Y0089963D01*
X0197627Y0090281D01*
X0197368Y0090540D01*
X0197050Y0090724D01*
X0196695Y0090819D01*
X0194937Y0090819D01*
X0194937Y0084701D01*
X0194150Y0084701D01*
X0194150Y0090819D01*
X0192391Y0090819D01*
X0192037Y0090724D01*
X0191719Y0090540D01*
X0191460Y0090281D01*
X0191276Y0089963D01*
X0191181Y0089609D01*
X0191181Y0085013D01*
X0190778Y0084610D01*
X0190321Y0083981D01*
X0189968Y0083289D01*
X0189728Y0082550D01*
X0189607Y0081787D01*
X0191181Y0081787D01*
X0191181Y0081000D01*
X0189607Y0081000D01*
X0189728Y0080238D01*
X0189968Y0079499D01*
X0190321Y0078806D01*
X0190778Y0078177D01*
X0191327Y0077628D01*
X0191956Y0077171D01*
X0192648Y0076818D01*
X0193387Y0076578D01*
X0194150Y0076458D01*
X0194150Y0077795D01*
X0194150Y0081000D01*
X0194937Y0081000D01*
X0194937Y0077795D01*
X0194937Y0076458D01*
X0195699Y0076578D01*
X0196438Y0076818D01*
X0197131Y0077171D01*
X0197760Y0077628D01*
X0198309Y0078177D01*
X0198766Y0078806D01*
X0199031Y0079328D01*
X0199031Y0028920D01*
X0198847Y0029105D01*
X0198847Y0029105D01*
X0194453Y0031344D01*
X0189583Y0032115D01*
X0189583Y0032115D01*
X0184712Y0031344D01*
X0180319Y0029105D01*
X0180319Y0029105D01*
X0177299Y0026085D01*
X0177299Y0027568D01*
X0176400Y0029739D01*
X0174739Y0031400D01*
X0172568Y0032299D01*
X0170219Y0032299D01*
X0168048Y0031400D01*
X0167629Y0030980D01*
X0165724Y0030980D01*
X0165724Y0042373D01*
X0166400Y0043048D01*
X0166424Y0043106D01*
X0170326Y0043106D01*
X0171773Y0043706D01*
X0172881Y0044813D01*
X0182881Y0054813D01*
X0183480Y0056260D01*
X0183480Y0057826D01*
X0183480Y0068863D01*
X0183556Y0068831D01*
X0185530Y0068831D01*
X0187354Y0069587D01*
X0188750Y0070983D01*
X0189505Y0072807D01*
X0189505Y0079981D01*
X0188750Y0081805D01*
X0187354Y0083200D01*
X0185530Y0083956D01*
X0183556Y0083956D01*
X0183480Y0083924D01*
X0183480Y0092755D01*
X0187881Y0097156D01*
X0188480Y0098603D01*
X0188480Y0100713D01*
X0188638Y0100871D01*
X0188638Y0100219D01*
X0189537Y0098048D01*
X0190213Y0097373D01*
X0190213Y0092384D01*
X0191596Y0091000D01*
X0197490Y0091000D01*
X0198874Y0092384D01*
X0198874Y0097373D01*
X0199031Y0097530D01*
X0199031Y0097281D02*
X0198874Y0097281D01*
X0198874Y0096495D02*
X0199031Y0096495D01*
X0199031Y0095709D02*
X0198874Y0095709D01*
X0198874Y0094923D02*
X0199031Y0094923D01*
X0199031Y0094137D02*
X0198874Y0094137D01*
X0198874Y0093351D02*
X0199031Y0093351D01*
X0199031Y0092566D02*
X0198874Y0092566D01*
X0199031Y0091780D02*
X0198270Y0091780D01*
X0199031Y0090994D02*
X0183480Y0090994D01*
X0183480Y0091780D02*
X0190817Y0091780D01*
X0190213Y0092566D02*
X0183480Y0092566D01*
X0184077Y0093351D02*
X0190213Y0093351D01*
X0190213Y0094137D02*
X0184863Y0094137D01*
X0185649Y0094923D02*
X0190213Y0094923D01*
X0190213Y0095709D02*
X0186434Y0095709D01*
X0187220Y0096495D02*
X0190213Y0096495D01*
X0190213Y0097281D02*
X0187933Y0097281D01*
X0188258Y0098067D02*
X0189529Y0098067D01*
X0189204Y0098853D02*
X0188480Y0098853D01*
X0188480Y0099639D02*
X0188878Y0099639D01*
X0188638Y0100425D02*
X0188480Y0100425D01*
X0180242Y0101211D02*
X0178844Y0101211D01*
X0179170Y0101997D02*
X0179917Y0101997D01*
X0179591Y0102782D02*
X0179495Y0102782D01*
X0179505Y0103568D02*
X0179581Y0103568D01*
X0179581Y0104354D02*
X0179505Y0104354D01*
X0179505Y0105140D02*
X0179581Y0105140D01*
X0179581Y0105926D02*
X0179505Y0105926D01*
X0179505Y0106712D02*
X0179581Y0106712D01*
X0179581Y0107498D02*
X0179505Y0107498D01*
X0179505Y0108284D02*
X0179581Y0108284D01*
X0179581Y0109070D02*
X0179505Y0109070D01*
X0179505Y0109856D02*
X0179581Y0109856D01*
X0179855Y0110642D02*
X0179232Y0110642D01*
X0178906Y0111427D02*
X0180180Y0111427D01*
X0180745Y0112213D02*
X0178341Y0112213D01*
X0177555Y0112999D02*
X0181531Y0112999D01*
X0171531Y0112999D02*
X0167555Y0112999D01*
X0168341Y0112213D02*
X0170745Y0112213D01*
X0170180Y0111427D02*
X0168906Y0111427D01*
X0169232Y0110642D02*
X0169855Y0110642D01*
X0169581Y0109856D02*
X0169505Y0109856D01*
X0169505Y0109070D02*
X0169581Y0109070D01*
X0169581Y0108284D02*
X0169505Y0108284D01*
X0169505Y0107498D02*
X0169581Y0107498D01*
X0169581Y0106712D02*
X0169505Y0106712D01*
X0169505Y0105926D02*
X0169581Y0105926D01*
X0169581Y0105140D02*
X0169505Y0105140D01*
X0169505Y0104354D02*
X0169581Y0104354D01*
X0169581Y0103568D02*
X0169505Y0103568D01*
X0169495Y0102782D02*
X0169591Y0102782D01*
X0169917Y0101997D02*
X0169170Y0101997D01*
X0168844Y0101211D02*
X0170242Y0101211D01*
X0170895Y0100425D02*
X0168192Y0100425D01*
X0167406Y0099639D02*
X0171681Y0099639D01*
X0173505Y0098853D02*
X0165582Y0098853D01*
X0163505Y0098853D02*
X0163480Y0098853D01*
X0163480Y0098067D02*
X0177657Y0098067D01*
X0178443Y0098853D02*
X0175582Y0098853D01*
X0177406Y0099639D02*
X0179228Y0099639D01*
X0180014Y0100425D02*
X0178192Y0100425D01*
X0176871Y0097281D02*
X0163480Y0097281D01*
X0163357Y0096495D02*
X0176156Y0096495D01*
X0175830Y0095709D02*
X0163032Y0095709D01*
X0162460Y0094923D02*
X0175606Y0094923D01*
X0175606Y0094137D02*
X0161674Y0094137D01*
X0160888Y0093351D02*
X0175606Y0093351D01*
X0175606Y0092566D02*
X0160102Y0092566D01*
X0159316Y0091780D02*
X0175606Y0091780D01*
X0175606Y0090994D02*
X0158530Y0090994D01*
X0157744Y0090208D02*
X0175606Y0090208D01*
X0175606Y0089422D02*
X0156958Y0089422D01*
X0156172Y0088636D02*
X0175606Y0088636D01*
X0175606Y0087850D02*
X0155386Y0087850D01*
X0154311Y0087064D02*
X0175606Y0087064D01*
X0175606Y0086278D02*
X0135783Y0086278D01*
X0134997Y0085492D02*
X0175606Y0085492D01*
X0175606Y0084706D02*
X0134211Y0084706D01*
X0133471Y0083921D02*
X0133425Y0083921D01*
X0135616Y0083921D02*
X0143471Y0083921D01*
X0143556Y0083956D02*
X0141732Y0083200D01*
X0140337Y0081805D01*
X0139581Y0079981D01*
X0139581Y0072807D01*
X0140337Y0070983D01*
X0141732Y0069587D01*
X0143556Y0068831D01*
X0145530Y0068831D01*
X0147354Y0069587D01*
X0148750Y0070983D01*
X0149505Y0072807D01*
X0149505Y0079981D01*
X0148750Y0081805D01*
X0147354Y0083200D01*
X0145530Y0083956D01*
X0143556Y0083956D01*
X0145616Y0083921D02*
X0153471Y0083921D01*
X0151667Y0083135D02*
X0147420Y0083135D01*
X0148206Y0082349D02*
X0150881Y0082349D01*
X0150236Y0081563D02*
X0148850Y0081563D01*
X0149176Y0080777D02*
X0149911Y0080777D01*
X0149585Y0079991D02*
X0149501Y0079991D01*
X0149505Y0079205D02*
X0149581Y0079205D01*
X0149581Y0078419D02*
X0149505Y0078419D01*
X0149505Y0077633D02*
X0149581Y0077633D01*
X0149581Y0076847D02*
X0149505Y0076847D01*
X0149505Y0076061D02*
X0149581Y0076061D01*
X0149581Y0075275D02*
X0149505Y0075275D01*
X0149505Y0074490D02*
X0149581Y0074490D01*
X0149581Y0073704D02*
X0149505Y0073704D01*
X0149505Y0072918D02*
X0149581Y0072918D01*
X0149861Y0072132D02*
X0149226Y0072132D01*
X0148900Y0071346D02*
X0150186Y0071346D01*
X0150606Y0070560D02*
X0148327Y0070560D01*
X0147541Y0069774D02*
X0150606Y0069774D01*
X0150606Y0068988D02*
X0145909Y0068988D01*
X0143178Y0068988D02*
X0135909Y0068988D01*
X0137541Y0069774D02*
X0141545Y0069774D01*
X0140759Y0070560D02*
X0138327Y0070560D01*
X0138900Y0071346D02*
X0140186Y0071346D01*
X0139861Y0072132D02*
X0139226Y0072132D01*
X0139505Y0072918D02*
X0139581Y0072918D01*
X0139581Y0073704D02*
X0139505Y0073704D01*
X0139505Y0074490D02*
X0139581Y0074490D01*
X0139581Y0075275D02*
X0139505Y0075275D01*
X0139505Y0076061D02*
X0139581Y0076061D01*
X0139581Y0076847D02*
X0139505Y0076847D01*
X0139505Y0077633D02*
X0139581Y0077633D01*
X0139581Y0078419D02*
X0139505Y0078419D01*
X0139505Y0079205D02*
X0139581Y0079205D01*
X0139585Y0079991D02*
X0139501Y0079991D01*
X0139176Y0080777D02*
X0139911Y0080777D01*
X0140236Y0081563D02*
X0138850Y0081563D01*
X0138206Y0082349D02*
X0140881Y0082349D01*
X0141667Y0083135D02*
X0137420Y0083135D01*
X0129585Y0079991D02*
X0129501Y0079991D01*
X0129505Y0079205D02*
X0129581Y0079205D01*
X0129581Y0078419D02*
X0129505Y0078419D01*
X0129505Y0077633D02*
X0129581Y0077633D01*
X0129581Y0076847D02*
X0129505Y0076847D01*
X0129505Y0076061D02*
X0129581Y0076061D01*
X0129581Y0075275D02*
X0129505Y0075275D01*
X0129505Y0074490D02*
X0129581Y0074490D01*
X0129581Y0073704D02*
X0129505Y0073704D01*
X0129505Y0072918D02*
X0129581Y0072918D01*
X0129861Y0072132D02*
X0129226Y0072132D01*
X0128900Y0071346D02*
X0130186Y0071346D01*
X0130759Y0070560D02*
X0128480Y0070560D01*
X0128480Y0069774D02*
X0131545Y0069774D01*
X0133178Y0068988D02*
X0128480Y0068988D01*
X0128480Y0068202D02*
X0149851Y0068202D01*
X0158480Y0068202D02*
X0175606Y0068202D01*
X0175606Y0067416D02*
X0158480Y0067416D01*
X0158957Y0066630D02*
X0175606Y0066630D01*
X0175606Y0065845D02*
X0159283Y0065845D01*
X0159608Y0065059D02*
X0175606Y0065059D01*
X0175606Y0064273D02*
X0159661Y0064273D01*
X0159661Y0063487D02*
X0175606Y0063487D01*
X0175606Y0062701D02*
X0159661Y0062701D01*
X0159385Y0061915D02*
X0175606Y0061915D01*
X0175606Y0061129D02*
X0159060Y0061129D01*
X0158695Y0060343D02*
X0175606Y0060343D01*
X0175606Y0059557D02*
X0157909Y0059557D01*
X0157123Y0058771D02*
X0175606Y0058771D01*
X0174918Y0057985D02*
X0155256Y0057985D01*
X0152255Y0057985D02*
X0125256Y0057985D01*
X0127123Y0058771D02*
X0150389Y0058771D01*
X0144020Y0051698D02*
X0158768Y0051698D01*
X0157561Y0050912D02*
X0145227Y0050912D01*
X0146013Y0050126D02*
X0156775Y0050126D01*
X0156222Y0049340D02*
X0146565Y0049340D01*
X0146891Y0048554D02*
X0155897Y0048554D01*
X0155571Y0047769D02*
X0147216Y0047769D01*
X0147299Y0046983D02*
X0155488Y0046983D01*
X0155488Y0046197D02*
X0147299Y0046197D01*
X0147299Y0045411D02*
X0155488Y0045411D01*
X0155734Y0044625D02*
X0147053Y0044625D01*
X0146728Y0043839D02*
X0156060Y0043839D01*
X0156385Y0043053D02*
X0146402Y0043053D01*
X0145724Y0042267D02*
X0157063Y0042267D01*
X0157063Y0041481D02*
X0145724Y0041481D01*
X0145724Y0040695D02*
X0157063Y0040695D01*
X0157063Y0039909D02*
X0145724Y0039909D01*
X0145724Y0039123D02*
X0157063Y0039123D01*
X0157063Y0038338D02*
X0145724Y0038338D01*
X0145724Y0037552D02*
X0157063Y0037552D01*
X0157063Y0036766D02*
X0145724Y0036766D01*
X0145724Y0035980D02*
X0157063Y0035980D01*
X0157063Y0035194D02*
X0145724Y0035194D01*
X0145724Y0034408D02*
X0157063Y0034408D01*
X0157063Y0033622D02*
X0145724Y0033622D01*
X0145724Y0032836D02*
X0157063Y0032836D01*
X0157063Y0032050D02*
X0153169Y0032050D01*
X0154875Y0031264D02*
X0157063Y0031264D01*
X0157063Y0030478D02*
X0155661Y0030478D01*
X0156419Y0029693D02*
X0157063Y0029693D01*
X0157063Y0028907D02*
X0156745Y0028907D01*
X0149618Y0032050D02*
X0145724Y0032050D01*
X0145724Y0031264D02*
X0147913Y0031264D01*
X0137063Y0031264D02*
X0134875Y0031264D01*
X0135661Y0030478D02*
X0137063Y0030478D01*
X0137063Y0029693D02*
X0136419Y0029693D01*
X0136745Y0028907D02*
X0137063Y0028907D01*
X0137063Y0032050D02*
X0133169Y0032050D01*
X0137063Y0032836D02*
X0125724Y0032836D01*
X0125724Y0032050D02*
X0129618Y0032050D01*
X0127913Y0031264D02*
X0125724Y0031264D01*
X0125724Y0033622D02*
X0137063Y0033622D01*
X0137063Y0034408D02*
X0125724Y0034408D01*
X0125724Y0035194D02*
X0137063Y0035194D01*
X0137063Y0035980D02*
X0125724Y0035980D01*
X0125724Y0036766D02*
X0137063Y0036766D01*
X0137063Y0037552D02*
X0125724Y0037552D01*
X0125724Y0038338D02*
X0137063Y0038338D01*
X0137063Y0039123D02*
X0125724Y0039123D01*
X0125724Y0039909D02*
X0137063Y0039909D01*
X0137063Y0040695D02*
X0125724Y0040695D01*
X0125724Y0041481D02*
X0137063Y0041481D01*
X0137063Y0042267D02*
X0125724Y0042267D01*
X0126402Y0043053D02*
X0136385Y0043053D01*
X0136060Y0043839D02*
X0126728Y0043839D01*
X0127053Y0044625D02*
X0135734Y0044625D01*
X0135488Y0045411D02*
X0127299Y0045411D01*
X0127299Y0046197D02*
X0135488Y0046197D01*
X0135488Y0046983D02*
X0127299Y0046983D01*
X0127216Y0047769D02*
X0135571Y0047769D01*
X0135897Y0048554D02*
X0126891Y0048554D01*
X0126565Y0049340D02*
X0136222Y0049340D01*
X0136775Y0050126D02*
X0126013Y0050126D01*
X0125227Y0050912D02*
X0137561Y0050912D01*
X0138768Y0051698D02*
X0124020Y0051698D01*
X0118768Y0051698D02*
X0104020Y0051698D01*
X0105227Y0050912D02*
X0117561Y0050912D01*
X0116775Y0050126D02*
X0106013Y0050126D01*
X0106565Y0049340D02*
X0116222Y0049340D01*
X0115897Y0048554D02*
X0106891Y0048554D01*
X0107216Y0047769D02*
X0115571Y0047769D01*
X0115488Y0046983D02*
X0107299Y0046983D01*
X0107299Y0046197D02*
X0115488Y0046197D01*
X0115488Y0045411D02*
X0107299Y0045411D01*
X0107053Y0044625D02*
X0115734Y0044625D01*
X0116060Y0043839D02*
X0106728Y0043839D01*
X0106402Y0043053D02*
X0116385Y0043053D01*
X0117063Y0042267D02*
X0105724Y0042267D01*
X0105724Y0041481D02*
X0117063Y0041481D01*
X0117063Y0040695D02*
X0105724Y0040695D01*
X0105724Y0039909D02*
X0117063Y0039909D01*
X0117063Y0039123D02*
X0105724Y0039123D01*
X0105724Y0038338D02*
X0117063Y0038338D01*
X0117063Y0037552D02*
X0105724Y0037552D01*
X0105724Y0036766D02*
X0117063Y0036766D01*
X0117063Y0035980D02*
X0105724Y0035980D01*
X0105724Y0035194D02*
X0117063Y0035194D01*
X0117063Y0034408D02*
X0105724Y0034408D01*
X0105724Y0033622D02*
X0117063Y0033622D01*
X0117063Y0032836D02*
X0105724Y0032836D01*
X0105724Y0032050D02*
X0109618Y0032050D01*
X0107913Y0031264D02*
X0105724Y0031264D01*
X0113169Y0032050D02*
X0117063Y0032050D01*
X0117063Y0031264D02*
X0114875Y0031264D01*
X0115661Y0030478D02*
X0117063Y0030478D01*
X0117063Y0029693D02*
X0116419Y0029693D01*
X0116745Y0028907D02*
X0117063Y0028907D01*
X0111787Y0018913D02*
X0111787Y0016787D01*
X0111000Y0016787D01*
X0111000Y0018913D01*
X0111787Y0018913D01*
X0111787Y0018690D02*
X0111000Y0018690D01*
X0111000Y0017904D02*
X0111787Y0017904D01*
X0111787Y0017118D02*
X0111000Y0017118D01*
X0111000Y0015546D02*
X0111787Y0015546D01*
X0111787Y0014760D02*
X0111000Y0014760D01*
X0111000Y0013974D02*
X0111787Y0013974D01*
X0111787Y0013188D02*
X0111000Y0013188D01*
X0111000Y0012402D02*
X0111787Y0012402D01*
X0111787Y0011617D02*
X0111000Y0011617D01*
X0110120Y0011617D02*
X0104968Y0011617D01*
X0105754Y0012402D02*
X0108488Y0012402D01*
X0107620Y0013188D02*
X0106458Y0013188D01*
X0106784Y0013974D02*
X0107086Y0013974D01*
X0103395Y0010831D02*
X0119392Y0010831D01*
X0117819Y0011617D02*
X0112668Y0011617D01*
X0114300Y0012402D02*
X0117033Y0012402D01*
X0116329Y0013188D02*
X0115167Y0013188D01*
X0115702Y0013974D02*
X0116004Y0013974D01*
X0123395Y0010831D02*
X0139392Y0010831D01*
X0137819Y0011617D02*
X0132668Y0011617D01*
X0131787Y0011617D02*
X0131000Y0011617D01*
X0131000Y0012402D02*
X0131787Y0012402D01*
X0131787Y0013188D02*
X0131000Y0013188D01*
X0131000Y0013974D02*
X0131787Y0013974D01*
X0131787Y0014760D02*
X0131000Y0014760D01*
X0131000Y0015546D02*
X0131787Y0015546D01*
X0131787Y0016787D02*
X0131000Y0016787D01*
X0131000Y0018913D01*
X0131787Y0018913D01*
X0131787Y0016787D01*
X0131787Y0017118D02*
X0131000Y0017118D01*
X0131000Y0017904D02*
X0131787Y0017904D01*
X0131787Y0018690D02*
X0131000Y0018690D01*
X0127086Y0013974D02*
X0126784Y0013974D01*
X0126458Y0013188D02*
X0127620Y0013188D01*
X0128488Y0012402D02*
X0125754Y0012402D01*
X0124968Y0011617D02*
X0130120Y0011617D01*
X0134300Y0012402D02*
X0137033Y0012402D01*
X0136329Y0013188D02*
X0135167Y0013188D01*
X0135702Y0013974D02*
X0136004Y0013974D01*
X0143395Y0010831D02*
X0159392Y0010831D01*
X0157819Y0011617D02*
X0152668Y0011617D01*
X0151787Y0011617D02*
X0151000Y0011617D01*
X0151000Y0012402D02*
X0151787Y0012402D01*
X0151787Y0013188D02*
X0151000Y0013188D01*
X0151000Y0013974D02*
X0151787Y0013974D01*
X0151787Y0014760D02*
X0151000Y0014760D01*
X0151000Y0015546D02*
X0151787Y0015546D01*
X0151787Y0016787D02*
X0151000Y0016787D01*
X0151000Y0018913D01*
X0151787Y0018913D01*
X0151787Y0016787D01*
X0151787Y0017118D02*
X0151000Y0017118D01*
X0151000Y0017904D02*
X0151787Y0017904D01*
X0151787Y0018690D02*
X0151000Y0018690D01*
X0147086Y0013974D02*
X0146784Y0013974D01*
X0146458Y0013188D02*
X0147620Y0013188D01*
X0148488Y0012402D02*
X0145754Y0012402D01*
X0144968Y0011617D02*
X0150120Y0011617D01*
X0154300Y0012402D02*
X0157033Y0012402D01*
X0156329Y0013188D02*
X0155167Y0013188D01*
X0155702Y0013974D02*
X0156004Y0013974D01*
X0163395Y0010831D02*
X0174926Y0010831D01*
X0174572Y0011617D02*
X0172668Y0011617D01*
X0171787Y0011617D02*
X0171000Y0011617D01*
X0171000Y0012402D02*
X0171787Y0012402D01*
X0171787Y0013188D02*
X0171000Y0013188D01*
X0171000Y0013974D02*
X0171787Y0013974D01*
X0171787Y0014760D02*
X0171000Y0014760D01*
X0171000Y0015546D02*
X0171787Y0015546D01*
X0171787Y0016787D02*
X0171000Y0016787D01*
X0171000Y0018913D01*
X0171787Y0018913D01*
X0171787Y0016787D01*
X0171787Y0017118D02*
X0171000Y0017118D01*
X0171000Y0017904D02*
X0171787Y0017904D01*
X0171787Y0018690D02*
X0171000Y0018690D01*
X0167086Y0013974D02*
X0166784Y0013974D01*
X0166458Y0013188D02*
X0167620Y0013188D01*
X0168488Y0012402D02*
X0165754Y0012402D01*
X0164968Y0011617D02*
X0170120Y0011617D01*
X0174300Y0012402D02*
X0174448Y0012402D01*
X0175327Y0010045D02*
X0030610Y0010045D01*
X0031011Y0010831D02*
X0099392Y0010831D01*
X0097819Y0011617D02*
X0031365Y0011617D01*
X0031489Y0012402D02*
X0097033Y0012402D01*
X0096329Y0013188D02*
X0031613Y0013188D01*
X0031738Y0013974D02*
X0096004Y0013974D01*
X0095678Y0014760D02*
X0031862Y0014760D01*
X0031987Y0015546D02*
X0095488Y0015546D01*
X0095488Y0016332D02*
X0032111Y0016332D01*
X0031994Y0017118D02*
X0095488Y0017118D01*
X0095627Y0017904D02*
X0031870Y0017904D01*
X0031745Y0018690D02*
X0095953Y0018690D01*
X0096278Y0019476D02*
X0031621Y0019476D01*
X0031496Y0020262D02*
X0096910Y0020262D01*
X0097063Y0021047D02*
X0031372Y0021047D01*
X0031033Y0021833D02*
X0097063Y0021833D01*
X0097063Y0022619D02*
X0030633Y0022619D01*
X0030233Y0023405D02*
X0097063Y0023405D01*
X0097063Y0024191D02*
X0029832Y0024191D01*
X0029432Y0024977D02*
X0097063Y0024977D01*
X0097063Y0025763D02*
X0028960Y0025763D01*
X0029105Y0025618D02*
X0029105Y0025618D01*
X0028174Y0026549D02*
X0097063Y0026549D01*
X0097063Y0027335D02*
X0027388Y0027335D01*
X0026602Y0028121D02*
X0097063Y0028121D01*
X0097063Y0028907D02*
X0025817Y0028907D01*
X0024465Y0029693D02*
X0097063Y0029693D01*
X0097063Y0030478D02*
X0022923Y0030478D01*
X0021380Y0031264D02*
X0097063Y0031264D01*
X0097063Y0032050D02*
X0016763Y0032050D01*
X0015946Y0032050D02*
X0006905Y0032050D01*
X0006905Y0031264D02*
X0011329Y0031264D01*
X0009786Y0030478D02*
X0006905Y0030478D01*
X0006905Y0029693D02*
X0008244Y0029693D01*
X0006905Y0032836D02*
X0097063Y0032836D01*
X0097063Y0033622D02*
X0006905Y0033622D01*
X0006905Y0034408D02*
X0097063Y0034408D01*
X0097063Y0035194D02*
X0006905Y0035194D01*
X0006905Y0035980D02*
X0097063Y0035980D01*
X0097063Y0036766D02*
X0006905Y0036766D01*
X0006905Y0037552D02*
X0097063Y0037552D01*
X0097063Y0038338D02*
X0006905Y0038338D01*
X0006905Y0039123D02*
X0097063Y0039123D01*
X0097063Y0039909D02*
X0006905Y0039909D01*
X0006905Y0040695D02*
X0097063Y0040695D01*
X0097063Y0041481D02*
X0006905Y0041481D01*
X0006905Y0042267D02*
X0097063Y0042267D01*
X0096385Y0043053D02*
X0006905Y0043053D01*
X0006905Y0043839D02*
X0096060Y0043839D01*
X0095734Y0044625D02*
X0006905Y0044625D01*
X0006905Y0045411D02*
X0095488Y0045411D01*
X0095488Y0046197D02*
X0006905Y0046197D01*
X0006905Y0046983D02*
X0095488Y0046983D01*
X0095571Y0047769D02*
X0006905Y0047769D01*
X0006905Y0048554D02*
X0095897Y0048554D01*
X0096222Y0049340D02*
X0006905Y0049340D01*
X0006905Y0050126D02*
X0096775Y0050126D01*
X0097561Y0050912D02*
X0006905Y0050912D01*
X0006905Y0051698D02*
X0098768Y0051698D01*
X0119603Y0059557D02*
X0006905Y0059557D01*
X0006905Y0058771D02*
X0120389Y0058771D01*
X0122255Y0057985D02*
X0006905Y0057985D01*
X0006905Y0057199D02*
X0174132Y0057199D01*
X0173346Y0056414D02*
X0006905Y0056414D01*
X0006905Y0055628D02*
X0172560Y0055628D01*
X0171774Y0054842D02*
X0006905Y0054842D01*
X0006905Y0054056D02*
X0170988Y0054056D01*
X0170202Y0053270D02*
X0006905Y0053270D01*
X0006905Y0052484D02*
X0169416Y0052484D01*
X0168630Y0051698D02*
X0164020Y0051698D01*
X0166402Y0043053D02*
X0199031Y0043053D01*
X0199031Y0042267D02*
X0165724Y0042267D01*
X0165724Y0041481D02*
X0199031Y0041481D01*
X0199031Y0040695D02*
X0165724Y0040695D01*
X0165724Y0039909D02*
X0199031Y0039909D01*
X0199031Y0039123D02*
X0165724Y0039123D01*
X0165724Y0038338D02*
X0199031Y0038338D01*
X0199031Y0037552D02*
X0165724Y0037552D01*
X0165724Y0036766D02*
X0199031Y0036766D01*
X0199031Y0035980D02*
X0165724Y0035980D01*
X0165724Y0035194D02*
X0199031Y0035194D01*
X0199031Y0034408D02*
X0165724Y0034408D01*
X0165724Y0033622D02*
X0199031Y0033622D01*
X0199031Y0032836D02*
X0165724Y0032836D01*
X0165724Y0032050D02*
X0169618Y0032050D01*
X0167913Y0031264D02*
X0165724Y0031264D01*
X0173169Y0032050D02*
X0189174Y0032050D01*
X0189991Y0032050D02*
X0199031Y0032050D01*
X0199031Y0031264D02*
X0194608Y0031264D01*
X0194453Y0031344D02*
X0194453Y0031344D01*
X0196151Y0030478D02*
X0199031Y0030478D01*
X0199031Y0029693D02*
X0197693Y0029693D01*
X0184712Y0031344D02*
X0184712Y0031344D01*
X0184557Y0031264D02*
X0174875Y0031264D01*
X0175661Y0030478D02*
X0183014Y0030478D01*
X0181472Y0029693D02*
X0176419Y0029693D01*
X0176745Y0028907D02*
X0180120Y0028907D01*
X0179335Y0028121D02*
X0177070Y0028121D01*
X0177299Y0027335D02*
X0178549Y0027335D01*
X0177763Y0026549D02*
X0177299Y0026549D01*
X0175727Y0009259D02*
X0030210Y0009259D01*
X0029809Y0008473D02*
X0176128Y0008473D01*
X0176528Y0007687D02*
X0029409Y0007687D01*
X0155616Y0083921D02*
X0163471Y0083921D01*
X0163556Y0083956D02*
X0161732Y0083200D01*
X0160337Y0081805D01*
X0159581Y0079981D01*
X0159581Y0072807D01*
X0160337Y0070983D01*
X0161732Y0069587D01*
X0163556Y0068831D01*
X0165530Y0068831D01*
X0167354Y0069587D01*
X0168750Y0070983D01*
X0169505Y0072807D01*
X0169505Y0079981D01*
X0168750Y0081805D01*
X0167354Y0083200D01*
X0165530Y0083956D01*
X0163556Y0083956D01*
X0165616Y0083921D02*
X0173471Y0083921D01*
X0171667Y0083135D02*
X0167420Y0083135D01*
X0168206Y0082349D02*
X0170881Y0082349D01*
X0170236Y0081563D02*
X0168850Y0081563D01*
X0169176Y0080777D02*
X0169911Y0080777D01*
X0169585Y0079991D02*
X0169501Y0079991D01*
X0169505Y0079205D02*
X0169581Y0079205D01*
X0169581Y0078419D02*
X0169505Y0078419D01*
X0169505Y0077633D02*
X0169581Y0077633D01*
X0169581Y0076847D02*
X0169505Y0076847D01*
X0169505Y0076061D02*
X0169581Y0076061D01*
X0169581Y0075275D02*
X0169505Y0075275D01*
X0169505Y0074490D02*
X0169581Y0074490D01*
X0169581Y0073704D02*
X0169505Y0073704D01*
X0169505Y0072918D02*
X0169581Y0072918D01*
X0169861Y0072132D02*
X0169226Y0072132D01*
X0168900Y0071346D02*
X0170186Y0071346D01*
X0170759Y0070560D02*
X0168327Y0070560D01*
X0167541Y0069774D02*
X0171545Y0069774D01*
X0173178Y0068988D02*
X0165909Y0068988D01*
X0163178Y0068988D02*
X0158480Y0068988D01*
X0158480Y0069774D02*
X0161545Y0069774D01*
X0160759Y0070560D02*
X0158480Y0070560D01*
X0158900Y0071346D02*
X0160186Y0071346D01*
X0159861Y0072132D02*
X0159226Y0072132D01*
X0159505Y0072918D02*
X0159581Y0072918D01*
X0159581Y0073704D02*
X0159505Y0073704D01*
X0159505Y0074490D02*
X0159581Y0074490D01*
X0159581Y0075275D02*
X0159505Y0075275D01*
X0159505Y0076061D02*
X0159581Y0076061D01*
X0159581Y0076847D02*
X0159505Y0076847D01*
X0159505Y0077633D02*
X0159581Y0077633D01*
X0159581Y0078419D02*
X0159505Y0078419D01*
X0159505Y0079205D02*
X0159581Y0079205D01*
X0159585Y0079991D02*
X0159501Y0079991D01*
X0159176Y0080777D02*
X0159911Y0080777D01*
X0160236Y0081563D02*
X0158850Y0081563D01*
X0158206Y0082349D02*
X0160881Y0082349D01*
X0161667Y0083135D02*
X0157420Y0083135D01*
X0183480Y0084706D02*
X0190874Y0084706D01*
X0191181Y0085492D02*
X0183480Y0085492D01*
X0183480Y0086278D02*
X0191181Y0086278D01*
X0191181Y0087064D02*
X0183480Y0087064D01*
X0183480Y0087850D02*
X0191181Y0087850D01*
X0191181Y0088636D02*
X0183480Y0088636D01*
X0183480Y0089422D02*
X0191181Y0089422D01*
X0191417Y0090208D02*
X0183480Y0090208D01*
X0185616Y0083921D02*
X0190290Y0083921D01*
X0189918Y0083135D02*
X0187420Y0083135D01*
X0188206Y0082349D02*
X0189696Y0082349D01*
X0188850Y0081563D02*
X0191181Y0081563D01*
X0189642Y0080777D02*
X0189176Y0080777D01*
X0189501Y0079991D02*
X0189808Y0079991D01*
X0189505Y0079205D02*
X0190118Y0079205D01*
X0190602Y0078419D02*
X0189505Y0078419D01*
X0189505Y0077633D02*
X0191322Y0077633D01*
X0192591Y0076847D02*
X0189505Y0076847D01*
X0189505Y0076061D02*
X0199031Y0076061D01*
X0199031Y0075275D02*
X0189505Y0075275D01*
X0189505Y0074490D02*
X0199031Y0074490D01*
X0199031Y0073704D02*
X0189505Y0073704D01*
X0189505Y0072918D02*
X0199031Y0072918D01*
X0199031Y0072132D02*
X0189226Y0072132D01*
X0188900Y0071346D02*
X0199031Y0071346D01*
X0199031Y0070560D02*
X0188327Y0070560D01*
X0187541Y0069774D02*
X0199031Y0069774D01*
X0199031Y0068988D02*
X0185909Y0068988D01*
X0183480Y0068202D02*
X0199031Y0068202D01*
X0199031Y0067416D02*
X0183480Y0067416D01*
X0183480Y0066630D02*
X0199031Y0066630D01*
X0199031Y0065845D02*
X0183480Y0065845D01*
X0183480Y0065059D02*
X0199031Y0065059D01*
X0199031Y0064273D02*
X0183480Y0064273D01*
X0183480Y0063487D02*
X0199031Y0063487D01*
X0199031Y0062701D02*
X0183480Y0062701D01*
X0183480Y0061915D02*
X0199031Y0061915D01*
X0199031Y0061129D02*
X0183480Y0061129D01*
X0183480Y0060343D02*
X0199031Y0060343D01*
X0199031Y0059557D02*
X0183480Y0059557D01*
X0183480Y0058771D02*
X0199031Y0058771D01*
X0199031Y0057985D02*
X0183480Y0057985D01*
X0183480Y0057199D02*
X0199031Y0057199D01*
X0199031Y0056414D02*
X0183480Y0056414D01*
X0183218Y0055628D02*
X0199031Y0055628D01*
X0199031Y0054842D02*
X0182893Y0054842D01*
X0182124Y0054056D02*
X0199031Y0054056D01*
X0199031Y0053270D02*
X0181338Y0053270D01*
X0180552Y0052484D02*
X0199031Y0052484D01*
X0199031Y0051698D02*
X0179766Y0051698D01*
X0178980Y0050912D02*
X0199031Y0050912D01*
X0199031Y0050126D02*
X0178194Y0050126D01*
X0177408Y0049340D02*
X0199031Y0049340D01*
X0199031Y0048554D02*
X0176622Y0048554D01*
X0175836Y0047769D02*
X0199031Y0047769D01*
X0199031Y0046983D02*
X0175050Y0046983D01*
X0174264Y0046197D02*
X0199031Y0046197D01*
X0199031Y0045411D02*
X0173479Y0045411D01*
X0172693Y0044625D02*
X0199031Y0044625D01*
X0199031Y0043839D02*
X0171907Y0043839D01*
X0194150Y0076847D02*
X0194937Y0076847D01*
X0194937Y0077633D02*
X0194150Y0077633D01*
X0194150Y0077795D02*
X0194150Y0077795D01*
X0194150Y0078419D02*
X0194937Y0078419D01*
X0194937Y0077795D02*
X0194937Y0077795D01*
X0194937Y0079205D02*
X0194150Y0079205D01*
X0194150Y0079991D02*
X0194937Y0079991D01*
X0194937Y0080777D02*
X0194150Y0080777D01*
X0194150Y0081787D02*
X0194150Y0083913D01*
X0194937Y0083913D01*
X0194937Y0081787D01*
X0194150Y0081787D01*
X0194150Y0082349D02*
X0194937Y0082349D01*
X0194937Y0083135D02*
X0194150Y0083135D01*
X0194150Y0084706D02*
X0194937Y0084706D01*
X0194937Y0085492D02*
X0194150Y0085492D01*
X0194150Y0086278D02*
X0194937Y0086278D01*
X0194937Y0087064D02*
X0194150Y0087064D01*
X0194150Y0087850D02*
X0194937Y0087850D01*
X0194937Y0088636D02*
X0194150Y0088636D01*
X0194150Y0089422D02*
X0194937Y0089422D01*
X0194937Y0090208D02*
X0194150Y0090208D01*
X0197669Y0090208D02*
X0199031Y0090208D01*
X0199031Y0089422D02*
X0197905Y0089422D01*
X0197905Y0088636D02*
X0199031Y0088636D01*
X0199031Y0087850D02*
X0197905Y0087850D01*
X0197905Y0087064D02*
X0199031Y0087064D01*
X0199031Y0086278D02*
X0197905Y0086278D01*
X0197905Y0085492D02*
X0199031Y0085492D01*
X0199031Y0084706D02*
X0198213Y0084706D01*
X0198797Y0083921D02*
X0199031Y0083921D01*
X0198969Y0079205D02*
X0199031Y0079205D01*
X0199031Y0078419D02*
X0198485Y0078419D01*
X0199031Y0077633D02*
X0197765Y0077633D01*
X0199031Y0076847D02*
X0196495Y0076847D01*
X0162940Y0141292D02*
X0139847Y0141292D01*
X0138102Y0142078D02*
X0163106Y0142078D01*
X0163122Y0142864D02*
X0133480Y0142864D01*
X0133480Y0143650D02*
X0163447Y0143650D01*
X0163868Y0144436D02*
X0133480Y0144436D01*
X0133480Y0145222D02*
X0164654Y0145222D01*
X0151547Y0158582D02*
X0186526Y0158582D01*
X0186244Y0157796D02*
X0150786Y0157796D01*
X0151547Y0159368D02*
X0186966Y0159368D01*
X0187615Y0160154D02*
X0151547Y0160154D01*
X0151547Y0160940D02*
X0188582Y0160940D01*
X0191000Y0160940D02*
X0191787Y0160940D01*
X0191787Y0160154D02*
X0191000Y0160154D01*
X0191000Y0159368D02*
X0191787Y0159368D01*
X0191787Y0158582D02*
X0191000Y0158582D01*
X0191000Y0157796D02*
X0191787Y0157796D01*
X0194205Y0160940D02*
X0199031Y0160940D01*
X0199031Y0161726D02*
X0151547Y0161726D01*
X0151547Y0162512D02*
X0163307Y0162512D01*
X0163326Y0162504D02*
X0166863Y0162504D01*
X0170130Y0163857D01*
X0172631Y0166358D01*
X0173984Y0169625D01*
X0173984Y0173162D01*
X0172631Y0176429D01*
X0170130Y0178930D01*
X0166863Y0180283D01*
X0163326Y0180283D01*
X0160059Y0178930D01*
X0157558Y0176429D01*
X0156205Y0173162D01*
X0156205Y0169625D01*
X0157558Y0166358D01*
X0160059Y0163857D01*
X0163326Y0162504D01*
X0161410Y0163298D02*
X0151141Y0163298D01*
X0150355Y0164084D02*
X0159833Y0164084D01*
X0159047Y0164870D02*
X0150252Y0164870D01*
X0150252Y0165655D02*
X0158261Y0165655D01*
X0157524Y0166441D02*
X0150092Y0166441D01*
X0149766Y0167227D02*
X0157198Y0167227D01*
X0156873Y0168013D02*
X0149141Y0168013D01*
X0148355Y0168799D02*
X0156547Y0168799D01*
X0156221Y0169585D02*
X0147569Y0169585D01*
X0146783Y0170371D02*
X0156205Y0170371D01*
X0156205Y0171157D02*
X0126583Y0171157D01*
X0126583Y0171943D02*
X0156205Y0171943D01*
X0156205Y0172729D02*
X0126583Y0172729D01*
X0126437Y0173515D02*
X0156351Y0173515D01*
X0156676Y0174300D02*
X0126111Y0174300D01*
X0125786Y0175086D02*
X0157002Y0175086D01*
X0157327Y0175872D02*
X0125460Y0175872D01*
X0125000Y0176658D02*
X0157787Y0176658D01*
X0158573Y0177444D02*
X0124214Y0177444D01*
X0123429Y0178230D02*
X0159359Y0178230D01*
X0160266Y0179016D02*
X0122521Y0179016D01*
X0120624Y0179802D02*
X0162164Y0179802D01*
X0168025Y0179802D02*
X0177349Y0179802D01*
X0176695Y0180588D02*
X0029242Y0180588D01*
X0029642Y0181374D02*
X0176295Y0181374D01*
X0175894Y0182160D02*
X0030043Y0182160D01*
X0030443Y0182946D02*
X0175494Y0182946D01*
X0175093Y0183731D02*
X0030844Y0183731D01*
X0031244Y0184517D02*
X0174693Y0184517D01*
X0174500Y0185303D02*
X0031437Y0185303D01*
X0031562Y0186089D02*
X0174375Y0186089D01*
X0174251Y0186875D02*
X0031686Y0186875D01*
X0031811Y0187661D02*
X0174126Y0187661D01*
X0174002Y0188447D02*
X0031935Y0188447D01*
X0032060Y0189233D02*
X0173877Y0189233D01*
X0173891Y0190019D02*
X0032046Y0190019D01*
X0031921Y0190805D02*
X0174016Y0190805D01*
X0174140Y0191591D02*
X0031797Y0191591D01*
X0031672Y0192376D02*
X0174265Y0192376D01*
X0174389Y0193162D02*
X0031548Y0193162D01*
X0031423Y0193948D02*
X0174514Y0193948D01*
X0174737Y0194734D02*
X0031200Y0194734D01*
X0030800Y0195520D02*
X0175137Y0195520D01*
X0175538Y0196306D02*
X0030399Y0196306D01*
X0029999Y0197092D02*
X0175938Y0197092D01*
X0176339Y0197878D02*
X0029598Y0197878D01*
X0029198Y0198664D02*
X0176739Y0198664D01*
X0178135Y0179016D02*
X0169923Y0179016D01*
X0170830Y0178230D02*
X0178921Y0178230D01*
X0179707Y0177444D02*
X0171616Y0177444D01*
X0172402Y0176658D02*
X0180660Y0176658D01*
X0182202Y0175872D02*
X0172862Y0175872D01*
X0173187Y0175086D02*
X0183745Y0175086D01*
X0186562Y0174300D02*
X0173513Y0174300D01*
X0173838Y0173515D02*
X0199031Y0173515D01*
X0199031Y0174300D02*
X0192603Y0174300D01*
X0195420Y0175086D02*
X0199031Y0175086D01*
X0199031Y0175872D02*
X0196963Y0175872D01*
X0198505Y0176658D02*
X0199031Y0176658D01*
X0199031Y0172729D02*
X0173984Y0172729D01*
X0173984Y0171943D02*
X0199031Y0171943D01*
X0199031Y0171157D02*
X0173984Y0171157D01*
X0173984Y0170371D02*
X0199031Y0170371D01*
X0199031Y0169585D02*
X0173968Y0169585D01*
X0173642Y0168799D02*
X0199031Y0168799D01*
X0199031Y0168013D02*
X0173316Y0168013D01*
X0172991Y0167227D02*
X0199031Y0167227D01*
X0199031Y0166441D02*
X0172665Y0166441D01*
X0171928Y0165655D02*
X0199031Y0165655D01*
X0199031Y0164870D02*
X0171142Y0164870D01*
X0170356Y0164084D02*
X0199031Y0164084D01*
X0199031Y0163298D02*
X0168779Y0163298D01*
X0166882Y0162512D02*
X0199031Y0162512D01*
X0199031Y0160154D02*
X0195172Y0160154D01*
X0195822Y0159368D02*
X0199031Y0159368D01*
X0199031Y0158582D02*
X0196261Y0158582D01*
X0196543Y0157796D02*
X0199031Y0157796D01*
X0199031Y0157010D02*
X0196693Y0157010D01*
X0143400Y0148365D02*
X0139387Y0148365D01*
X0140173Y0149151D02*
X0142615Y0149151D01*
X0141829Y0149937D02*
X0140959Y0149937D01*
X0141394Y0155329D02*
X0139250Y0157472D01*
X0140736Y0158958D01*
X0140736Y0160331D01*
X0136866Y0160331D01*
X0136866Y0161118D01*
X0140736Y0161118D01*
X0140736Y0162491D01*
X0140120Y0163106D01*
X0141297Y0163106D01*
X0141083Y0162892D01*
X0141083Y0158557D01*
X0142852Y0156787D01*
X0141394Y0155329D01*
X0141284Y0155439D02*
X0141504Y0155439D01*
X0142290Y0156224D02*
X0140498Y0156224D01*
X0139712Y0157010D02*
X0142629Y0157010D01*
X0141843Y0157796D02*
X0139574Y0157796D01*
X0140360Y0158582D02*
X0141083Y0158582D01*
X0141083Y0159368D02*
X0140736Y0159368D01*
X0140736Y0160154D02*
X0141083Y0160154D01*
X0141083Y0160940D02*
X0136866Y0160940D01*
X0140736Y0161726D02*
X0141083Y0161726D01*
X0141083Y0162512D02*
X0140715Y0162512D01*
X0129803Y0170371D02*
X0126583Y0170371D01*
X0126566Y0169585D02*
X0129017Y0169585D01*
X0128231Y0168799D02*
X0126240Y0168799D01*
X0125915Y0168013D02*
X0127445Y0168013D01*
X0126660Y0167227D02*
X0125589Y0167227D01*
X0125264Y0166441D02*
X0126068Y0166441D01*
X0125743Y0165655D02*
X0124527Y0165655D01*
X0123741Y0164870D02*
X0125606Y0164870D01*
X0125606Y0164084D02*
X0122955Y0164084D01*
X0121378Y0163298D02*
X0125606Y0163298D01*
X0125606Y0162512D02*
X0119480Y0162512D01*
X0109145Y0168799D02*
X0006905Y0168799D01*
X0006905Y0169585D02*
X0108820Y0169585D01*
X0108803Y0170371D02*
X0006905Y0170371D01*
X0006905Y0171157D02*
X0108803Y0171157D01*
X0108803Y0171943D02*
X0006905Y0171943D01*
X0006905Y0172729D02*
X0108803Y0172729D01*
X0108949Y0173515D02*
X0006905Y0173515D01*
X0006905Y0174300D02*
X0013334Y0174300D01*
X0010516Y0175086D02*
X0006905Y0175086D01*
X0006905Y0175872D02*
X0008974Y0175872D01*
X0007432Y0176658D02*
X0006905Y0176658D01*
X0019375Y0174300D02*
X0109275Y0174300D01*
X0109600Y0175086D02*
X0022192Y0175086D01*
X0023735Y0175872D02*
X0109926Y0175872D01*
X0110385Y0176658D02*
X0025277Y0176658D01*
X0025618Y0176832D02*
X0025618Y0176832D01*
X0026230Y0177444D02*
X0111171Y0177444D01*
X0111957Y0178230D02*
X0027016Y0178230D01*
X0027802Y0179016D02*
X0112865Y0179016D01*
X0114762Y0179802D02*
X0028588Y0179802D01*
X0028316Y0167227D02*
X0033884Y0167227D01*
X0032347Y0166441D02*
X0029102Y0166441D01*
X0029887Y0165655D02*
X0031561Y0165655D01*
X0030937Y0164870D02*
X0030673Y0164870D01*
X0030078Y0158582D02*
X0031371Y0158582D01*
X0032157Y0157796D02*
X0029661Y0157796D01*
X0029661Y0157010D02*
X0033424Y0157010D01*
X0077565Y0167227D02*
X0083884Y0167227D01*
X0082347Y0166441D02*
X0079102Y0166441D01*
X0079887Y0165655D02*
X0081561Y0165655D01*
X0080937Y0164870D02*
X0080512Y0164870D01*
X0133480Y0148365D02*
X0133558Y0148365D01*
X0133480Y0142078D02*
X0134685Y0142078D01*
D25*
X0160685Y0144465D03*
X0127220Y0114937D03*
X0099661Y0134622D03*
X0085882Y0091315D03*
X0089819Y0055882D03*
X0050449Y0075567D03*
X0014543Y0044543D03*
X0044543Y0014543D03*
X0186669Y0087850D03*
X0188638Y0040606D03*
X0166512Y0190449D03*
X0038480Y0190449D03*
X0012575Y0168480D03*
M02*
