G75*
%MOIN*%
%OFA0B0*%
%FSLAX25Y25*%
%IPPOS*%
%LPD*%
%AMOC8*
5,1,8,0,0,1.08239X$1,22.5*
%
%ADD10C,0.00000*%
%ADD11C,0.12998*%
%ADD12C,0.07487*%
%ADD13C,0.05600*%
%ADD14OC8,0.06140*%
%ADD15C,0.13455*%
%ADD16C,0.08274*%
%ADD17C,0.06699*%
%ADD18OC8,0.06699*%
D10*
X0004543Y0016354D02*
X0004543Y0189583D01*
X0010055Y0189583D02*
X0010057Y0189741D01*
X0010063Y0189899D01*
X0010073Y0190057D01*
X0010087Y0190215D01*
X0010105Y0190372D01*
X0010126Y0190529D01*
X0010152Y0190685D01*
X0010182Y0190841D01*
X0010215Y0190996D01*
X0010253Y0191149D01*
X0010294Y0191302D01*
X0010339Y0191454D01*
X0010388Y0191605D01*
X0010441Y0191754D01*
X0010497Y0191902D01*
X0010557Y0192048D01*
X0010621Y0192193D01*
X0010689Y0192336D01*
X0010760Y0192478D01*
X0010834Y0192618D01*
X0010912Y0192755D01*
X0010994Y0192891D01*
X0011078Y0193025D01*
X0011167Y0193156D01*
X0011258Y0193285D01*
X0011353Y0193412D01*
X0011450Y0193537D01*
X0011551Y0193659D01*
X0011655Y0193778D01*
X0011762Y0193895D01*
X0011872Y0194009D01*
X0011985Y0194120D01*
X0012100Y0194229D01*
X0012218Y0194334D01*
X0012339Y0194436D01*
X0012462Y0194536D01*
X0012588Y0194632D01*
X0012716Y0194725D01*
X0012846Y0194815D01*
X0012979Y0194901D01*
X0013114Y0194985D01*
X0013250Y0195064D01*
X0013389Y0195141D01*
X0013530Y0195213D01*
X0013672Y0195283D01*
X0013816Y0195348D01*
X0013962Y0195410D01*
X0014109Y0195468D01*
X0014258Y0195523D01*
X0014408Y0195574D01*
X0014559Y0195621D01*
X0014711Y0195664D01*
X0014864Y0195703D01*
X0015019Y0195739D01*
X0015174Y0195770D01*
X0015330Y0195798D01*
X0015486Y0195822D01*
X0015643Y0195842D01*
X0015801Y0195858D01*
X0015958Y0195870D01*
X0016117Y0195878D01*
X0016275Y0195882D01*
X0016433Y0195882D01*
X0016591Y0195878D01*
X0016750Y0195870D01*
X0016907Y0195858D01*
X0017065Y0195842D01*
X0017222Y0195822D01*
X0017378Y0195798D01*
X0017534Y0195770D01*
X0017689Y0195739D01*
X0017844Y0195703D01*
X0017997Y0195664D01*
X0018149Y0195621D01*
X0018300Y0195574D01*
X0018450Y0195523D01*
X0018599Y0195468D01*
X0018746Y0195410D01*
X0018892Y0195348D01*
X0019036Y0195283D01*
X0019178Y0195213D01*
X0019319Y0195141D01*
X0019458Y0195064D01*
X0019594Y0194985D01*
X0019729Y0194901D01*
X0019862Y0194815D01*
X0019992Y0194725D01*
X0020120Y0194632D01*
X0020246Y0194536D01*
X0020369Y0194436D01*
X0020490Y0194334D01*
X0020608Y0194229D01*
X0020723Y0194120D01*
X0020836Y0194009D01*
X0020946Y0193895D01*
X0021053Y0193778D01*
X0021157Y0193659D01*
X0021258Y0193537D01*
X0021355Y0193412D01*
X0021450Y0193285D01*
X0021541Y0193156D01*
X0021630Y0193025D01*
X0021714Y0192891D01*
X0021796Y0192755D01*
X0021874Y0192618D01*
X0021948Y0192478D01*
X0022019Y0192336D01*
X0022087Y0192193D01*
X0022151Y0192048D01*
X0022211Y0191902D01*
X0022267Y0191754D01*
X0022320Y0191605D01*
X0022369Y0191454D01*
X0022414Y0191302D01*
X0022455Y0191149D01*
X0022493Y0190996D01*
X0022526Y0190841D01*
X0022556Y0190685D01*
X0022582Y0190529D01*
X0022603Y0190372D01*
X0022621Y0190215D01*
X0022635Y0190057D01*
X0022645Y0189899D01*
X0022651Y0189741D01*
X0022653Y0189583D01*
X0022651Y0189425D01*
X0022645Y0189267D01*
X0022635Y0189109D01*
X0022621Y0188951D01*
X0022603Y0188794D01*
X0022582Y0188637D01*
X0022556Y0188481D01*
X0022526Y0188325D01*
X0022493Y0188170D01*
X0022455Y0188017D01*
X0022414Y0187864D01*
X0022369Y0187712D01*
X0022320Y0187561D01*
X0022267Y0187412D01*
X0022211Y0187264D01*
X0022151Y0187118D01*
X0022087Y0186973D01*
X0022019Y0186830D01*
X0021948Y0186688D01*
X0021874Y0186548D01*
X0021796Y0186411D01*
X0021714Y0186275D01*
X0021630Y0186141D01*
X0021541Y0186010D01*
X0021450Y0185881D01*
X0021355Y0185754D01*
X0021258Y0185629D01*
X0021157Y0185507D01*
X0021053Y0185388D01*
X0020946Y0185271D01*
X0020836Y0185157D01*
X0020723Y0185046D01*
X0020608Y0184937D01*
X0020490Y0184832D01*
X0020369Y0184730D01*
X0020246Y0184630D01*
X0020120Y0184534D01*
X0019992Y0184441D01*
X0019862Y0184351D01*
X0019729Y0184265D01*
X0019594Y0184181D01*
X0019458Y0184102D01*
X0019319Y0184025D01*
X0019178Y0183953D01*
X0019036Y0183883D01*
X0018892Y0183818D01*
X0018746Y0183756D01*
X0018599Y0183698D01*
X0018450Y0183643D01*
X0018300Y0183592D01*
X0018149Y0183545D01*
X0017997Y0183502D01*
X0017844Y0183463D01*
X0017689Y0183427D01*
X0017534Y0183396D01*
X0017378Y0183368D01*
X0017222Y0183344D01*
X0017065Y0183324D01*
X0016907Y0183308D01*
X0016750Y0183296D01*
X0016591Y0183288D01*
X0016433Y0183284D01*
X0016275Y0183284D01*
X0016117Y0183288D01*
X0015958Y0183296D01*
X0015801Y0183308D01*
X0015643Y0183324D01*
X0015486Y0183344D01*
X0015330Y0183368D01*
X0015174Y0183396D01*
X0015019Y0183427D01*
X0014864Y0183463D01*
X0014711Y0183502D01*
X0014559Y0183545D01*
X0014408Y0183592D01*
X0014258Y0183643D01*
X0014109Y0183698D01*
X0013962Y0183756D01*
X0013816Y0183818D01*
X0013672Y0183883D01*
X0013530Y0183953D01*
X0013389Y0184025D01*
X0013250Y0184102D01*
X0013114Y0184181D01*
X0012979Y0184265D01*
X0012846Y0184351D01*
X0012716Y0184441D01*
X0012588Y0184534D01*
X0012462Y0184630D01*
X0012339Y0184730D01*
X0012218Y0184832D01*
X0012100Y0184937D01*
X0011985Y0185046D01*
X0011872Y0185157D01*
X0011762Y0185271D01*
X0011655Y0185388D01*
X0011551Y0185507D01*
X0011450Y0185629D01*
X0011353Y0185754D01*
X0011258Y0185881D01*
X0011167Y0186010D01*
X0011078Y0186141D01*
X0010994Y0186275D01*
X0010912Y0186411D01*
X0010834Y0186548D01*
X0010760Y0186688D01*
X0010689Y0186830D01*
X0010621Y0186973D01*
X0010557Y0187118D01*
X0010497Y0187264D01*
X0010441Y0187412D01*
X0010388Y0187561D01*
X0010339Y0187712D01*
X0010294Y0187864D01*
X0010253Y0188017D01*
X0010215Y0188170D01*
X0010182Y0188325D01*
X0010152Y0188481D01*
X0010126Y0188637D01*
X0010105Y0188794D01*
X0010087Y0188951D01*
X0010073Y0189109D01*
X0010063Y0189267D01*
X0010057Y0189425D01*
X0010055Y0189583D01*
X0004543Y0189583D02*
X0004546Y0189868D01*
X0004557Y0190154D01*
X0004574Y0190439D01*
X0004598Y0190723D01*
X0004629Y0191007D01*
X0004667Y0191290D01*
X0004712Y0191571D01*
X0004763Y0191852D01*
X0004821Y0192132D01*
X0004886Y0192410D01*
X0004958Y0192686D01*
X0005036Y0192960D01*
X0005121Y0193233D01*
X0005213Y0193503D01*
X0005311Y0193771D01*
X0005415Y0194037D01*
X0005526Y0194300D01*
X0005643Y0194560D01*
X0005766Y0194818D01*
X0005896Y0195072D01*
X0006032Y0195323D01*
X0006173Y0195571D01*
X0006321Y0195815D01*
X0006474Y0196056D01*
X0006634Y0196292D01*
X0006799Y0196525D01*
X0006969Y0196754D01*
X0007145Y0196979D01*
X0007327Y0197199D01*
X0007513Y0197415D01*
X0007705Y0197626D01*
X0007902Y0197833D01*
X0008104Y0198035D01*
X0008311Y0198232D01*
X0008522Y0198424D01*
X0008738Y0198610D01*
X0008958Y0198792D01*
X0009183Y0198968D01*
X0009412Y0199138D01*
X0009645Y0199303D01*
X0009881Y0199463D01*
X0010122Y0199616D01*
X0010366Y0199764D01*
X0010614Y0199905D01*
X0010865Y0200041D01*
X0011119Y0200171D01*
X0011377Y0200294D01*
X0011637Y0200411D01*
X0011900Y0200522D01*
X0012166Y0200626D01*
X0012434Y0200724D01*
X0012704Y0200816D01*
X0012977Y0200901D01*
X0013251Y0200979D01*
X0013527Y0201051D01*
X0013805Y0201116D01*
X0014085Y0201174D01*
X0014366Y0201225D01*
X0014647Y0201270D01*
X0014930Y0201308D01*
X0015214Y0201339D01*
X0015498Y0201363D01*
X0015783Y0201380D01*
X0016069Y0201391D01*
X0016354Y0201394D01*
X0189583Y0201394D01*
X0183284Y0189583D02*
X0183286Y0189741D01*
X0183292Y0189899D01*
X0183302Y0190057D01*
X0183316Y0190215D01*
X0183334Y0190372D01*
X0183355Y0190529D01*
X0183381Y0190685D01*
X0183411Y0190841D01*
X0183444Y0190996D01*
X0183482Y0191149D01*
X0183523Y0191302D01*
X0183568Y0191454D01*
X0183617Y0191605D01*
X0183670Y0191754D01*
X0183726Y0191902D01*
X0183786Y0192048D01*
X0183850Y0192193D01*
X0183918Y0192336D01*
X0183989Y0192478D01*
X0184063Y0192618D01*
X0184141Y0192755D01*
X0184223Y0192891D01*
X0184307Y0193025D01*
X0184396Y0193156D01*
X0184487Y0193285D01*
X0184582Y0193412D01*
X0184679Y0193537D01*
X0184780Y0193659D01*
X0184884Y0193778D01*
X0184991Y0193895D01*
X0185101Y0194009D01*
X0185214Y0194120D01*
X0185329Y0194229D01*
X0185447Y0194334D01*
X0185568Y0194436D01*
X0185691Y0194536D01*
X0185817Y0194632D01*
X0185945Y0194725D01*
X0186075Y0194815D01*
X0186208Y0194901D01*
X0186343Y0194985D01*
X0186479Y0195064D01*
X0186618Y0195141D01*
X0186759Y0195213D01*
X0186901Y0195283D01*
X0187045Y0195348D01*
X0187191Y0195410D01*
X0187338Y0195468D01*
X0187487Y0195523D01*
X0187637Y0195574D01*
X0187788Y0195621D01*
X0187940Y0195664D01*
X0188093Y0195703D01*
X0188248Y0195739D01*
X0188403Y0195770D01*
X0188559Y0195798D01*
X0188715Y0195822D01*
X0188872Y0195842D01*
X0189030Y0195858D01*
X0189187Y0195870D01*
X0189346Y0195878D01*
X0189504Y0195882D01*
X0189662Y0195882D01*
X0189820Y0195878D01*
X0189979Y0195870D01*
X0190136Y0195858D01*
X0190294Y0195842D01*
X0190451Y0195822D01*
X0190607Y0195798D01*
X0190763Y0195770D01*
X0190918Y0195739D01*
X0191073Y0195703D01*
X0191226Y0195664D01*
X0191378Y0195621D01*
X0191529Y0195574D01*
X0191679Y0195523D01*
X0191828Y0195468D01*
X0191975Y0195410D01*
X0192121Y0195348D01*
X0192265Y0195283D01*
X0192407Y0195213D01*
X0192548Y0195141D01*
X0192687Y0195064D01*
X0192823Y0194985D01*
X0192958Y0194901D01*
X0193091Y0194815D01*
X0193221Y0194725D01*
X0193349Y0194632D01*
X0193475Y0194536D01*
X0193598Y0194436D01*
X0193719Y0194334D01*
X0193837Y0194229D01*
X0193952Y0194120D01*
X0194065Y0194009D01*
X0194175Y0193895D01*
X0194282Y0193778D01*
X0194386Y0193659D01*
X0194487Y0193537D01*
X0194584Y0193412D01*
X0194679Y0193285D01*
X0194770Y0193156D01*
X0194859Y0193025D01*
X0194943Y0192891D01*
X0195025Y0192755D01*
X0195103Y0192618D01*
X0195177Y0192478D01*
X0195248Y0192336D01*
X0195316Y0192193D01*
X0195380Y0192048D01*
X0195440Y0191902D01*
X0195496Y0191754D01*
X0195549Y0191605D01*
X0195598Y0191454D01*
X0195643Y0191302D01*
X0195684Y0191149D01*
X0195722Y0190996D01*
X0195755Y0190841D01*
X0195785Y0190685D01*
X0195811Y0190529D01*
X0195832Y0190372D01*
X0195850Y0190215D01*
X0195864Y0190057D01*
X0195874Y0189899D01*
X0195880Y0189741D01*
X0195882Y0189583D01*
X0195880Y0189425D01*
X0195874Y0189267D01*
X0195864Y0189109D01*
X0195850Y0188951D01*
X0195832Y0188794D01*
X0195811Y0188637D01*
X0195785Y0188481D01*
X0195755Y0188325D01*
X0195722Y0188170D01*
X0195684Y0188017D01*
X0195643Y0187864D01*
X0195598Y0187712D01*
X0195549Y0187561D01*
X0195496Y0187412D01*
X0195440Y0187264D01*
X0195380Y0187118D01*
X0195316Y0186973D01*
X0195248Y0186830D01*
X0195177Y0186688D01*
X0195103Y0186548D01*
X0195025Y0186411D01*
X0194943Y0186275D01*
X0194859Y0186141D01*
X0194770Y0186010D01*
X0194679Y0185881D01*
X0194584Y0185754D01*
X0194487Y0185629D01*
X0194386Y0185507D01*
X0194282Y0185388D01*
X0194175Y0185271D01*
X0194065Y0185157D01*
X0193952Y0185046D01*
X0193837Y0184937D01*
X0193719Y0184832D01*
X0193598Y0184730D01*
X0193475Y0184630D01*
X0193349Y0184534D01*
X0193221Y0184441D01*
X0193091Y0184351D01*
X0192958Y0184265D01*
X0192823Y0184181D01*
X0192687Y0184102D01*
X0192548Y0184025D01*
X0192407Y0183953D01*
X0192265Y0183883D01*
X0192121Y0183818D01*
X0191975Y0183756D01*
X0191828Y0183698D01*
X0191679Y0183643D01*
X0191529Y0183592D01*
X0191378Y0183545D01*
X0191226Y0183502D01*
X0191073Y0183463D01*
X0190918Y0183427D01*
X0190763Y0183396D01*
X0190607Y0183368D01*
X0190451Y0183344D01*
X0190294Y0183324D01*
X0190136Y0183308D01*
X0189979Y0183296D01*
X0189820Y0183288D01*
X0189662Y0183284D01*
X0189504Y0183284D01*
X0189346Y0183288D01*
X0189187Y0183296D01*
X0189030Y0183308D01*
X0188872Y0183324D01*
X0188715Y0183344D01*
X0188559Y0183368D01*
X0188403Y0183396D01*
X0188248Y0183427D01*
X0188093Y0183463D01*
X0187940Y0183502D01*
X0187788Y0183545D01*
X0187637Y0183592D01*
X0187487Y0183643D01*
X0187338Y0183698D01*
X0187191Y0183756D01*
X0187045Y0183818D01*
X0186901Y0183883D01*
X0186759Y0183953D01*
X0186618Y0184025D01*
X0186479Y0184102D01*
X0186343Y0184181D01*
X0186208Y0184265D01*
X0186075Y0184351D01*
X0185945Y0184441D01*
X0185817Y0184534D01*
X0185691Y0184630D01*
X0185568Y0184730D01*
X0185447Y0184832D01*
X0185329Y0184937D01*
X0185214Y0185046D01*
X0185101Y0185157D01*
X0184991Y0185271D01*
X0184884Y0185388D01*
X0184780Y0185507D01*
X0184679Y0185629D01*
X0184582Y0185754D01*
X0184487Y0185881D01*
X0184396Y0186010D01*
X0184307Y0186141D01*
X0184223Y0186275D01*
X0184141Y0186411D01*
X0184063Y0186548D01*
X0183989Y0186688D01*
X0183918Y0186830D01*
X0183850Y0186973D01*
X0183786Y0187118D01*
X0183726Y0187264D01*
X0183670Y0187412D01*
X0183617Y0187561D01*
X0183568Y0187712D01*
X0183523Y0187864D01*
X0183482Y0188017D01*
X0183444Y0188170D01*
X0183411Y0188325D01*
X0183381Y0188481D01*
X0183355Y0188637D01*
X0183334Y0188794D01*
X0183316Y0188951D01*
X0183302Y0189109D01*
X0183292Y0189267D01*
X0183286Y0189425D01*
X0183284Y0189583D01*
X0189583Y0201394D02*
X0189868Y0201391D01*
X0190154Y0201380D01*
X0190439Y0201363D01*
X0190723Y0201339D01*
X0191007Y0201308D01*
X0191290Y0201270D01*
X0191571Y0201225D01*
X0191852Y0201174D01*
X0192132Y0201116D01*
X0192410Y0201051D01*
X0192686Y0200979D01*
X0192960Y0200901D01*
X0193233Y0200816D01*
X0193503Y0200724D01*
X0193771Y0200626D01*
X0194037Y0200522D01*
X0194300Y0200411D01*
X0194560Y0200294D01*
X0194818Y0200171D01*
X0195072Y0200041D01*
X0195323Y0199905D01*
X0195571Y0199764D01*
X0195815Y0199616D01*
X0196056Y0199463D01*
X0196292Y0199303D01*
X0196525Y0199138D01*
X0196754Y0198968D01*
X0196979Y0198792D01*
X0197199Y0198610D01*
X0197415Y0198424D01*
X0197626Y0198232D01*
X0197833Y0198035D01*
X0198035Y0197833D01*
X0198232Y0197626D01*
X0198424Y0197415D01*
X0198610Y0197199D01*
X0198792Y0196979D01*
X0198968Y0196754D01*
X0199138Y0196525D01*
X0199303Y0196292D01*
X0199463Y0196056D01*
X0199616Y0195815D01*
X0199764Y0195571D01*
X0199905Y0195323D01*
X0200041Y0195072D01*
X0200171Y0194818D01*
X0200294Y0194560D01*
X0200411Y0194300D01*
X0200522Y0194037D01*
X0200626Y0193771D01*
X0200724Y0193503D01*
X0200816Y0193233D01*
X0200901Y0192960D01*
X0200979Y0192686D01*
X0201051Y0192410D01*
X0201116Y0192132D01*
X0201174Y0191852D01*
X0201225Y0191571D01*
X0201270Y0191290D01*
X0201308Y0191007D01*
X0201339Y0190723D01*
X0201363Y0190439D01*
X0201380Y0190154D01*
X0201391Y0189868D01*
X0201394Y0189583D01*
X0201394Y0016354D01*
X0183284Y0016354D02*
X0183286Y0016512D01*
X0183292Y0016670D01*
X0183302Y0016828D01*
X0183316Y0016986D01*
X0183334Y0017143D01*
X0183355Y0017300D01*
X0183381Y0017456D01*
X0183411Y0017612D01*
X0183444Y0017767D01*
X0183482Y0017920D01*
X0183523Y0018073D01*
X0183568Y0018225D01*
X0183617Y0018376D01*
X0183670Y0018525D01*
X0183726Y0018673D01*
X0183786Y0018819D01*
X0183850Y0018964D01*
X0183918Y0019107D01*
X0183989Y0019249D01*
X0184063Y0019389D01*
X0184141Y0019526D01*
X0184223Y0019662D01*
X0184307Y0019796D01*
X0184396Y0019927D01*
X0184487Y0020056D01*
X0184582Y0020183D01*
X0184679Y0020308D01*
X0184780Y0020430D01*
X0184884Y0020549D01*
X0184991Y0020666D01*
X0185101Y0020780D01*
X0185214Y0020891D01*
X0185329Y0021000D01*
X0185447Y0021105D01*
X0185568Y0021207D01*
X0185691Y0021307D01*
X0185817Y0021403D01*
X0185945Y0021496D01*
X0186075Y0021586D01*
X0186208Y0021672D01*
X0186343Y0021756D01*
X0186479Y0021835D01*
X0186618Y0021912D01*
X0186759Y0021984D01*
X0186901Y0022054D01*
X0187045Y0022119D01*
X0187191Y0022181D01*
X0187338Y0022239D01*
X0187487Y0022294D01*
X0187637Y0022345D01*
X0187788Y0022392D01*
X0187940Y0022435D01*
X0188093Y0022474D01*
X0188248Y0022510D01*
X0188403Y0022541D01*
X0188559Y0022569D01*
X0188715Y0022593D01*
X0188872Y0022613D01*
X0189030Y0022629D01*
X0189187Y0022641D01*
X0189346Y0022649D01*
X0189504Y0022653D01*
X0189662Y0022653D01*
X0189820Y0022649D01*
X0189979Y0022641D01*
X0190136Y0022629D01*
X0190294Y0022613D01*
X0190451Y0022593D01*
X0190607Y0022569D01*
X0190763Y0022541D01*
X0190918Y0022510D01*
X0191073Y0022474D01*
X0191226Y0022435D01*
X0191378Y0022392D01*
X0191529Y0022345D01*
X0191679Y0022294D01*
X0191828Y0022239D01*
X0191975Y0022181D01*
X0192121Y0022119D01*
X0192265Y0022054D01*
X0192407Y0021984D01*
X0192548Y0021912D01*
X0192687Y0021835D01*
X0192823Y0021756D01*
X0192958Y0021672D01*
X0193091Y0021586D01*
X0193221Y0021496D01*
X0193349Y0021403D01*
X0193475Y0021307D01*
X0193598Y0021207D01*
X0193719Y0021105D01*
X0193837Y0021000D01*
X0193952Y0020891D01*
X0194065Y0020780D01*
X0194175Y0020666D01*
X0194282Y0020549D01*
X0194386Y0020430D01*
X0194487Y0020308D01*
X0194584Y0020183D01*
X0194679Y0020056D01*
X0194770Y0019927D01*
X0194859Y0019796D01*
X0194943Y0019662D01*
X0195025Y0019526D01*
X0195103Y0019389D01*
X0195177Y0019249D01*
X0195248Y0019107D01*
X0195316Y0018964D01*
X0195380Y0018819D01*
X0195440Y0018673D01*
X0195496Y0018525D01*
X0195549Y0018376D01*
X0195598Y0018225D01*
X0195643Y0018073D01*
X0195684Y0017920D01*
X0195722Y0017767D01*
X0195755Y0017612D01*
X0195785Y0017456D01*
X0195811Y0017300D01*
X0195832Y0017143D01*
X0195850Y0016986D01*
X0195864Y0016828D01*
X0195874Y0016670D01*
X0195880Y0016512D01*
X0195882Y0016354D01*
X0195880Y0016196D01*
X0195874Y0016038D01*
X0195864Y0015880D01*
X0195850Y0015722D01*
X0195832Y0015565D01*
X0195811Y0015408D01*
X0195785Y0015252D01*
X0195755Y0015096D01*
X0195722Y0014941D01*
X0195684Y0014788D01*
X0195643Y0014635D01*
X0195598Y0014483D01*
X0195549Y0014332D01*
X0195496Y0014183D01*
X0195440Y0014035D01*
X0195380Y0013889D01*
X0195316Y0013744D01*
X0195248Y0013601D01*
X0195177Y0013459D01*
X0195103Y0013319D01*
X0195025Y0013182D01*
X0194943Y0013046D01*
X0194859Y0012912D01*
X0194770Y0012781D01*
X0194679Y0012652D01*
X0194584Y0012525D01*
X0194487Y0012400D01*
X0194386Y0012278D01*
X0194282Y0012159D01*
X0194175Y0012042D01*
X0194065Y0011928D01*
X0193952Y0011817D01*
X0193837Y0011708D01*
X0193719Y0011603D01*
X0193598Y0011501D01*
X0193475Y0011401D01*
X0193349Y0011305D01*
X0193221Y0011212D01*
X0193091Y0011122D01*
X0192958Y0011036D01*
X0192823Y0010952D01*
X0192687Y0010873D01*
X0192548Y0010796D01*
X0192407Y0010724D01*
X0192265Y0010654D01*
X0192121Y0010589D01*
X0191975Y0010527D01*
X0191828Y0010469D01*
X0191679Y0010414D01*
X0191529Y0010363D01*
X0191378Y0010316D01*
X0191226Y0010273D01*
X0191073Y0010234D01*
X0190918Y0010198D01*
X0190763Y0010167D01*
X0190607Y0010139D01*
X0190451Y0010115D01*
X0190294Y0010095D01*
X0190136Y0010079D01*
X0189979Y0010067D01*
X0189820Y0010059D01*
X0189662Y0010055D01*
X0189504Y0010055D01*
X0189346Y0010059D01*
X0189187Y0010067D01*
X0189030Y0010079D01*
X0188872Y0010095D01*
X0188715Y0010115D01*
X0188559Y0010139D01*
X0188403Y0010167D01*
X0188248Y0010198D01*
X0188093Y0010234D01*
X0187940Y0010273D01*
X0187788Y0010316D01*
X0187637Y0010363D01*
X0187487Y0010414D01*
X0187338Y0010469D01*
X0187191Y0010527D01*
X0187045Y0010589D01*
X0186901Y0010654D01*
X0186759Y0010724D01*
X0186618Y0010796D01*
X0186479Y0010873D01*
X0186343Y0010952D01*
X0186208Y0011036D01*
X0186075Y0011122D01*
X0185945Y0011212D01*
X0185817Y0011305D01*
X0185691Y0011401D01*
X0185568Y0011501D01*
X0185447Y0011603D01*
X0185329Y0011708D01*
X0185214Y0011817D01*
X0185101Y0011928D01*
X0184991Y0012042D01*
X0184884Y0012159D01*
X0184780Y0012278D01*
X0184679Y0012400D01*
X0184582Y0012525D01*
X0184487Y0012652D01*
X0184396Y0012781D01*
X0184307Y0012912D01*
X0184223Y0013046D01*
X0184141Y0013182D01*
X0184063Y0013319D01*
X0183989Y0013459D01*
X0183918Y0013601D01*
X0183850Y0013744D01*
X0183786Y0013889D01*
X0183726Y0014035D01*
X0183670Y0014183D01*
X0183617Y0014332D01*
X0183568Y0014483D01*
X0183523Y0014635D01*
X0183482Y0014788D01*
X0183444Y0014941D01*
X0183411Y0015096D01*
X0183381Y0015252D01*
X0183355Y0015408D01*
X0183334Y0015565D01*
X0183316Y0015722D01*
X0183302Y0015880D01*
X0183292Y0016038D01*
X0183286Y0016196D01*
X0183284Y0016354D01*
X0189583Y0004543D02*
X0189868Y0004546D01*
X0190154Y0004557D01*
X0190439Y0004574D01*
X0190723Y0004598D01*
X0191007Y0004629D01*
X0191290Y0004667D01*
X0191571Y0004712D01*
X0191852Y0004763D01*
X0192132Y0004821D01*
X0192410Y0004886D01*
X0192686Y0004958D01*
X0192960Y0005036D01*
X0193233Y0005121D01*
X0193503Y0005213D01*
X0193771Y0005311D01*
X0194037Y0005415D01*
X0194300Y0005526D01*
X0194560Y0005643D01*
X0194818Y0005766D01*
X0195072Y0005896D01*
X0195323Y0006032D01*
X0195571Y0006173D01*
X0195815Y0006321D01*
X0196056Y0006474D01*
X0196292Y0006634D01*
X0196525Y0006799D01*
X0196754Y0006969D01*
X0196979Y0007145D01*
X0197199Y0007327D01*
X0197415Y0007513D01*
X0197626Y0007705D01*
X0197833Y0007902D01*
X0198035Y0008104D01*
X0198232Y0008311D01*
X0198424Y0008522D01*
X0198610Y0008738D01*
X0198792Y0008958D01*
X0198968Y0009183D01*
X0199138Y0009412D01*
X0199303Y0009645D01*
X0199463Y0009881D01*
X0199616Y0010122D01*
X0199764Y0010366D01*
X0199905Y0010614D01*
X0200041Y0010865D01*
X0200171Y0011119D01*
X0200294Y0011377D01*
X0200411Y0011637D01*
X0200522Y0011900D01*
X0200626Y0012166D01*
X0200724Y0012434D01*
X0200816Y0012704D01*
X0200901Y0012977D01*
X0200979Y0013251D01*
X0201051Y0013527D01*
X0201116Y0013805D01*
X0201174Y0014085D01*
X0201225Y0014366D01*
X0201270Y0014647D01*
X0201308Y0014930D01*
X0201339Y0015214D01*
X0201363Y0015498D01*
X0201380Y0015783D01*
X0201391Y0016069D01*
X0201394Y0016354D01*
X0189583Y0004543D02*
X0016354Y0004543D01*
X0010055Y0016354D02*
X0010057Y0016512D01*
X0010063Y0016670D01*
X0010073Y0016828D01*
X0010087Y0016986D01*
X0010105Y0017143D01*
X0010126Y0017300D01*
X0010152Y0017456D01*
X0010182Y0017612D01*
X0010215Y0017767D01*
X0010253Y0017920D01*
X0010294Y0018073D01*
X0010339Y0018225D01*
X0010388Y0018376D01*
X0010441Y0018525D01*
X0010497Y0018673D01*
X0010557Y0018819D01*
X0010621Y0018964D01*
X0010689Y0019107D01*
X0010760Y0019249D01*
X0010834Y0019389D01*
X0010912Y0019526D01*
X0010994Y0019662D01*
X0011078Y0019796D01*
X0011167Y0019927D01*
X0011258Y0020056D01*
X0011353Y0020183D01*
X0011450Y0020308D01*
X0011551Y0020430D01*
X0011655Y0020549D01*
X0011762Y0020666D01*
X0011872Y0020780D01*
X0011985Y0020891D01*
X0012100Y0021000D01*
X0012218Y0021105D01*
X0012339Y0021207D01*
X0012462Y0021307D01*
X0012588Y0021403D01*
X0012716Y0021496D01*
X0012846Y0021586D01*
X0012979Y0021672D01*
X0013114Y0021756D01*
X0013250Y0021835D01*
X0013389Y0021912D01*
X0013530Y0021984D01*
X0013672Y0022054D01*
X0013816Y0022119D01*
X0013962Y0022181D01*
X0014109Y0022239D01*
X0014258Y0022294D01*
X0014408Y0022345D01*
X0014559Y0022392D01*
X0014711Y0022435D01*
X0014864Y0022474D01*
X0015019Y0022510D01*
X0015174Y0022541D01*
X0015330Y0022569D01*
X0015486Y0022593D01*
X0015643Y0022613D01*
X0015801Y0022629D01*
X0015958Y0022641D01*
X0016117Y0022649D01*
X0016275Y0022653D01*
X0016433Y0022653D01*
X0016591Y0022649D01*
X0016750Y0022641D01*
X0016907Y0022629D01*
X0017065Y0022613D01*
X0017222Y0022593D01*
X0017378Y0022569D01*
X0017534Y0022541D01*
X0017689Y0022510D01*
X0017844Y0022474D01*
X0017997Y0022435D01*
X0018149Y0022392D01*
X0018300Y0022345D01*
X0018450Y0022294D01*
X0018599Y0022239D01*
X0018746Y0022181D01*
X0018892Y0022119D01*
X0019036Y0022054D01*
X0019178Y0021984D01*
X0019319Y0021912D01*
X0019458Y0021835D01*
X0019594Y0021756D01*
X0019729Y0021672D01*
X0019862Y0021586D01*
X0019992Y0021496D01*
X0020120Y0021403D01*
X0020246Y0021307D01*
X0020369Y0021207D01*
X0020490Y0021105D01*
X0020608Y0021000D01*
X0020723Y0020891D01*
X0020836Y0020780D01*
X0020946Y0020666D01*
X0021053Y0020549D01*
X0021157Y0020430D01*
X0021258Y0020308D01*
X0021355Y0020183D01*
X0021450Y0020056D01*
X0021541Y0019927D01*
X0021630Y0019796D01*
X0021714Y0019662D01*
X0021796Y0019526D01*
X0021874Y0019389D01*
X0021948Y0019249D01*
X0022019Y0019107D01*
X0022087Y0018964D01*
X0022151Y0018819D01*
X0022211Y0018673D01*
X0022267Y0018525D01*
X0022320Y0018376D01*
X0022369Y0018225D01*
X0022414Y0018073D01*
X0022455Y0017920D01*
X0022493Y0017767D01*
X0022526Y0017612D01*
X0022556Y0017456D01*
X0022582Y0017300D01*
X0022603Y0017143D01*
X0022621Y0016986D01*
X0022635Y0016828D01*
X0022645Y0016670D01*
X0022651Y0016512D01*
X0022653Y0016354D01*
X0022651Y0016196D01*
X0022645Y0016038D01*
X0022635Y0015880D01*
X0022621Y0015722D01*
X0022603Y0015565D01*
X0022582Y0015408D01*
X0022556Y0015252D01*
X0022526Y0015096D01*
X0022493Y0014941D01*
X0022455Y0014788D01*
X0022414Y0014635D01*
X0022369Y0014483D01*
X0022320Y0014332D01*
X0022267Y0014183D01*
X0022211Y0014035D01*
X0022151Y0013889D01*
X0022087Y0013744D01*
X0022019Y0013601D01*
X0021948Y0013459D01*
X0021874Y0013319D01*
X0021796Y0013182D01*
X0021714Y0013046D01*
X0021630Y0012912D01*
X0021541Y0012781D01*
X0021450Y0012652D01*
X0021355Y0012525D01*
X0021258Y0012400D01*
X0021157Y0012278D01*
X0021053Y0012159D01*
X0020946Y0012042D01*
X0020836Y0011928D01*
X0020723Y0011817D01*
X0020608Y0011708D01*
X0020490Y0011603D01*
X0020369Y0011501D01*
X0020246Y0011401D01*
X0020120Y0011305D01*
X0019992Y0011212D01*
X0019862Y0011122D01*
X0019729Y0011036D01*
X0019594Y0010952D01*
X0019458Y0010873D01*
X0019319Y0010796D01*
X0019178Y0010724D01*
X0019036Y0010654D01*
X0018892Y0010589D01*
X0018746Y0010527D01*
X0018599Y0010469D01*
X0018450Y0010414D01*
X0018300Y0010363D01*
X0018149Y0010316D01*
X0017997Y0010273D01*
X0017844Y0010234D01*
X0017689Y0010198D01*
X0017534Y0010167D01*
X0017378Y0010139D01*
X0017222Y0010115D01*
X0017065Y0010095D01*
X0016907Y0010079D01*
X0016750Y0010067D01*
X0016591Y0010059D01*
X0016433Y0010055D01*
X0016275Y0010055D01*
X0016117Y0010059D01*
X0015958Y0010067D01*
X0015801Y0010079D01*
X0015643Y0010095D01*
X0015486Y0010115D01*
X0015330Y0010139D01*
X0015174Y0010167D01*
X0015019Y0010198D01*
X0014864Y0010234D01*
X0014711Y0010273D01*
X0014559Y0010316D01*
X0014408Y0010363D01*
X0014258Y0010414D01*
X0014109Y0010469D01*
X0013962Y0010527D01*
X0013816Y0010589D01*
X0013672Y0010654D01*
X0013530Y0010724D01*
X0013389Y0010796D01*
X0013250Y0010873D01*
X0013114Y0010952D01*
X0012979Y0011036D01*
X0012846Y0011122D01*
X0012716Y0011212D01*
X0012588Y0011305D01*
X0012462Y0011401D01*
X0012339Y0011501D01*
X0012218Y0011603D01*
X0012100Y0011708D01*
X0011985Y0011817D01*
X0011872Y0011928D01*
X0011762Y0012042D01*
X0011655Y0012159D01*
X0011551Y0012278D01*
X0011450Y0012400D01*
X0011353Y0012525D01*
X0011258Y0012652D01*
X0011167Y0012781D01*
X0011078Y0012912D01*
X0010994Y0013046D01*
X0010912Y0013182D01*
X0010834Y0013319D01*
X0010760Y0013459D01*
X0010689Y0013601D01*
X0010621Y0013744D01*
X0010557Y0013889D01*
X0010497Y0014035D01*
X0010441Y0014183D01*
X0010388Y0014332D01*
X0010339Y0014483D01*
X0010294Y0014635D01*
X0010253Y0014788D01*
X0010215Y0014941D01*
X0010182Y0015096D01*
X0010152Y0015252D01*
X0010126Y0015408D01*
X0010105Y0015565D01*
X0010087Y0015722D01*
X0010073Y0015880D01*
X0010063Y0016038D01*
X0010057Y0016196D01*
X0010055Y0016354D01*
X0004543Y0016354D02*
X0004546Y0016069D01*
X0004557Y0015783D01*
X0004574Y0015498D01*
X0004598Y0015214D01*
X0004629Y0014930D01*
X0004667Y0014647D01*
X0004712Y0014366D01*
X0004763Y0014085D01*
X0004821Y0013805D01*
X0004886Y0013527D01*
X0004958Y0013251D01*
X0005036Y0012977D01*
X0005121Y0012704D01*
X0005213Y0012434D01*
X0005311Y0012166D01*
X0005415Y0011900D01*
X0005526Y0011637D01*
X0005643Y0011377D01*
X0005766Y0011119D01*
X0005896Y0010865D01*
X0006032Y0010614D01*
X0006173Y0010366D01*
X0006321Y0010122D01*
X0006474Y0009881D01*
X0006634Y0009645D01*
X0006799Y0009412D01*
X0006969Y0009183D01*
X0007145Y0008958D01*
X0007327Y0008738D01*
X0007513Y0008522D01*
X0007705Y0008311D01*
X0007902Y0008104D01*
X0008104Y0007902D01*
X0008311Y0007705D01*
X0008522Y0007513D01*
X0008738Y0007327D01*
X0008958Y0007145D01*
X0009183Y0006969D01*
X0009412Y0006799D01*
X0009645Y0006634D01*
X0009881Y0006474D01*
X0010122Y0006321D01*
X0010366Y0006173D01*
X0010614Y0006032D01*
X0010865Y0005896D01*
X0011119Y0005766D01*
X0011377Y0005643D01*
X0011637Y0005526D01*
X0011900Y0005415D01*
X0012166Y0005311D01*
X0012434Y0005213D01*
X0012704Y0005121D01*
X0012977Y0005036D01*
X0013251Y0004958D01*
X0013527Y0004886D01*
X0013805Y0004821D01*
X0014085Y0004763D01*
X0014366Y0004712D01*
X0014647Y0004667D01*
X0014930Y0004629D01*
X0015214Y0004598D01*
X0015498Y0004574D01*
X0015783Y0004557D01*
X0016069Y0004546D01*
X0016354Y0004543D01*
D11*
X0016354Y0016354D03*
X0016354Y0189583D03*
X0189583Y0189583D03*
X0189583Y0016354D03*
D12*
X0171394Y0016394D03*
X0171394Y0026394D03*
X0161394Y0016394D03*
X0151394Y0016394D03*
X0141394Y0016394D03*
X0131394Y0016394D03*
X0131394Y0026394D03*
X0121394Y0016394D03*
X0111394Y0016394D03*
X0111394Y0026394D03*
X0101394Y0016394D03*
X0101394Y0046394D03*
X0121394Y0046394D03*
X0123756Y0063756D03*
X0107831Y0073756D03*
X0097043Y0073756D03*
X0097043Y0103756D03*
X0107831Y0103756D03*
X0121394Y0121394D03*
X0136394Y0136394D03*
X0121394Y0141394D03*
X0166394Y0136394D03*
X0194543Y0101394D03*
X0194543Y0081394D03*
X0161394Y0046394D03*
X0153756Y0063756D03*
X0141394Y0046394D03*
X0151394Y0026394D03*
D13*
X0154543Y0073794D02*
X0154543Y0078994D01*
X0144543Y0078994D02*
X0144543Y0073794D01*
X0134543Y0073794D02*
X0134543Y0078994D01*
X0124543Y0078994D02*
X0124543Y0073794D01*
X0124543Y0103794D02*
X0124543Y0108994D01*
X0134543Y0108994D02*
X0134543Y0103794D01*
X0144543Y0103794D02*
X0144543Y0108994D01*
X0154543Y0108994D02*
X0154543Y0103794D01*
X0164543Y0103794D02*
X0164543Y0108994D01*
X0174543Y0108994D02*
X0174543Y0103794D01*
X0184543Y0103794D02*
X0184543Y0108994D01*
X0184543Y0078994D02*
X0184543Y0073794D01*
X0174543Y0073794D02*
X0174543Y0078994D01*
X0164543Y0078994D02*
X0164543Y0073794D01*
D14*
X0146315Y0152850D03*
X0146315Y0160724D03*
X0136472Y0160724D03*
X0136472Y0152850D03*
D15*
X0117693Y0171394D03*
X0165094Y0171394D03*
D16*
X0191394Y0156394D03*
X0191394Y0146394D03*
X0191394Y0136394D03*
X0191394Y0126394D03*
D17*
X0085724Y0162024D03*
X0075724Y0162024D03*
X0065724Y0162024D03*
X0055724Y0162024D03*
X0045724Y0162024D03*
X0035724Y0162024D03*
D18*
X0025724Y0162024D03*
M02*
