%
M48
M72
T01C0.01575
T02C0.03150
T03C0.03200
T04C0.03740
T05C0.03937
T06C0.09055
T07C0.12598
%
T01
X14543Y44543
X44543Y14543
X89819Y55882
X85882Y91315
X50449Y75567
X99661Y134622
X127220Y114937
X160685Y144465
X166512Y190449
X186669Y87850
X188638Y40606
X38480Y190449
X12575Y168480
T02
X25724Y162024
X35724Y162024
X45724Y162024
X55724Y162024
X65724Y162024
X75724Y162024
X85724Y162024
X121394Y141394
X136394Y136394
X121394Y121394
X107831Y103756
X97043Y103756
X97043Y73756
X107831Y73756
X123756Y63756
X121394Y46394
X131394Y26394
X131394Y16394
X141394Y16394
X151394Y16394
X151394Y26394
X161394Y16394
X171394Y16394
X171394Y26394
X161394Y46394
X153756Y63756
X141394Y46394
X121394Y16394
X111394Y16394
X111394Y26394
X101394Y16394
X101394Y46394
X166394Y136394
X194543Y101394
X194543Y81394
T03
X184543Y76394
X174543Y76394
X164543Y76394
X154543Y76394
X144543Y76394
X134543Y76394
X124543Y76394
X124543Y106394
X134543Y106394
X144543Y106394
X154543Y106394
X164543Y106394
X174543Y106394
X184543Y106394
T04
X146315Y152850
X146315Y160724
X136472Y160724
X136472Y152850
T05
X191394Y156394
X191394Y146394
X191394Y136394
X191394Y126394
T06
X165094Y171394
X117693Y171394
T07
X16354Y16354
X16354Y189583
X189583Y189583
X189583Y16354
M30
