G75*
%MOIN*%
%OFA0B0*%
%FSLAX25Y25*%
%IPPOS*%
%LPD*%
%AMOC8*
5,1,8,0,0,1.08239X$1,22.5*
%
%ADD10C,0.00000*%
%ADD11C,0.00900*%
%ADD12C,0.01200*%
%ADD13C,0.00800*%
%ADD14C,0.00600*%
%ADD15C,0.01000*%
%ADD16C,0.00500*%
%ADD17C,0.00787*%
%ADD18R,0.10000X0.05000*%
D10*
X0017535Y0005724D02*
X0289189Y0005724D01*
X0282890Y0017535D02*
X0282892Y0017693D01*
X0282898Y0017851D01*
X0282908Y0018009D01*
X0282922Y0018167D01*
X0282940Y0018324D01*
X0282961Y0018481D01*
X0282987Y0018637D01*
X0283017Y0018793D01*
X0283050Y0018948D01*
X0283088Y0019101D01*
X0283129Y0019254D01*
X0283174Y0019406D01*
X0283223Y0019557D01*
X0283276Y0019706D01*
X0283332Y0019854D01*
X0283392Y0020000D01*
X0283456Y0020145D01*
X0283524Y0020288D01*
X0283595Y0020430D01*
X0283669Y0020570D01*
X0283747Y0020707D01*
X0283829Y0020843D01*
X0283913Y0020977D01*
X0284002Y0021108D01*
X0284093Y0021237D01*
X0284188Y0021364D01*
X0284285Y0021489D01*
X0284386Y0021611D01*
X0284490Y0021730D01*
X0284597Y0021847D01*
X0284707Y0021961D01*
X0284820Y0022072D01*
X0284935Y0022181D01*
X0285053Y0022286D01*
X0285174Y0022388D01*
X0285297Y0022488D01*
X0285423Y0022584D01*
X0285551Y0022677D01*
X0285681Y0022767D01*
X0285814Y0022853D01*
X0285949Y0022937D01*
X0286085Y0023016D01*
X0286224Y0023093D01*
X0286365Y0023165D01*
X0286507Y0023235D01*
X0286651Y0023300D01*
X0286797Y0023362D01*
X0286944Y0023420D01*
X0287093Y0023475D01*
X0287243Y0023526D01*
X0287394Y0023573D01*
X0287546Y0023616D01*
X0287699Y0023655D01*
X0287854Y0023691D01*
X0288009Y0023722D01*
X0288165Y0023750D01*
X0288321Y0023774D01*
X0288478Y0023794D01*
X0288636Y0023810D01*
X0288793Y0023822D01*
X0288952Y0023830D01*
X0289110Y0023834D01*
X0289268Y0023834D01*
X0289426Y0023830D01*
X0289585Y0023822D01*
X0289742Y0023810D01*
X0289900Y0023794D01*
X0290057Y0023774D01*
X0290213Y0023750D01*
X0290369Y0023722D01*
X0290524Y0023691D01*
X0290679Y0023655D01*
X0290832Y0023616D01*
X0290984Y0023573D01*
X0291135Y0023526D01*
X0291285Y0023475D01*
X0291434Y0023420D01*
X0291581Y0023362D01*
X0291727Y0023300D01*
X0291871Y0023235D01*
X0292013Y0023165D01*
X0292154Y0023093D01*
X0292293Y0023016D01*
X0292429Y0022937D01*
X0292564Y0022853D01*
X0292697Y0022767D01*
X0292827Y0022677D01*
X0292955Y0022584D01*
X0293081Y0022488D01*
X0293204Y0022388D01*
X0293325Y0022286D01*
X0293443Y0022181D01*
X0293558Y0022072D01*
X0293671Y0021961D01*
X0293781Y0021847D01*
X0293888Y0021730D01*
X0293992Y0021611D01*
X0294093Y0021489D01*
X0294190Y0021364D01*
X0294285Y0021237D01*
X0294376Y0021108D01*
X0294465Y0020977D01*
X0294549Y0020843D01*
X0294631Y0020707D01*
X0294709Y0020570D01*
X0294783Y0020430D01*
X0294854Y0020288D01*
X0294922Y0020145D01*
X0294986Y0020000D01*
X0295046Y0019854D01*
X0295102Y0019706D01*
X0295155Y0019557D01*
X0295204Y0019406D01*
X0295249Y0019254D01*
X0295290Y0019101D01*
X0295328Y0018948D01*
X0295361Y0018793D01*
X0295391Y0018637D01*
X0295417Y0018481D01*
X0295438Y0018324D01*
X0295456Y0018167D01*
X0295470Y0018009D01*
X0295480Y0017851D01*
X0295486Y0017693D01*
X0295488Y0017535D01*
X0295486Y0017377D01*
X0295480Y0017219D01*
X0295470Y0017061D01*
X0295456Y0016903D01*
X0295438Y0016746D01*
X0295417Y0016589D01*
X0295391Y0016433D01*
X0295361Y0016277D01*
X0295328Y0016122D01*
X0295290Y0015969D01*
X0295249Y0015816D01*
X0295204Y0015664D01*
X0295155Y0015513D01*
X0295102Y0015364D01*
X0295046Y0015216D01*
X0294986Y0015070D01*
X0294922Y0014925D01*
X0294854Y0014782D01*
X0294783Y0014640D01*
X0294709Y0014500D01*
X0294631Y0014363D01*
X0294549Y0014227D01*
X0294465Y0014093D01*
X0294376Y0013962D01*
X0294285Y0013833D01*
X0294190Y0013706D01*
X0294093Y0013581D01*
X0293992Y0013459D01*
X0293888Y0013340D01*
X0293781Y0013223D01*
X0293671Y0013109D01*
X0293558Y0012998D01*
X0293443Y0012889D01*
X0293325Y0012784D01*
X0293204Y0012682D01*
X0293081Y0012582D01*
X0292955Y0012486D01*
X0292827Y0012393D01*
X0292697Y0012303D01*
X0292564Y0012217D01*
X0292429Y0012133D01*
X0292293Y0012054D01*
X0292154Y0011977D01*
X0292013Y0011905D01*
X0291871Y0011835D01*
X0291727Y0011770D01*
X0291581Y0011708D01*
X0291434Y0011650D01*
X0291285Y0011595D01*
X0291135Y0011544D01*
X0290984Y0011497D01*
X0290832Y0011454D01*
X0290679Y0011415D01*
X0290524Y0011379D01*
X0290369Y0011348D01*
X0290213Y0011320D01*
X0290057Y0011296D01*
X0289900Y0011276D01*
X0289742Y0011260D01*
X0289585Y0011248D01*
X0289426Y0011240D01*
X0289268Y0011236D01*
X0289110Y0011236D01*
X0288952Y0011240D01*
X0288793Y0011248D01*
X0288636Y0011260D01*
X0288478Y0011276D01*
X0288321Y0011296D01*
X0288165Y0011320D01*
X0288009Y0011348D01*
X0287854Y0011379D01*
X0287699Y0011415D01*
X0287546Y0011454D01*
X0287394Y0011497D01*
X0287243Y0011544D01*
X0287093Y0011595D01*
X0286944Y0011650D01*
X0286797Y0011708D01*
X0286651Y0011770D01*
X0286507Y0011835D01*
X0286365Y0011905D01*
X0286224Y0011977D01*
X0286085Y0012054D01*
X0285949Y0012133D01*
X0285814Y0012217D01*
X0285681Y0012303D01*
X0285551Y0012393D01*
X0285423Y0012486D01*
X0285297Y0012582D01*
X0285174Y0012682D01*
X0285053Y0012784D01*
X0284935Y0012889D01*
X0284820Y0012998D01*
X0284707Y0013109D01*
X0284597Y0013223D01*
X0284490Y0013340D01*
X0284386Y0013459D01*
X0284285Y0013581D01*
X0284188Y0013706D01*
X0284093Y0013833D01*
X0284002Y0013962D01*
X0283913Y0014093D01*
X0283829Y0014227D01*
X0283747Y0014363D01*
X0283669Y0014500D01*
X0283595Y0014640D01*
X0283524Y0014782D01*
X0283456Y0014925D01*
X0283392Y0015070D01*
X0283332Y0015216D01*
X0283276Y0015364D01*
X0283223Y0015513D01*
X0283174Y0015664D01*
X0283129Y0015816D01*
X0283088Y0015969D01*
X0283050Y0016122D01*
X0283017Y0016277D01*
X0282987Y0016433D01*
X0282961Y0016589D01*
X0282940Y0016746D01*
X0282922Y0016903D01*
X0282908Y0017061D01*
X0282898Y0017219D01*
X0282892Y0017377D01*
X0282890Y0017535D01*
X0289189Y0005724D02*
X0289474Y0005727D01*
X0289760Y0005738D01*
X0290045Y0005755D01*
X0290329Y0005779D01*
X0290613Y0005810D01*
X0290896Y0005848D01*
X0291177Y0005893D01*
X0291458Y0005944D01*
X0291738Y0006002D01*
X0292016Y0006067D01*
X0292292Y0006139D01*
X0292566Y0006217D01*
X0292839Y0006302D01*
X0293109Y0006394D01*
X0293377Y0006492D01*
X0293643Y0006596D01*
X0293906Y0006707D01*
X0294166Y0006824D01*
X0294424Y0006947D01*
X0294678Y0007077D01*
X0294929Y0007213D01*
X0295177Y0007354D01*
X0295421Y0007502D01*
X0295662Y0007655D01*
X0295898Y0007815D01*
X0296131Y0007980D01*
X0296360Y0008150D01*
X0296585Y0008326D01*
X0296805Y0008508D01*
X0297021Y0008694D01*
X0297232Y0008886D01*
X0297439Y0009083D01*
X0297641Y0009285D01*
X0297838Y0009492D01*
X0298030Y0009703D01*
X0298216Y0009919D01*
X0298398Y0010139D01*
X0298574Y0010364D01*
X0298744Y0010593D01*
X0298909Y0010826D01*
X0299069Y0011062D01*
X0299222Y0011303D01*
X0299370Y0011547D01*
X0299511Y0011795D01*
X0299647Y0012046D01*
X0299777Y0012300D01*
X0299900Y0012558D01*
X0300017Y0012818D01*
X0300128Y0013081D01*
X0300232Y0013347D01*
X0300330Y0013615D01*
X0300422Y0013885D01*
X0300507Y0014158D01*
X0300585Y0014432D01*
X0300657Y0014708D01*
X0300722Y0014986D01*
X0300780Y0015266D01*
X0300831Y0015547D01*
X0300876Y0015828D01*
X0300914Y0016111D01*
X0300945Y0016395D01*
X0300969Y0016679D01*
X0300986Y0016964D01*
X0300997Y0017250D01*
X0301000Y0017535D01*
X0301000Y0190764D01*
X0282890Y0190764D02*
X0282892Y0190922D01*
X0282898Y0191080D01*
X0282908Y0191238D01*
X0282922Y0191396D01*
X0282940Y0191553D01*
X0282961Y0191710D01*
X0282987Y0191866D01*
X0283017Y0192022D01*
X0283050Y0192177D01*
X0283088Y0192330D01*
X0283129Y0192483D01*
X0283174Y0192635D01*
X0283223Y0192786D01*
X0283276Y0192935D01*
X0283332Y0193083D01*
X0283392Y0193229D01*
X0283456Y0193374D01*
X0283524Y0193517D01*
X0283595Y0193659D01*
X0283669Y0193799D01*
X0283747Y0193936D01*
X0283829Y0194072D01*
X0283913Y0194206D01*
X0284002Y0194337D01*
X0284093Y0194466D01*
X0284188Y0194593D01*
X0284285Y0194718D01*
X0284386Y0194840D01*
X0284490Y0194959D01*
X0284597Y0195076D01*
X0284707Y0195190D01*
X0284820Y0195301D01*
X0284935Y0195410D01*
X0285053Y0195515D01*
X0285174Y0195617D01*
X0285297Y0195717D01*
X0285423Y0195813D01*
X0285551Y0195906D01*
X0285681Y0195996D01*
X0285814Y0196082D01*
X0285949Y0196166D01*
X0286085Y0196245D01*
X0286224Y0196322D01*
X0286365Y0196394D01*
X0286507Y0196464D01*
X0286651Y0196529D01*
X0286797Y0196591D01*
X0286944Y0196649D01*
X0287093Y0196704D01*
X0287243Y0196755D01*
X0287394Y0196802D01*
X0287546Y0196845D01*
X0287699Y0196884D01*
X0287854Y0196920D01*
X0288009Y0196951D01*
X0288165Y0196979D01*
X0288321Y0197003D01*
X0288478Y0197023D01*
X0288636Y0197039D01*
X0288793Y0197051D01*
X0288952Y0197059D01*
X0289110Y0197063D01*
X0289268Y0197063D01*
X0289426Y0197059D01*
X0289585Y0197051D01*
X0289742Y0197039D01*
X0289900Y0197023D01*
X0290057Y0197003D01*
X0290213Y0196979D01*
X0290369Y0196951D01*
X0290524Y0196920D01*
X0290679Y0196884D01*
X0290832Y0196845D01*
X0290984Y0196802D01*
X0291135Y0196755D01*
X0291285Y0196704D01*
X0291434Y0196649D01*
X0291581Y0196591D01*
X0291727Y0196529D01*
X0291871Y0196464D01*
X0292013Y0196394D01*
X0292154Y0196322D01*
X0292293Y0196245D01*
X0292429Y0196166D01*
X0292564Y0196082D01*
X0292697Y0195996D01*
X0292827Y0195906D01*
X0292955Y0195813D01*
X0293081Y0195717D01*
X0293204Y0195617D01*
X0293325Y0195515D01*
X0293443Y0195410D01*
X0293558Y0195301D01*
X0293671Y0195190D01*
X0293781Y0195076D01*
X0293888Y0194959D01*
X0293992Y0194840D01*
X0294093Y0194718D01*
X0294190Y0194593D01*
X0294285Y0194466D01*
X0294376Y0194337D01*
X0294465Y0194206D01*
X0294549Y0194072D01*
X0294631Y0193936D01*
X0294709Y0193799D01*
X0294783Y0193659D01*
X0294854Y0193517D01*
X0294922Y0193374D01*
X0294986Y0193229D01*
X0295046Y0193083D01*
X0295102Y0192935D01*
X0295155Y0192786D01*
X0295204Y0192635D01*
X0295249Y0192483D01*
X0295290Y0192330D01*
X0295328Y0192177D01*
X0295361Y0192022D01*
X0295391Y0191866D01*
X0295417Y0191710D01*
X0295438Y0191553D01*
X0295456Y0191396D01*
X0295470Y0191238D01*
X0295480Y0191080D01*
X0295486Y0190922D01*
X0295488Y0190764D01*
X0295486Y0190606D01*
X0295480Y0190448D01*
X0295470Y0190290D01*
X0295456Y0190132D01*
X0295438Y0189975D01*
X0295417Y0189818D01*
X0295391Y0189662D01*
X0295361Y0189506D01*
X0295328Y0189351D01*
X0295290Y0189198D01*
X0295249Y0189045D01*
X0295204Y0188893D01*
X0295155Y0188742D01*
X0295102Y0188593D01*
X0295046Y0188445D01*
X0294986Y0188299D01*
X0294922Y0188154D01*
X0294854Y0188011D01*
X0294783Y0187869D01*
X0294709Y0187729D01*
X0294631Y0187592D01*
X0294549Y0187456D01*
X0294465Y0187322D01*
X0294376Y0187191D01*
X0294285Y0187062D01*
X0294190Y0186935D01*
X0294093Y0186810D01*
X0293992Y0186688D01*
X0293888Y0186569D01*
X0293781Y0186452D01*
X0293671Y0186338D01*
X0293558Y0186227D01*
X0293443Y0186118D01*
X0293325Y0186013D01*
X0293204Y0185911D01*
X0293081Y0185811D01*
X0292955Y0185715D01*
X0292827Y0185622D01*
X0292697Y0185532D01*
X0292564Y0185446D01*
X0292429Y0185362D01*
X0292293Y0185283D01*
X0292154Y0185206D01*
X0292013Y0185134D01*
X0291871Y0185064D01*
X0291727Y0184999D01*
X0291581Y0184937D01*
X0291434Y0184879D01*
X0291285Y0184824D01*
X0291135Y0184773D01*
X0290984Y0184726D01*
X0290832Y0184683D01*
X0290679Y0184644D01*
X0290524Y0184608D01*
X0290369Y0184577D01*
X0290213Y0184549D01*
X0290057Y0184525D01*
X0289900Y0184505D01*
X0289742Y0184489D01*
X0289585Y0184477D01*
X0289426Y0184469D01*
X0289268Y0184465D01*
X0289110Y0184465D01*
X0288952Y0184469D01*
X0288793Y0184477D01*
X0288636Y0184489D01*
X0288478Y0184505D01*
X0288321Y0184525D01*
X0288165Y0184549D01*
X0288009Y0184577D01*
X0287854Y0184608D01*
X0287699Y0184644D01*
X0287546Y0184683D01*
X0287394Y0184726D01*
X0287243Y0184773D01*
X0287093Y0184824D01*
X0286944Y0184879D01*
X0286797Y0184937D01*
X0286651Y0184999D01*
X0286507Y0185064D01*
X0286365Y0185134D01*
X0286224Y0185206D01*
X0286085Y0185283D01*
X0285949Y0185362D01*
X0285814Y0185446D01*
X0285681Y0185532D01*
X0285551Y0185622D01*
X0285423Y0185715D01*
X0285297Y0185811D01*
X0285174Y0185911D01*
X0285053Y0186013D01*
X0284935Y0186118D01*
X0284820Y0186227D01*
X0284707Y0186338D01*
X0284597Y0186452D01*
X0284490Y0186569D01*
X0284386Y0186688D01*
X0284285Y0186810D01*
X0284188Y0186935D01*
X0284093Y0187062D01*
X0284002Y0187191D01*
X0283913Y0187322D01*
X0283829Y0187456D01*
X0283747Y0187592D01*
X0283669Y0187729D01*
X0283595Y0187869D01*
X0283524Y0188011D01*
X0283456Y0188154D01*
X0283392Y0188299D01*
X0283332Y0188445D01*
X0283276Y0188593D01*
X0283223Y0188742D01*
X0283174Y0188893D01*
X0283129Y0189045D01*
X0283088Y0189198D01*
X0283050Y0189351D01*
X0283017Y0189506D01*
X0282987Y0189662D01*
X0282961Y0189818D01*
X0282940Y0189975D01*
X0282922Y0190132D01*
X0282908Y0190290D01*
X0282898Y0190448D01*
X0282892Y0190606D01*
X0282890Y0190764D01*
X0289189Y0202575D02*
X0289474Y0202572D01*
X0289760Y0202561D01*
X0290045Y0202544D01*
X0290329Y0202520D01*
X0290613Y0202489D01*
X0290896Y0202451D01*
X0291177Y0202406D01*
X0291458Y0202355D01*
X0291738Y0202297D01*
X0292016Y0202232D01*
X0292292Y0202160D01*
X0292566Y0202082D01*
X0292839Y0201997D01*
X0293109Y0201905D01*
X0293377Y0201807D01*
X0293643Y0201703D01*
X0293906Y0201592D01*
X0294166Y0201475D01*
X0294424Y0201352D01*
X0294678Y0201222D01*
X0294929Y0201086D01*
X0295177Y0200945D01*
X0295421Y0200797D01*
X0295662Y0200644D01*
X0295898Y0200484D01*
X0296131Y0200319D01*
X0296360Y0200149D01*
X0296585Y0199973D01*
X0296805Y0199791D01*
X0297021Y0199605D01*
X0297232Y0199413D01*
X0297439Y0199216D01*
X0297641Y0199014D01*
X0297838Y0198807D01*
X0298030Y0198596D01*
X0298216Y0198380D01*
X0298398Y0198160D01*
X0298574Y0197935D01*
X0298744Y0197706D01*
X0298909Y0197473D01*
X0299069Y0197237D01*
X0299222Y0196996D01*
X0299370Y0196752D01*
X0299511Y0196504D01*
X0299647Y0196253D01*
X0299777Y0195999D01*
X0299900Y0195741D01*
X0300017Y0195481D01*
X0300128Y0195218D01*
X0300232Y0194952D01*
X0300330Y0194684D01*
X0300422Y0194414D01*
X0300507Y0194141D01*
X0300585Y0193867D01*
X0300657Y0193591D01*
X0300722Y0193313D01*
X0300780Y0193033D01*
X0300831Y0192752D01*
X0300876Y0192471D01*
X0300914Y0192188D01*
X0300945Y0191904D01*
X0300969Y0191620D01*
X0300986Y0191335D01*
X0300997Y0191049D01*
X0301000Y0190764D01*
X0289189Y0202575D02*
X0017535Y0202575D01*
X0011236Y0190764D02*
X0011238Y0190922D01*
X0011244Y0191080D01*
X0011254Y0191238D01*
X0011268Y0191396D01*
X0011286Y0191553D01*
X0011307Y0191710D01*
X0011333Y0191866D01*
X0011363Y0192022D01*
X0011396Y0192177D01*
X0011434Y0192330D01*
X0011475Y0192483D01*
X0011520Y0192635D01*
X0011569Y0192786D01*
X0011622Y0192935D01*
X0011678Y0193083D01*
X0011738Y0193229D01*
X0011802Y0193374D01*
X0011870Y0193517D01*
X0011941Y0193659D01*
X0012015Y0193799D01*
X0012093Y0193936D01*
X0012175Y0194072D01*
X0012259Y0194206D01*
X0012348Y0194337D01*
X0012439Y0194466D01*
X0012534Y0194593D01*
X0012631Y0194718D01*
X0012732Y0194840D01*
X0012836Y0194959D01*
X0012943Y0195076D01*
X0013053Y0195190D01*
X0013166Y0195301D01*
X0013281Y0195410D01*
X0013399Y0195515D01*
X0013520Y0195617D01*
X0013643Y0195717D01*
X0013769Y0195813D01*
X0013897Y0195906D01*
X0014027Y0195996D01*
X0014160Y0196082D01*
X0014295Y0196166D01*
X0014431Y0196245D01*
X0014570Y0196322D01*
X0014711Y0196394D01*
X0014853Y0196464D01*
X0014997Y0196529D01*
X0015143Y0196591D01*
X0015290Y0196649D01*
X0015439Y0196704D01*
X0015589Y0196755D01*
X0015740Y0196802D01*
X0015892Y0196845D01*
X0016045Y0196884D01*
X0016200Y0196920D01*
X0016355Y0196951D01*
X0016511Y0196979D01*
X0016667Y0197003D01*
X0016824Y0197023D01*
X0016982Y0197039D01*
X0017139Y0197051D01*
X0017298Y0197059D01*
X0017456Y0197063D01*
X0017614Y0197063D01*
X0017772Y0197059D01*
X0017931Y0197051D01*
X0018088Y0197039D01*
X0018246Y0197023D01*
X0018403Y0197003D01*
X0018559Y0196979D01*
X0018715Y0196951D01*
X0018870Y0196920D01*
X0019025Y0196884D01*
X0019178Y0196845D01*
X0019330Y0196802D01*
X0019481Y0196755D01*
X0019631Y0196704D01*
X0019780Y0196649D01*
X0019927Y0196591D01*
X0020073Y0196529D01*
X0020217Y0196464D01*
X0020359Y0196394D01*
X0020500Y0196322D01*
X0020639Y0196245D01*
X0020775Y0196166D01*
X0020910Y0196082D01*
X0021043Y0195996D01*
X0021173Y0195906D01*
X0021301Y0195813D01*
X0021427Y0195717D01*
X0021550Y0195617D01*
X0021671Y0195515D01*
X0021789Y0195410D01*
X0021904Y0195301D01*
X0022017Y0195190D01*
X0022127Y0195076D01*
X0022234Y0194959D01*
X0022338Y0194840D01*
X0022439Y0194718D01*
X0022536Y0194593D01*
X0022631Y0194466D01*
X0022722Y0194337D01*
X0022811Y0194206D01*
X0022895Y0194072D01*
X0022977Y0193936D01*
X0023055Y0193799D01*
X0023129Y0193659D01*
X0023200Y0193517D01*
X0023268Y0193374D01*
X0023332Y0193229D01*
X0023392Y0193083D01*
X0023448Y0192935D01*
X0023501Y0192786D01*
X0023550Y0192635D01*
X0023595Y0192483D01*
X0023636Y0192330D01*
X0023674Y0192177D01*
X0023707Y0192022D01*
X0023737Y0191866D01*
X0023763Y0191710D01*
X0023784Y0191553D01*
X0023802Y0191396D01*
X0023816Y0191238D01*
X0023826Y0191080D01*
X0023832Y0190922D01*
X0023834Y0190764D01*
X0023832Y0190606D01*
X0023826Y0190448D01*
X0023816Y0190290D01*
X0023802Y0190132D01*
X0023784Y0189975D01*
X0023763Y0189818D01*
X0023737Y0189662D01*
X0023707Y0189506D01*
X0023674Y0189351D01*
X0023636Y0189198D01*
X0023595Y0189045D01*
X0023550Y0188893D01*
X0023501Y0188742D01*
X0023448Y0188593D01*
X0023392Y0188445D01*
X0023332Y0188299D01*
X0023268Y0188154D01*
X0023200Y0188011D01*
X0023129Y0187869D01*
X0023055Y0187729D01*
X0022977Y0187592D01*
X0022895Y0187456D01*
X0022811Y0187322D01*
X0022722Y0187191D01*
X0022631Y0187062D01*
X0022536Y0186935D01*
X0022439Y0186810D01*
X0022338Y0186688D01*
X0022234Y0186569D01*
X0022127Y0186452D01*
X0022017Y0186338D01*
X0021904Y0186227D01*
X0021789Y0186118D01*
X0021671Y0186013D01*
X0021550Y0185911D01*
X0021427Y0185811D01*
X0021301Y0185715D01*
X0021173Y0185622D01*
X0021043Y0185532D01*
X0020910Y0185446D01*
X0020775Y0185362D01*
X0020639Y0185283D01*
X0020500Y0185206D01*
X0020359Y0185134D01*
X0020217Y0185064D01*
X0020073Y0184999D01*
X0019927Y0184937D01*
X0019780Y0184879D01*
X0019631Y0184824D01*
X0019481Y0184773D01*
X0019330Y0184726D01*
X0019178Y0184683D01*
X0019025Y0184644D01*
X0018870Y0184608D01*
X0018715Y0184577D01*
X0018559Y0184549D01*
X0018403Y0184525D01*
X0018246Y0184505D01*
X0018088Y0184489D01*
X0017931Y0184477D01*
X0017772Y0184469D01*
X0017614Y0184465D01*
X0017456Y0184465D01*
X0017298Y0184469D01*
X0017139Y0184477D01*
X0016982Y0184489D01*
X0016824Y0184505D01*
X0016667Y0184525D01*
X0016511Y0184549D01*
X0016355Y0184577D01*
X0016200Y0184608D01*
X0016045Y0184644D01*
X0015892Y0184683D01*
X0015740Y0184726D01*
X0015589Y0184773D01*
X0015439Y0184824D01*
X0015290Y0184879D01*
X0015143Y0184937D01*
X0014997Y0184999D01*
X0014853Y0185064D01*
X0014711Y0185134D01*
X0014570Y0185206D01*
X0014431Y0185283D01*
X0014295Y0185362D01*
X0014160Y0185446D01*
X0014027Y0185532D01*
X0013897Y0185622D01*
X0013769Y0185715D01*
X0013643Y0185811D01*
X0013520Y0185911D01*
X0013399Y0186013D01*
X0013281Y0186118D01*
X0013166Y0186227D01*
X0013053Y0186338D01*
X0012943Y0186452D01*
X0012836Y0186569D01*
X0012732Y0186688D01*
X0012631Y0186810D01*
X0012534Y0186935D01*
X0012439Y0187062D01*
X0012348Y0187191D01*
X0012259Y0187322D01*
X0012175Y0187456D01*
X0012093Y0187592D01*
X0012015Y0187729D01*
X0011941Y0187869D01*
X0011870Y0188011D01*
X0011802Y0188154D01*
X0011738Y0188299D01*
X0011678Y0188445D01*
X0011622Y0188593D01*
X0011569Y0188742D01*
X0011520Y0188893D01*
X0011475Y0189045D01*
X0011434Y0189198D01*
X0011396Y0189351D01*
X0011363Y0189506D01*
X0011333Y0189662D01*
X0011307Y0189818D01*
X0011286Y0189975D01*
X0011268Y0190132D01*
X0011254Y0190290D01*
X0011244Y0190448D01*
X0011238Y0190606D01*
X0011236Y0190764D01*
X0005724Y0190764D02*
X0005724Y0017535D01*
X0011236Y0017535D02*
X0011238Y0017693D01*
X0011244Y0017851D01*
X0011254Y0018009D01*
X0011268Y0018167D01*
X0011286Y0018324D01*
X0011307Y0018481D01*
X0011333Y0018637D01*
X0011363Y0018793D01*
X0011396Y0018948D01*
X0011434Y0019101D01*
X0011475Y0019254D01*
X0011520Y0019406D01*
X0011569Y0019557D01*
X0011622Y0019706D01*
X0011678Y0019854D01*
X0011738Y0020000D01*
X0011802Y0020145D01*
X0011870Y0020288D01*
X0011941Y0020430D01*
X0012015Y0020570D01*
X0012093Y0020707D01*
X0012175Y0020843D01*
X0012259Y0020977D01*
X0012348Y0021108D01*
X0012439Y0021237D01*
X0012534Y0021364D01*
X0012631Y0021489D01*
X0012732Y0021611D01*
X0012836Y0021730D01*
X0012943Y0021847D01*
X0013053Y0021961D01*
X0013166Y0022072D01*
X0013281Y0022181D01*
X0013399Y0022286D01*
X0013520Y0022388D01*
X0013643Y0022488D01*
X0013769Y0022584D01*
X0013897Y0022677D01*
X0014027Y0022767D01*
X0014160Y0022853D01*
X0014295Y0022937D01*
X0014431Y0023016D01*
X0014570Y0023093D01*
X0014711Y0023165D01*
X0014853Y0023235D01*
X0014997Y0023300D01*
X0015143Y0023362D01*
X0015290Y0023420D01*
X0015439Y0023475D01*
X0015589Y0023526D01*
X0015740Y0023573D01*
X0015892Y0023616D01*
X0016045Y0023655D01*
X0016200Y0023691D01*
X0016355Y0023722D01*
X0016511Y0023750D01*
X0016667Y0023774D01*
X0016824Y0023794D01*
X0016982Y0023810D01*
X0017139Y0023822D01*
X0017298Y0023830D01*
X0017456Y0023834D01*
X0017614Y0023834D01*
X0017772Y0023830D01*
X0017931Y0023822D01*
X0018088Y0023810D01*
X0018246Y0023794D01*
X0018403Y0023774D01*
X0018559Y0023750D01*
X0018715Y0023722D01*
X0018870Y0023691D01*
X0019025Y0023655D01*
X0019178Y0023616D01*
X0019330Y0023573D01*
X0019481Y0023526D01*
X0019631Y0023475D01*
X0019780Y0023420D01*
X0019927Y0023362D01*
X0020073Y0023300D01*
X0020217Y0023235D01*
X0020359Y0023165D01*
X0020500Y0023093D01*
X0020639Y0023016D01*
X0020775Y0022937D01*
X0020910Y0022853D01*
X0021043Y0022767D01*
X0021173Y0022677D01*
X0021301Y0022584D01*
X0021427Y0022488D01*
X0021550Y0022388D01*
X0021671Y0022286D01*
X0021789Y0022181D01*
X0021904Y0022072D01*
X0022017Y0021961D01*
X0022127Y0021847D01*
X0022234Y0021730D01*
X0022338Y0021611D01*
X0022439Y0021489D01*
X0022536Y0021364D01*
X0022631Y0021237D01*
X0022722Y0021108D01*
X0022811Y0020977D01*
X0022895Y0020843D01*
X0022977Y0020707D01*
X0023055Y0020570D01*
X0023129Y0020430D01*
X0023200Y0020288D01*
X0023268Y0020145D01*
X0023332Y0020000D01*
X0023392Y0019854D01*
X0023448Y0019706D01*
X0023501Y0019557D01*
X0023550Y0019406D01*
X0023595Y0019254D01*
X0023636Y0019101D01*
X0023674Y0018948D01*
X0023707Y0018793D01*
X0023737Y0018637D01*
X0023763Y0018481D01*
X0023784Y0018324D01*
X0023802Y0018167D01*
X0023816Y0018009D01*
X0023826Y0017851D01*
X0023832Y0017693D01*
X0023834Y0017535D01*
X0023832Y0017377D01*
X0023826Y0017219D01*
X0023816Y0017061D01*
X0023802Y0016903D01*
X0023784Y0016746D01*
X0023763Y0016589D01*
X0023737Y0016433D01*
X0023707Y0016277D01*
X0023674Y0016122D01*
X0023636Y0015969D01*
X0023595Y0015816D01*
X0023550Y0015664D01*
X0023501Y0015513D01*
X0023448Y0015364D01*
X0023392Y0015216D01*
X0023332Y0015070D01*
X0023268Y0014925D01*
X0023200Y0014782D01*
X0023129Y0014640D01*
X0023055Y0014500D01*
X0022977Y0014363D01*
X0022895Y0014227D01*
X0022811Y0014093D01*
X0022722Y0013962D01*
X0022631Y0013833D01*
X0022536Y0013706D01*
X0022439Y0013581D01*
X0022338Y0013459D01*
X0022234Y0013340D01*
X0022127Y0013223D01*
X0022017Y0013109D01*
X0021904Y0012998D01*
X0021789Y0012889D01*
X0021671Y0012784D01*
X0021550Y0012682D01*
X0021427Y0012582D01*
X0021301Y0012486D01*
X0021173Y0012393D01*
X0021043Y0012303D01*
X0020910Y0012217D01*
X0020775Y0012133D01*
X0020639Y0012054D01*
X0020500Y0011977D01*
X0020359Y0011905D01*
X0020217Y0011835D01*
X0020073Y0011770D01*
X0019927Y0011708D01*
X0019780Y0011650D01*
X0019631Y0011595D01*
X0019481Y0011544D01*
X0019330Y0011497D01*
X0019178Y0011454D01*
X0019025Y0011415D01*
X0018870Y0011379D01*
X0018715Y0011348D01*
X0018559Y0011320D01*
X0018403Y0011296D01*
X0018246Y0011276D01*
X0018088Y0011260D01*
X0017931Y0011248D01*
X0017772Y0011240D01*
X0017614Y0011236D01*
X0017456Y0011236D01*
X0017298Y0011240D01*
X0017139Y0011248D01*
X0016982Y0011260D01*
X0016824Y0011276D01*
X0016667Y0011296D01*
X0016511Y0011320D01*
X0016355Y0011348D01*
X0016200Y0011379D01*
X0016045Y0011415D01*
X0015892Y0011454D01*
X0015740Y0011497D01*
X0015589Y0011544D01*
X0015439Y0011595D01*
X0015290Y0011650D01*
X0015143Y0011708D01*
X0014997Y0011770D01*
X0014853Y0011835D01*
X0014711Y0011905D01*
X0014570Y0011977D01*
X0014431Y0012054D01*
X0014295Y0012133D01*
X0014160Y0012217D01*
X0014027Y0012303D01*
X0013897Y0012393D01*
X0013769Y0012486D01*
X0013643Y0012582D01*
X0013520Y0012682D01*
X0013399Y0012784D01*
X0013281Y0012889D01*
X0013166Y0012998D01*
X0013053Y0013109D01*
X0012943Y0013223D01*
X0012836Y0013340D01*
X0012732Y0013459D01*
X0012631Y0013581D01*
X0012534Y0013706D01*
X0012439Y0013833D01*
X0012348Y0013962D01*
X0012259Y0014093D01*
X0012175Y0014227D01*
X0012093Y0014363D01*
X0012015Y0014500D01*
X0011941Y0014640D01*
X0011870Y0014782D01*
X0011802Y0014925D01*
X0011738Y0015070D01*
X0011678Y0015216D01*
X0011622Y0015364D01*
X0011569Y0015513D01*
X0011520Y0015664D01*
X0011475Y0015816D01*
X0011434Y0015969D01*
X0011396Y0016122D01*
X0011363Y0016277D01*
X0011333Y0016433D01*
X0011307Y0016589D01*
X0011286Y0016746D01*
X0011268Y0016903D01*
X0011254Y0017061D01*
X0011244Y0017219D01*
X0011238Y0017377D01*
X0011236Y0017535D01*
X0005724Y0017535D02*
X0005727Y0017250D01*
X0005738Y0016964D01*
X0005755Y0016679D01*
X0005779Y0016395D01*
X0005810Y0016111D01*
X0005848Y0015828D01*
X0005893Y0015547D01*
X0005944Y0015266D01*
X0006002Y0014986D01*
X0006067Y0014708D01*
X0006139Y0014432D01*
X0006217Y0014158D01*
X0006302Y0013885D01*
X0006394Y0013615D01*
X0006492Y0013347D01*
X0006596Y0013081D01*
X0006707Y0012818D01*
X0006824Y0012558D01*
X0006947Y0012300D01*
X0007077Y0012046D01*
X0007213Y0011795D01*
X0007354Y0011547D01*
X0007502Y0011303D01*
X0007655Y0011062D01*
X0007815Y0010826D01*
X0007980Y0010593D01*
X0008150Y0010364D01*
X0008326Y0010139D01*
X0008508Y0009919D01*
X0008694Y0009703D01*
X0008886Y0009492D01*
X0009083Y0009285D01*
X0009285Y0009083D01*
X0009492Y0008886D01*
X0009703Y0008694D01*
X0009919Y0008508D01*
X0010139Y0008326D01*
X0010364Y0008150D01*
X0010593Y0007980D01*
X0010826Y0007815D01*
X0011062Y0007655D01*
X0011303Y0007502D01*
X0011547Y0007354D01*
X0011795Y0007213D01*
X0012046Y0007077D01*
X0012300Y0006947D01*
X0012558Y0006824D01*
X0012818Y0006707D01*
X0013081Y0006596D01*
X0013347Y0006492D01*
X0013615Y0006394D01*
X0013885Y0006302D01*
X0014158Y0006217D01*
X0014432Y0006139D01*
X0014708Y0006067D01*
X0014986Y0006002D01*
X0015266Y0005944D01*
X0015547Y0005893D01*
X0015828Y0005848D01*
X0016111Y0005810D01*
X0016395Y0005779D01*
X0016679Y0005755D01*
X0016964Y0005738D01*
X0017250Y0005727D01*
X0017535Y0005724D01*
X0013992Y0076591D02*
X0013994Y0076703D01*
X0014000Y0076814D01*
X0014010Y0076926D01*
X0014024Y0077037D01*
X0014041Y0077147D01*
X0014063Y0077257D01*
X0014089Y0077366D01*
X0014118Y0077474D01*
X0014151Y0077580D01*
X0014188Y0077686D01*
X0014229Y0077790D01*
X0014274Y0077893D01*
X0014322Y0077994D01*
X0014373Y0078093D01*
X0014428Y0078190D01*
X0014487Y0078285D01*
X0014548Y0078379D01*
X0014613Y0078470D01*
X0014682Y0078558D01*
X0014753Y0078644D01*
X0014827Y0078728D01*
X0014905Y0078808D01*
X0014985Y0078886D01*
X0015068Y0078962D01*
X0015153Y0079034D01*
X0015241Y0079103D01*
X0015331Y0079169D01*
X0015424Y0079231D01*
X0015519Y0079291D01*
X0015616Y0079347D01*
X0015714Y0079399D01*
X0015815Y0079448D01*
X0015917Y0079493D01*
X0016021Y0079535D01*
X0016126Y0079573D01*
X0016233Y0079607D01*
X0016340Y0079637D01*
X0016449Y0079664D01*
X0016558Y0079686D01*
X0016669Y0079705D01*
X0016779Y0079720D01*
X0016891Y0079731D01*
X0017002Y0079738D01*
X0017114Y0079741D01*
X0017226Y0079740D01*
X0017338Y0079735D01*
X0017449Y0079726D01*
X0017560Y0079713D01*
X0017671Y0079696D01*
X0017781Y0079676D01*
X0017890Y0079651D01*
X0017998Y0079623D01*
X0018105Y0079590D01*
X0018211Y0079554D01*
X0018315Y0079514D01*
X0018418Y0079471D01*
X0018520Y0079424D01*
X0018619Y0079373D01*
X0018717Y0079319D01*
X0018813Y0079261D01*
X0018907Y0079200D01*
X0018998Y0079136D01*
X0019087Y0079069D01*
X0019174Y0078998D01*
X0019258Y0078924D01*
X0019340Y0078848D01*
X0019418Y0078768D01*
X0019494Y0078686D01*
X0019567Y0078601D01*
X0019637Y0078514D01*
X0019703Y0078424D01*
X0019767Y0078332D01*
X0019827Y0078238D01*
X0019884Y0078142D01*
X0019937Y0078043D01*
X0019987Y0077943D01*
X0020033Y0077842D01*
X0020076Y0077738D01*
X0020115Y0077633D01*
X0020150Y0077527D01*
X0020181Y0077420D01*
X0020209Y0077311D01*
X0020232Y0077202D01*
X0020252Y0077092D01*
X0020268Y0076981D01*
X0020280Y0076870D01*
X0020288Y0076759D01*
X0020292Y0076647D01*
X0020292Y0076535D01*
X0020288Y0076423D01*
X0020280Y0076312D01*
X0020268Y0076201D01*
X0020252Y0076090D01*
X0020232Y0075980D01*
X0020209Y0075871D01*
X0020181Y0075762D01*
X0020150Y0075655D01*
X0020115Y0075549D01*
X0020076Y0075444D01*
X0020033Y0075340D01*
X0019987Y0075239D01*
X0019937Y0075139D01*
X0019884Y0075040D01*
X0019827Y0074944D01*
X0019767Y0074850D01*
X0019703Y0074758D01*
X0019637Y0074668D01*
X0019567Y0074581D01*
X0019494Y0074496D01*
X0019418Y0074414D01*
X0019340Y0074334D01*
X0019258Y0074258D01*
X0019174Y0074184D01*
X0019087Y0074113D01*
X0018998Y0074046D01*
X0018907Y0073982D01*
X0018813Y0073921D01*
X0018717Y0073863D01*
X0018619Y0073809D01*
X0018520Y0073758D01*
X0018418Y0073711D01*
X0018315Y0073668D01*
X0018211Y0073628D01*
X0018105Y0073592D01*
X0017998Y0073559D01*
X0017890Y0073531D01*
X0017781Y0073506D01*
X0017671Y0073486D01*
X0017560Y0073469D01*
X0017449Y0073456D01*
X0017338Y0073447D01*
X0017226Y0073442D01*
X0017114Y0073441D01*
X0017002Y0073444D01*
X0016891Y0073451D01*
X0016779Y0073462D01*
X0016669Y0073477D01*
X0016558Y0073496D01*
X0016449Y0073518D01*
X0016340Y0073545D01*
X0016233Y0073575D01*
X0016126Y0073609D01*
X0016021Y0073647D01*
X0015917Y0073689D01*
X0015815Y0073734D01*
X0015714Y0073783D01*
X0015616Y0073835D01*
X0015519Y0073891D01*
X0015424Y0073951D01*
X0015331Y0074013D01*
X0015241Y0074079D01*
X0015153Y0074148D01*
X0015068Y0074220D01*
X0014985Y0074296D01*
X0014905Y0074374D01*
X0014827Y0074454D01*
X0014753Y0074538D01*
X0014682Y0074624D01*
X0014613Y0074712D01*
X0014548Y0074803D01*
X0014487Y0074897D01*
X0014428Y0074992D01*
X0014373Y0075089D01*
X0014322Y0075188D01*
X0014274Y0075289D01*
X0014229Y0075392D01*
X0014188Y0075496D01*
X0014151Y0075602D01*
X0014118Y0075708D01*
X0014089Y0075816D01*
X0014063Y0075925D01*
X0014041Y0076035D01*
X0014024Y0076145D01*
X0014010Y0076256D01*
X0014000Y0076368D01*
X0013994Y0076479D01*
X0013992Y0076591D01*
X0005724Y0190764D02*
X0005727Y0191049D01*
X0005738Y0191335D01*
X0005755Y0191620D01*
X0005779Y0191904D01*
X0005810Y0192188D01*
X0005848Y0192471D01*
X0005893Y0192752D01*
X0005944Y0193033D01*
X0006002Y0193313D01*
X0006067Y0193591D01*
X0006139Y0193867D01*
X0006217Y0194141D01*
X0006302Y0194414D01*
X0006394Y0194684D01*
X0006492Y0194952D01*
X0006596Y0195218D01*
X0006707Y0195481D01*
X0006824Y0195741D01*
X0006947Y0195999D01*
X0007077Y0196253D01*
X0007213Y0196504D01*
X0007354Y0196752D01*
X0007502Y0196996D01*
X0007655Y0197237D01*
X0007815Y0197473D01*
X0007980Y0197706D01*
X0008150Y0197935D01*
X0008326Y0198160D01*
X0008508Y0198380D01*
X0008694Y0198596D01*
X0008886Y0198807D01*
X0009083Y0199014D01*
X0009285Y0199216D01*
X0009492Y0199413D01*
X0009703Y0199605D01*
X0009919Y0199791D01*
X0010139Y0199973D01*
X0010364Y0200149D01*
X0010593Y0200319D01*
X0010826Y0200484D01*
X0011062Y0200644D01*
X0011303Y0200797D01*
X0011547Y0200945D01*
X0011795Y0201086D01*
X0012046Y0201222D01*
X0012300Y0201352D01*
X0012558Y0201475D01*
X0012818Y0201592D01*
X0013081Y0201703D01*
X0013347Y0201807D01*
X0013615Y0201905D01*
X0013885Y0201997D01*
X0014158Y0202082D01*
X0014432Y0202160D01*
X0014708Y0202232D01*
X0014986Y0202297D01*
X0015266Y0202355D01*
X0015547Y0202406D01*
X0015828Y0202451D01*
X0016111Y0202489D01*
X0016395Y0202520D01*
X0016679Y0202544D01*
X0016964Y0202561D01*
X0017250Y0202572D01*
X0017535Y0202575D01*
X0180133Y0076591D02*
X0180135Y0076703D01*
X0180141Y0076814D01*
X0180151Y0076926D01*
X0180165Y0077037D01*
X0180182Y0077147D01*
X0180204Y0077257D01*
X0180230Y0077366D01*
X0180259Y0077474D01*
X0180292Y0077580D01*
X0180329Y0077686D01*
X0180370Y0077790D01*
X0180415Y0077893D01*
X0180463Y0077994D01*
X0180514Y0078093D01*
X0180569Y0078190D01*
X0180628Y0078285D01*
X0180689Y0078379D01*
X0180754Y0078470D01*
X0180823Y0078558D01*
X0180894Y0078644D01*
X0180968Y0078728D01*
X0181046Y0078808D01*
X0181126Y0078886D01*
X0181209Y0078962D01*
X0181294Y0079034D01*
X0181382Y0079103D01*
X0181472Y0079169D01*
X0181565Y0079231D01*
X0181660Y0079291D01*
X0181757Y0079347D01*
X0181855Y0079399D01*
X0181956Y0079448D01*
X0182058Y0079493D01*
X0182162Y0079535D01*
X0182267Y0079573D01*
X0182374Y0079607D01*
X0182481Y0079637D01*
X0182590Y0079664D01*
X0182699Y0079686D01*
X0182810Y0079705D01*
X0182920Y0079720D01*
X0183032Y0079731D01*
X0183143Y0079738D01*
X0183255Y0079741D01*
X0183367Y0079740D01*
X0183479Y0079735D01*
X0183590Y0079726D01*
X0183701Y0079713D01*
X0183812Y0079696D01*
X0183922Y0079676D01*
X0184031Y0079651D01*
X0184139Y0079623D01*
X0184246Y0079590D01*
X0184352Y0079554D01*
X0184456Y0079514D01*
X0184559Y0079471D01*
X0184661Y0079424D01*
X0184760Y0079373D01*
X0184858Y0079319D01*
X0184954Y0079261D01*
X0185048Y0079200D01*
X0185139Y0079136D01*
X0185228Y0079069D01*
X0185315Y0078998D01*
X0185399Y0078924D01*
X0185481Y0078848D01*
X0185559Y0078768D01*
X0185635Y0078686D01*
X0185708Y0078601D01*
X0185778Y0078514D01*
X0185844Y0078424D01*
X0185908Y0078332D01*
X0185968Y0078238D01*
X0186025Y0078142D01*
X0186078Y0078043D01*
X0186128Y0077943D01*
X0186174Y0077842D01*
X0186217Y0077738D01*
X0186256Y0077633D01*
X0186291Y0077527D01*
X0186322Y0077420D01*
X0186350Y0077311D01*
X0186373Y0077202D01*
X0186393Y0077092D01*
X0186409Y0076981D01*
X0186421Y0076870D01*
X0186429Y0076759D01*
X0186433Y0076647D01*
X0186433Y0076535D01*
X0186429Y0076423D01*
X0186421Y0076312D01*
X0186409Y0076201D01*
X0186393Y0076090D01*
X0186373Y0075980D01*
X0186350Y0075871D01*
X0186322Y0075762D01*
X0186291Y0075655D01*
X0186256Y0075549D01*
X0186217Y0075444D01*
X0186174Y0075340D01*
X0186128Y0075239D01*
X0186078Y0075139D01*
X0186025Y0075040D01*
X0185968Y0074944D01*
X0185908Y0074850D01*
X0185844Y0074758D01*
X0185778Y0074668D01*
X0185708Y0074581D01*
X0185635Y0074496D01*
X0185559Y0074414D01*
X0185481Y0074334D01*
X0185399Y0074258D01*
X0185315Y0074184D01*
X0185228Y0074113D01*
X0185139Y0074046D01*
X0185048Y0073982D01*
X0184954Y0073921D01*
X0184858Y0073863D01*
X0184760Y0073809D01*
X0184661Y0073758D01*
X0184559Y0073711D01*
X0184456Y0073668D01*
X0184352Y0073628D01*
X0184246Y0073592D01*
X0184139Y0073559D01*
X0184031Y0073531D01*
X0183922Y0073506D01*
X0183812Y0073486D01*
X0183701Y0073469D01*
X0183590Y0073456D01*
X0183479Y0073447D01*
X0183367Y0073442D01*
X0183255Y0073441D01*
X0183143Y0073444D01*
X0183032Y0073451D01*
X0182920Y0073462D01*
X0182810Y0073477D01*
X0182699Y0073496D01*
X0182590Y0073518D01*
X0182481Y0073545D01*
X0182374Y0073575D01*
X0182267Y0073609D01*
X0182162Y0073647D01*
X0182058Y0073689D01*
X0181956Y0073734D01*
X0181855Y0073783D01*
X0181757Y0073835D01*
X0181660Y0073891D01*
X0181565Y0073951D01*
X0181472Y0074013D01*
X0181382Y0074079D01*
X0181294Y0074148D01*
X0181209Y0074220D01*
X0181126Y0074296D01*
X0181046Y0074374D01*
X0180968Y0074454D01*
X0180894Y0074538D01*
X0180823Y0074624D01*
X0180754Y0074712D01*
X0180689Y0074803D01*
X0180628Y0074897D01*
X0180569Y0074992D01*
X0180514Y0075089D01*
X0180463Y0075188D01*
X0180415Y0075289D01*
X0180370Y0075392D01*
X0180329Y0075496D01*
X0180292Y0075602D01*
X0180259Y0075708D01*
X0180230Y0075816D01*
X0180204Y0075925D01*
X0180182Y0076035D01*
X0180165Y0076145D01*
X0180151Y0076256D01*
X0180141Y0076368D01*
X0180135Y0076479D01*
X0180133Y0076591D01*
D11*
X0212139Y0072226D02*
X0212139Y0068399D01*
X0212139Y0069675D02*
X0214053Y0069675D01*
X0214691Y0070313D01*
X0214691Y0071589D01*
X0214053Y0072226D01*
X0212139Y0072226D01*
X0213415Y0069675D02*
X0214691Y0068399D01*
X0216490Y0068399D02*
X0219041Y0068399D01*
X0217765Y0068399D02*
X0217765Y0072226D01*
X0216490Y0070951D01*
X0217700Y0077525D02*
X0217700Y0078801D01*
X0217700Y0078163D02*
X0213872Y0078163D01*
X0213872Y0077525D02*
X0213872Y0078801D01*
X0214510Y0080425D02*
X0217062Y0080425D01*
X0217700Y0081063D01*
X0217700Y0082339D01*
X0217062Y0082977D01*
X0217700Y0084775D02*
X0217700Y0087327D01*
X0217700Y0086051D02*
X0213872Y0086051D01*
X0215148Y0084775D01*
X0214510Y0082977D02*
X0213872Y0082339D01*
X0213872Y0081063D01*
X0214510Y0080425D01*
X0232790Y0089639D02*
X0232790Y0093467D01*
X0234066Y0092191D01*
X0235342Y0093467D01*
X0235342Y0089639D01*
X0237141Y0090277D02*
X0237778Y0089639D01*
X0239054Y0089639D01*
X0239692Y0090277D01*
X0241491Y0090915D02*
X0243405Y0090915D01*
X0244042Y0091553D01*
X0244042Y0092829D01*
X0243405Y0093467D01*
X0241491Y0093467D01*
X0241491Y0089639D01*
X0245841Y0089639D02*
X0248393Y0092191D01*
X0248393Y0092829D01*
X0247755Y0093467D01*
X0246479Y0093467D01*
X0245841Y0092829D01*
X0245841Y0089639D02*
X0248393Y0089639D01*
X0250191Y0089639D02*
X0252743Y0092191D01*
X0252743Y0092829D01*
X0252105Y0093467D01*
X0250829Y0093467D01*
X0250191Y0092829D01*
X0254541Y0092829D02*
X0255179Y0093467D01*
X0256455Y0093467D01*
X0257093Y0092829D01*
X0257093Y0092191D01*
X0254541Y0089639D01*
X0257093Y0089639D01*
X0258891Y0089639D02*
X0261443Y0089639D01*
X0260167Y0089639D02*
X0260167Y0093467D01*
X0258891Y0092191D01*
X0263242Y0092191D02*
X0263242Y0089639D01*
X0263242Y0091553D02*
X0265793Y0091553D01*
X0265793Y0092191D02*
X0264517Y0093467D01*
X0263242Y0092191D01*
X0265793Y0092191D02*
X0265793Y0089639D01*
X0252743Y0089639D02*
X0250191Y0089639D01*
X0239692Y0092829D02*
X0239054Y0093467D01*
X0237778Y0093467D01*
X0237141Y0092829D01*
X0237141Y0090277D01*
X0213148Y0109147D02*
X0209321Y0109147D01*
X0209321Y0111061D01*
X0209959Y0111699D01*
X0211235Y0111699D01*
X0211873Y0111061D01*
X0211873Y0109147D01*
X0211873Y0110423D02*
X0213148Y0111699D01*
X0213148Y0113497D02*
X0212510Y0113497D01*
X0209959Y0116049D01*
X0209321Y0116049D01*
X0209321Y0113497D01*
X0203936Y0112486D02*
X0202660Y0111210D01*
X0202660Y0111848D02*
X0202660Y0109934D01*
X0203936Y0109934D02*
X0200108Y0109934D01*
X0200108Y0111848D01*
X0200746Y0112486D01*
X0202022Y0112486D01*
X0202660Y0111848D01*
X0203298Y0114284D02*
X0203936Y0114922D01*
X0203936Y0116198D01*
X0203298Y0116836D01*
X0202660Y0116836D01*
X0202022Y0116198D01*
X0202022Y0114284D01*
X0203298Y0114284D01*
X0202022Y0114284D02*
X0200746Y0115560D01*
X0200108Y0116836D01*
X0212734Y0128824D02*
X0215286Y0128824D01*
X0215924Y0129462D01*
X0215924Y0130738D01*
X0215286Y0131376D01*
X0215924Y0133175D02*
X0213372Y0135726D01*
X0212734Y0135726D01*
X0212096Y0135088D01*
X0212096Y0133813D01*
X0212734Y0133175D01*
X0212734Y0131376D02*
X0212096Y0130738D01*
X0212096Y0129462D01*
X0212734Y0128824D01*
X0215924Y0133175D02*
X0215924Y0135726D01*
X0247612Y0142438D02*
X0247612Y0146266D01*
X0250164Y0146266D01*
X0251962Y0144990D02*
X0253238Y0146266D01*
X0253238Y0142438D01*
X0251962Y0142438D02*
X0254514Y0142438D01*
X0248888Y0144352D02*
X0247612Y0144352D01*
X0272336Y0147852D02*
X0274888Y0147852D01*
X0276687Y0147852D02*
X0277963Y0148490D01*
X0278600Y0148490D01*
X0279238Y0147852D01*
X0279238Y0146576D01*
X0278600Y0145938D01*
X0277325Y0145938D01*
X0276687Y0146576D01*
X0276687Y0147852D02*
X0276687Y0149766D01*
X0279238Y0149766D01*
X0281037Y0149766D02*
X0281037Y0147214D01*
X0282313Y0145938D01*
X0283589Y0147214D01*
X0283589Y0149766D01*
X0282163Y0155938D02*
X0280249Y0155938D01*
X0280249Y0159766D01*
X0282163Y0159766D01*
X0282801Y0159128D01*
X0282801Y0156576D01*
X0282163Y0155938D01*
X0278451Y0155938D02*
X0278451Y0159766D01*
X0275899Y0159766D02*
X0278451Y0155938D01*
X0275899Y0155938D02*
X0275899Y0159766D01*
X0274101Y0159128D02*
X0273463Y0159766D01*
X0272187Y0159766D01*
X0271549Y0159128D01*
X0271549Y0156576D01*
X0272187Y0155938D01*
X0273463Y0155938D01*
X0274101Y0156576D01*
X0274101Y0157852D01*
X0272825Y0157852D01*
X0273612Y0149128D02*
X0273612Y0146576D01*
X0272974Y0139766D02*
X0272336Y0139128D01*
X0272336Y0138490D01*
X0272974Y0137852D01*
X0274250Y0137852D01*
X0274888Y0137214D01*
X0274888Y0136576D01*
X0274250Y0135938D01*
X0272974Y0135938D01*
X0272336Y0136576D01*
X0276687Y0136576D02*
X0277325Y0135938D01*
X0278600Y0135938D01*
X0279238Y0136576D01*
X0281037Y0135938D02*
X0283589Y0135938D01*
X0281037Y0135938D02*
X0281037Y0139766D01*
X0279238Y0139128D02*
X0278600Y0139766D01*
X0277325Y0139766D01*
X0276687Y0139128D01*
X0276687Y0136576D01*
X0274888Y0139128D02*
X0274250Y0139766D01*
X0272974Y0139766D01*
X0272974Y0129766D02*
X0272336Y0129128D01*
X0272336Y0128490D01*
X0272974Y0127852D01*
X0274250Y0127852D01*
X0274888Y0127214D01*
X0274888Y0126576D01*
X0274250Y0125938D01*
X0272974Y0125938D01*
X0272336Y0126576D01*
X0272974Y0129766D02*
X0274250Y0129766D01*
X0274888Y0129128D01*
X0276687Y0129766D02*
X0278600Y0129766D01*
X0279238Y0129128D01*
X0279238Y0126576D01*
X0278600Y0125938D01*
X0276687Y0125938D01*
X0276687Y0129766D01*
X0281037Y0128490D02*
X0281037Y0125938D01*
X0281037Y0127852D02*
X0283589Y0127852D01*
X0283589Y0128490D02*
X0283589Y0125938D01*
X0283589Y0128490D02*
X0282313Y0129766D01*
X0281037Y0128490D01*
X0291624Y0113789D02*
X0295452Y0113789D01*
X0295452Y0112513D02*
X0295452Y0115065D01*
X0292900Y0112513D02*
X0291624Y0113789D01*
X0292262Y0110714D02*
X0291624Y0110076D01*
X0291624Y0108801D01*
X0292262Y0108163D01*
X0294814Y0108163D01*
X0295452Y0108801D01*
X0295452Y0110076D01*
X0294814Y0110714D01*
X0271061Y0056148D02*
X0271061Y0053596D01*
X0269148Y0055510D01*
X0272975Y0055510D01*
X0272337Y0051798D02*
X0269785Y0051798D01*
X0269148Y0051160D01*
X0269148Y0049246D01*
X0272975Y0049246D01*
X0272975Y0051160D01*
X0272337Y0051798D01*
X0272975Y0047447D02*
X0272975Y0044896D01*
X0269148Y0044896D01*
X0269148Y0047447D01*
X0271061Y0046171D02*
X0271061Y0044896D01*
X0272975Y0043097D02*
X0272975Y0040545D01*
X0269148Y0040545D01*
X0253188Y0040333D02*
X0253188Y0042885D01*
X0253188Y0044683D02*
X0253188Y0047235D01*
X0253188Y0049033D02*
X0253188Y0050947D01*
X0252550Y0051585D01*
X0249998Y0051585D01*
X0249360Y0050947D01*
X0249360Y0049033D01*
X0253188Y0049033D01*
X0251274Y0045959D02*
X0251274Y0044683D01*
X0249360Y0044683D02*
X0253188Y0044683D01*
X0249360Y0044683D02*
X0249360Y0047235D01*
X0249998Y0053383D02*
X0249360Y0054021D01*
X0249360Y0055297D01*
X0249998Y0055935D01*
X0250636Y0055935D01*
X0251274Y0055297D01*
X0251912Y0055935D01*
X0252550Y0055935D01*
X0253188Y0055297D01*
X0253188Y0054021D01*
X0252550Y0053383D01*
X0251274Y0054659D02*
X0251274Y0055297D01*
X0233188Y0055935D02*
X0233188Y0053383D01*
X0230636Y0055935D01*
X0229998Y0055935D01*
X0229360Y0055297D01*
X0229360Y0054021D01*
X0229998Y0053383D01*
X0229998Y0051585D02*
X0229360Y0050947D01*
X0229360Y0049033D01*
X0233188Y0049033D01*
X0233188Y0050947D01*
X0232550Y0051585D01*
X0229998Y0051585D01*
X0229360Y0047235D02*
X0229360Y0044683D01*
X0233188Y0044683D01*
X0233188Y0047235D01*
X0231274Y0045959D02*
X0231274Y0044683D01*
X0233188Y0042885D02*
X0233188Y0040333D01*
X0229360Y0040333D01*
X0213188Y0040545D02*
X0213188Y0043097D01*
X0213188Y0044896D02*
X0213188Y0047447D01*
X0213188Y0049246D02*
X0213188Y0051160D01*
X0212550Y0051798D01*
X0209998Y0051798D01*
X0209360Y0051160D01*
X0209360Y0049246D01*
X0213188Y0049246D01*
X0211274Y0046171D02*
X0211274Y0044896D01*
X0209360Y0044896D02*
X0213188Y0044896D01*
X0209360Y0044896D02*
X0209360Y0047447D01*
X0210636Y0053596D02*
X0209360Y0054872D01*
X0213188Y0054872D01*
X0213188Y0053596D02*
X0213188Y0056148D01*
X0213188Y0040545D02*
X0209360Y0040545D01*
X0216981Y0012912D02*
X0218895Y0012912D01*
X0219533Y0012274D01*
X0219533Y0010998D01*
X0218895Y0010360D01*
X0216981Y0010360D01*
X0216981Y0009084D02*
X0216981Y0012912D01*
X0221332Y0012274D02*
X0221332Y0011636D01*
X0221970Y0010998D01*
X0223883Y0010998D01*
X0223883Y0012274D02*
X0223245Y0012912D01*
X0221970Y0012912D01*
X0221332Y0012274D01*
X0223883Y0012274D02*
X0223883Y0009722D01*
X0223245Y0009084D01*
X0221970Y0009084D01*
X0221332Y0009722D01*
X0219533Y0009084D02*
X0218257Y0010360D01*
X0203411Y0010045D02*
X0203411Y0009407D01*
X0202773Y0008769D01*
X0201497Y0008769D01*
X0200859Y0009407D01*
X0200859Y0010045D01*
X0201497Y0010683D01*
X0202773Y0010683D01*
X0203411Y0010045D01*
X0202773Y0010683D02*
X0203411Y0011321D01*
X0203411Y0011959D01*
X0202773Y0012597D01*
X0201497Y0012597D01*
X0200859Y0011959D01*
X0200859Y0011321D01*
X0201497Y0010683D01*
X0199061Y0010683D02*
X0199061Y0011959D01*
X0198423Y0012597D01*
X0196509Y0012597D01*
X0196509Y0008769D01*
X0196509Y0010045D02*
X0198423Y0010045D01*
X0199061Y0010683D01*
X0197785Y0010045D02*
X0199061Y0008769D01*
X0235092Y0008611D02*
X0235092Y0012439D01*
X0237006Y0012439D01*
X0237644Y0011801D01*
X0237644Y0010525D01*
X0237006Y0009887D01*
X0235092Y0009887D01*
X0236368Y0009887D02*
X0237644Y0008611D01*
X0239442Y0008611D02*
X0241994Y0008611D01*
X0240718Y0008611D02*
X0240718Y0012439D01*
X0239442Y0011163D01*
X0243792Y0011801D02*
X0243792Y0009249D01*
X0246344Y0011801D01*
X0246344Y0009249D01*
X0245706Y0008611D01*
X0244430Y0008611D01*
X0243792Y0009249D01*
X0243792Y0011801D02*
X0244430Y0012439D01*
X0245706Y0012439D01*
X0246344Y0011801D01*
X0255777Y0011967D02*
X0255777Y0008139D01*
X0255777Y0009415D02*
X0257691Y0009415D01*
X0258329Y0010053D01*
X0258329Y0011329D01*
X0257691Y0011967D01*
X0255777Y0011967D01*
X0257053Y0009415D02*
X0258329Y0008139D01*
X0260127Y0008139D02*
X0262679Y0008139D01*
X0261403Y0008139D02*
X0261403Y0011967D01*
X0260127Y0010691D01*
X0264477Y0010691D02*
X0265753Y0011967D01*
X0265753Y0008139D01*
X0264477Y0008139D02*
X0267029Y0008139D01*
X0253188Y0040333D02*
X0249360Y0040333D01*
X0109238Y0052045D02*
X0106686Y0052045D01*
X0108600Y0053959D01*
X0108600Y0050131D01*
X0104888Y0050769D02*
X0104250Y0050131D01*
X0102974Y0050131D01*
X0102336Y0050769D01*
X0102336Y0053321D01*
X0102974Y0053959D01*
X0104250Y0053959D01*
X0104888Y0053321D01*
X0077742Y0053321D02*
X0077742Y0052683D01*
X0077104Y0052045D01*
X0077742Y0051407D01*
X0077742Y0050769D01*
X0077104Y0050131D01*
X0075828Y0050131D01*
X0075190Y0050769D01*
X0073392Y0050769D02*
X0072754Y0050131D01*
X0071478Y0050131D01*
X0070840Y0050769D01*
X0070840Y0053321D01*
X0071478Y0053959D01*
X0072754Y0053959D01*
X0073392Y0053321D01*
X0075190Y0053321D02*
X0075828Y0053959D01*
X0077104Y0053959D01*
X0077742Y0053321D01*
X0077104Y0052045D02*
X0076466Y0052045D01*
X0038372Y0052683D02*
X0038372Y0053321D01*
X0037734Y0053959D01*
X0036458Y0053959D01*
X0035820Y0053321D01*
X0034022Y0053321D02*
X0034022Y0052045D01*
X0033384Y0051407D01*
X0031470Y0051407D01*
X0031470Y0050131D02*
X0031470Y0053959D01*
X0033384Y0053959D01*
X0034022Y0053321D01*
X0032746Y0051407D02*
X0034022Y0050131D01*
X0035820Y0050131D02*
X0038372Y0052683D01*
X0038372Y0050131D02*
X0035820Y0050131D01*
X0031265Y0160230D02*
X0028713Y0160230D01*
X0029989Y0160230D02*
X0029989Y0164057D01*
X0028713Y0162781D01*
X0026915Y0163419D02*
X0026915Y0160867D01*
X0026277Y0160230D01*
X0024363Y0160230D01*
X0024363Y0164057D01*
X0026277Y0164057D01*
X0026915Y0163419D01*
X0022565Y0163419D02*
X0021927Y0164057D01*
X0020651Y0164057D01*
X0020013Y0163419D01*
X0020013Y0160867D01*
X0020651Y0160230D01*
X0021927Y0160230D01*
X0022565Y0160867D01*
X0018214Y0160230D02*
X0015663Y0160230D01*
X0015663Y0164057D01*
D12*
X0057624Y0186088D02*
X0057624Y0189228D01*
X0059193Y0190798D01*
X0060763Y0189228D01*
X0060763Y0186088D01*
X0063061Y0186088D02*
X0063061Y0190798D01*
X0066201Y0186088D01*
X0066201Y0190798D01*
X0068499Y0188443D02*
X0071639Y0188443D01*
X0073937Y0186873D02*
X0074722Y0186088D01*
X0076292Y0186088D01*
X0077076Y0186873D01*
X0077076Y0190798D01*
X0079374Y0190013D02*
X0079374Y0189228D01*
X0080159Y0188443D01*
X0081729Y0188443D01*
X0082514Y0187658D01*
X0082514Y0186873D01*
X0081729Y0186088D01*
X0080159Y0186088D01*
X0079374Y0186873D01*
X0079374Y0190013D02*
X0080159Y0190798D01*
X0081729Y0190798D01*
X0082514Y0190013D01*
X0084812Y0190798D02*
X0087167Y0190798D01*
X0087952Y0190013D01*
X0087952Y0189228D01*
X0087167Y0188443D01*
X0084812Y0188443D01*
X0084812Y0186088D02*
X0084812Y0190798D01*
X0087167Y0188443D02*
X0087952Y0187658D01*
X0087952Y0186873D01*
X0087167Y0186088D01*
X0084812Y0186088D01*
X0090250Y0188443D02*
X0093390Y0188443D01*
X0095688Y0190798D02*
X0095688Y0186088D01*
X0098827Y0186088D01*
X0101125Y0186873D02*
X0101910Y0186088D01*
X0103480Y0186088D01*
X0104265Y0186873D01*
X0106563Y0186088D02*
X0108918Y0186088D01*
X0109703Y0186873D01*
X0109703Y0190013D01*
X0108918Y0190798D01*
X0106563Y0190798D01*
X0106563Y0186088D01*
X0104265Y0190013D02*
X0103480Y0190798D01*
X0101910Y0190798D01*
X0101125Y0190013D01*
X0101125Y0186873D01*
X0112001Y0186088D02*
X0115140Y0186088D01*
X0113571Y0186088D02*
X0113571Y0190798D01*
X0112001Y0189228D01*
X0117438Y0188443D02*
X0117438Y0186873D01*
X0118223Y0186088D01*
X0119793Y0186088D01*
X0120578Y0186873D01*
X0120578Y0187658D01*
X0119793Y0188443D01*
X0117438Y0188443D01*
X0119008Y0190013D01*
X0120578Y0190798D01*
X0122876Y0189228D02*
X0126016Y0186088D01*
X0128314Y0186088D02*
X0131454Y0189228D01*
X0131454Y0190013D01*
X0130669Y0190798D01*
X0129099Y0190798D01*
X0128314Y0190013D01*
X0126016Y0189228D02*
X0122876Y0186088D01*
X0128314Y0186088D02*
X0131454Y0186088D01*
X0073937Y0186873D02*
X0073937Y0190798D01*
X0060763Y0188443D02*
X0057624Y0188443D01*
D13*
X0080140Y0181446D02*
X0081187Y0179353D01*
X0082233Y0181446D01*
X0083765Y0181446D02*
X0084812Y0182492D01*
X0084812Y0179353D01*
X0085858Y0179353D02*
X0083765Y0179353D01*
X0087390Y0179353D02*
X0087390Y0179876D01*
X0087914Y0179876D01*
X0087914Y0179353D01*
X0087390Y0179353D01*
X0089203Y0179876D02*
X0091296Y0181969D01*
X0091296Y0179876D01*
X0090773Y0179353D01*
X0089726Y0179353D01*
X0089203Y0179876D01*
X0089203Y0181969D01*
X0089726Y0182492D01*
X0090773Y0182492D01*
X0091296Y0181969D01*
X0096453Y0181969D02*
X0096977Y0182492D01*
X0098023Y0182492D01*
X0098546Y0181969D01*
X0098546Y0181446D01*
X0096453Y0179353D01*
X0098546Y0179353D01*
X0100078Y0179876D02*
X0102172Y0181969D01*
X0102172Y0179876D01*
X0101648Y0179353D01*
X0100602Y0179353D01*
X0100078Y0179876D01*
X0100078Y0181969D01*
X0100602Y0182492D01*
X0101648Y0182492D01*
X0102172Y0181969D01*
X0103704Y0181446D02*
X0104750Y0182492D01*
X0104750Y0179353D01*
X0103704Y0179353D02*
X0105797Y0179353D01*
X0107329Y0179876D02*
X0107852Y0179353D01*
X0108899Y0179353D01*
X0109422Y0179876D01*
X0109422Y0180399D01*
X0108899Y0180923D01*
X0107852Y0180923D01*
X0107329Y0181446D01*
X0107329Y0181969D01*
X0107852Y0182492D01*
X0108899Y0182492D01*
X0109422Y0181969D01*
X0109422Y0181446D01*
X0108899Y0180923D01*
X0107852Y0180923D02*
X0107329Y0180399D01*
X0107329Y0179876D01*
X0110954Y0179353D02*
X0113047Y0182492D01*
X0114579Y0181969D02*
X0114579Y0179876D01*
X0116672Y0181969D01*
X0116672Y0179876D01*
X0116149Y0179353D01*
X0115102Y0179353D01*
X0114579Y0179876D01*
X0114579Y0181969D02*
X0115102Y0182492D01*
X0116149Y0182492D01*
X0116672Y0181969D01*
X0118204Y0180923D02*
X0120297Y0180923D01*
X0119774Y0182492D02*
X0118204Y0180923D01*
X0119774Y0182492D02*
X0119774Y0179353D01*
X0121829Y0179353D02*
X0123922Y0182492D01*
X0125454Y0181969D02*
X0125978Y0182492D01*
X0127024Y0182492D01*
X0127547Y0181969D01*
X0125454Y0179876D01*
X0125978Y0179353D01*
X0127024Y0179353D01*
X0127547Y0179876D01*
X0127547Y0181969D01*
X0129079Y0181446D02*
X0130126Y0182492D01*
X0130126Y0179353D01*
X0129079Y0179353D02*
X0131173Y0179353D01*
X0132705Y0179876D02*
X0133228Y0179353D01*
X0134274Y0179353D01*
X0134798Y0179876D01*
X0134798Y0180399D01*
X0134274Y0180923D01*
X0133751Y0180923D01*
X0134274Y0180923D02*
X0134798Y0181446D01*
X0134798Y0181969D01*
X0134274Y0182492D01*
X0133228Y0182492D01*
X0132705Y0181969D01*
X0125454Y0181969D02*
X0125454Y0179876D01*
D14*
X0219150Y0112575D02*
X0219150Y0102575D01*
X0219150Y0096575D01*
X0219276Y0096573D01*
X0219401Y0096567D01*
X0219526Y0096557D01*
X0219651Y0096543D01*
X0219776Y0096526D01*
X0219900Y0096504D01*
X0220023Y0096479D01*
X0220145Y0096449D01*
X0220266Y0096416D01*
X0220386Y0096379D01*
X0220505Y0096339D01*
X0220622Y0096294D01*
X0220739Y0096246D01*
X0220853Y0096194D01*
X0220966Y0096139D01*
X0221077Y0096080D01*
X0221186Y0096018D01*
X0221293Y0095952D01*
X0221398Y0095883D01*
X0221501Y0095811D01*
X0221602Y0095736D01*
X0221700Y0095657D01*
X0221795Y0095575D01*
X0221888Y0095491D01*
X0221978Y0095403D01*
X0222066Y0095313D01*
X0222150Y0095220D01*
X0222232Y0095125D01*
X0222311Y0095027D01*
X0222386Y0094926D01*
X0222458Y0094823D01*
X0222527Y0094718D01*
X0222593Y0094611D01*
X0222655Y0094502D01*
X0222714Y0094391D01*
X0222769Y0094278D01*
X0222821Y0094164D01*
X0222869Y0094047D01*
X0222914Y0093930D01*
X0222954Y0093811D01*
X0222991Y0093691D01*
X0223024Y0093570D01*
X0223054Y0093448D01*
X0223079Y0093325D01*
X0223101Y0093201D01*
X0223118Y0093076D01*
X0223132Y0092951D01*
X0223142Y0092826D01*
X0223148Y0092701D01*
X0223150Y0092575D01*
X0223148Y0092449D01*
X0223142Y0092324D01*
X0223132Y0092199D01*
X0223118Y0092074D01*
X0223101Y0091949D01*
X0223079Y0091825D01*
X0223054Y0091702D01*
X0223024Y0091580D01*
X0222991Y0091459D01*
X0222954Y0091339D01*
X0222914Y0091220D01*
X0222869Y0091103D01*
X0222821Y0090986D01*
X0222769Y0090872D01*
X0222714Y0090759D01*
X0222655Y0090648D01*
X0222593Y0090539D01*
X0222527Y0090432D01*
X0222458Y0090327D01*
X0222386Y0090224D01*
X0222311Y0090123D01*
X0222232Y0090025D01*
X0222150Y0089930D01*
X0222066Y0089837D01*
X0221978Y0089747D01*
X0221888Y0089659D01*
X0221795Y0089575D01*
X0221700Y0089493D01*
X0221602Y0089414D01*
X0221501Y0089339D01*
X0221398Y0089267D01*
X0221293Y0089198D01*
X0221186Y0089132D01*
X0221077Y0089070D01*
X0220966Y0089011D01*
X0220853Y0088956D01*
X0220739Y0088904D01*
X0220622Y0088856D01*
X0220505Y0088811D01*
X0220386Y0088771D01*
X0220266Y0088734D01*
X0220145Y0088701D01*
X0220023Y0088671D01*
X0219900Y0088646D01*
X0219776Y0088624D01*
X0219651Y0088607D01*
X0219526Y0088593D01*
X0219401Y0088583D01*
X0219276Y0088577D01*
X0219150Y0088575D01*
X0219150Y0082575D01*
X0289150Y0082575D01*
X0289150Y0072575D01*
X0219150Y0072575D01*
X0219150Y0082575D01*
X0219150Y0102575D02*
X0289150Y0102575D01*
X0289150Y0082575D01*
X0289150Y0102575D02*
X0289150Y0112575D01*
X0219150Y0112575D01*
D15*
X0217772Y0150528D02*
X0217772Y0165035D01*
X0217772Y0150528D02*
X0264228Y0150528D01*
X0264228Y0165035D01*
X0264228Y0180528D02*
X0264228Y0212535D01*
X0217772Y0212535D01*
X0217772Y0180528D01*
D16*
X0186039Y0155724D02*
X0014386Y0155724D01*
X0014386Y0055331D01*
X0186039Y0055331D01*
X0186039Y0155724D01*
X0209000Y0034575D02*
X0211000Y0032575D01*
X0213000Y0034575D01*
X0209000Y0034575D01*
X0209435Y0034140D02*
X0212565Y0034140D01*
X0212066Y0033641D02*
X0209934Y0033641D01*
X0210432Y0033143D02*
X0211568Y0033143D01*
X0211069Y0032644D02*
X0210931Y0032644D01*
X0229000Y0034575D02*
X0231000Y0032575D01*
X0233000Y0034575D01*
X0229000Y0034575D01*
X0229435Y0034140D02*
X0232565Y0034140D01*
X0232066Y0033641D02*
X0229934Y0033641D01*
X0230432Y0033143D02*
X0231568Y0033143D01*
X0231069Y0032644D02*
X0230931Y0032644D01*
X0249000Y0034575D02*
X0251000Y0032575D01*
X0253000Y0034575D01*
X0249000Y0034575D01*
X0249435Y0034140D02*
X0252565Y0034140D01*
X0252066Y0033641D02*
X0249934Y0033641D01*
X0250432Y0033143D02*
X0251568Y0033143D01*
X0251069Y0032644D02*
X0250931Y0032644D01*
X0269000Y0034575D02*
X0271000Y0032575D01*
X0273000Y0034575D01*
X0269000Y0034575D01*
X0269435Y0034140D02*
X0272565Y0034140D01*
X0272066Y0033641D02*
X0269934Y0033641D01*
X0270432Y0033143D02*
X0271568Y0033143D01*
X0271069Y0032644D02*
X0270931Y0032644D01*
D17*
X0286000Y0122575D02*
X0286000Y0167575D01*
X0296000Y0167575D01*
X0296000Y0122575D01*
X0286000Y0122575D01*
D18*
X0291000Y0165075D03*
M02*
