%
M48
M72
T01C0.01575
T02C0.03150
T03C0.03200
T04C0.03740
T05C0.03937
T06C0.06299
T07C0.08661
T08C0.09055
T09C0.12598
%
T01
X45094Y17535
X76591Y17535
X108087Y17535
X139583Y17535
X171079Y17535
X178953Y41157
X163205Y41157
X147457Y41157
X131709Y41157
X206512Y123835
X202575Y147457
X178953Y151394
X163205Y159268
X178953Y175016
X163205Y190764
X218323Y190764
X265567Y190764
X238008Y123835
X163205Y135646
X60843Y143520
X45094Y159268
X60843Y175016
X45094Y190764
X21472Y151394
X45094Y127772
X289189Y49031
T02
X261000Y47575
X241000Y47575
X221000Y47575
X201000Y47575
X223362Y64937
X207437Y74937
X196650Y74937
X196650Y104937
X207437Y104937
X221000Y122575
X236000Y137575
X221000Y142575
X266000Y137575
X294150Y102575
X294150Y82575
X253362Y64937
X251000Y27575
X251000Y17575
X241000Y17575
X231000Y17575
X221000Y17575
X211000Y17575
X201000Y17575
X211000Y27575
X231000Y27575
X261000Y17575
X271000Y17575
X271000Y27575
X140213Y64780
X130213Y64780
X120213Y64780
X110213Y64780
X100213Y64780
X90213Y64780
X80213Y64780
X70213Y64780
X60213Y64780
X66591Y45094
X52220Y45094
X22220Y45094
X86591Y45094
X98087Y45094
X118087Y45094
T03
X224150Y77575
X234150Y77575
X244150Y77575
X254150Y77575
X264150Y77575
X274150Y77575
X284150Y77575
X284150Y107575
X274150Y107575
X264150Y107575
X254150Y107575
X244150Y107575
X234150Y107575
X224150Y107575
T04
X236079Y154031
X245921Y154031
X245921Y161906
X236079Y161906
T05
X291000Y157575
X291000Y147575
X291000Y137575
X291000Y127575
T06
X183283Y76591
X17142Y76591
T07
X30134Y79740
X170291Y79740
T08
X217299Y172575
X264701Y172575
T09
X17535Y17535
X17535Y190764
X289189Y190764
X289189Y17535
M30
