%
M48
M72
T01C0.01575
T02C0.03150
T03C0.03740
T04C0.03937
T05C0.04331
T06C0.09055
T07C0.09843
T08C0.12598
%
T01
X77077Y11957
X87077Y11957
X97077Y11957
X107077Y11957
X117077Y11957
X127077Y11957
X137077Y11957
X144715Y17469
X132077Y21957
X117077Y21957
X102077Y21957
X92077Y26957
X82077Y31957
X134321Y63217
X140738Y68020
X132077Y71957
X177234Y66170
X198494Y66170
X209557Y71957
X224557Y71957
X234557Y81957
X234557Y92233
X219557Y92233
X209400Y81997
X184557Y76957
X189596Y99359
X189557Y111957
X179557Y111957
X169557Y111957
X127077Y111957
X117077Y111957
X107077Y111957
X97077Y111957
X87077Y111957
X77077Y111957
X107077Y101957
X97077Y91957
X87077Y91957
X77077Y96957
X214557Y111957
X224557Y111957
X234557Y111957
X244557Y111957
X254557Y111957
X264557Y111957
X274557Y111957
X274557Y101957
X264557Y91957
X274557Y86957
X259557Y81957
X229557Y46957
X229557Y36957
X239557Y36957
X254557Y36957
X264557Y36957
X274557Y26957
X274557Y11957
X264557Y11957
X254557Y11957
X244557Y11957
X234557Y11957
X224557Y11957
X214557Y11957
X204557Y11957
X194557Y11957
X184557Y11957
X179557Y16957
X229557Y26957
T02
X220581Y32351
X210108Y32351
X201132Y38139
X247707Y44635
X247707Y54635
X220581Y62351
X210108Y62351
X201132Y58139
X204006Y77587
X187707Y86800
X167707Y86800
X170935Y102587
X151644Y102587
X132352Y102587
X122707Y102587
X130344Y88099
X110344Y88099
X102156Y73611
X91683Y73611
X112707Y67587
X122707Y67587
X122707Y47587
X112707Y47587
X102156Y43611
X91683Y43611
X204006Y107587
X259360Y107627
X259360Y97627
X247707Y84635
X247707Y74635
T03
X280974Y75422
X280974Y65580
X280974Y57706
X280974Y47863
T04
X79596Y47863
X79596Y57706
X79596Y65580
X79596Y75422
T05
X71329Y70501
X71329Y52784
T06
X291644Y35776
X291644Y87509
T07
X71329Y84083
X71329Y39202
T08
X59518Y14398
X59518Y108887
X291801Y108887
X291801Y14398
M30
