G75*
%MOIN*%
%OFA0B0*%
%FSLAX25Y25*%
%IPPOS*%
%LPD*%
%AMOC8*
5,1,8,0,0,1.08239X$1,22.5*
%
%ADD10C,0.00000*%
%ADD11C,0.07087*%
%ADD12C,0.07874*%
%ADD13R,0.05150X0.05150*%
%ADD14C,0.05150*%
%ADD15C,0.05740*%
%ADD16C,0.13055*%
%ADD17OC8,0.13843*%
%ADD18C,0.06600*%
%ADD19C,0.03150*%
%ADD20C,0.03150*%
%ADD21C,0.02362*%
%ADD22C,0.01600*%
D10*
X0047707Y0015186D02*
X0047707Y0109674D01*
X0047720Y0109949D01*
X0047739Y0110225D01*
X0047765Y0110500D01*
X0047798Y0110774D01*
X0047837Y0111047D01*
X0047883Y0111319D01*
X0047936Y0111590D01*
X0047995Y0111860D01*
X0048061Y0112128D01*
X0048133Y0112395D01*
X0048211Y0112659D01*
X0048296Y0112922D01*
X0048387Y0113183D01*
X0048485Y0113441D01*
X0048588Y0113697D01*
X0048698Y0113950D01*
X0048814Y0114201D01*
X0048936Y0114448D01*
X0049064Y0114693D01*
X0049198Y0114934D01*
X0049337Y0115173D01*
X0049482Y0115407D01*
X0049633Y0115639D01*
X0049790Y0115866D01*
X0049951Y0116090D01*
X0050119Y0116309D01*
X0050291Y0116525D01*
X0050469Y0116736D01*
X0050652Y0116943D01*
X0050839Y0117146D01*
X0051032Y0117344D01*
X0051229Y0117537D01*
X0051431Y0117725D01*
X0051637Y0117909D01*
X0051848Y0118087D01*
X0052063Y0118260D01*
X0052282Y0118428D01*
X0052505Y0118591D01*
X0052732Y0118748D01*
X0052962Y0118900D01*
X0053197Y0119046D01*
X0053434Y0119186D01*
X0053675Y0119321D01*
X0053920Y0119450D01*
X0054167Y0119572D01*
X0054417Y0119689D01*
X0054670Y0119800D01*
X0054925Y0119904D01*
X0055183Y0120003D01*
X0055444Y0120095D01*
X0055706Y0120181D01*
X0055970Y0120260D01*
X0056237Y0120333D01*
X0056504Y0120400D01*
X0056774Y0120460D01*
X0057045Y0120513D01*
X0057317Y0120560D01*
X0057590Y0120601D01*
X0057864Y0120634D01*
X0058139Y0120661D01*
X0058414Y0120682D01*
X0058690Y0120696D01*
X0058966Y0120703D01*
X0059242Y0120703D01*
X0059518Y0120697D01*
X0059518Y0120698D02*
X0291801Y0120698D01*
X0285502Y0108887D02*
X0285504Y0109045D01*
X0285510Y0109203D01*
X0285520Y0109361D01*
X0285534Y0109519D01*
X0285552Y0109676D01*
X0285573Y0109833D01*
X0285599Y0109989D01*
X0285629Y0110145D01*
X0285662Y0110300D01*
X0285700Y0110453D01*
X0285741Y0110606D01*
X0285786Y0110758D01*
X0285835Y0110909D01*
X0285888Y0111058D01*
X0285944Y0111206D01*
X0286004Y0111352D01*
X0286068Y0111497D01*
X0286136Y0111640D01*
X0286207Y0111782D01*
X0286281Y0111922D01*
X0286359Y0112059D01*
X0286441Y0112195D01*
X0286525Y0112329D01*
X0286614Y0112460D01*
X0286705Y0112589D01*
X0286800Y0112716D01*
X0286897Y0112841D01*
X0286998Y0112963D01*
X0287102Y0113082D01*
X0287209Y0113199D01*
X0287319Y0113313D01*
X0287432Y0113424D01*
X0287547Y0113533D01*
X0287665Y0113638D01*
X0287786Y0113740D01*
X0287909Y0113840D01*
X0288035Y0113936D01*
X0288163Y0114029D01*
X0288293Y0114119D01*
X0288426Y0114205D01*
X0288561Y0114289D01*
X0288697Y0114368D01*
X0288836Y0114445D01*
X0288977Y0114517D01*
X0289119Y0114587D01*
X0289263Y0114652D01*
X0289409Y0114714D01*
X0289556Y0114772D01*
X0289705Y0114827D01*
X0289855Y0114878D01*
X0290006Y0114925D01*
X0290158Y0114968D01*
X0290311Y0115007D01*
X0290466Y0115043D01*
X0290621Y0115074D01*
X0290777Y0115102D01*
X0290933Y0115126D01*
X0291090Y0115146D01*
X0291248Y0115162D01*
X0291405Y0115174D01*
X0291564Y0115182D01*
X0291722Y0115186D01*
X0291880Y0115186D01*
X0292038Y0115182D01*
X0292197Y0115174D01*
X0292354Y0115162D01*
X0292512Y0115146D01*
X0292669Y0115126D01*
X0292825Y0115102D01*
X0292981Y0115074D01*
X0293136Y0115043D01*
X0293291Y0115007D01*
X0293444Y0114968D01*
X0293596Y0114925D01*
X0293747Y0114878D01*
X0293897Y0114827D01*
X0294046Y0114772D01*
X0294193Y0114714D01*
X0294339Y0114652D01*
X0294483Y0114587D01*
X0294625Y0114517D01*
X0294766Y0114445D01*
X0294905Y0114368D01*
X0295041Y0114289D01*
X0295176Y0114205D01*
X0295309Y0114119D01*
X0295439Y0114029D01*
X0295567Y0113936D01*
X0295693Y0113840D01*
X0295816Y0113740D01*
X0295937Y0113638D01*
X0296055Y0113533D01*
X0296170Y0113424D01*
X0296283Y0113313D01*
X0296393Y0113199D01*
X0296500Y0113082D01*
X0296604Y0112963D01*
X0296705Y0112841D01*
X0296802Y0112716D01*
X0296897Y0112589D01*
X0296988Y0112460D01*
X0297077Y0112329D01*
X0297161Y0112195D01*
X0297243Y0112059D01*
X0297321Y0111922D01*
X0297395Y0111782D01*
X0297466Y0111640D01*
X0297534Y0111497D01*
X0297598Y0111352D01*
X0297658Y0111206D01*
X0297714Y0111058D01*
X0297767Y0110909D01*
X0297816Y0110758D01*
X0297861Y0110606D01*
X0297902Y0110453D01*
X0297940Y0110300D01*
X0297973Y0110145D01*
X0298003Y0109989D01*
X0298029Y0109833D01*
X0298050Y0109676D01*
X0298068Y0109519D01*
X0298082Y0109361D01*
X0298092Y0109203D01*
X0298098Y0109045D01*
X0298100Y0108887D01*
X0298098Y0108729D01*
X0298092Y0108571D01*
X0298082Y0108413D01*
X0298068Y0108255D01*
X0298050Y0108098D01*
X0298029Y0107941D01*
X0298003Y0107785D01*
X0297973Y0107629D01*
X0297940Y0107474D01*
X0297902Y0107321D01*
X0297861Y0107168D01*
X0297816Y0107016D01*
X0297767Y0106865D01*
X0297714Y0106716D01*
X0297658Y0106568D01*
X0297598Y0106422D01*
X0297534Y0106277D01*
X0297466Y0106134D01*
X0297395Y0105992D01*
X0297321Y0105852D01*
X0297243Y0105715D01*
X0297161Y0105579D01*
X0297077Y0105445D01*
X0296988Y0105314D01*
X0296897Y0105185D01*
X0296802Y0105058D01*
X0296705Y0104933D01*
X0296604Y0104811D01*
X0296500Y0104692D01*
X0296393Y0104575D01*
X0296283Y0104461D01*
X0296170Y0104350D01*
X0296055Y0104241D01*
X0295937Y0104136D01*
X0295816Y0104034D01*
X0295693Y0103934D01*
X0295567Y0103838D01*
X0295439Y0103745D01*
X0295309Y0103655D01*
X0295176Y0103569D01*
X0295041Y0103485D01*
X0294905Y0103406D01*
X0294766Y0103329D01*
X0294625Y0103257D01*
X0294483Y0103187D01*
X0294339Y0103122D01*
X0294193Y0103060D01*
X0294046Y0103002D01*
X0293897Y0102947D01*
X0293747Y0102896D01*
X0293596Y0102849D01*
X0293444Y0102806D01*
X0293291Y0102767D01*
X0293136Y0102731D01*
X0292981Y0102700D01*
X0292825Y0102672D01*
X0292669Y0102648D01*
X0292512Y0102628D01*
X0292354Y0102612D01*
X0292197Y0102600D01*
X0292038Y0102592D01*
X0291880Y0102588D01*
X0291722Y0102588D01*
X0291564Y0102592D01*
X0291405Y0102600D01*
X0291248Y0102612D01*
X0291090Y0102628D01*
X0290933Y0102648D01*
X0290777Y0102672D01*
X0290621Y0102700D01*
X0290466Y0102731D01*
X0290311Y0102767D01*
X0290158Y0102806D01*
X0290006Y0102849D01*
X0289855Y0102896D01*
X0289705Y0102947D01*
X0289556Y0103002D01*
X0289409Y0103060D01*
X0289263Y0103122D01*
X0289119Y0103187D01*
X0288977Y0103257D01*
X0288836Y0103329D01*
X0288697Y0103406D01*
X0288561Y0103485D01*
X0288426Y0103569D01*
X0288293Y0103655D01*
X0288163Y0103745D01*
X0288035Y0103838D01*
X0287909Y0103934D01*
X0287786Y0104034D01*
X0287665Y0104136D01*
X0287547Y0104241D01*
X0287432Y0104350D01*
X0287319Y0104461D01*
X0287209Y0104575D01*
X0287102Y0104692D01*
X0286998Y0104811D01*
X0286897Y0104933D01*
X0286800Y0105058D01*
X0286705Y0105185D01*
X0286614Y0105314D01*
X0286525Y0105445D01*
X0286441Y0105579D01*
X0286359Y0105715D01*
X0286281Y0105852D01*
X0286207Y0105992D01*
X0286136Y0106134D01*
X0286068Y0106277D01*
X0286004Y0106422D01*
X0285944Y0106568D01*
X0285888Y0106716D01*
X0285835Y0106865D01*
X0285786Y0107016D01*
X0285741Y0107168D01*
X0285700Y0107321D01*
X0285662Y0107474D01*
X0285629Y0107629D01*
X0285599Y0107785D01*
X0285573Y0107941D01*
X0285552Y0108098D01*
X0285534Y0108255D01*
X0285520Y0108413D01*
X0285510Y0108571D01*
X0285504Y0108729D01*
X0285502Y0108887D01*
X0291801Y0120698D02*
X0292086Y0120695D01*
X0292372Y0120684D01*
X0292657Y0120667D01*
X0292941Y0120643D01*
X0293225Y0120612D01*
X0293508Y0120574D01*
X0293789Y0120529D01*
X0294070Y0120478D01*
X0294350Y0120420D01*
X0294628Y0120355D01*
X0294904Y0120283D01*
X0295178Y0120205D01*
X0295451Y0120120D01*
X0295721Y0120028D01*
X0295989Y0119930D01*
X0296255Y0119826D01*
X0296518Y0119715D01*
X0296778Y0119598D01*
X0297036Y0119475D01*
X0297290Y0119345D01*
X0297541Y0119209D01*
X0297789Y0119068D01*
X0298033Y0118920D01*
X0298274Y0118767D01*
X0298510Y0118607D01*
X0298743Y0118442D01*
X0298972Y0118272D01*
X0299197Y0118096D01*
X0299417Y0117914D01*
X0299633Y0117728D01*
X0299844Y0117536D01*
X0300051Y0117339D01*
X0300253Y0117137D01*
X0300450Y0116930D01*
X0300642Y0116719D01*
X0300828Y0116503D01*
X0301010Y0116283D01*
X0301186Y0116058D01*
X0301356Y0115829D01*
X0301521Y0115596D01*
X0301681Y0115360D01*
X0301834Y0115119D01*
X0301982Y0114875D01*
X0302123Y0114627D01*
X0302259Y0114376D01*
X0302389Y0114122D01*
X0302512Y0113864D01*
X0302629Y0113604D01*
X0302740Y0113341D01*
X0302844Y0113075D01*
X0302942Y0112807D01*
X0303034Y0112537D01*
X0303119Y0112264D01*
X0303197Y0111990D01*
X0303269Y0111714D01*
X0303334Y0111436D01*
X0303392Y0111156D01*
X0303443Y0110875D01*
X0303488Y0110594D01*
X0303526Y0110311D01*
X0303557Y0110027D01*
X0303581Y0109743D01*
X0303598Y0109458D01*
X0303609Y0109172D01*
X0303612Y0108887D01*
X0303612Y0014398D01*
X0285502Y0014398D02*
X0285504Y0014556D01*
X0285510Y0014714D01*
X0285520Y0014872D01*
X0285534Y0015030D01*
X0285552Y0015187D01*
X0285573Y0015344D01*
X0285599Y0015500D01*
X0285629Y0015656D01*
X0285662Y0015811D01*
X0285700Y0015964D01*
X0285741Y0016117D01*
X0285786Y0016269D01*
X0285835Y0016420D01*
X0285888Y0016569D01*
X0285944Y0016717D01*
X0286004Y0016863D01*
X0286068Y0017008D01*
X0286136Y0017151D01*
X0286207Y0017293D01*
X0286281Y0017433D01*
X0286359Y0017570D01*
X0286441Y0017706D01*
X0286525Y0017840D01*
X0286614Y0017971D01*
X0286705Y0018100D01*
X0286800Y0018227D01*
X0286897Y0018352D01*
X0286998Y0018474D01*
X0287102Y0018593D01*
X0287209Y0018710D01*
X0287319Y0018824D01*
X0287432Y0018935D01*
X0287547Y0019044D01*
X0287665Y0019149D01*
X0287786Y0019251D01*
X0287909Y0019351D01*
X0288035Y0019447D01*
X0288163Y0019540D01*
X0288293Y0019630D01*
X0288426Y0019716D01*
X0288561Y0019800D01*
X0288697Y0019879D01*
X0288836Y0019956D01*
X0288977Y0020028D01*
X0289119Y0020098D01*
X0289263Y0020163D01*
X0289409Y0020225D01*
X0289556Y0020283D01*
X0289705Y0020338D01*
X0289855Y0020389D01*
X0290006Y0020436D01*
X0290158Y0020479D01*
X0290311Y0020518D01*
X0290466Y0020554D01*
X0290621Y0020585D01*
X0290777Y0020613D01*
X0290933Y0020637D01*
X0291090Y0020657D01*
X0291248Y0020673D01*
X0291405Y0020685D01*
X0291564Y0020693D01*
X0291722Y0020697D01*
X0291880Y0020697D01*
X0292038Y0020693D01*
X0292197Y0020685D01*
X0292354Y0020673D01*
X0292512Y0020657D01*
X0292669Y0020637D01*
X0292825Y0020613D01*
X0292981Y0020585D01*
X0293136Y0020554D01*
X0293291Y0020518D01*
X0293444Y0020479D01*
X0293596Y0020436D01*
X0293747Y0020389D01*
X0293897Y0020338D01*
X0294046Y0020283D01*
X0294193Y0020225D01*
X0294339Y0020163D01*
X0294483Y0020098D01*
X0294625Y0020028D01*
X0294766Y0019956D01*
X0294905Y0019879D01*
X0295041Y0019800D01*
X0295176Y0019716D01*
X0295309Y0019630D01*
X0295439Y0019540D01*
X0295567Y0019447D01*
X0295693Y0019351D01*
X0295816Y0019251D01*
X0295937Y0019149D01*
X0296055Y0019044D01*
X0296170Y0018935D01*
X0296283Y0018824D01*
X0296393Y0018710D01*
X0296500Y0018593D01*
X0296604Y0018474D01*
X0296705Y0018352D01*
X0296802Y0018227D01*
X0296897Y0018100D01*
X0296988Y0017971D01*
X0297077Y0017840D01*
X0297161Y0017706D01*
X0297243Y0017570D01*
X0297321Y0017433D01*
X0297395Y0017293D01*
X0297466Y0017151D01*
X0297534Y0017008D01*
X0297598Y0016863D01*
X0297658Y0016717D01*
X0297714Y0016569D01*
X0297767Y0016420D01*
X0297816Y0016269D01*
X0297861Y0016117D01*
X0297902Y0015964D01*
X0297940Y0015811D01*
X0297973Y0015656D01*
X0298003Y0015500D01*
X0298029Y0015344D01*
X0298050Y0015187D01*
X0298068Y0015030D01*
X0298082Y0014872D01*
X0298092Y0014714D01*
X0298098Y0014556D01*
X0298100Y0014398D01*
X0298098Y0014240D01*
X0298092Y0014082D01*
X0298082Y0013924D01*
X0298068Y0013766D01*
X0298050Y0013609D01*
X0298029Y0013452D01*
X0298003Y0013296D01*
X0297973Y0013140D01*
X0297940Y0012985D01*
X0297902Y0012832D01*
X0297861Y0012679D01*
X0297816Y0012527D01*
X0297767Y0012376D01*
X0297714Y0012227D01*
X0297658Y0012079D01*
X0297598Y0011933D01*
X0297534Y0011788D01*
X0297466Y0011645D01*
X0297395Y0011503D01*
X0297321Y0011363D01*
X0297243Y0011226D01*
X0297161Y0011090D01*
X0297077Y0010956D01*
X0296988Y0010825D01*
X0296897Y0010696D01*
X0296802Y0010569D01*
X0296705Y0010444D01*
X0296604Y0010322D01*
X0296500Y0010203D01*
X0296393Y0010086D01*
X0296283Y0009972D01*
X0296170Y0009861D01*
X0296055Y0009752D01*
X0295937Y0009647D01*
X0295816Y0009545D01*
X0295693Y0009445D01*
X0295567Y0009349D01*
X0295439Y0009256D01*
X0295309Y0009166D01*
X0295176Y0009080D01*
X0295041Y0008996D01*
X0294905Y0008917D01*
X0294766Y0008840D01*
X0294625Y0008768D01*
X0294483Y0008698D01*
X0294339Y0008633D01*
X0294193Y0008571D01*
X0294046Y0008513D01*
X0293897Y0008458D01*
X0293747Y0008407D01*
X0293596Y0008360D01*
X0293444Y0008317D01*
X0293291Y0008278D01*
X0293136Y0008242D01*
X0292981Y0008211D01*
X0292825Y0008183D01*
X0292669Y0008159D01*
X0292512Y0008139D01*
X0292354Y0008123D01*
X0292197Y0008111D01*
X0292038Y0008103D01*
X0291880Y0008099D01*
X0291722Y0008099D01*
X0291564Y0008103D01*
X0291405Y0008111D01*
X0291248Y0008123D01*
X0291090Y0008139D01*
X0290933Y0008159D01*
X0290777Y0008183D01*
X0290621Y0008211D01*
X0290466Y0008242D01*
X0290311Y0008278D01*
X0290158Y0008317D01*
X0290006Y0008360D01*
X0289855Y0008407D01*
X0289705Y0008458D01*
X0289556Y0008513D01*
X0289409Y0008571D01*
X0289263Y0008633D01*
X0289119Y0008698D01*
X0288977Y0008768D01*
X0288836Y0008840D01*
X0288697Y0008917D01*
X0288561Y0008996D01*
X0288426Y0009080D01*
X0288293Y0009166D01*
X0288163Y0009256D01*
X0288035Y0009349D01*
X0287909Y0009445D01*
X0287786Y0009545D01*
X0287665Y0009647D01*
X0287547Y0009752D01*
X0287432Y0009861D01*
X0287319Y0009972D01*
X0287209Y0010086D01*
X0287102Y0010203D01*
X0286998Y0010322D01*
X0286897Y0010444D01*
X0286800Y0010569D01*
X0286705Y0010696D01*
X0286614Y0010825D01*
X0286525Y0010956D01*
X0286441Y0011090D01*
X0286359Y0011226D01*
X0286281Y0011363D01*
X0286207Y0011503D01*
X0286136Y0011645D01*
X0286068Y0011788D01*
X0286004Y0011933D01*
X0285944Y0012079D01*
X0285888Y0012227D01*
X0285835Y0012376D01*
X0285786Y0012527D01*
X0285741Y0012679D01*
X0285700Y0012832D01*
X0285662Y0012985D01*
X0285629Y0013140D01*
X0285599Y0013296D01*
X0285573Y0013452D01*
X0285552Y0013609D01*
X0285534Y0013766D01*
X0285520Y0013924D01*
X0285510Y0014082D01*
X0285504Y0014240D01*
X0285502Y0014398D01*
X0291801Y0002587D02*
X0292086Y0002590D01*
X0292372Y0002601D01*
X0292657Y0002618D01*
X0292941Y0002642D01*
X0293225Y0002673D01*
X0293508Y0002711D01*
X0293789Y0002756D01*
X0294070Y0002807D01*
X0294350Y0002865D01*
X0294628Y0002930D01*
X0294904Y0003002D01*
X0295178Y0003080D01*
X0295451Y0003165D01*
X0295721Y0003257D01*
X0295989Y0003355D01*
X0296255Y0003459D01*
X0296518Y0003570D01*
X0296778Y0003687D01*
X0297036Y0003810D01*
X0297290Y0003940D01*
X0297541Y0004076D01*
X0297789Y0004217D01*
X0298033Y0004365D01*
X0298274Y0004518D01*
X0298510Y0004678D01*
X0298743Y0004843D01*
X0298972Y0005013D01*
X0299197Y0005189D01*
X0299417Y0005371D01*
X0299633Y0005557D01*
X0299844Y0005749D01*
X0300051Y0005946D01*
X0300253Y0006148D01*
X0300450Y0006355D01*
X0300642Y0006566D01*
X0300828Y0006782D01*
X0301010Y0007002D01*
X0301186Y0007227D01*
X0301356Y0007456D01*
X0301521Y0007689D01*
X0301681Y0007925D01*
X0301834Y0008166D01*
X0301982Y0008410D01*
X0302123Y0008658D01*
X0302259Y0008909D01*
X0302389Y0009163D01*
X0302512Y0009421D01*
X0302629Y0009681D01*
X0302740Y0009944D01*
X0302844Y0010210D01*
X0302942Y0010478D01*
X0303034Y0010748D01*
X0303119Y0011021D01*
X0303197Y0011295D01*
X0303269Y0011571D01*
X0303334Y0011849D01*
X0303392Y0012129D01*
X0303443Y0012410D01*
X0303488Y0012691D01*
X0303526Y0012974D01*
X0303557Y0013258D01*
X0303581Y0013542D01*
X0303598Y0013827D01*
X0303609Y0014113D01*
X0303612Y0014398D01*
X0291801Y0002587D02*
X0059518Y0002587D01*
X0053219Y0014398D02*
X0053221Y0014556D01*
X0053227Y0014714D01*
X0053237Y0014872D01*
X0053251Y0015030D01*
X0053269Y0015187D01*
X0053290Y0015344D01*
X0053316Y0015500D01*
X0053346Y0015656D01*
X0053379Y0015811D01*
X0053417Y0015964D01*
X0053458Y0016117D01*
X0053503Y0016269D01*
X0053552Y0016420D01*
X0053605Y0016569D01*
X0053661Y0016717D01*
X0053721Y0016863D01*
X0053785Y0017008D01*
X0053853Y0017151D01*
X0053924Y0017293D01*
X0053998Y0017433D01*
X0054076Y0017570D01*
X0054158Y0017706D01*
X0054242Y0017840D01*
X0054331Y0017971D01*
X0054422Y0018100D01*
X0054517Y0018227D01*
X0054614Y0018352D01*
X0054715Y0018474D01*
X0054819Y0018593D01*
X0054926Y0018710D01*
X0055036Y0018824D01*
X0055149Y0018935D01*
X0055264Y0019044D01*
X0055382Y0019149D01*
X0055503Y0019251D01*
X0055626Y0019351D01*
X0055752Y0019447D01*
X0055880Y0019540D01*
X0056010Y0019630D01*
X0056143Y0019716D01*
X0056278Y0019800D01*
X0056414Y0019879D01*
X0056553Y0019956D01*
X0056694Y0020028D01*
X0056836Y0020098D01*
X0056980Y0020163D01*
X0057126Y0020225D01*
X0057273Y0020283D01*
X0057422Y0020338D01*
X0057572Y0020389D01*
X0057723Y0020436D01*
X0057875Y0020479D01*
X0058028Y0020518D01*
X0058183Y0020554D01*
X0058338Y0020585D01*
X0058494Y0020613D01*
X0058650Y0020637D01*
X0058807Y0020657D01*
X0058965Y0020673D01*
X0059122Y0020685D01*
X0059281Y0020693D01*
X0059439Y0020697D01*
X0059597Y0020697D01*
X0059755Y0020693D01*
X0059914Y0020685D01*
X0060071Y0020673D01*
X0060229Y0020657D01*
X0060386Y0020637D01*
X0060542Y0020613D01*
X0060698Y0020585D01*
X0060853Y0020554D01*
X0061008Y0020518D01*
X0061161Y0020479D01*
X0061313Y0020436D01*
X0061464Y0020389D01*
X0061614Y0020338D01*
X0061763Y0020283D01*
X0061910Y0020225D01*
X0062056Y0020163D01*
X0062200Y0020098D01*
X0062342Y0020028D01*
X0062483Y0019956D01*
X0062622Y0019879D01*
X0062758Y0019800D01*
X0062893Y0019716D01*
X0063026Y0019630D01*
X0063156Y0019540D01*
X0063284Y0019447D01*
X0063410Y0019351D01*
X0063533Y0019251D01*
X0063654Y0019149D01*
X0063772Y0019044D01*
X0063887Y0018935D01*
X0064000Y0018824D01*
X0064110Y0018710D01*
X0064217Y0018593D01*
X0064321Y0018474D01*
X0064422Y0018352D01*
X0064519Y0018227D01*
X0064614Y0018100D01*
X0064705Y0017971D01*
X0064794Y0017840D01*
X0064878Y0017706D01*
X0064960Y0017570D01*
X0065038Y0017433D01*
X0065112Y0017293D01*
X0065183Y0017151D01*
X0065251Y0017008D01*
X0065315Y0016863D01*
X0065375Y0016717D01*
X0065431Y0016569D01*
X0065484Y0016420D01*
X0065533Y0016269D01*
X0065578Y0016117D01*
X0065619Y0015964D01*
X0065657Y0015811D01*
X0065690Y0015656D01*
X0065720Y0015500D01*
X0065746Y0015344D01*
X0065767Y0015187D01*
X0065785Y0015030D01*
X0065799Y0014872D01*
X0065809Y0014714D01*
X0065815Y0014556D01*
X0065817Y0014398D01*
X0065815Y0014240D01*
X0065809Y0014082D01*
X0065799Y0013924D01*
X0065785Y0013766D01*
X0065767Y0013609D01*
X0065746Y0013452D01*
X0065720Y0013296D01*
X0065690Y0013140D01*
X0065657Y0012985D01*
X0065619Y0012832D01*
X0065578Y0012679D01*
X0065533Y0012527D01*
X0065484Y0012376D01*
X0065431Y0012227D01*
X0065375Y0012079D01*
X0065315Y0011933D01*
X0065251Y0011788D01*
X0065183Y0011645D01*
X0065112Y0011503D01*
X0065038Y0011363D01*
X0064960Y0011226D01*
X0064878Y0011090D01*
X0064794Y0010956D01*
X0064705Y0010825D01*
X0064614Y0010696D01*
X0064519Y0010569D01*
X0064422Y0010444D01*
X0064321Y0010322D01*
X0064217Y0010203D01*
X0064110Y0010086D01*
X0064000Y0009972D01*
X0063887Y0009861D01*
X0063772Y0009752D01*
X0063654Y0009647D01*
X0063533Y0009545D01*
X0063410Y0009445D01*
X0063284Y0009349D01*
X0063156Y0009256D01*
X0063026Y0009166D01*
X0062893Y0009080D01*
X0062758Y0008996D01*
X0062622Y0008917D01*
X0062483Y0008840D01*
X0062342Y0008768D01*
X0062200Y0008698D01*
X0062056Y0008633D01*
X0061910Y0008571D01*
X0061763Y0008513D01*
X0061614Y0008458D01*
X0061464Y0008407D01*
X0061313Y0008360D01*
X0061161Y0008317D01*
X0061008Y0008278D01*
X0060853Y0008242D01*
X0060698Y0008211D01*
X0060542Y0008183D01*
X0060386Y0008159D01*
X0060229Y0008139D01*
X0060071Y0008123D01*
X0059914Y0008111D01*
X0059755Y0008103D01*
X0059597Y0008099D01*
X0059439Y0008099D01*
X0059281Y0008103D01*
X0059122Y0008111D01*
X0058965Y0008123D01*
X0058807Y0008139D01*
X0058650Y0008159D01*
X0058494Y0008183D01*
X0058338Y0008211D01*
X0058183Y0008242D01*
X0058028Y0008278D01*
X0057875Y0008317D01*
X0057723Y0008360D01*
X0057572Y0008407D01*
X0057422Y0008458D01*
X0057273Y0008513D01*
X0057126Y0008571D01*
X0056980Y0008633D01*
X0056836Y0008698D01*
X0056694Y0008768D01*
X0056553Y0008840D01*
X0056414Y0008917D01*
X0056278Y0008996D01*
X0056143Y0009080D01*
X0056010Y0009166D01*
X0055880Y0009256D01*
X0055752Y0009349D01*
X0055626Y0009445D01*
X0055503Y0009545D01*
X0055382Y0009647D01*
X0055264Y0009752D01*
X0055149Y0009861D01*
X0055036Y0009972D01*
X0054926Y0010086D01*
X0054819Y0010203D01*
X0054715Y0010322D01*
X0054614Y0010444D01*
X0054517Y0010569D01*
X0054422Y0010696D01*
X0054331Y0010825D01*
X0054242Y0010956D01*
X0054158Y0011090D01*
X0054076Y0011226D01*
X0053998Y0011363D01*
X0053924Y0011503D01*
X0053853Y0011645D01*
X0053785Y0011788D01*
X0053721Y0011933D01*
X0053661Y0012079D01*
X0053605Y0012227D01*
X0053552Y0012376D01*
X0053503Y0012527D01*
X0053458Y0012679D01*
X0053417Y0012832D01*
X0053379Y0012985D01*
X0053346Y0013140D01*
X0053316Y0013296D01*
X0053290Y0013452D01*
X0053269Y0013609D01*
X0053251Y0013766D01*
X0053237Y0013924D01*
X0053227Y0014082D01*
X0053221Y0014240D01*
X0053219Y0014398D01*
X0047706Y0015186D02*
X0047700Y0014891D01*
X0047702Y0014596D01*
X0047710Y0014301D01*
X0047725Y0014006D01*
X0047748Y0013712D01*
X0047778Y0013418D01*
X0047814Y0013125D01*
X0047858Y0012834D01*
X0047909Y0012543D01*
X0047967Y0012253D01*
X0048032Y0011966D01*
X0048103Y0011679D01*
X0048182Y0011395D01*
X0048268Y0011113D01*
X0048360Y0010832D01*
X0048459Y0010554D01*
X0048565Y0010279D01*
X0048677Y0010006D01*
X0048796Y0009736D01*
X0048921Y0009469D01*
X0049053Y0009205D01*
X0049191Y0008944D01*
X0049336Y0008687D01*
X0049486Y0008433D01*
X0049643Y0008183D01*
X0049806Y0007937D01*
X0049974Y0007695D01*
X0050149Y0007457D01*
X0050329Y0007223D01*
X0050515Y0006994D01*
X0050706Y0006769D01*
X0050902Y0006549D01*
X0051104Y0006333D01*
X0051311Y0006123D01*
X0051523Y0005918D01*
X0051740Y0005718D01*
X0051962Y0005523D01*
X0052188Y0005333D01*
X0052419Y0005150D01*
X0052654Y0004971D01*
X0052893Y0004799D01*
X0053137Y0004632D01*
X0053384Y0004472D01*
X0053636Y0004317D01*
X0053891Y0004168D01*
X0054149Y0004026D01*
X0054411Y0003890D01*
X0054676Y0003760D01*
X0054944Y0003637D01*
X0055215Y0003520D01*
X0055489Y0003410D01*
X0055765Y0003306D01*
X0056044Y0003210D01*
X0056325Y0003119D01*
X0056608Y0003036D01*
X0056893Y0002960D01*
X0057180Y0002890D01*
X0057468Y0002828D01*
X0057758Y0002772D01*
X0058049Y0002724D01*
X0058341Y0002682D01*
X0058634Y0002648D01*
X0058928Y0002621D01*
X0059223Y0002600D01*
X0059517Y0002587D01*
X0069164Y0052784D02*
X0069166Y0052877D01*
X0069172Y0052969D01*
X0069182Y0053061D01*
X0069196Y0053152D01*
X0069213Y0053243D01*
X0069235Y0053333D01*
X0069260Y0053422D01*
X0069289Y0053510D01*
X0069322Y0053596D01*
X0069359Y0053681D01*
X0069399Y0053765D01*
X0069443Y0053846D01*
X0069490Y0053926D01*
X0069540Y0054004D01*
X0069594Y0054079D01*
X0069651Y0054152D01*
X0069711Y0054222D01*
X0069774Y0054290D01*
X0069840Y0054355D01*
X0069908Y0054417D01*
X0069979Y0054477D01*
X0070053Y0054533D01*
X0070129Y0054586D01*
X0070207Y0054635D01*
X0070287Y0054682D01*
X0070369Y0054724D01*
X0070453Y0054764D01*
X0070538Y0054799D01*
X0070625Y0054831D01*
X0070713Y0054860D01*
X0070802Y0054884D01*
X0070892Y0054905D01*
X0070983Y0054921D01*
X0071075Y0054934D01*
X0071167Y0054943D01*
X0071260Y0054948D01*
X0071352Y0054949D01*
X0071445Y0054946D01*
X0071537Y0054939D01*
X0071629Y0054928D01*
X0071720Y0054913D01*
X0071811Y0054895D01*
X0071901Y0054872D01*
X0071989Y0054846D01*
X0072077Y0054816D01*
X0072163Y0054782D01*
X0072247Y0054745D01*
X0072330Y0054703D01*
X0072411Y0054659D01*
X0072491Y0054611D01*
X0072568Y0054560D01*
X0072642Y0054505D01*
X0072715Y0054447D01*
X0072785Y0054387D01*
X0072852Y0054323D01*
X0072916Y0054257D01*
X0072978Y0054187D01*
X0073036Y0054116D01*
X0073091Y0054042D01*
X0073143Y0053965D01*
X0073192Y0053886D01*
X0073238Y0053806D01*
X0073280Y0053723D01*
X0073318Y0053639D01*
X0073353Y0053553D01*
X0073384Y0053466D01*
X0073411Y0053378D01*
X0073434Y0053288D01*
X0073454Y0053198D01*
X0073470Y0053107D01*
X0073482Y0053015D01*
X0073490Y0052923D01*
X0073494Y0052830D01*
X0073494Y0052738D01*
X0073490Y0052645D01*
X0073482Y0052553D01*
X0073470Y0052461D01*
X0073454Y0052370D01*
X0073434Y0052280D01*
X0073411Y0052190D01*
X0073384Y0052102D01*
X0073353Y0052015D01*
X0073318Y0051929D01*
X0073280Y0051845D01*
X0073238Y0051762D01*
X0073192Y0051682D01*
X0073143Y0051603D01*
X0073091Y0051526D01*
X0073036Y0051452D01*
X0072978Y0051381D01*
X0072916Y0051311D01*
X0072852Y0051245D01*
X0072785Y0051181D01*
X0072715Y0051121D01*
X0072642Y0051063D01*
X0072568Y0051008D01*
X0072491Y0050957D01*
X0072412Y0050909D01*
X0072330Y0050865D01*
X0072247Y0050823D01*
X0072163Y0050786D01*
X0072077Y0050752D01*
X0071989Y0050722D01*
X0071901Y0050696D01*
X0071811Y0050673D01*
X0071720Y0050655D01*
X0071629Y0050640D01*
X0071537Y0050629D01*
X0071445Y0050622D01*
X0071352Y0050619D01*
X0071260Y0050620D01*
X0071167Y0050625D01*
X0071075Y0050634D01*
X0070983Y0050647D01*
X0070892Y0050663D01*
X0070802Y0050684D01*
X0070713Y0050708D01*
X0070625Y0050737D01*
X0070538Y0050769D01*
X0070453Y0050804D01*
X0070369Y0050844D01*
X0070287Y0050886D01*
X0070207Y0050933D01*
X0070129Y0050982D01*
X0070053Y0051035D01*
X0069979Y0051091D01*
X0069908Y0051151D01*
X0069840Y0051213D01*
X0069774Y0051278D01*
X0069711Y0051346D01*
X0069651Y0051416D01*
X0069594Y0051489D01*
X0069540Y0051564D01*
X0069490Y0051642D01*
X0069443Y0051722D01*
X0069399Y0051803D01*
X0069359Y0051887D01*
X0069322Y0051972D01*
X0069289Y0052058D01*
X0069260Y0052146D01*
X0069235Y0052235D01*
X0069213Y0052325D01*
X0069196Y0052416D01*
X0069182Y0052507D01*
X0069172Y0052599D01*
X0069166Y0052691D01*
X0069164Y0052784D01*
X0069164Y0070501D02*
X0069166Y0070594D01*
X0069172Y0070686D01*
X0069182Y0070778D01*
X0069196Y0070869D01*
X0069213Y0070960D01*
X0069235Y0071050D01*
X0069260Y0071139D01*
X0069289Y0071227D01*
X0069322Y0071313D01*
X0069359Y0071398D01*
X0069399Y0071482D01*
X0069443Y0071563D01*
X0069490Y0071643D01*
X0069540Y0071721D01*
X0069594Y0071796D01*
X0069651Y0071869D01*
X0069711Y0071939D01*
X0069774Y0072007D01*
X0069840Y0072072D01*
X0069908Y0072134D01*
X0069979Y0072194D01*
X0070053Y0072250D01*
X0070129Y0072303D01*
X0070207Y0072352D01*
X0070287Y0072399D01*
X0070369Y0072441D01*
X0070453Y0072481D01*
X0070538Y0072516D01*
X0070625Y0072548D01*
X0070713Y0072577D01*
X0070802Y0072601D01*
X0070892Y0072622D01*
X0070983Y0072638D01*
X0071075Y0072651D01*
X0071167Y0072660D01*
X0071260Y0072665D01*
X0071352Y0072666D01*
X0071445Y0072663D01*
X0071537Y0072656D01*
X0071629Y0072645D01*
X0071720Y0072630D01*
X0071811Y0072612D01*
X0071901Y0072589D01*
X0071989Y0072563D01*
X0072077Y0072533D01*
X0072163Y0072499D01*
X0072247Y0072462D01*
X0072330Y0072420D01*
X0072411Y0072376D01*
X0072491Y0072328D01*
X0072568Y0072277D01*
X0072642Y0072222D01*
X0072715Y0072164D01*
X0072785Y0072104D01*
X0072852Y0072040D01*
X0072916Y0071974D01*
X0072978Y0071904D01*
X0073036Y0071833D01*
X0073091Y0071759D01*
X0073143Y0071682D01*
X0073192Y0071603D01*
X0073238Y0071523D01*
X0073280Y0071440D01*
X0073318Y0071356D01*
X0073353Y0071270D01*
X0073384Y0071183D01*
X0073411Y0071095D01*
X0073434Y0071005D01*
X0073454Y0070915D01*
X0073470Y0070824D01*
X0073482Y0070732D01*
X0073490Y0070640D01*
X0073494Y0070547D01*
X0073494Y0070455D01*
X0073490Y0070362D01*
X0073482Y0070270D01*
X0073470Y0070178D01*
X0073454Y0070087D01*
X0073434Y0069997D01*
X0073411Y0069907D01*
X0073384Y0069819D01*
X0073353Y0069732D01*
X0073318Y0069646D01*
X0073280Y0069562D01*
X0073238Y0069479D01*
X0073192Y0069399D01*
X0073143Y0069320D01*
X0073091Y0069243D01*
X0073036Y0069169D01*
X0072978Y0069098D01*
X0072916Y0069028D01*
X0072852Y0068962D01*
X0072785Y0068898D01*
X0072715Y0068838D01*
X0072642Y0068780D01*
X0072568Y0068725D01*
X0072491Y0068674D01*
X0072412Y0068626D01*
X0072330Y0068582D01*
X0072247Y0068540D01*
X0072163Y0068503D01*
X0072077Y0068469D01*
X0071989Y0068439D01*
X0071901Y0068413D01*
X0071811Y0068390D01*
X0071720Y0068372D01*
X0071629Y0068357D01*
X0071537Y0068346D01*
X0071445Y0068339D01*
X0071352Y0068336D01*
X0071260Y0068337D01*
X0071167Y0068342D01*
X0071075Y0068351D01*
X0070983Y0068364D01*
X0070892Y0068380D01*
X0070802Y0068401D01*
X0070713Y0068425D01*
X0070625Y0068454D01*
X0070538Y0068486D01*
X0070453Y0068521D01*
X0070369Y0068561D01*
X0070287Y0068603D01*
X0070207Y0068650D01*
X0070129Y0068699D01*
X0070053Y0068752D01*
X0069979Y0068808D01*
X0069908Y0068868D01*
X0069840Y0068930D01*
X0069774Y0068995D01*
X0069711Y0069063D01*
X0069651Y0069133D01*
X0069594Y0069206D01*
X0069540Y0069281D01*
X0069490Y0069359D01*
X0069443Y0069439D01*
X0069399Y0069520D01*
X0069359Y0069604D01*
X0069322Y0069689D01*
X0069289Y0069775D01*
X0069260Y0069863D01*
X0069235Y0069952D01*
X0069213Y0070042D01*
X0069196Y0070133D01*
X0069182Y0070224D01*
X0069172Y0070316D01*
X0069166Y0070408D01*
X0069164Y0070501D01*
X0053219Y0108887D02*
X0053221Y0109045D01*
X0053227Y0109203D01*
X0053237Y0109361D01*
X0053251Y0109519D01*
X0053269Y0109676D01*
X0053290Y0109833D01*
X0053316Y0109989D01*
X0053346Y0110145D01*
X0053379Y0110300D01*
X0053417Y0110453D01*
X0053458Y0110606D01*
X0053503Y0110758D01*
X0053552Y0110909D01*
X0053605Y0111058D01*
X0053661Y0111206D01*
X0053721Y0111352D01*
X0053785Y0111497D01*
X0053853Y0111640D01*
X0053924Y0111782D01*
X0053998Y0111922D01*
X0054076Y0112059D01*
X0054158Y0112195D01*
X0054242Y0112329D01*
X0054331Y0112460D01*
X0054422Y0112589D01*
X0054517Y0112716D01*
X0054614Y0112841D01*
X0054715Y0112963D01*
X0054819Y0113082D01*
X0054926Y0113199D01*
X0055036Y0113313D01*
X0055149Y0113424D01*
X0055264Y0113533D01*
X0055382Y0113638D01*
X0055503Y0113740D01*
X0055626Y0113840D01*
X0055752Y0113936D01*
X0055880Y0114029D01*
X0056010Y0114119D01*
X0056143Y0114205D01*
X0056278Y0114289D01*
X0056414Y0114368D01*
X0056553Y0114445D01*
X0056694Y0114517D01*
X0056836Y0114587D01*
X0056980Y0114652D01*
X0057126Y0114714D01*
X0057273Y0114772D01*
X0057422Y0114827D01*
X0057572Y0114878D01*
X0057723Y0114925D01*
X0057875Y0114968D01*
X0058028Y0115007D01*
X0058183Y0115043D01*
X0058338Y0115074D01*
X0058494Y0115102D01*
X0058650Y0115126D01*
X0058807Y0115146D01*
X0058965Y0115162D01*
X0059122Y0115174D01*
X0059281Y0115182D01*
X0059439Y0115186D01*
X0059597Y0115186D01*
X0059755Y0115182D01*
X0059914Y0115174D01*
X0060071Y0115162D01*
X0060229Y0115146D01*
X0060386Y0115126D01*
X0060542Y0115102D01*
X0060698Y0115074D01*
X0060853Y0115043D01*
X0061008Y0115007D01*
X0061161Y0114968D01*
X0061313Y0114925D01*
X0061464Y0114878D01*
X0061614Y0114827D01*
X0061763Y0114772D01*
X0061910Y0114714D01*
X0062056Y0114652D01*
X0062200Y0114587D01*
X0062342Y0114517D01*
X0062483Y0114445D01*
X0062622Y0114368D01*
X0062758Y0114289D01*
X0062893Y0114205D01*
X0063026Y0114119D01*
X0063156Y0114029D01*
X0063284Y0113936D01*
X0063410Y0113840D01*
X0063533Y0113740D01*
X0063654Y0113638D01*
X0063772Y0113533D01*
X0063887Y0113424D01*
X0064000Y0113313D01*
X0064110Y0113199D01*
X0064217Y0113082D01*
X0064321Y0112963D01*
X0064422Y0112841D01*
X0064519Y0112716D01*
X0064614Y0112589D01*
X0064705Y0112460D01*
X0064794Y0112329D01*
X0064878Y0112195D01*
X0064960Y0112059D01*
X0065038Y0111922D01*
X0065112Y0111782D01*
X0065183Y0111640D01*
X0065251Y0111497D01*
X0065315Y0111352D01*
X0065375Y0111206D01*
X0065431Y0111058D01*
X0065484Y0110909D01*
X0065533Y0110758D01*
X0065578Y0110606D01*
X0065619Y0110453D01*
X0065657Y0110300D01*
X0065690Y0110145D01*
X0065720Y0109989D01*
X0065746Y0109833D01*
X0065767Y0109676D01*
X0065785Y0109519D01*
X0065799Y0109361D01*
X0065809Y0109203D01*
X0065815Y0109045D01*
X0065817Y0108887D01*
X0065815Y0108729D01*
X0065809Y0108571D01*
X0065799Y0108413D01*
X0065785Y0108255D01*
X0065767Y0108098D01*
X0065746Y0107941D01*
X0065720Y0107785D01*
X0065690Y0107629D01*
X0065657Y0107474D01*
X0065619Y0107321D01*
X0065578Y0107168D01*
X0065533Y0107016D01*
X0065484Y0106865D01*
X0065431Y0106716D01*
X0065375Y0106568D01*
X0065315Y0106422D01*
X0065251Y0106277D01*
X0065183Y0106134D01*
X0065112Y0105992D01*
X0065038Y0105852D01*
X0064960Y0105715D01*
X0064878Y0105579D01*
X0064794Y0105445D01*
X0064705Y0105314D01*
X0064614Y0105185D01*
X0064519Y0105058D01*
X0064422Y0104933D01*
X0064321Y0104811D01*
X0064217Y0104692D01*
X0064110Y0104575D01*
X0064000Y0104461D01*
X0063887Y0104350D01*
X0063772Y0104241D01*
X0063654Y0104136D01*
X0063533Y0104034D01*
X0063410Y0103934D01*
X0063284Y0103838D01*
X0063156Y0103745D01*
X0063026Y0103655D01*
X0062893Y0103569D01*
X0062758Y0103485D01*
X0062622Y0103406D01*
X0062483Y0103329D01*
X0062342Y0103257D01*
X0062200Y0103187D01*
X0062056Y0103122D01*
X0061910Y0103060D01*
X0061763Y0103002D01*
X0061614Y0102947D01*
X0061464Y0102896D01*
X0061313Y0102849D01*
X0061161Y0102806D01*
X0061008Y0102767D01*
X0060853Y0102731D01*
X0060698Y0102700D01*
X0060542Y0102672D01*
X0060386Y0102648D01*
X0060229Y0102628D01*
X0060071Y0102612D01*
X0059914Y0102600D01*
X0059755Y0102592D01*
X0059597Y0102588D01*
X0059439Y0102588D01*
X0059281Y0102592D01*
X0059122Y0102600D01*
X0058965Y0102612D01*
X0058807Y0102628D01*
X0058650Y0102648D01*
X0058494Y0102672D01*
X0058338Y0102700D01*
X0058183Y0102731D01*
X0058028Y0102767D01*
X0057875Y0102806D01*
X0057723Y0102849D01*
X0057572Y0102896D01*
X0057422Y0102947D01*
X0057273Y0103002D01*
X0057126Y0103060D01*
X0056980Y0103122D01*
X0056836Y0103187D01*
X0056694Y0103257D01*
X0056553Y0103329D01*
X0056414Y0103406D01*
X0056278Y0103485D01*
X0056143Y0103569D01*
X0056010Y0103655D01*
X0055880Y0103745D01*
X0055752Y0103838D01*
X0055626Y0103934D01*
X0055503Y0104034D01*
X0055382Y0104136D01*
X0055264Y0104241D01*
X0055149Y0104350D01*
X0055036Y0104461D01*
X0054926Y0104575D01*
X0054819Y0104692D01*
X0054715Y0104811D01*
X0054614Y0104933D01*
X0054517Y0105058D01*
X0054422Y0105185D01*
X0054331Y0105314D01*
X0054242Y0105445D01*
X0054158Y0105579D01*
X0054076Y0105715D01*
X0053998Y0105852D01*
X0053924Y0105992D01*
X0053853Y0106134D01*
X0053785Y0106277D01*
X0053721Y0106422D01*
X0053661Y0106568D01*
X0053605Y0106716D01*
X0053552Y0106865D01*
X0053503Y0107016D01*
X0053458Y0107168D01*
X0053417Y0107321D01*
X0053379Y0107474D01*
X0053346Y0107629D01*
X0053316Y0107785D01*
X0053290Y0107941D01*
X0053269Y0108098D01*
X0053251Y0108255D01*
X0053237Y0108413D01*
X0053227Y0108571D01*
X0053221Y0108729D01*
X0053219Y0108887D01*
D11*
X0110344Y0088099D03*
X0130344Y0088099D03*
X0102156Y0073611D03*
X0091683Y0073611D03*
X0112707Y0067587D03*
X0122707Y0067587D03*
X0122707Y0047587D03*
X0112707Y0047587D03*
X0102156Y0043611D03*
X0091683Y0043611D03*
X0167707Y0086800D03*
X0187707Y0086800D03*
X0204006Y0077587D03*
X0210108Y0062351D03*
X0201132Y0058139D03*
X0220581Y0062351D03*
X0201132Y0038139D03*
X0210108Y0032351D03*
X0220581Y0032351D03*
X0259360Y0097627D03*
X0259360Y0107627D03*
X0204006Y0107587D03*
D12*
X0247707Y0084635D03*
X0247707Y0074635D03*
X0247707Y0054635D03*
X0247707Y0044635D03*
D13*
X0122707Y0102587D03*
D14*
X0132352Y0102587D03*
X0151644Y0102587D03*
X0170935Y0102587D03*
D15*
X0278104Y0075422D02*
X0283844Y0075422D01*
X0283844Y0065580D02*
X0278104Y0065580D01*
X0278104Y0057706D02*
X0283844Y0057706D01*
X0283844Y0047863D02*
X0278104Y0047863D01*
D16*
X0291644Y0035776D03*
X0291644Y0087509D03*
D17*
X0071329Y0084083D03*
X0071329Y0039202D03*
D18*
X0079596Y0047863D03*
X0079596Y0057706D03*
X0079596Y0065580D03*
X0079596Y0075422D03*
D19*
X0087077Y0091957D03*
X0097077Y0091957D03*
X0077077Y0096957D03*
X0107077Y0101957D03*
X0107077Y0111957D03*
X0117077Y0111957D03*
X0127077Y0111957D03*
X0097077Y0111957D03*
X0087077Y0111957D03*
X0077077Y0111957D03*
X0169557Y0111957D03*
X0179557Y0111957D03*
X0189557Y0111957D03*
X0214557Y0111957D03*
X0224557Y0111957D03*
X0234557Y0111957D03*
X0244557Y0111957D03*
X0254557Y0111957D03*
X0264557Y0111957D03*
X0274557Y0111957D03*
X0274557Y0101957D03*
X0264557Y0091957D03*
X0274557Y0086957D03*
X0259557Y0081957D03*
X0234557Y0081957D03*
X0234557Y0092233D03*
X0219557Y0092233D03*
X0209400Y0081997D03*
X0209557Y0071957D03*
X0198494Y0066170D03*
X0177234Y0066170D03*
X0184557Y0076957D03*
X0224557Y0071957D03*
X0229557Y0046957D03*
X0229557Y0036957D03*
X0239557Y0036957D03*
X0254557Y0036957D03*
X0264557Y0036957D03*
X0274557Y0026957D03*
X0274557Y0011957D03*
X0264557Y0011957D03*
X0254557Y0011957D03*
X0244557Y0011957D03*
X0234557Y0011957D03*
X0224557Y0011957D03*
X0214557Y0011957D03*
X0204557Y0011957D03*
X0194557Y0011957D03*
X0184557Y0011957D03*
X0179557Y0016957D03*
X0144715Y0017469D03*
X0137077Y0011957D03*
X0127077Y0011957D03*
X0117077Y0011957D03*
X0107077Y0011957D03*
X0097077Y0011957D03*
X0087077Y0011957D03*
X0077077Y0011957D03*
X0102077Y0021957D03*
X0092077Y0026957D03*
X0082077Y0031957D03*
X0117077Y0021957D03*
X0132077Y0021957D03*
X0229557Y0026957D03*
X0134321Y0063217D03*
X0140738Y0068020D03*
X0132077Y0071957D03*
X0189596Y0099359D03*
D20*
X0203612Y0089202D02*
X0203612Y0079556D01*
X0204006Y0077587D01*
X0203612Y0089202D02*
X0212037Y0097627D01*
X0259360Y0097627D01*
X0271329Y0067154D02*
X0236683Y0067154D01*
X0231880Y0062351D01*
X0220581Y0062351D01*
X0215423Y0056131D02*
X0210108Y0060658D01*
X0210108Y0062351D01*
X0215423Y0056131D02*
X0234321Y0056131D01*
X0239833Y0061643D01*
X0268376Y0061643D01*
X0272904Y0057706D01*
X0280974Y0057706D01*
X0280974Y0065580D02*
X0272904Y0065580D01*
X0271329Y0067154D01*
X0134321Y0063217D02*
X0129596Y0063217D01*
X0126447Y0060068D01*
X0115423Y0060068D01*
X0113061Y0062430D01*
X0113061Y0067233D01*
X0113061Y0067942D01*
X0112274Y0067942D01*
X0102156Y0073611D02*
X0094124Y0065580D01*
X0079596Y0065580D01*
D21*
X0112707Y0067587D02*
X0113061Y0067233D01*
D22*
X0118291Y0070600D02*
X0118058Y0071163D01*
X0116282Y0072938D01*
X0113962Y0073899D01*
X0111451Y0073899D01*
X0109131Y0072938D01*
X0108410Y0072217D01*
X0108467Y0072356D01*
X0108467Y0074867D01*
X0107506Y0077186D01*
X0105731Y0078962D01*
X0103411Y0079923D01*
X0100900Y0079923D01*
X0098580Y0078962D01*
X0096919Y0077301D01*
X0095258Y0078962D01*
X0092939Y0079923D01*
X0090428Y0079923D01*
X0088108Y0078962D01*
X0086332Y0077186D01*
X0085665Y0075576D01*
X0085665Y0076629D01*
X0084741Y0078860D01*
X0083034Y0080567D01*
X0081018Y0081402D01*
X0081018Y0088097D01*
X0075342Y0093773D01*
X0071329Y0093773D01*
X0071329Y0117929D01*
X0126678Y0117929D01*
X0137707Y0107587D01*
X0137707Y0076800D01*
X0149557Y0061800D01*
X0149557Y0011800D01*
X0144215Y0005356D01*
X0071329Y0005356D01*
X0071329Y0029512D01*
X0075342Y0029512D01*
X0081018Y0035188D01*
X0081018Y0042963D01*
X0081554Y0043137D01*
X0082269Y0043501D01*
X0082919Y0043973D01*
X0083487Y0044541D01*
X0083958Y0045190D01*
X0084323Y0045905D01*
X0084571Y0046669D01*
X0084696Y0047462D01*
X0084696Y0047679D01*
X0079781Y0047679D01*
X0079781Y0048047D01*
X0084696Y0048047D01*
X0084696Y0048264D01*
X0084571Y0049057D01*
X0084323Y0049821D01*
X0083958Y0050536D01*
X0083487Y0051185D01*
X0082919Y0051753D01*
X0082269Y0052225D01*
X0082249Y0052236D01*
X0083034Y0052561D01*
X0084741Y0054268D01*
X0085665Y0056498D01*
X0085665Y0058913D01*
X0084741Y0061143D01*
X0084648Y0061236D01*
X0094988Y0061236D01*
X0096584Y0061897D01*
X0101986Y0067299D01*
X0103411Y0067299D01*
X0105731Y0068260D01*
X0106452Y0068982D01*
X0106395Y0068843D01*
X0106395Y0066332D01*
X0107356Y0064012D01*
X0108718Y0062650D01*
X0108718Y0061566D01*
X0109379Y0059970D01*
X0110601Y0058748D01*
X0112963Y0056386D01*
X0114559Y0055724D01*
X0127311Y0055724D01*
X0128907Y0056386D01*
X0130129Y0057607D01*
X0130129Y0057607D01*
X0131395Y0058874D01*
X0135185Y0058874D01*
X0136781Y0059535D01*
X0138003Y0060757D01*
X0138664Y0062353D01*
X0138664Y0064081D01*
X0138003Y0065678D01*
X0136781Y0066899D01*
X0135185Y0067561D01*
X0128733Y0067561D01*
X0128050Y0067278D01*
X0128050Y0067587D01*
X0122707Y0067587D01*
X0122707Y0067587D01*
X0128050Y0067587D01*
X0128050Y0068008D01*
X0127918Y0068839D01*
X0127659Y0069639D01*
X0127277Y0070388D01*
X0126782Y0071068D01*
X0126188Y0071663D01*
X0125507Y0072157D01*
X0124758Y0072539D01*
X0123958Y0072799D01*
X0123127Y0072931D01*
X0122707Y0072931D01*
X0122707Y0067588D01*
X0122707Y0067588D01*
X0122707Y0072931D01*
X0122286Y0072931D01*
X0121455Y0072799D01*
X0120656Y0072539D01*
X0119906Y0072157D01*
X0119226Y0071663D01*
X0118631Y0071068D01*
X0118291Y0070600D01*
X0117897Y0071323D02*
X0118886Y0071323D01*
X0116298Y0072922D02*
X0122231Y0072922D01*
X0122707Y0072922D02*
X0122707Y0072922D01*
X0123183Y0072922D02*
X0140770Y0072922D01*
X0139508Y0074520D02*
X0108467Y0074520D01*
X0108467Y0072922D02*
X0109115Y0072922D01*
X0107949Y0076119D02*
X0138245Y0076119D01*
X0137707Y0077717D02*
X0106975Y0077717D01*
X0104876Y0079316D02*
X0137707Y0079316D01*
X0137707Y0080914D02*
X0082194Y0080914D01*
X0081018Y0082513D02*
X0107337Y0082513D01*
X0106769Y0082748D02*
X0109089Y0081787D01*
X0111600Y0081787D01*
X0113920Y0082748D01*
X0115695Y0084524D01*
X0116656Y0086844D01*
X0116656Y0089355D01*
X0115695Y0091675D01*
X0113920Y0093450D01*
X0111600Y0094411D01*
X0109089Y0094411D01*
X0106769Y0093450D01*
X0104994Y0091675D01*
X0104033Y0089355D01*
X0104033Y0086844D01*
X0104994Y0084524D01*
X0106769Y0082748D01*
X0105406Y0084111D02*
X0081018Y0084111D01*
X0081018Y0085710D02*
X0104502Y0085710D01*
X0104033Y0087309D02*
X0081018Y0087309D01*
X0080209Y0088907D02*
X0104033Y0088907D01*
X0104509Y0090506D02*
X0078610Y0090506D01*
X0077012Y0092104D02*
X0105423Y0092104D01*
X0107379Y0093703D02*
X0075413Y0093703D01*
X0071329Y0095301D02*
X0137707Y0095301D01*
X0137707Y0093703D02*
X0113310Y0093703D01*
X0115266Y0092104D02*
X0126793Y0092104D01*
X0126864Y0092175D02*
X0126269Y0091580D01*
X0125774Y0090900D01*
X0125393Y0090150D01*
X0125133Y0089350D01*
X0125001Y0088520D01*
X0125001Y0088099D01*
X0125001Y0087679D01*
X0125133Y0086848D01*
X0125393Y0086048D01*
X0125774Y0085299D01*
X0126269Y0084618D01*
X0126864Y0084024D01*
X0127544Y0083529D01*
X0128293Y0083147D01*
X0129093Y0082887D01*
X0129924Y0082756D01*
X0130344Y0082756D01*
X0130344Y0088099D01*
X0125001Y0088099D01*
X0130344Y0088099D01*
X0130344Y0088099D01*
X0130345Y0088099D01*
X0130345Y0088099D01*
X0135688Y0088099D01*
X0135688Y0087679D01*
X0135556Y0086848D01*
X0135296Y0086048D01*
X0134914Y0085299D01*
X0134420Y0084618D01*
X0133825Y0084024D01*
X0133145Y0083529D01*
X0132396Y0083147D01*
X0131596Y0082887D01*
X0130765Y0082756D01*
X0130345Y0082756D01*
X0130345Y0088099D01*
X0135688Y0088099D01*
X0135688Y0088520D01*
X0135556Y0089350D01*
X0135296Y0090150D01*
X0134914Y0090900D01*
X0134420Y0091580D01*
X0133825Y0092175D01*
X0133145Y0092669D01*
X0132396Y0093051D01*
X0131596Y0093311D01*
X0130765Y0093443D01*
X0130345Y0093443D01*
X0130345Y0088099D01*
X0130344Y0088099D01*
X0130344Y0093443D01*
X0129924Y0093443D01*
X0129093Y0093311D01*
X0128293Y0093051D01*
X0127544Y0092669D01*
X0126864Y0092175D01*
X0130344Y0092104D02*
X0130345Y0092104D01*
X0133896Y0092104D02*
X0137707Y0092104D01*
X0137707Y0090506D02*
X0135115Y0090506D01*
X0135626Y0088907D02*
X0137707Y0088907D01*
X0137707Y0087309D02*
X0135629Y0087309D01*
X0135124Y0085710D02*
X0137707Y0085710D01*
X0137707Y0084111D02*
X0133913Y0084111D01*
X0130345Y0084111D02*
X0130344Y0084111D01*
X0130344Y0085710D02*
X0130345Y0085710D01*
X0130344Y0087309D02*
X0130345Y0087309D01*
X0130344Y0088907D02*
X0130345Y0088907D01*
X0130344Y0090506D02*
X0130345Y0090506D01*
X0125574Y0090506D02*
X0116180Y0090506D01*
X0116656Y0088907D02*
X0125063Y0088907D01*
X0125060Y0087309D02*
X0116656Y0087309D01*
X0116187Y0085710D02*
X0125565Y0085710D01*
X0126776Y0084111D02*
X0115283Y0084111D01*
X0113352Y0082513D02*
X0137707Y0082513D01*
X0142033Y0071323D02*
X0126527Y0071323D01*
X0122707Y0071323D02*
X0122707Y0071323D01*
X0122707Y0069725D02*
X0122707Y0069725D01*
X0122707Y0068126D02*
X0122707Y0068126D01*
X0127615Y0069725D02*
X0143296Y0069725D01*
X0144559Y0068126D02*
X0128031Y0068126D01*
X0137153Y0066528D02*
X0145822Y0066528D01*
X0147085Y0064929D02*
X0138313Y0064929D01*
X0138664Y0063331D02*
X0148348Y0063331D01*
X0149557Y0061732D02*
X0138407Y0061732D01*
X0137380Y0060134D02*
X0149557Y0060134D01*
X0149557Y0058535D02*
X0131057Y0058535D01*
X0129458Y0056937D02*
X0149557Y0056937D01*
X0149557Y0055338D02*
X0085184Y0055338D01*
X0085665Y0056937D02*
X0112412Y0056937D01*
X0110813Y0058535D02*
X0085665Y0058535D01*
X0085159Y0060134D02*
X0109311Y0060134D01*
X0108718Y0061732D02*
X0096186Y0061732D01*
X0098018Y0063331D02*
X0108037Y0063331D01*
X0106976Y0064929D02*
X0099616Y0064929D01*
X0101215Y0066528D02*
X0106395Y0066528D01*
X0106395Y0068126D02*
X0105408Y0068126D01*
X0110601Y0058748D02*
X0110601Y0058748D01*
X0119131Y0052938D02*
X0121451Y0053899D01*
X0123962Y0053899D01*
X0126282Y0052938D01*
X0128058Y0051163D01*
X0129018Y0048843D01*
X0129018Y0046332D01*
X0128058Y0044012D01*
X0126282Y0042237D01*
X0123962Y0041276D01*
X0121451Y0041276D01*
X0119131Y0042237D01*
X0117356Y0044012D01*
X0117123Y0044575D01*
X0116782Y0044106D01*
X0116188Y0043512D01*
X0115507Y0043017D01*
X0114758Y0042636D01*
X0113958Y0042376D01*
X0113127Y0042244D01*
X0112707Y0042244D01*
X0112707Y0047587D01*
X0112707Y0047587D01*
X0112707Y0042244D01*
X0112286Y0042244D01*
X0111455Y0042376D01*
X0110656Y0042636D01*
X0109906Y0043017D01*
X0109226Y0043512D01*
X0108631Y0044106D01*
X0108467Y0044332D01*
X0108467Y0042356D01*
X0107506Y0040036D01*
X0105731Y0038260D01*
X0103411Y0037299D01*
X0100900Y0037299D01*
X0098580Y0038260D01*
X0096919Y0039921D01*
X0095258Y0038260D01*
X0092939Y0037299D01*
X0090428Y0037299D01*
X0088108Y0038260D01*
X0086332Y0040036D01*
X0085371Y0042356D01*
X0085371Y0044867D01*
X0086332Y0047186D01*
X0088108Y0048962D01*
X0090428Y0049923D01*
X0092939Y0049923D01*
X0095258Y0048962D01*
X0096919Y0047301D01*
X0098580Y0048962D01*
X0100900Y0049923D01*
X0103411Y0049923D01*
X0105731Y0048962D01*
X0107363Y0047329D01*
X0107363Y0047587D01*
X0112707Y0047587D01*
X0112707Y0047587D01*
X0112707Y0047588D02*
X0112707Y0047588D01*
X0112707Y0052931D01*
X0113127Y0052931D01*
X0113958Y0052799D01*
X0114758Y0052539D01*
X0115507Y0052157D01*
X0116188Y0051663D01*
X0116782Y0051068D01*
X0117123Y0050600D01*
X0117356Y0051163D01*
X0119131Y0052938D01*
X0118334Y0052141D02*
X0115529Y0052141D01*
X0112707Y0052141D02*
X0112707Y0052141D01*
X0112707Y0052931D02*
X0112286Y0052931D01*
X0111455Y0052799D01*
X0110656Y0052539D01*
X0109906Y0052157D01*
X0109226Y0051663D01*
X0108631Y0051068D01*
X0108137Y0050388D01*
X0107755Y0049639D01*
X0107495Y0048839D01*
X0107363Y0048008D01*
X0107363Y0047587D01*
X0112707Y0047587D01*
X0112707Y0047588D02*
X0112707Y0052931D01*
X0112707Y0050543D02*
X0112707Y0050543D01*
X0109884Y0052141D02*
X0082385Y0052141D01*
X0083953Y0050543D02*
X0108249Y0050543D01*
X0107529Y0048944D02*
X0105749Y0048944D01*
X0107347Y0047346D02*
X0107363Y0047346D01*
X0108467Y0044149D02*
X0108600Y0044149D01*
X0108467Y0042550D02*
X0110918Y0042550D01*
X0112707Y0042550D02*
X0112707Y0042550D01*
X0112707Y0044149D02*
X0112707Y0044149D01*
X0112707Y0045747D02*
X0112707Y0045747D01*
X0112707Y0047346D02*
X0112707Y0047346D01*
X0112707Y0048944D02*
X0112707Y0048944D01*
X0116813Y0044149D02*
X0117299Y0044149D01*
X0118818Y0042550D02*
X0114495Y0042550D01*
X0107886Y0040952D02*
X0149557Y0040952D01*
X0149557Y0042550D02*
X0126596Y0042550D01*
X0128114Y0044149D02*
X0149557Y0044149D01*
X0149557Y0045747D02*
X0128776Y0045747D01*
X0129018Y0047346D02*
X0149557Y0047346D01*
X0149557Y0048944D02*
X0128977Y0048944D01*
X0128314Y0050543D02*
X0149557Y0050543D01*
X0149557Y0052141D02*
X0127079Y0052141D01*
X0124347Y0053740D02*
X0149557Y0053740D01*
X0173494Y0053740D02*
X0198096Y0053740D01*
X0198331Y0053569D02*
X0199081Y0053187D01*
X0199881Y0052927D01*
X0200711Y0052795D01*
X0201132Y0052795D01*
X0201552Y0052795D01*
X0202383Y0052927D01*
X0203183Y0053187D01*
X0203932Y0053569D01*
X0204613Y0054063D01*
X0205208Y0054658D01*
X0205702Y0055338D01*
X0206084Y0056087D01*
X0206344Y0056887D01*
X0206385Y0057148D01*
X0206533Y0057000D01*
X0208814Y0056056D01*
X0212475Y0052937D01*
X0212963Y0052449D01*
X0213128Y0052380D01*
X0213264Y0052264D01*
X0213921Y0052052D01*
X0214559Y0051787D01*
X0214738Y0051787D01*
X0214908Y0051732D01*
X0215597Y0051787D01*
X0235185Y0051787D01*
X0236781Y0052449D01*
X0241632Y0057299D01*
X0242626Y0057299D01*
X0242390Y0056837D01*
X0242111Y0055978D01*
X0241970Y0055086D01*
X0241970Y0054635D01*
X0247707Y0054635D01*
X0253444Y0054635D01*
X0253444Y0055086D01*
X0253302Y0055978D01*
X0253023Y0056837D01*
X0252788Y0057299D01*
X0266752Y0057299D01*
X0269939Y0054527D01*
X0270443Y0054023D01*
X0270588Y0053964D01*
X0270705Y0053861D01*
X0271381Y0053635D01*
X0272040Y0053362D01*
X0272196Y0053362D01*
X0272344Y0053313D01*
X0273055Y0053362D01*
X0274473Y0053362D01*
X0274910Y0052925D01*
X0275251Y0052784D01*
X0274910Y0052643D01*
X0273324Y0051057D01*
X0272466Y0048985D01*
X0272466Y0046741D01*
X0273324Y0044669D01*
X0274910Y0043083D01*
X0276983Y0042224D01*
X0282352Y0042224D01*
X0282352Y0037637D01*
X0282348Y0037625D01*
X0282348Y0033927D01*
X0282352Y0033916D01*
X0282352Y0005356D01*
X0180726Y0005356D01*
X0173494Y0012587D01*
X0173494Y0072587D01*
X0166157Y0080610D01*
X0166451Y0080488D01*
X0168962Y0080488D01*
X0171282Y0081449D01*
X0173058Y0083225D01*
X0174018Y0085544D01*
X0174018Y0088055D01*
X0173058Y0090375D01*
X0171282Y0092151D01*
X0168962Y0093112D01*
X0166451Y0093112D01*
X0165069Y0092539D01*
X0165069Y0112587D01*
X0171512Y0117929D01*
X0282352Y0117929D01*
X0282352Y0089369D01*
X0282348Y0089358D01*
X0282348Y0085660D01*
X0282352Y0085648D01*
X0282352Y0080092D01*
X0281109Y0080092D01*
X0281109Y0075557D01*
X0280839Y0075557D01*
X0280839Y0075287D01*
X0273434Y0075287D01*
X0273434Y0075054D01*
X0273549Y0074328D01*
X0273776Y0073629D01*
X0274110Y0072974D01*
X0274542Y0072380D01*
X0275062Y0071860D01*
X0275657Y0071428D01*
X0276312Y0071094D01*
X0276520Y0071026D01*
X0274910Y0070360D01*
X0274588Y0070037D01*
X0273789Y0070836D01*
X0272193Y0071498D01*
X0253665Y0071498D01*
X0254412Y0073301D01*
X0254412Y0075968D01*
X0253391Y0078433D01*
X0252190Y0079635D01*
X0253391Y0080836D01*
X0254412Y0083301D01*
X0254412Y0085968D01*
X0253391Y0088433D01*
X0251505Y0090319D01*
X0249041Y0091340D01*
X0246373Y0091340D01*
X0243908Y0090319D01*
X0242022Y0088433D01*
X0241001Y0085968D01*
X0241001Y0083301D01*
X0242022Y0080836D01*
X0243224Y0079635D01*
X0242022Y0078433D01*
X0241001Y0075968D01*
X0241001Y0073301D01*
X0241748Y0071498D01*
X0235819Y0071498D01*
X0234223Y0070836D01*
X0233001Y0069615D01*
X0230081Y0066694D01*
X0225164Y0066694D01*
X0224156Y0067702D01*
X0221836Y0068663D01*
X0219325Y0068663D01*
X0217005Y0067702D01*
X0215344Y0066041D01*
X0213684Y0067702D01*
X0211364Y0068663D01*
X0208853Y0068663D01*
X0206533Y0067702D01*
X0204757Y0065927D01*
X0203796Y0063607D01*
X0203796Y0062778D01*
X0203183Y0063090D01*
X0202383Y0063350D01*
X0201552Y0063482D01*
X0201132Y0063482D01*
X0201132Y0058139D01*
X0201132Y0058139D01*
X0201132Y0063482D01*
X0200711Y0063482D01*
X0199881Y0063350D01*
X0199081Y0063090D01*
X0198331Y0062709D01*
X0197651Y0062214D01*
X0197056Y0061620D01*
X0196562Y0060939D01*
X0196180Y0060190D01*
X0195920Y0059390D01*
X0195789Y0058559D01*
X0195789Y0058139D01*
X0201132Y0058139D01*
X0201132Y0058139D01*
X0195789Y0058139D01*
X0195789Y0057718D01*
X0195920Y0056887D01*
X0196180Y0056087D01*
X0196562Y0055338D01*
X0197056Y0054658D01*
X0197651Y0054063D01*
X0198331Y0053569D01*
X0196562Y0055338D02*
X0173494Y0055338D01*
X0173494Y0056937D02*
X0195912Y0056937D01*
X0195789Y0058535D02*
X0173494Y0058535D01*
X0173494Y0060134D02*
X0196162Y0060134D01*
X0197169Y0061732D02*
X0173494Y0061732D01*
X0173494Y0063331D02*
X0199821Y0063331D01*
X0201132Y0063331D02*
X0201132Y0063331D01*
X0202443Y0063331D02*
X0203796Y0063331D01*
X0204344Y0064929D02*
X0173494Y0064929D01*
X0173494Y0066528D02*
X0205359Y0066528D01*
X0207557Y0068126D02*
X0173494Y0068126D01*
X0173494Y0069725D02*
X0233111Y0069725D01*
X0231513Y0068126D02*
X0223132Y0068126D01*
X0218030Y0068126D02*
X0212659Y0068126D01*
X0214858Y0066528D02*
X0215831Y0066528D01*
X0207581Y0072237D02*
X0205261Y0071276D01*
X0202750Y0071276D01*
X0200431Y0072237D01*
X0198655Y0074012D01*
X0197694Y0076332D01*
X0197694Y0078843D01*
X0198655Y0081163D01*
X0199269Y0081777D01*
X0199269Y0090066D01*
X0199930Y0091662D01*
X0201152Y0092884D01*
X0209577Y0101309D01*
X0211173Y0101970D01*
X0254777Y0101970D01*
X0255785Y0102978D01*
X0256348Y0103211D01*
X0255879Y0103551D01*
X0255285Y0104146D01*
X0254790Y0104826D01*
X0254408Y0105576D01*
X0254148Y0106376D01*
X0254017Y0107206D01*
X0254017Y0107627D01*
X0259360Y0107627D01*
X0259360Y0112970D01*
X0258940Y0112970D01*
X0258109Y0112838D01*
X0257309Y0112579D01*
X0256560Y0112197D01*
X0255879Y0111702D01*
X0255285Y0111108D01*
X0254790Y0110427D01*
X0254408Y0109678D01*
X0254148Y0108878D01*
X0254017Y0108047D01*
X0254017Y0107627D01*
X0259360Y0107627D01*
X0259360Y0107627D01*
X0259360Y0107627D01*
X0259360Y0112970D01*
X0259781Y0112970D01*
X0260611Y0112838D01*
X0261411Y0112579D01*
X0262161Y0112197D01*
X0262841Y0111702D01*
X0263436Y0111108D01*
X0263930Y0110427D01*
X0264312Y0109678D01*
X0264572Y0108878D01*
X0264704Y0108047D01*
X0264704Y0107627D01*
X0259360Y0107627D01*
X0259360Y0107627D01*
X0264704Y0107627D01*
X0264704Y0107206D01*
X0264572Y0106376D01*
X0264312Y0105576D01*
X0263930Y0104826D01*
X0263436Y0104146D01*
X0262841Y0103551D01*
X0262373Y0103211D01*
X0262936Y0102978D01*
X0264711Y0101202D01*
X0265672Y0098882D01*
X0265672Y0096371D01*
X0264711Y0094051D01*
X0262936Y0092276D01*
X0260616Y0091315D01*
X0258105Y0091315D01*
X0255785Y0092276D01*
X0254777Y0093283D01*
X0213836Y0093283D01*
X0207955Y0087403D01*
X0207955Y0082564D01*
X0209357Y0081163D01*
X0210318Y0078843D01*
X0210318Y0076332D01*
X0209357Y0074012D01*
X0207581Y0072237D01*
X0208267Y0072922D02*
X0241158Y0072922D01*
X0241001Y0074520D02*
X0209567Y0074520D01*
X0210229Y0076119D02*
X0241064Y0076119D01*
X0241726Y0077717D02*
X0210318Y0077717D01*
X0210122Y0079316D02*
X0242905Y0079316D01*
X0241990Y0080914D02*
X0209460Y0080914D01*
X0208007Y0082513D02*
X0241328Y0082513D01*
X0241001Y0084111D02*
X0207955Y0084111D01*
X0207955Y0085710D02*
X0241001Y0085710D01*
X0241556Y0087309D02*
X0207955Y0087309D01*
X0209460Y0088907D02*
X0242496Y0088907D01*
X0244358Y0090506D02*
X0211059Y0090506D01*
X0212657Y0092104D02*
X0256200Y0092104D01*
X0251055Y0090506D02*
X0282352Y0090506D01*
X0282348Y0088907D02*
X0252917Y0088907D01*
X0253857Y0087309D02*
X0282348Y0087309D01*
X0282348Y0085710D02*
X0254412Y0085710D01*
X0254412Y0084111D02*
X0282352Y0084111D01*
X0282352Y0082513D02*
X0254086Y0082513D01*
X0253424Y0080914D02*
X0282352Y0080914D01*
X0280839Y0080092D02*
X0277737Y0080092D01*
X0277011Y0079977D01*
X0276312Y0079750D01*
X0275657Y0079416D01*
X0275062Y0078984D01*
X0274542Y0078464D01*
X0274110Y0077870D01*
X0273776Y0077215D01*
X0273549Y0076516D01*
X0273434Y0075790D01*
X0273434Y0075557D01*
X0280839Y0075557D01*
X0280839Y0080092D01*
X0280839Y0079316D02*
X0281109Y0079316D01*
X0281109Y0077717D02*
X0280839Y0077717D01*
X0280839Y0076119D02*
X0281109Y0076119D01*
X0275519Y0079316D02*
X0252508Y0079316D01*
X0253688Y0077717D02*
X0274033Y0077717D01*
X0273486Y0076119D02*
X0254350Y0076119D01*
X0254412Y0074520D02*
X0273519Y0074520D01*
X0274148Y0072922D02*
X0254255Y0072922D01*
X0272613Y0071323D02*
X0275862Y0071323D01*
X0267168Y0056937D02*
X0252972Y0056937D01*
X0253404Y0055338D02*
X0269007Y0055338D01*
X0271068Y0053740D02*
X0253373Y0053740D01*
X0253444Y0054183D02*
X0253444Y0054635D01*
X0247707Y0054635D01*
X0247707Y0054635D01*
X0247707Y0054635D01*
X0247707Y0044635D01*
X0247707Y0044635D01*
X0253444Y0044635D01*
X0253444Y0045086D01*
X0253302Y0045978D01*
X0253023Y0046837D01*
X0252613Y0047641D01*
X0252083Y0048372D01*
X0251444Y0049011D01*
X0250714Y0049541D01*
X0250530Y0049635D01*
X0250714Y0049728D01*
X0251444Y0050259D01*
X0252083Y0050897D01*
X0252613Y0051628D01*
X0253023Y0052432D01*
X0253302Y0053291D01*
X0253444Y0054183D01*
X0252875Y0052141D02*
X0274408Y0052141D01*
X0273111Y0050543D02*
X0251728Y0050543D01*
X0247707Y0050543D02*
X0247707Y0050543D01*
X0247707Y0050372D02*
X0247707Y0044635D01*
X0247707Y0044635D01*
X0253444Y0044635D01*
X0253444Y0044183D01*
X0253302Y0043291D01*
X0253023Y0042432D01*
X0252613Y0041628D01*
X0252083Y0040897D01*
X0251444Y0040259D01*
X0250714Y0039728D01*
X0249909Y0039318D01*
X0249050Y0039039D01*
X0248158Y0038898D01*
X0247707Y0038898D01*
X0247707Y0044635D01*
X0247707Y0044635D01*
X0241970Y0044635D01*
X0241970Y0045086D01*
X0242111Y0045978D01*
X0242390Y0046837D01*
X0242800Y0047641D01*
X0243331Y0048372D01*
X0243969Y0049011D01*
X0244700Y0049541D01*
X0244883Y0049635D01*
X0244700Y0049728D01*
X0243969Y0050259D01*
X0243331Y0050897D01*
X0242800Y0051628D01*
X0242390Y0052432D01*
X0242111Y0053291D01*
X0241970Y0054183D01*
X0241970Y0054635D01*
X0247707Y0054635D01*
X0247707Y0054635D01*
X0247707Y0050372D01*
X0247707Y0048944D02*
X0247707Y0048944D01*
X0247707Y0047346D02*
X0247707Y0047346D01*
X0247707Y0045747D02*
X0247707Y0045747D01*
X0247707Y0044635D02*
X0241970Y0044635D01*
X0241970Y0044183D01*
X0242111Y0043291D01*
X0242390Y0042432D01*
X0242800Y0041628D01*
X0243331Y0040897D01*
X0243969Y0040259D01*
X0244700Y0039728D01*
X0245504Y0039318D01*
X0246363Y0039039D01*
X0247255Y0038898D01*
X0247707Y0038898D01*
X0247707Y0044635D01*
X0247707Y0044635D01*
X0247707Y0044149D02*
X0247707Y0044149D01*
X0247707Y0042550D02*
X0247707Y0042550D01*
X0247707Y0040952D02*
X0247707Y0040952D01*
X0247707Y0039353D02*
X0247707Y0039353D01*
X0249978Y0039353D02*
X0282352Y0039353D01*
X0282352Y0037755D02*
X0224029Y0037755D01*
X0224156Y0037702D02*
X0221836Y0038663D01*
X0219325Y0038663D01*
X0217005Y0037702D01*
X0215344Y0036041D01*
X0213684Y0037702D01*
X0211364Y0038663D01*
X0208853Y0038663D01*
X0207444Y0038079D01*
X0207444Y0039394D01*
X0206483Y0041714D01*
X0204707Y0043489D01*
X0202387Y0044450D01*
X0199876Y0044450D01*
X0197557Y0043489D01*
X0195781Y0041714D01*
X0194820Y0039394D01*
X0194820Y0036883D01*
X0195781Y0034563D01*
X0197557Y0032788D01*
X0199876Y0031827D01*
X0202387Y0031827D01*
X0203796Y0032410D01*
X0203796Y0031096D01*
X0204757Y0028776D01*
X0206533Y0027000D01*
X0208853Y0026039D01*
X0211364Y0026039D01*
X0213684Y0027000D01*
X0215344Y0028661D01*
X0217005Y0027000D01*
X0219325Y0026039D01*
X0221836Y0026039D01*
X0224156Y0027000D01*
X0225932Y0028776D01*
X0226893Y0031096D01*
X0226893Y0033607D01*
X0225932Y0035927D01*
X0224156Y0037702D01*
X0225702Y0036156D02*
X0282348Y0036156D01*
X0282348Y0034558D02*
X0226499Y0034558D01*
X0226893Y0032959D02*
X0282352Y0032959D01*
X0282352Y0031361D02*
X0226893Y0031361D01*
X0226340Y0029762D02*
X0282352Y0029762D01*
X0282352Y0028164D02*
X0225319Y0028164D01*
X0223105Y0026565D02*
X0282352Y0026565D01*
X0282352Y0024967D02*
X0173494Y0024967D01*
X0173494Y0026565D02*
X0207584Y0026565D01*
X0205370Y0028164D02*
X0173494Y0028164D01*
X0173494Y0029762D02*
X0204349Y0029762D01*
X0203796Y0031361D02*
X0173494Y0031361D01*
X0173494Y0032959D02*
X0197385Y0032959D01*
X0195787Y0034558D02*
X0173494Y0034558D01*
X0173494Y0036156D02*
X0195121Y0036156D01*
X0194820Y0037755D02*
X0173494Y0037755D01*
X0173494Y0039353D02*
X0194820Y0039353D01*
X0195465Y0040952D02*
X0173494Y0040952D01*
X0173494Y0042550D02*
X0196617Y0042550D01*
X0199148Y0044149D02*
X0173494Y0044149D01*
X0173494Y0045747D02*
X0242074Y0045747D01*
X0241975Y0044149D02*
X0203116Y0044149D01*
X0205647Y0042550D02*
X0242352Y0042550D01*
X0243291Y0040952D02*
X0206799Y0040952D01*
X0207444Y0039353D02*
X0245435Y0039353D01*
X0252122Y0040952D02*
X0282352Y0040952D01*
X0276196Y0042550D02*
X0253062Y0042550D01*
X0253438Y0044149D02*
X0273844Y0044149D01*
X0272878Y0045747D02*
X0253339Y0045747D01*
X0252764Y0047346D02*
X0272466Y0047346D01*
X0272466Y0048944D02*
X0251510Y0048944D01*
X0243903Y0048944D02*
X0173494Y0048944D01*
X0173494Y0047346D02*
X0242649Y0047346D01*
X0243685Y0050543D02*
X0173494Y0050543D01*
X0173494Y0052141D02*
X0213644Y0052141D01*
X0211532Y0053740D02*
X0204168Y0053740D01*
X0205702Y0055338D02*
X0209656Y0055338D01*
X0206686Y0056937D02*
X0206351Y0056937D01*
X0201132Y0056937D02*
X0201132Y0056937D01*
X0201132Y0058138D02*
X0201132Y0052795D01*
X0201132Y0058138D01*
X0201132Y0058138D01*
X0201132Y0058535D02*
X0201132Y0058535D01*
X0201132Y0060134D02*
X0201132Y0060134D01*
X0201132Y0061732D02*
X0201132Y0061732D01*
X0201132Y0055338D02*
X0201132Y0055338D01*
X0201132Y0053740D02*
X0201132Y0053740D01*
X0236039Y0052141D02*
X0242538Y0052141D01*
X0242040Y0053740D02*
X0238072Y0053740D01*
X0239671Y0055338D02*
X0242010Y0055338D01*
X0242441Y0056937D02*
X0241269Y0056937D01*
X0247707Y0053740D02*
X0247707Y0053740D01*
X0247707Y0052141D02*
X0247707Y0052141D01*
X0217132Y0037755D02*
X0213557Y0037755D01*
X0215230Y0036156D02*
X0215459Y0036156D01*
X0215842Y0028164D02*
X0214847Y0028164D01*
X0212633Y0026565D02*
X0218056Y0026565D01*
X0177100Y0008981D02*
X0282352Y0008981D01*
X0282352Y0010580D02*
X0175502Y0010580D01*
X0173903Y0012178D02*
X0282352Y0012178D01*
X0282352Y0013777D02*
X0173494Y0013777D01*
X0173494Y0015375D02*
X0282352Y0015375D01*
X0282352Y0016974D02*
X0173494Y0016974D01*
X0173494Y0018573D02*
X0282352Y0018573D01*
X0282352Y0020171D02*
X0173494Y0020171D01*
X0173494Y0021770D02*
X0282352Y0021770D01*
X0282352Y0023368D02*
X0173494Y0023368D01*
X0149557Y0023368D02*
X0071329Y0023368D01*
X0071329Y0021770D02*
X0149557Y0021770D01*
X0149557Y0020171D02*
X0071329Y0020171D01*
X0071329Y0018573D02*
X0149557Y0018573D01*
X0149557Y0016974D02*
X0071329Y0016974D01*
X0071329Y0015375D02*
X0149557Y0015375D01*
X0149557Y0013777D02*
X0071329Y0013777D01*
X0071329Y0012178D02*
X0149557Y0012178D01*
X0148546Y0010580D02*
X0071329Y0010580D01*
X0071329Y0008981D02*
X0147220Y0008981D01*
X0145895Y0007383D02*
X0071329Y0007383D01*
X0071329Y0005784D02*
X0144570Y0005784D01*
X0178699Y0007383D02*
X0282352Y0007383D01*
X0282352Y0005784D02*
X0180297Y0005784D01*
X0149557Y0024967D02*
X0071329Y0024967D01*
X0071329Y0026565D02*
X0149557Y0026565D01*
X0149557Y0028164D02*
X0071329Y0028164D01*
X0075593Y0029762D02*
X0149557Y0029762D01*
X0149557Y0031361D02*
X0077191Y0031361D01*
X0078790Y0032959D02*
X0149557Y0032959D01*
X0149557Y0034558D02*
X0080388Y0034558D01*
X0081018Y0036156D02*
X0149557Y0036156D01*
X0149557Y0037755D02*
X0104511Y0037755D01*
X0106824Y0039353D02*
X0149557Y0039353D01*
X0121066Y0053740D02*
X0084213Y0053740D01*
X0084589Y0048944D02*
X0088090Y0048944D01*
X0086492Y0047346D02*
X0084678Y0047346D01*
X0084242Y0045747D02*
X0085736Y0045747D01*
X0085371Y0044149D02*
X0083095Y0044149D01*
X0081018Y0042550D02*
X0085371Y0042550D01*
X0085953Y0040952D02*
X0081018Y0040952D01*
X0081018Y0039353D02*
X0087015Y0039353D01*
X0089328Y0037755D02*
X0081018Y0037755D01*
X0094038Y0037755D02*
X0099800Y0037755D01*
X0097487Y0039353D02*
X0096351Y0039353D01*
X0096875Y0047346D02*
X0096964Y0047346D01*
X0098562Y0048944D02*
X0095276Y0048944D01*
X0085890Y0076119D02*
X0085665Y0076119D01*
X0085214Y0077717D02*
X0086863Y0077717D01*
X0088962Y0079316D02*
X0084285Y0079316D01*
X0094404Y0079316D02*
X0099435Y0079316D01*
X0097336Y0077717D02*
X0096503Y0077717D01*
X0117785Y0098444D02*
X0118564Y0097666D01*
X0119581Y0097244D01*
X0125832Y0097244D01*
X0126850Y0097666D01*
X0127629Y0098444D01*
X0128050Y0099462D01*
X0128050Y0101786D01*
X0128085Y0101563D01*
X0128298Y0100908D01*
X0128611Y0100295D01*
X0129015Y0099737D01*
X0129502Y0099250D01*
X0130059Y0098846D01*
X0130673Y0098533D01*
X0131328Y0098320D01*
X0132008Y0098213D01*
X0132352Y0098213D01*
X0132352Y0102587D01*
X0132352Y0102587D01*
X0132352Y0098213D01*
X0132697Y0098213D01*
X0133377Y0098320D01*
X0134032Y0098533D01*
X0134645Y0098846D01*
X0135202Y0099250D01*
X0135689Y0099737D01*
X0136094Y0100295D01*
X0136407Y0100908D01*
X0136619Y0101563D01*
X0136727Y0102243D01*
X0136727Y0102587D01*
X0132352Y0102587D01*
X0132352Y0102587D01*
X0132352Y0102588D02*
X0132352Y0106962D01*
X0132008Y0106962D01*
X0131328Y0106854D01*
X0130673Y0106642D01*
X0130059Y0106329D01*
X0129502Y0105924D01*
X0129015Y0105437D01*
X0128611Y0104880D01*
X0128298Y0104267D01*
X0128085Y0103612D01*
X0128050Y0103389D01*
X0128050Y0105713D01*
X0127629Y0106730D01*
X0126850Y0107509D01*
X0125832Y0107931D01*
X0119581Y0107931D01*
X0118564Y0107509D01*
X0117785Y0106730D01*
X0117363Y0105713D01*
X0117363Y0099462D01*
X0117785Y0098444D01*
X0117763Y0098498D02*
X0071329Y0098498D01*
X0071329Y0096900D02*
X0137707Y0096900D01*
X0137707Y0098498D02*
X0133924Y0098498D01*
X0132352Y0098498D02*
X0132352Y0098498D01*
X0130781Y0098498D02*
X0127651Y0098498D01*
X0128050Y0100097D02*
X0128754Y0100097D01*
X0128064Y0101695D02*
X0128050Y0101695D01*
X0132352Y0101695D02*
X0132352Y0101695D01*
X0132352Y0102587D02*
X0136727Y0102587D01*
X0136727Y0102932D01*
X0136619Y0103612D01*
X0136407Y0104267D01*
X0136094Y0104880D01*
X0135689Y0105437D01*
X0135202Y0105924D01*
X0134645Y0106329D01*
X0134032Y0106642D01*
X0133377Y0106854D01*
X0132697Y0106962D01*
X0132352Y0106962D01*
X0132352Y0102588D01*
X0132352Y0102588D01*
X0132352Y0103294D02*
X0132352Y0103294D01*
X0132352Y0104892D02*
X0132352Y0104892D01*
X0132352Y0106491D02*
X0132352Y0106491D01*
X0130377Y0106491D02*
X0127728Y0106491D01*
X0128050Y0104892D02*
X0128619Y0104892D01*
X0134328Y0106491D02*
X0137707Y0106491D01*
X0137707Y0104892D02*
X0136085Y0104892D01*
X0136670Y0103294D02*
X0137707Y0103294D01*
X0137707Y0101695D02*
X0136640Y0101695D01*
X0135950Y0100097D02*
X0137707Y0100097D01*
X0132352Y0100097D02*
X0132352Y0100097D01*
X0117363Y0100097D02*
X0071329Y0100097D01*
X0071329Y0101695D02*
X0117363Y0101695D01*
X0117363Y0103294D02*
X0071329Y0103294D01*
X0071329Y0104892D02*
X0117363Y0104892D01*
X0117686Y0106491D02*
X0071329Y0106491D01*
X0071329Y0108089D02*
X0137172Y0108089D01*
X0135467Y0109688D02*
X0071329Y0109688D01*
X0071329Y0111286D02*
X0133762Y0111286D01*
X0132057Y0112885D02*
X0071329Y0112885D01*
X0071329Y0114483D02*
X0130353Y0114483D01*
X0128648Y0116082D02*
X0071329Y0116082D01*
X0071329Y0117680D02*
X0126943Y0117680D01*
X0165069Y0111286D02*
X0198778Y0111286D01*
X0198655Y0111163D02*
X0197694Y0108843D01*
X0197694Y0106332D01*
X0198655Y0104012D01*
X0200431Y0102237D01*
X0202750Y0101276D01*
X0205261Y0101276D01*
X0207581Y0102237D01*
X0209357Y0104012D01*
X0210318Y0106332D01*
X0210318Y0108843D01*
X0209357Y0111163D01*
X0207581Y0112938D01*
X0205261Y0113899D01*
X0202750Y0113899D01*
X0200431Y0112938D01*
X0198655Y0111163D01*
X0198044Y0109688D02*
X0165069Y0109688D01*
X0165069Y0108089D02*
X0197694Y0108089D01*
X0197694Y0106491D02*
X0172911Y0106491D01*
X0172614Y0106642D02*
X0171959Y0106854D01*
X0171279Y0106962D01*
X0170935Y0106962D01*
X0170591Y0106962D01*
X0169911Y0106854D01*
X0169256Y0106642D01*
X0168642Y0106329D01*
X0168085Y0105924D01*
X0167598Y0105437D01*
X0167193Y0104880D01*
X0166881Y0104267D01*
X0166668Y0103612D01*
X0166560Y0102932D01*
X0166560Y0102587D01*
X0166560Y0102243D01*
X0166668Y0101563D01*
X0166881Y0100908D01*
X0167193Y0100295D01*
X0167598Y0099737D01*
X0168085Y0099250D01*
X0168642Y0098846D01*
X0169256Y0098533D01*
X0169911Y0098320D01*
X0170591Y0098213D01*
X0170935Y0098213D01*
X0171279Y0098213D01*
X0171959Y0098320D01*
X0172614Y0098533D01*
X0173228Y0098846D01*
X0173785Y0099250D01*
X0174272Y0099737D01*
X0174677Y0100295D01*
X0174989Y0100908D01*
X0175202Y0101563D01*
X0175310Y0102243D01*
X0175310Y0102587D01*
X0170935Y0102587D01*
X0170935Y0102587D01*
X0170935Y0098213D01*
X0170935Y0102587D01*
X0166560Y0102587D01*
X0170935Y0102587D01*
X0170935Y0102587D01*
X0170935Y0102587D01*
X0175310Y0102587D01*
X0175310Y0102932D01*
X0175202Y0103612D01*
X0174989Y0104267D01*
X0174677Y0104880D01*
X0174272Y0105437D01*
X0173785Y0105924D01*
X0173228Y0106329D01*
X0172614Y0106642D01*
X0170935Y0106491D02*
X0170935Y0106491D01*
X0170935Y0106962D02*
X0170935Y0102588D01*
X0170935Y0102588D01*
X0170935Y0106962D01*
X0168959Y0106491D02*
X0165069Y0106491D01*
X0165069Y0104892D02*
X0167202Y0104892D01*
X0166618Y0103294D02*
X0165069Y0103294D01*
X0165069Y0101695D02*
X0166647Y0101695D01*
X0167337Y0100097D02*
X0165069Y0100097D01*
X0165069Y0098498D02*
X0169363Y0098498D01*
X0170935Y0098498D02*
X0170935Y0098498D01*
X0172507Y0098498D02*
X0206766Y0098498D01*
X0205168Y0096900D02*
X0165069Y0096900D01*
X0165069Y0095301D02*
X0203569Y0095301D01*
X0201971Y0093703D02*
X0165069Y0093703D01*
X0171329Y0092104D02*
X0187038Y0092104D01*
X0187286Y0092143D02*
X0186455Y0092012D01*
X0185656Y0091752D01*
X0184906Y0091370D01*
X0184226Y0090876D01*
X0183631Y0090281D01*
X0183137Y0089600D01*
X0182755Y0088851D01*
X0182495Y0088051D01*
X0182363Y0087221D01*
X0182363Y0086800D01*
X0182363Y0086379D01*
X0182495Y0085549D01*
X0182755Y0084749D01*
X0183137Y0083999D01*
X0183631Y0083319D01*
X0184226Y0082724D01*
X0184906Y0082230D01*
X0185656Y0081848D01*
X0186455Y0081588D01*
X0187286Y0081457D01*
X0187707Y0081457D01*
X0188127Y0081457D01*
X0188958Y0081588D01*
X0189758Y0081848D01*
X0190507Y0082230D01*
X0191188Y0082724D01*
X0191782Y0083319D01*
X0192277Y0083999D01*
X0192659Y0084749D01*
X0192918Y0085549D01*
X0193050Y0086379D01*
X0193050Y0086800D01*
X0193050Y0087221D01*
X0192918Y0088051D01*
X0192659Y0088851D01*
X0192277Y0089600D01*
X0191782Y0090281D01*
X0191188Y0090876D01*
X0190507Y0091370D01*
X0189758Y0091752D01*
X0188958Y0092012D01*
X0188127Y0092143D01*
X0187707Y0092143D01*
X0187707Y0086800D01*
X0193050Y0086800D01*
X0187707Y0086800D01*
X0187707Y0086800D01*
X0187707Y0081457D01*
X0187707Y0086800D01*
X0187707Y0086800D01*
X0187707Y0086800D01*
X0187707Y0092143D01*
X0187286Y0092143D01*
X0187707Y0092104D02*
X0187707Y0092104D01*
X0188375Y0092104D02*
X0200372Y0092104D01*
X0199451Y0090506D02*
X0191558Y0090506D01*
X0192630Y0088907D02*
X0199269Y0088907D01*
X0199269Y0087309D02*
X0193036Y0087309D01*
X0192944Y0085710D02*
X0199269Y0085710D01*
X0199269Y0084111D02*
X0192334Y0084111D01*
X0190897Y0082513D02*
X0199269Y0082513D01*
X0198552Y0080914D02*
X0169991Y0080914D01*
X0172346Y0082513D02*
X0184517Y0082513D01*
X0183080Y0084111D02*
X0173425Y0084111D01*
X0174018Y0085710D02*
X0182469Y0085710D01*
X0182363Y0086800D02*
X0187707Y0086800D01*
X0187707Y0086800D01*
X0182363Y0086800D01*
X0182377Y0087309D02*
X0174018Y0087309D01*
X0173666Y0088907D02*
X0182783Y0088907D01*
X0183856Y0090506D02*
X0172927Y0090506D01*
X0187707Y0090506D02*
X0187707Y0090506D01*
X0187707Y0088907D02*
X0187707Y0088907D01*
X0187707Y0087309D02*
X0187707Y0087309D01*
X0187707Y0085710D02*
X0187707Y0085710D01*
X0187707Y0084111D02*
X0187707Y0084111D01*
X0187707Y0082513D02*
X0187707Y0082513D01*
X0197890Y0079316D02*
X0167341Y0079316D01*
X0168803Y0077717D02*
X0197694Y0077717D01*
X0197782Y0076119D02*
X0170264Y0076119D01*
X0171726Y0074520D02*
X0198444Y0074520D01*
X0199745Y0072922D02*
X0173188Y0072922D01*
X0173494Y0071323D02*
X0202635Y0071323D01*
X0205377Y0071323D02*
X0235398Y0071323D01*
X0262521Y0092104D02*
X0282352Y0092104D01*
X0282352Y0093703D02*
X0264362Y0093703D01*
X0265229Y0095301D02*
X0282352Y0095301D01*
X0282352Y0096900D02*
X0265672Y0096900D01*
X0265672Y0098498D02*
X0282352Y0098498D01*
X0282352Y0100097D02*
X0265169Y0100097D01*
X0264218Y0101695D02*
X0282352Y0101695D01*
X0282352Y0103294D02*
X0262487Y0103294D01*
X0263964Y0104892D02*
X0282352Y0104892D01*
X0282352Y0106491D02*
X0264590Y0106491D01*
X0264697Y0108089D02*
X0282352Y0108089D01*
X0282352Y0109688D02*
X0264307Y0109688D01*
X0263257Y0111286D02*
X0282352Y0111286D01*
X0282352Y0112885D02*
X0260320Y0112885D01*
X0259360Y0112885D02*
X0259360Y0112885D01*
X0258401Y0112885D02*
X0207635Y0112885D01*
X0209233Y0111286D02*
X0255463Y0111286D01*
X0254413Y0109688D02*
X0209968Y0109688D01*
X0210318Y0108089D02*
X0254024Y0108089D01*
X0254130Y0106491D02*
X0210318Y0106491D01*
X0209721Y0104892D02*
X0254757Y0104892D01*
X0256234Y0103294D02*
X0208638Y0103294D01*
X0210510Y0101695D02*
X0206274Y0101695D01*
X0208365Y0100097D02*
X0174533Y0100097D01*
X0175223Y0101695D02*
X0201738Y0101695D01*
X0199373Y0103294D02*
X0175253Y0103294D01*
X0174668Y0104892D02*
X0198290Y0104892D01*
X0200377Y0112885D02*
X0165427Y0112885D01*
X0167356Y0114483D02*
X0282352Y0114483D01*
X0282352Y0116082D02*
X0169284Y0116082D01*
X0171212Y0117680D02*
X0282352Y0117680D01*
X0259360Y0111286D02*
X0259360Y0111286D01*
X0259360Y0109688D02*
X0259360Y0109688D01*
X0259360Y0108089D02*
X0259360Y0108089D01*
X0170935Y0104892D02*
X0170935Y0104892D01*
X0170935Y0103294D02*
X0170935Y0103294D01*
X0170935Y0101695D02*
X0170935Y0101695D01*
X0170935Y0100097D02*
X0170935Y0100097D01*
M02*
