G75*
%MOIN*%
%OFA0B0*%
%FSLAX25Y25*%
%IPPOS*%
%LPD*%
%AMOC8*
5,1,8,0,0,1.08239X$1,22.5*
%
%ADD10C,0.00000*%
D10*
X0047707Y0015186D02*
X0047707Y0109674D01*
X0047720Y0109949D01*
X0047739Y0110225D01*
X0047765Y0110500D01*
X0047798Y0110774D01*
X0047837Y0111047D01*
X0047883Y0111319D01*
X0047936Y0111590D01*
X0047995Y0111860D01*
X0048061Y0112128D01*
X0048133Y0112395D01*
X0048211Y0112659D01*
X0048296Y0112922D01*
X0048387Y0113183D01*
X0048485Y0113441D01*
X0048588Y0113697D01*
X0048698Y0113950D01*
X0048814Y0114201D01*
X0048936Y0114448D01*
X0049064Y0114693D01*
X0049198Y0114934D01*
X0049337Y0115173D01*
X0049482Y0115407D01*
X0049633Y0115639D01*
X0049790Y0115866D01*
X0049951Y0116090D01*
X0050119Y0116309D01*
X0050291Y0116525D01*
X0050469Y0116736D01*
X0050652Y0116943D01*
X0050839Y0117146D01*
X0051032Y0117344D01*
X0051229Y0117537D01*
X0051431Y0117725D01*
X0051637Y0117909D01*
X0051848Y0118087D01*
X0052063Y0118260D01*
X0052282Y0118428D01*
X0052505Y0118591D01*
X0052732Y0118748D01*
X0052962Y0118900D01*
X0053197Y0119046D01*
X0053434Y0119186D01*
X0053675Y0119321D01*
X0053920Y0119450D01*
X0054167Y0119572D01*
X0054417Y0119689D01*
X0054670Y0119800D01*
X0054925Y0119904D01*
X0055183Y0120003D01*
X0055444Y0120095D01*
X0055706Y0120181D01*
X0055970Y0120260D01*
X0056237Y0120333D01*
X0056504Y0120400D01*
X0056774Y0120460D01*
X0057045Y0120513D01*
X0057317Y0120560D01*
X0057590Y0120601D01*
X0057864Y0120634D01*
X0058139Y0120661D01*
X0058414Y0120682D01*
X0058690Y0120696D01*
X0058966Y0120703D01*
X0059242Y0120703D01*
X0059518Y0120697D01*
X0059518Y0120698D02*
X0291801Y0120698D01*
X0285502Y0108887D02*
X0285504Y0109045D01*
X0285510Y0109203D01*
X0285520Y0109361D01*
X0285534Y0109519D01*
X0285552Y0109676D01*
X0285573Y0109833D01*
X0285599Y0109989D01*
X0285629Y0110145D01*
X0285662Y0110300D01*
X0285700Y0110453D01*
X0285741Y0110606D01*
X0285786Y0110758D01*
X0285835Y0110909D01*
X0285888Y0111058D01*
X0285944Y0111206D01*
X0286004Y0111352D01*
X0286068Y0111497D01*
X0286136Y0111640D01*
X0286207Y0111782D01*
X0286281Y0111922D01*
X0286359Y0112059D01*
X0286441Y0112195D01*
X0286525Y0112329D01*
X0286614Y0112460D01*
X0286705Y0112589D01*
X0286800Y0112716D01*
X0286897Y0112841D01*
X0286998Y0112963D01*
X0287102Y0113082D01*
X0287209Y0113199D01*
X0287319Y0113313D01*
X0287432Y0113424D01*
X0287547Y0113533D01*
X0287665Y0113638D01*
X0287786Y0113740D01*
X0287909Y0113840D01*
X0288035Y0113936D01*
X0288163Y0114029D01*
X0288293Y0114119D01*
X0288426Y0114205D01*
X0288561Y0114289D01*
X0288697Y0114368D01*
X0288836Y0114445D01*
X0288977Y0114517D01*
X0289119Y0114587D01*
X0289263Y0114652D01*
X0289409Y0114714D01*
X0289556Y0114772D01*
X0289705Y0114827D01*
X0289855Y0114878D01*
X0290006Y0114925D01*
X0290158Y0114968D01*
X0290311Y0115007D01*
X0290466Y0115043D01*
X0290621Y0115074D01*
X0290777Y0115102D01*
X0290933Y0115126D01*
X0291090Y0115146D01*
X0291248Y0115162D01*
X0291405Y0115174D01*
X0291564Y0115182D01*
X0291722Y0115186D01*
X0291880Y0115186D01*
X0292038Y0115182D01*
X0292197Y0115174D01*
X0292354Y0115162D01*
X0292512Y0115146D01*
X0292669Y0115126D01*
X0292825Y0115102D01*
X0292981Y0115074D01*
X0293136Y0115043D01*
X0293291Y0115007D01*
X0293444Y0114968D01*
X0293596Y0114925D01*
X0293747Y0114878D01*
X0293897Y0114827D01*
X0294046Y0114772D01*
X0294193Y0114714D01*
X0294339Y0114652D01*
X0294483Y0114587D01*
X0294625Y0114517D01*
X0294766Y0114445D01*
X0294905Y0114368D01*
X0295041Y0114289D01*
X0295176Y0114205D01*
X0295309Y0114119D01*
X0295439Y0114029D01*
X0295567Y0113936D01*
X0295693Y0113840D01*
X0295816Y0113740D01*
X0295937Y0113638D01*
X0296055Y0113533D01*
X0296170Y0113424D01*
X0296283Y0113313D01*
X0296393Y0113199D01*
X0296500Y0113082D01*
X0296604Y0112963D01*
X0296705Y0112841D01*
X0296802Y0112716D01*
X0296897Y0112589D01*
X0296988Y0112460D01*
X0297077Y0112329D01*
X0297161Y0112195D01*
X0297243Y0112059D01*
X0297321Y0111922D01*
X0297395Y0111782D01*
X0297466Y0111640D01*
X0297534Y0111497D01*
X0297598Y0111352D01*
X0297658Y0111206D01*
X0297714Y0111058D01*
X0297767Y0110909D01*
X0297816Y0110758D01*
X0297861Y0110606D01*
X0297902Y0110453D01*
X0297940Y0110300D01*
X0297973Y0110145D01*
X0298003Y0109989D01*
X0298029Y0109833D01*
X0298050Y0109676D01*
X0298068Y0109519D01*
X0298082Y0109361D01*
X0298092Y0109203D01*
X0298098Y0109045D01*
X0298100Y0108887D01*
X0298098Y0108729D01*
X0298092Y0108571D01*
X0298082Y0108413D01*
X0298068Y0108255D01*
X0298050Y0108098D01*
X0298029Y0107941D01*
X0298003Y0107785D01*
X0297973Y0107629D01*
X0297940Y0107474D01*
X0297902Y0107321D01*
X0297861Y0107168D01*
X0297816Y0107016D01*
X0297767Y0106865D01*
X0297714Y0106716D01*
X0297658Y0106568D01*
X0297598Y0106422D01*
X0297534Y0106277D01*
X0297466Y0106134D01*
X0297395Y0105992D01*
X0297321Y0105852D01*
X0297243Y0105715D01*
X0297161Y0105579D01*
X0297077Y0105445D01*
X0296988Y0105314D01*
X0296897Y0105185D01*
X0296802Y0105058D01*
X0296705Y0104933D01*
X0296604Y0104811D01*
X0296500Y0104692D01*
X0296393Y0104575D01*
X0296283Y0104461D01*
X0296170Y0104350D01*
X0296055Y0104241D01*
X0295937Y0104136D01*
X0295816Y0104034D01*
X0295693Y0103934D01*
X0295567Y0103838D01*
X0295439Y0103745D01*
X0295309Y0103655D01*
X0295176Y0103569D01*
X0295041Y0103485D01*
X0294905Y0103406D01*
X0294766Y0103329D01*
X0294625Y0103257D01*
X0294483Y0103187D01*
X0294339Y0103122D01*
X0294193Y0103060D01*
X0294046Y0103002D01*
X0293897Y0102947D01*
X0293747Y0102896D01*
X0293596Y0102849D01*
X0293444Y0102806D01*
X0293291Y0102767D01*
X0293136Y0102731D01*
X0292981Y0102700D01*
X0292825Y0102672D01*
X0292669Y0102648D01*
X0292512Y0102628D01*
X0292354Y0102612D01*
X0292197Y0102600D01*
X0292038Y0102592D01*
X0291880Y0102588D01*
X0291722Y0102588D01*
X0291564Y0102592D01*
X0291405Y0102600D01*
X0291248Y0102612D01*
X0291090Y0102628D01*
X0290933Y0102648D01*
X0290777Y0102672D01*
X0290621Y0102700D01*
X0290466Y0102731D01*
X0290311Y0102767D01*
X0290158Y0102806D01*
X0290006Y0102849D01*
X0289855Y0102896D01*
X0289705Y0102947D01*
X0289556Y0103002D01*
X0289409Y0103060D01*
X0289263Y0103122D01*
X0289119Y0103187D01*
X0288977Y0103257D01*
X0288836Y0103329D01*
X0288697Y0103406D01*
X0288561Y0103485D01*
X0288426Y0103569D01*
X0288293Y0103655D01*
X0288163Y0103745D01*
X0288035Y0103838D01*
X0287909Y0103934D01*
X0287786Y0104034D01*
X0287665Y0104136D01*
X0287547Y0104241D01*
X0287432Y0104350D01*
X0287319Y0104461D01*
X0287209Y0104575D01*
X0287102Y0104692D01*
X0286998Y0104811D01*
X0286897Y0104933D01*
X0286800Y0105058D01*
X0286705Y0105185D01*
X0286614Y0105314D01*
X0286525Y0105445D01*
X0286441Y0105579D01*
X0286359Y0105715D01*
X0286281Y0105852D01*
X0286207Y0105992D01*
X0286136Y0106134D01*
X0286068Y0106277D01*
X0286004Y0106422D01*
X0285944Y0106568D01*
X0285888Y0106716D01*
X0285835Y0106865D01*
X0285786Y0107016D01*
X0285741Y0107168D01*
X0285700Y0107321D01*
X0285662Y0107474D01*
X0285629Y0107629D01*
X0285599Y0107785D01*
X0285573Y0107941D01*
X0285552Y0108098D01*
X0285534Y0108255D01*
X0285520Y0108413D01*
X0285510Y0108571D01*
X0285504Y0108729D01*
X0285502Y0108887D01*
X0291801Y0120698D02*
X0292086Y0120695D01*
X0292372Y0120684D01*
X0292657Y0120667D01*
X0292941Y0120643D01*
X0293225Y0120612D01*
X0293508Y0120574D01*
X0293789Y0120529D01*
X0294070Y0120478D01*
X0294350Y0120420D01*
X0294628Y0120355D01*
X0294904Y0120283D01*
X0295178Y0120205D01*
X0295451Y0120120D01*
X0295721Y0120028D01*
X0295989Y0119930D01*
X0296255Y0119826D01*
X0296518Y0119715D01*
X0296778Y0119598D01*
X0297036Y0119475D01*
X0297290Y0119345D01*
X0297541Y0119209D01*
X0297789Y0119068D01*
X0298033Y0118920D01*
X0298274Y0118767D01*
X0298510Y0118607D01*
X0298743Y0118442D01*
X0298972Y0118272D01*
X0299197Y0118096D01*
X0299417Y0117914D01*
X0299633Y0117728D01*
X0299844Y0117536D01*
X0300051Y0117339D01*
X0300253Y0117137D01*
X0300450Y0116930D01*
X0300642Y0116719D01*
X0300828Y0116503D01*
X0301010Y0116283D01*
X0301186Y0116058D01*
X0301356Y0115829D01*
X0301521Y0115596D01*
X0301681Y0115360D01*
X0301834Y0115119D01*
X0301982Y0114875D01*
X0302123Y0114627D01*
X0302259Y0114376D01*
X0302389Y0114122D01*
X0302512Y0113864D01*
X0302629Y0113604D01*
X0302740Y0113341D01*
X0302844Y0113075D01*
X0302942Y0112807D01*
X0303034Y0112537D01*
X0303119Y0112264D01*
X0303197Y0111990D01*
X0303269Y0111714D01*
X0303334Y0111436D01*
X0303392Y0111156D01*
X0303443Y0110875D01*
X0303488Y0110594D01*
X0303526Y0110311D01*
X0303557Y0110027D01*
X0303581Y0109743D01*
X0303598Y0109458D01*
X0303609Y0109172D01*
X0303612Y0108887D01*
X0303612Y0014398D01*
X0285502Y0014398D02*
X0285504Y0014556D01*
X0285510Y0014714D01*
X0285520Y0014872D01*
X0285534Y0015030D01*
X0285552Y0015187D01*
X0285573Y0015344D01*
X0285599Y0015500D01*
X0285629Y0015656D01*
X0285662Y0015811D01*
X0285700Y0015964D01*
X0285741Y0016117D01*
X0285786Y0016269D01*
X0285835Y0016420D01*
X0285888Y0016569D01*
X0285944Y0016717D01*
X0286004Y0016863D01*
X0286068Y0017008D01*
X0286136Y0017151D01*
X0286207Y0017293D01*
X0286281Y0017433D01*
X0286359Y0017570D01*
X0286441Y0017706D01*
X0286525Y0017840D01*
X0286614Y0017971D01*
X0286705Y0018100D01*
X0286800Y0018227D01*
X0286897Y0018352D01*
X0286998Y0018474D01*
X0287102Y0018593D01*
X0287209Y0018710D01*
X0287319Y0018824D01*
X0287432Y0018935D01*
X0287547Y0019044D01*
X0287665Y0019149D01*
X0287786Y0019251D01*
X0287909Y0019351D01*
X0288035Y0019447D01*
X0288163Y0019540D01*
X0288293Y0019630D01*
X0288426Y0019716D01*
X0288561Y0019800D01*
X0288697Y0019879D01*
X0288836Y0019956D01*
X0288977Y0020028D01*
X0289119Y0020098D01*
X0289263Y0020163D01*
X0289409Y0020225D01*
X0289556Y0020283D01*
X0289705Y0020338D01*
X0289855Y0020389D01*
X0290006Y0020436D01*
X0290158Y0020479D01*
X0290311Y0020518D01*
X0290466Y0020554D01*
X0290621Y0020585D01*
X0290777Y0020613D01*
X0290933Y0020637D01*
X0291090Y0020657D01*
X0291248Y0020673D01*
X0291405Y0020685D01*
X0291564Y0020693D01*
X0291722Y0020697D01*
X0291880Y0020697D01*
X0292038Y0020693D01*
X0292197Y0020685D01*
X0292354Y0020673D01*
X0292512Y0020657D01*
X0292669Y0020637D01*
X0292825Y0020613D01*
X0292981Y0020585D01*
X0293136Y0020554D01*
X0293291Y0020518D01*
X0293444Y0020479D01*
X0293596Y0020436D01*
X0293747Y0020389D01*
X0293897Y0020338D01*
X0294046Y0020283D01*
X0294193Y0020225D01*
X0294339Y0020163D01*
X0294483Y0020098D01*
X0294625Y0020028D01*
X0294766Y0019956D01*
X0294905Y0019879D01*
X0295041Y0019800D01*
X0295176Y0019716D01*
X0295309Y0019630D01*
X0295439Y0019540D01*
X0295567Y0019447D01*
X0295693Y0019351D01*
X0295816Y0019251D01*
X0295937Y0019149D01*
X0296055Y0019044D01*
X0296170Y0018935D01*
X0296283Y0018824D01*
X0296393Y0018710D01*
X0296500Y0018593D01*
X0296604Y0018474D01*
X0296705Y0018352D01*
X0296802Y0018227D01*
X0296897Y0018100D01*
X0296988Y0017971D01*
X0297077Y0017840D01*
X0297161Y0017706D01*
X0297243Y0017570D01*
X0297321Y0017433D01*
X0297395Y0017293D01*
X0297466Y0017151D01*
X0297534Y0017008D01*
X0297598Y0016863D01*
X0297658Y0016717D01*
X0297714Y0016569D01*
X0297767Y0016420D01*
X0297816Y0016269D01*
X0297861Y0016117D01*
X0297902Y0015964D01*
X0297940Y0015811D01*
X0297973Y0015656D01*
X0298003Y0015500D01*
X0298029Y0015344D01*
X0298050Y0015187D01*
X0298068Y0015030D01*
X0298082Y0014872D01*
X0298092Y0014714D01*
X0298098Y0014556D01*
X0298100Y0014398D01*
X0298098Y0014240D01*
X0298092Y0014082D01*
X0298082Y0013924D01*
X0298068Y0013766D01*
X0298050Y0013609D01*
X0298029Y0013452D01*
X0298003Y0013296D01*
X0297973Y0013140D01*
X0297940Y0012985D01*
X0297902Y0012832D01*
X0297861Y0012679D01*
X0297816Y0012527D01*
X0297767Y0012376D01*
X0297714Y0012227D01*
X0297658Y0012079D01*
X0297598Y0011933D01*
X0297534Y0011788D01*
X0297466Y0011645D01*
X0297395Y0011503D01*
X0297321Y0011363D01*
X0297243Y0011226D01*
X0297161Y0011090D01*
X0297077Y0010956D01*
X0296988Y0010825D01*
X0296897Y0010696D01*
X0296802Y0010569D01*
X0296705Y0010444D01*
X0296604Y0010322D01*
X0296500Y0010203D01*
X0296393Y0010086D01*
X0296283Y0009972D01*
X0296170Y0009861D01*
X0296055Y0009752D01*
X0295937Y0009647D01*
X0295816Y0009545D01*
X0295693Y0009445D01*
X0295567Y0009349D01*
X0295439Y0009256D01*
X0295309Y0009166D01*
X0295176Y0009080D01*
X0295041Y0008996D01*
X0294905Y0008917D01*
X0294766Y0008840D01*
X0294625Y0008768D01*
X0294483Y0008698D01*
X0294339Y0008633D01*
X0294193Y0008571D01*
X0294046Y0008513D01*
X0293897Y0008458D01*
X0293747Y0008407D01*
X0293596Y0008360D01*
X0293444Y0008317D01*
X0293291Y0008278D01*
X0293136Y0008242D01*
X0292981Y0008211D01*
X0292825Y0008183D01*
X0292669Y0008159D01*
X0292512Y0008139D01*
X0292354Y0008123D01*
X0292197Y0008111D01*
X0292038Y0008103D01*
X0291880Y0008099D01*
X0291722Y0008099D01*
X0291564Y0008103D01*
X0291405Y0008111D01*
X0291248Y0008123D01*
X0291090Y0008139D01*
X0290933Y0008159D01*
X0290777Y0008183D01*
X0290621Y0008211D01*
X0290466Y0008242D01*
X0290311Y0008278D01*
X0290158Y0008317D01*
X0290006Y0008360D01*
X0289855Y0008407D01*
X0289705Y0008458D01*
X0289556Y0008513D01*
X0289409Y0008571D01*
X0289263Y0008633D01*
X0289119Y0008698D01*
X0288977Y0008768D01*
X0288836Y0008840D01*
X0288697Y0008917D01*
X0288561Y0008996D01*
X0288426Y0009080D01*
X0288293Y0009166D01*
X0288163Y0009256D01*
X0288035Y0009349D01*
X0287909Y0009445D01*
X0287786Y0009545D01*
X0287665Y0009647D01*
X0287547Y0009752D01*
X0287432Y0009861D01*
X0287319Y0009972D01*
X0287209Y0010086D01*
X0287102Y0010203D01*
X0286998Y0010322D01*
X0286897Y0010444D01*
X0286800Y0010569D01*
X0286705Y0010696D01*
X0286614Y0010825D01*
X0286525Y0010956D01*
X0286441Y0011090D01*
X0286359Y0011226D01*
X0286281Y0011363D01*
X0286207Y0011503D01*
X0286136Y0011645D01*
X0286068Y0011788D01*
X0286004Y0011933D01*
X0285944Y0012079D01*
X0285888Y0012227D01*
X0285835Y0012376D01*
X0285786Y0012527D01*
X0285741Y0012679D01*
X0285700Y0012832D01*
X0285662Y0012985D01*
X0285629Y0013140D01*
X0285599Y0013296D01*
X0285573Y0013452D01*
X0285552Y0013609D01*
X0285534Y0013766D01*
X0285520Y0013924D01*
X0285510Y0014082D01*
X0285504Y0014240D01*
X0285502Y0014398D01*
X0291801Y0002587D02*
X0292086Y0002590D01*
X0292372Y0002601D01*
X0292657Y0002618D01*
X0292941Y0002642D01*
X0293225Y0002673D01*
X0293508Y0002711D01*
X0293789Y0002756D01*
X0294070Y0002807D01*
X0294350Y0002865D01*
X0294628Y0002930D01*
X0294904Y0003002D01*
X0295178Y0003080D01*
X0295451Y0003165D01*
X0295721Y0003257D01*
X0295989Y0003355D01*
X0296255Y0003459D01*
X0296518Y0003570D01*
X0296778Y0003687D01*
X0297036Y0003810D01*
X0297290Y0003940D01*
X0297541Y0004076D01*
X0297789Y0004217D01*
X0298033Y0004365D01*
X0298274Y0004518D01*
X0298510Y0004678D01*
X0298743Y0004843D01*
X0298972Y0005013D01*
X0299197Y0005189D01*
X0299417Y0005371D01*
X0299633Y0005557D01*
X0299844Y0005749D01*
X0300051Y0005946D01*
X0300253Y0006148D01*
X0300450Y0006355D01*
X0300642Y0006566D01*
X0300828Y0006782D01*
X0301010Y0007002D01*
X0301186Y0007227D01*
X0301356Y0007456D01*
X0301521Y0007689D01*
X0301681Y0007925D01*
X0301834Y0008166D01*
X0301982Y0008410D01*
X0302123Y0008658D01*
X0302259Y0008909D01*
X0302389Y0009163D01*
X0302512Y0009421D01*
X0302629Y0009681D01*
X0302740Y0009944D01*
X0302844Y0010210D01*
X0302942Y0010478D01*
X0303034Y0010748D01*
X0303119Y0011021D01*
X0303197Y0011295D01*
X0303269Y0011571D01*
X0303334Y0011849D01*
X0303392Y0012129D01*
X0303443Y0012410D01*
X0303488Y0012691D01*
X0303526Y0012974D01*
X0303557Y0013258D01*
X0303581Y0013542D01*
X0303598Y0013827D01*
X0303609Y0014113D01*
X0303612Y0014398D01*
X0291801Y0002587D02*
X0059518Y0002587D01*
X0053219Y0014398D02*
X0053221Y0014556D01*
X0053227Y0014714D01*
X0053237Y0014872D01*
X0053251Y0015030D01*
X0053269Y0015187D01*
X0053290Y0015344D01*
X0053316Y0015500D01*
X0053346Y0015656D01*
X0053379Y0015811D01*
X0053417Y0015964D01*
X0053458Y0016117D01*
X0053503Y0016269D01*
X0053552Y0016420D01*
X0053605Y0016569D01*
X0053661Y0016717D01*
X0053721Y0016863D01*
X0053785Y0017008D01*
X0053853Y0017151D01*
X0053924Y0017293D01*
X0053998Y0017433D01*
X0054076Y0017570D01*
X0054158Y0017706D01*
X0054242Y0017840D01*
X0054331Y0017971D01*
X0054422Y0018100D01*
X0054517Y0018227D01*
X0054614Y0018352D01*
X0054715Y0018474D01*
X0054819Y0018593D01*
X0054926Y0018710D01*
X0055036Y0018824D01*
X0055149Y0018935D01*
X0055264Y0019044D01*
X0055382Y0019149D01*
X0055503Y0019251D01*
X0055626Y0019351D01*
X0055752Y0019447D01*
X0055880Y0019540D01*
X0056010Y0019630D01*
X0056143Y0019716D01*
X0056278Y0019800D01*
X0056414Y0019879D01*
X0056553Y0019956D01*
X0056694Y0020028D01*
X0056836Y0020098D01*
X0056980Y0020163D01*
X0057126Y0020225D01*
X0057273Y0020283D01*
X0057422Y0020338D01*
X0057572Y0020389D01*
X0057723Y0020436D01*
X0057875Y0020479D01*
X0058028Y0020518D01*
X0058183Y0020554D01*
X0058338Y0020585D01*
X0058494Y0020613D01*
X0058650Y0020637D01*
X0058807Y0020657D01*
X0058965Y0020673D01*
X0059122Y0020685D01*
X0059281Y0020693D01*
X0059439Y0020697D01*
X0059597Y0020697D01*
X0059755Y0020693D01*
X0059914Y0020685D01*
X0060071Y0020673D01*
X0060229Y0020657D01*
X0060386Y0020637D01*
X0060542Y0020613D01*
X0060698Y0020585D01*
X0060853Y0020554D01*
X0061008Y0020518D01*
X0061161Y0020479D01*
X0061313Y0020436D01*
X0061464Y0020389D01*
X0061614Y0020338D01*
X0061763Y0020283D01*
X0061910Y0020225D01*
X0062056Y0020163D01*
X0062200Y0020098D01*
X0062342Y0020028D01*
X0062483Y0019956D01*
X0062622Y0019879D01*
X0062758Y0019800D01*
X0062893Y0019716D01*
X0063026Y0019630D01*
X0063156Y0019540D01*
X0063284Y0019447D01*
X0063410Y0019351D01*
X0063533Y0019251D01*
X0063654Y0019149D01*
X0063772Y0019044D01*
X0063887Y0018935D01*
X0064000Y0018824D01*
X0064110Y0018710D01*
X0064217Y0018593D01*
X0064321Y0018474D01*
X0064422Y0018352D01*
X0064519Y0018227D01*
X0064614Y0018100D01*
X0064705Y0017971D01*
X0064794Y0017840D01*
X0064878Y0017706D01*
X0064960Y0017570D01*
X0065038Y0017433D01*
X0065112Y0017293D01*
X0065183Y0017151D01*
X0065251Y0017008D01*
X0065315Y0016863D01*
X0065375Y0016717D01*
X0065431Y0016569D01*
X0065484Y0016420D01*
X0065533Y0016269D01*
X0065578Y0016117D01*
X0065619Y0015964D01*
X0065657Y0015811D01*
X0065690Y0015656D01*
X0065720Y0015500D01*
X0065746Y0015344D01*
X0065767Y0015187D01*
X0065785Y0015030D01*
X0065799Y0014872D01*
X0065809Y0014714D01*
X0065815Y0014556D01*
X0065817Y0014398D01*
X0065815Y0014240D01*
X0065809Y0014082D01*
X0065799Y0013924D01*
X0065785Y0013766D01*
X0065767Y0013609D01*
X0065746Y0013452D01*
X0065720Y0013296D01*
X0065690Y0013140D01*
X0065657Y0012985D01*
X0065619Y0012832D01*
X0065578Y0012679D01*
X0065533Y0012527D01*
X0065484Y0012376D01*
X0065431Y0012227D01*
X0065375Y0012079D01*
X0065315Y0011933D01*
X0065251Y0011788D01*
X0065183Y0011645D01*
X0065112Y0011503D01*
X0065038Y0011363D01*
X0064960Y0011226D01*
X0064878Y0011090D01*
X0064794Y0010956D01*
X0064705Y0010825D01*
X0064614Y0010696D01*
X0064519Y0010569D01*
X0064422Y0010444D01*
X0064321Y0010322D01*
X0064217Y0010203D01*
X0064110Y0010086D01*
X0064000Y0009972D01*
X0063887Y0009861D01*
X0063772Y0009752D01*
X0063654Y0009647D01*
X0063533Y0009545D01*
X0063410Y0009445D01*
X0063284Y0009349D01*
X0063156Y0009256D01*
X0063026Y0009166D01*
X0062893Y0009080D01*
X0062758Y0008996D01*
X0062622Y0008917D01*
X0062483Y0008840D01*
X0062342Y0008768D01*
X0062200Y0008698D01*
X0062056Y0008633D01*
X0061910Y0008571D01*
X0061763Y0008513D01*
X0061614Y0008458D01*
X0061464Y0008407D01*
X0061313Y0008360D01*
X0061161Y0008317D01*
X0061008Y0008278D01*
X0060853Y0008242D01*
X0060698Y0008211D01*
X0060542Y0008183D01*
X0060386Y0008159D01*
X0060229Y0008139D01*
X0060071Y0008123D01*
X0059914Y0008111D01*
X0059755Y0008103D01*
X0059597Y0008099D01*
X0059439Y0008099D01*
X0059281Y0008103D01*
X0059122Y0008111D01*
X0058965Y0008123D01*
X0058807Y0008139D01*
X0058650Y0008159D01*
X0058494Y0008183D01*
X0058338Y0008211D01*
X0058183Y0008242D01*
X0058028Y0008278D01*
X0057875Y0008317D01*
X0057723Y0008360D01*
X0057572Y0008407D01*
X0057422Y0008458D01*
X0057273Y0008513D01*
X0057126Y0008571D01*
X0056980Y0008633D01*
X0056836Y0008698D01*
X0056694Y0008768D01*
X0056553Y0008840D01*
X0056414Y0008917D01*
X0056278Y0008996D01*
X0056143Y0009080D01*
X0056010Y0009166D01*
X0055880Y0009256D01*
X0055752Y0009349D01*
X0055626Y0009445D01*
X0055503Y0009545D01*
X0055382Y0009647D01*
X0055264Y0009752D01*
X0055149Y0009861D01*
X0055036Y0009972D01*
X0054926Y0010086D01*
X0054819Y0010203D01*
X0054715Y0010322D01*
X0054614Y0010444D01*
X0054517Y0010569D01*
X0054422Y0010696D01*
X0054331Y0010825D01*
X0054242Y0010956D01*
X0054158Y0011090D01*
X0054076Y0011226D01*
X0053998Y0011363D01*
X0053924Y0011503D01*
X0053853Y0011645D01*
X0053785Y0011788D01*
X0053721Y0011933D01*
X0053661Y0012079D01*
X0053605Y0012227D01*
X0053552Y0012376D01*
X0053503Y0012527D01*
X0053458Y0012679D01*
X0053417Y0012832D01*
X0053379Y0012985D01*
X0053346Y0013140D01*
X0053316Y0013296D01*
X0053290Y0013452D01*
X0053269Y0013609D01*
X0053251Y0013766D01*
X0053237Y0013924D01*
X0053227Y0014082D01*
X0053221Y0014240D01*
X0053219Y0014398D01*
X0047706Y0015186D02*
X0047700Y0014891D01*
X0047702Y0014596D01*
X0047710Y0014301D01*
X0047725Y0014006D01*
X0047748Y0013712D01*
X0047778Y0013418D01*
X0047814Y0013125D01*
X0047858Y0012834D01*
X0047909Y0012543D01*
X0047967Y0012253D01*
X0048032Y0011966D01*
X0048103Y0011679D01*
X0048182Y0011395D01*
X0048268Y0011113D01*
X0048360Y0010832D01*
X0048459Y0010554D01*
X0048565Y0010279D01*
X0048677Y0010006D01*
X0048796Y0009736D01*
X0048921Y0009469D01*
X0049053Y0009205D01*
X0049191Y0008944D01*
X0049336Y0008687D01*
X0049486Y0008433D01*
X0049643Y0008183D01*
X0049806Y0007937D01*
X0049974Y0007695D01*
X0050149Y0007457D01*
X0050329Y0007223D01*
X0050515Y0006994D01*
X0050706Y0006769D01*
X0050902Y0006549D01*
X0051104Y0006333D01*
X0051311Y0006123D01*
X0051523Y0005918D01*
X0051740Y0005718D01*
X0051962Y0005523D01*
X0052188Y0005333D01*
X0052419Y0005150D01*
X0052654Y0004971D01*
X0052893Y0004799D01*
X0053137Y0004632D01*
X0053384Y0004472D01*
X0053636Y0004317D01*
X0053891Y0004168D01*
X0054149Y0004026D01*
X0054411Y0003890D01*
X0054676Y0003760D01*
X0054944Y0003637D01*
X0055215Y0003520D01*
X0055489Y0003410D01*
X0055765Y0003306D01*
X0056044Y0003210D01*
X0056325Y0003119D01*
X0056608Y0003036D01*
X0056893Y0002960D01*
X0057180Y0002890D01*
X0057468Y0002828D01*
X0057758Y0002772D01*
X0058049Y0002724D01*
X0058341Y0002682D01*
X0058634Y0002648D01*
X0058928Y0002621D01*
X0059223Y0002600D01*
X0059517Y0002587D01*
X0069164Y0052784D02*
X0069166Y0052877D01*
X0069172Y0052969D01*
X0069182Y0053061D01*
X0069196Y0053152D01*
X0069213Y0053243D01*
X0069235Y0053333D01*
X0069260Y0053422D01*
X0069289Y0053510D01*
X0069322Y0053596D01*
X0069359Y0053681D01*
X0069399Y0053765D01*
X0069443Y0053846D01*
X0069490Y0053926D01*
X0069540Y0054004D01*
X0069594Y0054079D01*
X0069651Y0054152D01*
X0069711Y0054222D01*
X0069774Y0054290D01*
X0069840Y0054355D01*
X0069908Y0054417D01*
X0069979Y0054477D01*
X0070053Y0054533D01*
X0070129Y0054586D01*
X0070207Y0054635D01*
X0070287Y0054682D01*
X0070369Y0054724D01*
X0070453Y0054764D01*
X0070538Y0054799D01*
X0070625Y0054831D01*
X0070713Y0054860D01*
X0070802Y0054884D01*
X0070892Y0054905D01*
X0070983Y0054921D01*
X0071075Y0054934D01*
X0071167Y0054943D01*
X0071260Y0054948D01*
X0071352Y0054949D01*
X0071445Y0054946D01*
X0071537Y0054939D01*
X0071629Y0054928D01*
X0071720Y0054913D01*
X0071811Y0054895D01*
X0071901Y0054872D01*
X0071989Y0054846D01*
X0072077Y0054816D01*
X0072163Y0054782D01*
X0072247Y0054745D01*
X0072330Y0054703D01*
X0072411Y0054659D01*
X0072491Y0054611D01*
X0072568Y0054560D01*
X0072642Y0054505D01*
X0072715Y0054447D01*
X0072785Y0054387D01*
X0072852Y0054323D01*
X0072916Y0054257D01*
X0072978Y0054187D01*
X0073036Y0054116D01*
X0073091Y0054042D01*
X0073143Y0053965D01*
X0073192Y0053886D01*
X0073238Y0053806D01*
X0073280Y0053723D01*
X0073318Y0053639D01*
X0073353Y0053553D01*
X0073384Y0053466D01*
X0073411Y0053378D01*
X0073434Y0053288D01*
X0073454Y0053198D01*
X0073470Y0053107D01*
X0073482Y0053015D01*
X0073490Y0052923D01*
X0073494Y0052830D01*
X0073494Y0052738D01*
X0073490Y0052645D01*
X0073482Y0052553D01*
X0073470Y0052461D01*
X0073454Y0052370D01*
X0073434Y0052280D01*
X0073411Y0052190D01*
X0073384Y0052102D01*
X0073353Y0052015D01*
X0073318Y0051929D01*
X0073280Y0051845D01*
X0073238Y0051762D01*
X0073192Y0051682D01*
X0073143Y0051603D01*
X0073091Y0051526D01*
X0073036Y0051452D01*
X0072978Y0051381D01*
X0072916Y0051311D01*
X0072852Y0051245D01*
X0072785Y0051181D01*
X0072715Y0051121D01*
X0072642Y0051063D01*
X0072568Y0051008D01*
X0072491Y0050957D01*
X0072412Y0050909D01*
X0072330Y0050865D01*
X0072247Y0050823D01*
X0072163Y0050786D01*
X0072077Y0050752D01*
X0071989Y0050722D01*
X0071901Y0050696D01*
X0071811Y0050673D01*
X0071720Y0050655D01*
X0071629Y0050640D01*
X0071537Y0050629D01*
X0071445Y0050622D01*
X0071352Y0050619D01*
X0071260Y0050620D01*
X0071167Y0050625D01*
X0071075Y0050634D01*
X0070983Y0050647D01*
X0070892Y0050663D01*
X0070802Y0050684D01*
X0070713Y0050708D01*
X0070625Y0050737D01*
X0070538Y0050769D01*
X0070453Y0050804D01*
X0070369Y0050844D01*
X0070287Y0050886D01*
X0070207Y0050933D01*
X0070129Y0050982D01*
X0070053Y0051035D01*
X0069979Y0051091D01*
X0069908Y0051151D01*
X0069840Y0051213D01*
X0069774Y0051278D01*
X0069711Y0051346D01*
X0069651Y0051416D01*
X0069594Y0051489D01*
X0069540Y0051564D01*
X0069490Y0051642D01*
X0069443Y0051722D01*
X0069399Y0051803D01*
X0069359Y0051887D01*
X0069322Y0051972D01*
X0069289Y0052058D01*
X0069260Y0052146D01*
X0069235Y0052235D01*
X0069213Y0052325D01*
X0069196Y0052416D01*
X0069182Y0052507D01*
X0069172Y0052599D01*
X0069166Y0052691D01*
X0069164Y0052784D01*
X0069164Y0070501D02*
X0069166Y0070594D01*
X0069172Y0070686D01*
X0069182Y0070778D01*
X0069196Y0070869D01*
X0069213Y0070960D01*
X0069235Y0071050D01*
X0069260Y0071139D01*
X0069289Y0071227D01*
X0069322Y0071313D01*
X0069359Y0071398D01*
X0069399Y0071482D01*
X0069443Y0071563D01*
X0069490Y0071643D01*
X0069540Y0071721D01*
X0069594Y0071796D01*
X0069651Y0071869D01*
X0069711Y0071939D01*
X0069774Y0072007D01*
X0069840Y0072072D01*
X0069908Y0072134D01*
X0069979Y0072194D01*
X0070053Y0072250D01*
X0070129Y0072303D01*
X0070207Y0072352D01*
X0070287Y0072399D01*
X0070369Y0072441D01*
X0070453Y0072481D01*
X0070538Y0072516D01*
X0070625Y0072548D01*
X0070713Y0072577D01*
X0070802Y0072601D01*
X0070892Y0072622D01*
X0070983Y0072638D01*
X0071075Y0072651D01*
X0071167Y0072660D01*
X0071260Y0072665D01*
X0071352Y0072666D01*
X0071445Y0072663D01*
X0071537Y0072656D01*
X0071629Y0072645D01*
X0071720Y0072630D01*
X0071811Y0072612D01*
X0071901Y0072589D01*
X0071989Y0072563D01*
X0072077Y0072533D01*
X0072163Y0072499D01*
X0072247Y0072462D01*
X0072330Y0072420D01*
X0072411Y0072376D01*
X0072491Y0072328D01*
X0072568Y0072277D01*
X0072642Y0072222D01*
X0072715Y0072164D01*
X0072785Y0072104D01*
X0072852Y0072040D01*
X0072916Y0071974D01*
X0072978Y0071904D01*
X0073036Y0071833D01*
X0073091Y0071759D01*
X0073143Y0071682D01*
X0073192Y0071603D01*
X0073238Y0071523D01*
X0073280Y0071440D01*
X0073318Y0071356D01*
X0073353Y0071270D01*
X0073384Y0071183D01*
X0073411Y0071095D01*
X0073434Y0071005D01*
X0073454Y0070915D01*
X0073470Y0070824D01*
X0073482Y0070732D01*
X0073490Y0070640D01*
X0073494Y0070547D01*
X0073494Y0070455D01*
X0073490Y0070362D01*
X0073482Y0070270D01*
X0073470Y0070178D01*
X0073454Y0070087D01*
X0073434Y0069997D01*
X0073411Y0069907D01*
X0073384Y0069819D01*
X0073353Y0069732D01*
X0073318Y0069646D01*
X0073280Y0069562D01*
X0073238Y0069479D01*
X0073192Y0069399D01*
X0073143Y0069320D01*
X0073091Y0069243D01*
X0073036Y0069169D01*
X0072978Y0069098D01*
X0072916Y0069028D01*
X0072852Y0068962D01*
X0072785Y0068898D01*
X0072715Y0068838D01*
X0072642Y0068780D01*
X0072568Y0068725D01*
X0072491Y0068674D01*
X0072412Y0068626D01*
X0072330Y0068582D01*
X0072247Y0068540D01*
X0072163Y0068503D01*
X0072077Y0068469D01*
X0071989Y0068439D01*
X0071901Y0068413D01*
X0071811Y0068390D01*
X0071720Y0068372D01*
X0071629Y0068357D01*
X0071537Y0068346D01*
X0071445Y0068339D01*
X0071352Y0068336D01*
X0071260Y0068337D01*
X0071167Y0068342D01*
X0071075Y0068351D01*
X0070983Y0068364D01*
X0070892Y0068380D01*
X0070802Y0068401D01*
X0070713Y0068425D01*
X0070625Y0068454D01*
X0070538Y0068486D01*
X0070453Y0068521D01*
X0070369Y0068561D01*
X0070287Y0068603D01*
X0070207Y0068650D01*
X0070129Y0068699D01*
X0070053Y0068752D01*
X0069979Y0068808D01*
X0069908Y0068868D01*
X0069840Y0068930D01*
X0069774Y0068995D01*
X0069711Y0069063D01*
X0069651Y0069133D01*
X0069594Y0069206D01*
X0069540Y0069281D01*
X0069490Y0069359D01*
X0069443Y0069439D01*
X0069399Y0069520D01*
X0069359Y0069604D01*
X0069322Y0069689D01*
X0069289Y0069775D01*
X0069260Y0069863D01*
X0069235Y0069952D01*
X0069213Y0070042D01*
X0069196Y0070133D01*
X0069182Y0070224D01*
X0069172Y0070316D01*
X0069166Y0070408D01*
X0069164Y0070501D01*
X0053219Y0108887D02*
X0053221Y0109045D01*
X0053227Y0109203D01*
X0053237Y0109361D01*
X0053251Y0109519D01*
X0053269Y0109676D01*
X0053290Y0109833D01*
X0053316Y0109989D01*
X0053346Y0110145D01*
X0053379Y0110300D01*
X0053417Y0110453D01*
X0053458Y0110606D01*
X0053503Y0110758D01*
X0053552Y0110909D01*
X0053605Y0111058D01*
X0053661Y0111206D01*
X0053721Y0111352D01*
X0053785Y0111497D01*
X0053853Y0111640D01*
X0053924Y0111782D01*
X0053998Y0111922D01*
X0054076Y0112059D01*
X0054158Y0112195D01*
X0054242Y0112329D01*
X0054331Y0112460D01*
X0054422Y0112589D01*
X0054517Y0112716D01*
X0054614Y0112841D01*
X0054715Y0112963D01*
X0054819Y0113082D01*
X0054926Y0113199D01*
X0055036Y0113313D01*
X0055149Y0113424D01*
X0055264Y0113533D01*
X0055382Y0113638D01*
X0055503Y0113740D01*
X0055626Y0113840D01*
X0055752Y0113936D01*
X0055880Y0114029D01*
X0056010Y0114119D01*
X0056143Y0114205D01*
X0056278Y0114289D01*
X0056414Y0114368D01*
X0056553Y0114445D01*
X0056694Y0114517D01*
X0056836Y0114587D01*
X0056980Y0114652D01*
X0057126Y0114714D01*
X0057273Y0114772D01*
X0057422Y0114827D01*
X0057572Y0114878D01*
X0057723Y0114925D01*
X0057875Y0114968D01*
X0058028Y0115007D01*
X0058183Y0115043D01*
X0058338Y0115074D01*
X0058494Y0115102D01*
X0058650Y0115126D01*
X0058807Y0115146D01*
X0058965Y0115162D01*
X0059122Y0115174D01*
X0059281Y0115182D01*
X0059439Y0115186D01*
X0059597Y0115186D01*
X0059755Y0115182D01*
X0059914Y0115174D01*
X0060071Y0115162D01*
X0060229Y0115146D01*
X0060386Y0115126D01*
X0060542Y0115102D01*
X0060698Y0115074D01*
X0060853Y0115043D01*
X0061008Y0115007D01*
X0061161Y0114968D01*
X0061313Y0114925D01*
X0061464Y0114878D01*
X0061614Y0114827D01*
X0061763Y0114772D01*
X0061910Y0114714D01*
X0062056Y0114652D01*
X0062200Y0114587D01*
X0062342Y0114517D01*
X0062483Y0114445D01*
X0062622Y0114368D01*
X0062758Y0114289D01*
X0062893Y0114205D01*
X0063026Y0114119D01*
X0063156Y0114029D01*
X0063284Y0113936D01*
X0063410Y0113840D01*
X0063533Y0113740D01*
X0063654Y0113638D01*
X0063772Y0113533D01*
X0063887Y0113424D01*
X0064000Y0113313D01*
X0064110Y0113199D01*
X0064217Y0113082D01*
X0064321Y0112963D01*
X0064422Y0112841D01*
X0064519Y0112716D01*
X0064614Y0112589D01*
X0064705Y0112460D01*
X0064794Y0112329D01*
X0064878Y0112195D01*
X0064960Y0112059D01*
X0065038Y0111922D01*
X0065112Y0111782D01*
X0065183Y0111640D01*
X0065251Y0111497D01*
X0065315Y0111352D01*
X0065375Y0111206D01*
X0065431Y0111058D01*
X0065484Y0110909D01*
X0065533Y0110758D01*
X0065578Y0110606D01*
X0065619Y0110453D01*
X0065657Y0110300D01*
X0065690Y0110145D01*
X0065720Y0109989D01*
X0065746Y0109833D01*
X0065767Y0109676D01*
X0065785Y0109519D01*
X0065799Y0109361D01*
X0065809Y0109203D01*
X0065815Y0109045D01*
X0065817Y0108887D01*
X0065815Y0108729D01*
X0065809Y0108571D01*
X0065799Y0108413D01*
X0065785Y0108255D01*
X0065767Y0108098D01*
X0065746Y0107941D01*
X0065720Y0107785D01*
X0065690Y0107629D01*
X0065657Y0107474D01*
X0065619Y0107321D01*
X0065578Y0107168D01*
X0065533Y0107016D01*
X0065484Y0106865D01*
X0065431Y0106716D01*
X0065375Y0106568D01*
X0065315Y0106422D01*
X0065251Y0106277D01*
X0065183Y0106134D01*
X0065112Y0105992D01*
X0065038Y0105852D01*
X0064960Y0105715D01*
X0064878Y0105579D01*
X0064794Y0105445D01*
X0064705Y0105314D01*
X0064614Y0105185D01*
X0064519Y0105058D01*
X0064422Y0104933D01*
X0064321Y0104811D01*
X0064217Y0104692D01*
X0064110Y0104575D01*
X0064000Y0104461D01*
X0063887Y0104350D01*
X0063772Y0104241D01*
X0063654Y0104136D01*
X0063533Y0104034D01*
X0063410Y0103934D01*
X0063284Y0103838D01*
X0063156Y0103745D01*
X0063026Y0103655D01*
X0062893Y0103569D01*
X0062758Y0103485D01*
X0062622Y0103406D01*
X0062483Y0103329D01*
X0062342Y0103257D01*
X0062200Y0103187D01*
X0062056Y0103122D01*
X0061910Y0103060D01*
X0061763Y0103002D01*
X0061614Y0102947D01*
X0061464Y0102896D01*
X0061313Y0102849D01*
X0061161Y0102806D01*
X0061008Y0102767D01*
X0060853Y0102731D01*
X0060698Y0102700D01*
X0060542Y0102672D01*
X0060386Y0102648D01*
X0060229Y0102628D01*
X0060071Y0102612D01*
X0059914Y0102600D01*
X0059755Y0102592D01*
X0059597Y0102588D01*
X0059439Y0102588D01*
X0059281Y0102592D01*
X0059122Y0102600D01*
X0058965Y0102612D01*
X0058807Y0102628D01*
X0058650Y0102648D01*
X0058494Y0102672D01*
X0058338Y0102700D01*
X0058183Y0102731D01*
X0058028Y0102767D01*
X0057875Y0102806D01*
X0057723Y0102849D01*
X0057572Y0102896D01*
X0057422Y0102947D01*
X0057273Y0103002D01*
X0057126Y0103060D01*
X0056980Y0103122D01*
X0056836Y0103187D01*
X0056694Y0103257D01*
X0056553Y0103329D01*
X0056414Y0103406D01*
X0056278Y0103485D01*
X0056143Y0103569D01*
X0056010Y0103655D01*
X0055880Y0103745D01*
X0055752Y0103838D01*
X0055626Y0103934D01*
X0055503Y0104034D01*
X0055382Y0104136D01*
X0055264Y0104241D01*
X0055149Y0104350D01*
X0055036Y0104461D01*
X0054926Y0104575D01*
X0054819Y0104692D01*
X0054715Y0104811D01*
X0054614Y0104933D01*
X0054517Y0105058D01*
X0054422Y0105185D01*
X0054331Y0105314D01*
X0054242Y0105445D01*
X0054158Y0105579D01*
X0054076Y0105715D01*
X0053998Y0105852D01*
X0053924Y0105992D01*
X0053853Y0106134D01*
X0053785Y0106277D01*
X0053721Y0106422D01*
X0053661Y0106568D01*
X0053605Y0106716D01*
X0053552Y0106865D01*
X0053503Y0107016D01*
X0053458Y0107168D01*
X0053417Y0107321D01*
X0053379Y0107474D01*
X0053346Y0107629D01*
X0053316Y0107785D01*
X0053290Y0107941D01*
X0053269Y0108098D01*
X0053251Y0108255D01*
X0053237Y0108413D01*
X0053227Y0108571D01*
X0053221Y0108729D01*
X0053219Y0108887D01*
M02*
