G75*
%MOIN*%
%OFA0B0*%
%FSLAX25Y25*%
%IPPOS*%
%LPD*%
%AMOC8*
5,1,8,0,0,1.08239X$1,22.5*
%
%ADD10C,0.00000*%
%ADD11C,0.07087*%
%ADD12C,0.05200*%
%ADD13OC8,0.05740*%
%ADD14C,0.13055*%
%ADD15C,0.07874*%
%ADD16C,0.06299*%
%ADD17C,0.03150*%
D10*
X0027368Y0017535D02*
X0027368Y0190764D01*
X0032880Y0190764D02*
X0032882Y0190922D01*
X0032888Y0191080D01*
X0032898Y0191238D01*
X0032912Y0191396D01*
X0032930Y0191553D01*
X0032951Y0191710D01*
X0032977Y0191866D01*
X0033007Y0192022D01*
X0033040Y0192177D01*
X0033078Y0192330D01*
X0033119Y0192483D01*
X0033164Y0192635D01*
X0033213Y0192786D01*
X0033266Y0192935D01*
X0033322Y0193083D01*
X0033382Y0193229D01*
X0033446Y0193374D01*
X0033514Y0193517D01*
X0033585Y0193659D01*
X0033659Y0193799D01*
X0033737Y0193936D01*
X0033819Y0194072D01*
X0033903Y0194206D01*
X0033992Y0194337D01*
X0034083Y0194466D01*
X0034178Y0194593D01*
X0034275Y0194718D01*
X0034376Y0194840D01*
X0034480Y0194959D01*
X0034587Y0195076D01*
X0034697Y0195190D01*
X0034810Y0195301D01*
X0034925Y0195410D01*
X0035043Y0195515D01*
X0035164Y0195617D01*
X0035287Y0195717D01*
X0035413Y0195813D01*
X0035541Y0195906D01*
X0035671Y0195996D01*
X0035804Y0196082D01*
X0035939Y0196166D01*
X0036075Y0196245D01*
X0036214Y0196322D01*
X0036355Y0196394D01*
X0036497Y0196464D01*
X0036641Y0196529D01*
X0036787Y0196591D01*
X0036934Y0196649D01*
X0037083Y0196704D01*
X0037233Y0196755D01*
X0037384Y0196802D01*
X0037536Y0196845D01*
X0037689Y0196884D01*
X0037844Y0196920D01*
X0037999Y0196951D01*
X0038155Y0196979D01*
X0038311Y0197003D01*
X0038468Y0197023D01*
X0038626Y0197039D01*
X0038783Y0197051D01*
X0038942Y0197059D01*
X0039100Y0197063D01*
X0039258Y0197063D01*
X0039416Y0197059D01*
X0039575Y0197051D01*
X0039732Y0197039D01*
X0039890Y0197023D01*
X0040047Y0197003D01*
X0040203Y0196979D01*
X0040359Y0196951D01*
X0040514Y0196920D01*
X0040669Y0196884D01*
X0040822Y0196845D01*
X0040974Y0196802D01*
X0041125Y0196755D01*
X0041275Y0196704D01*
X0041424Y0196649D01*
X0041571Y0196591D01*
X0041717Y0196529D01*
X0041861Y0196464D01*
X0042003Y0196394D01*
X0042144Y0196322D01*
X0042283Y0196245D01*
X0042419Y0196166D01*
X0042554Y0196082D01*
X0042687Y0195996D01*
X0042817Y0195906D01*
X0042945Y0195813D01*
X0043071Y0195717D01*
X0043194Y0195617D01*
X0043315Y0195515D01*
X0043433Y0195410D01*
X0043548Y0195301D01*
X0043661Y0195190D01*
X0043771Y0195076D01*
X0043878Y0194959D01*
X0043982Y0194840D01*
X0044083Y0194718D01*
X0044180Y0194593D01*
X0044275Y0194466D01*
X0044366Y0194337D01*
X0044455Y0194206D01*
X0044539Y0194072D01*
X0044621Y0193936D01*
X0044699Y0193799D01*
X0044773Y0193659D01*
X0044844Y0193517D01*
X0044912Y0193374D01*
X0044976Y0193229D01*
X0045036Y0193083D01*
X0045092Y0192935D01*
X0045145Y0192786D01*
X0045194Y0192635D01*
X0045239Y0192483D01*
X0045280Y0192330D01*
X0045318Y0192177D01*
X0045351Y0192022D01*
X0045381Y0191866D01*
X0045407Y0191710D01*
X0045428Y0191553D01*
X0045446Y0191396D01*
X0045460Y0191238D01*
X0045470Y0191080D01*
X0045476Y0190922D01*
X0045478Y0190764D01*
X0045476Y0190606D01*
X0045470Y0190448D01*
X0045460Y0190290D01*
X0045446Y0190132D01*
X0045428Y0189975D01*
X0045407Y0189818D01*
X0045381Y0189662D01*
X0045351Y0189506D01*
X0045318Y0189351D01*
X0045280Y0189198D01*
X0045239Y0189045D01*
X0045194Y0188893D01*
X0045145Y0188742D01*
X0045092Y0188593D01*
X0045036Y0188445D01*
X0044976Y0188299D01*
X0044912Y0188154D01*
X0044844Y0188011D01*
X0044773Y0187869D01*
X0044699Y0187729D01*
X0044621Y0187592D01*
X0044539Y0187456D01*
X0044455Y0187322D01*
X0044366Y0187191D01*
X0044275Y0187062D01*
X0044180Y0186935D01*
X0044083Y0186810D01*
X0043982Y0186688D01*
X0043878Y0186569D01*
X0043771Y0186452D01*
X0043661Y0186338D01*
X0043548Y0186227D01*
X0043433Y0186118D01*
X0043315Y0186013D01*
X0043194Y0185911D01*
X0043071Y0185811D01*
X0042945Y0185715D01*
X0042817Y0185622D01*
X0042687Y0185532D01*
X0042554Y0185446D01*
X0042419Y0185362D01*
X0042283Y0185283D01*
X0042144Y0185206D01*
X0042003Y0185134D01*
X0041861Y0185064D01*
X0041717Y0184999D01*
X0041571Y0184937D01*
X0041424Y0184879D01*
X0041275Y0184824D01*
X0041125Y0184773D01*
X0040974Y0184726D01*
X0040822Y0184683D01*
X0040669Y0184644D01*
X0040514Y0184608D01*
X0040359Y0184577D01*
X0040203Y0184549D01*
X0040047Y0184525D01*
X0039890Y0184505D01*
X0039732Y0184489D01*
X0039575Y0184477D01*
X0039416Y0184469D01*
X0039258Y0184465D01*
X0039100Y0184465D01*
X0038942Y0184469D01*
X0038783Y0184477D01*
X0038626Y0184489D01*
X0038468Y0184505D01*
X0038311Y0184525D01*
X0038155Y0184549D01*
X0037999Y0184577D01*
X0037844Y0184608D01*
X0037689Y0184644D01*
X0037536Y0184683D01*
X0037384Y0184726D01*
X0037233Y0184773D01*
X0037083Y0184824D01*
X0036934Y0184879D01*
X0036787Y0184937D01*
X0036641Y0184999D01*
X0036497Y0185064D01*
X0036355Y0185134D01*
X0036214Y0185206D01*
X0036075Y0185283D01*
X0035939Y0185362D01*
X0035804Y0185446D01*
X0035671Y0185532D01*
X0035541Y0185622D01*
X0035413Y0185715D01*
X0035287Y0185811D01*
X0035164Y0185911D01*
X0035043Y0186013D01*
X0034925Y0186118D01*
X0034810Y0186227D01*
X0034697Y0186338D01*
X0034587Y0186452D01*
X0034480Y0186569D01*
X0034376Y0186688D01*
X0034275Y0186810D01*
X0034178Y0186935D01*
X0034083Y0187062D01*
X0033992Y0187191D01*
X0033903Y0187322D01*
X0033819Y0187456D01*
X0033737Y0187592D01*
X0033659Y0187729D01*
X0033585Y0187869D01*
X0033514Y0188011D01*
X0033446Y0188154D01*
X0033382Y0188299D01*
X0033322Y0188445D01*
X0033266Y0188593D01*
X0033213Y0188742D01*
X0033164Y0188893D01*
X0033119Y0189045D01*
X0033078Y0189198D01*
X0033040Y0189351D01*
X0033007Y0189506D01*
X0032977Y0189662D01*
X0032951Y0189818D01*
X0032930Y0189975D01*
X0032912Y0190132D01*
X0032898Y0190290D01*
X0032888Y0190448D01*
X0032882Y0190606D01*
X0032880Y0190764D01*
X0027368Y0190764D02*
X0027371Y0191049D01*
X0027382Y0191335D01*
X0027399Y0191620D01*
X0027423Y0191904D01*
X0027454Y0192188D01*
X0027492Y0192471D01*
X0027537Y0192752D01*
X0027588Y0193033D01*
X0027646Y0193313D01*
X0027711Y0193591D01*
X0027783Y0193867D01*
X0027861Y0194141D01*
X0027946Y0194414D01*
X0028038Y0194684D01*
X0028136Y0194952D01*
X0028240Y0195218D01*
X0028351Y0195481D01*
X0028468Y0195741D01*
X0028591Y0195999D01*
X0028721Y0196253D01*
X0028857Y0196504D01*
X0028998Y0196752D01*
X0029146Y0196996D01*
X0029299Y0197237D01*
X0029459Y0197473D01*
X0029624Y0197706D01*
X0029794Y0197935D01*
X0029970Y0198160D01*
X0030152Y0198380D01*
X0030338Y0198596D01*
X0030530Y0198807D01*
X0030727Y0199014D01*
X0030929Y0199216D01*
X0031136Y0199413D01*
X0031347Y0199605D01*
X0031563Y0199791D01*
X0031783Y0199973D01*
X0032008Y0200149D01*
X0032237Y0200319D01*
X0032470Y0200484D01*
X0032706Y0200644D01*
X0032947Y0200797D01*
X0033191Y0200945D01*
X0033439Y0201086D01*
X0033690Y0201222D01*
X0033944Y0201352D01*
X0034202Y0201475D01*
X0034462Y0201592D01*
X0034725Y0201703D01*
X0034991Y0201807D01*
X0035259Y0201905D01*
X0035529Y0201997D01*
X0035802Y0202082D01*
X0036076Y0202160D01*
X0036352Y0202232D01*
X0036630Y0202297D01*
X0036910Y0202355D01*
X0037191Y0202406D01*
X0037472Y0202451D01*
X0037755Y0202489D01*
X0038039Y0202520D01*
X0038323Y0202544D01*
X0038608Y0202561D01*
X0038894Y0202572D01*
X0039179Y0202575D01*
X0212407Y0202575D01*
X0206108Y0190764D02*
X0206110Y0190922D01*
X0206116Y0191080D01*
X0206126Y0191238D01*
X0206140Y0191396D01*
X0206158Y0191553D01*
X0206179Y0191710D01*
X0206205Y0191866D01*
X0206235Y0192022D01*
X0206268Y0192177D01*
X0206306Y0192330D01*
X0206347Y0192483D01*
X0206392Y0192635D01*
X0206441Y0192786D01*
X0206494Y0192935D01*
X0206550Y0193083D01*
X0206610Y0193229D01*
X0206674Y0193374D01*
X0206742Y0193517D01*
X0206813Y0193659D01*
X0206887Y0193799D01*
X0206965Y0193936D01*
X0207047Y0194072D01*
X0207131Y0194206D01*
X0207220Y0194337D01*
X0207311Y0194466D01*
X0207406Y0194593D01*
X0207503Y0194718D01*
X0207604Y0194840D01*
X0207708Y0194959D01*
X0207815Y0195076D01*
X0207925Y0195190D01*
X0208038Y0195301D01*
X0208153Y0195410D01*
X0208271Y0195515D01*
X0208392Y0195617D01*
X0208515Y0195717D01*
X0208641Y0195813D01*
X0208769Y0195906D01*
X0208899Y0195996D01*
X0209032Y0196082D01*
X0209167Y0196166D01*
X0209303Y0196245D01*
X0209442Y0196322D01*
X0209583Y0196394D01*
X0209725Y0196464D01*
X0209869Y0196529D01*
X0210015Y0196591D01*
X0210162Y0196649D01*
X0210311Y0196704D01*
X0210461Y0196755D01*
X0210612Y0196802D01*
X0210764Y0196845D01*
X0210917Y0196884D01*
X0211072Y0196920D01*
X0211227Y0196951D01*
X0211383Y0196979D01*
X0211539Y0197003D01*
X0211696Y0197023D01*
X0211854Y0197039D01*
X0212011Y0197051D01*
X0212170Y0197059D01*
X0212328Y0197063D01*
X0212486Y0197063D01*
X0212644Y0197059D01*
X0212803Y0197051D01*
X0212960Y0197039D01*
X0213118Y0197023D01*
X0213275Y0197003D01*
X0213431Y0196979D01*
X0213587Y0196951D01*
X0213742Y0196920D01*
X0213897Y0196884D01*
X0214050Y0196845D01*
X0214202Y0196802D01*
X0214353Y0196755D01*
X0214503Y0196704D01*
X0214652Y0196649D01*
X0214799Y0196591D01*
X0214945Y0196529D01*
X0215089Y0196464D01*
X0215231Y0196394D01*
X0215372Y0196322D01*
X0215511Y0196245D01*
X0215647Y0196166D01*
X0215782Y0196082D01*
X0215915Y0195996D01*
X0216045Y0195906D01*
X0216173Y0195813D01*
X0216299Y0195717D01*
X0216422Y0195617D01*
X0216543Y0195515D01*
X0216661Y0195410D01*
X0216776Y0195301D01*
X0216889Y0195190D01*
X0216999Y0195076D01*
X0217106Y0194959D01*
X0217210Y0194840D01*
X0217311Y0194718D01*
X0217408Y0194593D01*
X0217503Y0194466D01*
X0217594Y0194337D01*
X0217683Y0194206D01*
X0217767Y0194072D01*
X0217849Y0193936D01*
X0217927Y0193799D01*
X0218001Y0193659D01*
X0218072Y0193517D01*
X0218140Y0193374D01*
X0218204Y0193229D01*
X0218264Y0193083D01*
X0218320Y0192935D01*
X0218373Y0192786D01*
X0218422Y0192635D01*
X0218467Y0192483D01*
X0218508Y0192330D01*
X0218546Y0192177D01*
X0218579Y0192022D01*
X0218609Y0191866D01*
X0218635Y0191710D01*
X0218656Y0191553D01*
X0218674Y0191396D01*
X0218688Y0191238D01*
X0218698Y0191080D01*
X0218704Y0190922D01*
X0218706Y0190764D01*
X0218704Y0190606D01*
X0218698Y0190448D01*
X0218688Y0190290D01*
X0218674Y0190132D01*
X0218656Y0189975D01*
X0218635Y0189818D01*
X0218609Y0189662D01*
X0218579Y0189506D01*
X0218546Y0189351D01*
X0218508Y0189198D01*
X0218467Y0189045D01*
X0218422Y0188893D01*
X0218373Y0188742D01*
X0218320Y0188593D01*
X0218264Y0188445D01*
X0218204Y0188299D01*
X0218140Y0188154D01*
X0218072Y0188011D01*
X0218001Y0187869D01*
X0217927Y0187729D01*
X0217849Y0187592D01*
X0217767Y0187456D01*
X0217683Y0187322D01*
X0217594Y0187191D01*
X0217503Y0187062D01*
X0217408Y0186935D01*
X0217311Y0186810D01*
X0217210Y0186688D01*
X0217106Y0186569D01*
X0216999Y0186452D01*
X0216889Y0186338D01*
X0216776Y0186227D01*
X0216661Y0186118D01*
X0216543Y0186013D01*
X0216422Y0185911D01*
X0216299Y0185811D01*
X0216173Y0185715D01*
X0216045Y0185622D01*
X0215915Y0185532D01*
X0215782Y0185446D01*
X0215647Y0185362D01*
X0215511Y0185283D01*
X0215372Y0185206D01*
X0215231Y0185134D01*
X0215089Y0185064D01*
X0214945Y0184999D01*
X0214799Y0184937D01*
X0214652Y0184879D01*
X0214503Y0184824D01*
X0214353Y0184773D01*
X0214202Y0184726D01*
X0214050Y0184683D01*
X0213897Y0184644D01*
X0213742Y0184608D01*
X0213587Y0184577D01*
X0213431Y0184549D01*
X0213275Y0184525D01*
X0213118Y0184505D01*
X0212960Y0184489D01*
X0212803Y0184477D01*
X0212644Y0184469D01*
X0212486Y0184465D01*
X0212328Y0184465D01*
X0212170Y0184469D01*
X0212011Y0184477D01*
X0211854Y0184489D01*
X0211696Y0184505D01*
X0211539Y0184525D01*
X0211383Y0184549D01*
X0211227Y0184577D01*
X0211072Y0184608D01*
X0210917Y0184644D01*
X0210764Y0184683D01*
X0210612Y0184726D01*
X0210461Y0184773D01*
X0210311Y0184824D01*
X0210162Y0184879D01*
X0210015Y0184937D01*
X0209869Y0184999D01*
X0209725Y0185064D01*
X0209583Y0185134D01*
X0209442Y0185206D01*
X0209303Y0185283D01*
X0209167Y0185362D01*
X0209032Y0185446D01*
X0208899Y0185532D01*
X0208769Y0185622D01*
X0208641Y0185715D01*
X0208515Y0185811D01*
X0208392Y0185911D01*
X0208271Y0186013D01*
X0208153Y0186118D01*
X0208038Y0186227D01*
X0207925Y0186338D01*
X0207815Y0186452D01*
X0207708Y0186569D01*
X0207604Y0186688D01*
X0207503Y0186810D01*
X0207406Y0186935D01*
X0207311Y0187062D01*
X0207220Y0187191D01*
X0207131Y0187322D01*
X0207047Y0187456D01*
X0206965Y0187592D01*
X0206887Y0187729D01*
X0206813Y0187869D01*
X0206742Y0188011D01*
X0206674Y0188154D01*
X0206610Y0188299D01*
X0206550Y0188445D01*
X0206494Y0188593D01*
X0206441Y0188742D01*
X0206392Y0188893D01*
X0206347Y0189045D01*
X0206306Y0189198D01*
X0206268Y0189351D01*
X0206235Y0189506D01*
X0206205Y0189662D01*
X0206179Y0189818D01*
X0206158Y0189975D01*
X0206140Y0190132D01*
X0206126Y0190290D01*
X0206116Y0190448D01*
X0206110Y0190606D01*
X0206108Y0190764D01*
X0212407Y0202575D02*
X0212692Y0202572D01*
X0212978Y0202561D01*
X0213263Y0202544D01*
X0213547Y0202520D01*
X0213831Y0202489D01*
X0214114Y0202451D01*
X0214395Y0202406D01*
X0214676Y0202355D01*
X0214956Y0202297D01*
X0215234Y0202232D01*
X0215510Y0202160D01*
X0215784Y0202082D01*
X0216057Y0201997D01*
X0216327Y0201905D01*
X0216595Y0201807D01*
X0216861Y0201703D01*
X0217124Y0201592D01*
X0217384Y0201475D01*
X0217642Y0201352D01*
X0217896Y0201222D01*
X0218147Y0201086D01*
X0218395Y0200945D01*
X0218639Y0200797D01*
X0218880Y0200644D01*
X0219116Y0200484D01*
X0219349Y0200319D01*
X0219578Y0200149D01*
X0219803Y0199973D01*
X0220023Y0199791D01*
X0220239Y0199605D01*
X0220450Y0199413D01*
X0220657Y0199216D01*
X0220859Y0199014D01*
X0221056Y0198807D01*
X0221248Y0198596D01*
X0221434Y0198380D01*
X0221616Y0198160D01*
X0221792Y0197935D01*
X0221962Y0197706D01*
X0222127Y0197473D01*
X0222287Y0197237D01*
X0222440Y0196996D01*
X0222588Y0196752D01*
X0222729Y0196504D01*
X0222865Y0196253D01*
X0222995Y0195999D01*
X0223118Y0195741D01*
X0223235Y0195481D01*
X0223346Y0195218D01*
X0223450Y0194952D01*
X0223548Y0194684D01*
X0223640Y0194414D01*
X0223725Y0194141D01*
X0223803Y0193867D01*
X0223875Y0193591D01*
X0223940Y0193313D01*
X0223998Y0193033D01*
X0224049Y0192752D01*
X0224094Y0192471D01*
X0224132Y0192188D01*
X0224163Y0191904D01*
X0224187Y0191620D01*
X0224204Y0191335D01*
X0224215Y0191049D01*
X0224218Y0190764D01*
X0224219Y0190764D02*
X0224219Y0017535D01*
X0206108Y0017535D02*
X0206110Y0017693D01*
X0206116Y0017851D01*
X0206126Y0018009D01*
X0206140Y0018167D01*
X0206158Y0018324D01*
X0206179Y0018481D01*
X0206205Y0018637D01*
X0206235Y0018793D01*
X0206268Y0018948D01*
X0206306Y0019101D01*
X0206347Y0019254D01*
X0206392Y0019406D01*
X0206441Y0019557D01*
X0206494Y0019706D01*
X0206550Y0019854D01*
X0206610Y0020000D01*
X0206674Y0020145D01*
X0206742Y0020288D01*
X0206813Y0020430D01*
X0206887Y0020570D01*
X0206965Y0020707D01*
X0207047Y0020843D01*
X0207131Y0020977D01*
X0207220Y0021108D01*
X0207311Y0021237D01*
X0207406Y0021364D01*
X0207503Y0021489D01*
X0207604Y0021611D01*
X0207708Y0021730D01*
X0207815Y0021847D01*
X0207925Y0021961D01*
X0208038Y0022072D01*
X0208153Y0022181D01*
X0208271Y0022286D01*
X0208392Y0022388D01*
X0208515Y0022488D01*
X0208641Y0022584D01*
X0208769Y0022677D01*
X0208899Y0022767D01*
X0209032Y0022853D01*
X0209167Y0022937D01*
X0209303Y0023016D01*
X0209442Y0023093D01*
X0209583Y0023165D01*
X0209725Y0023235D01*
X0209869Y0023300D01*
X0210015Y0023362D01*
X0210162Y0023420D01*
X0210311Y0023475D01*
X0210461Y0023526D01*
X0210612Y0023573D01*
X0210764Y0023616D01*
X0210917Y0023655D01*
X0211072Y0023691D01*
X0211227Y0023722D01*
X0211383Y0023750D01*
X0211539Y0023774D01*
X0211696Y0023794D01*
X0211854Y0023810D01*
X0212011Y0023822D01*
X0212170Y0023830D01*
X0212328Y0023834D01*
X0212486Y0023834D01*
X0212644Y0023830D01*
X0212803Y0023822D01*
X0212960Y0023810D01*
X0213118Y0023794D01*
X0213275Y0023774D01*
X0213431Y0023750D01*
X0213587Y0023722D01*
X0213742Y0023691D01*
X0213897Y0023655D01*
X0214050Y0023616D01*
X0214202Y0023573D01*
X0214353Y0023526D01*
X0214503Y0023475D01*
X0214652Y0023420D01*
X0214799Y0023362D01*
X0214945Y0023300D01*
X0215089Y0023235D01*
X0215231Y0023165D01*
X0215372Y0023093D01*
X0215511Y0023016D01*
X0215647Y0022937D01*
X0215782Y0022853D01*
X0215915Y0022767D01*
X0216045Y0022677D01*
X0216173Y0022584D01*
X0216299Y0022488D01*
X0216422Y0022388D01*
X0216543Y0022286D01*
X0216661Y0022181D01*
X0216776Y0022072D01*
X0216889Y0021961D01*
X0216999Y0021847D01*
X0217106Y0021730D01*
X0217210Y0021611D01*
X0217311Y0021489D01*
X0217408Y0021364D01*
X0217503Y0021237D01*
X0217594Y0021108D01*
X0217683Y0020977D01*
X0217767Y0020843D01*
X0217849Y0020707D01*
X0217927Y0020570D01*
X0218001Y0020430D01*
X0218072Y0020288D01*
X0218140Y0020145D01*
X0218204Y0020000D01*
X0218264Y0019854D01*
X0218320Y0019706D01*
X0218373Y0019557D01*
X0218422Y0019406D01*
X0218467Y0019254D01*
X0218508Y0019101D01*
X0218546Y0018948D01*
X0218579Y0018793D01*
X0218609Y0018637D01*
X0218635Y0018481D01*
X0218656Y0018324D01*
X0218674Y0018167D01*
X0218688Y0018009D01*
X0218698Y0017851D01*
X0218704Y0017693D01*
X0218706Y0017535D01*
X0218704Y0017377D01*
X0218698Y0017219D01*
X0218688Y0017061D01*
X0218674Y0016903D01*
X0218656Y0016746D01*
X0218635Y0016589D01*
X0218609Y0016433D01*
X0218579Y0016277D01*
X0218546Y0016122D01*
X0218508Y0015969D01*
X0218467Y0015816D01*
X0218422Y0015664D01*
X0218373Y0015513D01*
X0218320Y0015364D01*
X0218264Y0015216D01*
X0218204Y0015070D01*
X0218140Y0014925D01*
X0218072Y0014782D01*
X0218001Y0014640D01*
X0217927Y0014500D01*
X0217849Y0014363D01*
X0217767Y0014227D01*
X0217683Y0014093D01*
X0217594Y0013962D01*
X0217503Y0013833D01*
X0217408Y0013706D01*
X0217311Y0013581D01*
X0217210Y0013459D01*
X0217106Y0013340D01*
X0216999Y0013223D01*
X0216889Y0013109D01*
X0216776Y0012998D01*
X0216661Y0012889D01*
X0216543Y0012784D01*
X0216422Y0012682D01*
X0216299Y0012582D01*
X0216173Y0012486D01*
X0216045Y0012393D01*
X0215915Y0012303D01*
X0215782Y0012217D01*
X0215647Y0012133D01*
X0215511Y0012054D01*
X0215372Y0011977D01*
X0215231Y0011905D01*
X0215089Y0011835D01*
X0214945Y0011770D01*
X0214799Y0011708D01*
X0214652Y0011650D01*
X0214503Y0011595D01*
X0214353Y0011544D01*
X0214202Y0011497D01*
X0214050Y0011454D01*
X0213897Y0011415D01*
X0213742Y0011379D01*
X0213587Y0011348D01*
X0213431Y0011320D01*
X0213275Y0011296D01*
X0213118Y0011276D01*
X0212960Y0011260D01*
X0212803Y0011248D01*
X0212644Y0011240D01*
X0212486Y0011236D01*
X0212328Y0011236D01*
X0212170Y0011240D01*
X0212011Y0011248D01*
X0211854Y0011260D01*
X0211696Y0011276D01*
X0211539Y0011296D01*
X0211383Y0011320D01*
X0211227Y0011348D01*
X0211072Y0011379D01*
X0210917Y0011415D01*
X0210764Y0011454D01*
X0210612Y0011497D01*
X0210461Y0011544D01*
X0210311Y0011595D01*
X0210162Y0011650D01*
X0210015Y0011708D01*
X0209869Y0011770D01*
X0209725Y0011835D01*
X0209583Y0011905D01*
X0209442Y0011977D01*
X0209303Y0012054D01*
X0209167Y0012133D01*
X0209032Y0012217D01*
X0208899Y0012303D01*
X0208769Y0012393D01*
X0208641Y0012486D01*
X0208515Y0012582D01*
X0208392Y0012682D01*
X0208271Y0012784D01*
X0208153Y0012889D01*
X0208038Y0012998D01*
X0207925Y0013109D01*
X0207815Y0013223D01*
X0207708Y0013340D01*
X0207604Y0013459D01*
X0207503Y0013581D01*
X0207406Y0013706D01*
X0207311Y0013833D01*
X0207220Y0013962D01*
X0207131Y0014093D01*
X0207047Y0014227D01*
X0206965Y0014363D01*
X0206887Y0014500D01*
X0206813Y0014640D01*
X0206742Y0014782D01*
X0206674Y0014925D01*
X0206610Y0015070D01*
X0206550Y0015216D01*
X0206494Y0015364D01*
X0206441Y0015513D01*
X0206392Y0015664D01*
X0206347Y0015816D01*
X0206306Y0015969D01*
X0206268Y0016122D01*
X0206235Y0016277D01*
X0206205Y0016433D01*
X0206179Y0016589D01*
X0206158Y0016746D01*
X0206140Y0016903D01*
X0206126Y0017061D01*
X0206116Y0017219D01*
X0206110Y0017377D01*
X0206108Y0017535D01*
X0212407Y0005724D02*
X0212692Y0005727D01*
X0212978Y0005738D01*
X0213263Y0005755D01*
X0213547Y0005779D01*
X0213831Y0005810D01*
X0214114Y0005848D01*
X0214395Y0005893D01*
X0214676Y0005944D01*
X0214956Y0006002D01*
X0215234Y0006067D01*
X0215510Y0006139D01*
X0215784Y0006217D01*
X0216057Y0006302D01*
X0216327Y0006394D01*
X0216595Y0006492D01*
X0216861Y0006596D01*
X0217124Y0006707D01*
X0217384Y0006824D01*
X0217642Y0006947D01*
X0217896Y0007077D01*
X0218147Y0007213D01*
X0218395Y0007354D01*
X0218639Y0007502D01*
X0218880Y0007655D01*
X0219116Y0007815D01*
X0219349Y0007980D01*
X0219578Y0008150D01*
X0219803Y0008326D01*
X0220023Y0008508D01*
X0220239Y0008694D01*
X0220450Y0008886D01*
X0220657Y0009083D01*
X0220859Y0009285D01*
X0221056Y0009492D01*
X0221248Y0009703D01*
X0221434Y0009919D01*
X0221616Y0010139D01*
X0221792Y0010364D01*
X0221962Y0010593D01*
X0222127Y0010826D01*
X0222287Y0011062D01*
X0222440Y0011303D01*
X0222588Y0011547D01*
X0222729Y0011795D01*
X0222865Y0012046D01*
X0222995Y0012300D01*
X0223118Y0012558D01*
X0223235Y0012818D01*
X0223346Y0013081D01*
X0223450Y0013347D01*
X0223548Y0013615D01*
X0223640Y0013885D01*
X0223725Y0014158D01*
X0223803Y0014432D01*
X0223875Y0014708D01*
X0223940Y0014986D01*
X0223998Y0015266D01*
X0224049Y0015547D01*
X0224094Y0015828D01*
X0224132Y0016111D01*
X0224163Y0016395D01*
X0224187Y0016679D01*
X0224204Y0016964D01*
X0224215Y0017250D01*
X0224218Y0017535D01*
X0212407Y0005724D02*
X0039179Y0005724D01*
X0032880Y0017535D02*
X0032882Y0017693D01*
X0032888Y0017851D01*
X0032898Y0018009D01*
X0032912Y0018167D01*
X0032930Y0018324D01*
X0032951Y0018481D01*
X0032977Y0018637D01*
X0033007Y0018793D01*
X0033040Y0018948D01*
X0033078Y0019101D01*
X0033119Y0019254D01*
X0033164Y0019406D01*
X0033213Y0019557D01*
X0033266Y0019706D01*
X0033322Y0019854D01*
X0033382Y0020000D01*
X0033446Y0020145D01*
X0033514Y0020288D01*
X0033585Y0020430D01*
X0033659Y0020570D01*
X0033737Y0020707D01*
X0033819Y0020843D01*
X0033903Y0020977D01*
X0033992Y0021108D01*
X0034083Y0021237D01*
X0034178Y0021364D01*
X0034275Y0021489D01*
X0034376Y0021611D01*
X0034480Y0021730D01*
X0034587Y0021847D01*
X0034697Y0021961D01*
X0034810Y0022072D01*
X0034925Y0022181D01*
X0035043Y0022286D01*
X0035164Y0022388D01*
X0035287Y0022488D01*
X0035413Y0022584D01*
X0035541Y0022677D01*
X0035671Y0022767D01*
X0035804Y0022853D01*
X0035939Y0022937D01*
X0036075Y0023016D01*
X0036214Y0023093D01*
X0036355Y0023165D01*
X0036497Y0023235D01*
X0036641Y0023300D01*
X0036787Y0023362D01*
X0036934Y0023420D01*
X0037083Y0023475D01*
X0037233Y0023526D01*
X0037384Y0023573D01*
X0037536Y0023616D01*
X0037689Y0023655D01*
X0037844Y0023691D01*
X0037999Y0023722D01*
X0038155Y0023750D01*
X0038311Y0023774D01*
X0038468Y0023794D01*
X0038626Y0023810D01*
X0038783Y0023822D01*
X0038942Y0023830D01*
X0039100Y0023834D01*
X0039258Y0023834D01*
X0039416Y0023830D01*
X0039575Y0023822D01*
X0039732Y0023810D01*
X0039890Y0023794D01*
X0040047Y0023774D01*
X0040203Y0023750D01*
X0040359Y0023722D01*
X0040514Y0023691D01*
X0040669Y0023655D01*
X0040822Y0023616D01*
X0040974Y0023573D01*
X0041125Y0023526D01*
X0041275Y0023475D01*
X0041424Y0023420D01*
X0041571Y0023362D01*
X0041717Y0023300D01*
X0041861Y0023235D01*
X0042003Y0023165D01*
X0042144Y0023093D01*
X0042283Y0023016D01*
X0042419Y0022937D01*
X0042554Y0022853D01*
X0042687Y0022767D01*
X0042817Y0022677D01*
X0042945Y0022584D01*
X0043071Y0022488D01*
X0043194Y0022388D01*
X0043315Y0022286D01*
X0043433Y0022181D01*
X0043548Y0022072D01*
X0043661Y0021961D01*
X0043771Y0021847D01*
X0043878Y0021730D01*
X0043982Y0021611D01*
X0044083Y0021489D01*
X0044180Y0021364D01*
X0044275Y0021237D01*
X0044366Y0021108D01*
X0044455Y0020977D01*
X0044539Y0020843D01*
X0044621Y0020707D01*
X0044699Y0020570D01*
X0044773Y0020430D01*
X0044844Y0020288D01*
X0044912Y0020145D01*
X0044976Y0020000D01*
X0045036Y0019854D01*
X0045092Y0019706D01*
X0045145Y0019557D01*
X0045194Y0019406D01*
X0045239Y0019254D01*
X0045280Y0019101D01*
X0045318Y0018948D01*
X0045351Y0018793D01*
X0045381Y0018637D01*
X0045407Y0018481D01*
X0045428Y0018324D01*
X0045446Y0018167D01*
X0045460Y0018009D01*
X0045470Y0017851D01*
X0045476Y0017693D01*
X0045478Y0017535D01*
X0045476Y0017377D01*
X0045470Y0017219D01*
X0045460Y0017061D01*
X0045446Y0016903D01*
X0045428Y0016746D01*
X0045407Y0016589D01*
X0045381Y0016433D01*
X0045351Y0016277D01*
X0045318Y0016122D01*
X0045280Y0015969D01*
X0045239Y0015816D01*
X0045194Y0015664D01*
X0045145Y0015513D01*
X0045092Y0015364D01*
X0045036Y0015216D01*
X0044976Y0015070D01*
X0044912Y0014925D01*
X0044844Y0014782D01*
X0044773Y0014640D01*
X0044699Y0014500D01*
X0044621Y0014363D01*
X0044539Y0014227D01*
X0044455Y0014093D01*
X0044366Y0013962D01*
X0044275Y0013833D01*
X0044180Y0013706D01*
X0044083Y0013581D01*
X0043982Y0013459D01*
X0043878Y0013340D01*
X0043771Y0013223D01*
X0043661Y0013109D01*
X0043548Y0012998D01*
X0043433Y0012889D01*
X0043315Y0012784D01*
X0043194Y0012682D01*
X0043071Y0012582D01*
X0042945Y0012486D01*
X0042817Y0012393D01*
X0042687Y0012303D01*
X0042554Y0012217D01*
X0042419Y0012133D01*
X0042283Y0012054D01*
X0042144Y0011977D01*
X0042003Y0011905D01*
X0041861Y0011835D01*
X0041717Y0011770D01*
X0041571Y0011708D01*
X0041424Y0011650D01*
X0041275Y0011595D01*
X0041125Y0011544D01*
X0040974Y0011497D01*
X0040822Y0011454D01*
X0040669Y0011415D01*
X0040514Y0011379D01*
X0040359Y0011348D01*
X0040203Y0011320D01*
X0040047Y0011296D01*
X0039890Y0011276D01*
X0039732Y0011260D01*
X0039575Y0011248D01*
X0039416Y0011240D01*
X0039258Y0011236D01*
X0039100Y0011236D01*
X0038942Y0011240D01*
X0038783Y0011248D01*
X0038626Y0011260D01*
X0038468Y0011276D01*
X0038311Y0011296D01*
X0038155Y0011320D01*
X0037999Y0011348D01*
X0037844Y0011379D01*
X0037689Y0011415D01*
X0037536Y0011454D01*
X0037384Y0011497D01*
X0037233Y0011544D01*
X0037083Y0011595D01*
X0036934Y0011650D01*
X0036787Y0011708D01*
X0036641Y0011770D01*
X0036497Y0011835D01*
X0036355Y0011905D01*
X0036214Y0011977D01*
X0036075Y0012054D01*
X0035939Y0012133D01*
X0035804Y0012217D01*
X0035671Y0012303D01*
X0035541Y0012393D01*
X0035413Y0012486D01*
X0035287Y0012582D01*
X0035164Y0012682D01*
X0035043Y0012784D01*
X0034925Y0012889D01*
X0034810Y0012998D01*
X0034697Y0013109D01*
X0034587Y0013223D01*
X0034480Y0013340D01*
X0034376Y0013459D01*
X0034275Y0013581D01*
X0034178Y0013706D01*
X0034083Y0013833D01*
X0033992Y0013962D01*
X0033903Y0014093D01*
X0033819Y0014227D01*
X0033737Y0014363D01*
X0033659Y0014500D01*
X0033585Y0014640D01*
X0033514Y0014782D01*
X0033446Y0014925D01*
X0033382Y0015070D01*
X0033322Y0015216D01*
X0033266Y0015364D01*
X0033213Y0015513D01*
X0033164Y0015664D01*
X0033119Y0015816D01*
X0033078Y0015969D01*
X0033040Y0016122D01*
X0033007Y0016277D01*
X0032977Y0016433D01*
X0032951Y0016589D01*
X0032930Y0016746D01*
X0032912Y0016903D01*
X0032898Y0017061D01*
X0032888Y0017219D01*
X0032882Y0017377D01*
X0032880Y0017535D01*
X0027368Y0017535D02*
X0027371Y0017250D01*
X0027382Y0016964D01*
X0027399Y0016679D01*
X0027423Y0016395D01*
X0027454Y0016111D01*
X0027492Y0015828D01*
X0027537Y0015547D01*
X0027588Y0015266D01*
X0027646Y0014986D01*
X0027711Y0014708D01*
X0027783Y0014432D01*
X0027861Y0014158D01*
X0027946Y0013885D01*
X0028038Y0013615D01*
X0028136Y0013347D01*
X0028240Y0013081D01*
X0028351Y0012818D01*
X0028468Y0012558D01*
X0028591Y0012300D01*
X0028721Y0012046D01*
X0028857Y0011795D01*
X0028998Y0011547D01*
X0029146Y0011303D01*
X0029299Y0011062D01*
X0029459Y0010826D01*
X0029624Y0010593D01*
X0029794Y0010364D01*
X0029970Y0010139D01*
X0030152Y0009919D01*
X0030338Y0009703D01*
X0030530Y0009492D01*
X0030727Y0009285D01*
X0030929Y0009083D01*
X0031136Y0008886D01*
X0031347Y0008694D01*
X0031563Y0008508D01*
X0031783Y0008326D01*
X0032008Y0008150D01*
X0032237Y0007980D01*
X0032470Y0007815D01*
X0032706Y0007655D01*
X0032947Y0007502D01*
X0033191Y0007354D01*
X0033439Y0007213D01*
X0033690Y0007077D01*
X0033944Y0006947D01*
X0034202Y0006824D01*
X0034462Y0006707D01*
X0034725Y0006596D01*
X0034991Y0006492D01*
X0035259Y0006394D01*
X0035529Y0006302D01*
X0035802Y0006217D01*
X0036076Y0006139D01*
X0036352Y0006067D01*
X0036630Y0006002D01*
X0036910Y0005944D01*
X0037191Y0005893D01*
X0037472Y0005848D01*
X0037755Y0005810D01*
X0038039Y0005779D01*
X0038323Y0005755D01*
X0038608Y0005738D01*
X0038894Y0005727D01*
X0039179Y0005724D01*
D11*
X0119868Y0074937D03*
X0130656Y0074937D03*
X0146581Y0064937D03*
X0144219Y0047575D03*
X0164219Y0047575D03*
X0176581Y0064937D03*
X0184219Y0047575D03*
X0194219Y0027575D03*
X0194219Y0017575D03*
X0184219Y0017575D03*
X0174219Y0017575D03*
X0174219Y0027575D03*
X0164219Y0017575D03*
X0154219Y0017575D03*
X0154219Y0027575D03*
X0144219Y0017575D03*
X0134219Y0017575D03*
X0134219Y0027575D03*
X0124219Y0017575D03*
X0124219Y0047575D03*
X0119868Y0104937D03*
X0130656Y0104937D03*
X0144219Y0122575D03*
X0159219Y0137575D03*
X0144219Y0142575D03*
X0189219Y0137575D03*
X0217368Y0102575D03*
X0217368Y0082575D03*
D12*
X0207368Y0080175D02*
X0207368Y0074975D01*
X0197368Y0074975D02*
X0197368Y0080175D01*
X0187368Y0080175D02*
X0187368Y0074975D01*
X0177368Y0074975D02*
X0177368Y0080175D01*
X0167368Y0080175D02*
X0167368Y0074975D01*
X0157368Y0074975D02*
X0157368Y0080175D01*
X0147368Y0080175D02*
X0147368Y0074975D01*
X0147368Y0104975D02*
X0147368Y0110175D01*
X0157368Y0110175D02*
X0157368Y0104975D01*
X0167368Y0104975D02*
X0167368Y0110175D01*
X0177368Y0110175D02*
X0177368Y0104975D01*
X0187368Y0104975D02*
X0187368Y0110175D01*
X0197368Y0110175D02*
X0197368Y0104975D01*
X0207368Y0104975D02*
X0207368Y0110175D01*
D13*
X0169140Y0154031D03*
X0169140Y0161906D03*
X0159297Y0161906D03*
X0159297Y0154031D03*
D14*
X0140518Y0172575D03*
X0187919Y0172575D03*
D15*
X0214219Y0157575D03*
X0214219Y0147575D03*
X0214219Y0137575D03*
X0214219Y0127575D03*
D16*
X0071368Y0145724D03*
X0061368Y0145724D03*
X0051368Y0145724D03*
X0041368Y0145724D03*
D17*
X0041368Y0145724D01*
X0041368Y0140000D01*
X0040918Y0140000D01*
X0040028Y0140141D01*
X0039171Y0140419D01*
X0038368Y0140828D01*
X0037639Y0141358D01*
X0037002Y0141995D01*
X0036472Y0142724D01*
X0036063Y0143527D01*
X0035785Y0144384D01*
X0035644Y0145274D01*
X0035644Y0145724D01*
X0041368Y0145724D01*
X0041368Y0140000D01*
X0041819Y0140000D01*
X0042709Y0140141D01*
X0043566Y0140419D01*
X0044368Y0140828D01*
X0045097Y0141358D01*
X0045688Y0141949D01*
X0045694Y0141933D01*
X0046250Y0141377D01*
X0046250Y0103706D01*
X0047029Y0101825D01*
X0076029Y0072825D01*
X0077469Y0071385D01*
X0079350Y0070606D01*
X0114177Y0070606D01*
X0115854Y0068929D01*
X0118458Y0067850D01*
X0121278Y0067850D01*
X0123882Y0068929D01*
X0125262Y0070309D01*
X0126641Y0068929D01*
X0129246Y0067850D01*
X0132065Y0067850D01*
X0134670Y0068929D01*
X0136663Y0070923D01*
X0137742Y0073527D01*
X0137742Y0076347D01*
X0136663Y0078951D01*
X0134670Y0080945D01*
X0132065Y0082024D01*
X0129246Y0082024D01*
X0126641Y0080945D01*
X0126539Y0080843D01*
X0123985Y0080843D01*
X0123882Y0080945D01*
X0121278Y0082024D01*
X0118458Y0082024D01*
X0115854Y0080945D01*
X0115752Y0080843D01*
X0082488Y0080843D01*
X0056486Y0106844D01*
X0056486Y0141141D01*
X0057577Y0140050D01*
X0060037Y0139031D01*
X0062699Y0139031D01*
X0065159Y0140050D01*
X0066250Y0141141D01*
X0066250Y0117706D01*
X0067029Y0115825D01*
X0093029Y0089825D01*
X0094469Y0088385D01*
X0096350Y0087606D01*
X0125748Y0087606D01*
X0125895Y0087460D01*
X0126182Y0087031D01*
X0126607Y0086747D01*
X0126969Y0086385D01*
X0127446Y0086188D01*
X0134107Y0081747D01*
X0134469Y0081385D01*
X0134946Y0081188D01*
X0135376Y0080901D01*
X0135878Y0080802D01*
X0136350Y0080606D01*
X0136867Y0080606D01*
X0137374Y0080506D01*
X0137875Y0080606D01*
X0141225Y0080606D01*
X0141225Y0073753D01*
X0142160Y0071495D01*
X0142668Y0070987D01*
X0142566Y0070945D01*
X0140573Y0068951D01*
X0139494Y0066347D01*
X0139494Y0063527D01*
X0139571Y0063343D01*
X0136350Y0063343D01*
X0134469Y0062563D01*
X0133029Y0061124D01*
X0126292Y0054386D01*
X0125628Y0054661D01*
X0122809Y0054661D01*
X0120204Y0053583D01*
X0118211Y0051589D01*
X0117132Y0048984D01*
X0117132Y0046165D01*
X0118211Y0043561D01*
X0120204Y0041567D01*
X0122809Y0040488D01*
X0125628Y0040488D01*
X0128233Y0041567D01*
X0130226Y0043561D01*
X0130427Y0044045D01*
X0139488Y0053106D01*
X0139728Y0053106D01*
X0138211Y0051589D01*
X0137132Y0048984D01*
X0137132Y0046165D01*
X0138211Y0043561D01*
X0140204Y0041567D01*
X0142809Y0040488D01*
X0145628Y0040488D01*
X0148233Y0041567D01*
X0150226Y0043561D01*
X0151074Y0045606D01*
X0155886Y0045606D01*
X0157147Y0046129D01*
X0158211Y0043561D01*
X0160204Y0041567D01*
X0162809Y0040488D01*
X0165628Y0040488D01*
X0168233Y0041567D01*
X0169122Y0042457D01*
X0172737Y0042457D01*
X0174618Y0043236D01*
X0177253Y0045872D01*
X0178211Y0043561D01*
X0180204Y0041567D01*
X0182809Y0040488D01*
X0185628Y0040488D01*
X0188233Y0041567D01*
X0190226Y0043561D01*
X0191305Y0046165D01*
X0191305Y0048984D01*
X0190633Y0050606D01*
X0203386Y0050606D01*
X0205267Y0051385D01*
X0210267Y0056385D01*
X0211707Y0057825D01*
X0212486Y0059706D01*
X0212486Y0071405D01*
X0212576Y0071495D01*
X0213511Y0073753D01*
X0213511Y0077814D01*
X0214162Y0077342D01*
X0215020Y0076905D01*
X0215935Y0076607D01*
X0216887Y0076457D01*
X0217368Y0076457D01*
X0217368Y0082575D01*
X0217368Y0088693D01*
X0216887Y0088693D01*
X0215935Y0088542D01*
X0215020Y0088245D01*
X0214162Y0087807D01*
X0213382Y0087241D01*
X0212701Y0086560D01*
X0212135Y0085781D01*
X0211698Y0084923D01*
X0211602Y0084628D01*
X0210848Y0085383D01*
X0208590Y0086318D01*
X0206146Y0086318D01*
X0203888Y0085383D01*
X0202368Y0083863D01*
X0200848Y0085383D01*
X0198590Y0086318D01*
X0197700Y0086318D01*
X0201707Y0090325D01*
X0202486Y0092206D01*
X0202486Y0094242D01*
X0202486Y0101169D01*
X0203888Y0099767D01*
X0206146Y0098831D01*
X0208590Y0098831D01*
X0210848Y0099767D01*
X0210857Y0099776D01*
X0211360Y0098561D01*
X0213354Y0096567D01*
X0215958Y0095488D01*
X0218778Y0095488D01*
X0220675Y0096274D01*
X0220675Y0087734D01*
X0220575Y0087807D01*
X0219717Y0088245D01*
X0218801Y0088542D01*
X0217850Y0088693D01*
X0217368Y0088693D01*
X0217368Y0082575D01*
X0217368Y0082575D01*
X0217368Y0082575D01*
X0217368Y0076457D01*
X0217850Y0076457D01*
X0218801Y0076607D01*
X0219717Y0076905D01*
X0220575Y0077342D01*
X0220675Y0077415D01*
X0220675Y0023187D01*
X0217983Y0025880D01*
X0214365Y0027378D01*
X0210450Y0027378D01*
X0206832Y0025880D01*
X0204063Y0023111D01*
X0202565Y0019493D01*
X0202565Y0015578D01*
X0204063Y0011960D01*
X0206756Y0009268D01*
X0044831Y0009268D01*
X0047523Y0011960D01*
X0049022Y0015578D01*
X0049022Y0019493D01*
X0047523Y0023111D01*
X0044754Y0025880D01*
X0041137Y0027378D01*
X0037221Y0027378D01*
X0033604Y0025880D01*
X0030911Y0023187D01*
X0030911Y0185112D01*
X0033604Y0182420D01*
X0037221Y0180921D01*
X0041137Y0180921D01*
X0044754Y0182420D01*
X0047523Y0185188D01*
X0049022Y0188806D01*
X0049022Y0192722D01*
X0047523Y0196339D01*
X0044831Y0199031D01*
X0206756Y0199031D01*
X0204063Y0196339D01*
X0202565Y0192722D01*
X0202565Y0188806D01*
X0204063Y0185188D01*
X0206832Y0182420D01*
X0210450Y0180921D01*
X0214365Y0180921D01*
X0217983Y0182420D01*
X0220675Y0185112D01*
X0220675Y0158420D01*
X0220619Y0158848D01*
X0220398Y0159672D01*
X0220071Y0160461D01*
X0219644Y0161200D01*
X0219125Y0161878D01*
X0218521Y0162481D01*
X0217844Y0163001D01*
X0217105Y0163428D01*
X0216316Y0163754D01*
X0215492Y0163975D01*
X0214645Y0164087D01*
X0214219Y0164087D01*
X0214219Y0157575D01*
X0214218Y0157575D01*
X0214218Y0157575D01*
X0207707Y0157575D01*
X0207707Y0158002D01*
X0207818Y0158848D01*
X0208039Y0159672D01*
X0208366Y0160461D01*
X0208793Y0161200D01*
X0209312Y0161878D01*
X0209916Y0162481D01*
X0210593Y0163001D01*
X0211332Y0163428D01*
X0212121Y0163754D01*
X0212945Y0163975D01*
X0213792Y0164087D01*
X0214218Y0164087D01*
X0214218Y0157575D01*
X0207707Y0157575D01*
X0207707Y0157148D01*
X0207818Y0156302D01*
X0208039Y0155477D01*
X0208366Y0154689D01*
X0208793Y0153949D01*
X0209312Y0153272D01*
X0209325Y0153260D01*
X0207877Y0151812D01*
X0206738Y0149063D01*
X0206738Y0146087D01*
X0207875Y0143343D01*
X0203850Y0143343D01*
X0201969Y0142563D01*
X0200529Y0141124D01*
X0196305Y0136899D01*
X0196305Y0138984D01*
X0195226Y0141589D01*
X0193233Y0143583D01*
X0190628Y0144661D01*
X0187809Y0144661D01*
X0185204Y0143583D01*
X0183211Y0141589D01*
X0182132Y0138984D01*
X0182132Y0136165D01*
X0183211Y0133561D01*
X0185204Y0131567D01*
X0187809Y0130488D01*
X0189894Y0130488D01*
X0183029Y0123624D01*
X0182250Y0121742D01*
X0182250Y0113981D01*
X0180848Y0115383D01*
X0178590Y0116318D01*
X0176146Y0116318D01*
X0174258Y0115536D01*
X0174258Y0150080D01*
X0175553Y0151375D01*
X0175553Y0156688D01*
X0174273Y0157968D01*
X0175553Y0159249D01*
X0175553Y0164562D01*
X0171796Y0168319D01*
X0166483Y0168319D01*
X0163534Y0165369D01*
X0161553Y0167350D01*
X0159297Y0167350D01*
X0157042Y0167350D01*
X0153852Y0164161D01*
X0153852Y0161906D01*
X0159297Y0161906D01*
X0159297Y0167350D01*
X0159297Y0161906D01*
X0159297Y0161906D01*
X0159297Y0161905D01*
X0153852Y0161905D01*
X0153852Y0159650D01*
X0154849Y0158653D01*
X0152884Y0156688D01*
X0152884Y0151375D01*
X0154179Y0150080D01*
X0154179Y0142557D01*
X0153211Y0141589D01*
X0152132Y0138984D01*
X0152132Y0136165D01*
X0153211Y0133561D01*
X0155204Y0131567D01*
X0157809Y0130488D01*
X0160628Y0130488D01*
X0163233Y0131567D01*
X0164022Y0132356D01*
X0164022Y0115438D01*
X0163888Y0115383D01*
X0162368Y0113863D01*
X0160848Y0115383D01*
X0158590Y0116318D01*
X0156146Y0116318D01*
X0153888Y0115383D01*
X0152160Y0113655D01*
X0151821Y0112835D01*
X0151794Y0112887D01*
X0151315Y0113546D01*
X0150739Y0114122D01*
X0150080Y0114601D01*
X0149355Y0114970D01*
X0148580Y0115222D01*
X0147775Y0115350D01*
X0147368Y0115350D01*
X0146961Y0115350D01*
X0146486Y0115274D01*
X0146486Y0115844D01*
X0148233Y0116567D01*
X0150226Y0118561D01*
X0151305Y0121165D01*
X0151305Y0123984D01*
X0150226Y0126589D01*
X0148233Y0128583D01*
X0145628Y0129661D01*
X0142809Y0129661D01*
X0140204Y0128583D01*
X0139315Y0127693D01*
X0098638Y0127693D01*
X0094486Y0131844D01*
X0094486Y0152742D01*
X0093707Y0154624D01*
X0083707Y0164624D01*
X0082267Y0166063D01*
X0080386Y0166843D01*
X0056350Y0166843D01*
X0054469Y0166063D01*
X0048469Y0160063D01*
X0047029Y0158624D01*
X0046250Y0156742D01*
X0046250Y0150072D01*
X0045694Y0149516D01*
X0045688Y0149500D01*
X0045097Y0150091D01*
X0044368Y0150620D01*
X0043566Y0151029D01*
X0042709Y0151308D01*
X0041819Y0151449D01*
X0041368Y0151449D01*
X0040918Y0151449D01*
X0040028Y0151308D01*
X0039171Y0151029D01*
X0038368Y0150620D01*
X0037639Y0150091D01*
X0037002Y0149454D01*
X0036472Y0148725D01*
X0036063Y0147922D01*
X0035785Y0147065D01*
X0035644Y0146175D01*
X0035644Y0145724D01*
X0041368Y0145724D01*
X0041368Y0145724D01*
X0041368Y0145725D02*
X0041368Y0151449D01*
X0041368Y0145725D01*
X0041368Y0145725D01*
X0041368Y0144242D02*
X0041368Y0144242D01*
X0041368Y0147390D02*
X0041368Y0147390D01*
X0041368Y0150538D02*
X0041368Y0150538D01*
X0038254Y0150538D02*
X0030911Y0150538D01*
X0030911Y0153686D02*
X0046250Y0153686D01*
X0046250Y0150538D02*
X0044482Y0150538D01*
X0046288Y0156834D02*
X0030911Y0156834D01*
X0030911Y0159982D02*
X0048388Y0159982D01*
X0051536Y0163130D02*
X0030911Y0163130D01*
X0030911Y0166278D02*
X0054988Y0166278D01*
X0057368Y0161724D02*
X0051368Y0155724D01*
X0051368Y0145724D01*
X0051368Y0104724D01*
X0080368Y0075724D01*
X0119081Y0075724D01*
X0129868Y0075724D01*
X0130656Y0074937D01*
X0133862Y0081279D02*
X0134725Y0081279D01*
X0137003Y0078131D02*
X0141225Y0078131D01*
X0141225Y0074983D02*
X0137742Y0074983D01*
X0137041Y0071835D02*
X0142019Y0071835D01*
X0140463Y0068687D02*
X0134084Y0068687D01*
X0139494Y0065539D02*
X0030911Y0065539D01*
X0030911Y0062391D02*
X0134296Y0062391D01*
X0131148Y0059242D02*
X0030911Y0059242D01*
X0030911Y0056094D02*
X0128000Y0056094D01*
X0136180Y0049798D02*
X0137469Y0049798D01*
X0139328Y0052946D02*
X0139568Y0052946D01*
X0144219Y0047575D02*
X0147368Y0050724D01*
X0154868Y0050724D01*
X0167368Y0063224D01*
X0167368Y0077575D01*
X0157368Y0077575D02*
X0157368Y0065724D01*
X0149868Y0058224D01*
X0137368Y0058224D01*
X0126719Y0047575D01*
X0124219Y0047575D01*
X0119568Y0052946D02*
X0030911Y0052946D01*
X0030911Y0049798D02*
X0117469Y0049798D01*
X0117132Y0046650D02*
X0030911Y0046650D01*
X0030911Y0043502D02*
X0118270Y0043502D01*
X0130167Y0043502D02*
X0138270Y0043502D01*
X0137132Y0046650D02*
X0133032Y0046650D01*
X0132809Y0034661D02*
X0130204Y0033583D01*
X0128211Y0031589D01*
X0127132Y0028984D01*
X0127132Y0026165D01*
X0128195Y0023598D01*
X0125628Y0024661D01*
X0122809Y0024661D01*
X0120204Y0023583D01*
X0118211Y0021589D01*
X0117132Y0018984D01*
X0117132Y0016165D01*
X0118211Y0013561D01*
X0120204Y0011567D01*
X0122809Y0010488D01*
X0125628Y0010488D01*
X0128233Y0011567D01*
X0129903Y0013238D01*
X0130233Y0012908D01*
X0131012Y0012342D01*
X0131870Y0011905D01*
X0132786Y0011607D01*
X0133737Y0011457D01*
X0134218Y0011457D01*
X0134218Y0017575D01*
X0134219Y0017575D01*
X0134219Y0011457D01*
X0134700Y0011457D01*
X0135651Y0011607D01*
X0136567Y0011905D01*
X0137425Y0012342D01*
X0138204Y0012908D01*
X0138534Y0013238D01*
X0140204Y0011567D01*
X0142809Y0010488D01*
X0145628Y0010488D01*
X0148233Y0011567D01*
X0149903Y0013238D01*
X0150233Y0012908D01*
X0151012Y0012342D01*
X0151870Y0011905D01*
X0152786Y0011607D01*
X0153737Y0011457D01*
X0154218Y0011457D01*
X0154218Y0017575D01*
X0154219Y0017575D01*
X0154219Y0011457D01*
X0154700Y0011457D01*
X0155651Y0011607D01*
X0156567Y0011905D01*
X0157425Y0012342D01*
X0158204Y0012908D01*
X0158534Y0013238D01*
X0160204Y0011567D01*
X0162809Y0010488D01*
X0165628Y0010488D01*
X0168233Y0011567D01*
X0169903Y0013238D01*
X0170233Y0012908D01*
X0171012Y0012342D01*
X0171870Y0011905D01*
X0172786Y0011607D01*
X0173737Y0011457D01*
X0174218Y0011457D01*
X0174218Y0017575D01*
X0174219Y0017575D01*
X0174219Y0011457D01*
X0174700Y0011457D01*
X0175651Y0011607D01*
X0176567Y0011905D01*
X0177425Y0012342D01*
X0178204Y0012908D01*
X0178534Y0013238D01*
X0180204Y0011567D01*
X0182809Y0010488D01*
X0185628Y0010488D01*
X0188233Y0011567D01*
X0189903Y0013238D01*
X0190233Y0012908D01*
X0191012Y0012342D01*
X0191870Y0011905D01*
X0192786Y0011607D01*
X0193737Y0011457D01*
X0194218Y0011457D01*
X0194218Y0017575D01*
X0194219Y0017575D01*
X0200337Y0017575D01*
X0200337Y0018056D01*
X0200186Y0019007D01*
X0199888Y0019923D01*
X0199451Y0020781D01*
X0198885Y0021560D01*
X0198556Y0021890D01*
X0200226Y0023561D01*
X0201305Y0026165D01*
X0201305Y0028984D01*
X0200226Y0031589D01*
X0198233Y0033583D01*
X0195628Y0034661D01*
X0192809Y0034661D01*
X0190204Y0033583D01*
X0188211Y0031589D01*
X0187132Y0028984D01*
X0187132Y0026165D01*
X0188195Y0023598D01*
X0185628Y0024661D01*
X0182809Y0024661D01*
X0180242Y0023598D01*
X0181305Y0026165D01*
X0181305Y0028984D01*
X0180226Y0031589D01*
X0178233Y0033583D01*
X0175628Y0034661D01*
X0172809Y0034661D01*
X0170204Y0033583D01*
X0168211Y0031589D01*
X0167132Y0028984D01*
X0167132Y0026165D01*
X0168195Y0023598D01*
X0165628Y0024661D01*
X0162809Y0024661D01*
X0160242Y0023598D01*
X0161305Y0026165D01*
X0161305Y0028984D01*
X0160226Y0031589D01*
X0158233Y0033583D01*
X0155628Y0034661D01*
X0152809Y0034661D01*
X0150204Y0033583D01*
X0148211Y0031589D01*
X0147132Y0028984D01*
X0147132Y0026165D01*
X0148195Y0023598D01*
X0145628Y0024661D01*
X0142809Y0024661D01*
X0140242Y0023598D01*
X0141305Y0026165D01*
X0141305Y0028984D01*
X0140226Y0031589D01*
X0138233Y0033583D01*
X0135628Y0034661D01*
X0132809Y0034661D01*
X0131351Y0034057D02*
X0030911Y0034057D01*
X0030911Y0030909D02*
X0127929Y0030909D01*
X0127132Y0027761D02*
X0030911Y0027761D01*
X0030911Y0024613D02*
X0032337Y0024613D01*
X0030911Y0037206D02*
X0220675Y0037206D01*
X0220675Y0040354D02*
X0030911Y0040354D01*
X0046021Y0024613D02*
X0122692Y0024613D01*
X0125745Y0024613D02*
X0127775Y0024613D01*
X0134218Y0015169D02*
X0134219Y0015169D01*
X0134218Y0012021D02*
X0134219Y0012021D01*
X0131643Y0012021D02*
X0128686Y0012021D01*
X0136794Y0012021D02*
X0139751Y0012021D01*
X0148686Y0012021D02*
X0151643Y0012021D01*
X0154218Y0012021D02*
X0154219Y0012021D01*
X0156794Y0012021D02*
X0159751Y0012021D01*
X0154219Y0015169D02*
X0154218Y0015169D01*
X0147775Y0024613D02*
X0145745Y0024613D01*
X0142692Y0024613D02*
X0140662Y0024613D01*
X0141305Y0027761D02*
X0147132Y0027761D01*
X0147929Y0030909D02*
X0140508Y0030909D01*
X0137086Y0034057D02*
X0151351Y0034057D01*
X0157086Y0034057D02*
X0171351Y0034057D01*
X0167929Y0030909D02*
X0160508Y0030909D01*
X0161305Y0027761D02*
X0167132Y0027761D01*
X0167775Y0024613D02*
X0165745Y0024613D01*
X0162692Y0024613D02*
X0160662Y0024613D01*
X0168686Y0012021D02*
X0171643Y0012021D01*
X0174218Y0012021D02*
X0174219Y0012021D01*
X0176794Y0012021D02*
X0179751Y0012021D01*
X0174219Y0015169D02*
X0174218Y0015169D01*
X0180662Y0024613D02*
X0182692Y0024613D01*
X0181305Y0027761D02*
X0187132Y0027761D01*
X0187775Y0024613D02*
X0185745Y0024613D01*
X0187929Y0030909D02*
X0180508Y0030909D01*
X0177086Y0034057D02*
X0191351Y0034057D01*
X0197086Y0034057D02*
X0220675Y0034057D01*
X0220675Y0030909D02*
X0200508Y0030909D01*
X0201305Y0027761D02*
X0220675Y0027761D01*
X0220675Y0024613D02*
X0219249Y0024613D01*
X0205566Y0024613D02*
X0200662Y0024613D01*
X0198955Y0021465D02*
X0203382Y0021465D01*
X0202565Y0018317D02*
X0200295Y0018317D01*
X0200337Y0017575D02*
X0194219Y0017575D01*
X0194219Y0017575D01*
X0194219Y0011457D01*
X0194700Y0011457D01*
X0195651Y0011607D01*
X0196567Y0011905D01*
X0197425Y0012342D01*
X0198204Y0012908D01*
X0198885Y0013589D01*
X0199451Y0014368D01*
X0199888Y0015226D01*
X0200186Y0016142D01*
X0200337Y0017093D01*
X0200337Y0017575D01*
X0199859Y0015169D02*
X0202734Y0015169D01*
X0204038Y0012021D02*
X0196794Y0012021D01*
X0194219Y0012021D02*
X0194218Y0012021D01*
X0191643Y0012021D02*
X0188686Y0012021D01*
X0194218Y0015169D02*
X0194219Y0015169D01*
X0190167Y0043502D02*
X0220675Y0043502D01*
X0220675Y0046650D02*
X0191305Y0046650D01*
X0190968Y0049798D02*
X0220675Y0049798D01*
X0220675Y0052946D02*
X0206828Y0052946D01*
X0209976Y0056094D02*
X0220675Y0056094D01*
X0220675Y0059242D02*
X0212294Y0059242D01*
X0212486Y0062391D02*
X0220675Y0062391D01*
X0220675Y0065539D02*
X0212486Y0065539D01*
X0212486Y0068687D02*
X0220675Y0068687D01*
X0220675Y0071835D02*
X0212717Y0071835D01*
X0213511Y0074983D02*
X0220675Y0074983D01*
X0217368Y0078131D02*
X0217368Y0078131D01*
X0217368Y0081279D02*
X0217368Y0081279D01*
X0217368Y0084427D02*
X0217368Y0084427D01*
X0217368Y0087575D02*
X0217368Y0087575D01*
X0213842Y0087575D02*
X0198957Y0087575D01*
X0201803Y0084427D02*
X0202933Y0084427D01*
X0201872Y0090724D02*
X0220675Y0090724D01*
X0220675Y0093872D02*
X0202486Y0093872D01*
X0202486Y0097020D02*
X0212901Y0097020D01*
X0203487Y0100168D02*
X0202486Y0100168D01*
X0197368Y0093224D02*
X0189868Y0085724D01*
X0137368Y0085724D01*
X0129868Y0090724D01*
X0127868Y0092724D01*
X0097368Y0092724D01*
X0071368Y0118724D01*
X0071368Y0145724D01*
X0066250Y0141093D02*
X0066202Y0141093D01*
X0066250Y0137945D02*
X0056486Y0137945D01*
X0056486Y0141093D02*
X0056534Y0141093D01*
X0056486Y0134797D02*
X0066250Y0134797D01*
X0066250Y0131649D02*
X0056486Y0131649D01*
X0056486Y0128501D02*
X0066250Y0128501D01*
X0066250Y0125353D02*
X0056486Y0125353D01*
X0056486Y0122205D02*
X0066250Y0122205D01*
X0066250Y0119057D02*
X0056486Y0119057D01*
X0056486Y0115909D02*
X0066995Y0115909D01*
X0070094Y0112760D02*
X0056486Y0112760D01*
X0056486Y0109612D02*
X0073242Y0109612D01*
X0076390Y0106464D02*
X0056866Y0106464D01*
X0060015Y0103316D02*
X0079538Y0103316D01*
X0082686Y0100168D02*
X0063163Y0100168D01*
X0066311Y0097020D02*
X0085835Y0097020D01*
X0088983Y0093872D02*
X0069459Y0093872D01*
X0072607Y0090724D02*
X0092131Y0090724D01*
X0082051Y0081279D02*
X0116661Y0081279D01*
X0119081Y0075724D02*
X0119868Y0074937D01*
X0123075Y0081279D02*
X0127449Y0081279D01*
X0130087Y0084427D02*
X0078903Y0084427D01*
X0075755Y0087575D02*
X0125779Y0087575D01*
X0129868Y0090724D02*
X0129868Y0104150D01*
X0130656Y0104937D01*
X0137368Y0113224D02*
X0134868Y0115724D01*
X0122368Y0115724D01*
X0119868Y0113224D01*
X0119868Y0110724D01*
X0093368Y0110724D01*
X0081368Y0122724D01*
X0081368Y0149724D01*
X0075368Y0155724D01*
X0065368Y0155724D01*
X0061368Y0151724D01*
X0061368Y0145724D01*
X0046250Y0141093D02*
X0044733Y0141093D01*
X0046250Y0137945D02*
X0030911Y0137945D01*
X0030911Y0141093D02*
X0038003Y0141093D01*
X0041368Y0141093D02*
X0041368Y0141093D01*
X0035831Y0144242D02*
X0030911Y0144242D01*
X0030911Y0147390D02*
X0035890Y0147390D01*
X0030911Y0134797D02*
X0046250Y0134797D01*
X0046250Y0131649D02*
X0030911Y0131649D01*
X0030911Y0128501D02*
X0046250Y0128501D01*
X0046250Y0125353D02*
X0030911Y0125353D01*
X0030911Y0122205D02*
X0046250Y0122205D01*
X0046250Y0119057D02*
X0030911Y0119057D01*
X0030911Y0115909D02*
X0046250Y0115909D01*
X0046250Y0112760D02*
X0030911Y0112760D01*
X0030911Y0109612D02*
X0046250Y0109612D01*
X0046250Y0106464D02*
X0030911Y0106464D01*
X0030911Y0103316D02*
X0046412Y0103316D01*
X0048686Y0100168D02*
X0030911Y0100168D01*
X0030911Y0097020D02*
X0051835Y0097020D01*
X0054983Y0093872D02*
X0030911Y0093872D01*
X0030911Y0090724D02*
X0058131Y0090724D01*
X0061279Y0087575D02*
X0030911Y0087575D01*
X0030911Y0084427D02*
X0064427Y0084427D01*
X0067575Y0081279D02*
X0030911Y0081279D01*
X0030911Y0078131D02*
X0070723Y0078131D01*
X0073871Y0074983D02*
X0030911Y0074983D01*
X0030911Y0071835D02*
X0077020Y0071835D01*
X0116439Y0068687D02*
X0030911Y0068687D01*
X0048205Y0021465D02*
X0118159Y0021465D01*
X0117132Y0018317D02*
X0049022Y0018317D01*
X0048852Y0015169D02*
X0117545Y0015169D01*
X0119751Y0012021D02*
X0047548Y0012021D01*
X0123297Y0068687D02*
X0127227Y0068687D01*
X0139868Y0090724D02*
X0137368Y0093224D01*
X0137368Y0113224D01*
X0141368Y0119724D02*
X0144219Y0122575D01*
X0096518Y0122575D01*
X0089368Y0129724D01*
X0089368Y0151724D01*
X0079368Y0161724D01*
X0057368Y0161724D01*
X0043787Y0182019D02*
X0136853Y0182019D01*
X0136630Y0181959D02*
X0134334Y0180633D01*
X0132459Y0178758D01*
X0131133Y0176462D01*
X0130447Y0173901D01*
X0130447Y0171249D01*
X0131133Y0168688D01*
X0132459Y0166391D01*
X0134334Y0164516D01*
X0136630Y0163190D01*
X0139192Y0162504D01*
X0141844Y0162504D01*
X0144405Y0163190D01*
X0146701Y0164516D01*
X0148576Y0166391D01*
X0149902Y0168688D01*
X0150589Y0171249D01*
X0150589Y0173901D01*
X0149902Y0176462D01*
X0148576Y0178758D01*
X0146701Y0180633D01*
X0144405Y0181959D01*
X0141844Y0182646D01*
X0139192Y0182646D01*
X0136630Y0181959D01*
X0132571Y0178871D02*
X0030911Y0178871D01*
X0030911Y0175723D02*
X0130935Y0175723D01*
X0130447Y0172575D02*
X0030911Y0172575D01*
X0030911Y0169427D02*
X0130935Y0169427D01*
X0132572Y0166278D02*
X0081748Y0166278D01*
X0085200Y0163130D02*
X0136854Y0163130D01*
X0144181Y0163130D02*
X0153852Y0163130D01*
X0151049Y0161906D02*
X0144868Y0155724D01*
X0144868Y0143224D01*
X0144219Y0142575D01*
X0150337Y0142575D01*
X0150337Y0143056D01*
X0150186Y0144007D01*
X0149888Y0144923D01*
X0149451Y0145781D01*
X0148885Y0146560D01*
X0148204Y0147241D01*
X0147425Y0147807D01*
X0146567Y0148245D01*
X0145651Y0148542D01*
X0144700Y0148693D01*
X0144219Y0148693D01*
X0144219Y0142575D01*
X0144219Y0142575D01*
X0144218Y0142575D01*
X0144218Y0142575D01*
X0138100Y0142575D01*
X0138100Y0143056D01*
X0138251Y0144007D01*
X0138549Y0144923D01*
X0138986Y0145781D01*
X0139552Y0146560D01*
X0140233Y0147241D01*
X0141012Y0147807D01*
X0141870Y0148245D01*
X0142786Y0148542D01*
X0143737Y0148693D01*
X0144218Y0148693D01*
X0144218Y0142575D01*
X0138100Y0142575D01*
X0138100Y0142093D01*
X0138251Y0141142D01*
X0138549Y0140226D01*
X0138986Y0139368D01*
X0139552Y0138589D01*
X0140233Y0137908D01*
X0141012Y0137342D01*
X0141870Y0136905D01*
X0142786Y0136607D01*
X0143737Y0136457D01*
X0144218Y0136457D01*
X0144218Y0142575D01*
X0144219Y0142575D01*
X0150337Y0142575D01*
X0150337Y0142093D01*
X0150186Y0141142D01*
X0149888Y0140226D01*
X0149451Y0139368D01*
X0148885Y0138589D01*
X0148204Y0137908D01*
X0147425Y0137342D01*
X0146567Y0136905D01*
X0145651Y0136607D01*
X0144700Y0136457D01*
X0144219Y0136457D01*
X0144219Y0142575D01*
X0144218Y0141093D02*
X0144219Y0141093D01*
X0144218Y0137945D02*
X0144219Y0137945D01*
X0148241Y0137945D02*
X0152132Y0137945D01*
X0153005Y0141093D02*
X0150170Y0141093D01*
X0150110Y0144242D02*
X0154179Y0144242D01*
X0154179Y0147390D02*
X0148000Y0147390D01*
X0144219Y0147390D02*
X0144218Y0147390D01*
X0144218Y0144242D02*
X0144219Y0144242D01*
X0140437Y0147390D02*
X0094486Y0147390D01*
X0094486Y0144242D02*
X0138327Y0144242D01*
X0138267Y0141093D02*
X0094486Y0141093D01*
X0094486Y0137945D02*
X0140196Y0137945D01*
X0140123Y0128501D02*
X0097830Y0128501D01*
X0094681Y0131649D02*
X0155122Y0131649D01*
X0152699Y0134797D02*
X0094486Y0134797D01*
X0094486Y0150538D02*
X0153721Y0150538D01*
X0152884Y0153686D02*
X0094095Y0153686D01*
X0091497Y0156834D02*
X0153030Y0156834D01*
X0153852Y0159982D02*
X0088348Y0159982D01*
X0048818Y0188315D02*
X0202768Y0188315D01*
X0204085Y0185167D02*
X0047502Y0185167D01*
X0049022Y0191463D02*
X0202565Y0191463D01*
X0203348Y0194611D02*
X0048239Y0194611D01*
X0046103Y0197760D02*
X0205484Y0197760D01*
X0207800Y0182019D02*
X0191584Y0182019D01*
X0191806Y0181959D02*
X0189245Y0182646D01*
X0186593Y0182646D01*
X0184032Y0181959D01*
X0181736Y0180633D01*
X0179861Y0178758D01*
X0178535Y0176462D01*
X0177848Y0173901D01*
X0177848Y0171249D01*
X0178535Y0168688D01*
X0179861Y0166391D01*
X0181736Y0164516D01*
X0184032Y0163190D01*
X0186593Y0162504D01*
X0189245Y0162504D01*
X0191806Y0163190D01*
X0194103Y0164516D01*
X0195978Y0166391D01*
X0197304Y0168688D01*
X0197990Y0171249D01*
X0197990Y0173901D01*
X0197304Y0176462D01*
X0195978Y0178758D01*
X0194103Y0180633D01*
X0191806Y0181959D01*
X0195866Y0178871D02*
X0220675Y0178871D01*
X0220675Y0175723D02*
X0197502Y0175723D01*
X0197990Y0172575D02*
X0220675Y0172575D01*
X0220675Y0169427D02*
X0197502Y0169427D01*
X0195865Y0166278D02*
X0220675Y0166278D01*
X0220675Y0163130D02*
X0217620Y0163130D01*
X0214219Y0163130D02*
X0214218Y0163130D01*
X0214218Y0159982D02*
X0214219Y0159982D01*
X0210817Y0163130D02*
X0191583Y0163130D01*
X0184256Y0163130D02*
X0175553Y0163130D01*
X0173837Y0166278D02*
X0179973Y0166278D01*
X0178337Y0169427D02*
X0150100Y0169427D01*
X0150589Y0172575D02*
X0177848Y0172575D01*
X0178337Y0175723D02*
X0150100Y0175723D01*
X0148464Y0178871D02*
X0179973Y0178871D01*
X0184255Y0182019D02*
X0144182Y0182019D01*
X0148464Y0166278D02*
X0155970Y0166278D01*
X0159297Y0166278D02*
X0159297Y0166278D01*
X0159297Y0163130D02*
X0159297Y0163130D01*
X0159297Y0161906D02*
X0151049Y0161906D01*
X0159297Y0154031D02*
X0159297Y0137654D01*
X0159219Y0137575D01*
X0163315Y0131649D02*
X0164022Y0131649D01*
X0164022Y0128501D02*
X0148314Y0128501D01*
X0150738Y0125353D02*
X0164022Y0125353D01*
X0164022Y0122205D02*
X0151305Y0122205D01*
X0150432Y0119057D02*
X0164022Y0119057D01*
X0164022Y0115909D02*
X0159579Y0115909D01*
X0155157Y0115909D02*
X0146643Y0115909D01*
X0147368Y0115350D02*
X0147368Y0107575D01*
X0147368Y0107575D01*
X0147368Y0115350D01*
X0147368Y0112760D02*
X0147368Y0112760D01*
X0147368Y0109612D02*
X0147368Y0109612D01*
X0141368Y0101724D02*
X0141368Y0119724D01*
X0141368Y0101724D02*
X0145368Y0097724D01*
X0173368Y0097724D01*
X0177368Y0101724D01*
X0177368Y0107575D01*
X0169140Y0109346D02*
X0167368Y0107575D01*
X0169140Y0109346D02*
X0169140Y0154031D01*
X0175553Y0153686D02*
X0208995Y0153686D01*
X0207349Y0150538D02*
X0174716Y0150538D01*
X0174258Y0147390D02*
X0206738Y0147390D01*
X0207503Y0144242D02*
X0191642Y0144242D01*
X0186795Y0144242D02*
X0174258Y0144242D01*
X0174258Y0141093D02*
X0183005Y0141093D01*
X0182132Y0137945D02*
X0174258Y0137945D01*
X0174258Y0134797D02*
X0182699Y0134797D01*
X0185122Y0131649D02*
X0174258Y0131649D01*
X0174258Y0128501D02*
X0187907Y0128501D01*
X0184758Y0125353D02*
X0174258Y0125353D01*
X0174258Y0122205D02*
X0182441Y0122205D01*
X0182250Y0119057D02*
X0174258Y0119057D01*
X0174258Y0115909D02*
X0175157Y0115909D01*
X0179579Y0115909D02*
X0182250Y0115909D01*
X0187368Y0120724D02*
X0204868Y0138224D01*
X0213569Y0138224D01*
X0214219Y0137575D01*
X0213569Y0128224D02*
X0207368Y0128224D01*
X0197368Y0118224D01*
X0197368Y0107575D01*
X0197368Y0093224D01*
X0187368Y0095724D02*
X0182368Y0090724D01*
X0139868Y0090724D01*
X0119868Y0104937D02*
X0119868Y0110724D01*
X0175407Y0156834D02*
X0207748Y0156834D01*
X0208167Y0159982D02*
X0175553Y0159982D01*
X0164443Y0166278D02*
X0162625Y0166278D01*
X0195432Y0141093D02*
X0200499Y0141093D01*
X0197351Y0137945D02*
X0196305Y0137945D01*
X0187368Y0120724D02*
X0187368Y0107575D01*
X0187368Y0095724D01*
X0207368Y0077575D02*
X0207368Y0060724D01*
X0202368Y0055724D01*
X0179868Y0055724D01*
X0171719Y0047575D01*
X0164219Y0047575D01*
X0158270Y0043502D02*
X0150167Y0043502D01*
X0174884Y0043502D02*
X0178270Y0043502D01*
X0214219Y0127575D02*
X0213569Y0128224D01*
X0220270Y0159982D02*
X0220675Y0159982D01*
X0220675Y0182019D02*
X0217015Y0182019D01*
X0034571Y0182019D02*
X0030911Y0182019D01*
M02*
