%
M48
M72
T01C0.03150
T02C0.03200
T03C0.03740
T04C0.03937
T05C0.09055
T06C0.12598
%
T01
X119868Y74937
X130656Y74937
X146581Y64937
X144219Y47575
X164219Y47575
X176581Y64937
X184219Y47575
X194219Y27575
X194219Y17575
X184219Y17575
X174219Y17575
X174219Y27575
X164219Y17575
X154219Y17575
X154219Y27575
X144219Y17575
X134219Y17575
X134219Y27575
X124219Y17575
X124219Y47575
X119868Y104937
X130656Y104937
X144219Y122575
X159219Y137575
X144219Y142575
X189219Y137575
X217368Y102575
X217368Y82575
X71368Y145724
X61368Y145724
X51368Y145724
X41368Y145724
T02
X147368Y107575
X157368Y107575
X167368Y107575
X177368Y107575
X187368Y107575
X197368Y107575
X207368Y107575
X207368Y77575
X197368Y77575
X187368Y77575
X177368Y77575
X167368Y77575
X157368Y77575
X147368Y77575
T03
X159297Y154031
X159297Y161906
X169140Y161906
X169140Y154031
T04
X214219Y157575
X214219Y147575
X214219Y137575
X214219Y127575
T05
X140518Y172575
X187919Y172575
T06
X39179Y17535
X212407Y17535
X212407Y190764
X39179Y190764
M30
