G75*
%MOIN*%
%OFA0B0*%
%FSLAX25Y25*%
%IPPOS*%
%LPD*%
%AMOC8*
5,1,8,0,0,1.08239X$1,22.5*
%
%ADD10C,0.00000*%
%ADD11R,0.03937X0.10236*%
%ADD12C,0.07087*%
%ADD13C,0.05200*%
%ADD14R,0.12598X0.03937*%
%ADD15OC8,0.05740*%
%ADD16C,0.13055*%
%ADD17R,0.03937X0.12598*%
%ADD18R,0.04724X0.03150*%
%ADD19C,0.07874*%
%ADD20C,0.06299*%
%ADD21R,0.06299X0.06299*%
%ADD22C,0.03150*%
%ADD23C,0.01600*%
%ADD24C,0.03150*%
D10*
X0046801Y0017535D02*
X0046801Y0190764D01*
X0052313Y0190764D02*
X0052315Y0190922D01*
X0052321Y0191080D01*
X0052331Y0191238D01*
X0052345Y0191396D01*
X0052363Y0191553D01*
X0052384Y0191710D01*
X0052410Y0191866D01*
X0052440Y0192022D01*
X0052473Y0192177D01*
X0052511Y0192330D01*
X0052552Y0192483D01*
X0052597Y0192635D01*
X0052646Y0192786D01*
X0052699Y0192935D01*
X0052755Y0193083D01*
X0052815Y0193229D01*
X0052879Y0193374D01*
X0052947Y0193517D01*
X0053018Y0193659D01*
X0053092Y0193799D01*
X0053170Y0193936D01*
X0053252Y0194072D01*
X0053336Y0194206D01*
X0053425Y0194337D01*
X0053516Y0194466D01*
X0053611Y0194593D01*
X0053708Y0194718D01*
X0053809Y0194840D01*
X0053913Y0194959D01*
X0054020Y0195076D01*
X0054130Y0195190D01*
X0054243Y0195301D01*
X0054358Y0195410D01*
X0054476Y0195515D01*
X0054597Y0195617D01*
X0054720Y0195717D01*
X0054846Y0195813D01*
X0054974Y0195906D01*
X0055104Y0195996D01*
X0055237Y0196082D01*
X0055372Y0196166D01*
X0055508Y0196245D01*
X0055647Y0196322D01*
X0055788Y0196394D01*
X0055930Y0196464D01*
X0056074Y0196529D01*
X0056220Y0196591D01*
X0056367Y0196649D01*
X0056516Y0196704D01*
X0056666Y0196755D01*
X0056817Y0196802D01*
X0056969Y0196845D01*
X0057122Y0196884D01*
X0057277Y0196920D01*
X0057432Y0196951D01*
X0057588Y0196979D01*
X0057744Y0197003D01*
X0057901Y0197023D01*
X0058059Y0197039D01*
X0058216Y0197051D01*
X0058375Y0197059D01*
X0058533Y0197063D01*
X0058691Y0197063D01*
X0058849Y0197059D01*
X0059008Y0197051D01*
X0059165Y0197039D01*
X0059323Y0197023D01*
X0059480Y0197003D01*
X0059636Y0196979D01*
X0059792Y0196951D01*
X0059947Y0196920D01*
X0060102Y0196884D01*
X0060255Y0196845D01*
X0060407Y0196802D01*
X0060558Y0196755D01*
X0060708Y0196704D01*
X0060857Y0196649D01*
X0061004Y0196591D01*
X0061150Y0196529D01*
X0061294Y0196464D01*
X0061436Y0196394D01*
X0061577Y0196322D01*
X0061716Y0196245D01*
X0061852Y0196166D01*
X0061987Y0196082D01*
X0062120Y0195996D01*
X0062250Y0195906D01*
X0062378Y0195813D01*
X0062504Y0195717D01*
X0062627Y0195617D01*
X0062748Y0195515D01*
X0062866Y0195410D01*
X0062981Y0195301D01*
X0063094Y0195190D01*
X0063204Y0195076D01*
X0063311Y0194959D01*
X0063415Y0194840D01*
X0063516Y0194718D01*
X0063613Y0194593D01*
X0063708Y0194466D01*
X0063799Y0194337D01*
X0063888Y0194206D01*
X0063972Y0194072D01*
X0064054Y0193936D01*
X0064132Y0193799D01*
X0064206Y0193659D01*
X0064277Y0193517D01*
X0064345Y0193374D01*
X0064409Y0193229D01*
X0064469Y0193083D01*
X0064525Y0192935D01*
X0064578Y0192786D01*
X0064627Y0192635D01*
X0064672Y0192483D01*
X0064713Y0192330D01*
X0064751Y0192177D01*
X0064784Y0192022D01*
X0064814Y0191866D01*
X0064840Y0191710D01*
X0064861Y0191553D01*
X0064879Y0191396D01*
X0064893Y0191238D01*
X0064903Y0191080D01*
X0064909Y0190922D01*
X0064911Y0190764D01*
X0064909Y0190606D01*
X0064903Y0190448D01*
X0064893Y0190290D01*
X0064879Y0190132D01*
X0064861Y0189975D01*
X0064840Y0189818D01*
X0064814Y0189662D01*
X0064784Y0189506D01*
X0064751Y0189351D01*
X0064713Y0189198D01*
X0064672Y0189045D01*
X0064627Y0188893D01*
X0064578Y0188742D01*
X0064525Y0188593D01*
X0064469Y0188445D01*
X0064409Y0188299D01*
X0064345Y0188154D01*
X0064277Y0188011D01*
X0064206Y0187869D01*
X0064132Y0187729D01*
X0064054Y0187592D01*
X0063972Y0187456D01*
X0063888Y0187322D01*
X0063799Y0187191D01*
X0063708Y0187062D01*
X0063613Y0186935D01*
X0063516Y0186810D01*
X0063415Y0186688D01*
X0063311Y0186569D01*
X0063204Y0186452D01*
X0063094Y0186338D01*
X0062981Y0186227D01*
X0062866Y0186118D01*
X0062748Y0186013D01*
X0062627Y0185911D01*
X0062504Y0185811D01*
X0062378Y0185715D01*
X0062250Y0185622D01*
X0062120Y0185532D01*
X0061987Y0185446D01*
X0061852Y0185362D01*
X0061716Y0185283D01*
X0061577Y0185206D01*
X0061436Y0185134D01*
X0061294Y0185064D01*
X0061150Y0184999D01*
X0061004Y0184937D01*
X0060857Y0184879D01*
X0060708Y0184824D01*
X0060558Y0184773D01*
X0060407Y0184726D01*
X0060255Y0184683D01*
X0060102Y0184644D01*
X0059947Y0184608D01*
X0059792Y0184577D01*
X0059636Y0184549D01*
X0059480Y0184525D01*
X0059323Y0184505D01*
X0059165Y0184489D01*
X0059008Y0184477D01*
X0058849Y0184469D01*
X0058691Y0184465D01*
X0058533Y0184465D01*
X0058375Y0184469D01*
X0058216Y0184477D01*
X0058059Y0184489D01*
X0057901Y0184505D01*
X0057744Y0184525D01*
X0057588Y0184549D01*
X0057432Y0184577D01*
X0057277Y0184608D01*
X0057122Y0184644D01*
X0056969Y0184683D01*
X0056817Y0184726D01*
X0056666Y0184773D01*
X0056516Y0184824D01*
X0056367Y0184879D01*
X0056220Y0184937D01*
X0056074Y0184999D01*
X0055930Y0185064D01*
X0055788Y0185134D01*
X0055647Y0185206D01*
X0055508Y0185283D01*
X0055372Y0185362D01*
X0055237Y0185446D01*
X0055104Y0185532D01*
X0054974Y0185622D01*
X0054846Y0185715D01*
X0054720Y0185811D01*
X0054597Y0185911D01*
X0054476Y0186013D01*
X0054358Y0186118D01*
X0054243Y0186227D01*
X0054130Y0186338D01*
X0054020Y0186452D01*
X0053913Y0186569D01*
X0053809Y0186688D01*
X0053708Y0186810D01*
X0053611Y0186935D01*
X0053516Y0187062D01*
X0053425Y0187191D01*
X0053336Y0187322D01*
X0053252Y0187456D01*
X0053170Y0187592D01*
X0053092Y0187729D01*
X0053018Y0187869D01*
X0052947Y0188011D01*
X0052879Y0188154D01*
X0052815Y0188299D01*
X0052755Y0188445D01*
X0052699Y0188593D01*
X0052646Y0188742D01*
X0052597Y0188893D01*
X0052552Y0189045D01*
X0052511Y0189198D01*
X0052473Y0189351D01*
X0052440Y0189506D01*
X0052410Y0189662D01*
X0052384Y0189818D01*
X0052363Y0189975D01*
X0052345Y0190132D01*
X0052331Y0190290D01*
X0052321Y0190448D01*
X0052315Y0190606D01*
X0052313Y0190764D01*
X0046801Y0190764D02*
X0046804Y0191049D01*
X0046815Y0191335D01*
X0046832Y0191620D01*
X0046856Y0191904D01*
X0046887Y0192188D01*
X0046925Y0192471D01*
X0046970Y0192752D01*
X0047021Y0193033D01*
X0047079Y0193313D01*
X0047144Y0193591D01*
X0047216Y0193867D01*
X0047294Y0194141D01*
X0047379Y0194414D01*
X0047471Y0194684D01*
X0047569Y0194952D01*
X0047673Y0195218D01*
X0047784Y0195481D01*
X0047901Y0195741D01*
X0048024Y0195999D01*
X0048154Y0196253D01*
X0048290Y0196504D01*
X0048431Y0196752D01*
X0048579Y0196996D01*
X0048732Y0197237D01*
X0048892Y0197473D01*
X0049057Y0197706D01*
X0049227Y0197935D01*
X0049403Y0198160D01*
X0049585Y0198380D01*
X0049771Y0198596D01*
X0049963Y0198807D01*
X0050160Y0199014D01*
X0050362Y0199216D01*
X0050569Y0199413D01*
X0050780Y0199605D01*
X0050996Y0199791D01*
X0051216Y0199973D01*
X0051441Y0200149D01*
X0051670Y0200319D01*
X0051903Y0200484D01*
X0052139Y0200644D01*
X0052380Y0200797D01*
X0052624Y0200945D01*
X0052872Y0201086D01*
X0053123Y0201222D01*
X0053377Y0201352D01*
X0053635Y0201475D01*
X0053895Y0201592D01*
X0054158Y0201703D01*
X0054424Y0201807D01*
X0054692Y0201905D01*
X0054962Y0201997D01*
X0055235Y0202082D01*
X0055509Y0202160D01*
X0055785Y0202232D01*
X0056063Y0202297D01*
X0056343Y0202355D01*
X0056624Y0202406D01*
X0056905Y0202451D01*
X0057188Y0202489D01*
X0057472Y0202520D01*
X0057756Y0202544D01*
X0058041Y0202561D01*
X0058327Y0202572D01*
X0058612Y0202575D01*
X0231840Y0202575D01*
X0225541Y0190764D02*
X0225543Y0190922D01*
X0225549Y0191080D01*
X0225559Y0191238D01*
X0225573Y0191396D01*
X0225591Y0191553D01*
X0225612Y0191710D01*
X0225638Y0191866D01*
X0225668Y0192022D01*
X0225701Y0192177D01*
X0225739Y0192330D01*
X0225780Y0192483D01*
X0225825Y0192635D01*
X0225874Y0192786D01*
X0225927Y0192935D01*
X0225983Y0193083D01*
X0226043Y0193229D01*
X0226107Y0193374D01*
X0226175Y0193517D01*
X0226246Y0193659D01*
X0226320Y0193799D01*
X0226398Y0193936D01*
X0226480Y0194072D01*
X0226564Y0194206D01*
X0226653Y0194337D01*
X0226744Y0194466D01*
X0226839Y0194593D01*
X0226936Y0194718D01*
X0227037Y0194840D01*
X0227141Y0194959D01*
X0227248Y0195076D01*
X0227358Y0195190D01*
X0227471Y0195301D01*
X0227586Y0195410D01*
X0227704Y0195515D01*
X0227825Y0195617D01*
X0227948Y0195717D01*
X0228074Y0195813D01*
X0228202Y0195906D01*
X0228332Y0195996D01*
X0228465Y0196082D01*
X0228600Y0196166D01*
X0228736Y0196245D01*
X0228875Y0196322D01*
X0229016Y0196394D01*
X0229158Y0196464D01*
X0229302Y0196529D01*
X0229448Y0196591D01*
X0229595Y0196649D01*
X0229744Y0196704D01*
X0229894Y0196755D01*
X0230045Y0196802D01*
X0230197Y0196845D01*
X0230350Y0196884D01*
X0230505Y0196920D01*
X0230660Y0196951D01*
X0230816Y0196979D01*
X0230972Y0197003D01*
X0231129Y0197023D01*
X0231287Y0197039D01*
X0231444Y0197051D01*
X0231603Y0197059D01*
X0231761Y0197063D01*
X0231919Y0197063D01*
X0232077Y0197059D01*
X0232236Y0197051D01*
X0232393Y0197039D01*
X0232551Y0197023D01*
X0232708Y0197003D01*
X0232864Y0196979D01*
X0233020Y0196951D01*
X0233175Y0196920D01*
X0233330Y0196884D01*
X0233483Y0196845D01*
X0233635Y0196802D01*
X0233786Y0196755D01*
X0233936Y0196704D01*
X0234085Y0196649D01*
X0234232Y0196591D01*
X0234378Y0196529D01*
X0234522Y0196464D01*
X0234664Y0196394D01*
X0234805Y0196322D01*
X0234944Y0196245D01*
X0235080Y0196166D01*
X0235215Y0196082D01*
X0235348Y0195996D01*
X0235478Y0195906D01*
X0235606Y0195813D01*
X0235732Y0195717D01*
X0235855Y0195617D01*
X0235976Y0195515D01*
X0236094Y0195410D01*
X0236209Y0195301D01*
X0236322Y0195190D01*
X0236432Y0195076D01*
X0236539Y0194959D01*
X0236643Y0194840D01*
X0236744Y0194718D01*
X0236841Y0194593D01*
X0236936Y0194466D01*
X0237027Y0194337D01*
X0237116Y0194206D01*
X0237200Y0194072D01*
X0237282Y0193936D01*
X0237360Y0193799D01*
X0237434Y0193659D01*
X0237505Y0193517D01*
X0237573Y0193374D01*
X0237637Y0193229D01*
X0237697Y0193083D01*
X0237753Y0192935D01*
X0237806Y0192786D01*
X0237855Y0192635D01*
X0237900Y0192483D01*
X0237941Y0192330D01*
X0237979Y0192177D01*
X0238012Y0192022D01*
X0238042Y0191866D01*
X0238068Y0191710D01*
X0238089Y0191553D01*
X0238107Y0191396D01*
X0238121Y0191238D01*
X0238131Y0191080D01*
X0238137Y0190922D01*
X0238139Y0190764D01*
X0238137Y0190606D01*
X0238131Y0190448D01*
X0238121Y0190290D01*
X0238107Y0190132D01*
X0238089Y0189975D01*
X0238068Y0189818D01*
X0238042Y0189662D01*
X0238012Y0189506D01*
X0237979Y0189351D01*
X0237941Y0189198D01*
X0237900Y0189045D01*
X0237855Y0188893D01*
X0237806Y0188742D01*
X0237753Y0188593D01*
X0237697Y0188445D01*
X0237637Y0188299D01*
X0237573Y0188154D01*
X0237505Y0188011D01*
X0237434Y0187869D01*
X0237360Y0187729D01*
X0237282Y0187592D01*
X0237200Y0187456D01*
X0237116Y0187322D01*
X0237027Y0187191D01*
X0236936Y0187062D01*
X0236841Y0186935D01*
X0236744Y0186810D01*
X0236643Y0186688D01*
X0236539Y0186569D01*
X0236432Y0186452D01*
X0236322Y0186338D01*
X0236209Y0186227D01*
X0236094Y0186118D01*
X0235976Y0186013D01*
X0235855Y0185911D01*
X0235732Y0185811D01*
X0235606Y0185715D01*
X0235478Y0185622D01*
X0235348Y0185532D01*
X0235215Y0185446D01*
X0235080Y0185362D01*
X0234944Y0185283D01*
X0234805Y0185206D01*
X0234664Y0185134D01*
X0234522Y0185064D01*
X0234378Y0184999D01*
X0234232Y0184937D01*
X0234085Y0184879D01*
X0233936Y0184824D01*
X0233786Y0184773D01*
X0233635Y0184726D01*
X0233483Y0184683D01*
X0233330Y0184644D01*
X0233175Y0184608D01*
X0233020Y0184577D01*
X0232864Y0184549D01*
X0232708Y0184525D01*
X0232551Y0184505D01*
X0232393Y0184489D01*
X0232236Y0184477D01*
X0232077Y0184469D01*
X0231919Y0184465D01*
X0231761Y0184465D01*
X0231603Y0184469D01*
X0231444Y0184477D01*
X0231287Y0184489D01*
X0231129Y0184505D01*
X0230972Y0184525D01*
X0230816Y0184549D01*
X0230660Y0184577D01*
X0230505Y0184608D01*
X0230350Y0184644D01*
X0230197Y0184683D01*
X0230045Y0184726D01*
X0229894Y0184773D01*
X0229744Y0184824D01*
X0229595Y0184879D01*
X0229448Y0184937D01*
X0229302Y0184999D01*
X0229158Y0185064D01*
X0229016Y0185134D01*
X0228875Y0185206D01*
X0228736Y0185283D01*
X0228600Y0185362D01*
X0228465Y0185446D01*
X0228332Y0185532D01*
X0228202Y0185622D01*
X0228074Y0185715D01*
X0227948Y0185811D01*
X0227825Y0185911D01*
X0227704Y0186013D01*
X0227586Y0186118D01*
X0227471Y0186227D01*
X0227358Y0186338D01*
X0227248Y0186452D01*
X0227141Y0186569D01*
X0227037Y0186688D01*
X0226936Y0186810D01*
X0226839Y0186935D01*
X0226744Y0187062D01*
X0226653Y0187191D01*
X0226564Y0187322D01*
X0226480Y0187456D01*
X0226398Y0187592D01*
X0226320Y0187729D01*
X0226246Y0187869D01*
X0226175Y0188011D01*
X0226107Y0188154D01*
X0226043Y0188299D01*
X0225983Y0188445D01*
X0225927Y0188593D01*
X0225874Y0188742D01*
X0225825Y0188893D01*
X0225780Y0189045D01*
X0225739Y0189198D01*
X0225701Y0189351D01*
X0225668Y0189506D01*
X0225638Y0189662D01*
X0225612Y0189818D01*
X0225591Y0189975D01*
X0225573Y0190132D01*
X0225559Y0190290D01*
X0225549Y0190448D01*
X0225543Y0190606D01*
X0225541Y0190764D01*
X0231840Y0202575D02*
X0232125Y0202572D01*
X0232411Y0202561D01*
X0232696Y0202544D01*
X0232980Y0202520D01*
X0233264Y0202489D01*
X0233547Y0202451D01*
X0233828Y0202406D01*
X0234109Y0202355D01*
X0234389Y0202297D01*
X0234667Y0202232D01*
X0234943Y0202160D01*
X0235217Y0202082D01*
X0235490Y0201997D01*
X0235760Y0201905D01*
X0236028Y0201807D01*
X0236294Y0201703D01*
X0236557Y0201592D01*
X0236817Y0201475D01*
X0237075Y0201352D01*
X0237329Y0201222D01*
X0237580Y0201086D01*
X0237828Y0200945D01*
X0238072Y0200797D01*
X0238313Y0200644D01*
X0238549Y0200484D01*
X0238782Y0200319D01*
X0239011Y0200149D01*
X0239236Y0199973D01*
X0239456Y0199791D01*
X0239672Y0199605D01*
X0239883Y0199413D01*
X0240090Y0199216D01*
X0240292Y0199014D01*
X0240489Y0198807D01*
X0240681Y0198596D01*
X0240867Y0198380D01*
X0241049Y0198160D01*
X0241225Y0197935D01*
X0241395Y0197706D01*
X0241560Y0197473D01*
X0241720Y0197237D01*
X0241873Y0196996D01*
X0242021Y0196752D01*
X0242162Y0196504D01*
X0242298Y0196253D01*
X0242428Y0195999D01*
X0242551Y0195741D01*
X0242668Y0195481D01*
X0242779Y0195218D01*
X0242883Y0194952D01*
X0242981Y0194684D01*
X0243073Y0194414D01*
X0243158Y0194141D01*
X0243236Y0193867D01*
X0243308Y0193591D01*
X0243373Y0193313D01*
X0243431Y0193033D01*
X0243482Y0192752D01*
X0243527Y0192471D01*
X0243565Y0192188D01*
X0243596Y0191904D01*
X0243620Y0191620D01*
X0243637Y0191335D01*
X0243648Y0191049D01*
X0243651Y0190764D01*
X0243651Y0017535D01*
X0225541Y0017535D02*
X0225543Y0017693D01*
X0225549Y0017851D01*
X0225559Y0018009D01*
X0225573Y0018167D01*
X0225591Y0018324D01*
X0225612Y0018481D01*
X0225638Y0018637D01*
X0225668Y0018793D01*
X0225701Y0018948D01*
X0225739Y0019101D01*
X0225780Y0019254D01*
X0225825Y0019406D01*
X0225874Y0019557D01*
X0225927Y0019706D01*
X0225983Y0019854D01*
X0226043Y0020000D01*
X0226107Y0020145D01*
X0226175Y0020288D01*
X0226246Y0020430D01*
X0226320Y0020570D01*
X0226398Y0020707D01*
X0226480Y0020843D01*
X0226564Y0020977D01*
X0226653Y0021108D01*
X0226744Y0021237D01*
X0226839Y0021364D01*
X0226936Y0021489D01*
X0227037Y0021611D01*
X0227141Y0021730D01*
X0227248Y0021847D01*
X0227358Y0021961D01*
X0227471Y0022072D01*
X0227586Y0022181D01*
X0227704Y0022286D01*
X0227825Y0022388D01*
X0227948Y0022488D01*
X0228074Y0022584D01*
X0228202Y0022677D01*
X0228332Y0022767D01*
X0228465Y0022853D01*
X0228600Y0022937D01*
X0228736Y0023016D01*
X0228875Y0023093D01*
X0229016Y0023165D01*
X0229158Y0023235D01*
X0229302Y0023300D01*
X0229448Y0023362D01*
X0229595Y0023420D01*
X0229744Y0023475D01*
X0229894Y0023526D01*
X0230045Y0023573D01*
X0230197Y0023616D01*
X0230350Y0023655D01*
X0230505Y0023691D01*
X0230660Y0023722D01*
X0230816Y0023750D01*
X0230972Y0023774D01*
X0231129Y0023794D01*
X0231287Y0023810D01*
X0231444Y0023822D01*
X0231603Y0023830D01*
X0231761Y0023834D01*
X0231919Y0023834D01*
X0232077Y0023830D01*
X0232236Y0023822D01*
X0232393Y0023810D01*
X0232551Y0023794D01*
X0232708Y0023774D01*
X0232864Y0023750D01*
X0233020Y0023722D01*
X0233175Y0023691D01*
X0233330Y0023655D01*
X0233483Y0023616D01*
X0233635Y0023573D01*
X0233786Y0023526D01*
X0233936Y0023475D01*
X0234085Y0023420D01*
X0234232Y0023362D01*
X0234378Y0023300D01*
X0234522Y0023235D01*
X0234664Y0023165D01*
X0234805Y0023093D01*
X0234944Y0023016D01*
X0235080Y0022937D01*
X0235215Y0022853D01*
X0235348Y0022767D01*
X0235478Y0022677D01*
X0235606Y0022584D01*
X0235732Y0022488D01*
X0235855Y0022388D01*
X0235976Y0022286D01*
X0236094Y0022181D01*
X0236209Y0022072D01*
X0236322Y0021961D01*
X0236432Y0021847D01*
X0236539Y0021730D01*
X0236643Y0021611D01*
X0236744Y0021489D01*
X0236841Y0021364D01*
X0236936Y0021237D01*
X0237027Y0021108D01*
X0237116Y0020977D01*
X0237200Y0020843D01*
X0237282Y0020707D01*
X0237360Y0020570D01*
X0237434Y0020430D01*
X0237505Y0020288D01*
X0237573Y0020145D01*
X0237637Y0020000D01*
X0237697Y0019854D01*
X0237753Y0019706D01*
X0237806Y0019557D01*
X0237855Y0019406D01*
X0237900Y0019254D01*
X0237941Y0019101D01*
X0237979Y0018948D01*
X0238012Y0018793D01*
X0238042Y0018637D01*
X0238068Y0018481D01*
X0238089Y0018324D01*
X0238107Y0018167D01*
X0238121Y0018009D01*
X0238131Y0017851D01*
X0238137Y0017693D01*
X0238139Y0017535D01*
X0238137Y0017377D01*
X0238131Y0017219D01*
X0238121Y0017061D01*
X0238107Y0016903D01*
X0238089Y0016746D01*
X0238068Y0016589D01*
X0238042Y0016433D01*
X0238012Y0016277D01*
X0237979Y0016122D01*
X0237941Y0015969D01*
X0237900Y0015816D01*
X0237855Y0015664D01*
X0237806Y0015513D01*
X0237753Y0015364D01*
X0237697Y0015216D01*
X0237637Y0015070D01*
X0237573Y0014925D01*
X0237505Y0014782D01*
X0237434Y0014640D01*
X0237360Y0014500D01*
X0237282Y0014363D01*
X0237200Y0014227D01*
X0237116Y0014093D01*
X0237027Y0013962D01*
X0236936Y0013833D01*
X0236841Y0013706D01*
X0236744Y0013581D01*
X0236643Y0013459D01*
X0236539Y0013340D01*
X0236432Y0013223D01*
X0236322Y0013109D01*
X0236209Y0012998D01*
X0236094Y0012889D01*
X0235976Y0012784D01*
X0235855Y0012682D01*
X0235732Y0012582D01*
X0235606Y0012486D01*
X0235478Y0012393D01*
X0235348Y0012303D01*
X0235215Y0012217D01*
X0235080Y0012133D01*
X0234944Y0012054D01*
X0234805Y0011977D01*
X0234664Y0011905D01*
X0234522Y0011835D01*
X0234378Y0011770D01*
X0234232Y0011708D01*
X0234085Y0011650D01*
X0233936Y0011595D01*
X0233786Y0011544D01*
X0233635Y0011497D01*
X0233483Y0011454D01*
X0233330Y0011415D01*
X0233175Y0011379D01*
X0233020Y0011348D01*
X0232864Y0011320D01*
X0232708Y0011296D01*
X0232551Y0011276D01*
X0232393Y0011260D01*
X0232236Y0011248D01*
X0232077Y0011240D01*
X0231919Y0011236D01*
X0231761Y0011236D01*
X0231603Y0011240D01*
X0231444Y0011248D01*
X0231287Y0011260D01*
X0231129Y0011276D01*
X0230972Y0011296D01*
X0230816Y0011320D01*
X0230660Y0011348D01*
X0230505Y0011379D01*
X0230350Y0011415D01*
X0230197Y0011454D01*
X0230045Y0011497D01*
X0229894Y0011544D01*
X0229744Y0011595D01*
X0229595Y0011650D01*
X0229448Y0011708D01*
X0229302Y0011770D01*
X0229158Y0011835D01*
X0229016Y0011905D01*
X0228875Y0011977D01*
X0228736Y0012054D01*
X0228600Y0012133D01*
X0228465Y0012217D01*
X0228332Y0012303D01*
X0228202Y0012393D01*
X0228074Y0012486D01*
X0227948Y0012582D01*
X0227825Y0012682D01*
X0227704Y0012784D01*
X0227586Y0012889D01*
X0227471Y0012998D01*
X0227358Y0013109D01*
X0227248Y0013223D01*
X0227141Y0013340D01*
X0227037Y0013459D01*
X0226936Y0013581D01*
X0226839Y0013706D01*
X0226744Y0013833D01*
X0226653Y0013962D01*
X0226564Y0014093D01*
X0226480Y0014227D01*
X0226398Y0014363D01*
X0226320Y0014500D01*
X0226246Y0014640D01*
X0226175Y0014782D01*
X0226107Y0014925D01*
X0226043Y0015070D01*
X0225983Y0015216D01*
X0225927Y0015364D01*
X0225874Y0015513D01*
X0225825Y0015664D01*
X0225780Y0015816D01*
X0225739Y0015969D01*
X0225701Y0016122D01*
X0225668Y0016277D01*
X0225638Y0016433D01*
X0225612Y0016589D01*
X0225591Y0016746D01*
X0225573Y0016903D01*
X0225559Y0017061D01*
X0225549Y0017219D01*
X0225543Y0017377D01*
X0225541Y0017535D01*
X0231840Y0005724D02*
X0232125Y0005727D01*
X0232411Y0005738D01*
X0232696Y0005755D01*
X0232980Y0005779D01*
X0233264Y0005810D01*
X0233547Y0005848D01*
X0233828Y0005893D01*
X0234109Y0005944D01*
X0234389Y0006002D01*
X0234667Y0006067D01*
X0234943Y0006139D01*
X0235217Y0006217D01*
X0235490Y0006302D01*
X0235760Y0006394D01*
X0236028Y0006492D01*
X0236294Y0006596D01*
X0236557Y0006707D01*
X0236817Y0006824D01*
X0237075Y0006947D01*
X0237329Y0007077D01*
X0237580Y0007213D01*
X0237828Y0007354D01*
X0238072Y0007502D01*
X0238313Y0007655D01*
X0238549Y0007815D01*
X0238782Y0007980D01*
X0239011Y0008150D01*
X0239236Y0008326D01*
X0239456Y0008508D01*
X0239672Y0008694D01*
X0239883Y0008886D01*
X0240090Y0009083D01*
X0240292Y0009285D01*
X0240489Y0009492D01*
X0240681Y0009703D01*
X0240867Y0009919D01*
X0241049Y0010139D01*
X0241225Y0010364D01*
X0241395Y0010593D01*
X0241560Y0010826D01*
X0241720Y0011062D01*
X0241873Y0011303D01*
X0242021Y0011547D01*
X0242162Y0011795D01*
X0242298Y0012046D01*
X0242428Y0012300D01*
X0242551Y0012558D01*
X0242668Y0012818D01*
X0242779Y0013081D01*
X0242883Y0013347D01*
X0242981Y0013615D01*
X0243073Y0013885D01*
X0243158Y0014158D01*
X0243236Y0014432D01*
X0243308Y0014708D01*
X0243373Y0014986D01*
X0243431Y0015266D01*
X0243482Y0015547D01*
X0243527Y0015828D01*
X0243565Y0016111D01*
X0243596Y0016395D01*
X0243620Y0016679D01*
X0243637Y0016964D01*
X0243648Y0017250D01*
X0243651Y0017535D01*
X0231840Y0005724D02*
X0058612Y0005724D01*
X0052313Y0017535D02*
X0052315Y0017693D01*
X0052321Y0017851D01*
X0052331Y0018009D01*
X0052345Y0018167D01*
X0052363Y0018324D01*
X0052384Y0018481D01*
X0052410Y0018637D01*
X0052440Y0018793D01*
X0052473Y0018948D01*
X0052511Y0019101D01*
X0052552Y0019254D01*
X0052597Y0019406D01*
X0052646Y0019557D01*
X0052699Y0019706D01*
X0052755Y0019854D01*
X0052815Y0020000D01*
X0052879Y0020145D01*
X0052947Y0020288D01*
X0053018Y0020430D01*
X0053092Y0020570D01*
X0053170Y0020707D01*
X0053252Y0020843D01*
X0053336Y0020977D01*
X0053425Y0021108D01*
X0053516Y0021237D01*
X0053611Y0021364D01*
X0053708Y0021489D01*
X0053809Y0021611D01*
X0053913Y0021730D01*
X0054020Y0021847D01*
X0054130Y0021961D01*
X0054243Y0022072D01*
X0054358Y0022181D01*
X0054476Y0022286D01*
X0054597Y0022388D01*
X0054720Y0022488D01*
X0054846Y0022584D01*
X0054974Y0022677D01*
X0055104Y0022767D01*
X0055237Y0022853D01*
X0055372Y0022937D01*
X0055508Y0023016D01*
X0055647Y0023093D01*
X0055788Y0023165D01*
X0055930Y0023235D01*
X0056074Y0023300D01*
X0056220Y0023362D01*
X0056367Y0023420D01*
X0056516Y0023475D01*
X0056666Y0023526D01*
X0056817Y0023573D01*
X0056969Y0023616D01*
X0057122Y0023655D01*
X0057277Y0023691D01*
X0057432Y0023722D01*
X0057588Y0023750D01*
X0057744Y0023774D01*
X0057901Y0023794D01*
X0058059Y0023810D01*
X0058216Y0023822D01*
X0058375Y0023830D01*
X0058533Y0023834D01*
X0058691Y0023834D01*
X0058849Y0023830D01*
X0059008Y0023822D01*
X0059165Y0023810D01*
X0059323Y0023794D01*
X0059480Y0023774D01*
X0059636Y0023750D01*
X0059792Y0023722D01*
X0059947Y0023691D01*
X0060102Y0023655D01*
X0060255Y0023616D01*
X0060407Y0023573D01*
X0060558Y0023526D01*
X0060708Y0023475D01*
X0060857Y0023420D01*
X0061004Y0023362D01*
X0061150Y0023300D01*
X0061294Y0023235D01*
X0061436Y0023165D01*
X0061577Y0023093D01*
X0061716Y0023016D01*
X0061852Y0022937D01*
X0061987Y0022853D01*
X0062120Y0022767D01*
X0062250Y0022677D01*
X0062378Y0022584D01*
X0062504Y0022488D01*
X0062627Y0022388D01*
X0062748Y0022286D01*
X0062866Y0022181D01*
X0062981Y0022072D01*
X0063094Y0021961D01*
X0063204Y0021847D01*
X0063311Y0021730D01*
X0063415Y0021611D01*
X0063516Y0021489D01*
X0063613Y0021364D01*
X0063708Y0021237D01*
X0063799Y0021108D01*
X0063888Y0020977D01*
X0063972Y0020843D01*
X0064054Y0020707D01*
X0064132Y0020570D01*
X0064206Y0020430D01*
X0064277Y0020288D01*
X0064345Y0020145D01*
X0064409Y0020000D01*
X0064469Y0019854D01*
X0064525Y0019706D01*
X0064578Y0019557D01*
X0064627Y0019406D01*
X0064672Y0019254D01*
X0064713Y0019101D01*
X0064751Y0018948D01*
X0064784Y0018793D01*
X0064814Y0018637D01*
X0064840Y0018481D01*
X0064861Y0018324D01*
X0064879Y0018167D01*
X0064893Y0018009D01*
X0064903Y0017851D01*
X0064909Y0017693D01*
X0064911Y0017535D01*
X0064909Y0017377D01*
X0064903Y0017219D01*
X0064893Y0017061D01*
X0064879Y0016903D01*
X0064861Y0016746D01*
X0064840Y0016589D01*
X0064814Y0016433D01*
X0064784Y0016277D01*
X0064751Y0016122D01*
X0064713Y0015969D01*
X0064672Y0015816D01*
X0064627Y0015664D01*
X0064578Y0015513D01*
X0064525Y0015364D01*
X0064469Y0015216D01*
X0064409Y0015070D01*
X0064345Y0014925D01*
X0064277Y0014782D01*
X0064206Y0014640D01*
X0064132Y0014500D01*
X0064054Y0014363D01*
X0063972Y0014227D01*
X0063888Y0014093D01*
X0063799Y0013962D01*
X0063708Y0013833D01*
X0063613Y0013706D01*
X0063516Y0013581D01*
X0063415Y0013459D01*
X0063311Y0013340D01*
X0063204Y0013223D01*
X0063094Y0013109D01*
X0062981Y0012998D01*
X0062866Y0012889D01*
X0062748Y0012784D01*
X0062627Y0012682D01*
X0062504Y0012582D01*
X0062378Y0012486D01*
X0062250Y0012393D01*
X0062120Y0012303D01*
X0061987Y0012217D01*
X0061852Y0012133D01*
X0061716Y0012054D01*
X0061577Y0011977D01*
X0061436Y0011905D01*
X0061294Y0011835D01*
X0061150Y0011770D01*
X0061004Y0011708D01*
X0060857Y0011650D01*
X0060708Y0011595D01*
X0060558Y0011544D01*
X0060407Y0011497D01*
X0060255Y0011454D01*
X0060102Y0011415D01*
X0059947Y0011379D01*
X0059792Y0011348D01*
X0059636Y0011320D01*
X0059480Y0011296D01*
X0059323Y0011276D01*
X0059165Y0011260D01*
X0059008Y0011248D01*
X0058849Y0011240D01*
X0058691Y0011236D01*
X0058533Y0011236D01*
X0058375Y0011240D01*
X0058216Y0011248D01*
X0058059Y0011260D01*
X0057901Y0011276D01*
X0057744Y0011296D01*
X0057588Y0011320D01*
X0057432Y0011348D01*
X0057277Y0011379D01*
X0057122Y0011415D01*
X0056969Y0011454D01*
X0056817Y0011497D01*
X0056666Y0011544D01*
X0056516Y0011595D01*
X0056367Y0011650D01*
X0056220Y0011708D01*
X0056074Y0011770D01*
X0055930Y0011835D01*
X0055788Y0011905D01*
X0055647Y0011977D01*
X0055508Y0012054D01*
X0055372Y0012133D01*
X0055237Y0012217D01*
X0055104Y0012303D01*
X0054974Y0012393D01*
X0054846Y0012486D01*
X0054720Y0012582D01*
X0054597Y0012682D01*
X0054476Y0012784D01*
X0054358Y0012889D01*
X0054243Y0012998D01*
X0054130Y0013109D01*
X0054020Y0013223D01*
X0053913Y0013340D01*
X0053809Y0013459D01*
X0053708Y0013581D01*
X0053611Y0013706D01*
X0053516Y0013833D01*
X0053425Y0013962D01*
X0053336Y0014093D01*
X0053252Y0014227D01*
X0053170Y0014363D01*
X0053092Y0014500D01*
X0053018Y0014640D01*
X0052947Y0014782D01*
X0052879Y0014925D01*
X0052815Y0015070D01*
X0052755Y0015216D01*
X0052699Y0015364D01*
X0052646Y0015513D01*
X0052597Y0015664D01*
X0052552Y0015816D01*
X0052511Y0015969D01*
X0052473Y0016122D01*
X0052440Y0016277D01*
X0052410Y0016433D01*
X0052384Y0016589D01*
X0052363Y0016746D01*
X0052345Y0016903D01*
X0052331Y0017061D01*
X0052321Y0017219D01*
X0052315Y0017377D01*
X0052313Y0017535D01*
X0046801Y0017535D02*
X0046804Y0017250D01*
X0046815Y0016964D01*
X0046832Y0016679D01*
X0046856Y0016395D01*
X0046887Y0016111D01*
X0046925Y0015828D01*
X0046970Y0015547D01*
X0047021Y0015266D01*
X0047079Y0014986D01*
X0047144Y0014708D01*
X0047216Y0014432D01*
X0047294Y0014158D01*
X0047379Y0013885D01*
X0047471Y0013615D01*
X0047569Y0013347D01*
X0047673Y0013081D01*
X0047784Y0012818D01*
X0047901Y0012558D01*
X0048024Y0012300D01*
X0048154Y0012046D01*
X0048290Y0011795D01*
X0048431Y0011547D01*
X0048579Y0011303D01*
X0048732Y0011062D01*
X0048892Y0010826D01*
X0049057Y0010593D01*
X0049227Y0010364D01*
X0049403Y0010139D01*
X0049585Y0009919D01*
X0049771Y0009703D01*
X0049963Y0009492D01*
X0050160Y0009285D01*
X0050362Y0009083D01*
X0050569Y0008886D01*
X0050780Y0008694D01*
X0050996Y0008508D01*
X0051216Y0008326D01*
X0051441Y0008150D01*
X0051670Y0007980D01*
X0051903Y0007815D01*
X0052139Y0007655D01*
X0052380Y0007502D01*
X0052624Y0007354D01*
X0052872Y0007213D01*
X0053123Y0007077D01*
X0053377Y0006947D01*
X0053635Y0006824D01*
X0053895Y0006707D01*
X0054158Y0006596D01*
X0054424Y0006492D01*
X0054692Y0006394D01*
X0054962Y0006302D01*
X0055235Y0006217D01*
X0055509Y0006139D01*
X0055785Y0006067D01*
X0056063Y0006002D01*
X0056343Y0005944D01*
X0056624Y0005893D01*
X0056905Y0005848D01*
X0057188Y0005810D01*
X0057472Y0005779D01*
X0057756Y0005755D01*
X0058041Y0005738D01*
X0058327Y0005727D01*
X0058612Y0005724D01*
X0098848Y0064780D02*
X0098850Y0064938D01*
X0098856Y0065096D01*
X0098866Y0065254D01*
X0098880Y0065412D01*
X0098898Y0065569D01*
X0098919Y0065726D01*
X0098945Y0065882D01*
X0098975Y0066038D01*
X0099008Y0066193D01*
X0099046Y0066346D01*
X0099087Y0066499D01*
X0099132Y0066651D01*
X0099181Y0066802D01*
X0099234Y0066951D01*
X0099290Y0067099D01*
X0099350Y0067245D01*
X0099414Y0067390D01*
X0099482Y0067533D01*
X0099553Y0067675D01*
X0099627Y0067815D01*
X0099705Y0067952D01*
X0099787Y0068088D01*
X0099871Y0068222D01*
X0099960Y0068353D01*
X0100051Y0068482D01*
X0100146Y0068609D01*
X0100243Y0068734D01*
X0100344Y0068856D01*
X0100448Y0068975D01*
X0100555Y0069092D01*
X0100665Y0069206D01*
X0100778Y0069317D01*
X0100893Y0069426D01*
X0101011Y0069531D01*
X0101132Y0069633D01*
X0101255Y0069733D01*
X0101381Y0069829D01*
X0101509Y0069922D01*
X0101639Y0070012D01*
X0101772Y0070098D01*
X0101907Y0070182D01*
X0102043Y0070261D01*
X0102182Y0070338D01*
X0102323Y0070410D01*
X0102465Y0070480D01*
X0102609Y0070545D01*
X0102755Y0070607D01*
X0102902Y0070665D01*
X0103051Y0070720D01*
X0103201Y0070771D01*
X0103352Y0070818D01*
X0103504Y0070861D01*
X0103657Y0070900D01*
X0103812Y0070936D01*
X0103967Y0070967D01*
X0104123Y0070995D01*
X0104279Y0071019D01*
X0104436Y0071039D01*
X0104594Y0071055D01*
X0104751Y0071067D01*
X0104910Y0071075D01*
X0105068Y0071079D01*
X0105226Y0071079D01*
X0105384Y0071075D01*
X0105543Y0071067D01*
X0105700Y0071055D01*
X0105858Y0071039D01*
X0106015Y0071019D01*
X0106171Y0070995D01*
X0106327Y0070967D01*
X0106482Y0070936D01*
X0106637Y0070900D01*
X0106790Y0070861D01*
X0106942Y0070818D01*
X0107093Y0070771D01*
X0107243Y0070720D01*
X0107392Y0070665D01*
X0107539Y0070607D01*
X0107685Y0070545D01*
X0107829Y0070480D01*
X0107971Y0070410D01*
X0108112Y0070338D01*
X0108251Y0070261D01*
X0108387Y0070182D01*
X0108522Y0070098D01*
X0108655Y0070012D01*
X0108785Y0069922D01*
X0108913Y0069829D01*
X0109039Y0069733D01*
X0109162Y0069633D01*
X0109283Y0069531D01*
X0109401Y0069426D01*
X0109516Y0069317D01*
X0109629Y0069206D01*
X0109739Y0069092D01*
X0109846Y0068975D01*
X0109950Y0068856D01*
X0110051Y0068734D01*
X0110148Y0068609D01*
X0110243Y0068482D01*
X0110334Y0068353D01*
X0110423Y0068222D01*
X0110507Y0068088D01*
X0110589Y0067952D01*
X0110667Y0067815D01*
X0110741Y0067675D01*
X0110812Y0067533D01*
X0110880Y0067390D01*
X0110944Y0067245D01*
X0111004Y0067099D01*
X0111060Y0066951D01*
X0111113Y0066802D01*
X0111162Y0066651D01*
X0111207Y0066499D01*
X0111248Y0066346D01*
X0111286Y0066193D01*
X0111319Y0066038D01*
X0111349Y0065882D01*
X0111375Y0065726D01*
X0111396Y0065569D01*
X0111414Y0065412D01*
X0111428Y0065254D01*
X0111438Y0065096D01*
X0111444Y0064938D01*
X0111446Y0064780D01*
X0111444Y0064622D01*
X0111438Y0064464D01*
X0111428Y0064306D01*
X0111414Y0064148D01*
X0111396Y0063991D01*
X0111375Y0063834D01*
X0111349Y0063678D01*
X0111319Y0063522D01*
X0111286Y0063367D01*
X0111248Y0063214D01*
X0111207Y0063061D01*
X0111162Y0062909D01*
X0111113Y0062758D01*
X0111060Y0062609D01*
X0111004Y0062461D01*
X0110944Y0062315D01*
X0110880Y0062170D01*
X0110812Y0062027D01*
X0110741Y0061885D01*
X0110667Y0061745D01*
X0110589Y0061608D01*
X0110507Y0061472D01*
X0110423Y0061338D01*
X0110334Y0061207D01*
X0110243Y0061078D01*
X0110148Y0060951D01*
X0110051Y0060826D01*
X0109950Y0060704D01*
X0109846Y0060585D01*
X0109739Y0060468D01*
X0109629Y0060354D01*
X0109516Y0060243D01*
X0109401Y0060134D01*
X0109283Y0060029D01*
X0109162Y0059927D01*
X0109039Y0059827D01*
X0108913Y0059731D01*
X0108785Y0059638D01*
X0108655Y0059548D01*
X0108522Y0059462D01*
X0108387Y0059378D01*
X0108251Y0059299D01*
X0108112Y0059222D01*
X0107971Y0059150D01*
X0107829Y0059080D01*
X0107685Y0059015D01*
X0107539Y0058953D01*
X0107392Y0058895D01*
X0107243Y0058840D01*
X0107093Y0058789D01*
X0106942Y0058742D01*
X0106790Y0058699D01*
X0106637Y0058660D01*
X0106482Y0058624D01*
X0106327Y0058593D01*
X0106171Y0058565D01*
X0106015Y0058541D01*
X0105858Y0058521D01*
X0105700Y0058505D01*
X0105543Y0058493D01*
X0105384Y0058485D01*
X0105226Y0058481D01*
X0105068Y0058481D01*
X0104910Y0058485D01*
X0104751Y0058493D01*
X0104594Y0058505D01*
X0104436Y0058521D01*
X0104279Y0058541D01*
X0104123Y0058565D01*
X0103967Y0058593D01*
X0103812Y0058624D01*
X0103657Y0058660D01*
X0103504Y0058699D01*
X0103352Y0058742D01*
X0103201Y0058789D01*
X0103051Y0058840D01*
X0102902Y0058895D01*
X0102755Y0058953D01*
X0102609Y0059015D01*
X0102465Y0059080D01*
X0102323Y0059150D01*
X0102182Y0059222D01*
X0102043Y0059299D01*
X0101907Y0059378D01*
X0101772Y0059462D01*
X0101639Y0059548D01*
X0101509Y0059638D01*
X0101381Y0059731D01*
X0101255Y0059827D01*
X0101132Y0059927D01*
X0101011Y0060029D01*
X0100893Y0060134D01*
X0100778Y0060243D01*
X0100665Y0060354D01*
X0100555Y0060468D01*
X0100448Y0060585D01*
X0100344Y0060704D01*
X0100243Y0060826D01*
X0100146Y0060951D01*
X0100051Y0061078D01*
X0099960Y0061207D01*
X0099871Y0061338D01*
X0099787Y0061472D01*
X0099705Y0061608D01*
X0099627Y0061745D01*
X0099553Y0061885D01*
X0099482Y0062027D01*
X0099414Y0062170D01*
X0099350Y0062315D01*
X0099290Y0062461D01*
X0099234Y0062609D01*
X0099181Y0062758D01*
X0099132Y0062909D01*
X0099087Y0063061D01*
X0099046Y0063214D01*
X0099008Y0063367D01*
X0098975Y0063522D01*
X0098945Y0063678D01*
X0098919Y0063834D01*
X0098898Y0063991D01*
X0098880Y0064148D01*
X0098866Y0064306D01*
X0098856Y0064464D01*
X0098850Y0064622D01*
X0098848Y0064780D01*
X0098848Y0143520D02*
X0098850Y0143678D01*
X0098856Y0143836D01*
X0098866Y0143994D01*
X0098880Y0144152D01*
X0098898Y0144309D01*
X0098919Y0144466D01*
X0098945Y0144622D01*
X0098975Y0144778D01*
X0099008Y0144933D01*
X0099046Y0145086D01*
X0099087Y0145239D01*
X0099132Y0145391D01*
X0099181Y0145542D01*
X0099234Y0145691D01*
X0099290Y0145839D01*
X0099350Y0145985D01*
X0099414Y0146130D01*
X0099482Y0146273D01*
X0099553Y0146415D01*
X0099627Y0146555D01*
X0099705Y0146692D01*
X0099787Y0146828D01*
X0099871Y0146962D01*
X0099960Y0147093D01*
X0100051Y0147222D01*
X0100146Y0147349D01*
X0100243Y0147474D01*
X0100344Y0147596D01*
X0100448Y0147715D01*
X0100555Y0147832D01*
X0100665Y0147946D01*
X0100778Y0148057D01*
X0100893Y0148166D01*
X0101011Y0148271D01*
X0101132Y0148373D01*
X0101255Y0148473D01*
X0101381Y0148569D01*
X0101509Y0148662D01*
X0101639Y0148752D01*
X0101772Y0148838D01*
X0101907Y0148922D01*
X0102043Y0149001D01*
X0102182Y0149078D01*
X0102323Y0149150D01*
X0102465Y0149220D01*
X0102609Y0149285D01*
X0102755Y0149347D01*
X0102902Y0149405D01*
X0103051Y0149460D01*
X0103201Y0149511D01*
X0103352Y0149558D01*
X0103504Y0149601D01*
X0103657Y0149640D01*
X0103812Y0149676D01*
X0103967Y0149707D01*
X0104123Y0149735D01*
X0104279Y0149759D01*
X0104436Y0149779D01*
X0104594Y0149795D01*
X0104751Y0149807D01*
X0104910Y0149815D01*
X0105068Y0149819D01*
X0105226Y0149819D01*
X0105384Y0149815D01*
X0105543Y0149807D01*
X0105700Y0149795D01*
X0105858Y0149779D01*
X0106015Y0149759D01*
X0106171Y0149735D01*
X0106327Y0149707D01*
X0106482Y0149676D01*
X0106637Y0149640D01*
X0106790Y0149601D01*
X0106942Y0149558D01*
X0107093Y0149511D01*
X0107243Y0149460D01*
X0107392Y0149405D01*
X0107539Y0149347D01*
X0107685Y0149285D01*
X0107829Y0149220D01*
X0107971Y0149150D01*
X0108112Y0149078D01*
X0108251Y0149001D01*
X0108387Y0148922D01*
X0108522Y0148838D01*
X0108655Y0148752D01*
X0108785Y0148662D01*
X0108913Y0148569D01*
X0109039Y0148473D01*
X0109162Y0148373D01*
X0109283Y0148271D01*
X0109401Y0148166D01*
X0109516Y0148057D01*
X0109629Y0147946D01*
X0109739Y0147832D01*
X0109846Y0147715D01*
X0109950Y0147596D01*
X0110051Y0147474D01*
X0110148Y0147349D01*
X0110243Y0147222D01*
X0110334Y0147093D01*
X0110423Y0146962D01*
X0110507Y0146828D01*
X0110589Y0146692D01*
X0110667Y0146555D01*
X0110741Y0146415D01*
X0110812Y0146273D01*
X0110880Y0146130D01*
X0110944Y0145985D01*
X0111004Y0145839D01*
X0111060Y0145691D01*
X0111113Y0145542D01*
X0111162Y0145391D01*
X0111207Y0145239D01*
X0111248Y0145086D01*
X0111286Y0144933D01*
X0111319Y0144778D01*
X0111349Y0144622D01*
X0111375Y0144466D01*
X0111396Y0144309D01*
X0111414Y0144152D01*
X0111428Y0143994D01*
X0111438Y0143836D01*
X0111444Y0143678D01*
X0111446Y0143520D01*
X0111444Y0143362D01*
X0111438Y0143204D01*
X0111428Y0143046D01*
X0111414Y0142888D01*
X0111396Y0142731D01*
X0111375Y0142574D01*
X0111349Y0142418D01*
X0111319Y0142262D01*
X0111286Y0142107D01*
X0111248Y0141954D01*
X0111207Y0141801D01*
X0111162Y0141649D01*
X0111113Y0141498D01*
X0111060Y0141349D01*
X0111004Y0141201D01*
X0110944Y0141055D01*
X0110880Y0140910D01*
X0110812Y0140767D01*
X0110741Y0140625D01*
X0110667Y0140485D01*
X0110589Y0140348D01*
X0110507Y0140212D01*
X0110423Y0140078D01*
X0110334Y0139947D01*
X0110243Y0139818D01*
X0110148Y0139691D01*
X0110051Y0139566D01*
X0109950Y0139444D01*
X0109846Y0139325D01*
X0109739Y0139208D01*
X0109629Y0139094D01*
X0109516Y0138983D01*
X0109401Y0138874D01*
X0109283Y0138769D01*
X0109162Y0138667D01*
X0109039Y0138567D01*
X0108913Y0138471D01*
X0108785Y0138378D01*
X0108655Y0138288D01*
X0108522Y0138202D01*
X0108387Y0138118D01*
X0108251Y0138039D01*
X0108112Y0137962D01*
X0107971Y0137890D01*
X0107829Y0137820D01*
X0107685Y0137755D01*
X0107539Y0137693D01*
X0107392Y0137635D01*
X0107243Y0137580D01*
X0107093Y0137529D01*
X0106942Y0137482D01*
X0106790Y0137439D01*
X0106637Y0137400D01*
X0106482Y0137364D01*
X0106327Y0137333D01*
X0106171Y0137305D01*
X0106015Y0137281D01*
X0105858Y0137261D01*
X0105700Y0137245D01*
X0105543Y0137233D01*
X0105384Y0137225D01*
X0105226Y0137221D01*
X0105068Y0137221D01*
X0104910Y0137225D01*
X0104751Y0137233D01*
X0104594Y0137245D01*
X0104436Y0137261D01*
X0104279Y0137281D01*
X0104123Y0137305D01*
X0103967Y0137333D01*
X0103812Y0137364D01*
X0103657Y0137400D01*
X0103504Y0137439D01*
X0103352Y0137482D01*
X0103201Y0137529D01*
X0103051Y0137580D01*
X0102902Y0137635D01*
X0102755Y0137693D01*
X0102609Y0137755D01*
X0102465Y0137820D01*
X0102323Y0137890D01*
X0102182Y0137962D01*
X0102043Y0138039D01*
X0101907Y0138118D01*
X0101772Y0138202D01*
X0101639Y0138288D01*
X0101509Y0138378D01*
X0101381Y0138471D01*
X0101255Y0138567D01*
X0101132Y0138667D01*
X0101011Y0138769D01*
X0100893Y0138874D01*
X0100778Y0138983D01*
X0100665Y0139094D01*
X0100555Y0139208D01*
X0100448Y0139325D01*
X0100344Y0139444D01*
X0100243Y0139566D01*
X0100146Y0139691D01*
X0100051Y0139818D01*
X0099960Y0139947D01*
X0099871Y0140078D01*
X0099787Y0140212D01*
X0099705Y0140348D01*
X0099627Y0140485D01*
X0099553Y0140625D01*
X0099482Y0140767D01*
X0099414Y0140910D01*
X0099350Y0141055D01*
X0099290Y0141201D01*
X0099234Y0141349D01*
X0099181Y0141498D01*
X0099132Y0141649D01*
X0099087Y0141801D01*
X0099046Y0141954D01*
X0099008Y0142107D01*
X0098975Y0142262D01*
X0098945Y0142418D01*
X0098919Y0142574D01*
X0098898Y0142731D01*
X0098880Y0142888D01*
X0098866Y0143046D01*
X0098856Y0143204D01*
X0098850Y0143362D01*
X0098848Y0143520D01*
D11*
X0163651Y0143598D03*
X0163651Y0129425D03*
X0236801Y0099661D03*
X0236801Y0085488D03*
D12*
X0236801Y0082575D03*
X0236801Y0102575D03*
X0208651Y0137575D03*
X0178651Y0137575D03*
X0163651Y0146512D03*
X0163651Y0126512D03*
X0150088Y0104937D03*
X0139301Y0104937D03*
X0139301Y0074937D03*
X0150088Y0074937D03*
X0166013Y0064937D03*
X0163651Y0047575D03*
X0183651Y0047575D03*
X0203651Y0047575D03*
X0196013Y0064937D03*
X0193651Y0027575D03*
X0193651Y0017575D03*
X0203651Y0017575D03*
X0213651Y0017575D03*
X0213651Y0027575D03*
X0183651Y0017575D03*
X0173651Y0017575D03*
X0173651Y0027575D03*
X0163651Y0017575D03*
X0153651Y0017575D03*
X0153651Y0027575D03*
X0143651Y0017575D03*
X0143651Y0047575D03*
D13*
X0166801Y0074975D02*
X0166801Y0080175D01*
X0176801Y0080175D02*
X0176801Y0074975D01*
X0186801Y0074975D02*
X0186801Y0080175D01*
X0196801Y0080175D02*
X0196801Y0074975D01*
X0206801Y0074975D02*
X0206801Y0080175D01*
X0216801Y0080175D02*
X0216801Y0074975D01*
X0226801Y0074975D02*
X0226801Y0080175D01*
X0226801Y0104975D02*
X0226801Y0110175D01*
X0216801Y0110175D02*
X0216801Y0104975D01*
X0206801Y0104975D02*
X0206801Y0110175D01*
X0196801Y0110175D02*
X0196801Y0104975D01*
X0186801Y0104975D02*
X0186801Y0110175D01*
X0176801Y0110175D02*
X0176801Y0104975D01*
X0166801Y0104975D02*
X0166801Y0110175D01*
D14*
X0186564Y0137575D03*
X0200738Y0137575D03*
X0188100Y0064937D03*
X0173927Y0064937D03*
D15*
X0178730Y0154031D03*
X0178730Y0161906D03*
X0188572Y0161906D03*
X0188572Y0154031D03*
D16*
X0207352Y0172575D03*
X0159950Y0172575D03*
D17*
X0150088Y0097024D03*
X0139301Y0097024D03*
X0139301Y0082850D03*
X0150088Y0082850D03*
X0143651Y0039661D03*
X0143651Y0025488D03*
X0163651Y0025488D03*
X0163651Y0039661D03*
X0183651Y0039661D03*
X0183651Y0025488D03*
X0203651Y0025488D03*
X0203651Y0039661D03*
D18*
X0213651Y0024661D03*
X0213651Y0020488D03*
X0193651Y0020488D03*
X0193651Y0024661D03*
X0173651Y0024661D03*
X0173651Y0020488D03*
X0153651Y0020488D03*
X0153651Y0024661D03*
D19*
X0233651Y0127575D03*
X0233651Y0137575D03*
X0233651Y0147575D03*
X0233651Y0157575D03*
D20*
X0127667Y0124150D03*
X0127667Y0114150D03*
X0117667Y0114150D03*
X0117667Y0104150D03*
X0127667Y0104150D03*
X0127667Y0094150D03*
X0117667Y0094150D03*
X0117667Y0084150D03*
X0127667Y0084150D03*
D21*
X0117667Y0124150D03*
D22*
X0121942Y0124150D01*
X0127667Y0124150D01*
X0127667Y0124150D01*
X0127667Y0129874D01*
X0128117Y0129874D01*
X0129007Y0129733D01*
X0129864Y0129455D01*
X0130667Y0129046D01*
X0131396Y0128516D01*
X0132033Y0127879D01*
X0132563Y0127150D01*
X0132972Y0126347D01*
X0133250Y0125490D01*
X0133391Y0124600D01*
X0133391Y0124150D01*
X0127667Y0124150D01*
X0127667Y0124150D01*
X0127667Y0129874D01*
X0127216Y0129874D01*
X0126326Y0129733D01*
X0125469Y0129455D01*
X0124666Y0129046D01*
X0123937Y0128516D01*
X0123322Y0127900D01*
X0123292Y0128050D01*
X0123098Y0128519D01*
X0122816Y0128941D01*
X0122458Y0129299D01*
X0122036Y0129581D01*
X0121849Y0129658D01*
X0123153Y0130528D01*
X0135232Y0130528D01*
X0140108Y0125652D01*
X0140108Y0112982D01*
X0139149Y0112024D01*
X0137891Y0112024D01*
X0135286Y0110945D01*
X0133293Y0108951D01*
X0133011Y0108271D01*
X0132132Y0109150D01*
X0133341Y0110358D01*
X0134360Y0112818D01*
X0134360Y0115481D01*
X0133341Y0117941D01*
X0131458Y0119824D01*
X0131443Y0119830D01*
X0132033Y0120420D01*
X0132563Y0121149D01*
X0132972Y0121952D01*
X0133250Y0122809D01*
X0133391Y0123699D01*
X0133391Y0124150D01*
X0127667Y0124150D01*
X0127667Y0124150D01*
X0117667Y0124150D01*
X0117667Y0124150D01*
X0123105Y0128501D02*
X0123923Y0128501D01*
X0127667Y0128501D02*
X0127667Y0128501D01*
X0127667Y0125353D02*
X0127667Y0125353D01*
X0131411Y0128501D02*
X0137258Y0128501D01*
X0140108Y0125353D02*
X0133272Y0125353D01*
X0133054Y0122205D02*
X0140108Y0122205D01*
X0140108Y0119057D02*
X0132225Y0119057D01*
X0134182Y0115909D02*
X0140108Y0115909D01*
X0139886Y0112760D02*
X0134336Y0112760D01*
X0133954Y0109612D02*
X0132595Y0109612D01*
X0139301Y0104937D02*
X0145226Y0110862D01*
X0145226Y0127772D01*
X0137352Y0135646D01*
X0121604Y0135646D01*
X0109793Y0127772D01*
X0109793Y0108087D01*
X0113730Y0104150D01*
X0117667Y0104150D01*
X0112141Y0099268D02*
X0110586Y0099268D01*
X0108704Y0098489D01*
X0106893Y0096677D01*
X0105454Y0095238D01*
X0104675Y0093357D01*
X0104675Y0081490D01*
X0102086Y0081296D01*
X0102086Y0081296D01*
X0097385Y0079451D01*
X0093436Y0076303D01*
X0090592Y0072130D01*
X0089103Y0067305D01*
X0089103Y0062254D01*
X0090592Y0057429D01*
X0090592Y0057429D01*
X0093436Y0053256D01*
X0093436Y0053256D01*
X0093436Y0053256D01*
X0097385Y0050108D01*
X0102086Y0048263D01*
X0107122Y0047885D01*
X0112045Y0049009D01*
X0112045Y0049009D01*
X0116419Y0051534D01*
X0119854Y0055236D01*
X0122045Y0059786D01*
X0122797Y0064780D01*
X0122376Y0067573D01*
X0122716Y0067657D01*
X0123606Y0067834D01*
X0123701Y0067898D01*
X0133831Y0070384D01*
X0135286Y0068929D01*
X0137891Y0067850D01*
X0140710Y0067850D01*
X0143315Y0068929D01*
X0144204Y0069819D01*
X0145184Y0069819D01*
X0146074Y0068929D01*
X0148678Y0067850D01*
X0151498Y0067850D01*
X0154102Y0068929D01*
X0154992Y0069819D01*
X0159531Y0069819D01*
X0161412Y0070598D01*
X0161682Y0070868D01*
X0161682Y0070628D01*
X0160005Y0068951D01*
X0158927Y0066347D01*
X0158927Y0063527D01*
X0160005Y0060923D01*
X0161999Y0058929D01*
X0164603Y0057850D01*
X0167423Y0057850D01*
X0170027Y0058929D01*
X0170523Y0059425D01*
X0180931Y0059425D01*
X0181013Y0059459D01*
X0181096Y0059425D01*
X0191503Y0059425D01*
X0191999Y0058929D01*
X0194603Y0057850D01*
X0197423Y0057850D01*
X0200027Y0058929D01*
X0202021Y0060923D01*
X0203100Y0063527D01*
X0203100Y0066347D01*
X0202021Y0068951D01*
X0201919Y0069053D01*
X0201919Y0071169D01*
X0203321Y0069767D01*
X0205579Y0068831D01*
X0208022Y0068831D01*
X0210280Y0069767D01*
X0211801Y0071287D01*
X0213321Y0069767D01*
X0215579Y0068831D01*
X0216682Y0068831D01*
X0216682Y0060344D01*
X0209681Y0053343D01*
X0207905Y0053343D01*
X0207665Y0053583D01*
X0205061Y0054661D01*
X0202241Y0054661D01*
X0199637Y0053583D01*
X0197643Y0051589D01*
X0196564Y0048984D01*
X0196564Y0046165D01*
X0197643Y0043561D01*
X0198139Y0043065D01*
X0198139Y0033109D01*
X0197665Y0033583D01*
X0195061Y0034661D01*
X0192241Y0034661D01*
X0189637Y0033583D01*
X0189397Y0033343D01*
X0189163Y0033343D01*
X0189163Y0043065D01*
X0189659Y0043561D01*
X0190738Y0046165D01*
X0190738Y0048984D01*
X0189659Y0051589D01*
X0187665Y0053583D01*
X0185061Y0054661D01*
X0182241Y0054661D01*
X0179637Y0053583D01*
X0177643Y0051589D01*
X0176564Y0048984D01*
X0176564Y0046165D01*
X0177643Y0043561D01*
X0178139Y0043065D01*
X0178139Y0033109D01*
X0177665Y0033583D01*
X0175061Y0034661D01*
X0172241Y0034661D01*
X0169637Y0033583D01*
X0169397Y0033343D01*
X0169163Y0033343D01*
X0169163Y0043065D01*
X0169659Y0043561D01*
X0170738Y0046165D01*
X0170738Y0048984D01*
X0169659Y0051589D01*
X0167665Y0053583D01*
X0165061Y0054661D01*
X0162241Y0054661D01*
X0159637Y0053583D01*
X0157643Y0051589D01*
X0156564Y0048984D01*
X0156564Y0046165D01*
X0157643Y0043561D01*
X0158139Y0043065D01*
X0158139Y0033109D01*
X0157665Y0033583D01*
X0155061Y0034661D01*
X0152241Y0034661D01*
X0149637Y0033583D01*
X0149397Y0033343D01*
X0149163Y0033343D01*
X0149163Y0043065D01*
X0149659Y0043561D01*
X0150738Y0046165D01*
X0150738Y0048984D01*
X0149659Y0051589D01*
X0147665Y0053583D01*
X0145061Y0054661D01*
X0142241Y0054661D01*
X0139637Y0053583D01*
X0137643Y0051589D01*
X0136564Y0048984D01*
X0136564Y0046165D01*
X0137643Y0043561D01*
X0138139Y0043065D01*
X0138139Y0032657D01*
X0138173Y0032575D01*
X0138139Y0032492D01*
X0138139Y0022085D01*
X0137643Y0021589D01*
X0136564Y0018984D01*
X0136564Y0016165D01*
X0137643Y0013561D01*
X0139637Y0011567D01*
X0142241Y0010488D01*
X0145061Y0010488D01*
X0147665Y0011567D01*
X0149336Y0013238D01*
X0149665Y0012908D01*
X0150444Y0012342D01*
X0151302Y0011905D01*
X0152218Y0011607D01*
X0153169Y0011457D01*
X0153651Y0011457D01*
X0154132Y0011457D01*
X0155084Y0011607D01*
X0155999Y0011905D01*
X0156857Y0012342D01*
X0157637Y0012908D01*
X0157966Y0013238D01*
X0159637Y0011567D01*
X0162241Y0010488D01*
X0165061Y0010488D01*
X0167665Y0011567D01*
X0169336Y0013238D01*
X0169665Y0012908D01*
X0170444Y0012342D01*
X0171302Y0011905D01*
X0172218Y0011607D01*
X0173169Y0011457D01*
X0173651Y0011457D01*
X0174132Y0011457D01*
X0175084Y0011607D01*
X0175999Y0011905D01*
X0176857Y0012342D01*
X0177637Y0012908D01*
X0177966Y0013238D01*
X0179637Y0011567D01*
X0182241Y0010488D01*
X0185061Y0010488D01*
X0187665Y0011567D01*
X0189336Y0013238D01*
X0189665Y0012908D01*
X0190444Y0012342D01*
X0191302Y0011905D01*
X0192218Y0011607D01*
X0193169Y0011457D01*
X0193651Y0011457D01*
X0194132Y0011457D01*
X0195084Y0011607D01*
X0195999Y0011905D01*
X0196857Y0012342D01*
X0197637Y0012908D01*
X0197966Y0013238D01*
X0199637Y0011567D01*
X0202241Y0010488D01*
X0205061Y0010488D01*
X0207665Y0011567D01*
X0209336Y0013238D01*
X0209665Y0012908D01*
X0210444Y0012342D01*
X0211302Y0011905D01*
X0212218Y0011607D01*
X0213169Y0011457D01*
X0213651Y0011457D01*
X0214132Y0011457D01*
X0215084Y0011607D01*
X0215999Y0011905D01*
X0216039Y0011925D01*
X0216576Y0010185D01*
X0216576Y0010185D01*
X0217201Y0009268D01*
X0073224Y0009268D01*
X0074801Y0012542D01*
X0075553Y0017535D01*
X0074801Y0022529D01*
X0072609Y0027079D01*
X0069175Y0030781D01*
X0069175Y0030781D01*
X0064801Y0033306D01*
X0059878Y0034430D01*
X0059878Y0034430D01*
X0054842Y0034052D01*
X0054842Y0034052D01*
X0050344Y0032287D01*
X0050344Y0176012D01*
X0054842Y0174247D01*
X0059878Y0173869D01*
X0064801Y0174993D01*
X0069175Y0177518D01*
X0072609Y0181220D01*
X0072609Y0181220D01*
X0074801Y0185770D01*
X0074801Y0185770D01*
X0075553Y0190764D01*
X0074801Y0195757D01*
X0073224Y0199031D01*
X0217201Y0199031D01*
X0216576Y0198115D01*
X0216576Y0198115D01*
X0215087Y0193289D01*
X0215087Y0188239D01*
X0216576Y0183413D01*
X0219421Y0179240D01*
X0223369Y0176092D01*
X0228070Y0174247D01*
X0233106Y0173869D01*
X0238029Y0174993D01*
X0240108Y0176193D01*
X0240108Y0158420D01*
X0240051Y0158848D01*
X0239830Y0159672D01*
X0239504Y0160461D01*
X0239077Y0161200D01*
X0238557Y0161878D01*
X0237954Y0162481D01*
X0237276Y0163001D01*
X0236537Y0163428D01*
X0235749Y0163754D01*
X0234924Y0163975D01*
X0234078Y0164087D01*
X0233651Y0164087D01*
X0233651Y0157575D01*
X0233651Y0157575D01*
X0233651Y0164087D01*
X0233224Y0164087D01*
X0232378Y0163975D01*
X0231553Y0163754D01*
X0230765Y0163428D01*
X0230025Y0163001D01*
X0229348Y0162481D01*
X0228745Y0161878D01*
X0228225Y0161200D01*
X0227798Y0160461D01*
X0227471Y0159672D01*
X0227251Y0158848D01*
X0227139Y0158002D01*
X0227139Y0157575D01*
X0233651Y0157575D01*
X0233651Y0157575D01*
X0227139Y0157575D01*
X0227139Y0157148D01*
X0227251Y0156302D01*
X0227471Y0155477D01*
X0227798Y0154689D01*
X0228225Y0153949D01*
X0228745Y0153272D01*
X0228757Y0153260D01*
X0228190Y0152693D01*
X0212633Y0152693D01*
X0210752Y0151914D01*
X0206401Y0147563D01*
X0204962Y0146124D01*
X0204182Y0144242D01*
X0181074Y0144242D01*
X0180061Y0144661D02*
X0182665Y0143583D01*
X0183161Y0143087D01*
X0193568Y0143087D01*
X0193651Y0143052D01*
X0193733Y0143087D01*
X0204141Y0143087D01*
X0204182Y0143128D01*
X0204182Y0144242D01*
X0206228Y0147390D02*
X0176919Y0147390D01*
X0176919Y0147618D02*
X0181386Y0147618D01*
X0183651Y0149883D01*
X0185916Y0147618D01*
X0191229Y0147618D01*
X0194986Y0151375D01*
X0194986Y0156688D01*
X0193705Y0157968D01*
X0194986Y0159249D01*
X0194986Y0164562D01*
X0193690Y0165857D01*
X0193690Y0167471D01*
X0192911Y0169352D01*
X0191139Y0171124D01*
X0189700Y0172563D01*
X0187819Y0173343D01*
X0173282Y0173343D01*
X0171401Y0172563D01*
X0169997Y0171159D01*
X0170021Y0171249D01*
X0170021Y0173901D01*
X0169335Y0176462D01*
X0168009Y0178758D01*
X0166134Y0180633D01*
X0163837Y0181959D01*
X0161276Y0182646D01*
X0158624Y0182646D01*
X0156063Y0181959D01*
X0153766Y0180633D01*
X0151891Y0178758D01*
X0150566Y0176462D01*
X0149879Y0173901D01*
X0149879Y0171249D01*
X0150566Y0168688D01*
X0151891Y0166391D01*
X0153766Y0164516D01*
X0156063Y0163190D01*
X0158624Y0162504D01*
X0161276Y0162504D01*
X0163837Y0163190D01*
X0166134Y0164516D01*
X0166682Y0165065D01*
X0166682Y0151834D01*
X0165999Y0152182D01*
X0165084Y0152479D01*
X0164132Y0152630D01*
X0163651Y0152630D01*
X0163651Y0146512D01*
X0163651Y0146512D01*
X0163651Y0152630D01*
X0163169Y0152630D01*
X0162218Y0152479D01*
X0161302Y0152182D01*
X0160444Y0151744D01*
X0159665Y0151178D01*
X0158984Y0150497D01*
X0158418Y0149718D01*
X0157981Y0148860D01*
X0157683Y0147944D01*
X0157533Y0146993D01*
X0157533Y0146512D01*
X0159108Y0146512D01*
X0159108Y0146512D01*
X0157533Y0146512D01*
X0157533Y0146030D01*
X0157683Y0145079D01*
X0157981Y0144163D01*
X0158418Y0143305D01*
X0158984Y0142526D01*
X0159108Y0142403D01*
X0159108Y0138227D01*
X0159207Y0137729D01*
X0159397Y0137269D01*
X0158679Y0136550D01*
X0158139Y0135248D01*
X0158139Y0131022D01*
X0157643Y0130526D01*
X0157571Y0130352D01*
X0157439Y0130671D01*
X0152062Y0136048D01*
X0150181Y0136827D01*
X0148145Y0136827D01*
X0146264Y0136048D01*
X0145226Y0135010D01*
X0140251Y0139985D01*
X0138370Y0140764D01*
X0122382Y0140764D01*
X0122797Y0143520D01*
X0122045Y0148513D01*
X0119854Y0153063D01*
X0116419Y0156765D01*
X0112045Y0159290D01*
X0112045Y0159290D01*
X0107122Y0160414D01*
X0107122Y0160414D01*
X0102086Y0160037D01*
X0097385Y0158192D01*
X0097385Y0158192D01*
X0093436Y0155043D01*
X0090592Y0150870D01*
X0089103Y0146045D01*
X0089103Y0140995D01*
X0090592Y0136169D01*
X0093436Y0131996D01*
X0093436Y0131996D01*
X0093436Y0131996D01*
X0097385Y0128848D01*
X0102086Y0127003D01*
X0104675Y0126809D01*
X0104675Y0107069D01*
X0105454Y0105187D01*
X0106893Y0103748D01*
X0110830Y0099811D01*
X0112141Y0099268D01*
X0110473Y0100168D02*
X0050344Y0100168D01*
X0050344Y0097020D02*
X0107236Y0097020D01*
X0104888Y0093872D02*
X0050344Y0093872D01*
X0050344Y0090724D02*
X0104675Y0090724D01*
X0104675Y0087575D02*
X0050344Y0087575D01*
X0050344Y0084427D02*
X0104675Y0084427D01*
X0102042Y0081279D02*
X0050344Y0081279D01*
X0050344Y0078131D02*
X0095729Y0078131D01*
X0097385Y0079451D02*
X0097385Y0079451D01*
X0093436Y0076303D02*
X0093436Y0076303D01*
X0093436Y0076303D01*
X0092537Y0074983D02*
X0050344Y0074983D01*
X0050344Y0071835D02*
X0090501Y0071835D01*
X0090592Y0072130D02*
X0090592Y0072130D01*
X0089529Y0068687D02*
X0050344Y0068687D01*
X0050344Y0065539D02*
X0089103Y0065539D01*
X0089103Y0062391D02*
X0050344Y0062391D01*
X0050344Y0059242D02*
X0090032Y0059242D01*
X0091501Y0056094D02*
X0050344Y0056094D01*
X0050344Y0052946D02*
X0093825Y0052946D01*
X0097385Y0050108D02*
X0097385Y0050108D01*
X0098173Y0049798D02*
X0050344Y0049798D01*
X0050344Y0046650D02*
X0136564Y0046650D01*
X0137702Y0043502D02*
X0050344Y0043502D01*
X0050344Y0040354D02*
X0138139Y0040354D01*
X0138139Y0037206D02*
X0050344Y0037206D01*
X0050344Y0034057D02*
X0054909Y0034057D01*
X0061509Y0034057D02*
X0138139Y0034057D01*
X0138139Y0030909D02*
X0068952Y0030909D01*
X0071976Y0027761D02*
X0138139Y0027761D01*
X0138139Y0024613D02*
X0073797Y0024613D01*
X0074801Y0022529D02*
X0074801Y0022529D01*
X0074961Y0021465D02*
X0137592Y0021465D01*
X0136564Y0018317D02*
X0075435Y0018317D01*
X0075197Y0015169D02*
X0136977Y0015169D01*
X0139183Y0012021D02*
X0074550Y0012021D01*
X0074801Y0012542D02*
X0074801Y0012542D01*
X0072609Y0027079D02*
X0072609Y0027079D01*
X0064801Y0033306D02*
X0064801Y0033306D01*
X0102086Y0048263D02*
X0102086Y0048263D01*
X0107122Y0047885D02*
X0107122Y0047885D01*
X0113412Y0049798D02*
X0136901Y0049798D01*
X0139000Y0052946D02*
X0117729Y0052946D01*
X0116419Y0051534D02*
X0116419Y0051534D01*
X0116419Y0051534D01*
X0119854Y0055236D02*
X0119854Y0055236D01*
X0120267Y0056094D02*
X0212432Y0056094D01*
X0215580Y0059242D02*
X0200340Y0059242D01*
X0202629Y0062391D02*
X0216682Y0062391D01*
X0216682Y0065539D02*
X0203100Y0065539D01*
X0202130Y0068687D02*
X0216682Y0068687D01*
X0226919Y0068687D02*
X0240108Y0068687D01*
X0240108Y0071835D02*
X0232149Y0071835D01*
X0232009Y0071495D02*
X0232944Y0073753D01*
X0232944Y0077814D01*
X0233594Y0077342D01*
X0234452Y0076905D01*
X0235368Y0076607D01*
X0236319Y0076457D01*
X0236800Y0076457D01*
X0236800Y0082575D01*
X0236800Y0085488D01*
X0236801Y0085488D01*
X0236801Y0082575D01*
X0236800Y0082575D01*
X0236801Y0082575D01*
X0236801Y0076457D01*
X0237282Y0076457D01*
X0238233Y0076607D01*
X0239149Y0076905D01*
X0240007Y0077342D01*
X0240108Y0077415D01*
X0240108Y0032106D01*
X0238029Y0033306D01*
X0233106Y0034430D01*
X0233106Y0034430D01*
X0228070Y0034052D01*
X0223369Y0032207D01*
X0220387Y0029830D01*
X0219659Y0031589D01*
X0217665Y0033583D01*
X0215061Y0034661D01*
X0212241Y0034661D01*
X0209637Y0033583D01*
X0209397Y0033343D01*
X0209163Y0033343D01*
X0209163Y0043065D01*
X0209204Y0043106D01*
X0212819Y0043106D01*
X0214700Y0043885D01*
X0216139Y0045325D01*
X0226139Y0055325D01*
X0226919Y0057206D01*
X0226919Y0059242D01*
X0240108Y0059242D01*
X0240108Y0056094D02*
X0226458Y0056094D01*
X0226919Y0059242D02*
X0226919Y0068831D01*
X0228022Y0068831D01*
X0230280Y0069767D01*
X0232009Y0071495D01*
X0232944Y0074983D02*
X0240108Y0074983D01*
X0236801Y0078131D02*
X0236800Y0078131D01*
X0236800Y0081279D02*
X0236801Y0081279D01*
X0236800Y0084427D02*
X0236801Y0084427D01*
X0236800Y0085488D02*
X0236800Y0088693D01*
X0236800Y0091000D01*
X0236801Y0091000D01*
X0236801Y0085488D01*
X0236800Y0085488D01*
X0236800Y0087575D02*
X0236801Y0087575D01*
X0236800Y0090724D02*
X0236801Y0090724D01*
X0236801Y0099661D02*
X0236801Y0102575D01*
X0236801Y0113224D01*
X0231801Y0118224D01*
X0204301Y0118224D01*
X0201801Y0120724D01*
X0201801Y0130724D01*
X0208651Y0137575D01*
X0209301Y0138224D01*
X0209301Y0143224D01*
X0213651Y0147575D01*
X0233651Y0147575D01*
X0228427Y0153686D02*
X0194986Y0153686D01*
X0194148Y0150538D02*
X0209376Y0150538D01*
X0208678Y0162504D02*
X0206026Y0162504D01*
X0203464Y0163190D01*
X0201168Y0164516D01*
X0199293Y0166391D01*
X0197967Y0168688D01*
X0197281Y0171249D01*
X0197281Y0173901D01*
X0197967Y0176462D01*
X0199293Y0178758D01*
X0201168Y0180633D01*
X0203464Y0181959D01*
X0206026Y0182646D01*
X0208678Y0182646D01*
X0211239Y0181959D01*
X0213535Y0180633D01*
X0215410Y0178758D01*
X0216736Y0176462D01*
X0217423Y0173901D01*
X0217423Y0171249D01*
X0216736Y0168688D01*
X0215410Y0166391D01*
X0213535Y0164516D01*
X0211239Y0163190D01*
X0208678Y0162504D01*
X0211015Y0163130D02*
X0230250Y0163130D01*
X0233651Y0163130D02*
X0233651Y0163130D01*
X0237052Y0163130D02*
X0240108Y0163130D01*
X0240108Y0166278D02*
X0215298Y0166278D01*
X0216934Y0169427D02*
X0240108Y0169427D01*
X0240108Y0172575D02*
X0217423Y0172575D01*
X0216934Y0175723D02*
X0224309Y0175723D01*
X0223369Y0176092D02*
X0223369Y0176092D01*
X0219884Y0178871D02*
X0215298Y0178871D01*
X0217526Y0182019D02*
X0211016Y0182019D01*
X0216035Y0185167D02*
X0074510Y0185167D01*
X0075184Y0188315D02*
X0215087Y0188315D01*
X0215087Y0191463D02*
X0075448Y0191463D01*
X0074973Y0194611D02*
X0215495Y0194611D01*
X0216466Y0197760D02*
X0073836Y0197760D01*
X0074801Y0195757D02*
X0074801Y0195757D01*
X0072994Y0182019D02*
X0156286Y0182019D01*
X0152004Y0178871D02*
X0070430Y0178871D01*
X0069175Y0177518D02*
X0069175Y0177518D01*
X0069175Y0177518D01*
X0066065Y0175723D02*
X0150367Y0175723D01*
X0149879Y0172575D02*
X0050344Y0172575D01*
X0050344Y0169427D02*
X0150368Y0169427D01*
X0152004Y0166278D02*
X0050344Y0166278D01*
X0050344Y0163130D02*
X0156287Y0163130D01*
X0163614Y0163130D02*
X0166682Y0163130D01*
X0166682Y0159982D02*
X0109014Y0159982D01*
X0102086Y0160037D02*
X0102086Y0160037D01*
X0101947Y0159982D02*
X0050344Y0159982D01*
X0050344Y0156834D02*
X0095682Y0156834D01*
X0093436Y0155043D02*
X0093436Y0155043D01*
X0093436Y0155043D01*
X0092511Y0153686D02*
X0050344Y0153686D01*
X0050344Y0150538D02*
X0090489Y0150538D01*
X0090592Y0150870D02*
X0090592Y0150870D01*
X0089518Y0147390D02*
X0050344Y0147390D01*
X0050344Y0144242D02*
X0089103Y0144242D01*
X0089103Y0141093D02*
X0050344Y0141093D01*
X0050344Y0137945D02*
X0090044Y0137945D01*
X0090592Y0136169D02*
X0090592Y0136169D01*
X0091527Y0134797D02*
X0050344Y0134797D01*
X0050344Y0131649D02*
X0093872Y0131649D01*
X0097385Y0128848D02*
X0097385Y0128848D01*
X0098268Y0128501D02*
X0050344Y0128501D01*
X0050344Y0125353D02*
X0104675Y0125353D01*
X0102086Y0127003D02*
X0102086Y0127003D01*
X0104675Y0122205D02*
X0050344Y0122205D01*
X0050344Y0119057D02*
X0104675Y0119057D01*
X0104675Y0115909D02*
X0050344Y0115909D01*
X0050344Y0112760D02*
X0104675Y0112760D01*
X0104675Y0109612D02*
X0050344Y0109612D01*
X0050344Y0106464D02*
X0104925Y0106464D01*
X0107325Y0103316D02*
X0050344Y0103316D01*
X0109793Y0092339D02*
X0109793Y0080528D01*
X0121604Y0072654D01*
X0137647Y0076591D01*
X0139301Y0074937D01*
X0150088Y0074937D01*
X0158513Y0074937D01*
X0161801Y0078224D01*
X0166151Y0078224D01*
X0166151Y0085075D01*
X0176801Y0095724D01*
X0196801Y0095724D01*
X0201801Y0100724D01*
X0201801Y0120724D01*
X0200738Y0137575D02*
X0208651Y0137575D01*
X0186564Y0137575D02*
X0178651Y0137575D01*
X0176919Y0144528D02*
X0176919Y0147618D01*
X0177241Y0144661D02*
X0176919Y0144528D01*
X0177241Y0144661D02*
X0180061Y0144661D01*
X0166682Y0153686D02*
X0119276Y0153686D01*
X0119854Y0153063D02*
X0119854Y0153063D01*
X0121070Y0150538D02*
X0159025Y0150538D01*
X0157596Y0147390D02*
X0122214Y0147390D01*
X0122689Y0144242D02*
X0157956Y0144242D01*
X0159108Y0141093D02*
X0122432Y0141093D01*
X0116299Y0156834D02*
X0166682Y0156834D01*
X0163651Y0150538D02*
X0163651Y0150538D01*
X0163651Y0147390D02*
X0163651Y0147390D01*
X0163651Y0146512D02*
X0163651Y0143599D01*
X0163651Y0143599D01*
X0163651Y0146512D01*
X0163651Y0146512D01*
X0163651Y0144242D02*
X0163651Y0144242D01*
X0163651Y0143598D02*
X0163651Y0143598D01*
X0163651Y0138087D01*
X0163651Y0138087D01*
X0163651Y0143598D01*
X0163651Y0141093D02*
X0163651Y0141093D01*
X0159164Y0137945D02*
X0142290Y0137945D01*
X0149163Y0131709D02*
X0153100Y0127772D01*
X0153100Y0108087D01*
X0150875Y0105862D01*
X0149163Y0105862D01*
X0150088Y0104937D01*
X0157175Y0104923D02*
X0157175Y0103527D01*
X0156096Y0100923D01*
X0155600Y0100427D01*
X0155600Y0090020D01*
X0155566Y0089937D01*
X0155600Y0089854D01*
X0155600Y0080055D01*
X0156393Y0080055D01*
X0157462Y0081124D01*
X0158901Y0082563D01*
X0160782Y0083343D01*
X0161033Y0083343D01*
X0161033Y0086093D01*
X0161812Y0087974D01*
X0172462Y0098624D01*
X0173522Y0099684D01*
X0173321Y0099767D01*
X0171592Y0101495D01*
X0171253Y0102315D01*
X0171226Y0102263D01*
X0170748Y0101604D01*
X0170172Y0101028D01*
X0169513Y0100549D01*
X0168787Y0100179D01*
X0168012Y0099927D01*
X0167208Y0099800D01*
X0166801Y0099800D01*
X0166801Y0107575D01*
X0166800Y0107575D01*
X0166800Y0107575D01*
X0161626Y0107575D01*
X0161626Y0110582D01*
X0161753Y0111387D01*
X0162005Y0112161D01*
X0162375Y0112887D01*
X0162853Y0113546D01*
X0163429Y0114122D01*
X0164088Y0114601D01*
X0164814Y0114970D01*
X0165589Y0115222D01*
X0166393Y0115350D01*
X0166800Y0115350D01*
X0166800Y0107575D01*
X0161626Y0107575D01*
X0161626Y0104568D01*
X0161753Y0103763D01*
X0162005Y0102988D01*
X0162375Y0102263D01*
X0162853Y0101604D01*
X0163429Y0101028D01*
X0164088Y0100549D01*
X0164814Y0100179D01*
X0165589Y0099927D01*
X0166393Y0099800D01*
X0166800Y0099800D01*
X0166800Y0107575D01*
X0166801Y0107575D01*
X0166801Y0115350D01*
X0167208Y0115350D01*
X0168012Y0115222D01*
X0168787Y0114970D01*
X0169513Y0114601D01*
X0170172Y0114122D01*
X0170748Y0113546D01*
X0171226Y0112887D01*
X0171253Y0112835D01*
X0171592Y0113655D01*
X0171682Y0113745D01*
X0171682Y0116104D01*
X0167462Y0120325D01*
X0167428Y0120406D01*
X0165061Y0119425D01*
X0162241Y0119425D01*
X0159637Y0120504D01*
X0158218Y0121923D01*
X0158218Y0107069D01*
X0157439Y0105187D01*
X0157175Y0104923D01*
X0157087Y0103316D02*
X0161898Y0103316D01*
X0161626Y0106464D02*
X0157967Y0106464D01*
X0158218Y0109612D02*
X0161626Y0109612D01*
X0162310Y0112760D02*
X0158218Y0112760D01*
X0158218Y0115909D02*
X0171682Y0115909D01*
X0168730Y0119057D02*
X0158218Y0119057D01*
X0166800Y0112760D02*
X0166801Y0112760D01*
X0166800Y0109612D02*
X0166801Y0109612D01*
X0166800Y0106464D02*
X0166801Y0106464D01*
X0166800Y0103316D02*
X0166801Y0103316D01*
X0166800Y0100168D02*
X0166801Y0100168D01*
X0168753Y0100168D02*
X0172919Y0100168D01*
X0170858Y0097020D02*
X0155600Y0097020D01*
X0155600Y0100168D02*
X0164848Y0100168D01*
X0167710Y0093872D02*
X0155600Y0093872D01*
X0155600Y0090724D02*
X0164562Y0090724D01*
X0161647Y0087575D02*
X0155600Y0087575D01*
X0155600Y0084427D02*
X0161033Y0084427D01*
X0157617Y0081279D02*
X0155600Y0081279D01*
X0166151Y0078224D02*
X0166801Y0077575D01*
X0166801Y0065724D01*
X0166013Y0064937D01*
X0159397Y0062391D02*
X0122437Y0062391D01*
X0122683Y0065539D02*
X0158927Y0065539D01*
X0159896Y0068687D02*
X0153517Y0068687D01*
X0146659Y0068687D02*
X0142729Y0068687D01*
X0135872Y0068687D02*
X0126914Y0068687D01*
X0122045Y0059786D02*
X0122045Y0059786D01*
X0121783Y0059242D02*
X0161686Y0059242D01*
X0159000Y0052946D02*
X0148302Y0052946D01*
X0150400Y0049798D02*
X0156901Y0049798D01*
X0156564Y0046650D02*
X0150738Y0046650D01*
X0149600Y0043502D02*
X0157702Y0043502D01*
X0158139Y0040354D02*
X0149163Y0040354D01*
X0149163Y0037206D02*
X0158139Y0037206D01*
X0158139Y0034057D02*
X0156519Y0034057D01*
X0150783Y0034057D02*
X0149163Y0034057D01*
X0146387Y0028224D02*
X0143651Y0025488D01*
X0143651Y0017575D01*
X0148119Y0012021D02*
X0151075Y0012021D01*
X0153651Y0012021D02*
X0153651Y0012021D01*
X0153651Y0011457D02*
X0153651Y0017575D01*
X0153651Y0019543D01*
X0153651Y0019543D01*
X0153651Y0017575D01*
X0153651Y0017575D01*
X0153651Y0017575D01*
X0153651Y0011457D01*
X0156227Y0012021D02*
X0159183Y0012021D01*
X0153651Y0015169D02*
X0153651Y0015169D01*
X0153651Y0018317D02*
X0153651Y0018317D01*
X0153651Y0024661D02*
X0153651Y0027575D01*
X0154301Y0028224D01*
X0146387Y0028224D01*
X0163651Y0025488D02*
X0163651Y0017575D01*
X0168119Y0012021D02*
X0171075Y0012021D01*
X0173651Y0012021D02*
X0173651Y0012021D01*
X0173651Y0011457D02*
X0173651Y0017575D01*
X0173651Y0017575D01*
X0173651Y0019543D01*
X0173651Y0019543D01*
X0173651Y0017575D01*
X0173651Y0017575D01*
X0173651Y0011457D01*
X0176227Y0012021D02*
X0179183Y0012021D01*
X0173651Y0015169D02*
X0173651Y0015169D01*
X0173651Y0018317D02*
X0173651Y0018317D01*
X0173651Y0024661D02*
X0173651Y0027575D01*
X0174301Y0028224D01*
X0166387Y0028224D01*
X0163651Y0025488D01*
X0169163Y0034057D02*
X0170783Y0034057D01*
X0169163Y0037206D02*
X0178139Y0037206D01*
X0178139Y0040354D02*
X0169163Y0040354D01*
X0169600Y0043502D02*
X0177702Y0043502D01*
X0176564Y0046650D02*
X0170738Y0046650D01*
X0170400Y0049798D02*
X0176901Y0049798D01*
X0179000Y0052946D02*
X0168302Y0052946D01*
X0170340Y0059242D02*
X0191686Y0059242D01*
X0188302Y0052946D02*
X0199000Y0052946D01*
X0196901Y0049798D02*
X0190400Y0049798D01*
X0190738Y0046650D02*
X0196564Y0046650D01*
X0197702Y0043502D02*
X0189600Y0043502D01*
X0189163Y0040354D02*
X0198139Y0040354D01*
X0198139Y0037206D02*
X0189163Y0037206D01*
X0189163Y0034057D02*
X0190783Y0034057D01*
X0194301Y0028224D02*
X0186387Y0028224D01*
X0183651Y0025488D01*
X0183651Y0021374D01*
X0184301Y0018224D01*
X0183651Y0017575D01*
X0188119Y0012021D02*
X0191075Y0012021D01*
X0193651Y0012021D02*
X0193651Y0012021D01*
X0193651Y0011457D02*
X0193651Y0017575D01*
X0193651Y0017575D01*
X0193651Y0019543D01*
X0193651Y0019543D01*
X0193651Y0017575D01*
X0193651Y0017575D01*
X0193651Y0011457D01*
X0196227Y0012021D02*
X0199183Y0012021D01*
X0193651Y0015169D02*
X0193651Y0015169D01*
X0193651Y0018317D02*
X0193651Y0018317D01*
X0193651Y0024661D02*
X0193651Y0027575D01*
X0194301Y0028224D01*
X0196519Y0034057D02*
X0198139Y0034057D01*
X0204301Y0028224D02*
X0204301Y0024839D01*
X0203651Y0025488D01*
X0204301Y0024839D02*
X0204301Y0023224D01*
X0204301Y0018224D01*
X0203651Y0017575D01*
X0208119Y0012021D02*
X0211075Y0012021D01*
X0213651Y0012021D02*
X0213651Y0012021D01*
X0213651Y0011457D02*
X0213651Y0017575D01*
X0213651Y0017575D01*
X0213651Y0019543D01*
X0213651Y0019543D01*
X0213651Y0017575D01*
X0213651Y0020488D01*
X0213651Y0018317D02*
X0213651Y0018317D01*
X0213651Y0017575D02*
X0213651Y0017575D01*
X0213651Y0011457D01*
X0213651Y0015169D02*
X0213651Y0015169D01*
X0213651Y0024661D02*
X0213651Y0027575D01*
X0214301Y0028224D01*
X0204301Y0028224D01*
X0209163Y0034057D02*
X0210783Y0034057D01*
X0209163Y0037206D02*
X0240108Y0037206D01*
X0240108Y0040354D02*
X0209163Y0040354D01*
X0213773Y0043502D02*
X0240108Y0043502D01*
X0240108Y0046650D02*
X0217464Y0046650D01*
X0220612Y0049798D02*
X0240108Y0049798D01*
X0240108Y0052946D02*
X0223760Y0052946D01*
X0221801Y0058224D02*
X0211801Y0048224D01*
X0204301Y0048224D01*
X0203651Y0047575D01*
X0216519Y0034057D02*
X0228138Y0034057D01*
X0228070Y0034052D02*
X0228070Y0034052D01*
X0223369Y0032207D02*
X0223369Y0032207D01*
X0221741Y0030909D02*
X0219940Y0030909D01*
X0234737Y0034057D02*
X0240108Y0034057D01*
X0238029Y0033306D02*
X0238029Y0033306D01*
X0221801Y0058224D02*
X0221801Y0085724D01*
X0226801Y0090724D01*
X0226801Y0107575D01*
X0196801Y0077575D02*
X0196801Y0065724D01*
X0196013Y0064937D01*
X0226919Y0065539D02*
X0240108Y0065539D01*
X0240108Y0062391D02*
X0226919Y0062391D01*
X0178139Y0034057D02*
X0176519Y0034057D01*
X0117667Y0094150D02*
X0111604Y0094150D01*
X0109793Y0092339D01*
X0153312Y0134797D02*
X0158139Y0134797D01*
X0158139Y0131649D02*
X0156460Y0131649D01*
X0171801Y0123224D02*
X0176801Y0118224D01*
X0176801Y0107575D01*
X0171801Y0123224D02*
X0171801Y0165724D01*
X0174301Y0168224D01*
X0186801Y0168224D01*
X0188572Y0166453D01*
X0188572Y0161906D01*
X0194986Y0163130D02*
X0203688Y0163130D01*
X0199406Y0166278D02*
X0193690Y0166278D01*
X0192836Y0169427D02*
X0197769Y0169427D01*
X0197281Y0172575D02*
X0189672Y0172575D01*
X0197769Y0175723D02*
X0169533Y0175723D01*
X0167896Y0178871D02*
X0199405Y0178871D01*
X0203687Y0182019D02*
X0163615Y0182019D01*
X0170021Y0172575D02*
X0171429Y0172575D01*
X0194986Y0159982D02*
X0227600Y0159982D01*
X0227180Y0156834D02*
X0194839Y0156834D01*
X0219421Y0179240D02*
X0219421Y0179240D01*
X0219421Y0179240D01*
X0216576Y0183413D02*
X0216576Y0183413D01*
X0228070Y0174247D02*
X0228070Y0174247D01*
X0239293Y0175723D02*
X0240108Y0175723D01*
X0240108Y0159982D02*
X0239702Y0159982D01*
X0233651Y0159982D02*
X0233651Y0159982D01*
X0064801Y0174993D02*
X0064801Y0174993D01*
X0059878Y0173869D02*
X0059878Y0173869D01*
X0054842Y0174247D02*
X0054842Y0174247D01*
X0051081Y0175723D02*
X0050344Y0175723D01*
D23*
X0139301Y0104937D02*
X0139301Y0097024D01*
X0150088Y0097024D02*
X0150088Y0104937D01*
X0163651Y0126512D02*
X0163651Y0129425D01*
X0150088Y0082850D02*
X0150088Y0074937D01*
X0139301Y0074937D02*
X0139301Y0082850D01*
X0166013Y0064937D02*
X0173927Y0064937D01*
X0188100Y0064937D02*
X0196013Y0064937D01*
X0203651Y0047575D02*
X0203651Y0039661D01*
X0183651Y0039661D02*
X0183651Y0047575D01*
X0163651Y0047575D02*
X0163651Y0039661D01*
X0143651Y0039661D02*
X0143651Y0047575D01*
D24*
X0153100Y0064780D03*
X0129478Y0064780D03*
X0090108Y0068717D03*
X0137352Y0123835D03*
X0149163Y0131709D03*
X0153100Y0143520D03*
X0160974Y0115961D03*
X0200344Y0155331D03*
X0090108Y0135646D03*
X0235777Y0056906D03*
M02*
