%
M48
M72
T01C0.01575
T02C0.03150
T03C0.03200
T04C0.03740
T05C0.03937
T06C0.09055
T07C0.12598
%
T01
X90108Y68717
X129478Y64780
X153100Y64780
X160974Y115961
X149163Y131709
X137352Y123835
X153100Y143520
X200344Y155331
X90108Y135646
X235777Y56906
T02
X236801Y82575
X236801Y102575
X208651Y137575
X178651Y137575
X163651Y146512
X163651Y126512
X150088Y104937
X139301Y104937
X127667Y104150
X117667Y104150
X117667Y114150
X127667Y114150
X127667Y124150
X117667Y124150
X117667Y94150
X127667Y94150
X127667Y84150
X117667Y84150
X139301Y74937
X150088Y74937
X166013Y64937
X163651Y47575
X183651Y47575
X203651Y47575
X196013Y64937
X193651Y27575
X193651Y17575
X203651Y17575
X213651Y17575
X213651Y27575
X183651Y17575
X173651Y17575
X173651Y27575
X163651Y17575
X153651Y17575
X153651Y27575
X143651Y17575
X143651Y47575
T03
X166801Y77575
X176801Y77575
X186801Y77575
X196801Y77575
X206801Y77575
X216801Y77575
X226801Y77575
X226801Y107575
X216801Y107575
X206801Y107575
X196801Y107575
X186801Y107575
X176801Y107575
X166801Y107575
T04
X178730Y154031
X178730Y161906
X188572Y161906
X188572Y154031
T05
X233651Y157575
X233651Y147575
X233651Y137575
X233651Y127575
T06
X207352Y172575
X159950Y172575
T07
X58612Y17535
X105147Y64780
X105147Y143520
X58612Y190764
X231840Y190764
X231840Y17535
M30
