%
M48
M72
T01C0.01378
T02C0.01575
T03C0.03150
T04C0.03200
T05C0.03740
T06C0.09055
T07C0.12598
%
T01
X148638Y99031
X180134Y76197
X111630Y122654
X88008Y145488
X54150Y169110
X213205Y170685
T02
X268323Y115567
X362811Y95094
T03
X379583Y101394
X379583Y81394
X338795Y63756
X346433Y46394
X326433Y46394
X306433Y46394
X286433Y46394
X308795Y63756
X254701Y49425
X234701Y49425
X210331Y43913
X200331Y43913
X178835Y43913
X168835Y43913
X147339Y43913
X137339Y43913
X115843Y43913
X105843Y43913
X84346Y43913
X74346Y43913
X52850Y43913
X42850Y43913
X42850Y20291
X52850Y20291
X74346Y20291
X84346Y20291
X105843Y20291
X115843Y20291
X137339Y20291
X147339Y20291
X168835Y20291
X178835Y20291
X200331Y20291
X210331Y20291
X210331Y67535
X200331Y67535
X178835Y67535
X168835Y67535
X147339Y67535
X137339Y67535
X115843Y67535
X105843Y67535
X84346Y67535
X74346Y67535
X52850Y67535
X42850Y67535
X42850Y91157
X52850Y91157
X74346Y91157
X84346Y91157
X105843Y91157
X115843Y91157
X137339Y91157
X147339Y91157
X168835Y91157
X178835Y91157
X200331Y91157
X210331Y91157
X210331Y114780
X200331Y114780
X178835Y114780
X168835Y114780
X147339Y114780
X137339Y114780
X115843Y114780
X105843Y114780
X84346Y114780
X74346Y114780
X52850Y114780
X42850Y114780
X42850Y138402
X52850Y138402
X74346Y138402
X84346Y138402
X105843Y138402
X115843Y138402
X137339Y138402
X147339Y138402
X168835Y138402
X178835Y138402
X200331Y138402
X210331Y138402
X210331Y162024
X200331Y162024
X178835Y162024
X168835Y162024
X147339Y162024
X137339Y162024
X115843Y162024
X105843Y162024
X84346Y162024
X74346Y162024
X52850Y162024
X42850Y162024
X42850Y185646
X52850Y185646
X74346Y185646
X84346Y185646
X105843Y185646
X115843Y185646
X137339Y185646
X147339Y185646
X168835Y185646
X178835Y185646
X200331Y185646
X210331Y185646
X275409Y182260
X287220Y182260
X287220Y162260
X275409Y162260
X275409Y143953
X287220Y143953
X306433Y141394
X321433Y136394
X306433Y121394
X287220Y113953
X275409Y113953
X351433Y136394
X356433Y21394
X346433Y16394
X356433Y11394
X336433Y11394
X326433Y16394
X336433Y21394
X316433Y21394
X306433Y16394
X316433Y11394
X296433Y11394
X286433Y16394
X296433Y21394
T04
X259701Y61906
X259701Y71906
X259701Y81906
X259701Y91906
X259701Y101906
X259701Y111906
X259701Y121906
X259701Y131906
X259701Y141906
X259701Y151906
X229701Y151906
X229701Y141906
X229701Y131906
X229701Y121906
X229701Y111906
X229701Y101906
X229701Y91906
X229701Y81906
X229701Y71906
X229701Y61906
X309583Y76394
X319583Y76394
X329583Y76394
X339583Y76394
X349583Y76394
X359583Y76394
X369583Y76394
X369583Y106394
X359583Y106394
X349583Y106394
X339583Y106394
X329583Y106394
X319583Y106394
X309583Y106394
T05
X321512Y152850
X321512Y160724
X331354Y160724
X331354Y152850
T06
X350134Y171394
X302732Y171394
T07
X16354Y16354
X16354Y189583
X374622Y189583
X374622Y16354
M30
