G75*
%MOIN*%
%OFA0B0*%
%FSLAX25Y25*%
%IPPOS*%
%LPD*%
%AMOC8*
5,1,8,0,0,1.08239X$1,22.5*
%
%ADD10C,0.00000*%
%ADD11R,0.03937X0.10236*%
%ADD12C,0.07087*%
%ADD13C,0.05200*%
%ADD14R,0.12598X0.03937*%
%ADD15OC8,0.05740*%
%ADD16C,0.13055*%
%ADD17R,0.03937X0.12598*%
%ADD18R,0.04724X0.03150*%
%ADD19C,0.07874*%
%ADD20R,0.05150X0.05150*%
%ADD21C,0.05150*%
%ADD22OC8,0.10000*%
%ADD23C,0.03150*%
%ADD24C,0.01600*%
%ADD25C,0.03937*%
%ADD26C,0.09843*%
D10*
X0013011Y0007724D02*
X0186239Y0007724D01*
X0179940Y0019535D02*
X0179942Y0019693D01*
X0179948Y0019851D01*
X0179958Y0020009D01*
X0179972Y0020167D01*
X0179990Y0020324D01*
X0180011Y0020481D01*
X0180037Y0020637D01*
X0180067Y0020793D01*
X0180100Y0020948D01*
X0180138Y0021101D01*
X0180179Y0021254D01*
X0180224Y0021406D01*
X0180273Y0021557D01*
X0180326Y0021706D01*
X0180382Y0021854D01*
X0180442Y0022000D01*
X0180506Y0022145D01*
X0180574Y0022288D01*
X0180645Y0022430D01*
X0180719Y0022570D01*
X0180797Y0022707D01*
X0180879Y0022843D01*
X0180963Y0022977D01*
X0181052Y0023108D01*
X0181143Y0023237D01*
X0181238Y0023364D01*
X0181335Y0023489D01*
X0181436Y0023611D01*
X0181540Y0023730D01*
X0181647Y0023847D01*
X0181757Y0023961D01*
X0181870Y0024072D01*
X0181985Y0024181D01*
X0182103Y0024286D01*
X0182224Y0024388D01*
X0182347Y0024488D01*
X0182473Y0024584D01*
X0182601Y0024677D01*
X0182731Y0024767D01*
X0182864Y0024853D01*
X0182999Y0024937D01*
X0183135Y0025016D01*
X0183274Y0025093D01*
X0183415Y0025165D01*
X0183557Y0025235D01*
X0183701Y0025300D01*
X0183847Y0025362D01*
X0183994Y0025420D01*
X0184143Y0025475D01*
X0184293Y0025526D01*
X0184444Y0025573D01*
X0184596Y0025616D01*
X0184749Y0025655D01*
X0184904Y0025691D01*
X0185059Y0025722D01*
X0185215Y0025750D01*
X0185371Y0025774D01*
X0185528Y0025794D01*
X0185686Y0025810D01*
X0185843Y0025822D01*
X0186002Y0025830D01*
X0186160Y0025834D01*
X0186318Y0025834D01*
X0186476Y0025830D01*
X0186635Y0025822D01*
X0186792Y0025810D01*
X0186950Y0025794D01*
X0187107Y0025774D01*
X0187263Y0025750D01*
X0187419Y0025722D01*
X0187574Y0025691D01*
X0187729Y0025655D01*
X0187882Y0025616D01*
X0188034Y0025573D01*
X0188185Y0025526D01*
X0188335Y0025475D01*
X0188484Y0025420D01*
X0188631Y0025362D01*
X0188777Y0025300D01*
X0188921Y0025235D01*
X0189063Y0025165D01*
X0189204Y0025093D01*
X0189343Y0025016D01*
X0189479Y0024937D01*
X0189614Y0024853D01*
X0189747Y0024767D01*
X0189877Y0024677D01*
X0190005Y0024584D01*
X0190131Y0024488D01*
X0190254Y0024388D01*
X0190375Y0024286D01*
X0190493Y0024181D01*
X0190608Y0024072D01*
X0190721Y0023961D01*
X0190831Y0023847D01*
X0190938Y0023730D01*
X0191042Y0023611D01*
X0191143Y0023489D01*
X0191240Y0023364D01*
X0191335Y0023237D01*
X0191426Y0023108D01*
X0191515Y0022977D01*
X0191599Y0022843D01*
X0191681Y0022707D01*
X0191759Y0022570D01*
X0191833Y0022430D01*
X0191904Y0022288D01*
X0191972Y0022145D01*
X0192036Y0022000D01*
X0192096Y0021854D01*
X0192152Y0021706D01*
X0192205Y0021557D01*
X0192254Y0021406D01*
X0192299Y0021254D01*
X0192340Y0021101D01*
X0192378Y0020948D01*
X0192411Y0020793D01*
X0192441Y0020637D01*
X0192467Y0020481D01*
X0192488Y0020324D01*
X0192506Y0020167D01*
X0192520Y0020009D01*
X0192530Y0019851D01*
X0192536Y0019693D01*
X0192538Y0019535D01*
X0192536Y0019377D01*
X0192530Y0019219D01*
X0192520Y0019061D01*
X0192506Y0018903D01*
X0192488Y0018746D01*
X0192467Y0018589D01*
X0192441Y0018433D01*
X0192411Y0018277D01*
X0192378Y0018122D01*
X0192340Y0017969D01*
X0192299Y0017816D01*
X0192254Y0017664D01*
X0192205Y0017513D01*
X0192152Y0017364D01*
X0192096Y0017216D01*
X0192036Y0017070D01*
X0191972Y0016925D01*
X0191904Y0016782D01*
X0191833Y0016640D01*
X0191759Y0016500D01*
X0191681Y0016363D01*
X0191599Y0016227D01*
X0191515Y0016093D01*
X0191426Y0015962D01*
X0191335Y0015833D01*
X0191240Y0015706D01*
X0191143Y0015581D01*
X0191042Y0015459D01*
X0190938Y0015340D01*
X0190831Y0015223D01*
X0190721Y0015109D01*
X0190608Y0014998D01*
X0190493Y0014889D01*
X0190375Y0014784D01*
X0190254Y0014682D01*
X0190131Y0014582D01*
X0190005Y0014486D01*
X0189877Y0014393D01*
X0189747Y0014303D01*
X0189614Y0014217D01*
X0189479Y0014133D01*
X0189343Y0014054D01*
X0189204Y0013977D01*
X0189063Y0013905D01*
X0188921Y0013835D01*
X0188777Y0013770D01*
X0188631Y0013708D01*
X0188484Y0013650D01*
X0188335Y0013595D01*
X0188185Y0013544D01*
X0188034Y0013497D01*
X0187882Y0013454D01*
X0187729Y0013415D01*
X0187574Y0013379D01*
X0187419Y0013348D01*
X0187263Y0013320D01*
X0187107Y0013296D01*
X0186950Y0013276D01*
X0186792Y0013260D01*
X0186635Y0013248D01*
X0186476Y0013240D01*
X0186318Y0013236D01*
X0186160Y0013236D01*
X0186002Y0013240D01*
X0185843Y0013248D01*
X0185686Y0013260D01*
X0185528Y0013276D01*
X0185371Y0013296D01*
X0185215Y0013320D01*
X0185059Y0013348D01*
X0184904Y0013379D01*
X0184749Y0013415D01*
X0184596Y0013454D01*
X0184444Y0013497D01*
X0184293Y0013544D01*
X0184143Y0013595D01*
X0183994Y0013650D01*
X0183847Y0013708D01*
X0183701Y0013770D01*
X0183557Y0013835D01*
X0183415Y0013905D01*
X0183274Y0013977D01*
X0183135Y0014054D01*
X0182999Y0014133D01*
X0182864Y0014217D01*
X0182731Y0014303D01*
X0182601Y0014393D01*
X0182473Y0014486D01*
X0182347Y0014582D01*
X0182224Y0014682D01*
X0182103Y0014784D01*
X0181985Y0014889D01*
X0181870Y0014998D01*
X0181757Y0015109D01*
X0181647Y0015223D01*
X0181540Y0015340D01*
X0181436Y0015459D01*
X0181335Y0015581D01*
X0181238Y0015706D01*
X0181143Y0015833D01*
X0181052Y0015962D01*
X0180963Y0016093D01*
X0180879Y0016227D01*
X0180797Y0016363D01*
X0180719Y0016500D01*
X0180645Y0016640D01*
X0180574Y0016782D01*
X0180506Y0016925D01*
X0180442Y0017070D01*
X0180382Y0017216D01*
X0180326Y0017364D01*
X0180273Y0017513D01*
X0180224Y0017664D01*
X0180179Y0017816D01*
X0180138Y0017969D01*
X0180100Y0018122D01*
X0180067Y0018277D01*
X0180037Y0018433D01*
X0180011Y0018589D01*
X0179990Y0018746D01*
X0179972Y0018903D01*
X0179958Y0019061D01*
X0179948Y0019219D01*
X0179942Y0019377D01*
X0179940Y0019535D01*
X0186239Y0007724D02*
X0186524Y0007727D01*
X0186810Y0007738D01*
X0187095Y0007755D01*
X0187379Y0007779D01*
X0187663Y0007810D01*
X0187946Y0007848D01*
X0188227Y0007893D01*
X0188508Y0007944D01*
X0188788Y0008002D01*
X0189066Y0008067D01*
X0189342Y0008139D01*
X0189616Y0008217D01*
X0189889Y0008302D01*
X0190159Y0008394D01*
X0190427Y0008492D01*
X0190693Y0008596D01*
X0190956Y0008707D01*
X0191216Y0008824D01*
X0191474Y0008947D01*
X0191728Y0009077D01*
X0191979Y0009213D01*
X0192227Y0009354D01*
X0192471Y0009502D01*
X0192712Y0009655D01*
X0192948Y0009815D01*
X0193181Y0009980D01*
X0193410Y0010150D01*
X0193635Y0010326D01*
X0193855Y0010508D01*
X0194071Y0010694D01*
X0194282Y0010886D01*
X0194489Y0011083D01*
X0194691Y0011285D01*
X0194888Y0011492D01*
X0195080Y0011703D01*
X0195266Y0011919D01*
X0195448Y0012139D01*
X0195624Y0012364D01*
X0195794Y0012593D01*
X0195959Y0012826D01*
X0196119Y0013062D01*
X0196272Y0013303D01*
X0196420Y0013547D01*
X0196561Y0013795D01*
X0196697Y0014046D01*
X0196827Y0014300D01*
X0196950Y0014558D01*
X0197067Y0014818D01*
X0197178Y0015081D01*
X0197282Y0015347D01*
X0197380Y0015615D01*
X0197472Y0015885D01*
X0197557Y0016158D01*
X0197635Y0016432D01*
X0197707Y0016708D01*
X0197772Y0016986D01*
X0197830Y0017266D01*
X0197881Y0017547D01*
X0197926Y0017828D01*
X0197964Y0018111D01*
X0197995Y0018395D01*
X0198019Y0018679D01*
X0198036Y0018964D01*
X0198047Y0019250D01*
X0198050Y0019535D01*
X0198050Y0192764D01*
X0179940Y0192764D02*
X0179942Y0192922D01*
X0179948Y0193080D01*
X0179958Y0193238D01*
X0179972Y0193396D01*
X0179990Y0193553D01*
X0180011Y0193710D01*
X0180037Y0193866D01*
X0180067Y0194022D01*
X0180100Y0194177D01*
X0180138Y0194330D01*
X0180179Y0194483D01*
X0180224Y0194635D01*
X0180273Y0194786D01*
X0180326Y0194935D01*
X0180382Y0195083D01*
X0180442Y0195229D01*
X0180506Y0195374D01*
X0180574Y0195517D01*
X0180645Y0195659D01*
X0180719Y0195799D01*
X0180797Y0195936D01*
X0180879Y0196072D01*
X0180963Y0196206D01*
X0181052Y0196337D01*
X0181143Y0196466D01*
X0181238Y0196593D01*
X0181335Y0196718D01*
X0181436Y0196840D01*
X0181540Y0196959D01*
X0181647Y0197076D01*
X0181757Y0197190D01*
X0181870Y0197301D01*
X0181985Y0197410D01*
X0182103Y0197515D01*
X0182224Y0197617D01*
X0182347Y0197717D01*
X0182473Y0197813D01*
X0182601Y0197906D01*
X0182731Y0197996D01*
X0182864Y0198082D01*
X0182999Y0198166D01*
X0183135Y0198245D01*
X0183274Y0198322D01*
X0183415Y0198394D01*
X0183557Y0198464D01*
X0183701Y0198529D01*
X0183847Y0198591D01*
X0183994Y0198649D01*
X0184143Y0198704D01*
X0184293Y0198755D01*
X0184444Y0198802D01*
X0184596Y0198845D01*
X0184749Y0198884D01*
X0184904Y0198920D01*
X0185059Y0198951D01*
X0185215Y0198979D01*
X0185371Y0199003D01*
X0185528Y0199023D01*
X0185686Y0199039D01*
X0185843Y0199051D01*
X0186002Y0199059D01*
X0186160Y0199063D01*
X0186318Y0199063D01*
X0186476Y0199059D01*
X0186635Y0199051D01*
X0186792Y0199039D01*
X0186950Y0199023D01*
X0187107Y0199003D01*
X0187263Y0198979D01*
X0187419Y0198951D01*
X0187574Y0198920D01*
X0187729Y0198884D01*
X0187882Y0198845D01*
X0188034Y0198802D01*
X0188185Y0198755D01*
X0188335Y0198704D01*
X0188484Y0198649D01*
X0188631Y0198591D01*
X0188777Y0198529D01*
X0188921Y0198464D01*
X0189063Y0198394D01*
X0189204Y0198322D01*
X0189343Y0198245D01*
X0189479Y0198166D01*
X0189614Y0198082D01*
X0189747Y0197996D01*
X0189877Y0197906D01*
X0190005Y0197813D01*
X0190131Y0197717D01*
X0190254Y0197617D01*
X0190375Y0197515D01*
X0190493Y0197410D01*
X0190608Y0197301D01*
X0190721Y0197190D01*
X0190831Y0197076D01*
X0190938Y0196959D01*
X0191042Y0196840D01*
X0191143Y0196718D01*
X0191240Y0196593D01*
X0191335Y0196466D01*
X0191426Y0196337D01*
X0191515Y0196206D01*
X0191599Y0196072D01*
X0191681Y0195936D01*
X0191759Y0195799D01*
X0191833Y0195659D01*
X0191904Y0195517D01*
X0191972Y0195374D01*
X0192036Y0195229D01*
X0192096Y0195083D01*
X0192152Y0194935D01*
X0192205Y0194786D01*
X0192254Y0194635D01*
X0192299Y0194483D01*
X0192340Y0194330D01*
X0192378Y0194177D01*
X0192411Y0194022D01*
X0192441Y0193866D01*
X0192467Y0193710D01*
X0192488Y0193553D01*
X0192506Y0193396D01*
X0192520Y0193238D01*
X0192530Y0193080D01*
X0192536Y0192922D01*
X0192538Y0192764D01*
X0192536Y0192606D01*
X0192530Y0192448D01*
X0192520Y0192290D01*
X0192506Y0192132D01*
X0192488Y0191975D01*
X0192467Y0191818D01*
X0192441Y0191662D01*
X0192411Y0191506D01*
X0192378Y0191351D01*
X0192340Y0191198D01*
X0192299Y0191045D01*
X0192254Y0190893D01*
X0192205Y0190742D01*
X0192152Y0190593D01*
X0192096Y0190445D01*
X0192036Y0190299D01*
X0191972Y0190154D01*
X0191904Y0190011D01*
X0191833Y0189869D01*
X0191759Y0189729D01*
X0191681Y0189592D01*
X0191599Y0189456D01*
X0191515Y0189322D01*
X0191426Y0189191D01*
X0191335Y0189062D01*
X0191240Y0188935D01*
X0191143Y0188810D01*
X0191042Y0188688D01*
X0190938Y0188569D01*
X0190831Y0188452D01*
X0190721Y0188338D01*
X0190608Y0188227D01*
X0190493Y0188118D01*
X0190375Y0188013D01*
X0190254Y0187911D01*
X0190131Y0187811D01*
X0190005Y0187715D01*
X0189877Y0187622D01*
X0189747Y0187532D01*
X0189614Y0187446D01*
X0189479Y0187362D01*
X0189343Y0187283D01*
X0189204Y0187206D01*
X0189063Y0187134D01*
X0188921Y0187064D01*
X0188777Y0186999D01*
X0188631Y0186937D01*
X0188484Y0186879D01*
X0188335Y0186824D01*
X0188185Y0186773D01*
X0188034Y0186726D01*
X0187882Y0186683D01*
X0187729Y0186644D01*
X0187574Y0186608D01*
X0187419Y0186577D01*
X0187263Y0186549D01*
X0187107Y0186525D01*
X0186950Y0186505D01*
X0186792Y0186489D01*
X0186635Y0186477D01*
X0186476Y0186469D01*
X0186318Y0186465D01*
X0186160Y0186465D01*
X0186002Y0186469D01*
X0185843Y0186477D01*
X0185686Y0186489D01*
X0185528Y0186505D01*
X0185371Y0186525D01*
X0185215Y0186549D01*
X0185059Y0186577D01*
X0184904Y0186608D01*
X0184749Y0186644D01*
X0184596Y0186683D01*
X0184444Y0186726D01*
X0184293Y0186773D01*
X0184143Y0186824D01*
X0183994Y0186879D01*
X0183847Y0186937D01*
X0183701Y0186999D01*
X0183557Y0187064D01*
X0183415Y0187134D01*
X0183274Y0187206D01*
X0183135Y0187283D01*
X0182999Y0187362D01*
X0182864Y0187446D01*
X0182731Y0187532D01*
X0182601Y0187622D01*
X0182473Y0187715D01*
X0182347Y0187811D01*
X0182224Y0187911D01*
X0182103Y0188013D01*
X0181985Y0188118D01*
X0181870Y0188227D01*
X0181757Y0188338D01*
X0181647Y0188452D01*
X0181540Y0188569D01*
X0181436Y0188688D01*
X0181335Y0188810D01*
X0181238Y0188935D01*
X0181143Y0189062D01*
X0181052Y0189191D01*
X0180963Y0189322D01*
X0180879Y0189456D01*
X0180797Y0189592D01*
X0180719Y0189729D01*
X0180645Y0189869D01*
X0180574Y0190011D01*
X0180506Y0190154D01*
X0180442Y0190299D01*
X0180382Y0190445D01*
X0180326Y0190593D01*
X0180273Y0190742D01*
X0180224Y0190893D01*
X0180179Y0191045D01*
X0180138Y0191198D01*
X0180100Y0191351D01*
X0180067Y0191506D01*
X0180037Y0191662D01*
X0180011Y0191818D01*
X0179990Y0191975D01*
X0179972Y0192132D01*
X0179958Y0192290D01*
X0179948Y0192448D01*
X0179942Y0192606D01*
X0179940Y0192764D01*
X0186239Y0204575D02*
X0186524Y0204572D01*
X0186810Y0204561D01*
X0187095Y0204544D01*
X0187379Y0204520D01*
X0187663Y0204489D01*
X0187946Y0204451D01*
X0188227Y0204406D01*
X0188508Y0204355D01*
X0188788Y0204297D01*
X0189066Y0204232D01*
X0189342Y0204160D01*
X0189616Y0204082D01*
X0189889Y0203997D01*
X0190159Y0203905D01*
X0190427Y0203807D01*
X0190693Y0203703D01*
X0190956Y0203592D01*
X0191216Y0203475D01*
X0191474Y0203352D01*
X0191728Y0203222D01*
X0191979Y0203086D01*
X0192227Y0202945D01*
X0192471Y0202797D01*
X0192712Y0202644D01*
X0192948Y0202484D01*
X0193181Y0202319D01*
X0193410Y0202149D01*
X0193635Y0201973D01*
X0193855Y0201791D01*
X0194071Y0201605D01*
X0194282Y0201413D01*
X0194489Y0201216D01*
X0194691Y0201014D01*
X0194888Y0200807D01*
X0195080Y0200596D01*
X0195266Y0200380D01*
X0195448Y0200160D01*
X0195624Y0199935D01*
X0195794Y0199706D01*
X0195959Y0199473D01*
X0196119Y0199237D01*
X0196272Y0198996D01*
X0196420Y0198752D01*
X0196561Y0198504D01*
X0196697Y0198253D01*
X0196827Y0197999D01*
X0196950Y0197741D01*
X0197067Y0197481D01*
X0197178Y0197218D01*
X0197282Y0196952D01*
X0197380Y0196684D01*
X0197472Y0196414D01*
X0197557Y0196141D01*
X0197635Y0195867D01*
X0197707Y0195591D01*
X0197772Y0195313D01*
X0197830Y0195033D01*
X0197881Y0194752D01*
X0197926Y0194471D01*
X0197964Y0194188D01*
X0197995Y0193904D01*
X0198019Y0193620D01*
X0198036Y0193335D01*
X0198047Y0193049D01*
X0198050Y0192764D01*
X0186239Y0204575D02*
X0013011Y0204575D01*
X0006712Y0192764D02*
X0006714Y0192922D01*
X0006720Y0193080D01*
X0006730Y0193238D01*
X0006744Y0193396D01*
X0006762Y0193553D01*
X0006783Y0193710D01*
X0006809Y0193866D01*
X0006839Y0194022D01*
X0006872Y0194177D01*
X0006910Y0194330D01*
X0006951Y0194483D01*
X0006996Y0194635D01*
X0007045Y0194786D01*
X0007098Y0194935D01*
X0007154Y0195083D01*
X0007214Y0195229D01*
X0007278Y0195374D01*
X0007346Y0195517D01*
X0007417Y0195659D01*
X0007491Y0195799D01*
X0007569Y0195936D01*
X0007651Y0196072D01*
X0007735Y0196206D01*
X0007824Y0196337D01*
X0007915Y0196466D01*
X0008010Y0196593D01*
X0008107Y0196718D01*
X0008208Y0196840D01*
X0008312Y0196959D01*
X0008419Y0197076D01*
X0008529Y0197190D01*
X0008642Y0197301D01*
X0008757Y0197410D01*
X0008875Y0197515D01*
X0008996Y0197617D01*
X0009119Y0197717D01*
X0009245Y0197813D01*
X0009373Y0197906D01*
X0009503Y0197996D01*
X0009636Y0198082D01*
X0009771Y0198166D01*
X0009907Y0198245D01*
X0010046Y0198322D01*
X0010187Y0198394D01*
X0010329Y0198464D01*
X0010473Y0198529D01*
X0010619Y0198591D01*
X0010766Y0198649D01*
X0010915Y0198704D01*
X0011065Y0198755D01*
X0011216Y0198802D01*
X0011368Y0198845D01*
X0011521Y0198884D01*
X0011676Y0198920D01*
X0011831Y0198951D01*
X0011987Y0198979D01*
X0012143Y0199003D01*
X0012300Y0199023D01*
X0012458Y0199039D01*
X0012615Y0199051D01*
X0012774Y0199059D01*
X0012932Y0199063D01*
X0013090Y0199063D01*
X0013248Y0199059D01*
X0013407Y0199051D01*
X0013564Y0199039D01*
X0013722Y0199023D01*
X0013879Y0199003D01*
X0014035Y0198979D01*
X0014191Y0198951D01*
X0014346Y0198920D01*
X0014501Y0198884D01*
X0014654Y0198845D01*
X0014806Y0198802D01*
X0014957Y0198755D01*
X0015107Y0198704D01*
X0015256Y0198649D01*
X0015403Y0198591D01*
X0015549Y0198529D01*
X0015693Y0198464D01*
X0015835Y0198394D01*
X0015976Y0198322D01*
X0016115Y0198245D01*
X0016251Y0198166D01*
X0016386Y0198082D01*
X0016519Y0197996D01*
X0016649Y0197906D01*
X0016777Y0197813D01*
X0016903Y0197717D01*
X0017026Y0197617D01*
X0017147Y0197515D01*
X0017265Y0197410D01*
X0017380Y0197301D01*
X0017493Y0197190D01*
X0017603Y0197076D01*
X0017710Y0196959D01*
X0017814Y0196840D01*
X0017915Y0196718D01*
X0018012Y0196593D01*
X0018107Y0196466D01*
X0018198Y0196337D01*
X0018287Y0196206D01*
X0018371Y0196072D01*
X0018453Y0195936D01*
X0018531Y0195799D01*
X0018605Y0195659D01*
X0018676Y0195517D01*
X0018744Y0195374D01*
X0018808Y0195229D01*
X0018868Y0195083D01*
X0018924Y0194935D01*
X0018977Y0194786D01*
X0019026Y0194635D01*
X0019071Y0194483D01*
X0019112Y0194330D01*
X0019150Y0194177D01*
X0019183Y0194022D01*
X0019213Y0193866D01*
X0019239Y0193710D01*
X0019260Y0193553D01*
X0019278Y0193396D01*
X0019292Y0193238D01*
X0019302Y0193080D01*
X0019308Y0192922D01*
X0019310Y0192764D01*
X0019308Y0192606D01*
X0019302Y0192448D01*
X0019292Y0192290D01*
X0019278Y0192132D01*
X0019260Y0191975D01*
X0019239Y0191818D01*
X0019213Y0191662D01*
X0019183Y0191506D01*
X0019150Y0191351D01*
X0019112Y0191198D01*
X0019071Y0191045D01*
X0019026Y0190893D01*
X0018977Y0190742D01*
X0018924Y0190593D01*
X0018868Y0190445D01*
X0018808Y0190299D01*
X0018744Y0190154D01*
X0018676Y0190011D01*
X0018605Y0189869D01*
X0018531Y0189729D01*
X0018453Y0189592D01*
X0018371Y0189456D01*
X0018287Y0189322D01*
X0018198Y0189191D01*
X0018107Y0189062D01*
X0018012Y0188935D01*
X0017915Y0188810D01*
X0017814Y0188688D01*
X0017710Y0188569D01*
X0017603Y0188452D01*
X0017493Y0188338D01*
X0017380Y0188227D01*
X0017265Y0188118D01*
X0017147Y0188013D01*
X0017026Y0187911D01*
X0016903Y0187811D01*
X0016777Y0187715D01*
X0016649Y0187622D01*
X0016519Y0187532D01*
X0016386Y0187446D01*
X0016251Y0187362D01*
X0016115Y0187283D01*
X0015976Y0187206D01*
X0015835Y0187134D01*
X0015693Y0187064D01*
X0015549Y0186999D01*
X0015403Y0186937D01*
X0015256Y0186879D01*
X0015107Y0186824D01*
X0014957Y0186773D01*
X0014806Y0186726D01*
X0014654Y0186683D01*
X0014501Y0186644D01*
X0014346Y0186608D01*
X0014191Y0186577D01*
X0014035Y0186549D01*
X0013879Y0186525D01*
X0013722Y0186505D01*
X0013564Y0186489D01*
X0013407Y0186477D01*
X0013248Y0186469D01*
X0013090Y0186465D01*
X0012932Y0186465D01*
X0012774Y0186469D01*
X0012615Y0186477D01*
X0012458Y0186489D01*
X0012300Y0186505D01*
X0012143Y0186525D01*
X0011987Y0186549D01*
X0011831Y0186577D01*
X0011676Y0186608D01*
X0011521Y0186644D01*
X0011368Y0186683D01*
X0011216Y0186726D01*
X0011065Y0186773D01*
X0010915Y0186824D01*
X0010766Y0186879D01*
X0010619Y0186937D01*
X0010473Y0186999D01*
X0010329Y0187064D01*
X0010187Y0187134D01*
X0010046Y0187206D01*
X0009907Y0187283D01*
X0009771Y0187362D01*
X0009636Y0187446D01*
X0009503Y0187532D01*
X0009373Y0187622D01*
X0009245Y0187715D01*
X0009119Y0187811D01*
X0008996Y0187911D01*
X0008875Y0188013D01*
X0008757Y0188118D01*
X0008642Y0188227D01*
X0008529Y0188338D01*
X0008419Y0188452D01*
X0008312Y0188569D01*
X0008208Y0188688D01*
X0008107Y0188810D01*
X0008010Y0188935D01*
X0007915Y0189062D01*
X0007824Y0189191D01*
X0007735Y0189322D01*
X0007651Y0189456D01*
X0007569Y0189592D01*
X0007491Y0189729D01*
X0007417Y0189869D01*
X0007346Y0190011D01*
X0007278Y0190154D01*
X0007214Y0190299D01*
X0007154Y0190445D01*
X0007098Y0190593D01*
X0007045Y0190742D01*
X0006996Y0190893D01*
X0006951Y0191045D01*
X0006910Y0191198D01*
X0006872Y0191351D01*
X0006839Y0191506D01*
X0006809Y0191662D01*
X0006783Y0191818D01*
X0006762Y0191975D01*
X0006744Y0192132D01*
X0006730Y0192290D01*
X0006720Y0192448D01*
X0006714Y0192606D01*
X0006712Y0192764D01*
X0001200Y0192764D02*
X0001200Y0019535D01*
X0006712Y0019535D02*
X0006714Y0019693D01*
X0006720Y0019851D01*
X0006730Y0020009D01*
X0006744Y0020167D01*
X0006762Y0020324D01*
X0006783Y0020481D01*
X0006809Y0020637D01*
X0006839Y0020793D01*
X0006872Y0020948D01*
X0006910Y0021101D01*
X0006951Y0021254D01*
X0006996Y0021406D01*
X0007045Y0021557D01*
X0007098Y0021706D01*
X0007154Y0021854D01*
X0007214Y0022000D01*
X0007278Y0022145D01*
X0007346Y0022288D01*
X0007417Y0022430D01*
X0007491Y0022570D01*
X0007569Y0022707D01*
X0007651Y0022843D01*
X0007735Y0022977D01*
X0007824Y0023108D01*
X0007915Y0023237D01*
X0008010Y0023364D01*
X0008107Y0023489D01*
X0008208Y0023611D01*
X0008312Y0023730D01*
X0008419Y0023847D01*
X0008529Y0023961D01*
X0008642Y0024072D01*
X0008757Y0024181D01*
X0008875Y0024286D01*
X0008996Y0024388D01*
X0009119Y0024488D01*
X0009245Y0024584D01*
X0009373Y0024677D01*
X0009503Y0024767D01*
X0009636Y0024853D01*
X0009771Y0024937D01*
X0009907Y0025016D01*
X0010046Y0025093D01*
X0010187Y0025165D01*
X0010329Y0025235D01*
X0010473Y0025300D01*
X0010619Y0025362D01*
X0010766Y0025420D01*
X0010915Y0025475D01*
X0011065Y0025526D01*
X0011216Y0025573D01*
X0011368Y0025616D01*
X0011521Y0025655D01*
X0011676Y0025691D01*
X0011831Y0025722D01*
X0011987Y0025750D01*
X0012143Y0025774D01*
X0012300Y0025794D01*
X0012458Y0025810D01*
X0012615Y0025822D01*
X0012774Y0025830D01*
X0012932Y0025834D01*
X0013090Y0025834D01*
X0013248Y0025830D01*
X0013407Y0025822D01*
X0013564Y0025810D01*
X0013722Y0025794D01*
X0013879Y0025774D01*
X0014035Y0025750D01*
X0014191Y0025722D01*
X0014346Y0025691D01*
X0014501Y0025655D01*
X0014654Y0025616D01*
X0014806Y0025573D01*
X0014957Y0025526D01*
X0015107Y0025475D01*
X0015256Y0025420D01*
X0015403Y0025362D01*
X0015549Y0025300D01*
X0015693Y0025235D01*
X0015835Y0025165D01*
X0015976Y0025093D01*
X0016115Y0025016D01*
X0016251Y0024937D01*
X0016386Y0024853D01*
X0016519Y0024767D01*
X0016649Y0024677D01*
X0016777Y0024584D01*
X0016903Y0024488D01*
X0017026Y0024388D01*
X0017147Y0024286D01*
X0017265Y0024181D01*
X0017380Y0024072D01*
X0017493Y0023961D01*
X0017603Y0023847D01*
X0017710Y0023730D01*
X0017814Y0023611D01*
X0017915Y0023489D01*
X0018012Y0023364D01*
X0018107Y0023237D01*
X0018198Y0023108D01*
X0018287Y0022977D01*
X0018371Y0022843D01*
X0018453Y0022707D01*
X0018531Y0022570D01*
X0018605Y0022430D01*
X0018676Y0022288D01*
X0018744Y0022145D01*
X0018808Y0022000D01*
X0018868Y0021854D01*
X0018924Y0021706D01*
X0018977Y0021557D01*
X0019026Y0021406D01*
X0019071Y0021254D01*
X0019112Y0021101D01*
X0019150Y0020948D01*
X0019183Y0020793D01*
X0019213Y0020637D01*
X0019239Y0020481D01*
X0019260Y0020324D01*
X0019278Y0020167D01*
X0019292Y0020009D01*
X0019302Y0019851D01*
X0019308Y0019693D01*
X0019310Y0019535D01*
X0019308Y0019377D01*
X0019302Y0019219D01*
X0019292Y0019061D01*
X0019278Y0018903D01*
X0019260Y0018746D01*
X0019239Y0018589D01*
X0019213Y0018433D01*
X0019183Y0018277D01*
X0019150Y0018122D01*
X0019112Y0017969D01*
X0019071Y0017816D01*
X0019026Y0017664D01*
X0018977Y0017513D01*
X0018924Y0017364D01*
X0018868Y0017216D01*
X0018808Y0017070D01*
X0018744Y0016925D01*
X0018676Y0016782D01*
X0018605Y0016640D01*
X0018531Y0016500D01*
X0018453Y0016363D01*
X0018371Y0016227D01*
X0018287Y0016093D01*
X0018198Y0015962D01*
X0018107Y0015833D01*
X0018012Y0015706D01*
X0017915Y0015581D01*
X0017814Y0015459D01*
X0017710Y0015340D01*
X0017603Y0015223D01*
X0017493Y0015109D01*
X0017380Y0014998D01*
X0017265Y0014889D01*
X0017147Y0014784D01*
X0017026Y0014682D01*
X0016903Y0014582D01*
X0016777Y0014486D01*
X0016649Y0014393D01*
X0016519Y0014303D01*
X0016386Y0014217D01*
X0016251Y0014133D01*
X0016115Y0014054D01*
X0015976Y0013977D01*
X0015835Y0013905D01*
X0015693Y0013835D01*
X0015549Y0013770D01*
X0015403Y0013708D01*
X0015256Y0013650D01*
X0015107Y0013595D01*
X0014957Y0013544D01*
X0014806Y0013497D01*
X0014654Y0013454D01*
X0014501Y0013415D01*
X0014346Y0013379D01*
X0014191Y0013348D01*
X0014035Y0013320D01*
X0013879Y0013296D01*
X0013722Y0013276D01*
X0013564Y0013260D01*
X0013407Y0013248D01*
X0013248Y0013240D01*
X0013090Y0013236D01*
X0012932Y0013236D01*
X0012774Y0013240D01*
X0012615Y0013248D01*
X0012458Y0013260D01*
X0012300Y0013276D01*
X0012143Y0013296D01*
X0011987Y0013320D01*
X0011831Y0013348D01*
X0011676Y0013379D01*
X0011521Y0013415D01*
X0011368Y0013454D01*
X0011216Y0013497D01*
X0011065Y0013544D01*
X0010915Y0013595D01*
X0010766Y0013650D01*
X0010619Y0013708D01*
X0010473Y0013770D01*
X0010329Y0013835D01*
X0010187Y0013905D01*
X0010046Y0013977D01*
X0009907Y0014054D01*
X0009771Y0014133D01*
X0009636Y0014217D01*
X0009503Y0014303D01*
X0009373Y0014393D01*
X0009245Y0014486D01*
X0009119Y0014582D01*
X0008996Y0014682D01*
X0008875Y0014784D01*
X0008757Y0014889D01*
X0008642Y0014998D01*
X0008529Y0015109D01*
X0008419Y0015223D01*
X0008312Y0015340D01*
X0008208Y0015459D01*
X0008107Y0015581D01*
X0008010Y0015706D01*
X0007915Y0015833D01*
X0007824Y0015962D01*
X0007735Y0016093D01*
X0007651Y0016227D01*
X0007569Y0016363D01*
X0007491Y0016500D01*
X0007417Y0016640D01*
X0007346Y0016782D01*
X0007278Y0016925D01*
X0007214Y0017070D01*
X0007154Y0017216D01*
X0007098Y0017364D01*
X0007045Y0017513D01*
X0006996Y0017664D01*
X0006951Y0017816D01*
X0006910Y0017969D01*
X0006872Y0018122D01*
X0006839Y0018277D01*
X0006809Y0018433D01*
X0006783Y0018589D01*
X0006762Y0018746D01*
X0006744Y0018903D01*
X0006730Y0019061D01*
X0006720Y0019219D01*
X0006714Y0019377D01*
X0006712Y0019535D01*
X0001200Y0019535D02*
X0001203Y0019250D01*
X0001214Y0018964D01*
X0001231Y0018679D01*
X0001255Y0018395D01*
X0001286Y0018111D01*
X0001324Y0017828D01*
X0001369Y0017547D01*
X0001420Y0017266D01*
X0001478Y0016986D01*
X0001543Y0016708D01*
X0001615Y0016432D01*
X0001693Y0016158D01*
X0001778Y0015885D01*
X0001870Y0015615D01*
X0001968Y0015347D01*
X0002072Y0015081D01*
X0002183Y0014818D01*
X0002300Y0014558D01*
X0002423Y0014300D01*
X0002553Y0014046D01*
X0002689Y0013795D01*
X0002830Y0013547D01*
X0002978Y0013303D01*
X0003131Y0013062D01*
X0003291Y0012826D01*
X0003456Y0012593D01*
X0003626Y0012364D01*
X0003802Y0012139D01*
X0003984Y0011919D01*
X0004170Y0011703D01*
X0004362Y0011492D01*
X0004559Y0011285D01*
X0004761Y0011083D01*
X0004968Y0010886D01*
X0005179Y0010694D01*
X0005395Y0010508D01*
X0005615Y0010326D01*
X0005840Y0010150D01*
X0006069Y0009980D01*
X0006302Y0009815D01*
X0006538Y0009655D01*
X0006779Y0009502D01*
X0007023Y0009354D01*
X0007271Y0009213D01*
X0007522Y0009077D01*
X0007776Y0008947D01*
X0008034Y0008824D01*
X0008294Y0008707D01*
X0008557Y0008596D01*
X0008823Y0008492D01*
X0009091Y0008394D01*
X0009361Y0008302D01*
X0009634Y0008217D01*
X0009908Y0008139D01*
X0010184Y0008067D01*
X0010462Y0008002D01*
X0010742Y0007944D01*
X0011023Y0007893D01*
X0011304Y0007848D01*
X0011587Y0007810D01*
X0011871Y0007779D01*
X0012155Y0007755D01*
X0012440Y0007738D01*
X0012726Y0007727D01*
X0013011Y0007724D01*
X0001200Y0192764D02*
X0001203Y0193049D01*
X0001214Y0193335D01*
X0001231Y0193620D01*
X0001255Y0193904D01*
X0001286Y0194188D01*
X0001324Y0194471D01*
X0001369Y0194752D01*
X0001420Y0195033D01*
X0001478Y0195313D01*
X0001543Y0195591D01*
X0001615Y0195867D01*
X0001693Y0196141D01*
X0001778Y0196414D01*
X0001870Y0196684D01*
X0001968Y0196952D01*
X0002072Y0197218D01*
X0002183Y0197481D01*
X0002300Y0197741D01*
X0002423Y0197999D01*
X0002553Y0198253D01*
X0002689Y0198504D01*
X0002830Y0198752D01*
X0002978Y0198996D01*
X0003131Y0199237D01*
X0003291Y0199473D01*
X0003456Y0199706D01*
X0003626Y0199935D01*
X0003802Y0200160D01*
X0003984Y0200380D01*
X0004170Y0200596D01*
X0004362Y0200807D01*
X0004559Y0201014D01*
X0004761Y0201216D01*
X0004968Y0201413D01*
X0005179Y0201605D01*
X0005395Y0201791D01*
X0005615Y0201973D01*
X0005840Y0202149D01*
X0006069Y0202319D01*
X0006302Y0202484D01*
X0006538Y0202644D01*
X0006779Y0202797D01*
X0007023Y0202945D01*
X0007271Y0203086D01*
X0007522Y0203222D01*
X0007776Y0203352D01*
X0008034Y0203475D01*
X0008294Y0203592D01*
X0008557Y0203703D01*
X0008823Y0203807D01*
X0009091Y0203905D01*
X0009361Y0203997D01*
X0009634Y0204082D01*
X0009908Y0204160D01*
X0010184Y0204232D01*
X0010462Y0204297D01*
X0010742Y0204355D01*
X0011023Y0204406D01*
X0011304Y0204451D01*
X0011587Y0204489D01*
X0011871Y0204520D01*
X0012155Y0204544D01*
X0012440Y0204561D01*
X0012726Y0204572D01*
X0013011Y0204575D01*
D11*
X0118050Y0141661D03*
X0118050Y0127488D03*
X0191200Y0101661D03*
X0191200Y0087488D03*
D12*
X0191200Y0084575D03*
X0191200Y0104575D03*
X0163050Y0139575D03*
X0133050Y0139575D03*
X0118050Y0144575D03*
X0118050Y0124575D03*
X0104487Y0106937D03*
X0093700Y0106937D03*
X0079200Y0105724D03*
X0093700Y0076937D03*
X0104487Y0076937D03*
X0120413Y0066937D03*
X0118050Y0049575D03*
X0108050Y0029575D03*
X0108050Y0019575D03*
X0098050Y0019575D03*
X0078200Y0028724D03*
X0098050Y0049575D03*
X0078200Y0058724D03*
X0118050Y0019575D03*
X0128050Y0019575D03*
X0128050Y0029575D03*
X0138050Y0019575D03*
X0148050Y0019575D03*
X0148050Y0029575D03*
X0158050Y0019575D03*
X0168050Y0019575D03*
X0168050Y0029575D03*
X0158050Y0049575D03*
X0150413Y0066937D03*
X0138050Y0049575D03*
X0079200Y0135724D03*
D13*
X0121200Y0112175D02*
X0121200Y0106975D01*
X0131200Y0106975D02*
X0131200Y0112175D01*
X0141200Y0112175D02*
X0141200Y0106975D01*
X0151200Y0106975D02*
X0151200Y0112175D01*
X0161200Y0112175D02*
X0161200Y0106975D01*
X0171200Y0106975D02*
X0171200Y0112175D01*
X0181200Y0112175D02*
X0181200Y0106975D01*
X0181200Y0082175D02*
X0181200Y0076975D01*
X0171200Y0076975D02*
X0171200Y0082175D01*
X0161200Y0082175D02*
X0161200Y0076975D01*
X0151200Y0076975D02*
X0151200Y0082175D01*
X0141200Y0082175D02*
X0141200Y0076975D01*
X0131200Y0076975D02*
X0131200Y0082175D01*
X0121200Y0082175D02*
X0121200Y0076975D01*
D14*
X0128326Y0066937D03*
X0142499Y0066937D03*
X0140964Y0139575D03*
X0155137Y0139575D03*
D15*
X0142972Y0156031D03*
X0142972Y0163906D03*
X0133129Y0163906D03*
X0133129Y0156031D03*
D16*
X0114350Y0174575D03*
X0161751Y0174575D03*
D17*
X0104487Y0099024D03*
X0093700Y0099024D03*
X0093700Y0084850D03*
X0104487Y0084850D03*
X0079200Y0113638D03*
X0079200Y0127811D03*
X0078200Y0050811D03*
X0078200Y0036638D03*
X0098050Y0041661D03*
X0098050Y0027488D03*
X0118050Y0027488D03*
X0118050Y0041661D03*
X0138050Y0041661D03*
X0138050Y0027488D03*
X0158050Y0027488D03*
X0158050Y0041661D03*
D18*
X0148050Y0026661D03*
X0148050Y0022488D03*
X0168050Y0022488D03*
X0168050Y0026661D03*
X0128050Y0026661D03*
X0128050Y0022488D03*
X0108050Y0022488D03*
X0108050Y0026661D03*
D19*
X0188050Y0129575D03*
X0188050Y0139575D03*
X0188050Y0149575D03*
X0188050Y0159575D03*
D20*
X0065200Y0166724D03*
X0065200Y0079724D03*
D21*
X0065200Y0059724D03*
X0065200Y0029724D03*
X0065200Y0019724D03*
X0065200Y0106724D03*
X0065200Y0116724D03*
X0065200Y0146724D03*
D22*
X0015665Y0151583D03*
X0015665Y0131583D03*
X0015665Y0080717D03*
X0015665Y0060717D03*
D23*
X0065200Y0029724D02*
X0067200Y0028724D01*
X0078200Y0028724D01*
X0078200Y0036638D01*
X0083712Y0036057D02*
X0092539Y0036057D01*
X0092539Y0034657D02*
X0092573Y0034575D01*
X0092539Y0034492D01*
X0092539Y0024085D01*
X0092043Y0023589D01*
X0090964Y0020984D01*
X0090964Y0018165D01*
X0092043Y0015561D01*
X0094036Y0013567D01*
X0096641Y0012488D01*
X0099460Y0012488D01*
X0102065Y0013567D01*
X0103735Y0015238D01*
X0104065Y0014908D01*
X0104844Y0014342D01*
X0105702Y0013905D01*
X0106618Y0013607D01*
X0107569Y0013457D01*
X0108050Y0013457D01*
X0108050Y0019575D01*
X0108050Y0021543D01*
X0108050Y0021543D01*
X0108050Y0019575D01*
X0108050Y0019575D01*
X0108050Y0019575D01*
X0108050Y0013457D01*
X0108532Y0013457D01*
X0109483Y0013607D01*
X0110399Y0013905D01*
X0111257Y0014342D01*
X0112036Y0014908D01*
X0112366Y0015238D01*
X0114036Y0013567D01*
X0116641Y0012488D01*
X0119460Y0012488D01*
X0122065Y0013567D01*
X0123735Y0015238D01*
X0124065Y0014908D01*
X0124844Y0014342D01*
X0125702Y0013905D01*
X0126618Y0013607D01*
X0127569Y0013457D01*
X0128050Y0013457D01*
X0128050Y0019575D01*
X0128050Y0021543D01*
X0128050Y0021543D01*
X0128050Y0019575D01*
X0128050Y0019575D01*
X0128050Y0019575D01*
X0128050Y0013457D01*
X0128532Y0013457D01*
X0129483Y0013607D01*
X0130399Y0013905D01*
X0131257Y0014342D01*
X0132036Y0014908D01*
X0132366Y0015238D01*
X0134036Y0013567D01*
X0136641Y0012488D01*
X0139460Y0012488D01*
X0142065Y0013567D01*
X0143735Y0015238D01*
X0144065Y0014908D01*
X0144844Y0014342D01*
X0145702Y0013905D01*
X0146618Y0013607D01*
X0147569Y0013457D01*
X0148050Y0013457D01*
X0148050Y0019575D01*
X0148050Y0021543D01*
X0148050Y0021543D01*
X0148050Y0019575D01*
X0148050Y0019575D01*
X0148050Y0019575D01*
X0148050Y0013457D01*
X0148532Y0013457D01*
X0149483Y0013607D01*
X0150399Y0013905D01*
X0151257Y0014342D01*
X0152036Y0014908D01*
X0152366Y0015238D01*
X0154036Y0013567D01*
X0156641Y0012488D01*
X0159460Y0012488D01*
X0162065Y0013567D01*
X0163735Y0015238D01*
X0164065Y0014908D01*
X0164844Y0014342D01*
X0165702Y0013905D01*
X0166618Y0013607D01*
X0167569Y0013457D01*
X0168050Y0013457D01*
X0168050Y0019575D01*
X0168050Y0021543D01*
X0168050Y0021543D01*
X0168050Y0019575D01*
X0168050Y0019575D01*
X0168050Y0022488D01*
X0168050Y0020317D02*
X0168050Y0020317D01*
X0168050Y0019575D02*
X0168050Y0013457D01*
X0168532Y0013457D01*
X0169483Y0013607D01*
X0170399Y0013905D01*
X0171257Y0014342D01*
X0172036Y0014908D01*
X0172717Y0015589D01*
X0173283Y0016368D01*
X0173720Y0017226D01*
X0174018Y0018142D01*
X0174168Y0019093D01*
X0174168Y0019575D01*
X0174168Y0020056D01*
X0174018Y0021007D01*
X0173720Y0021923D01*
X0173283Y0022781D01*
X0173214Y0022877D01*
X0173416Y0023079D01*
X0173956Y0024382D01*
X0173956Y0025458D01*
X0174058Y0025561D01*
X0175137Y0028165D01*
X0175137Y0030984D01*
X0174058Y0033589D01*
X0172065Y0035583D01*
X0169460Y0036661D01*
X0166641Y0036661D01*
X0164036Y0035583D01*
X0163796Y0035343D01*
X0163562Y0035343D01*
X0163562Y0045065D01*
X0163604Y0045106D01*
X0167218Y0045106D01*
X0169099Y0045885D01*
X0170539Y0047325D01*
X0180539Y0057325D01*
X0181318Y0059206D01*
X0181318Y0070831D01*
X0182422Y0070831D01*
X0184680Y0071767D01*
X0186408Y0073495D01*
X0187343Y0075753D01*
X0187343Y0079814D01*
X0187993Y0079342D01*
X0188851Y0078905D01*
X0189767Y0078607D01*
X0190718Y0078457D01*
X0191200Y0078457D01*
X0191682Y0078457D01*
X0192633Y0078607D01*
X0193549Y0078905D01*
X0194407Y0079342D01*
X0194507Y0079415D01*
X0194507Y0025187D01*
X0191815Y0027880D01*
X0188197Y0029378D01*
X0184282Y0029378D01*
X0180664Y0027880D01*
X0177895Y0025111D01*
X0176397Y0021493D01*
X0176397Y0017578D01*
X0177895Y0013960D01*
X0180588Y0011268D01*
X0080050Y0011268D01*
X0080050Y0021820D01*
X0082214Y0022717D01*
X0084208Y0024710D01*
X0085287Y0027315D01*
X0085287Y0030134D01*
X0084208Y0032739D01*
X0083712Y0033235D01*
X0083712Y0043642D01*
X0083678Y0043724D01*
X0083712Y0043807D01*
X0083712Y0054214D01*
X0084208Y0054710D01*
X0085287Y0057315D01*
X0085287Y0060134D01*
X0084208Y0062739D01*
X0082214Y0064732D01*
X0080050Y0065628D01*
X0080050Y0098638D01*
X0080610Y0098638D01*
X0083214Y0099717D01*
X0085208Y0101710D01*
X0086287Y0104315D01*
X0086287Y0107134D01*
X0085208Y0109739D01*
X0084712Y0110235D01*
X0084712Y0120642D01*
X0084678Y0120724D01*
X0084712Y0120807D01*
X0084712Y0131214D01*
X0085208Y0131710D01*
X0086287Y0134315D01*
X0086287Y0137134D01*
X0085208Y0139739D01*
X0083214Y0141732D01*
X0080610Y0142811D01*
X0080050Y0142811D01*
X0080050Y0201031D01*
X0180588Y0201031D01*
X0177895Y0198339D01*
X0176397Y0194722D01*
X0176397Y0190806D01*
X0177895Y0187188D01*
X0180664Y0184420D01*
X0184282Y0182921D01*
X0188197Y0182921D01*
X0191815Y0184420D01*
X0194507Y0187112D01*
X0194507Y0160420D01*
X0194451Y0160848D01*
X0194230Y0161672D01*
X0193903Y0162461D01*
X0193476Y0163200D01*
X0192957Y0163878D01*
X0192353Y0164481D01*
X0191676Y0165001D01*
X0190937Y0165428D01*
X0190148Y0165754D01*
X0189324Y0165975D01*
X0188477Y0166087D01*
X0188050Y0166087D01*
X0187624Y0166087D01*
X0186777Y0165975D01*
X0185953Y0165754D01*
X0185164Y0165428D01*
X0184425Y0165001D01*
X0183748Y0164481D01*
X0183144Y0163878D01*
X0182624Y0163200D01*
X0182198Y0162461D01*
X0181871Y0161672D01*
X0181650Y0160848D01*
X0181539Y0160002D01*
X0181539Y0159575D01*
X0188050Y0159575D01*
X0188050Y0159575D01*
X0188050Y0166087D01*
X0188050Y0159575D01*
X0188050Y0159575D01*
X0181539Y0159575D01*
X0181539Y0159148D01*
X0181650Y0158302D01*
X0181871Y0157477D01*
X0182198Y0156689D01*
X0182624Y0155949D01*
X0183144Y0155272D01*
X0183156Y0155260D01*
X0182590Y0154693D01*
X0167032Y0154693D01*
X0165151Y0153914D01*
X0160801Y0149563D01*
X0159361Y0148124D01*
X0158582Y0146242D01*
X0135474Y0146242D01*
X0134460Y0146661D02*
X0131641Y0146661D01*
X0131318Y0146528D01*
X0131318Y0149618D01*
X0135786Y0149618D01*
X0138050Y0151883D01*
X0140315Y0149618D01*
X0145628Y0149618D01*
X0149385Y0153375D01*
X0149385Y0158688D01*
X0148105Y0159968D01*
X0149385Y0161249D01*
X0149385Y0166562D01*
X0148090Y0167857D01*
X0148090Y0169471D01*
X0147311Y0171352D01*
X0145539Y0173124D01*
X0144099Y0174563D01*
X0142218Y0175343D01*
X0127682Y0175343D01*
X0125801Y0174563D01*
X0124396Y0173159D01*
X0124420Y0173249D01*
X0124420Y0175901D01*
X0123734Y0178462D01*
X0122408Y0180758D01*
X0120533Y0182633D01*
X0118237Y0183959D01*
X0115675Y0184646D01*
X0113024Y0184646D01*
X0110462Y0183959D01*
X0108166Y0182633D01*
X0106291Y0180758D01*
X0104965Y0178462D01*
X0104279Y0175901D01*
X0104279Y0173249D01*
X0104965Y0170688D01*
X0106291Y0168391D01*
X0108166Y0166516D01*
X0110462Y0165190D01*
X0113024Y0164504D01*
X0115675Y0164504D01*
X0118237Y0165190D01*
X0120533Y0166516D01*
X0121082Y0167065D01*
X0121082Y0149897D01*
X0120399Y0150245D01*
X0119483Y0150542D01*
X0118532Y0150693D01*
X0118050Y0150693D01*
X0117569Y0150693D01*
X0116618Y0150542D01*
X0115702Y0150245D01*
X0114844Y0149807D01*
X0114065Y0149241D01*
X0113384Y0148560D01*
X0112818Y0147781D01*
X0112381Y0146923D01*
X0112083Y0146007D01*
X0111932Y0145056D01*
X0111932Y0144575D01*
X0113507Y0144575D01*
X0113507Y0144575D01*
X0111932Y0144575D01*
X0111932Y0144093D01*
X0112083Y0143142D01*
X0112381Y0142226D01*
X0112818Y0141368D01*
X0113384Y0140589D01*
X0113507Y0140466D01*
X0113507Y0136290D01*
X0113606Y0135792D01*
X0113797Y0135332D01*
X0113078Y0134613D01*
X0112539Y0133311D01*
X0112539Y0129085D01*
X0112043Y0128589D01*
X0110964Y0125984D01*
X0110964Y0123165D01*
X0112043Y0120561D01*
X0114036Y0118567D01*
X0116641Y0117488D01*
X0119460Y0117488D01*
X0122065Y0118567D01*
X0123842Y0120344D01*
X0126082Y0118104D01*
X0126082Y0115745D01*
X0125992Y0115655D01*
X0125652Y0114835D01*
X0125626Y0114887D01*
X0125147Y0115546D01*
X0124571Y0116122D01*
X0123912Y0116601D01*
X0123186Y0116970D01*
X0122412Y0117222D01*
X0121607Y0117350D01*
X0121200Y0117350D01*
X0120793Y0117350D01*
X0119988Y0117222D01*
X0119214Y0116970D01*
X0118488Y0116601D01*
X0117829Y0116122D01*
X0117253Y0115546D01*
X0116774Y0114887D01*
X0116404Y0114161D01*
X0116153Y0113387D01*
X0116025Y0112582D01*
X0116025Y0109575D01*
X0121200Y0109575D01*
X0121200Y0109575D01*
X0121200Y0117350D01*
X0121200Y0109575D01*
X0121200Y0109575D01*
X0116025Y0109575D01*
X0116025Y0106568D01*
X0116153Y0105763D01*
X0116404Y0104988D01*
X0116774Y0104263D01*
X0117253Y0103604D01*
X0117829Y0103028D01*
X0118488Y0102549D01*
X0119214Y0102179D01*
X0119988Y0101927D01*
X0120793Y0101800D01*
X0121200Y0101800D01*
X0121607Y0101800D01*
X0122412Y0101927D01*
X0123186Y0102179D01*
X0123912Y0102549D01*
X0124571Y0103028D01*
X0125147Y0103604D01*
X0125626Y0104263D01*
X0125652Y0104315D01*
X0125992Y0103495D01*
X0127720Y0101767D01*
X0127921Y0101684D01*
X0126861Y0100624D01*
X0116211Y0089974D01*
X0115432Y0088093D01*
X0115432Y0085343D01*
X0115182Y0085343D01*
X0113301Y0084563D01*
X0111861Y0083124D01*
X0110793Y0082055D01*
X0109999Y0082055D01*
X0109999Y0091854D01*
X0109965Y0091937D01*
X0109999Y0092020D01*
X0109999Y0102427D01*
X0110495Y0102923D01*
X0111574Y0105527D01*
X0111574Y0108347D01*
X0110495Y0110951D01*
X0108502Y0112945D01*
X0105897Y0114024D01*
X0103078Y0114024D01*
X0100473Y0112945D01*
X0099094Y0111565D01*
X0097714Y0112945D01*
X0095110Y0114024D01*
X0092290Y0114024D01*
X0089686Y0112945D01*
X0087692Y0110951D01*
X0086613Y0108347D01*
X0086613Y0105527D01*
X0087692Y0102923D01*
X0088188Y0102427D01*
X0088188Y0092020D01*
X0088222Y0091937D01*
X0088188Y0091854D01*
X0088188Y0081447D01*
X0087692Y0080951D01*
X0086613Y0078347D01*
X0086613Y0075527D01*
X0087692Y0072923D01*
X0089686Y0070929D01*
X0092290Y0069850D01*
X0095110Y0069850D01*
X0097714Y0070929D01*
X0098604Y0071819D01*
X0099584Y0071819D01*
X0100473Y0070929D01*
X0103078Y0069850D01*
X0105897Y0069850D01*
X0108502Y0070929D01*
X0109391Y0071819D01*
X0113931Y0071819D01*
X0115812Y0072598D01*
X0116082Y0072868D01*
X0116082Y0072628D01*
X0114405Y0070951D01*
X0113326Y0068347D01*
X0113326Y0065527D01*
X0114405Y0062923D01*
X0116398Y0060929D01*
X0119003Y0059850D01*
X0121822Y0059850D01*
X0124427Y0060929D01*
X0124923Y0061425D01*
X0135330Y0061425D01*
X0135413Y0061459D01*
X0135495Y0061425D01*
X0145902Y0061425D01*
X0146398Y0060929D01*
X0149003Y0059850D01*
X0151822Y0059850D01*
X0154427Y0060929D01*
X0156420Y0062923D01*
X0157499Y0065527D01*
X0157499Y0068347D01*
X0156420Y0070951D01*
X0156318Y0071053D01*
X0156318Y0073169D01*
X0157720Y0071767D01*
X0159978Y0070831D01*
X0162422Y0070831D01*
X0164680Y0071767D01*
X0166200Y0073287D01*
X0167720Y0071767D01*
X0169978Y0070831D01*
X0171082Y0070831D01*
X0171082Y0062344D01*
X0164080Y0055343D01*
X0162305Y0055343D01*
X0162065Y0055583D01*
X0159460Y0056661D01*
X0156641Y0056661D01*
X0154036Y0055583D01*
X0152043Y0053589D01*
X0150964Y0050984D01*
X0150964Y0048165D01*
X0152043Y0045561D01*
X0152539Y0045065D01*
X0152539Y0035109D01*
X0152065Y0035583D01*
X0149460Y0036661D01*
X0146641Y0036661D01*
X0144036Y0035583D01*
X0143796Y0035343D01*
X0143562Y0035343D01*
X0143562Y0045065D01*
X0144058Y0045561D01*
X0145137Y0048165D01*
X0145137Y0050984D01*
X0144058Y0053589D01*
X0142065Y0055583D01*
X0139460Y0056661D01*
X0136641Y0056661D01*
X0134036Y0055583D01*
X0132043Y0053589D01*
X0130964Y0050984D01*
X0130964Y0048165D01*
X0132043Y0045561D01*
X0132539Y0045065D01*
X0132539Y0035109D01*
X0132065Y0035583D01*
X0129460Y0036661D01*
X0126641Y0036661D01*
X0124036Y0035583D01*
X0123796Y0035343D01*
X0123562Y0035343D01*
X0123562Y0045065D01*
X0124058Y0045561D01*
X0125137Y0048165D01*
X0125137Y0050984D01*
X0124058Y0053589D01*
X0122065Y0055583D01*
X0119460Y0056661D01*
X0116641Y0056661D01*
X0114036Y0055583D01*
X0112043Y0053589D01*
X0110964Y0050984D01*
X0110964Y0048165D01*
X0112043Y0045561D01*
X0112539Y0045065D01*
X0112539Y0035109D01*
X0112065Y0035583D01*
X0109460Y0036661D01*
X0106641Y0036661D01*
X0104036Y0035583D01*
X0103796Y0035343D01*
X0103562Y0035343D01*
X0103562Y0045065D01*
X0104058Y0045561D01*
X0105137Y0048165D01*
X0105137Y0050984D01*
X0104058Y0053589D01*
X0102065Y0055583D01*
X0099460Y0056661D01*
X0096641Y0056661D01*
X0094036Y0055583D01*
X0092043Y0053589D01*
X0090964Y0050984D01*
X0090964Y0048165D01*
X0092043Y0045561D01*
X0092539Y0045065D01*
X0092539Y0034657D01*
X0092539Y0032909D02*
X0084037Y0032909D01*
X0085287Y0029761D02*
X0092539Y0029761D01*
X0092539Y0026613D02*
X0084996Y0026613D01*
X0082963Y0023465D02*
X0091991Y0023465D01*
X0090964Y0020317D02*
X0080050Y0020317D01*
X0080050Y0017169D02*
X0091377Y0017169D01*
X0093583Y0014021D02*
X0080050Y0014021D01*
X0098050Y0019575D02*
X0098050Y0027488D01*
X0100787Y0030224D01*
X0108700Y0030224D01*
X0108050Y0029575D01*
X0108050Y0026661D01*
X0108050Y0020317D02*
X0108050Y0020317D01*
X0108050Y0017169D02*
X0108050Y0017169D01*
X0108050Y0014021D02*
X0108050Y0014021D01*
X0105475Y0014021D02*
X0102518Y0014021D01*
X0110626Y0014021D02*
X0113583Y0014021D01*
X0118050Y0019575D02*
X0118050Y0027488D01*
X0120787Y0030224D01*
X0128700Y0030224D01*
X0128050Y0029575D01*
X0128050Y0026661D01*
X0128050Y0020317D02*
X0128050Y0020317D01*
X0128050Y0017169D02*
X0128050Y0017169D01*
X0128050Y0014021D02*
X0128050Y0014021D01*
X0125475Y0014021D02*
X0122518Y0014021D01*
X0130626Y0014021D02*
X0133583Y0014021D01*
X0138050Y0019575D02*
X0138700Y0020224D01*
X0138050Y0023374D01*
X0138050Y0027488D01*
X0140787Y0030224D01*
X0148700Y0030224D01*
X0148050Y0029575D01*
X0148050Y0026661D01*
X0148050Y0020317D02*
X0148050Y0020317D01*
X0148050Y0017169D02*
X0148050Y0017169D01*
X0148050Y0014021D02*
X0148050Y0014021D01*
X0150626Y0014021D02*
X0153583Y0014021D01*
X0158050Y0019575D02*
X0158700Y0020224D01*
X0158700Y0025224D01*
X0158700Y0026839D01*
X0158050Y0027488D01*
X0158700Y0026839D02*
X0158700Y0030224D01*
X0168700Y0030224D01*
X0168050Y0029575D01*
X0168050Y0026661D01*
X0173576Y0023465D02*
X0177214Y0023465D01*
X0176397Y0020317D02*
X0174127Y0020317D01*
X0174168Y0019575D02*
X0172615Y0019575D01*
X0172615Y0019575D01*
X0174168Y0019575D01*
X0173691Y0017169D02*
X0176566Y0017169D01*
X0177870Y0014021D02*
X0170626Y0014021D01*
X0168050Y0014021D02*
X0168050Y0014021D01*
X0165475Y0014021D02*
X0162518Y0014021D01*
X0168050Y0017169D02*
X0168050Y0017169D01*
X0168050Y0019575D02*
X0168050Y0019575D01*
X0174494Y0026613D02*
X0179398Y0026613D01*
X0175137Y0029761D02*
X0194507Y0029761D01*
X0194507Y0026613D02*
X0193081Y0026613D01*
X0194507Y0032909D02*
X0174340Y0032909D01*
X0170918Y0036057D02*
X0194507Y0036057D01*
X0194507Y0039206D02*
X0163562Y0039206D01*
X0163562Y0042354D02*
X0194507Y0042354D01*
X0194507Y0045502D02*
X0168173Y0045502D01*
X0171864Y0048650D02*
X0194507Y0048650D01*
X0194507Y0051798D02*
X0175012Y0051798D01*
X0178160Y0054946D02*
X0194507Y0054946D01*
X0194507Y0058094D02*
X0180857Y0058094D01*
X0181318Y0061242D02*
X0194507Y0061242D01*
X0194507Y0064391D02*
X0181318Y0064391D01*
X0181318Y0067539D02*
X0194507Y0067539D01*
X0194507Y0070687D02*
X0181318Y0070687D01*
X0186549Y0073835D02*
X0194507Y0073835D01*
X0194507Y0076983D02*
X0187343Y0076983D01*
X0191200Y0078457D02*
X0191200Y0084575D01*
X0191200Y0084575D01*
X0191200Y0087488D01*
X0191200Y0087488D01*
X0191200Y0084575D01*
X0191200Y0078457D01*
X0191200Y0080131D02*
X0191200Y0080131D01*
X0191200Y0083279D02*
X0191200Y0083279D01*
X0191200Y0084575D02*
X0191200Y0084575D01*
X0191200Y0086427D02*
X0191200Y0086427D01*
X0191200Y0087488D02*
X0191200Y0090693D01*
X0191200Y0093000D01*
X0191200Y0087488D01*
X0191200Y0087488D01*
X0191200Y0089575D02*
X0191200Y0089575D01*
X0191200Y0092724D02*
X0191200Y0092724D01*
X0191200Y0093000D02*
X0191200Y0093000D01*
X0191200Y0101661D02*
X0191200Y0104575D01*
X0191200Y0115224D01*
X0186200Y0120224D01*
X0158700Y0120224D01*
X0156200Y0122724D01*
X0156200Y0132724D01*
X0163050Y0139575D01*
X0163700Y0140224D01*
X0163700Y0145224D01*
X0168050Y0149575D01*
X0188050Y0149575D01*
X0182826Y0155686D02*
X0149385Y0155686D01*
X0149239Y0158834D02*
X0181580Y0158834D01*
X0181999Y0161982D02*
X0149385Y0161982D01*
X0149385Y0165130D02*
X0158088Y0165130D01*
X0157864Y0165190D02*
X0160425Y0164504D01*
X0163077Y0164504D01*
X0165638Y0165190D01*
X0167935Y0166516D01*
X0169810Y0168391D01*
X0171136Y0170688D01*
X0171822Y0173249D01*
X0171822Y0175901D01*
X0171136Y0178462D01*
X0169810Y0180758D01*
X0167935Y0182633D01*
X0165638Y0183959D01*
X0163077Y0184646D01*
X0160425Y0184646D01*
X0157864Y0183959D01*
X0155568Y0182633D01*
X0153692Y0180758D01*
X0152367Y0178462D01*
X0151680Y0175901D01*
X0151680Y0173249D01*
X0152367Y0170688D01*
X0153692Y0168391D01*
X0155568Y0166516D01*
X0157864Y0165190D01*
X0153805Y0168278D02*
X0148090Y0168278D01*
X0147236Y0171427D02*
X0152169Y0171427D01*
X0151680Y0174575D02*
X0144072Y0174575D01*
X0141200Y0170224D02*
X0128700Y0170224D01*
X0126200Y0167724D01*
X0126200Y0125224D01*
X0131200Y0120224D01*
X0131200Y0109575D01*
X0127319Y0102168D02*
X0123152Y0102168D01*
X0121200Y0102168D02*
X0121200Y0102168D01*
X0121200Y0101800D02*
X0121200Y0109575D01*
X0121200Y0109575D01*
X0121200Y0101800D01*
X0119248Y0102168D02*
X0109999Y0102168D01*
X0111486Y0105316D02*
X0116298Y0105316D01*
X0116025Y0108464D02*
X0111525Y0108464D01*
X0109834Y0111612D02*
X0116025Y0111612D01*
X0116710Y0114760D02*
X0084712Y0114760D01*
X0084712Y0117909D02*
X0115626Y0117909D01*
X0120475Y0117909D02*
X0126082Y0117909D01*
X0121200Y0114760D02*
X0121200Y0114760D01*
X0121200Y0111612D02*
X0121200Y0111612D01*
X0121200Y0108464D02*
X0121200Y0108464D01*
X0121200Y0105316D02*
X0121200Y0105316D01*
X0125257Y0099020D02*
X0109999Y0099020D01*
X0109999Y0095872D02*
X0122109Y0095872D01*
X0118961Y0092724D02*
X0109999Y0092724D01*
X0109999Y0089575D02*
X0116046Y0089575D01*
X0115432Y0086427D02*
X0109999Y0086427D01*
X0109999Y0083279D02*
X0112017Y0083279D01*
X0116200Y0080224D02*
X0120550Y0080224D01*
X0120550Y0087075D01*
X0131200Y0097724D01*
X0151200Y0097724D01*
X0156200Y0102724D01*
X0156200Y0122724D01*
X0155137Y0139575D02*
X0163050Y0139575D01*
X0158540Y0145087D02*
X0148133Y0145087D01*
X0148050Y0145052D01*
X0147968Y0145087D01*
X0137561Y0145087D01*
X0137065Y0145583D01*
X0134460Y0146661D01*
X0131318Y0149390D02*
X0160627Y0149390D01*
X0163775Y0152538D02*
X0148548Y0152538D01*
X0158582Y0146242D02*
X0158582Y0145128D01*
X0158540Y0145087D01*
X0142972Y0163906D02*
X0142972Y0168453D01*
X0141200Y0170224D01*
X0152169Y0177723D02*
X0123932Y0177723D01*
X0122296Y0180871D02*
X0153805Y0180871D01*
X0158087Y0184019D02*
X0118014Y0184019D01*
X0110685Y0184019D02*
X0080050Y0184019D01*
X0080050Y0187167D02*
X0177917Y0187167D01*
X0176600Y0190315D02*
X0080050Y0190315D01*
X0080050Y0193463D02*
X0176397Y0193463D01*
X0177180Y0196611D02*
X0080050Y0196611D01*
X0080050Y0199760D02*
X0179316Y0199760D01*
X0181631Y0184019D02*
X0165416Y0184019D01*
X0169697Y0180871D02*
X0194507Y0180871D01*
X0194507Y0177723D02*
X0171334Y0177723D01*
X0171822Y0174575D02*
X0194507Y0174575D01*
X0194507Y0171427D02*
X0171334Y0171427D01*
X0169697Y0168278D02*
X0194507Y0168278D01*
X0194507Y0165130D02*
X0191452Y0165130D01*
X0188050Y0165130D02*
X0188050Y0165130D01*
X0188050Y0161982D02*
X0188050Y0161982D01*
X0184649Y0165130D02*
X0165415Y0165130D01*
X0190847Y0184019D02*
X0194507Y0184019D01*
X0194507Y0161982D02*
X0194102Y0161982D01*
X0181200Y0109575D02*
X0181200Y0092724D01*
X0176200Y0087724D01*
X0176200Y0060224D01*
X0166200Y0050224D01*
X0158700Y0050224D01*
X0158050Y0049575D01*
X0153400Y0054946D02*
X0142701Y0054946D01*
X0144800Y0051798D02*
X0151301Y0051798D01*
X0150964Y0048650D02*
X0145137Y0048650D01*
X0143999Y0045502D02*
X0152101Y0045502D01*
X0152539Y0042354D02*
X0143562Y0042354D01*
X0143562Y0039206D02*
X0152539Y0039206D01*
X0152539Y0036057D02*
X0150918Y0036057D01*
X0145183Y0036057D02*
X0143562Y0036057D01*
X0132539Y0036057D02*
X0130918Y0036057D01*
X0132539Y0039206D02*
X0123562Y0039206D01*
X0123562Y0042354D02*
X0132539Y0042354D01*
X0132101Y0045502D02*
X0123999Y0045502D01*
X0125137Y0048650D02*
X0130964Y0048650D01*
X0131301Y0051798D02*
X0124800Y0051798D01*
X0122701Y0054946D02*
X0133400Y0054946D01*
X0124740Y0061242D02*
X0146085Y0061242D01*
X0150413Y0066937D02*
X0151200Y0067724D01*
X0151200Y0079575D01*
X0156530Y0070687D02*
X0171082Y0070687D01*
X0171082Y0067539D02*
X0157499Y0067539D01*
X0157028Y0064391D02*
X0171082Y0064391D01*
X0169980Y0061242D02*
X0154740Y0061242D01*
X0166832Y0058094D02*
X0085287Y0058094D01*
X0084305Y0054946D02*
X0093400Y0054946D01*
X0091301Y0051798D02*
X0083712Y0051798D01*
X0083712Y0048650D02*
X0090964Y0048650D01*
X0092101Y0045502D02*
X0083712Y0045502D01*
X0083712Y0042354D02*
X0092539Y0042354D01*
X0092539Y0039206D02*
X0083712Y0039206D01*
X0102701Y0054946D02*
X0113400Y0054946D01*
X0111301Y0051798D02*
X0104800Y0051798D01*
X0105137Y0048650D02*
X0110964Y0048650D01*
X0112101Y0045502D02*
X0103999Y0045502D01*
X0103562Y0042354D02*
X0112539Y0042354D01*
X0112539Y0039206D02*
X0103562Y0039206D01*
X0103562Y0036057D02*
X0105183Y0036057D01*
X0110918Y0036057D02*
X0112539Y0036057D01*
X0123562Y0036057D02*
X0125183Y0036057D01*
X0142518Y0014021D02*
X0145475Y0014021D01*
X0163562Y0036057D02*
X0165183Y0036057D01*
X0121200Y0067724D02*
X0120413Y0066937D01*
X0121200Y0067724D02*
X0121200Y0079575D01*
X0120550Y0080224D01*
X0116200Y0080224D02*
X0112913Y0076937D01*
X0104487Y0076937D01*
X0093700Y0076937D01*
X0086613Y0076983D02*
X0080050Y0076983D01*
X0080050Y0073835D02*
X0087314Y0073835D01*
X0090271Y0070687D02*
X0080050Y0070687D01*
X0080050Y0067539D02*
X0113326Y0067539D01*
X0114295Y0070687D02*
X0107916Y0070687D01*
X0101059Y0070687D02*
X0097129Y0070687D01*
X0087353Y0080131D02*
X0080050Y0080131D01*
X0080050Y0083279D02*
X0088188Y0083279D01*
X0088188Y0086427D02*
X0080050Y0086427D01*
X0080050Y0089575D02*
X0088188Y0089575D01*
X0088188Y0092724D02*
X0080050Y0092724D01*
X0080050Y0095872D02*
X0088188Y0095872D01*
X0088188Y0099020D02*
X0081532Y0099020D01*
X0085397Y0102168D02*
X0088188Y0102168D01*
X0086701Y0105316D02*
X0086287Y0105316D01*
X0086662Y0108464D02*
X0085736Y0108464D01*
X0084712Y0111612D02*
X0088353Y0111612D01*
X0084712Y0121057D02*
X0111837Y0121057D01*
X0110964Y0124205D02*
X0084712Y0124205D01*
X0084712Y0127353D02*
X0111531Y0127353D01*
X0112539Y0130501D02*
X0084712Y0130501D01*
X0086011Y0133649D02*
X0112679Y0133649D01*
X0113507Y0136797D02*
X0086287Y0136797D01*
X0085001Y0139945D02*
X0113507Y0139945D01*
X0112099Y0143093D02*
X0080050Y0143093D01*
X0080050Y0146242D02*
X0112159Y0146242D01*
X0114269Y0149390D02*
X0080050Y0149390D01*
X0080050Y0152538D02*
X0121082Y0152538D01*
X0118050Y0150693D02*
X0118050Y0144575D01*
X0118050Y0150693D01*
X0118050Y0149390D02*
X0118050Y0149390D01*
X0118050Y0146242D02*
X0118050Y0146242D01*
X0118050Y0144575D02*
X0118050Y0144575D01*
X0118050Y0144575D01*
X0118050Y0141662D01*
X0118050Y0141662D01*
X0118050Y0144575D01*
X0118050Y0143093D02*
X0118050Y0143093D01*
X0118050Y0141661D02*
X0118050Y0141661D01*
X0118050Y0136150D01*
X0118050Y0136150D01*
X0118050Y0141661D01*
X0118050Y0139945D02*
X0118050Y0139945D01*
X0118050Y0136797D02*
X0118050Y0136797D01*
X0133050Y0139575D02*
X0140964Y0139575D01*
X0121082Y0155686D02*
X0080050Y0155686D01*
X0080050Y0158834D02*
X0121082Y0158834D01*
X0121082Y0161982D02*
X0080050Y0161982D01*
X0080050Y0165130D02*
X0110686Y0165130D01*
X0106404Y0168278D02*
X0080050Y0168278D01*
X0080050Y0171427D02*
X0104767Y0171427D01*
X0104279Y0174575D02*
X0080050Y0174575D01*
X0080050Y0177723D02*
X0104767Y0177723D01*
X0106403Y0180871D02*
X0080050Y0180871D01*
X0118013Y0165130D02*
X0121082Y0165130D01*
X0124420Y0174575D02*
X0125828Y0174575D01*
X0079200Y0135724D02*
X0079200Y0127811D01*
X0073200Y0129724D02*
X0079200Y0135724D01*
X0073200Y0129724D02*
X0073200Y0119724D01*
X0070200Y0116724D01*
X0065200Y0116724D01*
X0099047Y0111612D02*
X0099141Y0111612D01*
X0113797Y0064391D02*
X0082556Y0064391D01*
X0084827Y0061242D02*
X0116085Y0061242D01*
D24*
X0120413Y0066937D02*
X0128326Y0066937D01*
X0142499Y0066937D02*
X0150413Y0066937D01*
X0158050Y0049575D02*
X0158050Y0041661D01*
X0138050Y0041661D02*
X0138050Y0049575D01*
X0118050Y0049575D02*
X0118050Y0041661D01*
X0098050Y0041661D02*
X0098050Y0049575D01*
X0093700Y0076937D02*
X0093700Y0084850D01*
X0104487Y0084850D02*
X0104487Y0076937D01*
X0104487Y0099024D02*
X0104487Y0106937D01*
X0093700Y0106937D02*
X0093700Y0099024D01*
X0118050Y0124575D02*
X0118050Y0127488D01*
D25*
X0085200Y0093724D02*
X0076200Y0093724D01*
X0072200Y0097724D01*
X0072200Y0104724D01*
X0070200Y0106724D01*
X0065200Y0106724D01*
X0065200Y0019724D02*
X0079200Y0019724D01*
X0085200Y0017724D01*
X0086200Y0016724D01*
D26*
X0065200Y0059724D02*
X0064200Y0059724D01*
X0060200Y0060724D01*
X0035192Y0060717D01*
X0015665Y0060717D01*
X0015665Y0080717D02*
X0044192Y0080717D01*
X0062200Y0080724D01*
X0065200Y0079724D01*
X0034058Y0131583D02*
X0015665Y0131583D01*
X0034058Y0131583D02*
X0048200Y0145724D01*
X0064200Y0145724D01*
X0065200Y0146724D01*
X0064200Y0165724D02*
X0065200Y0166724D01*
X0064200Y0165724D02*
X0045200Y0165724D01*
X0031058Y0151583D01*
X0015665Y0151583D01*
M02*
