%
M48
M72
T01C0.03150
T02C0.03200
T03C0.03740
T04C0.03937
T05C0.04724
T06C0.09055
T07C0.12598
%
T01
X65200Y19724
X65200Y29724
X78200Y28724
X98050Y19575
X108050Y19575
X108050Y29575
X118050Y19575
X128050Y19575
X128050Y29575
X138050Y19575
X148050Y19575
X148050Y29575
X158050Y19575
X168050Y19575
X168050Y29575
X158050Y49575
X150413Y66937
X138050Y49575
X120413Y66937
X118050Y49575
X98050Y49575
X78200Y58724
X65200Y59724
X65200Y79724
X79200Y105724
X65200Y106724
X65200Y116724
X79200Y135724
X65200Y146724
X65200Y166724
X118050Y144575
X133050Y139575
X118050Y124575
X104487Y106937
X93700Y106937
X93700Y76937
X104487Y76937
X163050Y139575
X191200Y104575
X191200Y84575
T02
X181200Y79575
X171200Y79575
X161200Y79575
X151200Y79575
X141200Y79575
X131200Y79575
X121200Y79575
X121200Y109575
X131200Y109575
X141200Y109575
X151200Y109575
X161200Y109575
X171200Y109575
X181200Y109575
T03
X142972Y156031
X142972Y163906
X133129Y163906
X133129Y156031
T04
X188050Y159575
X188050Y149575
X188050Y139575
X188050Y129575
T05
X15665Y131583
X15665Y151583
X15665Y80717
X15665Y60717
T06
X114350Y174575
X161751Y174575
T07
X13011Y19535
X13011Y192764
X186239Y192764
X186239Y19535
M30
