%
M48
M72
T01C0.01575
T02C0.03150
T03C0.03200
T04C0.03740
T05C0.03937
T06C0.09055
T07C0.12598
%
T01
X32575Y12575
X32575Y32575
X12575Y32575
X12575Y52575
X12575Y72575
X53126Y32654
X52575Y12575
X72575Y12575
X92575Y12575
X92575Y32575
X82575Y132575
X62575Y142575
X42575Y132575
X12575Y152575
X12575Y172575
X32575Y172575
X52575Y172575
X72575Y172575
X87575Y172575
X102575Y172575
X122575Y152575
X107575Y132575
X132575Y192575
X152575Y192575
X192575Y72575
X192575Y52575
X192575Y32575
T02
X27575Y67575
X27575Y97575
X27575Y112575
X17575Y112575
X17575Y142575
X27575Y142575
X52575Y160724
X72575Y160724
X122575Y142575
X137575Y137575
X122575Y122575
X107575Y102575
X97575Y102575
X97575Y72575
X107575Y72575
X122575Y62575
X122575Y47575
X142575Y47575
X152575Y62575
X162575Y47575
X172575Y27575
X172575Y17575
X162575Y17575
X152575Y17575
X152575Y27575
X142575Y17575
X132575Y17575
X132575Y27575
X122575Y17575
X112575Y17575
X112575Y27575
X102575Y17575
X102575Y47575
X167575Y137575
X192575Y102575
X192575Y82575
T03
X122575Y77575
X132575Y77575
X142575Y77575
X152575Y77575
X162575Y77575
X172575Y77575
X182575Y77575
X182575Y107575
X172575Y107575
X162575Y107575
X152575Y107575
X142575Y107575
X132575Y107575
X122575Y107575
T04
X137654Y161906
X137654Y154031
X147496Y154031
X147496Y161906
T05
X47575Y112575
X47575Y102575
X47575Y92575
X47575Y82575
X47575Y72575
X47575Y62575
X47575Y52575
X77575Y52575
X77575Y62575
X77575Y72575
X77575Y82575
X77575Y92575
X77575Y102575
X77575Y112575
X192575Y127575
X192575Y137575
X192575Y147575
X192575Y157575
T06
X118874Y172575
X166276Y172575
T07
X17535Y17535
X190764Y17535
X190764Y190764
X17535Y190764
M30
