G75*
%MOIN*%
%OFA0B0*%
%FSLAX25Y25*%
%IPPOS*%
%LPD*%
%AMOC8*
5,1,8,0,0,1.08239X$1,22.5*
%
%ADD10C,0.00000*%
%ADD11C,0.00900*%
%ADD12C,0.01200*%
%ADD13C,0.00800*%
%ADD14C,0.00600*%
%ADD15C,0.01000*%
%ADD16C,0.00500*%
%ADD17C,0.00787*%
%ADD18R,0.10000X0.05000*%
%ADD19C,0.01969*%
%ADD20C,0.00400*%
D10*
X0015764Y0017535D02*
X0015764Y0190764D01*
X0021276Y0190764D02*
X0021278Y0190922D01*
X0021284Y0191080D01*
X0021294Y0191238D01*
X0021308Y0191396D01*
X0021326Y0191553D01*
X0021347Y0191710D01*
X0021373Y0191866D01*
X0021403Y0192022D01*
X0021436Y0192177D01*
X0021474Y0192330D01*
X0021515Y0192483D01*
X0021560Y0192635D01*
X0021609Y0192786D01*
X0021662Y0192935D01*
X0021718Y0193083D01*
X0021778Y0193229D01*
X0021842Y0193374D01*
X0021910Y0193517D01*
X0021981Y0193659D01*
X0022055Y0193799D01*
X0022133Y0193936D01*
X0022215Y0194072D01*
X0022299Y0194206D01*
X0022388Y0194337D01*
X0022479Y0194466D01*
X0022574Y0194593D01*
X0022671Y0194718D01*
X0022772Y0194840D01*
X0022876Y0194959D01*
X0022983Y0195076D01*
X0023093Y0195190D01*
X0023206Y0195301D01*
X0023321Y0195410D01*
X0023439Y0195515D01*
X0023560Y0195617D01*
X0023683Y0195717D01*
X0023809Y0195813D01*
X0023937Y0195906D01*
X0024067Y0195996D01*
X0024200Y0196082D01*
X0024335Y0196166D01*
X0024471Y0196245D01*
X0024610Y0196322D01*
X0024751Y0196394D01*
X0024893Y0196464D01*
X0025037Y0196529D01*
X0025183Y0196591D01*
X0025330Y0196649D01*
X0025479Y0196704D01*
X0025629Y0196755D01*
X0025780Y0196802D01*
X0025932Y0196845D01*
X0026085Y0196884D01*
X0026240Y0196920D01*
X0026395Y0196951D01*
X0026551Y0196979D01*
X0026707Y0197003D01*
X0026864Y0197023D01*
X0027022Y0197039D01*
X0027179Y0197051D01*
X0027338Y0197059D01*
X0027496Y0197063D01*
X0027654Y0197063D01*
X0027812Y0197059D01*
X0027971Y0197051D01*
X0028128Y0197039D01*
X0028286Y0197023D01*
X0028443Y0197003D01*
X0028599Y0196979D01*
X0028755Y0196951D01*
X0028910Y0196920D01*
X0029065Y0196884D01*
X0029218Y0196845D01*
X0029370Y0196802D01*
X0029521Y0196755D01*
X0029671Y0196704D01*
X0029820Y0196649D01*
X0029967Y0196591D01*
X0030113Y0196529D01*
X0030257Y0196464D01*
X0030399Y0196394D01*
X0030540Y0196322D01*
X0030679Y0196245D01*
X0030815Y0196166D01*
X0030950Y0196082D01*
X0031083Y0195996D01*
X0031213Y0195906D01*
X0031341Y0195813D01*
X0031467Y0195717D01*
X0031590Y0195617D01*
X0031711Y0195515D01*
X0031829Y0195410D01*
X0031944Y0195301D01*
X0032057Y0195190D01*
X0032167Y0195076D01*
X0032274Y0194959D01*
X0032378Y0194840D01*
X0032479Y0194718D01*
X0032576Y0194593D01*
X0032671Y0194466D01*
X0032762Y0194337D01*
X0032851Y0194206D01*
X0032935Y0194072D01*
X0033017Y0193936D01*
X0033095Y0193799D01*
X0033169Y0193659D01*
X0033240Y0193517D01*
X0033308Y0193374D01*
X0033372Y0193229D01*
X0033432Y0193083D01*
X0033488Y0192935D01*
X0033541Y0192786D01*
X0033590Y0192635D01*
X0033635Y0192483D01*
X0033676Y0192330D01*
X0033714Y0192177D01*
X0033747Y0192022D01*
X0033777Y0191866D01*
X0033803Y0191710D01*
X0033824Y0191553D01*
X0033842Y0191396D01*
X0033856Y0191238D01*
X0033866Y0191080D01*
X0033872Y0190922D01*
X0033874Y0190764D01*
X0033872Y0190606D01*
X0033866Y0190448D01*
X0033856Y0190290D01*
X0033842Y0190132D01*
X0033824Y0189975D01*
X0033803Y0189818D01*
X0033777Y0189662D01*
X0033747Y0189506D01*
X0033714Y0189351D01*
X0033676Y0189198D01*
X0033635Y0189045D01*
X0033590Y0188893D01*
X0033541Y0188742D01*
X0033488Y0188593D01*
X0033432Y0188445D01*
X0033372Y0188299D01*
X0033308Y0188154D01*
X0033240Y0188011D01*
X0033169Y0187869D01*
X0033095Y0187729D01*
X0033017Y0187592D01*
X0032935Y0187456D01*
X0032851Y0187322D01*
X0032762Y0187191D01*
X0032671Y0187062D01*
X0032576Y0186935D01*
X0032479Y0186810D01*
X0032378Y0186688D01*
X0032274Y0186569D01*
X0032167Y0186452D01*
X0032057Y0186338D01*
X0031944Y0186227D01*
X0031829Y0186118D01*
X0031711Y0186013D01*
X0031590Y0185911D01*
X0031467Y0185811D01*
X0031341Y0185715D01*
X0031213Y0185622D01*
X0031083Y0185532D01*
X0030950Y0185446D01*
X0030815Y0185362D01*
X0030679Y0185283D01*
X0030540Y0185206D01*
X0030399Y0185134D01*
X0030257Y0185064D01*
X0030113Y0184999D01*
X0029967Y0184937D01*
X0029820Y0184879D01*
X0029671Y0184824D01*
X0029521Y0184773D01*
X0029370Y0184726D01*
X0029218Y0184683D01*
X0029065Y0184644D01*
X0028910Y0184608D01*
X0028755Y0184577D01*
X0028599Y0184549D01*
X0028443Y0184525D01*
X0028286Y0184505D01*
X0028128Y0184489D01*
X0027971Y0184477D01*
X0027812Y0184469D01*
X0027654Y0184465D01*
X0027496Y0184465D01*
X0027338Y0184469D01*
X0027179Y0184477D01*
X0027022Y0184489D01*
X0026864Y0184505D01*
X0026707Y0184525D01*
X0026551Y0184549D01*
X0026395Y0184577D01*
X0026240Y0184608D01*
X0026085Y0184644D01*
X0025932Y0184683D01*
X0025780Y0184726D01*
X0025629Y0184773D01*
X0025479Y0184824D01*
X0025330Y0184879D01*
X0025183Y0184937D01*
X0025037Y0184999D01*
X0024893Y0185064D01*
X0024751Y0185134D01*
X0024610Y0185206D01*
X0024471Y0185283D01*
X0024335Y0185362D01*
X0024200Y0185446D01*
X0024067Y0185532D01*
X0023937Y0185622D01*
X0023809Y0185715D01*
X0023683Y0185811D01*
X0023560Y0185911D01*
X0023439Y0186013D01*
X0023321Y0186118D01*
X0023206Y0186227D01*
X0023093Y0186338D01*
X0022983Y0186452D01*
X0022876Y0186569D01*
X0022772Y0186688D01*
X0022671Y0186810D01*
X0022574Y0186935D01*
X0022479Y0187062D01*
X0022388Y0187191D01*
X0022299Y0187322D01*
X0022215Y0187456D01*
X0022133Y0187592D01*
X0022055Y0187729D01*
X0021981Y0187869D01*
X0021910Y0188011D01*
X0021842Y0188154D01*
X0021778Y0188299D01*
X0021718Y0188445D01*
X0021662Y0188593D01*
X0021609Y0188742D01*
X0021560Y0188893D01*
X0021515Y0189045D01*
X0021474Y0189198D01*
X0021436Y0189351D01*
X0021403Y0189506D01*
X0021373Y0189662D01*
X0021347Y0189818D01*
X0021326Y0189975D01*
X0021308Y0190132D01*
X0021294Y0190290D01*
X0021284Y0190448D01*
X0021278Y0190606D01*
X0021276Y0190764D01*
X0015764Y0190764D02*
X0015767Y0191049D01*
X0015778Y0191335D01*
X0015795Y0191620D01*
X0015819Y0191904D01*
X0015850Y0192188D01*
X0015888Y0192471D01*
X0015933Y0192752D01*
X0015984Y0193033D01*
X0016042Y0193313D01*
X0016107Y0193591D01*
X0016179Y0193867D01*
X0016257Y0194141D01*
X0016342Y0194414D01*
X0016434Y0194684D01*
X0016532Y0194952D01*
X0016636Y0195218D01*
X0016747Y0195481D01*
X0016864Y0195741D01*
X0016987Y0195999D01*
X0017117Y0196253D01*
X0017253Y0196504D01*
X0017394Y0196752D01*
X0017542Y0196996D01*
X0017695Y0197237D01*
X0017855Y0197473D01*
X0018020Y0197706D01*
X0018190Y0197935D01*
X0018366Y0198160D01*
X0018548Y0198380D01*
X0018734Y0198596D01*
X0018926Y0198807D01*
X0019123Y0199014D01*
X0019325Y0199216D01*
X0019532Y0199413D01*
X0019743Y0199605D01*
X0019959Y0199791D01*
X0020179Y0199973D01*
X0020404Y0200149D01*
X0020633Y0200319D01*
X0020866Y0200484D01*
X0021102Y0200644D01*
X0021343Y0200797D01*
X0021587Y0200945D01*
X0021835Y0201086D01*
X0022086Y0201222D01*
X0022340Y0201352D01*
X0022598Y0201475D01*
X0022858Y0201592D01*
X0023121Y0201703D01*
X0023387Y0201807D01*
X0023655Y0201905D01*
X0023925Y0201997D01*
X0024198Y0202082D01*
X0024472Y0202160D01*
X0024748Y0202232D01*
X0025026Y0202297D01*
X0025306Y0202355D01*
X0025587Y0202406D01*
X0025868Y0202451D01*
X0026151Y0202489D01*
X0026435Y0202520D01*
X0026719Y0202544D01*
X0027004Y0202561D01*
X0027290Y0202572D01*
X0027575Y0202575D01*
X0200803Y0202575D01*
X0194504Y0190764D02*
X0194506Y0190922D01*
X0194512Y0191080D01*
X0194522Y0191238D01*
X0194536Y0191396D01*
X0194554Y0191553D01*
X0194575Y0191710D01*
X0194601Y0191866D01*
X0194631Y0192022D01*
X0194664Y0192177D01*
X0194702Y0192330D01*
X0194743Y0192483D01*
X0194788Y0192635D01*
X0194837Y0192786D01*
X0194890Y0192935D01*
X0194946Y0193083D01*
X0195006Y0193229D01*
X0195070Y0193374D01*
X0195138Y0193517D01*
X0195209Y0193659D01*
X0195283Y0193799D01*
X0195361Y0193936D01*
X0195443Y0194072D01*
X0195527Y0194206D01*
X0195616Y0194337D01*
X0195707Y0194466D01*
X0195802Y0194593D01*
X0195899Y0194718D01*
X0196000Y0194840D01*
X0196104Y0194959D01*
X0196211Y0195076D01*
X0196321Y0195190D01*
X0196434Y0195301D01*
X0196549Y0195410D01*
X0196667Y0195515D01*
X0196788Y0195617D01*
X0196911Y0195717D01*
X0197037Y0195813D01*
X0197165Y0195906D01*
X0197295Y0195996D01*
X0197428Y0196082D01*
X0197563Y0196166D01*
X0197699Y0196245D01*
X0197838Y0196322D01*
X0197979Y0196394D01*
X0198121Y0196464D01*
X0198265Y0196529D01*
X0198411Y0196591D01*
X0198558Y0196649D01*
X0198707Y0196704D01*
X0198857Y0196755D01*
X0199008Y0196802D01*
X0199160Y0196845D01*
X0199313Y0196884D01*
X0199468Y0196920D01*
X0199623Y0196951D01*
X0199779Y0196979D01*
X0199935Y0197003D01*
X0200092Y0197023D01*
X0200250Y0197039D01*
X0200407Y0197051D01*
X0200566Y0197059D01*
X0200724Y0197063D01*
X0200882Y0197063D01*
X0201040Y0197059D01*
X0201199Y0197051D01*
X0201356Y0197039D01*
X0201514Y0197023D01*
X0201671Y0197003D01*
X0201827Y0196979D01*
X0201983Y0196951D01*
X0202138Y0196920D01*
X0202293Y0196884D01*
X0202446Y0196845D01*
X0202598Y0196802D01*
X0202749Y0196755D01*
X0202899Y0196704D01*
X0203048Y0196649D01*
X0203195Y0196591D01*
X0203341Y0196529D01*
X0203485Y0196464D01*
X0203627Y0196394D01*
X0203768Y0196322D01*
X0203907Y0196245D01*
X0204043Y0196166D01*
X0204178Y0196082D01*
X0204311Y0195996D01*
X0204441Y0195906D01*
X0204569Y0195813D01*
X0204695Y0195717D01*
X0204818Y0195617D01*
X0204939Y0195515D01*
X0205057Y0195410D01*
X0205172Y0195301D01*
X0205285Y0195190D01*
X0205395Y0195076D01*
X0205502Y0194959D01*
X0205606Y0194840D01*
X0205707Y0194718D01*
X0205804Y0194593D01*
X0205899Y0194466D01*
X0205990Y0194337D01*
X0206079Y0194206D01*
X0206163Y0194072D01*
X0206245Y0193936D01*
X0206323Y0193799D01*
X0206397Y0193659D01*
X0206468Y0193517D01*
X0206536Y0193374D01*
X0206600Y0193229D01*
X0206660Y0193083D01*
X0206716Y0192935D01*
X0206769Y0192786D01*
X0206818Y0192635D01*
X0206863Y0192483D01*
X0206904Y0192330D01*
X0206942Y0192177D01*
X0206975Y0192022D01*
X0207005Y0191866D01*
X0207031Y0191710D01*
X0207052Y0191553D01*
X0207070Y0191396D01*
X0207084Y0191238D01*
X0207094Y0191080D01*
X0207100Y0190922D01*
X0207102Y0190764D01*
X0207100Y0190606D01*
X0207094Y0190448D01*
X0207084Y0190290D01*
X0207070Y0190132D01*
X0207052Y0189975D01*
X0207031Y0189818D01*
X0207005Y0189662D01*
X0206975Y0189506D01*
X0206942Y0189351D01*
X0206904Y0189198D01*
X0206863Y0189045D01*
X0206818Y0188893D01*
X0206769Y0188742D01*
X0206716Y0188593D01*
X0206660Y0188445D01*
X0206600Y0188299D01*
X0206536Y0188154D01*
X0206468Y0188011D01*
X0206397Y0187869D01*
X0206323Y0187729D01*
X0206245Y0187592D01*
X0206163Y0187456D01*
X0206079Y0187322D01*
X0205990Y0187191D01*
X0205899Y0187062D01*
X0205804Y0186935D01*
X0205707Y0186810D01*
X0205606Y0186688D01*
X0205502Y0186569D01*
X0205395Y0186452D01*
X0205285Y0186338D01*
X0205172Y0186227D01*
X0205057Y0186118D01*
X0204939Y0186013D01*
X0204818Y0185911D01*
X0204695Y0185811D01*
X0204569Y0185715D01*
X0204441Y0185622D01*
X0204311Y0185532D01*
X0204178Y0185446D01*
X0204043Y0185362D01*
X0203907Y0185283D01*
X0203768Y0185206D01*
X0203627Y0185134D01*
X0203485Y0185064D01*
X0203341Y0184999D01*
X0203195Y0184937D01*
X0203048Y0184879D01*
X0202899Y0184824D01*
X0202749Y0184773D01*
X0202598Y0184726D01*
X0202446Y0184683D01*
X0202293Y0184644D01*
X0202138Y0184608D01*
X0201983Y0184577D01*
X0201827Y0184549D01*
X0201671Y0184525D01*
X0201514Y0184505D01*
X0201356Y0184489D01*
X0201199Y0184477D01*
X0201040Y0184469D01*
X0200882Y0184465D01*
X0200724Y0184465D01*
X0200566Y0184469D01*
X0200407Y0184477D01*
X0200250Y0184489D01*
X0200092Y0184505D01*
X0199935Y0184525D01*
X0199779Y0184549D01*
X0199623Y0184577D01*
X0199468Y0184608D01*
X0199313Y0184644D01*
X0199160Y0184683D01*
X0199008Y0184726D01*
X0198857Y0184773D01*
X0198707Y0184824D01*
X0198558Y0184879D01*
X0198411Y0184937D01*
X0198265Y0184999D01*
X0198121Y0185064D01*
X0197979Y0185134D01*
X0197838Y0185206D01*
X0197699Y0185283D01*
X0197563Y0185362D01*
X0197428Y0185446D01*
X0197295Y0185532D01*
X0197165Y0185622D01*
X0197037Y0185715D01*
X0196911Y0185811D01*
X0196788Y0185911D01*
X0196667Y0186013D01*
X0196549Y0186118D01*
X0196434Y0186227D01*
X0196321Y0186338D01*
X0196211Y0186452D01*
X0196104Y0186569D01*
X0196000Y0186688D01*
X0195899Y0186810D01*
X0195802Y0186935D01*
X0195707Y0187062D01*
X0195616Y0187191D01*
X0195527Y0187322D01*
X0195443Y0187456D01*
X0195361Y0187592D01*
X0195283Y0187729D01*
X0195209Y0187869D01*
X0195138Y0188011D01*
X0195070Y0188154D01*
X0195006Y0188299D01*
X0194946Y0188445D01*
X0194890Y0188593D01*
X0194837Y0188742D01*
X0194788Y0188893D01*
X0194743Y0189045D01*
X0194702Y0189198D01*
X0194664Y0189351D01*
X0194631Y0189506D01*
X0194601Y0189662D01*
X0194575Y0189818D01*
X0194554Y0189975D01*
X0194536Y0190132D01*
X0194522Y0190290D01*
X0194512Y0190448D01*
X0194506Y0190606D01*
X0194504Y0190764D01*
X0200803Y0202575D02*
X0201088Y0202572D01*
X0201374Y0202561D01*
X0201659Y0202544D01*
X0201943Y0202520D01*
X0202227Y0202489D01*
X0202510Y0202451D01*
X0202791Y0202406D01*
X0203072Y0202355D01*
X0203352Y0202297D01*
X0203630Y0202232D01*
X0203906Y0202160D01*
X0204180Y0202082D01*
X0204453Y0201997D01*
X0204723Y0201905D01*
X0204991Y0201807D01*
X0205257Y0201703D01*
X0205520Y0201592D01*
X0205780Y0201475D01*
X0206038Y0201352D01*
X0206292Y0201222D01*
X0206543Y0201086D01*
X0206791Y0200945D01*
X0207035Y0200797D01*
X0207276Y0200644D01*
X0207512Y0200484D01*
X0207745Y0200319D01*
X0207974Y0200149D01*
X0208199Y0199973D01*
X0208419Y0199791D01*
X0208635Y0199605D01*
X0208846Y0199413D01*
X0209053Y0199216D01*
X0209255Y0199014D01*
X0209452Y0198807D01*
X0209644Y0198596D01*
X0209830Y0198380D01*
X0210012Y0198160D01*
X0210188Y0197935D01*
X0210358Y0197706D01*
X0210523Y0197473D01*
X0210683Y0197237D01*
X0210836Y0196996D01*
X0210984Y0196752D01*
X0211125Y0196504D01*
X0211261Y0196253D01*
X0211391Y0195999D01*
X0211514Y0195741D01*
X0211631Y0195481D01*
X0211742Y0195218D01*
X0211846Y0194952D01*
X0211944Y0194684D01*
X0212036Y0194414D01*
X0212121Y0194141D01*
X0212199Y0193867D01*
X0212271Y0193591D01*
X0212336Y0193313D01*
X0212394Y0193033D01*
X0212445Y0192752D01*
X0212490Y0192471D01*
X0212528Y0192188D01*
X0212559Y0191904D01*
X0212583Y0191620D01*
X0212600Y0191335D01*
X0212611Y0191049D01*
X0212614Y0190764D01*
X0212614Y0017535D01*
X0194504Y0017535D02*
X0194506Y0017693D01*
X0194512Y0017851D01*
X0194522Y0018009D01*
X0194536Y0018167D01*
X0194554Y0018324D01*
X0194575Y0018481D01*
X0194601Y0018637D01*
X0194631Y0018793D01*
X0194664Y0018948D01*
X0194702Y0019101D01*
X0194743Y0019254D01*
X0194788Y0019406D01*
X0194837Y0019557D01*
X0194890Y0019706D01*
X0194946Y0019854D01*
X0195006Y0020000D01*
X0195070Y0020145D01*
X0195138Y0020288D01*
X0195209Y0020430D01*
X0195283Y0020570D01*
X0195361Y0020707D01*
X0195443Y0020843D01*
X0195527Y0020977D01*
X0195616Y0021108D01*
X0195707Y0021237D01*
X0195802Y0021364D01*
X0195899Y0021489D01*
X0196000Y0021611D01*
X0196104Y0021730D01*
X0196211Y0021847D01*
X0196321Y0021961D01*
X0196434Y0022072D01*
X0196549Y0022181D01*
X0196667Y0022286D01*
X0196788Y0022388D01*
X0196911Y0022488D01*
X0197037Y0022584D01*
X0197165Y0022677D01*
X0197295Y0022767D01*
X0197428Y0022853D01*
X0197563Y0022937D01*
X0197699Y0023016D01*
X0197838Y0023093D01*
X0197979Y0023165D01*
X0198121Y0023235D01*
X0198265Y0023300D01*
X0198411Y0023362D01*
X0198558Y0023420D01*
X0198707Y0023475D01*
X0198857Y0023526D01*
X0199008Y0023573D01*
X0199160Y0023616D01*
X0199313Y0023655D01*
X0199468Y0023691D01*
X0199623Y0023722D01*
X0199779Y0023750D01*
X0199935Y0023774D01*
X0200092Y0023794D01*
X0200250Y0023810D01*
X0200407Y0023822D01*
X0200566Y0023830D01*
X0200724Y0023834D01*
X0200882Y0023834D01*
X0201040Y0023830D01*
X0201199Y0023822D01*
X0201356Y0023810D01*
X0201514Y0023794D01*
X0201671Y0023774D01*
X0201827Y0023750D01*
X0201983Y0023722D01*
X0202138Y0023691D01*
X0202293Y0023655D01*
X0202446Y0023616D01*
X0202598Y0023573D01*
X0202749Y0023526D01*
X0202899Y0023475D01*
X0203048Y0023420D01*
X0203195Y0023362D01*
X0203341Y0023300D01*
X0203485Y0023235D01*
X0203627Y0023165D01*
X0203768Y0023093D01*
X0203907Y0023016D01*
X0204043Y0022937D01*
X0204178Y0022853D01*
X0204311Y0022767D01*
X0204441Y0022677D01*
X0204569Y0022584D01*
X0204695Y0022488D01*
X0204818Y0022388D01*
X0204939Y0022286D01*
X0205057Y0022181D01*
X0205172Y0022072D01*
X0205285Y0021961D01*
X0205395Y0021847D01*
X0205502Y0021730D01*
X0205606Y0021611D01*
X0205707Y0021489D01*
X0205804Y0021364D01*
X0205899Y0021237D01*
X0205990Y0021108D01*
X0206079Y0020977D01*
X0206163Y0020843D01*
X0206245Y0020707D01*
X0206323Y0020570D01*
X0206397Y0020430D01*
X0206468Y0020288D01*
X0206536Y0020145D01*
X0206600Y0020000D01*
X0206660Y0019854D01*
X0206716Y0019706D01*
X0206769Y0019557D01*
X0206818Y0019406D01*
X0206863Y0019254D01*
X0206904Y0019101D01*
X0206942Y0018948D01*
X0206975Y0018793D01*
X0207005Y0018637D01*
X0207031Y0018481D01*
X0207052Y0018324D01*
X0207070Y0018167D01*
X0207084Y0018009D01*
X0207094Y0017851D01*
X0207100Y0017693D01*
X0207102Y0017535D01*
X0207100Y0017377D01*
X0207094Y0017219D01*
X0207084Y0017061D01*
X0207070Y0016903D01*
X0207052Y0016746D01*
X0207031Y0016589D01*
X0207005Y0016433D01*
X0206975Y0016277D01*
X0206942Y0016122D01*
X0206904Y0015969D01*
X0206863Y0015816D01*
X0206818Y0015664D01*
X0206769Y0015513D01*
X0206716Y0015364D01*
X0206660Y0015216D01*
X0206600Y0015070D01*
X0206536Y0014925D01*
X0206468Y0014782D01*
X0206397Y0014640D01*
X0206323Y0014500D01*
X0206245Y0014363D01*
X0206163Y0014227D01*
X0206079Y0014093D01*
X0205990Y0013962D01*
X0205899Y0013833D01*
X0205804Y0013706D01*
X0205707Y0013581D01*
X0205606Y0013459D01*
X0205502Y0013340D01*
X0205395Y0013223D01*
X0205285Y0013109D01*
X0205172Y0012998D01*
X0205057Y0012889D01*
X0204939Y0012784D01*
X0204818Y0012682D01*
X0204695Y0012582D01*
X0204569Y0012486D01*
X0204441Y0012393D01*
X0204311Y0012303D01*
X0204178Y0012217D01*
X0204043Y0012133D01*
X0203907Y0012054D01*
X0203768Y0011977D01*
X0203627Y0011905D01*
X0203485Y0011835D01*
X0203341Y0011770D01*
X0203195Y0011708D01*
X0203048Y0011650D01*
X0202899Y0011595D01*
X0202749Y0011544D01*
X0202598Y0011497D01*
X0202446Y0011454D01*
X0202293Y0011415D01*
X0202138Y0011379D01*
X0201983Y0011348D01*
X0201827Y0011320D01*
X0201671Y0011296D01*
X0201514Y0011276D01*
X0201356Y0011260D01*
X0201199Y0011248D01*
X0201040Y0011240D01*
X0200882Y0011236D01*
X0200724Y0011236D01*
X0200566Y0011240D01*
X0200407Y0011248D01*
X0200250Y0011260D01*
X0200092Y0011276D01*
X0199935Y0011296D01*
X0199779Y0011320D01*
X0199623Y0011348D01*
X0199468Y0011379D01*
X0199313Y0011415D01*
X0199160Y0011454D01*
X0199008Y0011497D01*
X0198857Y0011544D01*
X0198707Y0011595D01*
X0198558Y0011650D01*
X0198411Y0011708D01*
X0198265Y0011770D01*
X0198121Y0011835D01*
X0197979Y0011905D01*
X0197838Y0011977D01*
X0197699Y0012054D01*
X0197563Y0012133D01*
X0197428Y0012217D01*
X0197295Y0012303D01*
X0197165Y0012393D01*
X0197037Y0012486D01*
X0196911Y0012582D01*
X0196788Y0012682D01*
X0196667Y0012784D01*
X0196549Y0012889D01*
X0196434Y0012998D01*
X0196321Y0013109D01*
X0196211Y0013223D01*
X0196104Y0013340D01*
X0196000Y0013459D01*
X0195899Y0013581D01*
X0195802Y0013706D01*
X0195707Y0013833D01*
X0195616Y0013962D01*
X0195527Y0014093D01*
X0195443Y0014227D01*
X0195361Y0014363D01*
X0195283Y0014500D01*
X0195209Y0014640D01*
X0195138Y0014782D01*
X0195070Y0014925D01*
X0195006Y0015070D01*
X0194946Y0015216D01*
X0194890Y0015364D01*
X0194837Y0015513D01*
X0194788Y0015664D01*
X0194743Y0015816D01*
X0194702Y0015969D01*
X0194664Y0016122D01*
X0194631Y0016277D01*
X0194601Y0016433D01*
X0194575Y0016589D01*
X0194554Y0016746D01*
X0194536Y0016903D01*
X0194522Y0017061D01*
X0194512Y0017219D01*
X0194506Y0017377D01*
X0194504Y0017535D01*
X0200803Y0005724D02*
X0201088Y0005727D01*
X0201374Y0005738D01*
X0201659Y0005755D01*
X0201943Y0005779D01*
X0202227Y0005810D01*
X0202510Y0005848D01*
X0202791Y0005893D01*
X0203072Y0005944D01*
X0203352Y0006002D01*
X0203630Y0006067D01*
X0203906Y0006139D01*
X0204180Y0006217D01*
X0204453Y0006302D01*
X0204723Y0006394D01*
X0204991Y0006492D01*
X0205257Y0006596D01*
X0205520Y0006707D01*
X0205780Y0006824D01*
X0206038Y0006947D01*
X0206292Y0007077D01*
X0206543Y0007213D01*
X0206791Y0007354D01*
X0207035Y0007502D01*
X0207276Y0007655D01*
X0207512Y0007815D01*
X0207745Y0007980D01*
X0207974Y0008150D01*
X0208199Y0008326D01*
X0208419Y0008508D01*
X0208635Y0008694D01*
X0208846Y0008886D01*
X0209053Y0009083D01*
X0209255Y0009285D01*
X0209452Y0009492D01*
X0209644Y0009703D01*
X0209830Y0009919D01*
X0210012Y0010139D01*
X0210188Y0010364D01*
X0210358Y0010593D01*
X0210523Y0010826D01*
X0210683Y0011062D01*
X0210836Y0011303D01*
X0210984Y0011547D01*
X0211125Y0011795D01*
X0211261Y0012046D01*
X0211391Y0012300D01*
X0211514Y0012558D01*
X0211631Y0012818D01*
X0211742Y0013081D01*
X0211846Y0013347D01*
X0211944Y0013615D01*
X0212036Y0013885D01*
X0212121Y0014158D01*
X0212199Y0014432D01*
X0212271Y0014708D01*
X0212336Y0014986D01*
X0212394Y0015266D01*
X0212445Y0015547D01*
X0212490Y0015828D01*
X0212528Y0016111D01*
X0212559Y0016395D01*
X0212583Y0016679D01*
X0212600Y0016964D01*
X0212611Y0017250D01*
X0212614Y0017535D01*
X0200803Y0005724D02*
X0027575Y0005724D01*
X0021276Y0017535D02*
X0021278Y0017693D01*
X0021284Y0017851D01*
X0021294Y0018009D01*
X0021308Y0018167D01*
X0021326Y0018324D01*
X0021347Y0018481D01*
X0021373Y0018637D01*
X0021403Y0018793D01*
X0021436Y0018948D01*
X0021474Y0019101D01*
X0021515Y0019254D01*
X0021560Y0019406D01*
X0021609Y0019557D01*
X0021662Y0019706D01*
X0021718Y0019854D01*
X0021778Y0020000D01*
X0021842Y0020145D01*
X0021910Y0020288D01*
X0021981Y0020430D01*
X0022055Y0020570D01*
X0022133Y0020707D01*
X0022215Y0020843D01*
X0022299Y0020977D01*
X0022388Y0021108D01*
X0022479Y0021237D01*
X0022574Y0021364D01*
X0022671Y0021489D01*
X0022772Y0021611D01*
X0022876Y0021730D01*
X0022983Y0021847D01*
X0023093Y0021961D01*
X0023206Y0022072D01*
X0023321Y0022181D01*
X0023439Y0022286D01*
X0023560Y0022388D01*
X0023683Y0022488D01*
X0023809Y0022584D01*
X0023937Y0022677D01*
X0024067Y0022767D01*
X0024200Y0022853D01*
X0024335Y0022937D01*
X0024471Y0023016D01*
X0024610Y0023093D01*
X0024751Y0023165D01*
X0024893Y0023235D01*
X0025037Y0023300D01*
X0025183Y0023362D01*
X0025330Y0023420D01*
X0025479Y0023475D01*
X0025629Y0023526D01*
X0025780Y0023573D01*
X0025932Y0023616D01*
X0026085Y0023655D01*
X0026240Y0023691D01*
X0026395Y0023722D01*
X0026551Y0023750D01*
X0026707Y0023774D01*
X0026864Y0023794D01*
X0027022Y0023810D01*
X0027179Y0023822D01*
X0027338Y0023830D01*
X0027496Y0023834D01*
X0027654Y0023834D01*
X0027812Y0023830D01*
X0027971Y0023822D01*
X0028128Y0023810D01*
X0028286Y0023794D01*
X0028443Y0023774D01*
X0028599Y0023750D01*
X0028755Y0023722D01*
X0028910Y0023691D01*
X0029065Y0023655D01*
X0029218Y0023616D01*
X0029370Y0023573D01*
X0029521Y0023526D01*
X0029671Y0023475D01*
X0029820Y0023420D01*
X0029967Y0023362D01*
X0030113Y0023300D01*
X0030257Y0023235D01*
X0030399Y0023165D01*
X0030540Y0023093D01*
X0030679Y0023016D01*
X0030815Y0022937D01*
X0030950Y0022853D01*
X0031083Y0022767D01*
X0031213Y0022677D01*
X0031341Y0022584D01*
X0031467Y0022488D01*
X0031590Y0022388D01*
X0031711Y0022286D01*
X0031829Y0022181D01*
X0031944Y0022072D01*
X0032057Y0021961D01*
X0032167Y0021847D01*
X0032274Y0021730D01*
X0032378Y0021611D01*
X0032479Y0021489D01*
X0032576Y0021364D01*
X0032671Y0021237D01*
X0032762Y0021108D01*
X0032851Y0020977D01*
X0032935Y0020843D01*
X0033017Y0020707D01*
X0033095Y0020570D01*
X0033169Y0020430D01*
X0033240Y0020288D01*
X0033308Y0020145D01*
X0033372Y0020000D01*
X0033432Y0019854D01*
X0033488Y0019706D01*
X0033541Y0019557D01*
X0033590Y0019406D01*
X0033635Y0019254D01*
X0033676Y0019101D01*
X0033714Y0018948D01*
X0033747Y0018793D01*
X0033777Y0018637D01*
X0033803Y0018481D01*
X0033824Y0018324D01*
X0033842Y0018167D01*
X0033856Y0018009D01*
X0033866Y0017851D01*
X0033872Y0017693D01*
X0033874Y0017535D01*
X0033872Y0017377D01*
X0033866Y0017219D01*
X0033856Y0017061D01*
X0033842Y0016903D01*
X0033824Y0016746D01*
X0033803Y0016589D01*
X0033777Y0016433D01*
X0033747Y0016277D01*
X0033714Y0016122D01*
X0033676Y0015969D01*
X0033635Y0015816D01*
X0033590Y0015664D01*
X0033541Y0015513D01*
X0033488Y0015364D01*
X0033432Y0015216D01*
X0033372Y0015070D01*
X0033308Y0014925D01*
X0033240Y0014782D01*
X0033169Y0014640D01*
X0033095Y0014500D01*
X0033017Y0014363D01*
X0032935Y0014227D01*
X0032851Y0014093D01*
X0032762Y0013962D01*
X0032671Y0013833D01*
X0032576Y0013706D01*
X0032479Y0013581D01*
X0032378Y0013459D01*
X0032274Y0013340D01*
X0032167Y0013223D01*
X0032057Y0013109D01*
X0031944Y0012998D01*
X0031829Y0012889D01*
X0031711Y0012784D01*
X0031590Y0012682D01*
X0031467Y0012582D01*
X0031341Y0012486D01*
X0031213Y0012393D01*
X0031083Y0012303D01*
X0030950Y0012217D01*
X0030815Y0012133D01*
X0030679Y0012054D01*
X0030540Y0011977D01*
X0030399Y0011905D01*
X0030257Y0011835D01*
X0030113Y0011770D01*
X0029967Y0011708D01*
X0029820Y0011650D01*
X0029671Y0011595D01*
X0029521Y0011544D01*
X0029370Y0011497D01*
X0029218Y0011454D01*
X0029065Y0011415D01*
X0028910Y0011379D01*
X0028755Y0011348D01*
X0028599Y0011320D01*
X0028443Y0011296D01*
X0028286Y0011276D01*
X0028128Y0011260D01*
X0027971Y0011248D01*
X0027812Y0011240D01*
X0027654Y0011236D01*
X0027496Y0011236D01*
X0027338Y0011240D01*
X0027179Y0011248D01*
X0027022Y0011260D01*
X0026864Y0011276D01*
X0026707Y0011296D01*
X0026551Y0011320D01*
X0026395Y0011348D01*
X0026240Y0011379D01*
X0026085Y0011415D01*
X0025932Y0011454D01*
X0025780Y0011497D01*
X0025629Y0011544D01*
X0025479Y0011595D01*
X0025330Y0011650D01*
X0025183Y0011708D01*
X0025037Y0011770D01*
X0024893Y0011835D01*
X0024751Y0011905D01*
X0024610Y0011977D01*
X0024471Y0012054D01*
X0024335Y0012133D01*
X0024200Y0012217D01*
X0024067Y0012303D01*
X0023937Y0012393D01*
X0023809Y0012486D01*
X0023683Y0012582D01*
X0023560Y0012682D01*
X0023439Y0012784D01*
X0023321Y0012889D01*
X0023206Y0012998D01*
X0023093Y0013109D01*
X0022983Y0013223D01*
X0022876Y0013340D01*
X0022772Y0013459D01*
X0022671Y0013581D01*
X0022574Y0013706D01*
X0022479Y0013833D01*
X0022388Y0013962D01*
X0022299Y0014093D01*
X0022215Y0014227D01*
X0022133Y0014363D01*
X0022055Y0014500D01*
X0021981Y0014640D01*
X0021910Y0014782D01*
X0021842Y0014925D01*
X0021778Y0015070D01*
X0021718Y0015216D01*
X0021662Y0015364D01*
X0021609Y0015513D01*
X0021560Y0015664D01*
X0021515Y0015816D01*
X0021474Y0015969D01*
X0021436Y0016122D01*
X0021403Y0016277D01*
X0021373Y0016433D01*
X0021347Y0016589D01*
X0021326Y0016746D01*
X0021308Y0016903D01*
X0021294Y0017061D01*
X0021284Y0017219D01*
X0021278Y0017377D01*
X0021276Y0017535D01*
X0015764Y0017535D02*
X0015767Y0017250D01*
X0015778Y0016964D01*
X0015795Y0016679D01*
X0015819Y0016395D01*
X0015850Y0016111D01*
X0015888Y0015828D01*
X0015933Y0015547D01*
X0015984Y0015266D01*
X0016042Y0014986D01*
X0016107Y0014708D01*
X0016179Y0014432D01*
X0016257Y0014158D01*
X0016342Y0013885D01*
X0016434Y0013615D01*
X0016532Y0013347D01*
X0016636Y0013081D01*
X0016747Y0012818D01*
X0016864Y0012558D01*
X0016987Y0012300D01*
X0017117Y0012046D01*
X0017253Y0011795D01*
X0017394Y0011547D01*
X0017542Y0011303D01*
X0017695Y0011062D01*
X0017855Y0010826D01*
X0018020Y0010593D01*
X0018190Y0010364D01*
X0018366Y0010139D01*
X0018548Y0009919D01*
X0018734Y0009703D01*
X0018926Y0009492D01*
X0019123Y0009285D01*
X0019325Y0009083D01*
X0019532Y0008886D01*
X0019743Y0008694D01*
X0019959Y0008508D01*
X0020179Y0008326D01*
X0020404Y0008150D01*
X0020633Y0007980D01*
X0020866Y0007815D01*
X0021102Y0007655D01*
X0021343Y0007502D01*
X0021587Y0007354D01*
X0021835Y0007213D01*
X0022086Y0007077D01*
X0022340Y0006947D01*
X0022598Y0006824D01*
X0022858Y0006707D01*
X0023121Y0006596D01*
X0023387Y0006492D01*
X0023655Y0006394D01*
X0023925Y0006302D01*
X0024198Y0006217D01*
X0024472Y0006139D01*
X0024748Y0006067D01*
X0025026Y0006002D01*
X0025306Y0005944D01*
X0025587Y0005893D01*
X0025868Y0005848D01*
X0026151Y0005810D01*
X0026435Y0005779D01*
X0026719Y0005755D01*
X0027004Y0005738D01*
X0027290Y0005727D01*
X0027575Y0005724D01*
D11*
X0028018Y0035820D02*
X0025467Y0035820D01*
X0025467Y0039648D01*
X0029817Y0039648D02*
X0029817Y0035820D01*
X0032369Y0035820D01*
X0034167Y0035820D02*
X0036081Y0035820D01*
X0036719Y0036458D01*
X0036719Y0039010D01*
X0036081Y0039648D01*
X0034167Y0039648D01*
X0034167Y0035820D01*
X0031093Y0037734D02*
X0029817Y0037734D01*
X0029817Y0039648D02*
X0032369Y0039648D01*
X0038517Y0037734D02*
X0040431Y0037734D01*
X0041069Y0037096D01*
X0041069Y0036458D01*
X0040431Y0035820D01*
X0039155Y0035820D01*
X0038517Y0036458D01*
X0038517Y0037734D01*
X0039793Y0039010D01*
X0041069Y0039648D01*
X0078674Y0032187D02*
X0078674Y0028359D01*
X0078674Y0029635D02*
X0080588Y0029635D01*
X0081226Y0030273D01*
X0081226Y0031549D01*
X0080588Y0032187D01*
X0078674Y0032187D01*
X0079950Y0029635D02*
X0081226Y0028359D01*
X0083025Y0028997D02*
X0083663Y0028359D01*
X0084938Y0028359D01*
X0085576Y0028997D01*
X0085576Y0030273D01*
X0084938Y0030911D01*
X0084300Y0030911D01*
X0083025Y0030273D01*
X0083025Y0032187D01*
X0085576Y0032187D01*
X0104903Y0051981D02*
X0106179Y0051981D01*
X0106817Y0052619D01*
X0108615Y0052619D02*
X0108615Y0053895D01*
X0110529Y0053895D01*
X0111167Y0053257D01*
X0111167Y0052619D01*
X0110529Y0051981D01*
X0109253Y0051981D01*
X0108615Y0052619D01*
X0108615Y0053895D02*
X0109891Y0055171D01*
X0111167Y0055809D01*
X0106817Y0055171D02*
X0106179Y0055809D01*
X0104903Y0055809D01*
X0104265Y0055171D01*
X0104265Y0052619D01*
X0104903Y0051981D01*
X0104210Y0063793D02*
X0102934Y0063793D01*
X0102296Y0064430D01*
X0102296Y0066982D01*
X0102934Y0067620D01*
X0104210Y0067620D01*
X0104848Y0066982D01*
X0106647Y0067620D02*
X0106647Y0065706D01*
X0107923Y0066344D01*
X0108560Y0066344D01*
X0109198Y0065706D01*
X0109198Y0064430D01*
X0108560Y0063793D01*
X0107285Y0063793D01*
X0106647Y0064430D01*
X0104848Y0064430D02*
X0104210Y0063793D01*
X0106647Y0067620D02*
X0109198Y0067620D01*
X0120974Y0054872D02*
X0124802Y0054872D01*
X0124802Y0053596D02*
X0124802Y0056148D01*
X0122250Y0053596D02*
X0120974Y0054872D01*
X0121612Y0051798D02*
X0120974Y0051160D01*
X0120974Y0049246D01*
X0124802Y0049246D01*
X0124802Y0051160D01*
X0124164Y0051798D01*
X0121612Y0051798D01*
X0120974Y0047447D02*
X0120974Y0044896D01*
X0124802Y0044896D01*
X0124802Y0047447D01*
X0122888Y0046171D02*
X0122888Y0044896D01*
X0124802Y0043097D02*
X0124802Y0040545D01*
X0120974Y0040545D01*
X0140974Y0040333D02*
X0144802Y0040333D01*
X0144802Y0042885D01*
X0144802Y0044683D02*
X0144802Y0047235D01*
X0144802Y0049033D02*
X0144802Y0050947D01*
X0144164Y0051585D01*
X0141612Y0051585D01*
X0140974Y0050947D01*
X0140974Y0049033D01*
X0144802Y0049033D01*
X0142888Y0045959D02*
X0142888Y0044683D01*
X0140974Y0044683D02*
X0144802Y0044683D01*
X0140974Y0044683D02*
X0140974Y0047235D01*
X0141612Y0053383D02*
X0140974Y0054021D01*
X0140974Y0055297D01*
X0141612Y0055935D01*
X0142250Y0055935D01*
X0144802Y0053383D01*
X0144802Y0055935D01*
X0160974Y0055297D02*
X0161612Y0055935D01*
X0162250Y0055935D01*
X0162888Y0055297D01*
X0163526Y0055935D01*
X0164164Y0055935D01*
X0164802Y0055297D01*
X0164802Y0054021D01*
X0164164Y0053383D01*
X0164164Y0051585D02*
X0161612Y0051585D01*
X0160974Y0050947D01*
X0160974Y0049033D01*
X0164802Y0049033D01*
X0164802Y0050947D01*
X0164164Y0051585D01*
X0161612Y0053383D02*
X0160974Y0054021D01*
X0160974Y0055297D01*
X0162888Y0055297D02*
X0162888Y0054659D01*
X0160974Y0047235D02*
X0160974Y0044683D01*
X0164802Y0044683D01*
X0164802Y0047235D01*
X0162888Y0045959D02*
X0162888Y0044683D01*
X0164802Y0042885D02*
X0164802Y0040333D01*
X0160974Y0040333D01*
X0180762Y0040545D02*
X0184589Y0040545D01*
X0184589Y0043097D01*
X0184589Y0044896D02*
X0184589Y0047447D01*
X0184589Y0049246D02*
X0180762Y0049246D01*
X0180762Y0051160D01*
X0181400Y0051798D01*
X0183951Y0051798D01*
X0184589Y0051160D01*
X0184589Y0049246D01*
X0180762Y0047447D02*
X0180762Y0044896D01*
X0184589Y0044896D01*
X0182676Y0044896D02*
X0182676Y0046171D01*
X0182676Y0053596D02*
X0182676Y0056148D01*
X0184589Y0055510D02*
X0180762Y0055510D01*
X0182676Y0053596D01*
X0177900Y0062493D02*
X0175348Y0062493D01*
X0176624Y0062493D02*
X0176624Y0066321D01*
X0175348Y0065045D01*
X0173549Y0064407D02*
X0172912Y0063769D01*
X0170998Y0063769D01*
X0172274Y0063769D02*
X0173549Y0062493D01*
X0173549Y0064407D02*
X0173549Y0065683D01*
X0172912Y0066321D01*
X0170998Y0066321D01*
X0170998Y0062493D01*
X0170506Y0089639D02*
X0173057Y0089639D01*
X0171781Y0089639D02*
X0171781Y0093467D01*
X0170506Y0092191D01*
X0168707Y0092191D02*
X0168707Y0092829D01*
X0168069Y0093467D01*
X0166793Y0093467D01*
X0166155Y0092829D01*
X0164357Y0092829D02*
X0163719Y0093467D01*
X0162443Y0093467D01*
X0161805Y0092829D01*
X0160007Y0092829D02*
X0159369Y0093467D01*
X0158093Y0093467D01*
X0157455Y0092829D01*
X0155657Y0092829D02*
X0155657Y0091553D01*
X0155019Y0090915D01*
X0153105Y0090915D01*
X0153105Y0089639D02*
X0153105Y0093467D01*
X0155019Y0093467D01*
X0155657Y0092829D01*
X0157455Y0089639D02*
X0160007Y0092191D01*
X0160007Y0092829D01*
X0160007Y0089639D02*
X0157455Y0089639D01*
X0161805Y0089639D02*
X0164357Y0092191D01*
X0164357Y0092829D01*
X0164357Y0089639D02*
X0161805Y0089639D01*
X0166155Y0089639D02*
X0168707Y0092191D01*
X0168707Y0089639D02*
X0166155Y0089639D01*
X0174856Y0089639D02*
X0174856Y0092191D01*
X0176132Y0093467D01*
X0177408Y0092191D01*
X0177408Y0089639D01*
X0177408Y0091553D02*
X0174856Y0091553D01*
X0151306Y0092829D02*
X0150669Y0093467D01*
X0149393Y0093467D01*
X0148755Y0092829D01*
X0148755Y0090277D01*
X0149393Y0089639D01*
X0150669Y0089639D01*
X0151306Y0090277D01*
X0146956Y0089639D02*
X0146956Y0093467D01*
X0145680Y0092191D01*
X0144405Y0093467D01*
X0144405Y0089639D01*
X0128700Y0109147D02*
X0124872Y0109147D01*
X0124872Y0111061D01*
X0125510Y0111699D01*
X0126786Y0111699D01*
X0127424Y0111061D01*
X0127424Y0109147D01*
X0127424Y0110423D02*
X0128700Y0111699D01*
X0128700Y0113497D02*
X0128062Y0113497D01*
X0125510Y0116049D01*
X0124872Y0116049D01*
X0124872Y0113497D01*
X0119487Y0112486D02*
X0118211Y0111210D01*
X0118211Y0111848D02*
X0118211Y0109934D01*
X0119487Y0109934D02*
X0115659Y0109934D01*
X0115659Y0111848D01*
X0116297Y0112486D01*
X0117573Y0112486D01*
X0118211Y0111848D01*
X0117573Y0114284D02*
X0116297Y0115560D01*
X0115659Y0116836D01*
X0117573Y0116198D02*
X0117573Y0114284D01*
X0118849Y0114284D01*
X0119487Y0114922D01*
X0119487Y0116198D01*
X0118849Y0116836D01*
X0118211Y0116836D01*
X0117573Y0116198D01*
X0113135Y0116887D02*
X0110584Y0116887D01*
X0112497Y0118801D01*
X0112497Y0114974D01*
X0108785Y0115612D02*
X0108147Y0114974D01*
X0106871Y0114974D01*
X0106233Y0115612D01*
X0106233Y0118163D01*
X0106871Y0118801D01*
X0108147Y0118801D01*
X0108785Y0118163D01*
X0108147Y0126785D02*
X0106871Y0126785D01*
X0106233Y0127423D01*
X0106233Y0129974D01*
X0106871Y0130612D01*
X0108147Y0130612D01*
X0108785Y0129974D01*
X0110584Y0129974D02*
X0111222Y0130612D01*
X0112497Y0130612D01*
X0113135Y0129974D01*
X0113135Y0129336D01*
X0112497Y0128698D01*
X0113135Y0128061D01*
X0113135Y0127423D01*
X0112497Y0126785D01*
X0111222Y0126785D01*
X0110584Y0127423D01*
X0108785Y0127423D02*
X0108147Y0126785D01*
X0111860Y0128698D02*
X0112497Y0128698D01*
X0119774Y0129462D02*
X0120411Y0128824D01*
X0122963Y0128824D01*
X0123601Y0129462D01*
X0123601Y0130738D01*
X0122963Y0131376D01*
X0123601Y0133175D02*
X0121049Y0135726D01*
X0120411Y0135726D01*
X0119774Y0135088D01*
X0119774Y0133813D01*
X0120411Y0133175D01*
X0120411Y0131376D02*
X0119774Y0130738D01*
X0119774Y0129462D01*
X0123601Y0133175D02*
X0123601Y0135726D01*
X0099593Y0162336D02*
X0097041Y0162336D01*
X0099593Y0164888D01*
X0099593Y0165526D01*
X0098955Y0166163D01*
X0097679Y0166163D01*
X0097041Y0165526D01*
X0095242Y0165526D02*
X0095242Y0164250D01*
X0094604Y0163612D01*
X0092691Y0163612D01*
X0093966Y0163612D02*
X0095242Y0162336D01*
X0092691Y0162336D02*
X0092691Y0166163D01*
X0094604Y0166163D01*
X0095242Y0165526D01*
X0053982Y0163143D02*
X0051431Y0163143D01*
X0052706Y0163143D02*
X0052706Y0166971D01*
X0051431Y0165695D01*
X0049632Y0166971D02*
X0049632Y0163143D01*
X0047080Y0166971D01*
X0047080Y0163143D01*
X0045282Y0163781D02*
X0044644Y0163143D01*
X0043368Y0163143D01*
X0042730Y0163781D01*
X0042730Y0166333D01*
X0043368Y0166971D01*
X0044644Y0166971D01*
X0045282Y0166333D01*
X0043037Y0106577D02*
X0040486Y0106577D01*
X0040486Y0104663D01*
X0041762Y0105301D01*
X0042399Y0105301D01*
X0043037Y0104663D01*
X0043037Y0103387D01*
X0042399Y0102749D01*
X0041124Y0102749D01*
X0040486Y0103387D01*
X0038687Y0103387D02*
X0038687Y0105939D01*
X0038049Y0106577D01*
X0036135Y0106577D01*
X0036135Y0102749D01*
X0038049Y0102749D01*
X0038687Y0103387D01*
X0034337Y0102749D02*
X0031785Y0102749D01*
X0031785Y0106577D01*
X0034337Y0106577D01*
X0033061Y0104663D02*
X0031785Y0104663D01*
X0029987Y0102749D02*
X0027435Y0102749D01*
X0027435Y0106577D01*
X0043518Y0099404D02*
X0043518Y0096852D01*
X0044156Y0096214D01*
X0045431Y0096214D01*
X0046069Y0096852D01*
X0047868Y0096214D02*
X0047868Y0100041D01*
X0050420Y0096214D01*
X0050420Y0100041D01*
X0052218Y0099404D02*
X0052856Y0100041D01*
X0054132Y0100041D01*
X0054770Y0099404D01*
X0054770Y0098766D01*
X0054132Y0098128D01*
X0054770Y0097490D01*
X0054770Y0096852D01*
X0054132Y0096214D01*
X0052856Y0096214D01*
X0052218Y0096852D01*
X0053494Y0098128D02*
X0054132Y0098128D01*
X0046069Y0099404D02*
X0045431Y0100041D01*
X0044156Y0100041D01*
X0043518Y0099404D01*
X0076706Y0089274D02*
X0076706Y0085446D01*
X0076706Y0086722D02*
X0078620Y0086722D01*
X0079258Y0087360D01*
X0079258Y0088636D01*
X0078620Y0089274D01*
X0076706Y0089274D01*
X0077982Y0086722D02*
X0079258Y0085446D01*
X0081056Y0087360D02*
X0083608Y0087360D01*
X0082970Y0085446D02*
X0082970Y0089274D01*
X0081056Y0087360D01*
X0081226Y0097257D02*
X0079950Y0098533D01*
X0080588Y0098533D02*
X0078674Y0098533D01*
X0078674Y0097257D02*
X0078674Y0101085D01*
X0080588Y0101085D01*
X0081226Y0100447D01*
X0081226Y0099171D01*
X0080588Y0098533D01*
X0083025Y0097895D02*
X0083663Y0097257D01*
X0084938Y0097257D01*
X0085576Y0097895D01*
X0085576Y0098533D01*
X0084938Y0099171D01*
X0084300Y0099171D01*
X0084938Y0099171D02*
X0085576Y0099809D01*
X0085576Y0100447D01*
X0084938Y0101085D01*
X0083663Y0101085D01*
X0083025Y0100447D01*
X0161195Y0144407D02*
X0161195Y0148234D01*
X0163746Y0148234D01*
X0165545Y0146958D02*
X0166821Y0148234D01*
X0166821Y0144407D01*
X0168096Y0144407D02*
X0165545Y0144407D01*
X0162470Y0146321D02*
X0161195Y0146321D01*
X0183951Y0147852D02*
X0186502Y0147852D01*
X0188301Y0147852D02*
X0189577Y0148490D01*
X0190215Y0148490D01*
X0190853Y0147852D01*
X0190853Y0146576D01*
X0190215Y0145938D01*
X0188939Y0145938D01*
X0188301Y0146576D01*
X0188301Y0147852D02*
X0188301Y0149766D01*
X0190853Y0149766D01*
X0192651Y0149766D02*
X0192651Y0147214D01*
X0193927Y0145938D01*
X0195203Y0147214D01*
X0195203Y0149766D01*
X0193777Y0155938D02*
X0191864Y0155938D01*
X0191864Y0159766D01*
X0193777Y0159766D01*
X0194415Y0159128D01*
X0194415Y0156576D01*
X0193777Y0155938D01*
X0190065Y0155938D02*
X0190065Y0159766D01*
X0187513Y0159766D02*
X0190065Y0155938D01*
X0187513Y0155938D02*
X0187513Y0159766D01*
X0185715Y0159128D02*
X0185077Y0159766D01*
X0183801Y0159766D01*
X0183163Y0159128D01*
X0183163Y0156576D01*
X0183801Y0155938D01*
X0185077Y0155938D01*
X0185715Y0156576D01*
X0185715Y0157852D01*
X0184439Y0157852D01*
X0185227Y0149128D02*
X0185227Y0146576D01*
X0185864Y0139766D02*
X0184589Y0139766D01*
X0183951Y0139128D01*
X0183951Y0138490D01*
X0184589Y0137852D01*
X0185864Y0137852D01*
X0186502Y0137214D01*
X0186502Y0136576D01*
X0185864Y0135938D01*
X0184589Y0135938D01*
X0183951Y0136576D01*
X0186502Y0139128D02*
X0185864Y0139766D01*
X0188301Y0139128D02*
X0188301Y0136576D01*
X0188939Y0135938D01*
X0190215Y0135938D01*
X0190853Y0136576D01*
X0192651Y0135938D02*
X0195203Y0135938D01*
X0192651Y0135938D02*
X0192651Y0139766D01*
X0190853Y0139128D02*
X0190215Y0139766D01*
X0188939Y0139766D01*
X0188301Y0139128D01*
X0188301Y0129766D02*
X0190215Y0129766D01*
X0190853Y0129128D01*
X0190853Y0126576D01*
X0190215Y0125938D01*
X0188301Y0125938D01*
X0188301Y0129766D01*
X0186502Y0129128D02*
X0185864Y0129766D01*
X0184589Y0129766D01*
X0183951Y0129128D01*
X0183951Y0128490D01*
X0184589Y0127852D01*
X0185864Y0127852D01*
X0186502Y0127214D01*
X0186502Y0126576D01*
X0185864Y0125938D01*
X0184589Y0125938D01*
X0183951Y0126576D01*
X0192651Y0125938D02*
X0192651Y0128490D01*
X0193927Y0129766D01*
X0195203Y0128490D01*
X0195203Y0125938D01*
X0195203Y0127852D02*
X0192651Y0127852D01*
X0203238Y0113789D02*
X0207066Y0113789D01*
X0207066Y0112513D02*
X0207066Y0115065D01*
X0204514Y0112513D02*
X0203238Y0113789D01*
X0203876Y0110714D02*
X0203238Y0110076D01*
X0203238Y0108801D01*
X0203876Y0108163D01*
X0206428Y0108163D01*
X0207066Y0108801D01*
X0207066Y0110076D01*
X0206428Y0110714D01*
X0134860Y0012912D02*
X0133584Y0012912D01*
X0132946Y0012274D01*
X0132946Y0011636D01*
X0133584Y0010998D01*
X0135498Y0010998D01*
X0135498Y0012274D02*
X0134860Y0012912D01*
X0135498Y0012274D02*
X0135498Y0009722D01*
X0134860Y0009084D01*
X0133584Y0009084D01*
X0132946Y0009722D01*
X0131147Y0009084D02*
X0129872Y0010360D01*
X0130509Y0010360D02*
X0128596Y0010360D01*
X0128596Y0009084D02*
X0128596Y0012912D01*
X0130509Y0012912D01*
X0131147Y0012274D01*
X0131147Y0010998D01*
X0130509Y0010360D01*
X0115025Y0010045D02*
X0115025Y0009407D01*
X0114387Y0008769D01*
X0113111Y0008769D01*
X0112473Y0009407D01*
X0112473Y0010045D01*
X0113111Y0010683D01*
X0114387Y0010683D01*
X0115025Y0010045D01*
X0114387Y0010683D02*
X0115025Y0011321D01*
X0115025Y0011959D01*
X0114387Y0012597D01*
X0113111Y0012597D01*
X0112473Y0011959D01*
X0112473Y0011321D01*
X0113111Y0010683D01*
X0110675Y0010683D02*
X0110675Y0011959D01*
X0110037Y0012597D01*
X0108123Y0012597D01*
X0108123Y0008769D01*
X0108123Y0010045D02*
X0110037Y0010045D01*
X0110675Y0010683D01*
X0109399Y0010045D02*
X0110675Y0008769D01*
X0146706Y0008611D02*
X0146706Y0012439D01*
X0148620Y0012439D01*
X0149258Y0011801D01*
X0149258Y0010525D01*
X0148620Y0009887D01*
X0146706Y0009887D01*
X0147982Y0009887D02*
X0149258Y0008611D01*
X0151056Y0008611D02*
X0153608Y0008611D01*
X0152332Y0008611D02*
X0152332Y0012439D01*
X0151056Y0011163D01*
X0155406Y0011801D02*
X0155406Y0009249D01*
X0157958Y0011801D01*
X0157958Y0009249D01*
X0157320Y0008611D01*
X0156044Y0008611D01*
X0155406Y0009249D01*
X0155406Y0011801D02*
X0156044Y0012439D01*
X0157320Y0012439D01*
X0157958Y0011801D01*
X0167391Y0011967D02*
X0167391Y0008139D01*
X0167391Y0009415D02*
X0169305Y0009415D01*
X0169943Y0010053D01*
X0169943Y0011329D01*
X0169305Y0011967D01*
X0167391Y0011967D01*
X0168667Y0009415D02*
X0169943Y0008139D01*
X0171741Y0008139D02*
X0174293Y0008139D01*
X0173017Y0008139D02*
X0173017Y0011967D01*
X0171741Y0010691D01*
X0176091Y0010691D02*
X0177367Y0011967D01*
X0177367Y0008139D01*
X0176091Y0008139D02*
X0178643Y0008139D01*
D12*
X0113854Y0193962D02*
X0113854Y0197102D01*
X0113854Y0195532D02*
X0115424Y0197102D01*
X0116209Y0197102D01*
X0111556Y0196317D02*
X0111556Y0194747D01*
X0110771Y0193962D01*
X0109201Y0193962D01*
X0108416Y0194747D01*
X0108416Y0196317D01*
X0109201Y0197102D01*
X0110771Y0197102D01*
X0111556Y0196317D01*
X0106361Y0197102D02*
X0104791Y0197102D01*
X0105576Y0197887D02*
X0105576Y0194747D01*
X0106361Y0193962D01*
X0102493Y0194747D02*
X0102493Y0196317D01*
X0101708Y0197102D01*
X0100139Y0197102D01*
X0099354Y0196317D01*
X0099354Y0194747D01*
X0100139Y0193962D01*
X0101708Y0193962D01*
X0102493Y0194747D01*
X0097056Y0193962D02*
X0097056Y0198672D01*
X0095486Y0197102D01*
X0093916Y0198672D01*
X0093916Y0193962D01*
X0091618Y0196317D02*
X0088478Y0196317D01*
X0086180Y0197102D02*
X0085395Y0196317D01*
X0083041Y0196317D01*
X0085395Y0196317D02*
X0086180Y0195532D01*
X0086180Y0194747D01*
X0085395Y0193962D01*
X0083041Y0193962D01*
X0083041Y0198672D01*
X0085395Y0198672D01*
X0086180Y0197887D01*
X0086180Y0197102D01*
X0080742Y0197887D02*
X0079958Y0198672D01*
X0078388Y0198672D01*
X0077603Y0197887D01*
X0077603Y0197102D01*
X0078388Y0196317D01*
X0079958Y0196317D01*
X0080742Y0195532D01*
X0080742Y0194747D01*
X0079958Y0193962D01*
X0078388Y0193962D01*
X0077603Y0194747D01*
X0075305Y0194747D02*
X0075305Y0198672D01*
X0072165Y0198672D02*
X0072165Y0194747D01*
X0072950Y0193962D01*
X0074520Y0193962D01*
X0075305Y0194747D01*
X0069867Y0196317D02*
X0066727Y0196317D01*
X0064429Y0193962D02*
X0064429Y0198672D01*
X0061290Y0198672D02*
X0061290Y0193962D01*
X0058992Y0193962D02*
X0058992Y0197102D01*
X0057422Y0198672D01*
X0055852Y0197102D01*
X0055852Y0193962D01*
X0055852Y0196317D02*
X0058992Y0196317D01*
X0061290Y0198672D02*
X0064429Y0193962D01*
D13*
X0074431Y0189320D02*
X0075478Y0187227D01*
X0076525Y0189320D01*
X0078057Y0189320D02*
X0079103Y0190366D01*
X0079103Y0187227D01*
X0078057Y0187227D02*
X0080150Y0187227D01*
X0081682Y0187227D02*
X0082205Y0187227D01*
X0082205Y0187750D01*
X0081682Y0187750D01*
X0081682Y0187227D01*
X0083494Y0187750D02*
X0085587Y0189843D01*
X0085587Y0187750D01*
X0085064Y0187227D01*
X0084018Y0187227D01*
X0083494Y0187750D01*
X0083494Y0189843D01*
X0084018Y0190366D01*
X0085064Y0190366D01*
X0085587Y0189843D01*
X0090745Y0189843D02*
X0091268Y0190366D01*
X0092314Y0190366D01*
X0092838Y0189843D01*
X0092838Y0189320D01*
X0090745Y0187227D01*
X0092838Y0187227D01*
X0094370Y0187750D02*
X0096463Y0189843D01*
X0096463Y0187750D01*
X0095940Y0187227D01*
X0094893Y0187227D01*
X0094370Y0187750D01*
X0094370Y0189843D01*
X0094893Y0190366D01*
X0095940Y0190366D01*
X0096463Y0189843D01*
X0097995Y0189320D02*
X0099041Y0190366D01*
X0099041Y0187227D01*
X0097995Y0187227D02*
X0100088Y0187227D01*
X0101620Y0187750D02*
X0101620Y0188273D01*
X0102143Y0188797D01*
X0103190Y0188797D01*
X0103713Y0188273D01*
X0103713Y0187750D01*
X0103190Y0187227D01*
X0102143Y0187227D01*
X0101620Y0187750D01*
X0102143Y0188797D02*
X0101620Y0189320D01*
X0101620Y0189843D01*
X0102143Y0190366D01*
X0103190Y0190366D01*
X0103713Y0189843D01*
X0103713Y0189320D01*
X0103190Y0188797D01*
X0105245Y0187227D02*
X0107338Y0190366D01*
X0108870Y0189843D02*
X0108870Y0187750D01*
X0110963Y0189843D01*
X0110963Y0187750D01*
X0110440Y0187227D01*
X0109394Y0187227D01*
X0108870Y0187750D01*
X0108870Y0189843D02*
X0109394Y0190366D01*
X0110440Y0190366D01*
X0110963Y0189843D01*
X0112495Y0188797D02*
X0114589Y0188797D01*
X0114065Y0190366D02*
X0114065Y0187227D01*
X0116121Y0187227D02*
X0118214Y0190366D01*
X0119746Y0189843D02*
X0119746Y0187750D01*
X0121839Y0189843D01*
X0121839Y0187750D01*
X0121316Y0187227D01*
X0120269Y0187227D01*
X0119746Y0187750D01*
X0119746Y0189843D02*
X0120269Y0190366D01*
X0121316Y0190366D01*
X0121839Y0189843D01*
X0123371Y0188797D02*
X0125464Y0188797D01*
X0124941Y0190366D02*
X0123371Y0188797D01*
X0124941Y0190366D02*
X0124941Y0187227D01*
X0114065Y0190366D02*
X0112495Y0188797D01*
D14*
X0130764Y0112575D02*
X0130764Y0102575D01*
X0130764Y0096575D01*
X0130890Y0096573D01*
X0131015Y0096567D01*
X0131140Y0096557D01*
X0131265Y0096543D01*
X0131390Y0096526D01*
X0131514Y0096504D01*
X0131637Y0096479D01*
X0131759Y0096449D01*
X0131880Y0096416D01*
X0132000Y0096379D01*
X0132119Y0096339D01*
X0132236Y0096294D01*
X0132353Y0096246D01*
X0132467Y0096194D01*
X0132580Y0096139D01*
X0132691Y0096080D01*
X0132800Y0096018D01*
X0132907Y0095952D01*
X0133012Y0095883D01*
X0133115Y0095811D01*
X0133216Y0095736D01*
X0133314Y0095657D01*
X0133409Y0095575D01*
X0133502Y0095491D01*
X0133592Y0095403D01*
X0133680Y0095313D01*
X0133764Y0095220D01*
X0133846Y0095125D01*
X0133925Y0095027D01*
X0134000Y0094926D01*
X0134072Y0094823D01*
X0134141Y0094718D01*
X0134207Y0094611D01*
X0134269Y0094502D01*
X0134328Y0094391D01*
X0134383Y0094278D01*
X0134435Y0094164D01*
X0134483Y0094047D01*
X0134528Y0093930D01*
X0134568Y0093811D01*
X0134605Y0093691D01*
X0134638Y0093570D01*
X0134668Y0093448D01*
X0134693Y0093325D01*
X0134715Y0093201D01*
X0134732Y0093076D01*
X0134746Y0092951D01*
X0134756Y0092826D01*
X0134762Y0092701D01*
X0134764Y0092575D01*
X0134762Y0092449D01*
X0134756Y0092324D01*
X0134746Y0092199D01*
X0134732Y0092074D01*
X0134715Y0091949D01*
X0134693Y0091825D01*
X0134668Y0091702D01*
X0134638Y0091580D01*
X0134605Y0091459D01*
X0134568Y0091339D01*
X0134528Y0091220D01*
X0134483Y0091103D01*
X0134435Y0090986D01*
X0134383Y0090872D01*
X0134328Y0090759D01*
X0134269Y0090648D01*
X0134207Y0090539D01*
X0134141Y0090432D01*
X0134072Y0090327D01*
X0134000Y0090224D01*
X0133925Y0090123D01*
X0133846Y0090025D01*
X0133764Y0089930D01*
X0133680Y0089837D01*
X0133592Y0089747D01*
X0133502Y0089659D01*
X0133409Y0089575D01*
X0133314Y0089493D01*
X0133216Y0089414D01*
X0133115Y0089339D01*
X0133012Y0089267D01*
X0132907Y0089198D01*
X0132800Y0089132D01*
X0132691Y0089070D01*
X0132580Y0089011D01*
X0132467Y0088956D01*
X0132353Y0088904D01*
X0132236Y0088856D01*
X0132119Y0088811D01*
X0132000Y0088771D01*
X0131880Y0088734D01*
X0131759Y0088701D01*
X0131637Y0088671D01*
X0131514Y0088646D01*
X0131390Y0088624D01*
X0131265Y0088607D01*
X0131140Y0088593D01*
X0131015Y0088583D01*
X0130890Y0088577D01*
X0130764Y0088575D01*
X0130764Y0082575D01*
X0200764Y0082575D01*
X0200764Y0072575D01*
X0130764Y0072575D01*
X0130764Y0082575D01*
X0130764Y0102575D02*
X0200764Y0102575D01*
X0200764Y0082575D01*
X0200764Y0102575D02*
X0200764Y0112575D01*
X0130764Y0112575D01*
D15*
X0129386Y0150528D02*
X0129386Y0165035D01*
X0129386Y0150528D02*
X0175843Y0150528D01*
X0175843Y0165035D01*
X0175843Y0180528D02*
X0175843Y0212535D01*
X0129386Y0212535D01*
X0129386Y0180528D01*
D16*
X0095488Y0150370D02*
X0085646Y0150370D01*
X0085646Y0136669D01*
X0095488Y0136669D01*
X0095488Y0150370D01*
X0083331Y0150016D02*
X0083303Y0149800D01*
X0083219Y0149598D01*
X0083087Y0149425D01*
X0082902Y0149286D01*
X0082687Y0149203D01*
X0082457Y0149181D01*
X0082231Y0149224D01*
X0082024Y0149327D01*
X0081854Y0149482D01*
X0081732Y0149678D01*
X0081669Y0149900D01*
X0081669Y0150131D01*
X0081732Y0150353D01*
X0081854Y0150549D01*
X0082024Y0150705D01*
X0082231Y0150808D01*
X0082457Y0150850D01*
X0082687Y0150829D01*
X0082902Y0150745D01*
X0083087Y0150606D01*
X0083219Y0150433D01*
X0083303Y0150232D01*
X0083331Y0150016D01*
X0083301Y0149794D02*
X0081699Y0149794D01*
X0081715Y0150293D02*
X0083278Y0150293D01*
X0082784Y0150791D02*
X0082198Y0150791D01*
X0082086Y0149296D02*
X0082915Y0149296D01*
X0064260Y0106150D02*
X0062260Y0104150D01*
X0064260Y0102150D01*
X0064260Y0106150D01*
X0064260Y0105925D02*
X0064035Y0105925D01*
X0064260Y0105427D02*
X0063537Y0105427D01*
X0063038Y0104928D02*
X0064260Y0104928D01*
X0064260Y0104430D02*
X0062540Y0104430D01*
X0062478Y0103931D02*
X0064260Y0103931D01*
X0064260Y0103433D02*
X0062977Y0103433D01*
X0063475Y0102934D02*
X0064260Y0102934D01*
X0064260Y0102436D02*
X0063974Y0102436D01*
X0081854Y0083620D02*
X0082024Y0083776D01*
X0082231Y0083878D01*
X0082457Y0083921D01*
X0082687Y0083900D01*
X0082902Y0083816D01*
X0083087Y0083677D01*
X0083219Y0083504D01*
X0083303Y0083303D01*
X0083331Y0083087D01*
X0083303Y0082870D01*
X0083219Y0082669D01*
X0083087Y0082496D01*
X0082902Y0082357D01*
X0082687Y0082274D01*
X0082457Y0082252D01*
X0082231Y0082295D01*
X0082024Y0082398D01*
X0081854Y0082553D01*
X0081732Y0082749D01*
X0081669Y0082971D01*
X0081669Y0083202D01*
X0081732Y0083424D01*
X0081854Y0083620D01*
X0081774Y0083492D02*
X0083224Y0083492D01*
X0083319Y0082994D02*
X0081669Y0082994D01*
X0081917Y0082495D02*
X0083085Y0082495D01*
X0085646Y0083441D02*
X0095488Y0083441D01*
X0095488Y0069740D01*
X0085646Y0069740D01*
X0085646Y0083441D01*
X0064260Y0039220D02*
X0062260Y0037220D01*
X0064260Y0035220D01*
X0064260Y0039220D01*
X0064260Y0039125D02*
X0064164Y0039125D01*
X0064260Y0038626D02*
X0063666Y0038626D01*
X0063167Y0038128D02*
X0064260Y0038128D01*
X0064260Y0037629D02*
X0062669Y0037629D01*
X0062350Y0037131D02*
X0064260Y0037131D01*
X0064260Y0036632D02*
X0062848Y0036632D01*
X0063347Y0036134D02*
X0064260Y0036134D01*
X0064260Y0035635D02*
X0063845Y0035635D01*
X0120614Y0034575D02*
X0122614Y0032575D01*
X0124614Y0034575D01*
X0120614Y0034575D01*
X0121049Y0034140D02*
X0124179Y0034140D01*
X0123680Y0033641D02*
X0121548Y0033641D01*
X0122046Y0033143D02*
X0123182Y0033143D01*
X0122683Y0032644D02*
X0122545Y0032644D01*
X0140614Y0034575D02*
X0142614Y0032575D01*
X0144614Y0034575D01*
X0140614Y0034575D01*
X0141049Y0034140D02*
X0144179Y0034140D01*
X0143680Y0033641D02*
X0141548Y0033641D01*
X0142046Y0033143D02*
X0143182Y0033143D01*
X0142683Y0032644D02*
X0142545Y0032644D01*
X0160614Y0034575D02*
X0162614Y0032575D01*
X0164614Y0034575D01*
X0160614Y0034575D01*
X0161049Y0034140D02*
X0164179Y0034140D01*
X0163680Y0033641D02*
X0161548Y0033641D01*
X0162046Y0033143D02*
X0163182Y0033143D01*
X0162683Y0032644D02*
X0162545Y0032644D01*
X0180614Y0034575D02*
X0182614Y0032575D01*
X0184614Y0034575D01*
X0180614Y0034575D01*
X0181049Y0034140D02*
X0184179Y0034140D01*
X0183680Y0033641D02*
X0181548Y0033641D01*
X0182046Y0033143D02*
X0183182Y0033143D01*
X0182683Y0032644D02*
X0182545Y0032644D01*
D17*
X0197614Y0122575D02*
X0197614Y0167575D01*
X0207614Y0167575D01*
X0207614Y0122575D01*
X0197614Y0122575D01*
D18*
X0202614Y0165075D03*
D19*
X0056197Y0094701D02*
X0056197Y0047457D01*
X0003953Y0047457D01*
X0003953Y0094701D01*
X0056197Y0094701D01*
X0054228Y0113205D02*
X0001984Y0113205D01*
X0001984Y0160449D01*
X0054228Y0160449D01*
X0054228Y0113205D01*
X0031354Y0126827D02*
X0011354Y0126827D01*
X0011354Y0146827D02*
X0031354Y0146827D01*
X0033323Y0081079D02*
X0013323Y0081079D01*
X0013323Y0061079D02*
X0033323Y0061079D01*
D20*
X0065704Y0068881D02*
X0066471Y0068114D01*
X0069541Y0068114D01*
X0070308Y0068881D01*
X0070308Y0070416D01*
X0069541Y0071183D01*
X0069541Y0072718D02*
X0068773Y0072718D01*
X0068006Y0073485D01*
X0068006Y0075020D01*
X0068773Y0075787D01*
X0069541Y0075787D01*
X0070308Y0075020D01*
X0070308Y0073485D01*
X0069541Y0072718D01*
X0068006Y0073485D02*
X0067239Y0072718D01*
X0066471Y0072718D01*
X0065704Y0073485D01*
X0065704Y0075020D01*
X0066471Y0075787D01*
X0067239Y0075787D01*
X0068006Y0075020D01*
X0066471Y0071183D02*
X0065704Y0070416D01*
X0065704Y0068881D01*
X0064503Y0135043D02*
X0063735Y0135811D01*
X0063735Y0137345D01*
X0064503Y0138113D01*
X0063735Y0139647D02*
X0063735Y0142717D01*
X0064503Y0142717D01*
X0067572Y0139647D01*
X0068339Y0139647D01*
X0067572Y0138113D02*
X0068339Y0137345D01*
X0068339Y0135811D01*
X0067572Y0135043D01*
X0064503Y0135043D01*
M02*
