%
M48
M72
T01C0.01575
T02C0.03150
T03C0.03200
T04C0.03740
T05C0.03937
T06C0.07087
T07C0.09055
T08C0.12598
%
T01
X66945Y51000
X86630Y25409
X35449Y70685
X25606Y104150
X37417Y137614
X31512Y167142
X31512Y167142
X70882Y145488
X66945Y117929
X70882Y78559
X104346Y78559
X118126Y98244
X118126Y125803
X122063Y141551
X120094Y149425
X110252Y141551
X137811Y129740
X171276Y147457
X192929Y171079
X159465Y190764
X94504Y173047
X204740Y66748
X198835Y43126
T02
X182614Y27575
X182614Y17575
X172614Y17575
X162614Y17575
X162614Y27575
X152614Y17575
X142614Y17575
X142614Y27575
X132614Y17575
X122614Y17575
X122614Y27575
X112614Y17575
X101630Y37220
X100567Y47063
X100567Y58874
X112614Y47575
X132614Y47575
X134976Y64937
X122988Y74937
X112201Y74937
X101630Y92339
X101630Y104150
X112201Y104937
X122988Y104937
X128677Y122575
X128677Y142575
X149583Y139543
X179583Y139543
X205764Y102575
X205764Y82575
X172614Y47575
X164976Y64937
X152614Y47575
X90567Y76591
X80567Y58874
X80567Y47063
X71630Y37220
X57260Y37220
X47260Y37220
X63008Y64622
X63008Y84622
X71630Y92339
X71630Y104150
X57260Y104150
X47260Y104150
X61039Y131551
X80567Y127772
X80567Y115961
X100567Y115961
X100567Y127772
X90567Y143520
X79504Y159268
X61039Y151551
X109504Y159268
T03
X135764Y107575
X145764Y107575
X155764Y107575
X165764Y107575
X175764Y107575
X185764Y107575
X195764Y107575
X195764Y77575
X185764Y77575
X175764Y77575
X165764Y77575
X155764Y77575
X145764Y77575
X135764Y77575
T04
X147693Y154031
X147693Y161906
X157535Y161906
X157535Y154031
T05
X202614Y157575
X202614Y147575
X202614Y137575
X202614Y127575
T06
X43323Y81079
X43323Y61079
X41354Y126827
X41354Y146827
T07
X128913Y172575
X176315Y172575
T08
X27575Y17535
X200803Y17535
X200803Y190764
X27575Y190764
M30
