G75*
%MOIN*%
%OFA0B0*%
%FSLAX25Y25*%
%IPPOS*%
%LPD*%
%AMOC8*
5,1,8,0,0,1.08239X$1,22.5*
%
%ADD10C,0.00000*%
%ADD11R,0.03937X0.10236*%
%ADD12C,0.07087*%
%ADD13C,0.05200*%
%ADD14R,0.12598X0.03937*%
%ADD15OC8,0.05740*%
%ADD16C,0.13055*%
%ADD17R,0.03937X0.12598*%
%ADD18R,0.04724X0.03150*%
%ADD19C,0.07874*%
%ADD20R,0.07874X0.07874*%
%ADD21R,0.03543X0.01181*%
%ADD22R,0.10236X0.03937*%
%ADD23C,0.03150*%
%ADD24C,0.01600*%
%ADD25C,0.03937*%
%ADD26C,0.01575*%
%ADD27C,0.01181*%
%ADD28C,0.03150*%
D10*
X0004740Y0016551D02*
X0004740Y0189780D01*
X0010252Y0189780D02*
X0010254Y0189938D01*
X0010260Y0190096D01*
X0010270Y0190254D01*
X0010284Y0190412D01*
X0010302Y0190569D01*
X0010323Y0190726D01*
X0010349Y0190882D01*
X0010379Y0191038D01*
X0010412Y0191193D01*
X0010450Y0191346D01*
X0010491Y0191499D01*
X0010536Y0191651D01*
X0010585Y0191802D01*
X0010638Y0191951D01*
X0010694Y0192099D01*
X0010754Y0192245D01*
X0010818Y0192390D01*
X0010886Y0192533D01*
X0010957Y0192675D01*
X0011031Y0192815D01*
X0011109Y0192952D01*
X0011191Y0193088D01*
X0011275Y0193222D01*
X0011364Y0193353D01*
X0011455Y0193482D01*
X0011550Y0193609D01*
X0011647Y0193734D01*
X0011748Y0193856D01*
X0011852Y0193975D01*
X0011959Y0194092D01*
X0012069Y0194206D01*
X0012182Y0194317D01*
X0012297Y0194426D01*
X0012415Y0194531D01*
X0012536Y0194633D01*
X0012659Y0194733D01*
X0012785Y0194829D01*
X0012913Y0194922D01*
X0013043Y0195012D01*
X0013176Y0195098D01*
X0013311Y0195182D01*
X0013447Y0195261D01*
X0013586Y0195338D01*
X0013727Y0195410D01*
X0013869Y0195480D01*
X0014013Y0195545D01*
X0014159Y0195607D01*
X0014306Y0195665D01*
X0014455Y0195720D01*
X0014605Y0195771D01*
X0014756Y0195818D01*
X0014908Y0195861D01*
X0015061Y0195900D01*
X0015216Y0195936D01*
X0015371Y0195967D01*
X0015527Y0195995D01*
X0015683Y0196019D01*
X0015840Y0196039D01*
X0015998Y0196055D01*
X0016155Y0196067D01*
X0016314Y0196075D01*
X0016472Y0196079D01*
X0016630Y0196079D01*
X0016788Y0196075D01*
X0016947Y0196067D01*
X0017104Y0196055D01*
X0017262Y0196039D01*
X0017419Y0196019D01*
X0017575Y0195995D01*
X0017731Y0195967D01*
X0017886Y0195936D01*
X0018041Y0195900D01*
X0018194Y0195861D01*
X0018346Y0195818D01*
X0018497Y0195771D01*
X0018647Y0195720D01*
X0018796Y0195665D01*
X0018943Y0195607D01*
X0019089Y0195545D01*
X0019233Y0195480D01*
X0019375Y0195410D01*
X0019516Y0195338D01*
X0019655Y0195261D01*
X0019791Y0195182D01*
X0019926Y0195098D01*
X0020059Y0195012D01*
X0020189Y0194922D01*
X0020317Y0194829D01*
X0020443Y0194733D01*
X0020566Y0194633D01*
X0020687Y0194531D01*
X0020805Y0194426D01*
X0020920Y0194317D01*
X0021033Y0194206D01*
X0021143Y0194092D01*
X0021250Y0193975D01*
X0021354Y0193856D01*
X0021455Y0193734D01*
X0021552Y0193609D01*
X0021647Y0193482D01*
X0021738Y0193353D01*
X0021827Y0193222D01*
X0021911Y0193088D01*
X0021993Y0192952D01*
X0022071Y0192815D01*
X0022145Y0192675D01*
X0022216Y0192533D01*
X0022284Y0192390D01*
X0022348Y0192245D01*
X0022408Y0192099D01*
X0022464Y0191951D01*
X0022517Y0191802D01*
X0022566Y0191651D01*
X0022611Y0191499D01*
X0022652Y0191346D01*
X0022690Y0191193D01*
X0022723Y0191038D01*
X0022753Y0190882D01*
X0022779Y0190726D01*
X0022800Y0190569D01*
X0022818Y0190412D01*
X0022832Y0190254D01*
X0022842Y0190096D01*
X0022848Y0189938D01*
X0022850Y0189780D01*
X0022848Y0189622D01*
X0022842Y0189464D01*
X0022832Y0189306D01*
X0022818Y0189148D01*
X0022800Y0188991D01*
X0022779Y0188834D01*
X0022753Y0188678D01*
X0022723Y0188522D01*
X0022690Y0188367D01*
X0022652Y0188214D01*
X0022611Y0188061D01*
X0022566Y0187909D01*
X0022517Y0187758D01*
X0022464Y0187609D01*
X0022408Y0187461D01*
X0022348Y0187315D01*
X0022284Y0187170D01*
X0022216Y0187027D01*
X0022145Y0186885D01*
X0022071Y0186745D01*
X0021993Y0186608D01*
X0021911Y0186472D01*
X0021827Y0186338D01*
X0021738Y0186207D01*
X0021647Y0186078D01*
X0021552Y0185951D01*
X0021455Y0185826D01*
X0021354Y0185704D01*
X0021250Y0185585D01*
X0021143Y0185468D01*
X0021033Y0185354D01*
X0020920Y0185243D01*
X0020805Y0185134D01*
X0020687Y0185029D01*
X0020566Y0184927D01*
X0020443Y0184827D01*
X0020317Y0184731D01*
X0020189Y0184638D01*
X0020059Y0184548D01*
X0019926Y0184462D01*
X0019791Y0184378D01*
X0019655Y0184299D01*
X0019516Y0184222D01*
X0019375Y0184150D01*
X0019233Y0184080D01*
X0019089Y0184015D01*
X0018943Y0183953D01*
X0018796Y0183895D01*
X0018647Y0183840D01*
X0018497Y0183789D01*
X0018346Y0183742D01*
X0018194Y0183699D01*
X0018041Y0183660D01*
X0017886Y0183624D01*
X0017731Y0183593D01*
X0017575Y0183565D01*
X0017419Y0183541D01*
X0017262Y0183521D01*
X0017104Y0183505D01*
X0016947Y0183493D01*
X0016788Y0183485D01*
X0016630Y0183481D01*
X0016472Y0183481D01*
X0016314Y0183485D01*
X0016155Y0183493D01*
X0015998Y0183505D01*
X0015840Y0183521D01*
X0015683Y0183541D01*
X0015527Y0183565D01*
X0015371Y0183593D01*
X0015216Y0183624D01*
X0015061Y0183660D01*
X0014908Y0183699D01*
X0014756Y0183742D01*
X0014605Y0183789D01*
X0014455Y0183840D01*
X0014306Y0183895D01*
X0014159Y0183953D01*
X0014013Y0184015D01*
X0013869Y0184080D01*
X0013727Y0184150D01*
X0013586Y0184222D01*
X0013447Y0184299D01*
X0013311Y0184378D01*
X0013176Y0184462D01*
X0013043Y0184548D01*
X0012913Y0184638D01*
X0012785Y0184731D01*
X0012659Y0184827D01*
X0012536Y0184927D01*
X0012415Y0185029D01*
X0012297Y0185134D01*
X0012182Y0185243D01*
X0012069Y0185354D01*
X0011959Y0185468D01*
X0011852Y0185585D01*
X0011748Y0185704D01*
X0011647Y0185826D01*
X0011550Y0185951D01*
X0011455Y0186078D01*
X0011364Y0186207D01*
X0011275Y0186338D01*
X0011191Y0186472D01*
X0011109Y0186608D01*
X0011031Y0186745D01*
X0010957Y0186885D01*
X0010886Y0187027D01*
X0010818Y0187170D01*
X0010754Y0187315D01*
X0010694Y0187461D01*
X0010638Y0187609D01*
X0010585Y0187758D01*
X0010536Y0187909D01*
X0010491Y0188061D01*
X0010450Y0188214D01*
X0010412Y0188367D01*
X0010379Y0188522D01*
X0010349Y0188678D01*
X0010323Y0188834D01*
X0010302Y0188991D01*
X0010284Y0189148D01*
X0010270Y0189306D01*
X0010260Y0189464D01*
X0010254Y0189622D01*
X0010252Y0189780D01*
X0004740Y0189780D02*
X0004743Y0190065D01*
X0004754Y0190351D01*
X0004771Y0190636D01*
X0004795Y0190920D01*
X0004826Y0191204D01*
X0004864Y0191487D01*
X0004909Y0191768D01*
X0004960Y0192049D01*
X0005018Y0192329D01*
X0005083Y0192607D01*
X0005155Y0192883D01*
X0005233Y0193157D01*
X0005318Y0193430D01*
X0005410Y0193700D01*
X0005508Y0193968D01*
X0005612Y0194234D01*
X0005723Y0194497D01*
X0005840Y0194757D01*
X0005963Y0195015D01*
X0006093Y0195269D01*
X0006229Y0195520D01*
X0006370Y0195768D01*
X0006518Y0196012D01*
X0006671Y0196253D01*
X0006831Y0196489D01*
X0006996Y0196722D01*
X0007166Y0196951D01*
X0007342Y0197176D01*
X0007524Y0197396D01*
X0007710Y0197612D01*
X0007902Y0197823D01*
X0008099Y0198030D01*
X0008301Y0198232D01*
X0008508Y0198429D01*
X0008719Y0198621D01*
X0008935Y0198807D01*
X0009155Y0198989D01*
X0009380Y0199165D01*
X0009609Y0199335D01*
X0009842Y0199500D01*
X0010078Y0199660D01*
X0010319Y0199813D01*
X0010563Y0199961D01*
X0010811Y0200102D01*
X0011062Y0200238D01*
X0011316Y0200368D01*
X0011574Y0200491D01*
X0011834Y0200608D01*
X0012097Y0200719D01*
X0012363Y0200823D01*
X0012631Y0200921D01*
X0012901Y0201013D01*
X0013174Y0201098D01*
X0013448Y0201176D01*
X0013724Y0201248D01*
X0014002Y0201313D01*
X0014282Y0201371D01*
X0014563Y0201422D01*
X0014844Y0201467D01*
X0015127Y0201505D01*
X0015411Y0201536D01*
X0015695Y0201560D01*
X0015980Y0201577D01*
X0016266Y0201588D01*
X0016551Y0201591D01*
X0189780Y0201591D01*
X0183481Y0189780D02*
X0183483Y0189938D01*
X0183489Y0190096D01*
X0183499Y0190254D01*
X0183513Y0190412D01*
X0183531Y0190569D01*
X0183552Y0190726D01*
X0183578Y0190882D01*
X0183608Y0191038D01*
X0183641Y0191193D01*
X0183679Y0191346D01*
X0183720Y0191499D01*
X0183765Y0191651D01*
X0183814Y0191802D01*
X0183867Y0191951D01*
X0183923Y0192099D01*
X0183983Y0192245D01*
X0184047Y0192390D01*
X0184115Y0192533D01*
X0184186Y0192675D01*
X0184260Y0192815D01*
X0184338Y0192952D01*
X0184420Y0193088D01*
X0184504Y0193222D01*
X0184593Y0193353D01*
X0184684Y0193482D01*
X0184779Y0193609D01*
X0184876Y0193734D01*
X0184977Y0193856D01*
X0185081Y0193975D01*
X0185188Y0194092D01*
X0185298Y0194206D01*
X0185411Y0194317D01*
X0185526Y0194426D01*
X0185644Y0194531D01*
X0185765Y0194633D01*
X0185888Y0194733D01*
X0186014Y0194829D01*
X0186142Y0194922D01*
X0186272Y0195012D01*
X0186405Y0195098D01*
X0186540Y0195182D01*
X0186676Y0195261D01*
X0186815Y0195338D01*
X0186956Y0195410D01*
X0187098Y0195480D01*
X0187242Y0195545D01*
X0187388Y0195607D01*
X0187535Y0195665D01*
X0187684Y0195720D01*
X0187834Y0195771D01*
X0187985Y0195818D01*
X0188137Y0195861D01*
X0188290Y0195900D01*
X0188445Y0195936D01*
X0188600Y0195967D01*
X0188756Y0195995D01*
X0188912Y0196019D01*
X0189069Y0196039D01*
X0189227Y0196055D01*
X0189384Y0196067D01*
X0189543Y0196075D01*
X0189701Y0196079D01*
X0189859Y0196079D01*
X0190017Y0196075D01*
X0190176Y0196067D01*
X0190333Y0196055D01*
X0190491Y0196039D01*
X0190648Y0196019D01*
X0190804Y0195995D01*
X0190960Y0195967D01*
X0191115Y0195936D01*
X0191270Y0195900D01*
X0191423Y0195861D01*
X0191575Y0195818D01*
X0191726Y0195771D01*
X0191876Y0195720D01*
X0192025Y0195665D01*
X0192172Y0195607D01*
X0192318Y0195545D01*
X0192462Y0195480D01*
X0192604Y0195410D01*
X0192745Y0195338D01*
X0192884Y0195261D01*
X0193020Y0195182D01*
X0193155Y0195098D01*
X0193288Y0195012D01*
X0193418Y0194922D01*
X0193546Y0194829D01*
X0193672Y0194733D01*
X0193795Y0194633D01*
X0193916Y0194531D01*
X0194034Y0194426D01*
X0194149Y0194317D01*
X0194262Y0194206D01*
X0194372Y0194092D01*
X0194479Y0193975D01*
X0194583Y0193856D01*
X0194684Y0193734D01*
X0194781Y0193609D01*
X0194876Y0193482D01*
X0194967Y0193353D01*
X0195056Y0193222D01*
X0195140Y0193088D01*
X0195222Y0192952D01*
X0195300Y0192815D01*
X0195374Y0192675D01*
X0195445Y0192533D01*
X0195513Y0192390D01*
X0195577Y0192245D01*
X0195637Y0192099D01*
X0195693Y0191951D01*
X0195746Y0191802D01*
X0195795Y0191651D01*
X0195840Y0191499D01*
X0195881Y0191346D01*
X0195919Y0191193D01*
X0195952Y0191038D01*
X0195982Y0190882D01*
X0196008Y0190726D01*
X0196029Y0190569D01*
X0196047Y0190412D01*
X0196061Y0190254D01*
X0196071Y0190096D01*
X0196077Y0189938D01*
X0196079Y0189780D01*
X0196077Y0189622D01*
X0196071Y0189464D01*
X0196061Y0189306D01*
X0196047Y0189148D01*
X0196029Y0188991D01*
X0196008Y0188834D01*
X0195982Y0188678D01*
X0195952Y0188522D01*
X0195919Y0188367D01*
X0195881Y0188214D01*
X0195840Y0188061D01*
X0195795Y0187909D01*
X0195746Y0187758D01*
X0195693Y0187609D01*
X0195637Y0187461D01*
X0195577Y0187315D01*
X0195513Y0187170D01*
X0195445Y0187027D01*
X0195374Y0186885D01*
X0195300Y0186745D01*
X0195222Y0186608D01*
X0195140Y0186472D01*
X0195056Y0186338D01*
X0194967Y0186207D01*
X0194876Y0186078D01*
X0194781Y0185951D01*
X0194684Y0185826D01*
X0194583Y0185704D01*
X0194479Y0185585D01*
X0194372Y0185468D01*
X0194262Y0185354D01*
X0194149Y0185243D01*
X0194034Y0185134D01*
X0193916Y0185029D01*
X0193795Y0184927D01*
X0193672Y0184827D01*
X0193546Y0184731D01*
X0193418Y0184638D01*
X0193288Y0184548D01*
X0193155Y0184462D01*
X0193020Y0184378D01*
X0192884Y0184299D01*
X0192745Y0184222D01*
X0192604Y0184150D01*
X0192462Y0184080D01*
X0192318Y0184015D01*
X0192172Y0183953D01*
X0192025Y0183895D01*
X0191876Y0183840D01*
X0191726Y0183789D01*
X0191575Y0183742D01*
X0191423Y0183699D01*
X0191270Y0183660D01*
X0191115Y0183624D01*
X0190960Y0183593D01*
X0190804Y0183565D01*
X0190648Y0183541D01*
X0190491Y0183521D01*
X0190333Y0183505D01*
X0190176Y0183493D01*
X0190017Y0183485D01*
X0189859Y0183481D01*
X0189701Y0183481D01*
X0189543Y0183485D01*
X0189384Y0183493D01*
X0189227Y0183505D01*
X0189069Y0183521D01*
X0188912Y0183541D01*
X0188756Y0183565D01*
X0188600Y0183593D01*
X0188445Y0183624D01*
X0188290Y0183660D01*
X0188137Y0183699D01*
X0187985Y0183742D01*
X0187834Y0183789D01*
X0187684Y0183840D01*
X0187535Y0183895D01*
X0187388Y0183953D01*
X0187242Y0184015D01*
X0187098Y0184080D01*
X0186956Y0184150D01*
X0186815Y0184222D01*
X0186676Y0184299D01*
X0186540Y0184378D01*
X0186405Y0184462D01*
X0186272Y0184548D01*
X0186142Y0184638D01*
X0186014Y0184731D01*
X0185888Y0184827D01*
X0185765Y0184927D01*
X0185644Y0185029D01*
X0185526Y0185134D01*
X0185411Y0185243D01*
X0185298Y0185354D01*
X0185188Y0185468D01*
X0185081Y0185585D01*
X0184977Y0185704D01*
X0184876Y0185826D01*
X0184779Y0185951D01*
X0184684Y0186078D01*
X0184593Y0186207D01*
X0184504Y0186338D01*
X0184420Y0186472D01*
X0184338Y0186608D01*
X0184260Y0186745D01*
X0184186Y0186885D01*
X0184115Y0187027D01*
X0184047Y0187170D01*
X0183983Y0187315D01*
X0183923Y0187461D01*
X0183867Y0187609D01*
X0183814Y0187758D01*
X0183765Y0187909D01*
X0183720Y0188061D01*
X0183679Y0188214D01*
X0183641Y0188367D01*
X0183608Y0188522D01*
X0183578Y0188678D01*
X0183552Y0188834D01*
X0183531Y0188991D01*
X0183513Y0189148D01*
X0183499Y0189306D01*
X0183489Y0189464D01*
X0183483Y0189622D01*
X0183481Y0189780D01*
X0189780Y0201591D02*
X0190065Y0201588D01*
X0190351Y0201577D01*
X0190636Y0201560D01*
X0190920Y0201536D01*
X0191204Y0201505D01*
X0191487Y0201467D01*
X0191768Y0201422D01*
X0192049Y0201371D01*
X0192329Y0201313D01*
X0192607Y0201248D01*
X0192883Y0201176D01*
X0193157Y0201098D01*
X0193430Y0201013D01*
X0193700Y0200921D01*
X0193968Y0200823D01*
X0194234Y0200719D01*
X0194497Y0200608D01*
X0194757Y0200491D01*
X0195015Y0200368D01*
X0195269Y0200238D01*
X0195520Y0200102D01*
X0195768Y0199961D01*
X0196012Y0199813D01*
X0196253Y0199660D01*
X0196489Y0199500D01*
X0196722Y0199335D01*
X0196951Y0199165D01*
X0197176Y0198989D01*
X0197396Y0198807D01*
X0197612Y0198621D01*
X0197823Y0198429D01*
X0198030Y0198232D01*
X0198232Y0198030D01*
X0198429Y0197823D01*
X0198621Y0197612D01*
X0198807Y0197396D01*
X0198989Y0197176D01*
X0199165Y0196951D01*
X0199335Y0196722D01*
X0199500Y0196489D01*
X0199660Y0196253D01*
X0199813Y0196012D01*
X0199961Y0195768D01*
X0200102Y0195520D01*
X0200238Y0195269D01*
X0200368Y0195015D01*
X0200491Y0194757D01*
X0200608Y0194497D01*
X0200719Y0194234D01*
X0200823Y0193968D01*
X0200921Y0193700D01*
X0201013Y0193430D01*
X0201098Y0193157D01*
X0201176Y0192883D01*
X0201248Y0192607D01*
X0201313Y0192329D01*
X0201371Y0192049D01*
X0201422Y0191768D01*
X0201467Y0191487D01*
X0201505Y0191204D01*
X0201536Y0190920D01*
X0201560Y0190636D01*
X0201577Y0190351D01*
X0201588Y0190065D01*
X0201591Y0189780D01*
X0201591Y0016551D01*
X0183481Y0016551D02*
X0183483Y0016709D01*
X0183489Y0016867D01*
X0183499Y0017025D01*
X0183513Y0017183D01*
X0183531Y0017340D01*
X0183552Y0017497D01*
X0183578Y0017653D01*
X0183608Y0017809D01*
X0183641Y0017964D01*
X0183679Y0018117D01*
X0183720Y0018270D01*
X0183765Y0018422D01*
X0183814Y0018573D01*
X0183867Y0018722D01*
X0183923Y0018870D01*
X0183983Y0019016D01*
X0184047Y0019161D01*
X0184115Y0019304D01*
X0184186Y0019446D01*
X0184260Y0019586D01*
X0184338Y0019723D01*
X0184420Y0019859D01*
X0184504Y0019993D01*
X0184593Y0020124D01*
X0184684Y0020253D01*
X0184779Y0020380D01*
X0184876Y0020505D01*
X0184977Y0020627D01*
X0185081Y0020746D01*
X0185188Y0020863D01*
X0185298Y0020977D01*
X0185411Y0021088D01*
X0185526Y0021197D01*
X0185644Y0021302D01*
X0185765Y0021404D01*
X0185888Y0021504D01*
X0186014Y0021600D01*
X0186142Y0021693D01*
X0186272Y0021783D01*
X0186405Y0021869D01*
X0186540Y0021953D01*
X0186676Y0022032D01*
X0186815Y0022109D01*
X0186956Y0022181D01*
X0187098Y0022251D01*
X0187242Y0022316D01*
X0187388Y0022378D01*
X0187535Y0022436D01*
X0187684Y0022491D01*
X0187834Y0022542D01*
X0187985Y0022589D01*
X0188137Y0022632D01*
X0188290Y0022671D01*
X0188445Y0022707D01*
X0188600Y0022738D01*
X0188756Y0022766D01*
X0188912Y0022790D01*
X0189069Y0022810D01*
X0189227Y0022826D01*
X0189384Y0022838D01*
X0189543Y0022846D01*
X0189701Y0022850D01*
X0189859Y0022850D01*
X0190017Y0022846D01*
X0190176Y0022838D01*
X0190333Y0022826D01*
X0190491Y0022810D01*
X0190648Y0022790D01*
X0190804Y0022766D01*
X0190960Y0022738D01*
X0191115Y0022707D01*
X0191270Y0022671D01*
X0191423Y0022632D01*
X0191575Y0022589D01*
X0191726Y0022542D01*
X0191876Y0022491D01*
X0192025Y0022436D01*
X0192172Y0022378D01*
X0192318Y0022316D01*
X0192462Y0022251D01*
X0192604Y0022181D01*
X0192745Y0022109D01*
X0192884Y0022032D01*
X0193020Y0021953D01*
X0193155Y0021869D01*
X0193288Y0021783D01*
X0193418Y0021693D01*
X0193546Y0021600D01*
X0193672Y0021504D01*
X0193795Y0021404D01*
X0193916Y0021302D01*
X0194034Y0021197D01*
X0194149Y0021088D01*
X0194262Y0020977D01*
X0194372Y0020863D01*
X0194479Y0020746D01*
X0194583Y0020627D01*
X0194684Y0020505D01*
X0194781Y0020380D01*
X0194876Y0020253D01*
X0194967Y0020124D01*
X0195056Y0019993D01*
X0195140Y0019859D01*
X0195222Y0019723D01*
X0195300Y0019586D01*
X0195374Y0019446D01*
X0195445Y0019304D01*
X0195513Y0019161D01*
X0195577Y0019016D01*
X0195637Y0018870D01*
X0195693Y0018722D01*
X0195746Y0018573D01*
X0195795Y0018422D01*
X0195840Y0018270D01*
X0195881Y0018117D01*
X0195919Y0017964D01*
X0195952Y0017809D01*
X0195982Y0017653D01*
X0196008Y0017497D01*
X0196029Y0017340D01*
X0196047Y0017183D01*
X0196061Y0017025D01*
X0196071Y0016867D01*
X0196077Y0016709D01*
X0196079Y0016551D01*
X0196077Y0016393D01*
X0196071Y0016235D01*
X0196061Y0016077D01*
X0196047Y0015919D01*
X0196029Y0015762D01*
X0196008Y0015605D01*
X0195982Y0015449D01*
X0195952Y0015293D01*
X0195919Y0015138D01*
X0195881Y0014985D01*
X0195840Y0014832D01*
X0195795Y0014680D01*
X0195746Y0014529D01*
X0195693Y0014380D01*
X0195637Y0014232D01*
X0195577Y0014086D01*
X0195513Y0013941D01*
X0195445Y0013798D01*
X0195374Y0013656D01*
X0195300Y0013516D01*
X0195222Y0013379D01*
X0195140Y0013243D01*
X0195056Y0013109D01*
X0194967Y0012978D01*
X0194876Y0012849D01*
X0194781Y0012722D01*
X0194684Y0012597D01*
X0194583Y0012475D01*
X0194479Y0012356D01*
X0194372Y0012239D01*
X0194262Y0012125D01*
X0194149Y0012014D01*
X0194034Y0011905D01*
X0193916Y0011800D01*
X0193795Y0011698D01*
X0193672Y0011598D01*
X0193546Y0011502D01*
X0193418Y0011409D01*
X0193288Y0011319D01*
X0193155Y0011233D01*
X0193020Y0011149D01*
X0192884Y0011070D01*
X0192745Y0010993D01*
X0192604Y0010921D01*
X0192462Y0010851D01*
X0192318Y0010786D01*
X0192172Y0010724D01*
X0192025Y0010666D01*
X0191876Y0010611D01*
X0191726Y0010560D01*
X0191575Y0010513D01*
X0191423Y0010470D01*
X0191270Y0010431D01*
X0191115Y0010395D01*
X0190960Y0010364D01*
X0190804Y0010336D01*
X0190648Y0010312D01*
X0190491Y0010292D01*
X0190333Y0010276D01*
X0190176Y0010264D01*
X0190017Y0010256D01*
X0189859Y0010252D01*
X0189701Y0010252D01*
X0189543Y0010256D01*
X0189384Y0010264D01*
X0189227Y0010276D01*
X0189069Y0010292D01*
X0188912Y0010312D01*
X0188756Y0010336D01*
X0188600Y0010364D01*
X0188445Y0010395D01*
X0188290Y0010431D01*
X0188137Y0010470D01*
X0187985Y0010513D01*
X0187834Y0010560D01*
X0187684Y0010611D01*
X0187535Y0010666D01*
X0187388Y0010724D01*
X0187242Y0010786D01*
X0187098Y0010851D01*
X0186956Y0010921D01*
X0186815Y0010993D01*
X0186676Y0011070D01*
X0186540Y0011149D01*
X0186405Y0011233D01*
X0186272Y0011319D01*
X0186142Y0011409D01*
X0186014Y0011502D01*
X0185888Y0011598D01*
X0185765Y0011698D01*
X0185644Y0011800D01*
X0185526Y0011905D01*
X0185411Y0012014D01*
X0185298Y0012125D01*
X0185188Y0012239D01*
X0185081Y0012356D01*
X0184977Y0012475D01*
X0184876Y0012597D01*
X0184779Y0012722D01*
X0184684Y0012849D01*
X0184593Y0012978D01*
X0184504Y0013109D01*
X0184420Y0013243D01*
X0184338Y0013379D01*
X0184260Y0013516D01*
X0184186Y0013656D01*
X0184115Y0013798D01*
X0184047Y0013941D01*
X0183983Y0014086D01*
X0183923Y0014232D01*
X0183867Y0014380D01*
X0183814Y0014529D01*
X0183765Y0014680D01*
X0183720Y0014832D01*
X0183679Y0014985D01*
X0183641Y0015138D01*
X0183608Y0015293D01*
X0183578Y0015449D01*
X0183552Y0015605D01*
X0183531Y0015762D01*
X0183513Y0015919D01*
X0183499Y0016077D01*
X0183489Y0016235D01*
X0183483Y0016393D01*
X0183481Y0016551D01*
X0189780Y0004740D02*
X0190065Y0004743D01*
X0190351Y0004754D01*
X0190636Y0004771D01*
X0190920Y0004795D01*
X0191204Y0004826D01*
X0191487Y0004864D01*
X0191768Y0004909D01*
X0192049Y0004960D01*
X0192329Y0005018D01*
X0192607Y0005083D01*
X0192883Y0005155D01*
X0193157Y0005233D01*
X0193430Y0005318D01*
X0193700Y0005410D01*
X0193968Y0005508D01*
X0194234Y0005612D01*
X0194497Y0005723D01*
X0194757Y0005840D01*
X0195015Y0005963D01*
X0195269Y0006093D01*
X0195520Y0006229D01*
X0195768Y0006370D01*
X0196012Y0006518D01*
X0196253Y0006671D01*
X0196489Y0006831D01*
X0196722Y0006996D01*
X0196951Y0007166D01*
X0197176Y0007342D01*
X0197396Y0007524D01*
X0197612Y0007710D01*
X0197823Y0007902D01*
X0198030Y0008099D01*
X0198232Y0008301D01*
X0198429Y0008508D01*
X0198621Y0008719D01*
X0198807Y0008935D01*
X0198989Y0009155D01*
X0199165Y0009380D01*
X0199335Y0009609D01*
X0199500Y0009842D01*
X0199660Y0010078D01*
X0199813Y0010319D01*
X0199961Y0010563D01*
X0200102Y0010811D01*
X0200238Y0011062D01*
X0200368Y0011316D01*
X0200491Y0011574D01*
X0200608Y0011834D01*
X0200719Y0012097D01*
X0200823Y0012363D01*
X0200921Y0012631D01*
X0201013Y0012901D01*
X0201098Y0013174D01*
X0201176Y0013448D01*
X0201248Y0013724D01*
X0201313Y0014002D01*
X0201371Y0014282D01*
X0201422Y0014563D01*
X0201467Y0014844D01*
X0201505Y0015127D01*
X0201536Y0015411D01*
X0201560Y0015695D01*
X0201577Y0015980D01*
X0201588Y0016266D01*
X0201591Y0016551D01*
X0189780Y0004740D02*
X0016551Y0004740D01*
X0010252Y0016551D02*
X0010254Y0016709D01*
X0010260Y0016867D01*
X0010270Y0017025D01*
X0010284Y0017183D01*
X0010302Y0017340D01*
X0010323Y0017497D01*
X0010349Y0017653D01*
X0010379Y0017809D01*
X0010412Y0017964D01*
X0010450Y0018117D01*
X0010491Y0018270D01*
X0010536Y0018422D01*
X0010585Y0018573D01*
X0010638Y0018722D01*
X0010694Y0018870D01*
X0010754Y0019016D01*
X0010818Y0019161D01*
X0010886Y0019304D01*
X0010957Y0019446D01*
X0011031Y0019586D01*
X0011109Y0019723D01*
X0011191Y0019859D01*
X0011275Y0019993D01*
X0011364Y0020124D01*
X0011455Y0020253D01*
X0011550Y0020380D01*
X0011647Y0020505D01*
X0011748Y0020627D01*
X0011852Y0020746D01*
X0011959Y0020863D01*
X0012069Y0020977D01*
X0012182Y0021088D01*
X0012297Y0021197D01*
X0012415Y0021302D01*
X0012536Y0021404D01*
X0012659Y0021504D01*
X0012785Y0021600D01*
X0012913Y0021693D01*
X0013043Y0021783D01*
X0013176Y0021869D01*
X0013311Y0021953D01*
X0013447Y0022032D01*
X0013586Y0022109D01*
X0013727Y0022181D01*
X0013869Y0022251D01*
X0014013Y0022316D01*
X0014159Y0022378D01*
X0014306Y0022436D01*
X0014455Y0022491D01*
X0014605Y0022542D01*
X0014756Y0022589D01*
X0014908Y0022632D01*
X0015061Y0022671D01*
X0015216Y0022707D01*
X0015371Y0022738D01*
X0015527Y0022766D01*
X0015683Y0022790D01*
X0015840Y0022810D01*
X0015998Y0022826D01*
X0016155Y0022838D01*
X0016314Y0022846D01*
X0016472Y0022850D01*
X0016630Y0022850D01*
X0016788Y0022846D01*
X0016947Y0022838D01*
X0017104Y0022826D01*
X0017262Y0022810D01*
X0017419Y0022790D01*
X0017575Y0022766D01*
X0017731Y0022738D01*
X0017886Y0022707D01*
X0018041Y0022671D01*
X0018194Y0022632D01*
X0018346Y0022589D01*
X0018497Y0022542D01*
X0018647Y0022491D01*
X0018796Y0022436D01*
X0018943Y0022378D01*
X0019089Y0022316D01*
X0019233Y0022251D01*
X0019375Y0022181D01*
X0019516Y0022109D01*
X0019655Y0022032D01*
X0019791Y0021953D01*
X0019926Y0021869D01*
X0020059Y0021783D01*
X0020189Y0021693D01*
X0020317Y0021600D01*
X0020443Y0021504D01*
X0020566Y0021404D01*
X0020687Y0021302D01*
X0020805Y0021197D01*
X0020920Y0021088D01*
X0021033Y0020977D01*
X0021143Y0020863D01*
X0021250Y0020746D01*
X0021354Y0020627D01*
X0021455Y0020505D01*
X0021552Y0020380D01*
X0021647Y0020253D01*
X0021738Y0020124D01*
X0021827Y0019993D01*
X0021911Y0019859D01*
X0021993Y0019723D01*
X0022071Y0019586D01*
X0022145Y0019446D01*
X0022216Y0019304D01*
X0022284Y0019161D01*
X0022348Y0019016D01*
X0022408Y0018870D01*
X0022464Y0018722D01*
X0022517Y0018573D01*
X0022566Y0018422D01*
X0022611Y0018270D01*
X0022652Y0018117D01*
X0022690Y0017964D01*
X0022723Y0017809D01*
X0022753Y0017653D01*
X0022779Y0017497D01*
X0022800Y0017340D01*
X0022818Y0017183D01*
X0022832Y0017025D01*
X0022842Y0016867D01*
X0022848Y0016709D01*
X0022850Y0016551D01*
X0022848Y0016393D01*
X0022842Y0016235D01*
X0022832Y0016077D01*
X0022818Y0015919D01*
X0022800Y0015762D01*
X0022779Y0015605D01*
X0022753Y0015449D01*
X0022723Y0015293D01*
X0022690Y0015138D01*
X0022652Y0014985D01*
X0022611Y0014832D01*
X0022566Y0014680D01*
X0022517Y0014529D01*
X0022464Y0014380D01*
X0022408Y0014232D01*
X0022348Y0014086D01*
X0022284Y0013941D01*
X0022216Y0013798D01*
X0022145Y0013656D01*
X0022071Y0013516D01*
X0021993Y0013379D01*
X0021911Y0013243D01*
X0021827Y0013109D01*
X0021738Y0012978D01*
X0021647Y0012849D01*
X0021552Y0012722D01*
X0021455Y0012597D01*
X0021354Y0012475D01*
X0021250Y0012356D01*
X0021143Y0012239D01*
X0021033Y0012125D01*
X0020920Y0012014D01*
X0020805Y0011905D01*
X0020687Y0011800D01*
X0020566Y0011698D01*
X0020443Y0011598D01*
X0020317Y0011502D01*
X0020189Y0011409D01*
X0020059Y0011319D01*
X0019926Y0011233D01*
X0019791Y0011149D01*
X0019655Y0011070D01*
X0019516Y0010993D01*
X0019375Y0010921D01*
X0019233Y0010851D01*
X0019089Y0010786D01*
X0018943Y0010724D01*
X0018796Y0010666D01*
X0018647Y0010611D01*
X0018497Y0010560D01*
X0018346Y0010513D01*
X0018194Y0010470D01*
X0018041Y0010431D01*
X0017886Y0010395D01*
X0017731Y0010364D01*
X0017575Y0010336D01*
X0017419Y0010312D01*
X0017262Y0010292D01*
X0017104Y0010276D01*
X0016947Y0010264D01*
X0016788Y0010256D01*
X0016630Y0010252D01*
X0016472Y0010252D01*
X0016314Y0010256D01*
X0016155Y0010264D01*
X0015998Y0010276D01*
X0015840Y0010292D01*
X0015683Y0010312D01*
X0015527Y0010336D01*
X0015371Y0010364D01*
X0015216Y0010395D01*
X0015061Y0010431D01*
X0014908Y0010470D01*
X0014756Y0010513D01*
X0014605Y0010560D01*
X0014455Y0010611D01*
X0014306Y0010666D01*
X0014159Y0010724D01*
X0014013Y0010786D01*
X0013869Y0010851D01*
X0013727Y0010921D01*
X0013586Y0010993D01*
X0013447Y0011070D01*
X0013311Y0011149D01*
X0013176Y0011233D01*
X0013043Y0011319D01*
X0012913Y0011409D01*
X0012785Y0011502D01*
X0012659Y0011598D01*
X0012536Y0011698D01*
X0012415Y0011800D01*
X0012297Y0011905D01*
X0012182Y0012014D01*
X0012069Y0012125D01*
X0011959Y0012239D01*
X0011852Y0012356D01*
X0011748Y0012475D01*
X0011647Y0012597D01*
X0011550Y0012722D01*
X0011455Y0012849D01*
X0011364Y0012978D01*
X0011275Y0013109D01*
X0011191Y0013243D01*
X0011109Y0013379D01*
X0011031Y0013516D01*
X0010957Y0013656D01*
X0010886Y0013798D01*
X0010818Y0013941D01*
X0010754Y0014086D01*
X0010694Y0014232D01*
X0010638Y0014380D01*
X0010585Y0014529D01*
X0010536Y0014680D01*
X0010491Y0014832D01*
X0010450Y0014985D01*
X0010412Y0015138D01*
X0010379Y0015293D01*
X0010349Y0015449D01*
X0010323Y0015605D01*
X0010302Y0015762D01*
X0010284Y0015919D01*
X0010270Y0016077D01*
X0010260Y0016235D01*
X0010254Y0016393D01*
X0010252Y0016551D01*
X0004740Y0016551D02*
X0004743Y0016266D01*
X0004754Y0015980D01*
X0004771Y0015695D01*
X0004795Y0015411D01*
X0004826Y0015127D01*
X0004864Y0014844D01*
X0004909Y0014563D01*
X0004960Y0014282D01*
X0005018Y0014002D01*
X0005083Y0013724D01*
X0005155Y0013448D01*
X0005233Y0013174D01*
X0005318Y0012901D01*
X0005410Y0012631D01*
X0005508Y0012363D01*
X0005612Y0012097D01*
X0005723Y0011834D01*
X0005840Y0011574D01*
X0005963Y0011316D01*
X0006093Y0011062D01*
X0006229Y0010811D01*
X0006370Y0010563D01*
X0006518Y0010319D01*
X0006671Y0010078D01*
X0006831Y0009842D01*
X0006996Y0009609D01*
X0007166Y0009380D01*
X0007342Y0009155D01*
X0007524Y0008935D01*
X0007710Y0008719D01*
X0007902Y0008508D01*
X0008099Y0008301D01*
X0008301Y0008099D01*
X0008508Y0007902D01*
X0008719Y0007710D01*
X0008935Y0007524D01*
X0009155Y0007342D01*
X0009380Y0007166D01*
X0009609Y0006996D01*
X0009842Y0006831D01*
X0010078Y0006671D01*
X0010319Y0006518D01*
X0010563Y0006370D01*
X0010811Y0006229D01*
X0011062Y0006093D01*
X0011316Y0005963D01*
X0011574Y0005840D01*
X0011834Y0005723D01*
X0012097Y0005612D01*
X0012363Y0005508D01*
X0012631Y0005410D01*
X0012901Y0005318D01*
X0013174Y0005233D01*
X0013448Y0005155D01*
X0013724Y0005083D01*
X0014002Y0005018D01*
X0014282Y0004960D01*
X0014563Y0004909D01*
X0014844Y0004864D01*
X0015127Y0004826D01*
X0015411Y0004795D01*
X0015695Y0004771D01*
X0015980Y0004754D01*
X0016266Y0004743D01*
X0016551Y0004740D01*
D11*
X0123591Y0126504D03*
X0123591Y0140677D03*
X0194740Y0098677D03*
X0194740Y0084504D03*
D12*
X0194740Y0081591D03*
X0194740Y0101591D03*
X0166591Y0136591D03*
X0136591Y0136591D03*
X0123591Y0143591D03*
X0123591Y0123591D03*
X0108028Y0103953D03*
X0097240Y0103953D03*
X0097240Y0073953D03*
X0108028Y0073953D03*
X0123953Y0063953D03*
X0121591Y0046591D03*
X0131591Y0026591D03*
X0131591Y0016591D03*
X0141591Y0016591D03*
X0151591Y0016591D03*
X0151591Y0026591D03*
X0161591Y0016591D03*
X0171591Y0016591D03*
X0171591Y0026591D03*
X0161591Y0046591D03*
X0153953Y0063953D03*
X0141591Y0046591D03*
X0121591Y0016591D03*
X0111591Y0016591D03*
X0111591Y0026591D03*
X0101591Y0016591D03*
X0101591Y0046591D03*
X0098740Y0172740D03*
X0078740Y0172740D03*
D13*
X0124740Y0109191D02*
X0124740Y0103991D01*
X0134740Y0103991D02*
X0134740Y0109191D01*
X0144740Y0109191D02*
X0144740Y0103991D01*
X0154740Y0103991D02*
X0154740Y0109191D01*
X0164740Y0109191D02*
X0164740Y0103991D01*
X0174740Y0103991D02*
X0174740Y0109191D01*
X0184740Y0109191D02*
X0184740Y0103991D01*
X0184740Y0079191D02*
X0184740Y0073991D01*
X0174740Y0073991D02*
X0174740Y0079191D01*
X0164740Y0079191D02*
X0164740Y0073991D01*
X0154740Y0073991D02*
X0154740Y0079191D01*
X0144740Y0079191D02*
X0144740Y0073991D01*
X0134740Y0073991D02*
X0134740Y0079191D01*
X0124740Y0079191D02*
X0124740Y0073991D01*
D14*
X0131866Y0063953D03*
X0146039Y0063953D03*
X0144504Y0136591D03*
X0158677Y0136591D03*
D15*
X0146512Y0153047D03*
X0146512Y0160921D03*
X0136669Y0160921D03*
X0136669Y0153047D03*
D16*
X0117890Y0171591D03*
X0165291Y0171591D03*
D17*
X0108028Y0096039D03*
X0097240Y0096039D03*
X0097240Y0081866D03*
X0108028Y0081866D03*
X0101591Y0038677D03*
X0101591Y0024504D03*
X0121591Y0024504D03*
X0121591Y0038677D03*
X0141591Y0038677D03*
X0141591Y0024504D03*
X0161591Y0024504D03*
X0161591Y0038677D03*
D18*
X0171591Y0023677D03*
X0171591Y0019504D03*
X0151591Y0019504D03*
X0151591Y0023677D03*
X0131591Y0023677D03*
X0131591Y0019504D03*
X0111591Y0019504D03*
X0111591Y0023677D03*
D19*
X0058740Y0022740D03*
X0048740Y0022740D03*
X0048740Y0012740D03*
X0038740Y0012740D03*
X0038740Y0022740D03*
X0038740Y0032740D03*
X0038740Y0042740D03*
X0048740Y0042740D03*
X0048740Y0032740D03*
X0058740Y0032740D03*
X0058740Y0042740D03*
X0048740Y0062740D03*
X0038740Y0062740D03*
X0038740Y0072740D03*
X0038740Y0082740D03*
X0038740Y0092740D03*
X0048740Y0092740D03*
X0048740Y0082740D03*
X0048740Y0072740D03*
X0058740Y0072740D03*
X0058740Y0082740D03*
X0058740Y0092740D03*
X0048740Y0112740D03*
X0038740Y0112740D03*
X0038740Y0122740D03*
X0038740Y0132740D03*
X0038740Y0142740D03*
X0048740Y0142740D03*
X0048740Y0132740D03*
X0048740Y0122740D03*
X0058740Y0122740D03*
X0058740Y0132740D03*
X0058740Y0142740D03*
X0048740Y0162740D03*
X0038740Y0162740D03*
X0038740Y0172740D03*
X0038740Y0182740D03*
X0038740Y0192740D03*
X0048740Y0192740D03*
X0048740Y0182740D03*
X0048740Y0172740D03*
X0058740Y0172740D03*
X0058740Y0182740D03*
X0058740Y0192740D03*
X0191591Y0156591D03*
X0191591Y0146591D03*
X0191591Y0136591D03*
X0191591Y0126591D03*
D20*
X0058740Y0112740D03*
X0058740Y0062740D03*
X0058740Y0012740D03*
X0058740Y0162740D03*
D21*
X0078240Y0160940D03*
X0078240Y0158340D03*
X0078240Y0155740D03*
X0078240Y0153140D03*
X0078240Y0150540D03*
X0078240Y0147940D03*
X0078240Y0145340D03*
X0078217Y0142740D03*
X0078240Y0140140D03*
X0078240Y0137540D03*
X0078240Y0134940D03*
X0078240Y0132340D03*
X0078240Y0129740D03*
X0078240Y0127140D03*
X0101240Y0127140D03*
X0101240Y0129740D03*
X0101240Y0132340D03*
X0101240Y0134940D03*
X0101240Y0137540D03*
X0101240Y0140140D03*
X0101264Y0142740D03*
X0101240Y0145340D03*
X0101240Y0147940D03*
X0101240Y0150540D03*
X0101240Y0153140D03*
X0101240Y0155740D03*
X0101240Y0158340D03*
X0101240Y0160940D03*
D22*
X0095827Y0172740D03*
X0081654Y0172740D03*
D23*
X0129740Y0164740D02*
X0129740Y0130240D01*
X0134740Y0125240D01*
X0134740Y0106591D01*
X0134740Y0094740D02*
X0154740Y0094740D01*
X0159740Y0099740D01*
X0159740Y0119740D01*
X0162240Y0117240D01*
X0189740Y0117240D01*
X0194740Y0112240D01*
X0194740Y0101591D01*
X0194740Y0098677D01*
X0184740Y0106591D02*
X0184740Y0089740D01*
X0179740Y0084740D01*
X0179740Y0057240D01*
X0169740Y0047240D01*
X0162240Y0047240D01*
X0161591Y0046591D01*
X0153953Y0063953D02*
X0154740Y0064740D01*
X0154740Y0076591D01*
X0134740Y0094740D02*
X0124091Y0084091D01*
X0124091Y0077240D01*
X0124740Y0076591D01*
X0124740Y0064740D01*
X0123953Y0063953D01*
X0116453Y0073953D02*
X0119740Y0077240D01*
X0124091Y0077240D01*
X0116453Y0073953D02*
X0108028Y0073953D01*
X0097240Y0073953D01*
X0104327Y0027240D02*
X0101591Y0024504D01*
X0101591Y0016591D01*
X0104327Y0027240D02*
X0112240Y0027240D01*
X0111591Y0026591D01*
X0111591Y0023677D01*
X0121591Y0024504D02*
X0121591Y0016591D01*
X0121591Y0024504D02*
X0124327Y0027240D01*
X0132240Y0027240D01*
X0131591Y0026591D01*
X0131591Y0023677D01*
X0141591Y0024504D02*
X0141591Y0020390D01*
X0142240Y0017240D01*
X0141591Y0016591D01*
X0141591Y0024504D02*
X0144327Y0027240D01*
X0152240Y0027240D01*
X0151591Y0026591D01*
X0151591Y0023677D01*
X0161591Y0024504D02*
X0162240Y0023854D01*
X0162240Y0022240D01*
X0162240Y0017240D01*
X0161591Y0016591D01*
X0162240Y0023854D02*
X0162240Y0027240D01*
X0172240Y0027240D01*
X0171591Y0026591D01*
X0171591Y0023677D01*
X0171591Y0019504D02*
X0171591Y0016591D01*
X0159740Y0119740D02*
X0159740Y0129740D01*
X0166591Y0136591D01*
X0167240Y0137240D01*
X0167240Y0142240D01*
X0171591Y0146591D01*
X0177740Y0146591D01*
X0191591Y0146591D01*
X0166591Y0136591D02*
X0158677Y0136591D01*
X0144504Y0136591D02*
X0136591Y0136591D01*
X0146512Y0160921D02*
X0146512Y0165469D01*
X0144740Y0167240D01*
X0132240Y0167240D01*
X0129740Y0164740D01*
D24*
X0123591Y0126504D02*
X0123591Y0123591D01*
X0108028Y0103953D02*
X0108028Y0096039D01*
X0097240Y0096039D02*
X0097240Y0103953D01*
X0097240Y0081866D02*
X0097240Y0073953D01*
X0108028Y0073953D02*
X0108028Y0081866D01*
X0123953Y0063953D02*
X0131866Y0063953D01*
X0146039Y0063953D02*
X0153953Y0063953D01*
X0161591Y0046591D02*
X0161591Y0038677D01*
X0141591Y0038677D02*
X0141591Y0046591D01*
X0121591Y0046591D02*
X0121591Y0038677D01*
X0101591Y0038677D02*
X0101591Y0046591D01*
D25*
X0048740Y0042740D02*
X0048740Y0032740D01*
X0048740Y0022740D01*
X0048740Y0012740D01*
X0048740Y0042740D02*
X0048740Y0062740D01*
X0048740Y0072740D01*
X0048740Y0082740D01*
X0048740Y0092740D01*
X0048740Y0112740D02*
X0048740Y0122740D01*
X0048740Y0132740D01*
X0048740Y0142740D01*
X0048740Y0154591D01*
X0050803Y0152921D01*
X0063496Y0152921D01*
X0068283Y0157709D01*
X0068283Y0180283D01*
X0072740Y0184740D01*
X0093740Y0184740D01*
X0172740Y0184740D01*
X0180740Y0176740D01*
X0180740Y0149591D01*
X0177740Y0146591D01*
X0048740Y0154591D02*
X0048740Y0162740D01*
X0048740Y0172740D01*
X0048740Y0182740D01*
X0048740Y0192740D01*
D26*
X0093740Y0184740D02*
X0098740Y0179740D01*
X0098740Y0172740D01*
X0095827Y0172740D01*
X0098740Y0172740D02*
X0105740Y0172740D01*
X0106740Y0171740D01*
X0106740Y0162740D01*
X0104940Y0160940D01*
X0101240Y0160940D01*
D27*
X0101240Y0158340D02*
X0109140Y0158340D01*
X0109740Y0157740D01*
X0106740Y0155740D02*
X0108740Y0153740D01*
X0106740Y0155740D02*
X0101240Y0155740D01*
X0101240Y0152591D02*
X0101240Y0150540D01*
X0097878Y0150540D01*
X0097878Y0149740D01*
X0097986Y0149336D01*
X0098041Y0149240D01*
X0097986Y0149145D01*
X0097878Y0148740D01*
X0097878Y0148057D01*
X0095324Y0150610D01*
X0094167Y0151090D01*
X0081602Y0151090D01*
X0081602Y0151340D01*
X0081494Y0151745D01*
X0081439Y0151840D01*
X0081494Y0151936D01*
X0081602Y0152340D01*
X0081602Y0153140D01*
X0078240Y0153140D01*
X0074878Y0153140D01*
X0074878Y0152340D01*
X0074986Y0151936D01*
X0075041Y0151840D01*
X0074986Y0151745D01*
X0074878Y0151340D01*
X0074878Y0150559D01*
X0074299Y0149980D01*
X0073909Y0149040D01*
X0073909Y0146841D01*
X0073992Y0146640D01*
X0073909Y0146440D01*
X0073909Y0144241D01*
X0073981Y0144069D01*
X0073886Y0143840D01*
X0073886Y0141641D01*
X0073981Y0141412D01*
X0073909Y0141240D01*
X0073909Y0139041D01*
X0073992Y0138840D01*
X0073909Y0138640D01*
X0073909Y0136441D01*
X0073992Y0136240D01*
X0073909Y0136040D01*
X0073909Y0133841D01*
X0073992Y0133640D01*
X0073909Y0133440D01*
X0073909Y0131241D01*
X0073992Y0131040D01*
X0073909Y0130840D01*
X0073909Y0128641D01*
X0074299Y0127700D01*
X0074878Y0127121D01*
X0074878Y0126340D01*
X0074986Y0125936D01*
X0075196Y0125573D01*
X0075492Y0125277D01*
X0075855Y0125067D01*
X0076259Y0124959D01*
X0078240Y0124959D01*
X0078240Y0126591D01*
X0078240Y0126591D01*
X0078240Y0124959D01*
X0079591Y0124959D01*
X0079591Y0124045D01*
X0074956Y0119410D01*
X0074070Y0118524D01*
X0073591Y0117367D01*
X0073591Y0098045D01*
X0071436Y0095890D01*
X0064467Y0095890D01*
X0064247Y0096420D01*
X0062420Y0098247D01*
X0060032Y0099236D01*
X0057448Y0099236D01*
X0055060Y0098247D01*
X0053740Y0096927D01*
X0052420Y0098247D01*
X0050032Y0099236D01*
X0047448Y0099236D01*
X0045060Y0098247D01*
X0043233Y0096420D01*
X0043112Y0096127D01*
X0042956Y0096341D01*
X0042341Y0096956D01*
X0041637Y0097468D01*
X0040862Y0097863D01*
X0040035Y0098132D01*
X0039175Y0098268D01*
X0039134Y0098268D01*
X0039134Y0093134D01*
X0038346Y0093134D01*
X0038346Y0092346D01*
X0033213Y0092346D01*
X0033213Y0092305D01*
X0033349Y0091446D01*
X0033618Y0090618D01*
X0034013Y0089843D01*
X0034524Y0089139D01*
X0035139Y0088524D01*
X0035843Y0088013D01*
X0036378Y0087740D01*
X0035843Y0087468D01*
X0035139Y0086956D01*
X0034524Y0086341D01*
X0034013Y0085637D01*
X0033618Y0084862D01*
X0033349Y0084035D01*
X0033213Y0083175D01*
X0033213Y0083134D01*
X0038346Y0083134D01*
X0038346Y0082346D01*
X0033213Y0082346D01*
X0033213Y0082305D01*
X0033349Y0081446D01*
X0033618Y0080618D01*
X0034013Y0079843D01*
X0034524Y0079139D01*
X0035139Y0078524D01*
X0035843Y0078013D01*
X0036378Y0077740D01*
X0035843Y0077468D01*
X0035139Y0076956D01*
X0034524Y0076341D01*
X0034013Y0075637D01*
X0033618Y0074862D01*
X0033349Y0074035D01*
X0033213Y0073175D01*
X0033213Y0073134D01*
X0038346Y0073134D01*
X0038346Y0072346D01*
X0033213Y0072346D01*
X0033213Y0072305D01*
X0033349Y0071446D01*
X0033618Y0070618D01*
X0034013Y0069843D01*
X0034524Y0069139D01*
X0035139Y0068524D01*
X0035843Y0068013D01*
X0036378Y0067740D01*
X0035843Y0067468D01*
X0035139Y0066956D01*
X0034524Y0066341D01*
X0034013Y0065637D01*
X0033618Y0064862D01*
X0033349Y0064035D01*
X0033213Y0063175D01*
X0033213Y0063134D01*
X0038346Y0063134D01*
X0038346Y0062346D01*
X0039134Y0062346D01*
X0039134Y0057213D01*
X0039175Y0057213D01*
X0040035Y0057349D01*
X0040862Y0057618D01*
X0041637Y0058013D01*
X0042341Y0058524D01*
X0042956Y0059139D01*
X0043112Y0059353D01*
X0043233Y0059060D01*
X0044213Y0058081D01*
X0044213Y0047399D01*
X0043233Y0046420D01*
X0043112Y0046127D01*
X0042956Y0046341D01*
X0042341Y0046956D01*
X0041637Y0047468D01*
X0040862Y0047863D01*
X0040035Y0048132D01*
X0039175Y0048268D01*
X0039134Y0048268D01*
X0039134Y0043134D01*
X0038346Y0043134D01*
X0038346Y0042346D01*
X0033213Y0042346D01*
X0033213Y0042305D01*
X0033349Y0041446D01*
X0033618Y0040618D01*
X0034013Y0039843D01*
X0034524Y0039139D01*
X0035139Y0038524D01*
X0035843Y0038013D01*
X0036378Y0037740D01*
X0035843Y0037468D01*
X0035139Y0036956D01*
X0034524Y0036341D01*
X0034013Y0035637D01*
X0033618Y0034862D01*
X0033349Y0034035D01*
X0033213Y0033175D01*
X0033213Y0033134D01*
X0038346Y0033134D01*
X0038346Y0032346D01*
X0033213Y0032346D01*
X0033213Y0032305D01*
X0033349Y0031446D01*
X0033618Y0030618D01*
X0034013Y0029843D01*
X0034524Y0029139D01*
X0035139Y0028524D01*
X0035843Y0028013D01*
X0036378Y0027740D01*
X0035843Y0027468D01*
X0035139Y0026956D01*
X0034524Y0026341D01*
X0034013Y0025637D01*
X0033618Y0024862D01*
X0033349Y0024035D01*
X0033213Y0023175D01*
X0033213Y0023134D01*
X0038346Y0023134D01*
X0038346Y0022346D01*
X0033213Y0022346D01*
X0033213Y0022305D01*
X0033349Y0021446D01*
X0033618Y0020618D01*
X0034013Y0019843D01*
X0034524Y0019139D01*
X0035139Y0018524D01*
X0035843Y0018013D01*
X0036378Y0017740D01*
X0035843Y0017468D01*
X0035139Y0016956D01*
X0034524Y0016341D01*
X0034013Y0015637D01*
X0033618Y0014862D01*
X0033349Y0014035D01*
X0033213Y0013175D01*
X0033213Y0013134D01*
X0038346Y0013134D01*
X0038346Y0012346D01*
X0033213Y0012346D01*
X0033213Y0012305D01*
X0033349Y0011446D01*
X0033618Y0010618D01*
X0034013Y0009843D01*
X0034524Y0009139D01*
X0035139Y0008524D01*
X0035843Y0008013D01*
X0036618Y0007618D01*
X0037446Y0007349D01*
X0037758Y0007299D01*
X0029021Y0007299D01*
X0029132Y0007410D01*
X0031341Y0011746D01*
X0032102Y0016551D01*
X0031341Y0021357D01*
X0029132Y0025692D01*
X0025692Y0029132D01*
X0021357Y0031341D01*
X0021357Y0031341D01*
X0016551Y0032102D01*
X0011746Y0031341D01*
X0011746Y0031341D01*
X0007410Y0029132D01*
X0007299Y0029021D01*
X0007299Y0177310D01*
X0007410Y0177198D01*
X0007410Y0177198D01*
X0011746Y0174989D01*
X0016551Y0174228D01*
X0021357Y0174989D01*
X0025692Y0177198D01*
X0029132Y0180639D01*
X0031341Y0184974D01*
X0032102Y0189780D01*
X0031341Y0194585D01*
X0029132Y0198920D01*
X0029021Y0199031D01*
X0046954Y0199031D01*
X0045060Y0198247D01*
X0043233Y0196420D01*
X0043112Y0196127D01*
X0042956Y0196341D01*
X0042341Y0196956D01*
X0041637Y0197468D01*
X0040862Y0197863D01*
X0040035Y0198132D01*
X0039175Y0198268D01*
X0039134Y0198268D01*
X0039134Y0193134D01*
X0038346Y0193134D01*
X0038346Y0192346D01*
X0033213Y0192346D01*
X0033213Y0192305D01*
X0033349Y0191446D01*
X0033618Y0190618D01*
X0034013Y0189843D01*
X0034524Y0189139D01*
X0035139Y0188524D01*
X0035843Y0188013D01*
X0036378Y0187740D01*
X0035843Y0187468D01*
X0035139Y0186956D01*
X0034524Y0186341D01*
X0034013Y0185637D01*
X0033618Y0184862D01*
X0033349Y0184035D01*
X0033213Y0183175D01*
X0033213Y0183134D01*
X0038346Y0183134D01*
X0038346Y0182346D01*
X0033213Y0182346D01*
X0033213Y0182305D01*
X0033349Y0181446D01*
X0033618Y0180618D01*
X0034013Y0179843D01*
X0034524Y0179139D01*
X0035139Y0178524D01*
X0035843Y0178013D01*
X0036378Y0177740D01*
X0035843Y0177468D01*
X0035139Y0176956D01*
X0034524Y0176341D01*
X0034013Y0175637D01*
X0033618Y0174862D01*
X0033349Y0174035D01*
X0033213Y0173175D01*
X0033213Y0173134D01*
X0038346Y0173134D01*
X0038346Y0172346D01*
X0033213Y0172346D01*
X0033213Y0172305D01*
X0033349Y0171446D01*
X0033618Y0170618D01*
X0034013Y0169843D01*
X0034524Y0169139D01*
X0035139Y0168524D01*
X0035843Y0168013D01*
X0036378Y0167740D01*
X0035843Y0167468D01*
X0035139Y0166956D01*
X0034524Y0166341D01*
X0034013Y0165637D01*
X0033618Y0164862D01*
X0033349Y0164035D01*
X0033213Y0163175D01*
X0033213Y0163134D01*
X0038346Y0163134D01*
X0038346Y0162346D01*
X0039134Y0162346D01*
X0039134Y0157213D01*
X0039175Y0157213D01*
X0040035Y0157349D01*
X0040862Y0157618D01*
X0041637Y0158013D01*
X0042341Y0158524D01*
X0042956Y0159139D01*
X0043112Y0159353D01*
X0043233Y0159060D01*
X0044213Y0158081D01*
X0044213Y0155246D01*
X0044143Y0155011D01*
X0044213Y0154352D01*
X0044213Y0147399D01*
X0043233Y0146420D01*
X0043112Y0146127D01*
X0042956Y0146341D01*
X0042341Y0146956D01*
X0041637Y0147468D01*
X0040862Y0147863D01*
X0040035Y0148132D01*
X0039175Y0148268D01*
X0039134Y0148268D01*
X0039134Y0143134D01*
X0038346Y0143134D01*
X0038346Y0142346D01*
X0033213Y0142346D01*
X0033213Y0142305D01*
X0033349Y0141446D01*
X0033618Y0140618D01*
X0034013Y0139843D01*
X0034524Y0139139D01*
X0035139Y0138524D01*
X0035843Y0138013D01*
X0036378Y0137740D01*
X0035843Y0137468D01*
X0035139Y0136956D01*
X0034524Y0136341D01*
X0034013Y0135637D01*
X0033618Y0134862D01*
X0033349Y0134035D01*
X0033213Y0133175D01*
X0033213Y0133134D01*
X0038346Y0133134D01*
X0038346Y0132346D01*
X0033213Y0132346D01*
X0033213Y0132305D01*
X0033349Y0131446D01*
X0033618Y0130618D01*
X0034013Y0129843D01*
X0034524Y0129139D01*
X0035139Y0128524D01*
X0035843Y0128013D01*
X0036378Y0127740D01*
X0035843Y0127468D01*
X0035139Y0126956D01*
X0034524Y0126341D01*
X0034013Y0125637D01*
X0033618Y0124862D01*
X0033349Y0124035D01*
X0033213Y0123175D01*
X0033213Y0123134D01*
X0038346Y0123134D01*
X0038346Y0122346D01*
X0033213Y0122346D01*
X0033213Y0122305D01*
X0033349Y0121446D01*
X0033618Y0120618D01*
X0034013Y0119843D01*
X0034524Y0119139D01*
X0035139Y0118524D01*
X0035843Y0118013D01*
X0036378Y0117740D01*
X0035843Y0117468D01*
X0035139Y0116956D01*
X0034524Y0116341D01*
X0034013Y0115637D01*
X0033618Y0114862D01*
X0033349Y0114035D01*
X0033213Y0113175D01*
X0033213Y0113134D01*
X0038346Y0113134D01*
X0038346Y0112346D01*
X0039134Y0112346D01*
X0039134Y0107213D01*
X0039175Y0107213D01*
X0040035Y0107349D01*
X0040862Y0107618D01*
X0041637Y0108013D01*
X0042341Y0108524D01*
X0042956Y0109139D01*
X0043112Y0109353D01*
X0043233Y0109060D01*
X0045060Y0107233D01*
X0047448Y0106244D01*
X0050032Y0106244D01*
X0052420Y0107233D01*
X0052606Y0107420D01*
X0052634Y0107354D01*
X0053354Y0106634D01*
X0054294Y0106244D01*
X0063186Y0106244D01*
X0064127Y0106634D01*
X0064847Y0107354D01*
X0065236Y0108294D01*
X0065236Y0117186D01*
X0064847Y0118127D01*
X0064127Y0118847D01*
X0064061Y0118874D01*
X0064247Y0119060D01*
X0065236Y0121448D01*
X0065236Y0124032D01*
X0064247Y0126420D01*
X0062927Y0127740D01*
X0064247Y0129060D01*
X0065236Y0131448D01*
X0065236Y0134032D01*
X0064247Y0136420D01*
X0062927Y0137740D01*
X0064247Y0139060D01*
X0065236Y0141448D01*
X0065236Y0144032D01*
X0064247Y0146420D01*
X0062420Y0148247D01*
X0062066Y0148394D01*
X0064397Y0148394D01*
X0066061Y0149083D01*
X0070848Y0153870D01*
X0072122Y0155144D01*
X0072811Y0156808D01*
X0072811Y0178408D01*
X0074616Y0180213D01*
X0093535Y0180213D01*
X0095394Y0178354D01*
X0095394Y0177959D01*
X0095283Y0177913D01*
X0094638Y0177268D01*
X0090200Y0177268D01*
X0089259Y0176878D01*
X0088539Y0176158D01*
X0088218Y0175384D01*
X0088044Y0175685D01*
X0087748Y0175981D01*
X0087386Y0176191D01*
X0086981Y0176299D01*
X0082441Y0176299D01*
X0082085Y0176656D01*
X0081431Y0177131D01*
X0080711Y0177498D01*
X0079942Y0177748D01*
X0079144Y0177874D01*
X0078937Y0177874D01*
X0078937Y0176299D01*
X0078543Y0176299D01*
X0078543Y0177874D01*
X0078336Y0177874D01*
X0077538Y0177748D01*
X0076769Y0177498D01*
X0076049Y0177131D01*
X0075396Y0176656D01*
X0074824Y0176085D01*
X0074349Y0175431D01*
X0073982Y0174711D01*
X0073733Y0173942D01*
X0073606Y0173144D01*
X0073606Y0172937D01*
X0078543Y0172937D01*
X0078543Y0172543D01*
X0073606Y0172543D01*
X0073606Y0172336D01*
X0073733Y0171538D01*
X0073982Y0170769D01*
X0074349Y0170049D01*
X0074824Y0169396D01*
X0075396Y0168824D01*
X0076049Y0168349D01*
X0076769Y0167982D01*
X0077538Y0167733D01*
X0078336Y0167606D01*
X0078543Y0167606D01*
X0078543Y0169181D01*
X0078937Y0169181D01*
X0078937Y0167606D01*
X0079144Y0167606D01*
X0079942Y0167733D01*
X0080711Y0167982D01*
X0081431Y0168349D01*
X0082085Y0168824D01*
X0082441Y0169181D01*
X0086981Y0169181D01*
X0087386Y0169289D01*
X0087748Y0169499D01*
X0088044Y0169795D01*
X0088218Y0170096D01*
X0088539Y0169322D01*
X0089259Y0168602D01*
X0090200Y0168213D01*
X0094638Y0168213D01*
X0095283Y0167567D01*
X0097526Y0166638D01*
X0099954Y0166638D01*
X0102197Y0167567D01*
X0103394Y0168764D01*
X0103394Y0164287D01*
X0100574Y0164287D01*
X0100099Y0164090D01*
X0098959Y0164090D01*
X0098019Y0163700D01*
X0097299Y0162980D01*
X0096909Y0162040D01*
X0096909Y0159841D01*
X0096992Y0159640D01*
X0096909Y0159440D01*
X0096909Y0157241D01*
X0096992Y0157040D01*
X0096909Y0156840D01*
X0096909Y0154641D01*
X0097299Y0153700D01*
X0097878Y0153121D01*
X0097878Y0152340D01*
X0097986Y0151936D01*
X0098041Y0151840D01*
X0097986Y0151745D01*
X0097878Y0151340D01*
X0097878Y0150540D01*
X0101240Y0150540D01*
X0101240Y0150540D01*
X0101240Y0150540D01*
X0101240Y0150121D01*
X0101240Y0148490D01*
X0101240Y0148490D01*
X0101240Y0150540D01*
X0101240Y0150540D01*
X0104602Y0150540D01*
X0104602Y0150071D01*
X0104664Y0150118D01*
X0104956Y0150410D01*
X0105158Y0150494D01*
X0105333Y0150627D01*
X0105732Y0150732D01*
X0105853Y0150782D01*
X0105236Y0151399D01*
X0104742Y0152591D01*
X0104602Y0152591D01*
X0104602Y0152340D01*
X0104494Y0151936D01*
X0104439Y0151840D01*
X0104494Y0151745D01*
X0104602Y0151340D01*
X0104602Y0150540D01*
X0101240Y0150540D01*
X0101240Y0150540D01*
X0101240Y0152591D01*
X0101240Y0152591D01*
X0101240Y0152192D02*
X0101240Y0152192D01*
X0101240Y0151012D02*
X0101240Y0151012D01*
X0101240Y0149833D02*
X0101240Y0149833D01*
X0101240Y0148653D02*
X0101240Y0148653D01*
X0101240Y0145340D02*
X0105340Y0145340D01*
X0106740Y0147740D01*
X0111740Y0147740D01*
X0114314Y0151012D02*
X0125606Y0151012D01*
X0125606Y0149833D02*
X0115348Y0149833D01*
X0115245Y0150082D02*
X0114082Y0151245D01*
X0112562Y0151874D01*
X0112442Y0151874D01*
X0112874Y0152918D01*
X0112874Y0154562D01*
X0112738Y0154892D01*
X0113245Y0155399D01*
X0113874Y0156918D01*
X0113874Y0158562D01*
X0113245Y0160082D01*
X0112082Y0161245D01*
X0110562Y0161874D01*
X0110004Y0161874D01*
X0110087Y0162074D01*
X0110087Y0166685D01*
X0110187Y0166443D01*
X0112743Y0163887D01*
X0116082Y0162504D01*
X0119697Y0162504D01*
X0123037Y0163887D01*
X0125593Y0166443D01*
X0126976Y0169783D01*
X0126976Y0173398D01*
X0125593Y0176738D01*
X0123037Y0179294D01*
X0120819Y0180213D01*
X0162362Y0180213D01*
X0160144Y0179294D01*
X0157588Y0176738D01*
X0156205Y0173398D01*
X0156205Y0169783D01*
X0157588Y0166443D01*
X0160144Y0163887D01*
X0163484Y0162504D01*
X0167099Y0162504D01*
X0170438Y0163887D01*
X0172995Y0166443D01*
X0174378Y0169783D01*
X0174378Y0173398D01*
X0172995Y0176738D01*
X0170438Y0179294D01*
X0168220Y0180213D01*
X0170865Y0180213D01*
X0176213Y0174865D01*
X0176213Y0151466D01*
X0175471Y0150724D01*
X0170768Y0150724D01*
X0169249Y0150095D01*
X0164899Y0145745D01*
X0163736Y0144582D01*
X0163106Y0143062D01*
X0163106Y0141736D01*
X0162488Y0141118D01*
X0151869Y0141118D01*
X0151591Y0141003D01*
X0151312Y0141118D01*
X0140693Y0141118D01*
X0140047Y0141764D01*
X0137804Y0142693D01*
X0135377Y0142693D01*
X0133874Y0142070D01*
X0133874Y0148165D01*
X0134420Y0147618D01*
X0138918Y0147618D01*
X0141591Y0150291D01*
X0144263Y0147618D01*
X0148761Y0147618D01*
X0151941Y0150798D01*
X0151941Y0155296D01*
X0150253Y0156984D01*
X0151941Y0158672D01*
X0151941Y0163170D01*
X0150646Y0164465D01*
X0150646Y0166291D01*
X0150016Y0167810D01*
X0148245Y0169582D01*
X0147082Y0170745D01*
X0145562Y0171374D01*
X0131418Y0171374D01*
X0129899Y0170745D01*
X0127399Y0168245D01*
X0126236Y0167082D01*
X0125606Y0165562D01*
X0125606Y0148325D01*
X0125561Y0148348D01*
X0124793Y0148598D01*
X0123995Y0148724D01*
X0123787Y0148724D01*
X0123787Y0143787D01*
X0123394Y0143787D01*
X0123394Y0148724D01*
X0123186Y0148724D01*
X0122388Y0148598D01*
X0121620Y0148348D01*
X0120900Y0147981D01*
X0120246Y0147506D01*
X0119675Y0146935D01*
X0119200Y0146281D01*
X0118833Y0145561D01*
X0118583Y0144793D01*
X0118457Y0143995D01*
X0118457Y0143787D01*
X0120031Y0143787D01*
X0120031Y0143394D01*
X0118457Y0143394D01*
X0118457Y0143186D01*
X0118583Y0142388D01*
X0118833Y0141620D01*
X0119200Y0140900D01*
X0119675Y0140246D01*
X0120031Y0139889D01*
X0120031Y0135350D01*
X0120140Y0134945D01*
X0120349Y0134582D01*
X0120645Y0134286D01*
X0120947Y0134112D01*
X0120172Y0133791D01*
X0119453Y0133072D01*
X0119063Y0132131D01*
X0119063Y0127693D01*
X0118417Y0127047D01*
X0117488Y0124804D01*
X0117488Y0122377D01*
X0118417Y0120134D01*
X0120134Y0118417D01*
X0122377Y0117488D01*
X0124804Y0117488D01*
X0127047Y0118417D01*
X0128764Y0120134D01*
X0129693Y0122377D01*
X0129693Y0124441D01*
X0130606Y0123528D01*
X0130606Y0112353D01*
X0130367Y0112113D01*
X0129581Y0110217D01*
X0129581Y0102964D01*
X0130367Y0101068D01*
X0131818Y0099617D01*
X0133714Y0098831D01*
X0133815Y0098831D01*
X0132399Y0098245D01*
X0131236Y0097082D01*
X0120586Y0086432D01*
X0119957Y0084913D01*
X0119957Y0081374D01*
X0118918Y0081374D01*
X0117399Y0080745D01*
X0116236Y0079582D01*
X0114740Y0078087D01*
X0112555Y0078087D01*
X0112555Y0088674D01*
X0112440Y0088953D01*
X0112555Y0089231D01*
X0112555Y0099850D01*
X0113201Y0100496D01*
X0114130Y0102739D01*
X0114130Y0103676D01*
X0116410Y0105956D01*
X0116890Y0107114D01*
X0116890Y0112044D01*
X0117245Y0112399D01*
X0117874Y0113918D01*
X0117874Y0115562D01*
X0117245Y0117082D01*
X0116082Y0118245D01*
X0114562Y0118874D01*
X0112918Y0118874D01*
X0111399Y0118245D01*
X0111240Y0118086D01*
X0111082Y0118245D01*
X0109562Y0118874D01*
X0107918Y0118874D01*
X0106399Y0118245D01*
X0106044Y0117890D01*
X0102614Y0117890D01*
X0101456Y0117410D01*
X0099890Y0115844D01*
X0099890Y0123991D01*
X0104644Y0123991D01*
X0105399Y0123236D01*
X0106918Y0122606D01*
X0108562Y0122606D01*
X0110082Y0123236D01*
X0111245Y0124399D01*
X0111745Y0125606D01*
X0112562Y0125606D01*
X0114082Y0126236D01*
X0115245Y0127399D01*
X0115874Y0128918D01*
X0115874Y0130562D01*
X0115245Y0132082D01*
X0114586Y0132740D01*
X0115245Y0133399D01*
X0115874Y0134918D01*
X0115874Y0136562D01*
X0115245Y0138082D01*
X0114586Y0138740D01*
X0115245Y0139399D01*
X0115874Y0140918D01*
X0115874Y0142562D01*
X0115245Y0144082D01*
X0114586Y0144740D01*
X0115245Y0145399D01*
X0115874Y0146918D01*
X0115874Y0148562D01*
X0115245Y0150082D01*
X0115836Y0148653D02*
X0122736Y0148653D01*
X0123394Y0148653D02*
X0123787Y0148653D01*
X0124445Y0148653D02*
X0125606Y0148653D01*
X0123787Y0147473D02*
X0123394Y0147473D01*
X0123394Y0146294D02*
X0123787Y0146294D01*
X0123787Y0145114D02*
X0123394Y0145114D01*
X0123394Y0143935D02*
X0123787Y0143935D01*
X0123787Y0143394D02*
X0123787Y0141071D01*
X0123394Y0141071D01*
X0123394Y0143394D01*
X0123787Y0143394D01*
X0123787Y0142755D02*
X0123394Y0142755D01*
X0123394Y0141575D02*
X0123787Y0141575D01*
X0123787Y0140283D02*
X0123394Y0140283D01*
X0123394Y0138457D01*
X0123197Y0138457D01*
X0123197Y0134181D01*
X0123984Y0134181D01*
X0123984Y0138457D01*
X0123787Y0138457D01*
X0123787Y0140283D01*
X0123787Y0139216D02*
X0123394Y0139216D01*
X0123197Y0138037D02*
X0123984Y0138037D01*
X0123984Y0136857D02*
X0123197Y0136857D01*
X0123197Y0135677D02*
X0123984Y0135677D01*
X0123984Y0134498D02*
X0123197Y0134498D01*
X0120434Y0134498D02*
X0115700Y0134498D01*
X0115874Y0135677D02*
X0120031Y0135677D01*
X0120031Y0136857D02*
X0115752Y0136857D01*
X0115263Y0138037D02*
X0120031Y0138037D01*
X0120031Y0139216D02*
X0115062Y0139216D01*
X0115658Y0140396D02*
X0119566Y0140396D01*
X0118855Y0141575D02*
X0115874Y0141575D01*
X0115794Y0142755D02*
X0118525Y0142755D01*
X0118457Y0143935D02*
X0115306Y0143935D01*
X0114960Y0145114D02*
X0118688Y0145114D01*
X0119209Y0146294D02*
X0115615Y0146294D01*
X0115874Y0147473D02*
X0120213Y0147473D01*
X0125606Y0152192D02*
X0112573Y0152192D01*
X0112874Y0153371D02*
X0125606Y0153371D01*
X0125606Y0154551D02*
X0112874Y0154551D01*
X0113382Y0155731D02*
X0125606Y0155731D01*
X0125606Y0156910D02*
X0113871Y0156910D01*
X0113874Y0158090D02*
X0125606Y0158090D01*
X0125606Y0159270D02*
X0113581Y0159270D01*
X0112877Y0160449D02*
X0125606Y0160449D01*
X0125606Y0161629D02*
X0111154Y0161629D01*
X0110087Y0162808D02*
X0115347Y0162808D01*
X0112642Y0163988D02*
X0110087Y0163988D01*
X0110087Y0165168D02*
X0111462Y0165168D01*
X0110283Y0166347D02*
X0110087Y0166347D01*
X0103394Y0166347D02*
X0072811Y0166347D01*
X0072811Y0165168D02*
X0103394Y0165168D01*
X0103394Y0167527D02*
X0102100Y0167527D01*
X0103336Y0168706D02*
X0103394Y0168706D01*
X0098714Y0163988D02*
X0072811Y0163988D01*
X0072811Y0162808D02*
X0075500Y0162808D01*
X0075492Y0162803D02*
X0075196Y0162507D01*
X0074986Y0162145D01*
X0074878Y0161740D01*
X0074878Y0160940D01*
X0074878Y0160140D01*
X0074986Y0159736D01*
X0075041Y0159640D01*
X0074986Y0159545D01*
X0074878Y0159140D01*
X0074878Y0158340D01*
X0074878Y0157540D01*
X0074986Y0157136D01*
X0075041Y0157040D01*
X0074986Y0156945D01*
X0074878Y0156540D01*
X0074878Y0155740D01*
X0074878Y0154940D01*
X0074986Y0154536D01*
X0075041Y0154440D01*
X0074986Y0154345D01*
X0074878Y0153940D01*
X0074878Y0153140D01*
X0078240Y0153140D01*
X0078240Y0153140D01*
X0078240Y0153140D01*
X0078240Y0151090D01*
X0078240Y0151090D01*
X0078240Y0153140D01*
X0074057Y0153140D01*
X0074031Y0153165D01*
X0074878Y0153371D02*
X0070349Y0153371D01*
X0069170Y0152192D02*
X0074918Y0152192D01*
X0074878Y0151012D02*
X0067990Y0151012D01*
X0066810Y0149833D02*
X0074238Y0149833D01*
X0073909Y0148653D02*
X0065023Y0148653D01*
X0063194Y0147473D02*
X0073909Y0147473D01*
X0073909Y0146294D02*
X0064299Y0146294D01*
X0064788Y0145114D02*
X0073909Y0145114D01*
X0073925Y0143935D02*
X0065236Y0143935D01*
X0065236Y0142755D02*
X0073886Y0142755D01*
X0073913Y0141575D02*
X0065236Y0141575D01*
X0064800Y0140396D02*
X0073909Y0140396D01*
X0073909Y0139216D02*
X0064312Y0139216D01*
X0063223Y0138037D02*
X0073909Y0138037D01*
X0073909Y0136857D02*
X0063810Y0136857D01*
X0064555Y0135677D02*
X0073909Y0135677D01*
X0073909Y0134498D02*
X0065043Y0134498D01*
X0065236Y0133318D02*
X0073909Y0133318D01*
X0073909Y0132138D02*
X0065236Y0132138D01*
X0065034Y0130959D02*
X0073959Y0130959D01*
X0073909Y0129779D02*
X0064545Y0129779D01*
X0063786Y0128600D02*
X0073926Y0128600D01*
X0072850Y0127969D02*
X0073679Y0127140D01*
X0078240Y0127140D01*
X0078240Y0126240D02*
X0078240Y0126240D01*
X0078240Y0125061D02*
X0078240Y0125061D01*
X0079427Y0123881D02*
X0065236Y0123881D01*
X0065236Y0122702D02*
X0078247Y0122702D01*
X0077068Y0121522D02*
X0065236Y0121522D01*
X0064778Y0120342D02*
X0075888Y0120342D01*
X0074708Y0119163D02*
X0064290Y0119163D01*
X0064906Y0117983D02*
X0073846Y0117983D01*
X0073591Y0116803D02*
X0065236Y0116803D01*
X0065236Y0115624D02*
X0073591Y0115624D01*
X0073591Y0114444D02*
X0065236Y0114444D01*
X0065236Y0113265D02*
X0073591Y0113265D01*
X0073591Y0112085D02*
X0065236Y0112085D01*
X0065236Y0110905D02*
X0073591Y0110905D01*
X0073591Y0109726D02*
X0065236Y0109726D01*
X0065236Y0108546D02*
X0073591Y0108546D01*
X0073591Y0107367D02*
X0064852Y0107367D01*
X0073591Y0106187D02*
X0007299Y0106187D01*
X0007299Y0107367D02*
X0037391Y0107367D01*
X0037446Y0107349D02*
X0038305Y0107213D01*
X0038346Y0107213D01*
X0038346Y0112346D01*
X0033213Y0112346D01*
X0033213Y0112305D01*
X0033349Y0111446D01*
X0033618Y0110618D01*
X0034013Y0109843D01*
X0034524Y0109139D01*
X0035139Y0108524D01*
X0035843Y0108013D01*
X0036618Y0107618D01*
X0037446Y0107349D01*
X0038346Y0107367D02*
X0039134Y0107367D01*
X0040089Y0107367D02*
X0044927Y0107367D01*
X0043747Y0108546D02*
X0042363Y0108546D01*
X0039134Y0108546D02*
X0038346Y0108546D01*
X0038346Y0109726D02*
X0039134Y0109726D01*
X0039134Y0110905D02*
X0038346Y0110905D01*
X0038346Y0112085D02*
X0039134Y0112085D01*
X0039134Y0113134D02*
X0038346Y0113134D01*
X0038346Y0122346D01*
X0039134Y0122346D01*
X0039134Y0117213D01*
X0039134Y0113134D01*
X0039134Y0113265D02*
X0038346Y0113265D01*
X0038346Y0114444D02*
X0039134Y0114444D01*
X0039134Y0115624D02*
X0038346Y0115624D01*
X0038346Y0116803D02*
X0039134Y0116803D01*
X0039134Y0117983D02*
X0038346Y0117983D01*
X0038346Y0119163D02*
X0039134Y0119163D01*
X0039134Y0120342D02*
X0038346Y0120342D01*
X0038346Y0121522D02*
X0039134Y0121522D01*
X0038346Y0122702D02*
X0007299Y0122702D01*
X0007299Y0123881D02*
X0033324Y0123881D01*
X0033719Y0125061D02*
X0007299Y0125061D01*
X0007299Y0126240D02*
X0034451Y0126240D01*
X0035777Y0127420D02*
X0007299Y0127420D01*
X0007299Y0128600D02*
X0035064Y0128600D01*
X0034059Y0129779D02*
X0007299Y0129779D01*
X0007299Y0130959D02*
X0033507Y0130959D01*
X0033239Y0132138D02*
X0007299Y0132138D01*
X0007299Y0133318D02*
X0033235Y0133318D01*
X0033499Y0134498D02*
X0007299Y0134498D01*
X0007299Y0135677D02*
X0034042Y0135677D01*
X0035040Y0136857D02*
X0007299Y0136857D01*
X0007299Y0138037D02*
X0035810Y0138037D01*
X0034468Y0139216D02*
X0007299Y0139216D01*
X0007299Y0140396D02*
X0033731Y0140396D01*
X0033328Y0141575D02*
X0007299Y0141575D01*
X0007299Y0142755D02*
X0038346Y0142755D01*
X0038346Y0143134D02*
X0033213Y0143134D01*
X0033213Y0143175D01*
X0033349Y0144035D01*
X0033618Y0144862D01*
X0034013Y0145637D01*
X0034524Y0146341D01*
X0035139Y0146956D01*
X0035843Y0147468D01*
X0036618Y0147863D01*
X0037446Y0148132D01*
X0038305Y0148268D01*
X0038346Y0148268D01*
X0038346Y0143134D01*
X0038346Y0142346D02*
X0039134Y0142346D01*
X0039134Y0137213D01*
X0039134Y0133134D01*
X0038346Y0133134D01*
X0038346Y0142346D01*
X0038346Y0141575D02*
X0039134Y0141575D01*
X0039134Y0140396D02*
X0038346Y0140396D01*
X0038346Y0139216D02*
X0039134Y0139216D01*
X0039134Y0138037D02*
X0038346Y0138037D01*
X0038346Y0136857D02*
X0039134Y0136857D01*
X0039134Y0135677D02*
X0038346Y0135677D01*
X0038346Y0134498D02*
X0039134Y0134498D01*
X0039134Y0133318D02*
X0038346Y0133318D01*
X0038346Y0132346D02*
X0039134Y0132346D01*
X0039134Y0127213D01*
X0039134Y0123134D01*
X0038346Y0123134D01*
X0038346Y0132346D01*
X0038346Y0132138D02*
X0039134Y0132138D01*
X0039134Y0130959D02*
X0038346Y0130959D01*
X0038346Y0129779D02*
X0039134Y0129779D01*
X0039134Y0128600D02*
X0038346Y0128600D01*
X0038346Y0127420D02*
X0039134Y0127420D01*
X0039134Y0126240D02*
X0038346Y0126240D01*
X0038346Y0125061D02*
X0039134Y0125061D01*
X0039134Y0123881D02*
X0038346Y0123881D01*
X0033337Y0121522D02*
X0007299Y0121522D01*
X0007299Y0120342D02*
X0033758Y0120342D01*
X0034507Y0119163D02*
X0007299Y0119163D01*
X0007299Y0117983D02*
X0035901Y0117983D01*
X0034986Y0116803D02*
X0007299Y0116803D01*
X0007299Y0115624D02*
X0034006Y0115624D01*
X0033482Y0114444D02*
X0007299Y0114444D01*
X0007299Y0113265D02*
X0033227Y0113265D01*
X0033247Y0112085D02*
X0007299Y0112085D01*
X0007299Y0110905D02*
X0033524Y0110905D01*
X0034098Y0109726D02*
X0007299Y0109726D01*
X0007299Y0108546D02*
X0035117Y0108546D01*
X0037446Y0098132D02*
X0036618Y0097863D01*
X0035843Y0097468D01*
X0035139Y0096956D01*
X0034524Y0096341D01*
X0034013Y0095637D01*
X0033618Y0094862D01*
X0033349Y0094035D01*
X0033213Y0093175D01*
X0033213Y0093134D01*
X0038346Y0093134D01*
X0038346Y0098268D01*
X0038305Y0098268D01*
X0037446Y0098132D01*
X0036824Y0097930D02*
X0007299Y0097930D01*
X0007299Y0099109D02*
X0047141Y0099109D01*
X0044743Y0097930D02*
X0040656Y0097930D01*
X0039134Y0097930D02*
X0038346Y0097930D01*
X0038346Y0096750D02*
X0039134Y0096750D01*
X0039134Y0095570D02*
X0038346Y0095570D01*
X0038346Y0094391D02*
X0039134Y0094391D01*
X0039134Y0093211D02*
X0038346Y0093211D01*
X0038346Y0092346D02*
X0039134Y0092346D01*
X0039134Y0087213D01*
X0039134Y0083134D01*
X0038346Y0083134D01*
X0038346Y0092346D01*
X0038346Y0092032D02*
X0039134Y0092032D01*
X0039134Y0090852D02*
X0038346Y0090852D01*
X0038346Y0089672D02*
X0039134Y0089672D01*
X0039134Y0088493D02*
X0038346Y0088493D01*
X0038346Y0087313D02*
X0039134Y0087313D01*
X0039134Y0086134D02*
X0038346Y0086134D01*
X0038346Y0084954D02*
X0039134Y0084954D01*
X0039134Y0083774D02*
X0038346Y0083774D01*
X0038346Y0082595D02*
X0007299Y0082595D01*
X0007299Y0083774D02*
X0033307Y0083774D01*
X0033664Y0084954D02*
X0007299Y0084954D01*
X0007299Y0086134D02*
X0034373Y0086134D01*
X0035630Y0087313D02*
X0007299Y0087313D01*
X0007299Y0088493D02*
X0035182Y0088493D01*
X0034137Y0089672D02*
X0007299Y0089672D01*
X0007299Y0090852D02*
X0033542Y0090852D01*
X0033256Y0092032D02*
X0007299Y0092032D01*
X0007299Y0093211D02*
X0033218Y0093211D01*
X0033464Y0094391D02*
X0007299Y0094391D01*
X0007299Y0095570D02*
X0033979Y0095570D01*
X0034933Y0096750D02*
X0007299Y0096750D01*
X0007299Y0100289D02*
X0073591Y0100289D01*
X0073591Y0101468D02*
X0007299Y0101468D01*
X0007299Y0102648D02*
X0073591Y0102648D01*
X0073591Y0103828D02*
X0007299Y0103828D01*
X0007299Y0105007D02*
X0073591Y0105007D01*
X0073591Y0099109D02*
X0060339Y0099109D01*
X0057141Y0099109D02*
X0050339Y0099109D01*
X0052737Y0097930D02*
X0054743Y0097930D01*
X0058740Y0092740D02*
X0072740Y0092740D01*
X0076740Y0096740D01*
X0076740Y0116740D01*
X0082740Y0122740D01*
X0082740Y0128740D01*
X0081740Y0129740D01*
X0078240Y0129740D01*
X0078240Y0132340D02*
X0084140Y0132340D01*
X0084740Y0131740D01*
X0084740Y0121740D01*
X0078740Y0115740D01*
X0078740Y0086740D01*
X0074740Y0082740D01*
X0058740Y0082740D01*
X0058740Y0072740D02*
X0076740Y0072740D01*
X0080740Y0076740D01*
X0080740Y0114740D01*
X0086740Y0120740D01*
X0086740Y0133740D01*
X0085540Y0134940D01*
X0078240Y0134940D01*
X0078240Y0137540D02*
X0086940Y0137540D01*
X0088740Y0135740D01*
X0088740Y0119740D01*
X0082740Y0113740D01*
X0082740Y0065740D01*
X0079740Y0062740D01*
X0058740Y0062740D01*
X0044213Y0057823D02*
X0041265Y0057823D01*
X0042820Y0059002D02*
X0043291Y0059002D01*
X0044213Y0056643D02*
X0007299Y0056643D01*
X0007299Y0055464D02*
X0044213Y0055464D01*
X0044213Y0054284D02*
X0007299Y0054284D01*
X0007299Y0053104D02*
X0044213Y0053104D01*
X0044213Y0051925D02*
X0007299Y0051925D01*
X0007299Y0050745D02*
X0044213Y0050745D01*
X0044213Y0049565D02*
X0007299Y0049565D01*
X0007299Y0048386D02*
X0044213Y0048386D01*
X0044019Y0047206D02*
X0041997Y0047206D01*
X0039134Y0047206D02*
X0038346Y0047206D01*
X0038346Y0048268D02*
X0038305Y0048268D01*
X0037446Y0048132D01*
X0036618Y0047863D01*
X0035843Y0047468D01*
X0035139Y0046956D01*
X0034524Y0046341D01*
X0034013Y0045637D01*
X0033618Y0044862D01*
X0033349Y0044035D01*
X0033213Y0043175D01*
X0033213Y0043134D01*
X0038346Y0043134D01*
X0038346Y0048268D01*
X0038346Y0046027D02*
X0039134Y0046027D01*
X0039134Y0044847D02*
X0038346Y0044847D01*
X0038346Y0043667D02*
X0039134Y0043667D01*
X0039134Y0042346D02*
X0039134Y0037213D01*
X0039134Y0033134D01*
X0038346Y0033134D01*
X0038346Y0042346D01*
X0039134Y0042346D01*
X0038346Y0042488D02*
X0007299Y0042488D01*
X0007299Y0043667D02*
X0033291Y0043667D01*
X0033613Y0044847D02*
X0007299Y0044847D01*
X0007299Y0046027D02*
X0034295Y0046027D01*
X0035483Y0047206D02*
X0007299Y0047206D01*
X0007299Y0041308D02*
X0033393Y0041308D01*
X0033867Y0040129D02*
X0007299Y0040129D01*
X0007299Y0038949D02*
X0034714Y0038949D01*
X0036320Y0037769D02*
X0007299Y0037769D01*
X0007299Y0036590D02*
X0034773Y0036590D01*
X0033897Y0035410D02*
X0007299Y0035410D01*
X0007299Y0034230D02*
X0033412Y0034230D01*
X0033281Y0031871D02*
X0018010Y0031871D01*
X0016551Y0032102D02*
X0016551Y0032102D01*
X0015092Y0031871D02*
X0007299Y0031871D01*
X0007299Y0030692D02*
X0010471Y0030692D01*
X0008156Y0029512D02*
X0007299Y0029512D01*
X0007410Y0029132D02*
X0007410Y0029132D01*
X0007299Y0033051D02*
X0038346Y0033051D01*
X0038346Y0032346D02*
X0039134Y0032346D01*
X0039134Y0027213D01*
X0039134Y0023134D01*
X0038346Y0023134D01*
X0038346Y0032346D01*
X0038346Y0031871D02*
X0039134Y0031871D01*
X0039134Y0030692D02*
X0038346Y0030692D01*
X0038346Y0029512D02*
X0039134Y0029512D01*
X0039134Y0028332D02*
X0038346Y0028332D01*
X0038346Y0027153D02*
X0039134Y0027153D01*
X0039134Y0025973D02*
X0038346Y0025973D01*
X0038346Y0024794D02*
X0039134Y0024794D01*
X0039134Y0023614D02*
X0038346Y0023614D01*
X0038346Y0022434D02*
X0030792Y0022434D01*
X0031341Y0021357D02*
X0031341Y0021357D01*
X0031357Y0021255D02*
X0033411Y0021255D01*
X0033894Y0020075D02*
X0031544Y0020075D01*
X0031731Y0018896D02*
X0034768Y0018896D01*
X0036330Y0017716D02*
X0031918Y0017716D01*
X0032100Y0016536D02*
X0034719Y0016536D01*
X0033870Y0015357D02*
X0031913Y0015357D01*
X0031726Y0014177D02*
X0033395Y0014177D01*
X0031539Y0012997D02*
X0038346Y0012997D01*
X0038346Y0013134D02*
X0038346Y0022346D01*
X0039134Y0022346D01*
X0039134Y0017213D01*
X0039134Y0013134D01*
X0038346Y0013134D01*
X0038346Y0014177D02*
X0039134Y0014177D01*
X0039134Y0015357D02*
X0038346Y0015357D01*
X0038346Y0016536D02*
X0039134Y0016536D01*
X0039134Y0017716D02*
X0038346Y0017716D01*
X0038346Y0018896D02*
X0039134Y0018896D01*
X0039134Y0020075D02*
X0038346Y0020075D01*
X0038346Y0021255D02*
X0039134Y0021255D01*
X0033595Y0024794D02*
X0029590Y0024794D01*
X0029132Y0025692D02*
X0029132Y0025692D01*
X0028851Y0025973D02*
X0034257Y0025973D01*
X0035410Y0027153D02*
X0027671Y0027153D01*
X0026492Y0028332D02*
X0035403Y0028332D01*
X0034253Y0029512D02*
X0024947Y0029512D01*
X0025692Y0029132D02*
X0025692Y0029132D01*
X0022632Y0030692D02*
X0033594Y0030692D01*
X0038346Y0034230D02*
X0039134Y0034230D01*
X0039134Y0035410D02*
X0038346Y0035410D01*
X0038346Y0036590D02*
X0039134Y0036590D01*
X0039134Y0037769D02*
X0038346Y0037769D01*
X0038346Y0038949D02*
X0039134Y0038949D01*
X0039134Y0040129D02*
X0038346Y0040129D01*
X0038346Y0041308D02*
X0039134Y0041308D01*
X0038346Y0057213D02*
X0038346Y0062346D01*
X0033213Y0062346D01*
X0033213Y0062305D01*
X0033349Y0061446D01*
X0033618Y0060618D01*
X0034013Y0059843D01*
X0034524Y0059139D01*
X0035139Y0058524D01*
X0035843Y0058013D01*
X0036618Y0057618D01*
X0037446Y0057349D01*
X0038305Y0057213D01*
X0038346Y0057213D01*
X0038346Y0057823D02*
X0039134Y0057823D01*
X0039134Y0059002D02*
X0038346Y0059002D01*
X0038346Y0060182D02*
X0039134Y0060182D01*
X0039134Y0061362D02*
X0038346Y0061362D01*
X0038346Y0062541D02*
X0007299Y0062541D01*
X0007299Y0061362D02*
X0033376Y0061362D01*
X0033840Y0060182D02*
X0007299Y0060182D01*
X0007299Y0059002D02*
X0034661Y0059002D01*
X0036216Y0057823D02*
X0007299Y0057823D01*
X0007299Y0063721D02*
X0033299Y0063721D01*
X0033637Y0064900D02*
X0007299Y0064900D01*
X0007299Y0066080D02*
X0034334Y0066080D01*
X0035557Y0067260D02*
X0007299Y0067260D01*
X0007299Y0068439D02*
X0035256Y0068439D01*
X0034175Y0069619D02*
X0007299Y0069619D01*
X0007299Y0070799D02*
X0033559Y0070799D01*
X0033264Y0071978D02*
X0007299Y0071978D01*
X0007299Y0073158D02*
X0033213Y0073158D01*
X0033447Y0074337D02*
X0007299Y0074337D01*
X0007299Y0075517D02*
X0033951Y0075517D01*
X0034879Y0076697D02*
X0007299Y0076697D01*
X0007299Y0077876D02*
X0036111Y0077876D01*
X0034607Y0079056D02*
X0007299Y0079056D01*
X0007299Y0080235D02*
X0033813Y0080235D01*
X0033359Y0081415D02*
X0007299Y0081415D01*
X0038346Y0081415D02*
X0039134Y0081415D01*
X0039134Y0082346D02*
X0039134Y0078268D01*
X0039134Y0073134D01*
X0038346Y0073134D01*
X0038346Y0082346D01*
X0039134Y0082346D01*
X0039134Y0080235D02*
X0038346Y0080235D01*
X0038346Y0079056D02*
X0039134Y0079056D01*
X0039134Y0077876D02*
X0038346Y0077876D01*
X0038346Y0076697D02*
X0039134Y0076697D01*
X0039134Y0075517D02*
X0038346Y0075517D01*
X0038346Y0074337D02*
X0039134Y0074337D01*
X0039134Y0073158D02*
X0038346Y0073158D01*
X0038346Y0072346D02*
X0039134Y0072346D01*
X0039134Y0067213D01*
X0039134Y0063134D01*
X0038346Y0063134D01*
X0038346Y0072346D01*
X0038346Y0071978D02*
X0039134Y0071978D01*
X0039134Y0070799D02*
X0038346Y0070799D01*
X0038346Y0069619D02*
X0039134Y0069619D01*
X0039134Y0068439D02*
X0038346Y0068439D01*
X0038346Y0067260D02*
X0039134Y0067260D01*
X0039134Y0066080D02*
X0038346Y0066080D01*
X0038346Y0064900D02*
X0039134Y0064900D01*
X0039134Y0063721D02*
X0038346Y0063721D01*
X0058740Y0042740D02*
X0080740Y0042740D01*
X0084740Y0046740D01*
X0084740Y0112740D01*
X0090740Y0118740D01*
X0090740Y0138740D01*
X0089340Y0140140D01*
X0078240Y0140140D01*
X0078217Y0142740D02*
X0090740Y0142740D01*
X0092740Y0140740D01*
X0092740Y0117740D01*
X0086740Y0111740D01*
X0086740Y0035740D01*
X0082740Y0031740D01*
X0059740Y0031740D01*
X0058740Y0032740D01*
X0058740Y0022740D02*
X0084740Y0022740D01*
X0088740Y0026740D01*
X0088740Y0110740D01*
X0094740Y0116740D01*
X0094740Y0142740D01*
X0092140Y0145340D01*
X0078240Y0145340D01*
X0078240Y0147940D02*
X0093540Y0147940D01*
X0096740Y0144740D01*
X0096740Y0115740D01*
X0090740Y0109740D01*
X0090740Y0015740D01*
X0086740Y0011740D01*
X0059740Y0011740D01*
X0058740Y0012740D01*
X0065236Y0008591D02*
X0065236Y0008294D01*
X0064847Y0007354D01*
X0064792Y0007299D01*
X0177310Y0007299D01*
X0177198Y0007410D01*
X0177198Y0007410D01*
X0174989Y0011746D01*
X0174989Y0011746D01*
X0174852Y0012614D01*
X0174281Y0012200D01*
X0173561Y0011833D01*
X0172793Y0011583D01*
X0171995Y0011457D01*
X0171787Y0011457D01*
X0171787Y0016394D01*
X0171394Y0016394D01*
X0171394Y0011457D01*
X0171186Y0011457D01*
X0170388Y0011583D01*
X0169620Y0011833D01*
X0168900Y0012200D01*
X0168246Y0012675D01*
X0167675Y0013246D01*
X0167200Y0013900D01*
X0167134Y0014028D01*
X0166764Y0013134D01*
X0165047Y0011417D01*
X0162804Y0010488D01*
X0160377Y0010488D01*
X0158134Y0011417D01*
X0156417Y0013134D01*
X0156047Y0014028D01*
X0155981Y0013900D01*
X0155506Y0013246D01*
X0154935Y0012675D01*
X0154281Y0012200D01*
X0153561Y0011833D01*
X0152793Y0011583D01*
X0151995Y0011457D01*
X0151787Y0011457D01*
X0151787Y0016394D01*
X0151394Y0016394D01*
X0151394Y0011457D01*
X0151186Y0011457D01*
X0150388Y0011583D01*
X0149620Y0011833D01*
X0148900Y0012200D01*
X0148246Y0012675D01*
X0147675Y0013246D01*
X0147200Y0013900D01*
X0147134Y0014028D01*
X0146764Y0013134D01*
X0145047Y0011417D01*
X0142804Y0010488D01*
X0140377Y0010488D01*
X0138134Y0011417D01*
X0136417Y0013134D01*
X0136047Y0014028D01*
X0135981Y0013900D01*
X0135506Y0013246D01*
X0134935Y0012675D01*
X0134281Y0012200D01*
X0133561Y0011833D01*
X0132793Y0011583D01*
X0131995Y0011457D01*
X0131787Y0011457D01*
X0131787Y0016394D01*
X0131394Y0016394D01*
X0131394Y0011457D01*
X0131186Y0011457D01*
X0130388Y0011583D01*
X0129620Y0011833D01*
X0128900Y0012200D01*
X0128246Y0012675D01*
X0127675Y0013246D01*
X0127200Y0013900D01*
X0127134Y0014028D01*
X0126764Y0013134D01*
X0125047Y0011417D01*
X0122804Y0010488D01*
X0120377Y0010488D01*
X0118134Y0011417D01*
X0116417Y0013134D01*
X0116047Y0014028D01*
X0115981Y0013900D01*
X0115506Y0013246D01*
X0114935Y0012675D01*
X0114281Y0012200D01*
X0113561Y0011833D01*
X0112793Y0011583D01*
X0111995Y0011457D01*
X0111787Y0011457D01*
X0111787Y0016394D01*
X0111394Y0016394D01*
X0111394Y0011457D01*
X0111186Y0011457D01*
X0110388Y0011583D01*
X0109620Y0011833D01*
X0108900Y0012200D01*
X0108246Y0012675D01*
X0107675Y0013246D01*
X0107200Y0013900D01*
X0107134Y0014028D01*
X0106764Y0013134D01*
X0105047Y0011417D01*
X0102804Y0010488D01*
X0100377Y0010488D01*
X0098134Y0011417D01*
X0096417Y0013134D01*
X0095488Y0015377D01*
X0095488Y0017804D01*
X0096417Y0020047D01*
X0097063Y0020693D01*
X0097063Y0031312D01*
X0097178Y0031591D01*
X0097063Y0031869D01*
X0097063Y0042488D01*
X0096417Y0043134D01*
X0095488Y0045377D01*
X0095488Y0047804D01*
X0096417Y0050047D01*
X0098134Y0051764D01*
X0100377Y0052693D01*
X0102804Y0052693D01*
X0105047Y0051764D01*
X0106764Y0050047D01*
X0107693Y0047804D01*
X0107693Y0045377D01*
X0106764Y0043134D01*
X0106118Y0042488D01*
X0106118Y0031869D01*
X0106003Y0031591D01*
X0106092Y0031374D01*
X0107744Y0031374D01*
X0108134Y0031764D01*
X0110377Y0032693D01*
X0112804Y0032693D01*
X0115047Y0031764D01*
X0116764Y0030047D01*
X0117063Y0029325D01*
X0117063Y0031312D01*
X0117178Y0031591D01*
X0117063Y0031869D01*
X0117063Y0042488D01*
X0116417Y0043134D01*
X0115488Y0045377D01*
X0115488Y0047804D01*
X0116417Y0050047D01*
X0118134Y0051764D01*
X0120377Y0052693D01*
X0122804Y0052693D01*
X0125047Y0051764D01*
X0126764Y0050047D01*
X0127693Y0047804D01*
X0127693Y0045377D01*
X0126764Y0043134D01*
X0126118Y0042488D01*
X0126118Y0031869D01*
X0126003Y0031591D01*
X0126092Y0031374D01*
X0127744Y0031374D01*
X0128134Y0031764D01*
X0130377Y0032693D01*
X0132804Y0032693D01*
X0135047Y0031764D01*
X0136764Y0030047D01*
X0137063Y0029325D01*
X0137063Y0031312D01*
X0137178Y0031591D01*
X0137063Y0031869D01*
X0137063Y0042488D01*
X0136417Y0043134D01*
X0135488Y0045377D01*
X0135488Y0047804D01*
X0136417Y0050047D01*
X0138134Y0051764D01*
X0140377Y0052693D01*
X0142804Y0052693D01*
X0145047Y0051764D01*
X0146764Y0050047D01*
X0147693Y0047804D01*
X0147693Y0045377D01*
X0146764Y0043134D01*
X0146118Y0042488D01*
X0146118Y0031869D01*
X0146003Y0031591D01*
X0146092Y0031374D01*
X0147744Y0031374D01*
X0148134Y0031764D01*
X0150377Y0032693D01*
X0152804Y0032693D01*
X0155047Y0031764D01*
X0156764Y0030047D01*
X0157063Y0029325D01*
X0157063Y0031312D01*
X0157178Y0031591D01*
X0157063Y0031869D01*
X0157063Y0042488D01*
X0156417Y0043134D01*
X0155488Y0045377D01*
X0155488Y0047804D01*
X0156417Y0050047D01*
X0158134Y0051764D01*
X0160377Y0052693D01*
X0162804Y0052693D01*
X0165047Y0051764D01*
X0165437Y0051374D01*
X0168028Y0051374D01*
X0175606Y0058952D01*
X0175606Y0068831D01*
X0173714Y0068831D01*
X0171818Y0069617D01*
X0170367Y0071068D01*
X0169740Y0072580D01*
X0169114Y0071068D01*
X0167663Y0069617D01*
X0165766Y0068831D01*
X0163714Y0068831D01*
X0161818Y0069617D01*
X0160367Y0071068D01*
X0159740Y0072580D01*
X0159114Y0071068D01*
X0158874Y0070828D01*
X0158874Y0067662D01*
X0159126Y0067409D01*
X0160055Y0065167D01*
X0160055Y0062739D01*
X0159126Y0060496D01*
X0157409Y0058779D01*
X0155167Y0057850D01*
X0152739Y0057850D01*
X0150496Y0058779D01*
X0149850Y0059425D01*
X0139231Y0059425D01*
X0138953Y0059541D01*
X0138674Y0059425D01*
X0128055Y0059425D01*
X0127409Y0058779D01*
X0125167Y0057850D01*
X0122739Y0057850D01*
X0120496Y0058779D01*
X0118779Y0060496D01*
X0117850Y0062739D01*
X0117850Y0065167D01*
X0118779Y0067409D01*
X0120496Y0069126D01*
X0120606Y0069172D01*
X0120606Y0070828D01*
X0120367Y0071068D01*
X0120088Y0071741D01*
X0118794Y0070448D01*
X0117275Y0069819D01*
X0112524Y0069819D01*
X0111484Y0068779D01*
X0109241Y0067850D01*
X0106814Y0067850D01*
X0104571Y0068779D01*
X0103531Y0069819D01*
X0101736Y0069819D01*
X0100697Y0068779D01*
X0098454Y0067850D01*
X0096026Y0067850D01*
X0093890Y0068735D01*
X0093890Y0015114D01*
X0093410Y0013956D01*
X0089410Y0009956D01*
X0088524Y0009070D01*
X0087367Y0008591D01*
X0065236Y0008591D01*
X0065230Y0008279D02*
X0176756Y0008279D01*
X0176155Y0009459D02*
X0088913Y0009459D01*
X0090092Y0010638D02*
X0100014Y0010638D01*
X0103167Y0010638D02*
X0120014Y0010638D01*
X0117733Y0011818D02*
X0113515Y0011818D01*
X0111787Y0011818D02*
X0111394Y0011818D01*
X0111394Y0012997D02*
X0111787Y0012997D01*
X0111787Y0014177D02*
X0111394Y0014177D01*
X0111394Y0015357D02*
X0111787Y0015357D01*
X0111787Y0016787D02*
X0111394Y0016787D01*
X0111394Y0019307D01*
X0111787Y0019307D01*
X0111787Y0016787D01*
X0111787Y0017716D02*
X0111394Y0017716D01*
X0111394Y0018896D02*
X0111787Y0018896D01*
X0115258Y0012997D02*
X0116554Y0012997D01*
X0109666Y0011818D02*
X0105448Y0011818D01*
X0106627Y0012997D02*
X0107923Y0012997D01*
X0097733Y0011818D02*
X0091272Y0011818D01*
X0092452Y0012997D02*
X0096554Y0012997D01*
X0095985Y0014177D02*
X0093502Y0014177D01*
X0093890Y0015357D02*
X0095496Y0015357D01*
X0095488Y0016536D02*
X0093890Y0016536D01*
X0093890Y0017716D02*
X0095488Y0017716D01*
X0095940Y0018896D02*
X0093890Y0018896D01*
X0093890Y0020075D02*
X0096445Y0020075D01*
X0097063Y0021255D02*
X0093890Y0021255D01*
X0093890Y0022434D02*
X0097063Y0022434D01*
X0097063Y0023614D02*
X0093890Y0023614D01*
X0093890Y0024794D02*
X0097063Y0024794D01*
X0097063Y0025973D02*
X0093890Y0025973D01*
X0093890Y0027153D02*
X0097063Y0027153D01*
X0097063Y0028332D02*
X0093890Y0028332D01*
X0093890Y0029512D02*
X0097063Y0029512D01*
X0097063Y0030692D02*
X0093890Y0030692D01*
X0093890Y0031871D02*
X0097063Y0031871D01*
X0097063Y0033051D02*
X0093890Y0033051D01*
X0093890Y0034230D02*
X0097063Y0034230D01*
X0097063Y0035410D02*
X0093890Y0035410D01*
X0093890Y0036590D02*
X0097063Y0036590D01*
X0097063Y0037769D02*
X0093890Y0037769D01*
X0093890Y0038949D02*
X0097063Y0038949D01*
X0097063Y0040129D02*
X0093890Y0040129D01*
X0093890Y0041308D02*
X0097063Y0041308D01*
X0097063Y0042488D02*
X0093890Y0042488D01*
X0093890Y0043667D02*
X0096196Y0043667D01*
X0095708Y0044847D02*
X0093890Y0044847D01*
X0093890Y0046027D02*
X0095488Y0046027D01*
X0095488Y0047206D02*
X0093890Y0047206D01*
X0093890Y0048386D02*
X0095729Y0048386D01*
X0096218Y0049565D02*
X0093890Y0049565D01*
X0093890Y0050745D02*
X0097115Y0050745D01*
X0098522Y0051925D02*
X0093890Y0051925D01*
X0093890Y0053104D02*
X0169758Y0053104D01*
X0168579Y0051925D02*
X0164659Y0051925D01*
X0158522Y0051925D02*
X0144659Y0051925D01*
X0146066Y0050745D02*
X0157115Y0050745D01*
X0156218Y0049565D02*
X0146963Y0049565D01*
X0147452Y0048386D02*
X0155729Y0048386D01*
X0155488Y0047206D02*
X0147693Y0047206D01*
X0147693Y0046027D02*
X0155488Y0046027D01*
X0155708Y0044847D02*
X0147473Y0044847D01*
X0146985Y0043667D02*
X0156196Y0043667D01*
X0157063Y0042488D02*
X0146118Y0042488D01*
X0146118Y0041308D02*
X0157063Y0041308D01*
X0157063Y0040129D02*
X0146118Y0040129D01*
X0146118Y0038949D02*
X0157063Y0038949D01*
X0157063Y0037769D02*
X0146118Y0037769D01*
X0146118Y0036590D02*
X0157063Y0036590D01*
X0157063Y0035410D02*
X0146118Y0035410D01*
X0146118Y0034230D02*
X0157063Y0034230D01*
X0157063Y0033051D02*
X0146118Y0033051D01*
X0146118Y0031871D02*
X0148393Y0031871D01*
X0154788Y0031871D02*
X0157063Y0031871D01*
X0157063Y0030692D02*
X0156119Y0030692D01*
X0156986Y0029512D02*
X0157063Y0029512D01*
X0166003Y0031591D02*
X0166118Y0031869D01*
X0166118Y0042488D01*
X0166736Y0043106D01*
X0170562Y0043106D01*
X0172082Y0043736D01*
X0173245Y0044899D01*
X0183245Y0054899D01*
X0183874Y0056418D01*
X0183874Y0058062D01*
X0183874Y0068831D01*
X0185766Y0068831D01*
X0187663Y0069617D01*
X0189114Y0071068D01*
X0189899Y0072964D01*
X0189899Y0079876D01*
X0189982Y0079620D01*
X0190349Y0078900D01*
X0190824Y0078246D01*
X0191396Y0077675D01*
X0192049Y0077200D01*
X0192769Y0076833D01*
X0193538Y0076583D01*
X0194336Y0076457D01*
X0194543Y0076457D01*
X0194543Y0081394D01*
X0194937Y0081394D01*
X0194937Y0076457D01*
X0195144Y0076457D01*
X0195942Y0076583D01*
X0196711Y0076833D01*
X0197431Y0077200D01*
X0198085Y0077675D01*
X0198656Y0078246D01*
X0199031Y0078763D01*
X0199031Y0029021D01*
X0198920Y0029132D01*
X0194585Y0031341D01*
X0189780Y0032102D01*
X0189780Y0032102D01*
X0184974Y0031341D01*
X0180639Y0029132D01*
X0177693Y0026186D01*
X0177693Y0027804D01*
X0176764Y0030047D01*
X0175047Y0031764D01*
X0172804Y0032693D01*
X0170377Y0032693D01*
X0168134Y0031764D01*
X0167744Y0031374D01*
X0166092Y0031374D01*
X0166003Y0031591D01*
X0166118Y0031871D02*
X0168393Y0031871D01*
X0166118Y0033051D02*
X0199031Y0033051D01*
X0199031Y0034230D02*
X0166118Y0034230D01*
X0166118Y0035410D02*
X0199031Y0035410D01*
X0199031Y0036590D02*
X0166118Y0036590D01*
X0166118Y0037769D02*
X0199031Y0037769D01*
X0199031Y0038949D02*
X0166118Y0038949D01*
X0166118Y0040129D02*
X0199031Y0040129D01*
X0199031Y0041308D02*
X0166118Y0041308D01*
X0166118Y0042488D02*
X0199031Y0042488D01*
X0199031Y0043667D02*
X0171917Y0043667D01*
X0173193Y0044847D02*
X0199031Y0044847D01*
X0199031Y0046027D02*
X0174373Y0046027D01*
X0175552Y0047206D02*
X0199031Y0047206D01*
X0199031Y0048386D02*
X0176732Y0048386D01*
X0177912Y0049565D02*
X0199031Y0049565D01*
X0199031Y0050745D02*
X0179091Y0050745D01*
X0180271Y0051925D02*
X0199031Y0051925D01*
X0199031Y0053104D02*
X0181450Y0053104D01*
X0182630Y0054284D02*
X0199031Y0054284D01*
X0199031Y0055464D02*
X0183479Y0055464D01*
X0183874Y0056643D02*
X0199031Y0056643D01*
X0199031Y0057823D02*
X0183874Y0057823D01*
X0183874Y0059002D02*
X0199031Y0059002D01*
X0199031Y0060182D02*
X0183874Y0060182D01*
X0183874Y0061362D02*
X0199031Y0061362D01*
X0199031Y0062541D02*
X0183874Y0062541D01*
X0183874Y0063721D02*
X0199031Y0063721D01*
X0199031Y0064900D02*
X0183874Y0064900D01*
X0183874Y0066080D02*
X0199031Y0066080D01*
X0199031Y0067260D02*
X0183874Y0067260D01*
X0183874Y0068439D02*
X0199031Y0068439D01*
X0199031Y0069619D02*
X0187665Y0069619D01*
X0188844Y0070799D02*
X0199031Y0070799D01*
X0199031Y0071978D02*
X0189491Y0071978D01*
X0189899Y0073158D02*
X0199031Y0073158D01*
X0199031Y0074337D02*
X0189899Y0074337D01*
X0189899Y0075517D02*
X0199031Y0075517D01*
X0199031Y0076697D02*
X0196292Y0076697D01*
X0194937Y0076697D02*
X0194543Y0076697D01*
X0194543Y0077876D02*
X0194937Y0077876D01*
X0194937Y0079056D02*
X0194543Y0079056D01*
X0194543Y0080235D02*
X0194937Y0080235D01*
X0194937Y0081787D02*
X0194543Y0081787D01*
X0194543Y0084110D01*
X0194937Y0084110D01*
X0194937Y0081787D01*
X0194937Y0082595D02*
X0194543Y0082595D01*
X0194543Y0083774D02*
X0194937Y0083774D01*
X0194937Y0084898D02*
X0194543Y0084898D01*
X0194543Y0086724D01*
X0194346Y0086724D01*
X0194346Y0091000D01*
X0195134Y0091000D01*
X0195134Y0086724D01*
X0194937Y0086724D01*
X0194937Y0084898D01*
X0194937Y0084954D02*
X0194543Y0084954D01*
X0194543Y0086134D02*
X0194937Y0086134D01*
X0195134Y0087313D02*
X0194346Y0087313D01*
X0194346Y0088493D02*
X0195134Y0088493D01*
X0195134Y0089672D02*
X0194346Y0089672D01*
X0194346Y0090852D02*
X0195134Y0090852D01*
X0190270Y0079056D02*
X0189899Y0079056D01*
X0189899Y0077876D02*
X0191194Y0077876D01*
X0189899Y0076697D02*
X0193189Y0076697D01*
X0198286Y0077876D02*
X0199031Y0077876D01*
X0175606Y0068439D02*
X0158874Y0068439D01*
X0158874Y0069619D02*
X0161816Y0069619D01*
X0160636Y0070799D02*
X0158874Y0070799D01*
X0159491Y0071978D02*
X0159990Y0071978D01*
X0159188Y0067260D02*
X0175606Y0067260D01*
X0175606Y0066080D02*
X0159677Y0066080D01*
X0160055Y0064900D02*
X0175606Y0064900D01*
X0175606Y0063721D02*
X0160055Y0063721D01*
X0159973Y0062541D02*
X0175606Y0062541D01*
X0175606Y0061362D02*
X0159485Y0061362D01*
X0158812Y0060182D02*
X0175606Y0060182D01*
X0175606Y0059002D02*
X0157632Y0059002D01*
X0150273Y0059002D02*
X0127632Y0059002D01*
X0124659Y0051925D02*
X0138522Y0051925D01*
X0137115Y0050745D02*
X0126066Y0050745D01*
X0126963Y0049565D02*
X0136218Y0049565D01*
X0135729Y0048386D02*
X0127452Y0048386D01*
X0127693Y0047206D02*
X0135488Y0047206D01*
X0135488Y0046027D02*
X0127693Y0046027D01*
X0127473Y0044847D02*
X0135708Y0044847D01*
X0136196Y0043667D02*
X0126985Y0043667D01*
X0126118Y0042488D02*
X0137063Y0042488D01*
X0137063Y0041308D02*
X0126118Y0041308D01*
X0126118Y0040129D02*
X0137063Y0040129D01*
X0137063Y0038949D02*
X0126118Y0038949D01*
X0126118Y0037769D02*
X0137063Y0037769D01*
X0137063Y0036590D02*
X0126118Y0036590D01*
X0126118Y0035410D02*
X0137063Y0035410D01*
X0137063Y0034230D02*
X0126118Y0034230D01*
X0126118Y0033051D02*
X0137063Y0033051D01*
X0137063Y0031871D02*
X0134788Y0031871D01*
X0136119Y0030692D02*
X0137063Y0030692D01*
X0137063Y0029512D02*
X0136986Y0029512D01*
X0128393Y0031871D02*
X0126118Y0031871D01*
X0117063Y0031871D02*
X0114788Y0031871D01*
X0116119Y0030692D02*
X0117063Y0030692D01*
X0117063Y0029512D02*
X0116986Y0029512D01*
X0117063Y0033051D02*
X0106118Y0033051D01*
X0106118Y0034230D02*
X0117063Y0034230D01*
X0117063Y0035410D02*
X0106118Y0035410D01*
X0106118Y0036590D02*
X0117063Y0036590D01*
X0117063Y0037769D02*
X0106118Y0037769D01*
X0106118Y0038949D02*
X0117063Y0038949D01*
X0117063Y0040129D02*
X0106118Y0040129D01*
X0106118Y0041308D02*
X0117063Y0041308D01*
X0117063Y0042488D02*
X0106118Y0042488D01*
X0106985Y0043667D02*
X0116196Y0043667D01*
X0115708Y0044847D02*
X0107473Y0044847D01*
X0107693Y0046027D02*
X0115488Y0046027D01*
X0115488Y0047206D02*
X0107693Y0047206D01*
X0107452Y0048386D02*
X0115729Y0048386D01*
X0116218Y0049565D02*
X0106963Y0049565D01*
X0106066Y0050745D02*
X0117115Y0050745D01*
X0118522Y0051925D02*
X0104659Y0051925D01*
X0093890Y0054284D02*
X0170938Y0054284D01*
X0172117Y0055464D02*
X0093890Y0055464D01*
X0093890Y0056643D02*
X0173297Y0056643D01*
X0174477Y0057823D02*
X0093890Y0057823D01*
X0093890Y0059002D02*
X0120273Y0059002D01*
X0119093Y0060182D02*
X0093890Y0060182D01*
X0093890Y0061362D02*
X0118421Y0061362D01*
X0117932Y0062541D02*
X0093890Y0062541D01*
X0093890Y0063721D02*
X0117850Y0063721D01*
X0117850Y0064900D02*
X0093890Y0064900D01*
X0093890Y0066080D02*
X0118229Y0066080D01*
X0118717Y0067260D02*
X0093890Y0067260D01*
X0093890Y0068439D02*
X0094605Y0068439D01*
X0099876Y0068439D02*
X0105392Y0068439D01*
X0103731Y0069619D02*
X0101536Y0069619D01*
X0110663Y0068439D02*
X0119809Y0068439D01*
X0120606Y0069619D02*
X0112324Y0069619D01*
X0119145Y0070799D02*
X0120606Y0070799D01*
X0115710Y0079056D02*
X0112555Y0079056D01*
X0112555Y0080235D02*
X0116889Y0080235D01*
X0119957Y0081415D02*
X0112555Y0081415D01*
X0112555Y0082595D02*
X0119957Y0082595D01*
X0119957Y0083774D02*
X0112555Y0083774D01*
X0112555Y0084954D02*
X0119974Y0084954D01*
X0120462Y0086134D02*
X0112555Y0086134D01*
X0112555Y0087313D02*
X0121467Y0087313D01*
X0122647Y0088493D02*
X0112555Y0088493D01*
X0112555Y0089672D02*
X0123826Y0089672D01*
X0125006Y0090852D02*
X0112555Y0090852D01*
X0112555Y0092032D02*
X0126185Y0092032D01*
X0127365Y0093211D02*
X0112555Y0093211D01*
X0112555Y0094391D02*
X0128545Y0094391D01*
X0129724Y0095570D02*
X0112555Y0095570D01*
X0112555Y0096750D02*
X0130904Y0096750D01*
X0132083Y0097930D02*
X0112555Y0097930D01*
X0112555Y0099109D02*
X0133043Y0099109D01*
X0131146Y0100289D02*
X0126706Y0100289D01*
X0126936Y0100406D02*
X0127470Y0100794D01*
X0127937Y0101261D01*
X0128324Y0101794D01*
X0128624Y0102382D01*
X0128828Y0103009D01*
X0128931Y0103661D01*
X0128931Y0106381D01*
X0124950Y0106381D01*
X0124950Y0106800D01*
X0128931Y0106800D01*
X0128931Y0109520D01*
X0128828Y0110172D01*
X0128624Y0110799D01*
X0128324Y0111387D01*
X0127937Y0111921D01*
X0127470Y0112387D01*
X0126936Y0112775D01*
X0126349Y0113074D01*
X0125721Y0113278D01*
X0125070Y0113381D01*
X0124950Y0113381D01*
X0124950Y0106800D01*
X0124531Y0106800D01*
X0124531Y0113381D01*
X0124410Y0113381D01*
X0123759Y0113278D01*
X0123132Y0113074D01*
X0122544Y0112775D01*
X0122010Y0112387D01*
X0121544Y0111921D01*
X0121156Y0111387D01*
X0120857Y0110799D01*
X0120653Y0110172D01*
X0120550Y0109520D01*
X0120550Y0106800D01*
X0124531Y0106800D01*
X0124531Y0106381D01*
X0124950Y0106381D01*
X0124950Y0099800D01*
X0125070Y0099800D01*
X0125721Y0099903D01*
X0126349Y0100107D01*
X0126936Y0100406D01*
X0128088Y0101468D02*
X0130201Y0101468D01*
X0129712Y0102648D02*
X0128710Y0102648D01*
X0128931Y0103828D02*
X0129581Y0103828D01*
X0129581Y0105007D02*
X0128931Y0105007D01*
X0128931Y0106187D02*
X0129581Y0106187D01*
X0129581Y0107367D02*
X0128931Y0107367D01*
X0128931Y0108546D02*
X0129581Y0108546D01*
X0129581Y0109726D02*
X0128898Y0109726D01*
X0128570Y0110905D02*
X0129866Y0110905D01*
X0130355Y0112085D02*
X0127772Y0112085D01*
X0125762Y0113265D02*
X0130606Y0113265D01*
X0130606Y0114444D02*
X0117874Y0114444D01*
X0117849Y0115624D02*
X0130606Y0115624D01*
X0130606Y0116803D02*
X0117360Y0116803D01*
X0116343Y0117983D02*
X0121182Y0117983D01*
X0119388Y0119163D02*
X0099890Y0119163D01*
X0099890Y0120342D02*
X0118331Y0120342D01*
X0117842Y0121522D02*
X0099890Y0121522D01*
X0099890Y0122702D02*
X0106688Y0122702D01*
X0108792Y0122702D02*
X0117488Y0122702D01*
X0117488Y0123881D02*
X0110727Y0123881D01*
X0111519Y0125061D02*
X0117594Y0125061D01*
X0118083Y0126240D02*
X0114087Y0126240D01*
X0115254Y0127420D02*
X0118790Y0127420D01*
X0119063Y0128600D02*
X0115742Y0128600D01*
X0115874Y0129779D02*
X0119063Y0129779D01*
X0119063Y0130959D02*
X0115710Y0130959D01*
X0115188Y0132138D02*
X0119066Y0132138D01*
X0119699Y0133318D02*
X0115164Y0133318D01*
X0111740Y0135740D02*
X0106740Y0135740D01*
X0105940Y0134940D01*
X0101240Y0134940D01*
X0101240Y0132340D02*
X0108340Y0132340D01*
X0107740Y0132740D01*
X0106540Y0137540D02*
X0107740Y0138740D01*
X0108740Y0138740D01*
X0106540Y0137540D02*
X0101240Y0137540D01*
X0101240Y0140140D02*
X0106140Y0140140D01*
X0107740Y0141740D01*
X0111740Y0141740D01*
X0108740Y0144740D02*
X0107740Y0144740D01*
X0105740Y0142740D01*
X0101264Y0142740D01*
X0097878Y0148653D02*
X0097281Y0148653D01*
X0097878Y0149833D02*
X0096102Y0149833D01*
X0094354Y0151012D02*
X0097878Y0151012D01*
X0097918Y0152192D02*
X0081563Y0152192D01*
X0081602Y0153140D02*
X0081602Y0153940D01*
X0081494Y0154345D01*
X0081439Y0154440D01*
X0081494Y0154536D01*
X0081602Y0154940D01*
X0081602Y0155740D01*
X0078240Y0155740D01*
X0074878Y0155740D01*
X0078240Y0155740D01*
X0078240Y0155740D01*
X0078240Y0155740D01*
X0078240Y0153140D01*
X0078240Y0153140D01*
X0078240Y0153140D01*
X0081602Y0153140D01*
X0081602Y0153371D02*
X0097628Y0153371D01*
X0096947Y0154551D02*
X0081498Y0154551D01*
X0081602Y0155731D02*
X0096909Y0155731D01*
X0096939Y0156910D02*
X0081503Y0156910D01*
X0081494Y0156945D02*
X0081439Y0157040D01*
X0081494Y0157136D01*
X0081602Y0157540D01*
X0081602Y0158340D01*
X0078240Y0158340D01*
X0074878Y0158340D01*
X0078240Y0158340D01*
X0078240Y0158340D01*
X0078240Y0158340D01*
X0078240Y0155740D01*
X0078240Y0153559D01*
X0078240Y0153140D01*
X0078240Y0153371D02*
X0078240Y0153371D01*
X0078240Y0152192D02*
X0078240Y0152192D01*
X0078240Y0154551D02*
X0078240Y0154551D01*
X0078240Y0155731D02*
X0078240Y0155731D01*
X0078240Y0155740D02*
X0078240Y0155740D01*
X0078240Y0155740D01*
X0081602Y0155740D01*
X0081602Y0156540D01*
X0081494Y0156945D01*
X0081602Y0158090D02*
X0096909Y0158090D01*
X0096909Y0159270D02*
X0081568Y0159270D01*
X0081602Y0159140D02*
X0081494Y0159545D01*
X0081439Y0159640D01*
X0081494Y0159736D01*
X0081602Y0160140D01*
X0081602Y0160940D01*
X0078240Y0160940D01*
X0074878Y0160940D01*
X0078240Y0160940D01*
X0078240Y0160940D01*
X0078240Y0160940D01*
X0078240Y0158340D01*
X0078240Y0156159D01*
X0078240Y0155740D01*
X0078240Y0156910D02*
X0078240Y0156910D01*
X0078240Y0158090D02*
X0078240Y0158090D01*
X0078240Y0158340D02*
X0078240Y0158340D01*
X0078240Y0158340D01*
X0081602Y0158340D01*
X0081602Y0159140D01*
X0081602Y0160449D02*
X0096909Y0160449D01*
X0096909Y0161629D02*
X0081602Y0161629D01*
X0081602Y0161740D02*
X0081494Y0162145D01*
X0081285Y0162507D01*
X0080988Y0162803D01*
X0080626Y0163013D01*
X0080221Y0163121D01*
X0078240Y0163121D01*
X0076259Y0163121D01*
X0075855Y0163013D01*
X0075492Y0162803D01*
X0074878Y0161629D02*
X0072811Y0161629D01*
X0072811Y0160449D02*
X0074878Y0160449D01*
X0074913Y0159270D02*
X0072811Y0159270D01*
X0072811Y0158090D02*
X0074878Y0158090D01*
X0074977Y0156910D02*
X0072811Y0156910D01*
X0072365Y0155731D02*
X0074878Y0155731D01*
X0074982Y0154551D02*
X0071529Y0154551D01*
X0078240Y0158340D02*
X0078240Y0158759D01*
X0078240Y0160940D01*
X0078240Y0163121D01*
X0078240Y0160940D01*
X0078240Y0160940D01*
X0078240Y0160940D01*
X0081602Y0160940D01*
X0081602Y0161740D01*
X0080980Y0162808D02*
X0097228Y0162808D01*
X0095380Y0167527D02*
X0072811Y0167527D01*
X0072811Y0168706D02*
X0075558Y0168706D01*
X0074468Y0169886D02*
X0072811Y0169886D01*
X0072811Y0171066D02*
X0073886Y0171066D01*
X0073621Y0172245D02*
X0072811Y0172245D01*
X0072811Y0173425D02*
X0073651Y0173425D01*
X0073948Y0174605D02*
X0072811Y0174605D01*
X0072811Y0175784D02*
X0074606Y0175784D01*
X0075819Y0176964D02*
X0072811Y0176964D01*
X0072811Y0178143D02*
X0095394Y0178143D01*
X0094425Y0179323D02*
X0073726Y0179323D01*
X0078543Y0176964D02*
X0078937Y0176964D01*
X0081661Y0176964D02*
X0089466Y0176964D01*
X0088384Y0175784D02*
X0087946Y0175784D01*
X0088150Y0173134D02*
X0083874Y0173134D01*
X0083874Y0172937D01*
X0082047Y0172937D01*
X0082047Y0172543D01*
X0083874Y0172543D01*
X0083874Y0172346D01*
X0088150Y0172346D01*
X0088150Y0173134D01*
X0088097Y0169886D02*
X0088306Y0169886D01*
X0089155Y0168706D02*
X0081922Y0168706D01*
X0081260Y0172543D02*
X0078937Y0172543D01*
X0078937Y0172937D01*
X0081260Y0172937D01*
X0081260Y0172543D01*
X0078937Y0168706D02*
X0078543Y0168706D01*
X0078240Y0162808D02*
X0078240Y0162808D01*
X0078240Y0161629D02*
X0078240Y0161629D01*
X0078240Y0160449D02*
X0078240Y0160449D01*
X0078240Y0159270D02*
X0078240Y0159270D01*
X0104563Y0152192D02*
X0104907Y0152192D01*
X0104602Y0151012D02*
X0105622Y0151012D01*
X0120432Y0162808D02*
X0125606Y0162808D01*
X0125606Y0163988D02*
X0123138Y0163988D01*
X0124317Y0165168D02*
X0125606Y0165168D01*
X0125497Y0166347D02*
X0125931Y0166347D01*
X0126042Y0167527D02*
X0126681Y0167527D01*
X0126530Y0168706D02*
X0127860Y0168706D01*
X0126976Y0169886D02*
X0129040Y0169886D01*
X0130674Y0171066D02*
X0126976Y0171066D01*
X0126976Y0172245D02*
X0156205Y0172245D01*
X0156205Y0171066D02*
X0146307Y0171066D01*
X0147940Y0169886D02*
X0156205Y0169886D01*
X0156651Y0168706D02*
X0149120Y0168706D01*
X0150134Y0167527D02*
X0157139Y0167527D01*
X0157684Y0166347D02*
X0150622Y0166347D01*
X0150646Y0165168D02*
X0158864Y0165168D01*
X0160043Y0163988D02*
X0151123Y0163988D01*
X0151941Y0162808D02*
X0162749Y0162808D01*
X0167834Y0162808D02*
X0176213Y0162808D01*
X0176213Y0161629D02*
X0151941Y0161629D01*
X0151941Y0160449D02*
X0176213Y0160449D01*
X0176213Y0159270D02*
X0151941Y0159270D01*
X0151358Y0158090D02*
X0176213Y0158090D01*
X0176213Y0156910D02*
X0150327Y0156910D01*
X0151506Y0155731D02*
X0176213Y0155731D01*
X0176213Y0154551D02*
X0151941Y0154551D01*
X0151941Y0153371D02*
X0176213Y0153371D01*
X0176213Y0152192D02*
X0151941Y0152192D01*
X0151941Y0151012D02*
X0175759Y0151012D01*
X0168986Y0149833D02*
X0150975Y0149833D01*
X0149796Y0148653D02*
X0167807Y0148653D01*
X0166627Y0147473D02*
X0133874Y0147473D01*
X0133874Y0146294D02*
X0165448Y0146294D01*
X0164268Y0145114D02*
X0133874Y0145114D01*
X0133874Y0143935D02*
X0163468Y0143935D01*
X0163106Y0142755D02*
X0133874Y0142755D01*
X0140236Y0141575D02*
X0162945Y0141575D01*
X0143228Y0148653D02*
X0139953Y0148653D01*
X0141133Y0149833D02*
X0142048Y0149833D01*
X0156216Y0173425D02*
X0126965Y0173425D01*
X0126477Y0174605D02*
X0156704Y0174605D01*
X0157193Y0175784D02*
X0125988Y0175784D01*
X0125367Y0176964D02*
X0157814Y0176964D01*
X0158994Y0178143D02*
X0124187Y0178143D01*
X0122966Y0179323D02*
X0160215Y0179323D01*
X0170368Y0179323D02*
X0171754Y0179323D01*
X0171589Y0178143D02*
X0172934Y0178143D01*
X0172769Y0176964D02*
X0174114Y0176964D01*
X0173390Y0175784D02*
X0175293Y0175784D01*
X0176213Y0174605D02*
X0173878Y0174605D01*
X0174367Y0173425D02*
X0176213Y0173425D01*
X0176213Y0172245D02*
X0174378Y0172245D01*
X0174378Y0171066D02*
X0176213Y0171066D01*
X0176213Y0169886D02*
X0174378Y0169886D01*
X0173932Y0168706D02*
X0176213Y0168706D01*
X0176213Y0167527D02*
X0173443Y0167527D01*
X0172898Y0166347D02*
X0176213Y0166347D01*
X0176213Y0165168D02*
X0171719Y0165168D01*
X0170539Y0163988D02*
X0176213Y0163988D01*
X0185268Y0163988D02*
X0199031Y0163988D01*
X0199031Y0162808D02*
X0185268Y0162808D01*
X0185268Y0161629D02*
X0189303Y0161629D01*
X0189469Y0161713D02*
X0188693Y0161318D01*
X0187990Y0160807D01*
X0187374Y0160192D01*
X0186863Y0159488D01*
X0186468Y0158712D01*
X0186199Y0157885D01*
X0186063Y0157026D01*
X0186063Y0156984D01*
X0191197Y0156984D01*
X0191197Y0156197D01*
X0186063Y0156197D01*
X0186063Y0156156D01*
X0186199Y0155296D01*
X0186468Y0154469D01*
X0186863Y0153693D01*
X0187374Y0152990D01*
X0187990Y0152374D01*
X0188204Y0152219D01*
X0187911Y0152098D01*
X0186538Y0150724D01*
X0185268Y0150724D01*
X0185268Y0174943D01*
X0189780Y0174228D01*
X0194585Y0174989D01*
X0198920Y0177198D01*
X0198920Y0177198D01*
X0199031Y0177310D01*
X0199031Y0105929D01*
X0198874Y0106087D01*
X0198874Y0113062D01*
X0198245Y0114582D01*
X0193245Y0119582D01*
X0192732Y0120094D01*
X0192883Y0120094D01*
X0195270Y0121083D01*
X0197098Y0122911D01*
X0198087Y0125298D01*
X0198087Y0127883D01*
X0197098Y0130270D01*
X0195777Y0131591D01*
X0197098Y0132911D01*
X0198087Y0135298D01*
X0198087Y0137883D01*
X0197098Y0140270D01*
X0195777Y0141591D01*
X0197098Y0142911D01*
X0198087Y0145298D01*
X0198087Y0147883D01*
X0197098Y0150270D01*
X0195270Y0152098D01*
X0194978Y0152219D01*
X0195192Y0152374D01*
X0195807Y0152990D01*
X0196318Y0153693D01*
X0196713Y0154469D01*
X0196982Y0155296D01*
X0197118Y0156156D01*
X0197118Y0156197D01*
X0191984Y0156197D01*
X0191984Y0156984D01*
X0191197Y0156984D01*
X0191197Y0162118D01*
X0191156Y0162118D01*
X0190296Y0161982D01*
X0189469Y0161713D01*
X0191197Y0161629D02*
X0191984Y0161629D01*
X0191984Y0162118D02*
X0191984Y0156984D01*
X0197118Y0156984D01*
X0197118Y0157026D01*
X0196982Y0157885D01*
X0196713Y0158712D01*
X0196318Y0159488D01*
X0195807Y0160192D01*
X0195192Y0160807D01*
X0194488Y0161318D01*
X0193712Y0161713D01*
X0192885Y0161982D01*
X0192026Y0162118D01*
X0191984Y0162118D01*
X0191984Y0160449D02*
X0191197Y0160449D01*
X0191197Y0159270D02*
X0191984Y0159270D01*
X0191984Y0158090D02*
X0191197Y0158090D01*
X0191197Y0156910D02*
X0185268Y0156910D01*
X0185268Y0155731D02*
X0186130Y0155731D01*
X0186441Y0154551D02*
X0185268Y0154551D01*
X0185268Y0153371D02*
X0187097Y0153371D01*
X0188138Y0152192D02*
X0185268Y0152192D01*
X0185268Y0151012D02*
X0186825Y0151012D01*
X0191984Y0156910D02*
X0199031Y0156910D01*
X0199031Y0155731D02*
X0197051Y0155731D01*
X0196740Y0154551D02*
X0199031Y0154551D01*
X0199031Y0153371D02*
X0196084Y0153371D01*
X0195043Y0152192D02*
X0199031Y0152192D01*
X0199031Y0151012D02*
X0196356Y0151012D01*
X0197279Y0149833D02*
X0199031Y0149833D01*
X0199031Y0148653D02*
X0197768Y0148653D01*
X0198087Y0147473D02*
X0199031Y0147473D01*
X0199031Y0146294D02*
X0198087Y0146294D01*
X0198010Y0145114D02*
X0199031Y0145114D01*
X0199031Y0143935D02*
X0197522Y0143935D01*
X0196942Y0142755D02*
X0199031Y0142755D01*
X0199031Y0141575D02*
X0195793Y0141575D01*
X0196972Y0140396D02*
X0199031Y0140396D01*
X0199031Y0139216D02*
X0197534Y0139216D01*
X0198023Y0138037D02*
X0199031Y0138037D01*
X0199031Y0136857D02*
X0198087Y0136857D01*
X0198087Y0135677D02*
X0199031Y0135677D01*
X0199031Y0134498D02*
X0197755Y0134498D01*
X0197266Y0133318D02*
X0199031Y0133318D01*
X0199031Y0132138D02*
X0196325Y0132138D01*
X0196409Y0130959D02*
X0199031Y0130959D01*
X0199031Y0129779D02*
X0197301Y0129779D01*
X0197790Y0128600D02*
X0199031Y0128600D01*
X0199031Y0127420D02*
X0198087Y0127420D01*
X0198087Y0126240D02*
X0199031Y0126240D01*
X0199031Y0125061D02*
X0197988Y0125061D01*
X0197500Y0123881D02*
X0199031Y0123881D01*
X0199031Y0122702D02*
X0196888Y0122702D01*
X0195709Y0121522D02*
X0199031Y0121522D01*
X0199031Y0120342D02*
X0193481Y0120342D01*
X0193664Y0119163D02*
X0199031Y0119163D01*
X0199031Y0117983D02*
X0194843Y0117983D01*
X0196023Y0116803D02*
X0199031Y0116803D01*
X0199031Y0115624D02*
X0197203Y0115624D01*
X0198302Y0114444D02*
X0199031Y0114444D01*
X0199031Y0113265D02*
X0198790Y0113265D01*
X0198874Y0112085D02*
X0199031Y0112085D01*
X0199031Y0110905D02*
X0198874Y0110905D01*
X0198874Y0109726D02*
X0199031Y0109726D01*
X0199031Y0108546D02*
X0198874Y0108546D01*
X0198874Y0107367D02*
X0199031Y0107367D01*
X0199031Y0106187D02*
X0198874Y0106187D01*
X0169990Y0071978D02*
X0169491Y0071978D01*
X0168844Y0070799D02*
X0170636Y0070799D01*
X0171816Y0069619D02*
X0167665Y0069619D01*
X0174788Y0031871D02*
X0188321Y0031871D01*
X0191238Y0031871D02*
X0199031Y0031871D01*
X0199031Y0030692D02*
X0195860Y0030692D01*
X0194585Y0031341D02*
X0194585Y0031341D01*
X0198175Y0029512D02*
X0199031Y0029512D01*
X0198920Y0029132D02*
X0198920Y0029132D01*
X0184974Y0031341D02*
X0184974Y0031341D01*
X0183699Y0030692D02*
X0176119Y0030692D01*
X0176986Y0029512D02*
X0181384Y0029512D01*
X0180639Y0029132D02*
X0180639Y0029132D01*
X0179839Y0028332D02*
X0177474Y0028332D01*
X0177693Y0027153D02*
X0178659Y0027153D01*
X0171787Y0019307D02*
X0171787Y0016787D01*
X0171394Y0016787D01*
X0171394Y0019307D01*
X0171787Y0019307D01*
X0171787Y0018896D02*
X0171394Y0018896D01*
X0171394Y0017716D02*
X0171787Y0017716D01*
X0171787Y0015357D02*
X0171394Y0015357D01*
X0171394Y0014177D02*
X0171787Y0014177D01*
X0171787Y0012997D02*
X0171394Y0012997D01*
X0171394Y0011818D02*
X0171787Y0011818D01*
X0173515Y0011818D02*
X0174978Y0011818D01*
X0175554Y0010638D02*
X0163167Y0010638D01*
X0165448Y0011818D02*
X0169666Y0011818D01*
X0167923Y0012997D02*
X0166627Y0012997D01*
X0160014Y0010638D02*
X0143167Y0010638D01*
X0145448Y0011818D02*
X0149666Y0011818D01*
X0151394Y0011818D02*
X0151787Y0011818D01*
X0151787Y0012997D02*
X0151394Y0012997D01*
X0151394Y0014177D02*
X0151787Y0014177D01*
X0151787Y0015357D02*
X0151394Y0015357D01*
X0151394Y0016787D02*
X0151394Y0019307D01*
X0151787Y0019307D01*
X0151787Y0016787D01*
X0151394Y0016787D01*
X0151394Y0017716D02*
X0151787Y0017716D01*
X0151787Y0018896D02*
X0151394Y0018896D01*
X0147923Y0012997D02*
X0146627Y0012997D01*
X0153515Y0011818D02*
X0157733Y0011818D01*
X0156554Y0012997D02*
X0155258Y0012997D01*
X0140014Y0010638D02*
X0123167Y0010638D01*
X0125448Y0011818D02*
X0129666Y0011818D01*
X0131394Y0011818D02*
X0131787Y0011818D01*
X0131787Y0012997D02*
X0131394Y0012997D01*
X0131394Y0014177D02*
X0131787Y0014177D01*
X0131787Y0015357D02*
X0131394Y0015357D01*
X0131394Y0016787D02*
X0131394Y0019307D01*
X0131787Y0019307D01*
X0131787Y0016787D01*
X0131394Y0016787D01*
X0131394Y0017716D02*
X0131787Y0017716D01*
X0131787Y0018896D02*
X0131394Y0018896D01*
X0127923Y0012997D02*
X0126627Y0012997D01*
X0133515Y0011818D02*
X0137733Y0011818D01*
X0136554Y0012997D02*
X0135258Y0012997D01*
X0108393Y0031871D02*
X0106118Y0031871D01*
X0072296Y0096750D02*
X0063917Y0096750D01*
X0062737Y0097930D02*
X0073475Y0097930D01*
X0052628Y0107367D02*
X0052553Y0107367D01*
X0043563Y0096750D02*
X0042547Y0096750D01*
X0064810Y0125061D02*
X0075880Y0125061D01*
X0074905Y0126240D02*
X0064322Y0126240D01*
X0063247Y0127420D02*
X0074579Y0127420D01*
X0097240Y0108740D02*
X0097240Y0103953D01*
X0097240Y0108740D02*
X0103240Y0114740D01*
X0108740Y0114740D01*
X0106137Y0117983D02*
X0099890Y0117983D01*
X0099890Y0116803D02*
X0100849Y0116803D01*
X0099890Y0123881D02*
X0104753Y0123881D01*
X0107740Y0126740D02*
X0107340Y0127140D01*
X0101240Y0127140D01*
X0101240Y0129740D02*
X0111740Y0129740D01*
X0113740Y0114740D02*
X0113740Y0107740D01*
X0109740Y0103740D01*
X0108240Y0103740D01*
X0108028Y0103953D01*
X0113604Y0101468D02*
X0121393Y0101468D01*
X0121544Y0101261D02*
X0122010Y0100794D01*
X0122544Y0100406D01*
X0123132Y0100107D01*
X0123759Y0099903D01*
X0124410Y0099800D01*
X0124531Y0099800D01*
X0124531Y0106381D01*
X0120550Y0106381D01*
X0120550Y0103661D01*
X0120653Y0103009D01*
X0120857Y0102382D01*
X0121156Y0101794D01*
X0121544Y0101261D01*
X0122775Y0100289D02*
X0112994Y0100289D01*
X0114092Y0102648D02*
X0120770Y0102648D01*
X0120550Y0103828D02*
X0114282Y0103828D01*
X0115462Y0105007D02*
X0120550Y0105007D01*
X0120550Y0106187D02*
X0116506Y0106187D01*
X0116890Y0107367D02*
X0120550Y0107367D01*
X0120550Y0108546D02*
X0116890Y0108546D01*
X0116890Y0109726D02*
X0120582Y0109726D01*
X0120911Y0110905D02*
X0116890Y0110905D01*
X0116931Y0112085D02*
X0121708Y0112085D01*
X0123718Y0113265D02*
X0117603Y0113265D01*
X0124531Y0113265D02*
X0124950Y0113265D01*
X0124950Y0112085D02*
X0124531Y0112085D01*
X0124531Y0110905D02*
X0124950Y0110905D01*
X0124950Y0109726D02*
X0124531Y0109726D01*
X0124531Y0108546D02*
X0124950Y0108546D01*
X0124950Y0107367D02*
X0124531Y0107367D01*
X0124531Y0106187D02*
X0124950Y0106187D01*
X0124950Y0105007D02*
X0124531Y0105007D01*
X0124531Y0103828D02*
X0124950Y0103828D01*
X0124950Y0102648D02*
X0124531Y0102648D01*
X0124531Y0101468D02*
X0124950Y0101468D01*
X0124950Y0100289D02*
X0124531Y0100289D01*
X0125999Y0117983D02*
X0130606Y0117983D01*
X0130606Y0119163D02*
X0127793Y0119163D01*
X0128850Y0120342D02*
X0130606Y0120342D01*
X0130606Y0121522D02*
X0129339Y0121522D01*
X0129693Y0122702D02*
X0130606Y0122702D01*
X0130253Y0123881D02*
X0129693Y0123881D01*
X0185268Y0158090D02*
X0186266Y0158090D01*
X0186752Y0159270D02*
X0185268Y0159270D01*
X0185268Y0160449D02*
X0187632Y0160449D01*
X0185268Y0165168D02*
X0199031Y0165168D01*
X0199031Y0166347D02*
X0185268Y0166347D01*
X0185268Y0167527D02*
X0199031Y0167527D01*
X0199031Y0168706D02*
X0185268Y0168706D01*
X0185268Y0169886D02*
X0199031Y0169886D01*
X0199031Y0171066D02*
X0185268Y0171066D01*
X0185268Y0172245D02*
X0199031Y0172245D01*
X0199031Y0173425D02*
X0185268Y0173425D01*
X0185268Y0174605D02*
X0187404Y0174605D01*
X0189780Y0174228D02*
X0189780Y0174228D01*
X0192155Y0174605D02*
X0199031Y0174605D01*
X0199031Y0175784D02*
X0196145Y0175784D01*
X0194585Y0174989D02*
X0194585Y0174989D01*
X0198460Y0176964D02*
X0199031Y0176964D01*
X0199031Y0161629D02*
X0193878Y0161629D01*
X0195549Y0160449D02*
X0199031Y0160449D01*
X0199031Y0159270D02*
X0196429Y0159270D01*
X0196915Y0158090D02*
X0199031Y0158090D01*
X0044213Y0156910D02*
X0007299Y0156910D01*
X0007299Y0155731D02*
X0044213Y0155731D01*
X0044192Y0154551D02*
X0007299Y0154551D01*
X0007299Y0153371D02*
X0044213Y0153371D01*
X0044213Y0152192D02*
X0007299Y0152192D01*
X0007299Y0151012D02*
X0044213Y0151012D01*
X0044213Y0149833D02*
X0007299Y0149833D01*
X0007299Y0148653D02*
X0044213Y0148653D01*
X0044213Y0147473D02*
X0041626Y0147473D01*
X0042991Y0146294D02*
X0043181Y0146294D01*
X0039134Y0146294D02*
X0038346Y0146294D01*
X0038346Y0147473D02*
X0039134Y0147473D01*
X0039134Y0145114D02*
X0038346Y0145114D01*
X0038346Y0143935D02*
X0039134Y0143935D01*
X0035854Y0147473D02*
X0007299Y0147473D01*
X0007299Y0146294D02*
X0034490Y0146294D01*
X0033746Y0145114D02*
X0007299Y0145114D01*
X0007299Y0143935D02*
X0033333Y0143935D01*
X0037446Y0157349D02*
X0038305Y0157213D01*
X0038346Y0157213D01*
X0038346Y0162346D01*
X0033213Y0162346D01*
X0033213Y0162305D01*
X0033349Y0161446D01*
X0033618Y0160618D01*
X0034013Y0159843D01*
X0034524Y0159139D01*
X0035139Y0158524D01*
X0035843Y0158013D01*
X0036618Y0157618D01*
X0037446Y0157349D01*
X0038346Y0158090D02*
X0039134Y0158090D01*
X0039134Y0159270D02*
X0038346Y0159270D01*
X0038346Y0160449D02*
X0039134Y0160449D01*
X0039134Y0161629D02*
X0038346Y0161629D01*
X0038346Y0162808D02*
X0007299Y0162808D01*
X0007299Y0161629D02*
X0033320Y0161629D01*
X0033704Y0160449D02*
X0007299Y0160449D01*
X0007299Y0159270D02*
X0034429Y0159270D01*
X0035737Y0158090D02*
X0007299Y0158090D01*
X0007299Y0163988D02*
X0033341Y0163988D01*
X0033773Y0165168D02*
X0007299Y0165168D01*
X0007299Y0166347D02*
X0034530Y0166347D01*
X0035959Y0167527D02*
X0007299Y0167527D01*
X0007299Y0168706D02*
X0034957Y0168706D01*
X0033991Y0169886D02*
X0007299Y0169886D01*
X0007299Y0171066D02*
X0033472Y0171066D01*
X0033222Y0172245D02*
X0007299Y0172245D01*
X0007299Y0173425D02*
X0033252Y0173425D01*
X0033534Y0174605D02*
X0018926Y0174605D01*
X0021357Y0174989D02*
X0021357Y0174989D01*
X0022916Y0175784D02*
X0034119Y0175784D01*
X0035149Y0176964D02*
X0025231Y0176964D01*
X0025692Y0177198D02*
X0025692Y0177198D01*
X0026637Y0178143D02*
X0035663Y0178143D01*
X0034390Y0179323D02*
X0027817Y0179323D01*
X0028996Y0180503D02*
X0033677Y0180503D01*
X0033311Y0181682D02*
X0029664Y0181682D01*
X0029132Y0180639D02*
X0029132Y0180639D01*
X0030265Y0182862D02*
X0038346Y0182862D01*
X0038346Y0183134D02*
X0038346Y0192346D01*
X0039134Y0192346D01*
X0039134Y0187213D01*
X0039134Y0183134D01*
X0038346Y0183134D01*
X0038346Y0182346D02*
X0039134Y0182346D01*
X0039134Y0177213D01*
X0039134Y0173134D01*
X0038346Y0173134D01*
X0038346Y0182346D01*
X0038346Y0181682D02*
X0039134Y0181682D01*
X0039134Y0180503D02*
X0038346Y0180503D01*
X0038346Y0179323D02*
X0039134Y0179323D01*
X0039134Y0178143D02*
X0038346Y0178143D01*
X0038346Y0176964D02*
X0039134Y0176964D01*
X0039134Y0175784D02*
X0038346Y0175784D01*
X0038346Y0174605D02*
X0039134Y0174605D01*
X0039134Y0173425D02*
X0038346Y0173425D01*
X0038346Y0172346D02*
X0039134Y0172346D01*
X0039134Y0168268D01*
X0039134Y0163134D01*
X0038346Y0163134D01*
X0038346Y0172346D01*
X0038346Y0172245D02*
X0039134Y0172245D01*
X0039134Y0171066D02*
X0038346Y0171066D01*
X0038346Y0169886D02*
X0039134Y0169886D01*
X0039134Y0168706D02*
X0038346Y0168706D01*
X0038346Y0167527D02*
X0039134Y0167527D01*
X0039134Y0166347D02*
X0038346Y0166347D01*
X0038346Y0165168D02*
X0039134Y0165168D01*
X0039134Y0163988D02*
X0038346Y0163988D01*
X0043051Y0159270D02*
X0043146Y0159270D01*
X0044204Y0158090D02*
X0041744Y0158090D01*
X0039134Y0184041D02*
X0038346Y0184041D01*
X0038346Y0185221D02*
X0039134Y0185221D01*
X0039134Y0186401D02*
X0038346Y0186401D01*
X0038346Y0187580D02*
X0039134Y0187580D01*
X0039134Y0188760D02*
X0038346Y0188760D01*
X0038346Y0189940D02*
X0039134Y0189940D01*
X0039134Y0191119D02*
X0038346Y0191119D01*
X0038346Y0192299D02*
X0039134Y0192299D01*
X0038346Y0193134D02*
X0033213Y0193134D01*
X0033213Y0193175D01*
X0033349Y0194035D01*
X0033618Y0194862D01*
X0034013Y0195637D01*
X0034524Y0196341D01*
X0035139Y0196956D01*
X0035843Y0197468D01*
X0036618Y0197863D01*
X0037446Y0198132D01*
X0038305Y0198268D01*
X0038346Y0198268D01*
X0038346Y0193134D01*
X0038346Y0193478D02*
X0039134Y0193478D01*
X0039134Y0194658D02*
X0038346Y0194658D01*
X0038346Y0195838D02*
X0039134Y0195838D01*
X0039134Y0197017D02*
X0038346Y0197017D01*
X0038346Y0198197D02*
X0039134Y0198197D01*
X0039623Y0198197D02*
X0045010Y0198197D01*
X0043830Y0197017D02*
X0042257Y0197017D01*
X0037857Y0198197D02*
X0029501Y0198197D01*
X0029132Y0198920D02*
X0029132Y0198920D01*
X0030102Y0197017D02*
X0035223Y0197017D01*
X0034158Y0195838D02*
X0030703Y0195838D01*
X0031304Y0194658D02*
X0033551Y0194658D01*
X0033261Y0193478D02*
X0031517Y0193478D01*
X0031341Y0194585D02*
X0031341Y0194585D01*
X0031703Y0192299D02*
X0033214Y0192299D01*
X0033455Y0191119D02*
X0031890Y0191119D01*
X0032077Y0189940D02*
X0033963Y0189940D01*
X0034903Y0188760D02*
X0031941Y0188760D01*
X0031754Y0187580D02*
X0036064Y0187580D01*
X0034584Y0186401D02*
X0031567Y0186401D01*
X0031380Y0185221D02*
X0033801Y0185221D01*
X0033351Y0184041D02*
X0030866Y0184041D01*
X0031341Y0184974D02*
X0031341Y0184974D01*
X0016551Y0174228D02*
X0016551Y0174228D01*
X0014176Y0174605D02*
X0007299Y0174605D01*
X0007299Y0175784D02*
X0010186Y0175784D01*
X0011746Y0174989D02*
X0011746Y0174989D01*
X0007871Y0176964D02*
X0007299Y0176964D01*
X0030191Y0023614D02*
X0033282Y0023614D01*
X0033290Y0011818D02*
X0031353Y0011818D01*
X0031341Y0011746D02*
X0031341Y0011746D01*
X0030777Y0010638D02*
X0033611Y0010638D01*
X0034292Y0009459D02*
X0030176Y0009459D01*
X0029575Y0008279D02*
X0035476Y0008279D01*
X0029132Y0007410D02*
X0029132Y0007410D01*
D28*
X0014740Y0044740D03*
X0014740Y0064740D03*
X0014740Y0084740D03*
X0027969Y0103559D03*
X0014740Y0104740D03*
X0014740Y0124740D03*
X0014740Y0144740D03*
X0014740Y0164740D03*
X0048835Y0103165D03*
X0068520Y0103165D03*
X0103890Y0120276D03*
X0108740Y0114740D03*
X0113740Y0114740D03*
X0107740Y0126740D03*
X0111740Y0129740D03*
X0107740Y0132740D03*
X0111740Y0135740D03*
X0108740Y0138740D03*
X0111740Y0141740D03*
X0108740Y0144740D03*
X0111740Y0147740D03*
X0108740Y0153740D03*
X0109740Y0157740D03*
X0122457Y0160646D03*
X0088598Y0158283D03*
X0159457Y0143646D03*
X0194898Y0068520D03*
X0176787Y0037024D03*
M02*
