G75*
%MOIN*%
%OFA0B0*%
%FSLAX25Y25*%
%IPPOS*%
%LPD*%
%AMOC8*
5,1,8,0,0,1.08239X$1,22.5*
%
%ADD10C,0.00000*%
D10*
X0004740Y0016551D02*
X0004740Y0189780D01*
X0010252Y0189780D02*
X0010254Y0189938D01*
X0010260Y0190096D01*
X0010270Y0190254D01*
X0010284Y0190412D01*
X0010302Y0190569D01*
X0010323Y0190726D01*
X0010349Y0190882D01*
X0010379Y0191038D01*
X0010412Y0191193D01*
X0010450Y0191346D01*
X0010491Y0191499D01*
X0010536Y0191651D01*
X0010585Y0191802D01*
X0010638Y0191951D01*
X0010694Y0192099D01*
X0010754Y0192245D01*
X0010818Y0192390D01*
X0010886Y0192533D01*
X0010957Y0192675D01*
X0011031Y0192815D01*
X0011109Y0192952D01*
X0011191Y0193088D01*
X0011275Y0193222D01*
X0011364Y0193353D01*
X0011455Y0193482D01*
X0011550Y0193609D01*
X0011647Y0193734D01*
X0011748Y0193856D01*
X0011852Y0193975D01*
X0011959Y0194092D01*
X0012069Y0194206D01*
X0012182Y0194317D01*
X0012297Y0194426D01*
X0012415Y0194531D01*
X0012536Y0194633D01*
X0012659Y0194733D01*
X0012785Y0194829D01*
X0012913Y0194922D01*
X0013043Y0195012D01*
X0013176Y0195098D01*
X0013311Y0195182D01*
X0013447Y0195261D01*
X0013586Y0195338D01*
X0013727Y0195410D01*
X0013869Y0195480D01*
X0014013Y0195545D01*
X0014159Y0195607D01*
X0014306Y0195665D01*
X0014455Y0195720D01*
X0014605Y0195771D01*
X0014756Y0195818D01*
X0014908Y0195861D01*
X0015061Y0195900D01*
X0015216Y0195936D01*
X0015371Y0195967D01*
X0015527Y0195995D01*
X0015683Y0196019D01*
X0015840Y0196039D01*
X0015998Y0196055D01*
X0016155Y0196067D01*
X0016314Y0196075D01*
X0016472Y0196079D01*
X0016630Y0196079D01*
X0016788Y0196075D01*
X0016947Y0196067D01*
X0017104Y0196055D01*
X0017262Y0196039D01*
X0017419Y0196019D01*
X0017575Y0195995D01*
X0017731Y0195967D01*
X0017886Y0195936D01*
X0018041Y0195900D01*
X0018194Y0195861D01*
X0018346Y0195818D01*
X0018497Y0195771D01*
X0018647Y0195720D01*
X0018796Y0195665D01*
X0018943Y0195607D01*
X0019089Y0195545D01*
X0019233Y0195480D01*
X0019375Y0195410D01*
X0019516Y0195338D01*
X0019655Y0195261D01*
X0019791Y0195182D01*
X0019926Y0195098D01*
X0020059Y0195012D01*
X0020189Y0194922D01*
X0020317Y0194829D01*
X0020443Y0194733D01*
X0020566Y0194633D01*
X0020687Y0194531D01*
X0020805Y0194426D01*
X0020920Y0194317D01*
X0021033Y0194206D01*
X0021143Y0194092D01*
X0021250Y0193975D01*
X0021354Y0193856D01*
X0021455Y0193734D01*
X0021552Y0193609D01*
X0021647Y0193482D01*
X0021738Y0193353D01*
X0021827Y0193222D01*
X0021911Y0193088D01*
X0021993Y0192952D01*
X0022071Y0192815D01*
X0022145Y0192675D01*
X0022216Y0192533D01*
X0022284Y0192390D01*
X0022348Y0192245D01*
X0022408Y0192099D01*
X0022464Y0191951D01*
X0022517Y0191802D01*
X0022566Y0191651D01*
X0022611Y0191499D01*
X0022652Y0191346D01*
X0022690Y0191193D01*
X0022723Y0191038D01*
X0022753Y0190882D01*
X0022779Y0190726D01*
X0022800Y0190569D01*
X0022818Y0190412D01*
X0022832Y0190254D01*
X0022842Y0190096D01*
X0022848Y0189938D01*
X0022850Y0189780D01*
X0022848Y0189622D01*
X0022842Y0189464D01*
X0022832Y0189306D01*
X0022818Y0189148D01*
X0022800Y0188991D01*
X0022779Y0188834D01*
X0022753Y0188678D01*
X0022723Y0188522D01*
X0022690Y0188367D01*
X0022652Y0188214D01*
X0022611Y0188061D01*
X0022566Y0187909D01*
X0022517Y0187758D01*
X0022464Y0187609D01*
X0022408Y0187461D01*
X0022348Y0187315D01*
X0022284Y0187170D01*
X0022216Y0187027D01*
X0022145Y0186885D01*
X0022071Y0186745D01*
X0021993Y0186608D01*
X0021911Y0186472D01*
X0021827Y0186338D01*
X0021738Y0186207D01*
X0021647Y0186078D01*
X0021552Y0185951D01*
X0021455Y0185826D01*
X0021354Y0185704D01*
X0021250Y0185585D01*
X0021143Y0185468D01*
X0021033Y0185354D01*
X0020920Y0185243D01*
X0020805Y0185134D01*
X0020687Y0185029D01*
X0020566Y0184927D01*
X0020443Y0184827D01*
X0020317Y0184731D01*
X0020189Y0184638D01*
X0020059Y0184548D01*
X0019926Y0184462D01*
X0019791Y0184378D01*
X0019655Y0184299D01*
X0019516Y0184222D01*
X0019375Y0184150D01*
X0019233Y0184080D01*
X0019089Y0184015D01*
X0018943Y0183953D01*
X0018796Y0183895D01*
X0018647Y0183840D01*
X0018497Y0183789D01*
X0018346Y0183742D01*
X0018194Y0183699D01*
X0018041Y0183660D01*
X0017886Y0183624D01*
X0017731Y0183593D01*
X0017575Y0183565D01*
X0017419Y0183541D01*
X0017262Y0183521D01*
X0017104Y0183505D01*
X0016947Y0183493D01*
X0016788Y0183485D01*
X0016630Y0183481D01*
X0016472Y0183481D01*
X0016314Y0183485D01*
X0016155Y0183493D01*
X0015998Y0183505D01*
X0015840Y0183521D01*
X0015683Y0183541D01*
X0015527Y0183565D01*
X0015371Y0183593D01*
X0015216Y0183624D01*
X0015061Y0183660D01*
X0014908Y0183699D01*
X0014756Y0183742D01*
X0014605Y0183789D01*
X0014455Y0183840D01*
X0014306Y0183895D01*
X0014159Y0183953D01*
X0014013Y0184015D01*
X0013869Y0184080D01*
X0013727Y0184150D01*
X0013586Y0184222D01*
X0013447Y0184299D01*
X0013311Y0184378D01*
X0013176Y0184462D01*
X0013043Y0184548D01*
X0012913Y0184638D01*
X0012785Y0184731D01*
X0012659Y0184827D01*
X0012536Y0184927D01*
X0012415Y0185029D01*
X0012297Y0185134D01*
X0012182Y0185243D01*
X0012069Y0185354D01*
X0011959Y0185468D01*
X0011852Y0185585D01*
X0011748Y0185704D01*
X0011647Y0185826D01*
X0011550Y0185951D01*
X0011455Y0186078D01*
X0011364Y0186207D01*
X0011275Y0186338D01*
X0011191Y0186472D01*
X0011109Y0186608D01*
X0011031Y0186745D01*
X0010957Y0186885D01*
X0010886Y0187027D01*
X0010818Y0187170D01*
X0010754Y0187315D01*
X0010694Y0187461D01*
X0010638Y0187609D01*
X0010585Y0187758D01*
X0010536Y0187909D01*
X0010491Y0188061D01*
X0010450Y0188214D01*
X0010412Y0188367D01*
X0010379Y0188522D01*
X0010349Y0188678D01*
X0010323Y0188834D01*
X0010302Y0188991D01*
X0010284Y0189148D01*
X0010270Y0189306D01*
X0010260Y0189464D01*
X0010254Y0189622D01*
X0010252Y0189780D01*
X0004740Y0189780D02*
X0004743Y0190065D01*
X0004754Y0190351D01*
X0004771Y0190636D01*
X0004795Y0190920D01*
X0004826Y0191204D01*
X0004864Y0191487D01*
X0004909Y0191768D01*
X0004960Y0192049D01*
X0005018Y0192329D01*
X0005083Y0192607D01*
X0005155Y0192883D01*
X0005233Y0193157D01*
X0005318Y0193430D01*
X0005410Y0193700D01*
X0005508Y0193968D01*
X0005612Y0194234D01*
X0005723Y0194497D01*
X0005840Y0194757D01*
X0005963Y0195015D01*
X0006093Y0195269D01*
X0006229Y0195520D01*
X0006370Y0195768D01*
X0006518Y0196012D01*
X0006671Y0196253D01*
X0006831Y0196489D01*
X0006996Y0196722D01*
X0007166Y0196951D01*
X0007342Y0197176D01*
X0007524Y0197396D01*
X0007710Y0197612D01*
X0007902Y0197823D01*
X0008099Y0198030D01*
X0008301Y0198232D01*
X0008508Y0198429D01*
X0008719Y0198621D01*
X0008935Y0198807D01*
X0009155Y0198989D01*
X0009380Y0199165D01*
X0009609Y0199335D01*
X0009842Y0199500D01*
X0010078Y0199660D01*
X0010319Y0199813D01*
X0010563Y0199961D01*
X0010811Y0200102D01*
X0011062Y0200238D01*
X0011316Y0200368D01*
X0011574Y0200491D01*
X0011834Y0200608D01*
X0012097Y0200719D01*
X0012363Y0200823D01*
X0012631Y0200921D01*
X0012901Y0201013D01*
X0013174Y0201098D01*
X0013448Y0201176D01*
X0013724Y0201248D01*
X0014002Y0201313D01*
X0014282Y0201371D01*
X0014563Y0201422D01*
X0014844Y0201467D01*
X0015127Y0201505D01*
X0015411Y0201536D01*
X0015695Y0201560D01*
X0015980Y0201577D01*
X0016266Y0201588D01*
X0016551Y0201591D01*
X0189780Y0201591D01*
X0183481Y0189780D02*
X0183483Y0189938D01*
X0183489Y0190096D01*
X0183499Y0190254D01*
X0183513Y0190412D01*
X0183531Y0190569D01*
X0183552Y0190726D01*
X0183578Y0190882D01*
X0183608Y0191038D01*
X0183641Y0191193D01*
X0183679Y0191346D01*
X0183720Y0191499D01*
X0183765Y0191651D01*
X0183814Y0191802D01*
X0183867Y0191951D01*
X0183923Y0192099D01*
X0183983Y0192245D01*
X0184047Y0192390D01*
X0184115Y0192533D01*
X0184186Y0192675D01*
X0184260Y0192815D01*
X0184338Y0192952D01*
X0184420Y0193088D01*
X0184504Y0193222D01*
X0184593Y0193353D01*
X0184684Y0193482D01*
X0184779Y0193609D01*
X0184876Y0193734D01*
X0184977Y0193856D01*
X0185081Y0193975D01*
X0185188Y0194092D01*
X0185298Y0194206D01*
X0185411Y0194317D01*
X0185526Y0194426D01*
X0185644Y0194531D01*
X0185765Y0194633D01*
X0185888Y0194733D01*
X0186014Y0194829D01*
X0186142Y0194922D01*
X0186272Y0195012D01*
X0186405Y0195098D01*
X0186540Y0195182D01*
X0186676Y0195261D01*
X0186815Y0195338D01*
X0186956Y0195410D01*
X0187098Y0195480D01*
X0187242Y0195545D01*
X0187388Y0195607D01*
X0187535Y0195665D01*
X0187684Y0195720D01*
X0187834Y0195771D01*
X0187985Y0195818D01*
X0188137Y0195861D01*
X0188290Y0195900D01*
X0188445Y0195936D01*
X0188600Y0195967D01*
X0188756Y0195995D01*
X0188912Y0196019D01*
X0189069Y0196039D01*
X0189227Y0196055D01*
X0189384Y0196067D01*
X0189543Y0196075D01*
X0189701Y0196079D01*
X0189859Y0196079D01*
X0190017Y0196075D01*
X0190176Y0196067D01*
X0190333Y0196055D01*
X0190491Y0196039D01*
X0190648Y0196019D01*
X0190804Y0195995D01*
X0190960Y0195967D01*
X0191115Y0195936D01*
X0191270Y0195900D01*
X0191423Y0195861D01*
X0191575Y0195818D01*
X0191726Y0195771D01*
X0191876Y0195720D01*
X0192025Y0195665D01*
X0192172Y0195607D01*
X0192318Y0195545D01*
X0192462Y0195480D01*
X0192604Y0195410D01*
X0192745Y0195338D01*
X0192884Y0195261D01*
X0193020Y0195182D01*
X0193155Y0195098D01*
X0193288Y0195012D01*
X0193418Y0194922D01*
X0193546Y0194829D01*
X0193672Y0194733D01*
X0193795Y0194633D01*
X0193916Y0194531D01*
X0194034Y0194426D01*
X0194149Y0194317D01*
X0194262Y0194206D01*
X0194372Y0194092D01*
X0194479Y0193975D01*
X0194583Y0193856D01*
X0194684Y0193734D01*
X0194781Y0193609D01*
X0194876Y0193482D01*
X0194967Y0193353D01*
X0195056Y0193222D01*
X0195140Y0193088D01*
X0195222Y0192952D01*
X0195300Y0192815D01*
X0195374Y0192675D01*
X0195445Y0192533D01*
X0195513Y0192390D01*
X0195577Y0192245D01*
X0195637Y0192099D01*
X0195693Y0191951D01*
X0195746Y0191802D01*
X0195795Y0191651D01*
X0195840Y0191499D01*
X0195881Y0191346D01*
X0195919Y0191193D01*
X0195952Y0191038D01*
X0195982Y0190882D01*
X0196008Y0190726D01*
X0196029Y0190569D01*
X0196047Y0190412D01*
X0196061Y0190254D01*
X0196071Y0190096D01*
X0196077Y0189938D01*
X0196079Y0189780D01*
X0196077Y0189622D01*
X0196071Y0189464D01*
X0196061Y0189306D01*
X0196047Y0189148D01*
X0196029Y0188991D01*
X0196008Y0188834D01*
X0195982Y0188678D01*
X0195952Y0188522D01*
X0195919Y0188367D01*
X0195881Y0188214D01*
X0195840Y0188061D01*
X0195795Y0187909D01*
X0195746Y0187758D01*
X0195693Y0187609D01*
X0195637Y0187461D01*
X0195577Y0187315D01*
X0195513Y0187170D01*
X0195445Y0187027D01*
X0195374Y0186885D01*
X0195300Y0186745D01*
X0195222Y0186608D01*
X0195140Y0186472D01*
X0195056Y0186338D01*
X0194967Y0186207D01*
X0194876Y0186078D01*
X0194781Y0185951D01*
X0194684Y0185826D01*
X0194583Y0185704D01*
X0194479Y0185585D01*
X0194372Y0185468D01*
X0194262Y0185354D01*
X0194149Y0185243D01*
X0194034Y0185134D01*
X0193916Y0185029D01*
X0193795Y0184927D01*
X0193672Y0184827D01*
X0193546Y0184731D01*
X0193418Y0184638D01*
X0193288Y0184548D01*
X0193155Y0184462D01*
X0193020Y0184378D01*
X0192884Y0184299D01*
X0192745Y0184222D01*
X0192604Y0184150D01*
X0192462Y0184080D01*
X0192318Y0184015D01*
X0192172Y0183953D01*
X0192025Y0183895D01*
X0191876Y0183840D01*
X0191726Y0183789D01*
X0191575Y0183742D01*
X0191423Y0183699D01*
X0191270Y0183660D01*
X0191115Y0183624D01*
X0190960Y0183593D01*
X0190804Y0183565D01*
X0190648Y0183541D01*
X0190491Y0183521D01*
X0190333Y0183505D01*
X0190176Y0183493D01*
X0190017Y0183485D01*
X0189859Y0183481D01*
X0189701Y0183481D01*
X0189543Y0183485D01*
X0189384Y0183493D01*
X0189227Y0183505D01*
X0189069Y0183521D01*
X0188912Y0183541D01*
X0188756Y0183565D01*
X0188600Y0183593D01*
X0188445Y0183624D01*
X0188290Y0183660D01*
X0188137Y0183699D01*
X0187985Y0183742D01*
X0187834Y0183789D01*
X0187684Y0183840D01*
X0187535Y0183895D01*
X0187388Y0183953D01*
X0187242Y0184015D01*
X0187098Y0184080D01*
X0186956Y0184150D01*
X0186815Y0184222D01*
X0186676Y0184299D01*
X0186540Y0184378D01*
X0186405Y0184462D01*
X0186272Y0184548D01*
X0186142Y0184638D01*
X0186014Y0184731D01*
X0185888Y0184827D01*
X0185765Y0184927D01*
X0185644Y0185029D01*
X0185526Y0185134D01*
X0185411Y0185243D01*
X0185298Y0185354D01*
X0185188Y0185468D01*
X0185081Y0185585D01*
X0184977Y0185704D01*
X0184876Y0185826D01*
X0184779Y0185951D01*
X0184684Y0186078D01*
X0184593Y0186207D01*
X0184504Y0186338D01*
X0184420Y0186472D01*
X0184338Y0186608D01*
X0184260Y0186745D01*
X0184186Y0186885D01*
X0184115Y0187027D01*
X0184047Y0187170D01*
X0183983Y0187315D01*
X0183923Y0187461D01*
X0183867Y0187609D01*
X0183814Y0187758D01*
X0183765Y0187909D01*
X0183720Y0188061D01*
X0183679Y0188214D01*
X0183641Y0188367D01*
X0183608Y0188522D01*
X0183578Y0188678D01*
X0183552Y0188834D01*
X0183531Y0188991D01*
X0183513Y0189148D01*
X0183499Y0189306D01*
X0183489Y0189464D01*
X0183483Y0189622D01*
X0183481Y0189780D01*
X0189780Y0201591D02*
X0190065Y0201588D01*
X0190351Y0201577D01*
X0190636Y0201560D01*
X0190920Y0201536D01*
X0191204Y0201505D01*
X0191487Y0201467D01*
X0191768Y0201422D01*
X0192049Y0201371D01*
X0192329Y0201313D01*
X0192607Y0201248D01*
X0192883Y0201176D01*
X0193157Y0201098D01*
X0193430Y0201013D01*
X0193700Y0200921D01*
X0193968Y0200823D01*
X0194234Y0200719D01*
X0194497Y0200608D01*
X0194757Y0200491D01*
X0195015Y0200368D01*
X0195269Y0200238D01*
X0195520Y0200102D01*
X0195768Y0199961D01*
X0196012Y0199813D01*
X0196253Y0199660D01*
X0196489Y0199500D01*
X0196722Y0199335D01*
X0196951Y0199165D01*
X0197176Y0198989D01*
X0197396Y0198807D01*
X0197612Y0198621D01*
X0197823Y0198429D01*
X0198030Y0198232D01*
X0198232Y0198030D01*
X0198429Y0197823D01*
X0198621Y0197612D01*
X0198807Y0197396D01*
X0198989Y0197176D01*
X0199165Y0196951D01*
X0199335Y0196722D01*
X0199500Y0196489D01*
X0199660Y0196253D01*
X0199813Y0196012D01*
X0199961Y0195768D01*
X0200102Y0195520D01*
X0200238Y0195269D01*
X0200368Y0195015D01*
X0200491Y0194757D01*
X0200608Y0194497D01*
X0200719Y0194234D01*
X0200823Y0193968D01*
X0200921Y0193700D01*
X0201013Y0193430D01*
X0201098Y0193157D01*
X0201176Y0192883D01*
X0201248Y0192607D01*
X0201313Y0192329D01*
X0201371Y0192049D01*
X0201422Y0191768D01*
X0201467Y0191487D01*
X0201505Y0191204D01*
X0201536Y0190920D01*
X0201560Y0190636D01*
X0201577Y0190351D01*
X0201588Y0190065D01*
X0201591Y0189780D01*
X0201591Y0016551D01*
X0183481Y0016551D02*
X0183483Y0016709D01*
X0183489Y0016867D01*
X0183499Y0017025D01*
X0183513Y0017183D01*
X0183531Y0017340D01*
X0183552Y0017497D01*
X0183578Y0017653D01*
X0183608Y0017809D01*
X0183641Y0017964D01*
X0183679Y0018117D01*
X0183720Y0018270D01*
X0183765Y0018422D01*
X0183814Y0018573D01*
X0183867Y0018722D01*
X0183923Y0018870D01*
X0183983Y0019016D01*
X0184047Y0019161D01*
X0184115Y0019304D01*
X0184186Y0019446D01*
X0184260Y0019586D01*
X0184338Y0019723D01*
X0184420Y0019859D01*
X0184504Y0019993D01*
X0184593Y0020124D01*
X0184684Y0020253D01*
X0184779Y0020380D01*
X0184876Y0020505D01*
X0184977Y0020627D01*
X0185081Y0020746D01*
X0185188Y0020863D01*
X0185298Y0020977D01*
X0185411Y0021088D01*
X0185526Y0021197D01*
X0185644Y0021302D01*
X0185765Y0021404D01*
X0185888Y0021504D01*
X0186014Y0021600D01*
X0186142Y0021693D01*
X0186272Y0021783D01*
X0186405Y0021869D01*
X0186540Y0021953D01*
X0186676Y0022032D01*
X0186815Y0022109D01*
X0186956Y0022181D01*
X0187098Y0022251D01*
X0187242Y0022316D01*
X0187388Y0022378D01*
X0187535Y0022436D01*
X0187684Y0022491D01*
X0187834Y0022542D01*
X0187985Y0022589D01*
X0188137Y0022632D01*
X0188290Y0022671D01*
X0188445Y0022707D01*
X0188600Y0022738D01*
X0188756Y0022766D01*
X0188912Y0022790D01*
X0189069Y0022810D01*
X0189227Y0022826D01*
X0189384Y0022838D01*
X0189543Y0022846D01*
X0189701Y0022850D01*
X0189859Y0022850D01*
X0190017Y0022846D01*
X0190176Y0022838D01*
X0190333Y0022826D01*
X0190491Y0022810D01*
X0190648Y0022790D01*
X0190804Y0022766D01*
X0190960Y0022738D01*
X0191115Y0022707D01*
X0191270Y0022671D01*
X0191423Y0022632D01*
X0191575Y0022589D01*
X0191726Y0022542D01*
X0191876Y0022491D01*
X0192025Y0022436D01*
X0192172Y0022378D01*
X0192318Y0022316D01*
X0192462Y0022251D01*
X0192604Y0022181D01*
X0192745Y0022109D01*
X0192884Y0022032D01*
X0193020Y0021953D01*
X0193155Y0021869D01*
X0193288Y0021783D01*
X0193418Y0021693D01*
X0193546Y0021600D01*
X0193672Y0021504D01*
X0193795Y0021404D01*
X0193916Y0021302D01*
X0194034Y0021197D01*
X0194149Y0021088D01*
X0194262Y0020977D01*
X0194372Y0020863D01*
X0194479Y0020746D01*
X0194583Y0020627D01*
X0194684Y0020505D01*
X0194781Y0020380D01*
X0194876Y0020253D01*
X0194967Y0020124D01*
X0195056Y0019993D01*
X0195140Y0019859D01*
X0195222Y0019723D01*
X0195300Y0019586D01*
X0195374Y0019446D01*
X0195445Y0019304D01*
X0195513Y0019161D01*
X0195577Y0019016D01*
X0195637Y0018870D01*
X0195693Y0018722D01*
X0195746Y0018573D01*
X0195795Y0018422D01*
X0195840Y0018270D01*
X0195881Y0018117D01*
X0195919Y0017964D01*
X0195952Y0017809D01*
X0195982Y0017653D01*
X0196008Y0017497D01*
X0196029Y0017340D01*
X0196047Y0017183D01*
X0196061Y0017025D01*
X0196071Y0016867D01*
X0196077Y0016709D01*
X0196079Y0016551D01*
X0196077Y0016393D01*
X0196071Y0016235D01*
X0196061Y0016077D01*
X0196047Y0015919D01*
X0196029Y0015762D01*
X0196008Y0015605D01*
X0195982Y0015449D01*
X0195952Y0015293D01*
X0195919Y0015138D01*
X0195881Y0014985D01*
X0195840Y0014832D01*
X0195795Y0014680D01*
X0195746Y0014529D01*
X0195693Y0014380D01*
X0195637Y0014232D01*
X0195577Y0014086D01*
X0195513Y0013941D01*
X0195445Y0013798D01*
X0195374Y0013656D01*
X0195300Y0013516D01*
X0195222Y0013379D01*
X0195140Y0013243D01*
X0195056Y0013109D01*
X0194967Y0012978D01*
X0194876Y0012849D01*
X0194781Y0012722D01*
X0194684Y0012597D01*
X0194583Y0012475D01*
X0194479Y0012356D01*
X0194372Y0012239D01*
X0194262Y0012125D01*
X0194149Y0012014D01*
X0194034Y0011905D01*
X0193916Y0011800D01*
X0193795Y0011698D01*
X0193672Y0011598D01*
X0193546Y0011502D01*
X0193418Y0011409D01*
X0193288Y0011319D01*
X0193155Y0011233D01*
X0193020Y0011149D01*
X0192884Y0011070D01*
X0192745Y0010993D01*
X0192604Y0010921D01*
X0192462Y0010851D01*
X0192318Y0010786D01*
X0192172Y0010724D01*
X0192025Y0010666D01*
X0191876Y0010611D01*
X0191726Y0010560D01*
X0191575Y0010513D01*
X0191423Y0010470D01*
X0191270Y0010431D01*
X0191115Y0010395D01*
X0190960Y0010364D01*
X0190804Y0010336D01*
X0190648Y0010312D01*
X0190491Y0010292D01*
X0190333Y0010276D01*
X0190176Y0010264D01*
X0190017Y0010256D01*
X0189859Y0010252D01*
X0189701Y0010252D01*
X0189543Y0010256D01*
X0189384Y0010264D01*
X0189227Y0010276D01*
X0189069Y0010292D01*
X0188912Y0010312D01*
X0188756Y0010336D01*
X0188600Y0010364D01*
X0188445Y0010395D01*
X0188290Y0010431D01*
X0188137Y0010470D01*
X0187985Y0010513D01*
X0187834Y0010560D01*
X0187684Y0010611D01*
X0187535Y0010666D01*
X0187388Y0010724D01*
X0187242Y0010786D01*
X0187098Y0010851D01*
X0186956Y0010921D01*
X0186815Y0010993D01*
X0186676Y0011070D01*
X0186540Y0011149D01*
X0186405Y0011233D01*
X0186272Y0011319D01*
X0186142Y0011409D01*
X0186014Y0011502D01*
X0185888Y0011598D01*
X0185765Y0011698D01*
X0185644Y0011800D01*
X0185526Y0011905D01*
X0185411Y0012014D01*
X0185298Y0012125D01*
X0185188Y0012239D01*
X0185081Y0012356D01*
X0184977Y0012475D01*
X0184876Y0012597D01*
X0184779Y0012722D01*
X0184684Y0012849D01*
X0184593Y0012978D01*
X0184504Y0013109D01*
X0184420Y0013243D01*
X0184338Y0013379D01*
X0184260Y0013516D01*
X0184186Y0013656D01*
X0184115Y0013798D01*
X0184047Y0013941D01*
X0183983Y0014086D01*
X0183923Y0014232D01*
X0183867Y0014380D01*
X0183814Y0014529D01*
X0183765Y0014680D01*
X0183720Y0014832D01*
X0183679Y0014985D01*
X0183641Y0015138D01*
X0183608Y0015293D01*
X0183578Y0015449D01*
X0183552Y0015605D01*
X0183531Y0015762D01*
X0183513Y0015919D01*
X0183499Y0016077D01*
X0183489Y0016235D01*
X0183483Y0016393D01*
X0183481Y0016551D01*
X0189780Y0004740D02*
X0190065Y0004743D01*
X0190351Y0004754D01*
X0190636Y0004771D01*
X0190920Y0004795D01*
X0191204Y0004826D01*
X0191487Y0004864D01*
X0191768Y0004909D01*
X0192049Y0004960D01*
X0192329Y0005018D01*
X0192607Y0005083D01*
X0192883Y0005155D01*
X0193157Y0005233D01*
X0193430Y0005318D01*
X0193700Y0005410D01*
X0193968Y0005508D01*
X0194234Y0005612D01*
X0194497Y0005723D01*
X0194757Y0005840D01*
X0195015Y0005963D01*
X0195269Y0006093D01*
X0195520Y0006229D01*
X0195768Y0006370D01*
X0196012Y0006518D01*
X0196253Y0006671D01*
X0196489Y0006831D01*
X0196722Y0006996D01*
X0196951Y0007166D01*
X0197176Y0007342D01*
X0197396Y0007524D01*
X0197612Y0007710D01*
X0197823Y0007902D01*
X0198030Y0008099D01*
X0198232Y0008301D01*
X0198429Y0008508D01*
X0198621Y0008719D01*
X0198807Y0008935D01*
X0198989Y0009155D01*
X0199165Y0009380D01*
X0199335Y0009609D01*
X0199500Y0009842D01*
X0199660Y0010078D01*
X0199813Y0010319D01*
X0199961Y0010563D01*
X0200102Y0010811D01*
X0200238Y0011062D01*
X0200368Y0011316D01*
X0200491Y0011574D01*
X0200608Y0011834D01*
X0200719Y0012097D01*
X0200823Y0012363D01*
X0200921Y0012631D01*
X0201013Y0012901D01*
X0201098Y0013174D01*
X0201176Y0013448D01*
X0201248Y0013724D01*
X0201313Y0014002D01*
X0201371Y0014282D01*
X0201422Y0014563D01*
X0201467Y0014844D01*
X0201505Y0015127D01*
X0201536Y0015411D01*
X0201560Y0015695D01*
X0201577Y0015980D01*
X0201588Y0016266D01*
X0201591Y0016551D01*
X0189780Y0004740D02*
X0016551Y0004740D01*
X0010252Y0016551D02*
X0010254Y0016709D01*
X0010260Y0016867D01*
X0010270Y0017025D01*
X0010284Y0017183D01*
X0010302Y0017340D01*
X0010323Y0017497D01*
X0010349Y0017653D01*
X0010379Y0017809D01*
X0010412Y0017964D01*
X0010450Y0018117D01*
X0010491Y0018270D01*
X0010536Y0018422D01*
X0010585Y0018573D01*
X0010638Y0018722D01*
X0010694Y0018870D01*
X0010754Y0019016D01*
X0010818Y0019161D01*
X0010886Y0019304D01*
X0010957Y0019446D01*
X0011031Y0019586D01*
X0011109Y0019723D01*
X0011191Y0019859D01*
X0011275Y0019993D01*
X0011364Y0020124D01*
X0011455Y0020253D01*
X0011550Y0020380D01*
X0011647Y0020505D01*
X0011748Y0020627D01*
X0011852Y0020746D01*
X0011959Y0020863D01*
X0012069Y0020977D01*
X0012182Y0021088D01*
X0012297Y0021197D01*
X0012415Y0021302D01*
X0012536Y0021404D01*
X0012659Y0021504D01*
X0012785Y0021600D01*
X0012913Y0021693D01*
X0013043Y0021783D01*
X0013176Y0021869D01*
X0013311Y0021953D01*
X0013447Y0022032D01*
X0013586Y0022109D01*
X0013727Y0022181D01*
X0013869Y0022251D01*
X0014013Y0022316D01*
X0014159Y0022378D01*
X0014306Y0022436D01*
X0014455Y0022491D01*
X0014605Y0022542D01*
X0014756Y0022589D01*
X0014908Y0022632D01*
X0015061Y0022671D01*
X0015216Y0022707D01*
X0015371Y0022738D01*
X0015527Y0022766D01*
X0015683Y0022790D01*
X0015840Y0022810D01*
X0015998Y0022826D01*
X0016155Y0022838D01*
X0016314Y0022846D01*
X0016472Y0022850D01*
X0016630Y0022850D01*
X0016788Y0022846D01*
X0016947Y0022838D01*
X0017104Y0022826D01*
X0017262Y0022810D01*
X0017419Y0022790D01*
X0017575Y0022766D01*
X0017731Y0022738D01*
X0017886Y0022707D01*
X0018041Y0022671D01*
X0018194Y0022632D01*
X0018346Y0022589D01*
X0018497Y0022542D01*
X0018647Y0022491D01*
X0018796Y0022436D01*
X0018943Y0022378D01*
X0019089Y0022316D01*
X0019233Y0022251D01*
X0019375Y0022181D01*
X0019516Y0022109D01*
X0019655Y0022032D01*
X0019791Y0021953D01*
X0019926Y0021869D01*
X0020059Y0021783D01*
X0020189Y0021693D01*
X0020317Y0021600D01*
X0020443Y0021504D01*
X0020566Y0021404D01*
X0020687Y0021302D01*
X0020805Y0021197D01*
X0020920Y0021088D01*
X0021033Y0020977D01*
X0021143Y0020863D01*
X0021250Y0020746D01*
X0021354Y0020627D01*
X0021455Y0020505D01*
X0021552Y0020380D01*
X0021647Y0020253D01*
X0021738Y0020124D01*
X0021827Y0019993D01*
X0021911Y0019859D01*
X0021993Y0019723D01*
X0022071Y0019586D01*
X0022145Y0019446D01*
X0022216Y0019304D01*
X0022284Y0019161D01*
X0022348Y0019016D01*
X0022408Y0018870D01*
X0022464Y0018722D01*
X0022517Y0018573D01*
X0022566Y0018422D01*
X0022611Y0018270D01*
X0022652Y0018117D01*
X0022690Y0017964D01*
X0022723Y0017809D01*
X0022753Y0017653D01*
X0022779Y0017497D01*
X0022800Y0017340D01*
X0022818Y0017183D01*
X0022832Y0017025D01*
X0022842Y0016867D01*
X0022848Y0016709D01*
X0022850Y0016551D01*
X0022848Y0016393D01*
X0022842Y0016235D01*
X0022832Y0016077D01*
X0022818Y0015919D01*
X0022800Y0015762D01*
X0022779Y0015605D01*
X0022753Y0015449D01*
X0022723Y0015293D01*
X0022690Y0015138D01*
X0022652Y0014985D01*
X0022611Y0014832D01*
X0022566Y0014680D01*
X0022517Y0014529D01*
X0022464Y0014380D01*
X0022408Y0014232D01*
X0022348Y0014086D01*
X0022284Y0013941D01*
X0022216Y0013798D01*
X0022145Y0013656D01*
X0022071Y0013516D01*
X0021993Y0013379D01*
X0021911Y0013243D01*
X0021827Y0013109D01*
X0021738Y0012978D01*
X0021647Y0012849D01*
X0021552Y0012722D01*
X0021455Y0012597D01*
X0021354Y0012475D01*
X0021250Y0012356D01*
X0021143Y0012239D01*
X0021033Y0012125D01*
X0020920Y0012014D01*
X0020805Y0011905D01*
X0020687Y0011800D01*
X0020566Y0011698D01*
X0020443Y0011598D01*
X0020317Y0011502D01*
X0020189Y0011409D01*
X0020059Y0011319D01*
X0019926Y0011233D01*
X0019791Y0011149D01*
X0019655Y0011070D01*
X0019516Y0010993D01*
X0019375Y0010921D01*
X0019233Y0010851D01*
X0019089Y0010786D01*
X0018943Y0010724D01*
X0018796Y0010666D01*
X0018647Y0010611D01*
X0018497Y0010560D01*
X0018346Y0010513D01*
X0018194Y0010470D01*
X0018041Y0010431D01*
X0017886Y0010395D01*
X0017731Y0010364D01*
X0017575Y0010336D01*
X0017419Y0010312D01*
X0017262Y0010292D01*
X0017104Y0010276D01*
X0016947Y0010264D01*
X0016788Y0010256D01*
X0016630Y0010252D01*
X0016472Y0010252D01*
X0016314Y0010256D01*
X0016155Y0010264D01*
X0015998Y0010276D01*
X0015840Y0010292D01*
X0015683Y0010312D01*
X0015527Y0010336D01*
X0015371Y0010364D01*
X0015216Y0010395D01*
X0015061Y0010431D01*
X0014908Y0010470D01*
X0014756Y0010513D01*
X0014605Y0010560D01*
X0014455Y0010611D01*
X0014306Y0010666D01*
X0014159Y0010724D01*
X0014013Y0010786D01*
X0013869Y0010851D01*
X0013727Y0010921D01*
X0013586Y0010993D01*
X0013447Y0011070D01*
X0013311Y0011149D01*
X0013176Y0011233D01*
X0013043Y0011319D01*
X0012913Y0011409D01*
X0012785Y0011502D01*
X0012659Y0011598D01*
X0012536Y0011698D01*
X0012415Y0011800D01*
X0012297Y0011905D01*
X0012182Y0012014D01*
X0012069Y0012125D01*
X0011959Y0012239D01*
X0011852Y0012356D01*
X0011748Y0012475D01*
X0011647Y0012597D01*
X0011550Y0012722D01*
X0011455Y0012849D01*
X0011364Y0012978D01*
X0011275Y0013109D01*
X0011191Y0013243D01*
X0011109Y0013379D01*
X0011031Y0013516D01*
X0010957Y0013656D01*
X0010886Y0013798D01*
X0010818Y0013941D01*
X0010754Y0014086D01*
X0010694Y0014232D01*
X0010638Y0014380D01*
X0010585Y0014529D01*
X0010536Y0014680D01*
X0010491Y0014832D01*
X0010450Y0014985D01*
X0010412Y0015138D01*
X0010379Y0015293D01*
X0010349Y0015449D01*
X0010323Y0015605D01*
X0010302Y0015762D01*
X0010284Y0015919D01*
X0010270Y0016077D01*
X0010260Y0016235D01*
X0010254Y0016393D01*
X0010252Y0016551D01*
X0004740Y0016551D02*
X0004743Y0016266D01*
X0004754Y0015980D01*
X0004771Y0015695D01*
X0004795Y0015411D01*
X0004826Y0015127D01*
X0004864Y0014844D01*
X0004909Y0014563D01*
X0004960Y0014282D01*
X0005018Y0014002D01*
X0005083Y0013724D01*
X0005155Y0013448D01*
X0005233Y0013174D01*
X0005318Y0012901D01*
X0005410Y0012631D01*
X0005508Y0012363D01*
X0005612Y0012097D01*
X0005723Y0011834D01*
X0005840Y0011574D01*
X0005963Y0011316D01*
X0006093Y0011062D01*
X0006229Y0010811D01*
X0006370Y0010563D01*
X0006518Y0010319D01*
X0006671Y0010078D01*
X0006831Y0009842D01*
X0006996Y0009609D01*
X0007166Y0009380D01*
X0007342Y0009155D01*
X0007524Y0008935D01*
X0007710Y0008719D01*
X0007902Y0008508D01*
X0008099Y0008301D01*
X0008301Y0008099D01*
X0008508Y0007902D01*
X0008719Y0007710D01*
X0008935Y0007524D01*
X0009155Y0007342D01*
X0009380Y0007166D01*
X0009609Y0006996D01*
X0009842Y0006831D01*
X0010078Y0006671D01*
X0010319Y0006518D01*
X0010563Y0006370D01*
X0010811Y0006229D01*
X0011062Y0006093D01*
X0011316Y0005963D01*
X0011574Y0005840D01*
X0011834Y0005723D01*
X0012097Y0005612D01*
X0012363Y0005508D01*
X0012631Y0005410D01*
X0012901Y0005318D01*
X0013174Y0005233D01*
X0013448Y0005155D01*
X0013724Y0005083D01*
X0014002Y0005018D01*
X0014282Y0004960D01*
X0014563Y0004909D01*
X0014844Y0004864D01*
X0015127Y0004826D01*
X0015411Y0004795D01*
X0015695Y0004771D01*
X0015980Y0004754D01*
X0016266Y0004743D01*
X0016551Y0004740D01*
M02*
