%
M48
M72
T01C0.01575
T02C0.03150
T03C0.03200
T04C0.03740
T05C0.03937
T06C0.09055
T07C0.12598
%
T01
X14740Y44740
X14740Y64740
X14740Y84740
X27969Y103559
X14740Y104740
X14740Y124740
X14740Y144740
X14740Y164740
X48835Y103165
X68520Y103165
X103890Y120276
X108740Y114740
X113740Y114740
X107740Y126740
X111740Y129740
X107740Y132740
X111740Y135740
X108740Y138740
X111740Y141740
X108740Y144740
X111740Y147740
X108740Y153740
X109740Y157740
X122457Y160646
X88598Y158283
X159457Y143646
X194898Y68520
X176787Y37024
T02
X171591Y26591
X171591Y16591
X161591Y16591
X151591Y16591
X141591Y16591
X131591Y16591
X131591Y26591
X121591Y16591
X111591Y16591
X111591Y26591
X101591Y16591
X101591Y46591
X121591Y46591
X123953Y63953
X108028Y73953
X97240Y73953
X97240Y103953
X108028Y103953
X123591Y123591
X136591Y136591
X123591Y143591
X98740Y172740
X78740Y172740
X166591Y136591
X194740Y101591
X194740Y81591
X161591Y46591
X153953Y63953
X141591Y46591
X151591Y26591
T03
X154740Y76591
X144740Y76591
X134740Y76591
X124740Y76591
X124740Y106591
X134740Y106591
X144740Y106591
X154740Y106591
X164740Y106591
X174740Y106591
X184740Y106591
X184740Y76591
X174740Y76591
X164740Y76591
T04
X146512Y153047
X146512Y160921
X136669Y160921
X136669Y153047
T05
X191591Y156591
X191591Y146591
X191591Y136591
X191591Y126591
X58740Y122740
X58740Y112740
X48740Y112740
X38740Y112740
X38740Y122740
X38740Y132740
X38740Y142740
X48740Y142740
X48740Y132740
X48740Y122740
X58740Y132740
X58740Y142740
X58740Y162740
X48740Y162740
X38740Y162740
X38740Y172740
X38740Y182740
X38740Y192740
X48740Y192740
X48740Y182740
X48740Y172740
X58740Y172740
X58740Y182740
X58740Y192740
X58740Y92740
X58740Y82740
X58740Y72740
X58740Y62740
X48740Y62740
X38740Y62740
X38740Y72740
X38740Y82740
X38740Y92740
X48740Y92740
X48740Y82740
X48740Y72740
X48740Y42740
X48740Y32740
X48740Y22740
X48740Y12740
X38740Y12740
X38740Y22740
X38740Y32740
X38740Y42740
X58740Y42740
X58740Y32740
X58740Y22740
X58740Y12740
T06
X117890Y171591
X165291Y171591
T07
X16551Y16551
X16551Y189780
X189780Y189780
X189780Y16551
M30
