G75*
%MOIN*%
%OFA0B0*%
%FSLAX25Y25*%
%IPPOS*%
%LPD*%
%AMOC8*
5,1,8,0,0,1.08239X$1,22.5*
%
%ADD10C,0.00000*%
%ADD11C,0.12998*%
%ADD12R,0.04337X0.10636*%
%ADD13C,0.07487*%
%ADD14C,0.05600*%
%ADD15R,0.12998X0.04337*%
%ADD16OC8,0.06140*%
%ADD17C,0.13455*%
%ADD18R,0.04337X0.12998*%
%ADD19R,0.05124X0.03550*%
%ADD20C,0.08274*%
%ADD21R,0.06699X0.06699*%
%ADD22C,0.06699*%
D10*
X0015606Y0017535D02*
X0015606Y0190764D01*
X0015609Y0191049D01*
X0015620Y0191335D01*
X0015637Y0191620D01*
X0015661Y0191904D01*
X0015692Y0192188D01*
X0015730Y0192471D01*
X0015775Y0192752D01*
X0015826Y0193033D01*
X0015884Y0193313D01*
X0015949Y0193591D01*
X0016021Y0193867D01*
X0016099Y0194141D01*
X0016184Y0194414D01*
X0016276Y0194684D01*
X0016374Y0194952D01*
X0016478Y0195218D01*
X0016589Y0195481D01*
X0016706Y0195741D01*
X0016829Y0195999D01*
X0016959Y0196253D01*
X0017095Y0196504D01*
X0017236Y0196752D01*
X0017384Y0196996D01*
X0017537Y0197237D01*
X0017697Y0197473D01*
X0017862Y0197706D01*
X0018032Y0197935D01*
X0018208Y0198160D01*
X0018390Y0198380D01*
X0018576Y0198596D01*
X0018768Y0198807D01*
X0018965Y0199014D01*
X0019167Y0199216D01*
X0019374Y0199413D01*
X0019585Y0199605D01*
X0019801Y0199791D01*
X0020021Y0199973D01*
X0020246Y0200149D01*
X0020475Y0200319D01*
X0020708Y0200484D01*
X0020944Y0200644D01*
X0021185Y0200797D01*
X0021429Y0200945D01*
X0021677Y0201086D01*
X0021928Y0201222D01*
X0022182Y0201352D01*
X0022440Y0201475D01*
X0022700Y0201592D01*
X0022963Y0201703D01*
X0023229Y0201807D01*
X0023497Y0201905D01*
X0023767Y0201997D01*
X0024040Y0202082D01*
X0024314Y0202160D01*
X0024590Y0202232D01*
X0024868Y0202297D01*
X0025148Y0202355D01*
X0025429Y0202406D01*
X0025710Y0202451D01*
X0025993Y0202489D01*
X0026277Y0202520D01*
X0026561Y0202544D01*
X0026846Y0202561D01*
X0027132Y0202572D01*
X0027417Y0202575D01*
X0255764Y0202575D01*
X0249465Y0190764D02*
X0249467Y0190922D01*
X0249473Y0191080D01*
X0249483Y0191238D01*
X0249497Y0191396D01*
X0249515Y0191553D01*
X0249536Y0191710D01*
X0249562Y0191866D01*
X0249592Y0192022D01*
X0249625Y0192177D01*
X0249663Y0192330D01*
X0249704Y0192483D01*
X0249749Y0192635D01*
X0249798Y0192786D01*
X0249851Y0192935D01*
X0249907Y0193083D01*
X0249967Y0193229D01*
X0250031Y0193374D01*
X0250099Y0193517D01*
X0250170Y0193659D01*
X0250244Y0193799D01*
X0250322Y0193936D01*
X0250404Y0194072D01*
X0250488Y0194206D01*
X0250577Y0194337D01*
X0250668Y0194466D01*
X0250763Y0194593D01*
X0250860Y0194718D01*
X0250961Y0194840D01*
X0251065Y0194959D01*
X0251172Y0195076D01*
X0251282Y0195190D01*
X0251395Y0195301D01*
X0251510Y0195410D01*
X0251628Y0195515D01*
X0251749Y0195617D01*
X0251872Y0195717D01*
X0251998Y0195813D01*
X0252126Y0195906D01*
X0252256Y0195996D01*
X0252389Y0196082D01*
X0252524Y0196166D01*
X0252660Y0196245D01*
X0252799Y0196322D01*
X0252940Y0196394D01*
X0253082Y0196464D01*
X0253226Y0196529D01*
X0253372Y0196591D01*
X0253519Y0196649D01*
X0253668Y0196704D01*
X0253818Y0196755D01*
X0253969Y0196802D01*
X0254121Y0196845D01*
X0254274Y0196884D01*
X0254429Y0196920D01*
X0254584Y0196951D01*
X0254740Y0196979D01*
X0254896Y0197003D01*
X0255053Y0197023D01*
X0255211Y0197039D01*
X0255368Y0197051D01*
X0255527Y0197059D01*
X0255685Y0197063D01*
X0255843Y0197063D01*
X0256001Y0197059D01*
X0256160Y0197051D01*
X0256317Y0197039D01*
X0256475Y0197023D01*
X0256632Y0197003D01*
X0256788Y0196979D01*
X0256944Y0196951D01*
X0257099Y0196920D01*
X0257254Y0196884D01*
X0257407Y0196845D01*
X0257559Y0196802D01*
X0257710Y0196755D01*
X0257860Y0196704D01*
X0258009Y0196649D01*
X0258156Y0196591D01*
X0258302Y0196529D01*
X0258446Y0196464D01*
X0258588Y0196394D01*
X0258729Y0196322D01*
X0258868Y0196245D01*
X0259004Y0196166D01*
X0259139Y0196082D01*
X0259272Y0195996D01*
X0259402Y0195906D01*
X0259530Y0195813D01*
X0259656Y0195717D01*
X0259779Y0195617D01*
X0259900Y0195515D01*
X0260018Y0195410D01*
X0260133Y0195301D01*
X0260246Y0195190D01*
X0260356Y0195076D01*
X0260463Y0194959D01*
X0260567Y0194840D01*
X0260668Y0194718D01*
X0260765Y0194593D01*
X0260860Y0194466D01*
X0260951Y0194337D01*
X0261040Y0194206D01*
X0261124Y0194072D01*
X0261206Y0193936D01*
X0261284Y0193799D01*
X0261358Y0193659D01*
X0261429Y0193517D01*
X0261497Y0193374D01*
X0261561Y0193229D01*
X0261621Y0193083D01*
X0261677Y0192935D01*
X0261730Y0192786D01*
X0261779Y0192635D01*
X0261824Y0192483D01*
X0261865Y0192330D01*
X0261903Y0192177D01*
X0261936Y0192022D01*
X0261966Y0191866D01*
X0261992Y0191710D01*
X0262013Y0191553D01*
X0262031Y0191396D01*
X0262045Y0191238D01*
X0262055Y0191080D01*
X0262061Y0190922D01*
X0262063Y0190764D01*
X0262061Y0190606D01*
X0262055Y0190448D01*
X0262045Y0190290D01*
X0262031Y0190132D01*
X0262013Y0189975D01*
X0261992Y0189818D01*
X0261966Y0189662D01*
X0261936Y0189506D01*
X0261903Y0189351D01*
X0261865Y0189198D01*
X0261824Y0189045D01*
X0261779Y0188893D01*
X0261730Y0188742D01*
X0261677Y0188593D01*
X0261621Y0188445D01*
X0261561Y0188299D01*
X0261497Y0188154D01*
X0261429Y0188011D01*
X0261358Y0187869D01*
X0261284Y0187729D01*
X0261206Y0187592D01*
X0261124Y0187456D01*
X0261040Y0187322D01*
X0260951Y0187191D01*
X0260860Y0187062D01*
X0260765Y0186935D01*
X0260668Y0186810D01*
X0260567Y0186688D01*
X0260463Y0186569D01*
X0260356Y0186452D01*
X0260246Y0186338D01*
X0260133Y0186227D01*
X0260018Y0186118D01*
X0259900Y0186013D01*
X0259779Y0185911D01*
X0259656Y0185811D01*
X0259530Y0185715D01*
X0259402Y0185622D01*
X0259272Y0185532D01*
X0259139Y0185446D01*
X0259004Y0185362D01*
X0258868Y0185283D01*
X0258729Y0185206D01*
X0258588Y0185134D01*
X0258446Y0185064D01*
X0258302Y0184999D01*
X0258156Y0184937D01*
X0258009Y0184879D01*
X0257860Y0184824D01*
X0257710Y0184773D01*
X0257559Y0184726D01*
X0257407Y0184683D01*
X0257254Y0184644D01*
X0257099Y0184608D01*
X0256944Y0184577D01*
X0256788Y0184549D01*
X0256632Y0184525D01*
X0256475Y0184505D01*
X0256317Y0184489D01*
X0256160Y0184477D01*
X0256001Y0184469D01*
X0255843Y0184465D01*
X0255685Y0184465D01*
X0255527Y0184469D01*
X0255368Y0184477D01*
X0255211Y0184489D01*
X0255053Y0184505D01*
X0254896Y0184525D01*
X0254740Y0184549D01*
X0254584Y0184577D01*
X0254429Y0184608D01*
X0254274Y0184644D01*
X0254121Y0184683D01*
X0253969Y0184726D01*
X0253818Y0184773D01*
X0253668Y0184824D01*
X0253519Y0184879D01*
X0253372Y0184937D01*
X0253226Y0184999D01*
X0253082Y0185064D01*
X0252940Y0185134D01*
X0252799Y0185206D01*
X0252660Y0185283D01*
X0252524Y0185362D01*
X0252389Y0185446D01*
X0252256Y0185532D01*
X0252126Y0185622D01*
X0251998Y0185715D01*
X0251872Y0185811D01*
X0251749Y0185911D01*
X0251628Y0186013D01*
X0251510Y0186118D01*
X0251395Y0186227D01*
X0251282Y0186338D01*
X0251172Y0186452D01*
X0251065Y0186569D01*
X0250961Y0186688D01*
X0250860Y0186810D01*
X0250763Y0186935D01*
X0250668Y0187062D01*
X0250577Y0187191D01*
X0250488Y0187322D01*
X0250404Y0187456D01*
X0250322Y0187592D01*
X0250244Y0187729D01*
X0250170Y0187869D01*
X0250099Y0188011D01*
X0250031Y0188154D01*
X0249967Y0188299D01*
X0249907Y0188445D01*
X0249851Y0188593D01*
X0249798Y0188742D01*
X0249749Y0188893D01*
X0249704Y0189045D01*
X0249663Y0189198D01*
X0249625Y0189351D01*
X0249592Y0189506D01*
X0249562Y0189662D01*
X0249536Y0189818D01*
X0249515Y0189975D01*
X0249497Y0190132D01*
X0249483Y0190290D01*
X0249473Y0190448D01*
X0249467Y0190606D01*
X0249465Y0190764D01*
X0255764Y0202575D02*
X0256049Y0202572D01*
X0256335Y0202561D01*
X0256620Y0202544D01*
X0256904Y0202520D01*
X0257188Y0202489D01*
X0257471Y0202451D01*
X0257752Y0202406D01*
X0258033Y0202355D01*
X0258313Y0202297D01*
X0258591Y0202232D01*
X0258867Y0202160D01*
X0259141Y0202082D01*
X0259414Y0201997D01*
X0259684Y0201905D01*
X0259952Y0201807D01*
X0260218Y0201703D01*
X0260481Y0201592D01*
X0260741Y0201475D01*
X0260999Y0201352D01*
X0261253Y0201222D01*
X0261504Y0201086D01*
X0261752Y0200945D01*
X0261996Y0200797D01*
X0262237Y0200644D01*
X0262473Y0200484D01*
X0262706Y0200319D01*
X0262935Y0200149D01*
X0263160Y0199973D01*
X0263380Y0199791D01*
X0263596Y0199605D01*
X0263807Y0199413D01*
X0264014Y0199216D01*
X0264216Y0199014D01*
X0264413Y0198807D01*
X0264605Y0198596D01*
X0264791Y0198380D01*
X0264973Y0198160D01*
X0265149Y0197935D01*
X0265319Y0197706D01*
X0265484Y0197473D01*
X0265644Y0197237D01*
X0265797Y0196996D01*
X0265945Y0196752D01*
X0266086Y0196504D01*
X0266222Y0196253D01*
X0266352Y0195999D01*
X0266475Y0195741D01*
X0266592Y0195481D01*
X0266703Y0195218D01*
X0266807Y0194952D01*
X0266905Y0194684D01*
X0266997Y0194414D01*
X0267082Y0194141D01*
X0267160Y0193867D01*
X0267232Y0193591D01*
X0267297Y0193313D01*
X0267355Y0193033D01*
X0267406Y0192752D01*
X0267451Y0192471D01*
X0267489Y0192188D01*
X0267520Y0191904D01*
X0267544Y0191620D01*
X0267561Y0191335D01*
X0267572Y0191049D01*
X0267575Y0190764D01*
X0267575Y0017535D01*
X0249465Y0017535D02*
X0249467Y0017693D01*
X0249473Y0017851D01*
X0249483Y0018009D01*
X0249497Y0018167D01*
X0249515Y0018324D01*
X0249536Y0018481D01*
X0249562Y0018637D01*
X0249592Y0018793D01*
X0249625Y0018948D01*
X0249663Y0019101D01*
X0249704Y0019254D01*
X0249749Y0019406D01*
X0249798Y0019557D01*
X0249851Y0019706D01*
X0249907Y0019854D01*
X0249967Y0020000D01*
X0250031Y0020145D01*
X0250099Y0020288D01*
X0250170Y0020430D01*
X0250244Y0020570D01*
X0250322Y0020707D01*
X0250404Y0020843D01*
X0250488Y0020977D01*
X0250577Y0021108D01*
X0250668Y0021237D01*
X0250763Y0021364D01*
X0250860Y0021489D01*
X0250961Y0021611D01*
X0251065Y0021730D01*
X0251172Y0021847D01*
X0251282Y0021961D01*
X0251395Y0022072D01*
X0251510Y0022181D01*
X0251628Y0022286D01*
X0251749Y0022388D01*
X0251872Y0022488D01*
X0251998Y0022584D01*
X0252126Y0022677D01*
X0252256Y0022767D01*
X0252389Y0022853D01*
X0252524Y0022937D01*
X0252660Y0023016D01*
X0252799Y0023093D01*
X0252940Y0023165D01*
X0253082Y0023235D01*
X0253226Y0023300D01*
X0253372Y0023362D01*
X0253519Y0023420D01*
X0253668Y0023475D01*
X0253818Y0023526D01*
X0253969Y0023573D01*
X0254121Y0023616D01*
X0254274Y0023655D01*
X0254429Y0023691D01*
X0254584Y0023722D01*
X0254740Y0023750D01*
X0254896Y0023774D01*
X0255053Y0023794D01*
X0255211Y0023810D01*
X0255368Y0023822D01*
X0255527Y0023830D01*
X0255685Y0023834D01*
X0255843Y0023834D01*
X0256001Y0023830D01*
X0256160Y0023822D01*
X0256317Y0023810D01*
X0256475Y0023794D01*
X0256632Y0023774D01*
X0256788Y0023750D01*
X0256944Y0023722D01*
X0257099Y0023691D01*
X0257254Y0023655D01*
X0257407Y0023616D01*
X0257559Y0023573D01*
X0257710Y0023526D01*
X0257860Y0023475D01*
X0258009Y0023420D01*
X0258156Y0023362D01*
X0258302Y0023300D01*
X0258446Y0023235D01*
X0258588Y0023165D01*
X0258729Y0023093D01*
X0258868Y0023016D01*
X0259004Y0022937D01*
X0259139Y0022853D01*
X0259272Y0022767D01*
X0259402Y0022677D01*
X0259530Y0022584D01*
X0259656Y0022488D01*
X0259779Y0022388D01*
X0259900Y0022286D01*
X0260018Y0022181D01*
X0260133Y0022072D01*
X0260246Y0021961D01*
X0260356Y0021847D01*
X0260463Y0021730D01*
X0260567Y0021611D01*
X0260668Y0021489D01*
X0260765Y0021364D01*
X0260860Y0021237D01*
X0260951Y0021108D01*
X0261040Y0020977D01*
X0261124Y0020843D01*
X0261206Y0020707D01*
X0261284Y0020570D01*
X0261358Y0020430D01*
X0261429Y0020288D01*
X0261497Y0020145D01*
X0261561Y0020000D01*
X0261621Y0019854D01*
X0261677Y0019706D01*
X0261730Y0019557D01*
X0261779Y0019406D01*
X0261824Y0019254D01*
X0261865Y0019101D01*
X0261903Y0018948D01*
X0261936Y0018793D01*
X0261966Y0018637D01*
X0261992Y0018481D01*
X0262013Y0018324D01*
X0262031Y0018167D01*
X0262045Y0018009D01*
X0262055Y0017851D01*
X0262061Y0017693D01*
X0262063Y0017535D01*
X0262061Y0017377D01*
X0262055Y0017219D01*
X0262045Y0017061D01*
X0262031Y0016903D01*
X0262013Y0016746D01*
X0261992Y0016589D01*
X0261966Y0016433D01*
X0261936Y0016277D01*
X0261903Y0016122D01*
X0261865Y0015969D01*
X0261824Y0015816D01*
X0261779Y0015664D01*
X0261730Y0015513D01*
X0261677Y0015364D01*
X0261621Y0015216D01*
X0261561Y0015070D01*
X0261497Y0014925D01*
X0261429Y0014782D01*
X0261358Y0014640D01*
X0261284Y0014500D01*
X0261206Y0014363D01*
X0261124Y0014227D01*
X0261040Y0014093D01*
X0260951Y0013962D01*
X0260860Y0013833D01*
X0260765Y0013706D01*
X0260668Y0013581D01*
X0260567Y0013459D01*
X0260463Y0013340D01*
X0260356Y0013223D01*
X0260246Y0013109D01*
X0260133Y0012998D01*
X0260018Y0012889D01*
X0259900Y0012784D01*
X0259779Y0012682D01*
X0259656Y0012582D01*
X0259530Y0012486D01*
X0259402Y0012393D01*
X0259272Y0012303D01*
X0259139Y0012217D01*
X0259004Y0012133D01*
X0258868Y0012054D01*
X0258729Y0011977D01*
X0258588Y0011905D01*
X0258446Y0011835D01*
X0258302Y0011770D01*
X0258156Y0011708D01*
X0258009Y0011650D01*
X0257860Y0011595D01*
X0257710Y0011544D01*
X0257559Y0011497D01*
X0257407Y0011454D01*
X0257254Y0011415D01*
X0257099Y0011379D01*
X0256944Y0011348D01*
X0256788Y0011320D01*
X0256632Y0011296D01*
X0256475Y0011276D01*
X0256317Y0011260D01*
X0256160Y0011248D01*
X0256001Y0011240D01*
X0255843Y0011236D01*
X0255685Y0011236D01*
X0255527Y0011240D01*
X0255368Y0011248D01*
X0255211Y0011260D01*
X0255053Y0011276D01*
X0254896Y0011296D01*
X0254740Y0011320D01*
X0254584Y0011348D01*
X0254429Y0011379D01*
X0254274Y0011415D01*
X0254121Y0011454D01*
X0253969Y0011497D01*
X0253818Y0011544D01*
X0253668Y0011595D01*
X0253519Y0011650D01*
X0253372Y0011708D01*
X0253226Y0011770D01*
X0253082Y0011835D01*
X0252940Y0011905D01*
X0252799Y0011977D01*
X0252660Y0012054D01*
X0252524Y0012133D01*
X0252389Y0012217D01*
X0252256Y0012303D01*
X0252126Y0012393D01*
X0251998Y0012486D01*
X0251872Y0012582D01*
X0251749Y0012682D01*
X0251628Y0012784D01*
X0251510Y0012889D01*
X0251395Y0012998D01*
X0251282Y0013109D01*
X0251172Y0013223D01*
X0251065Y0013340D01*
X0250961Y0013459D01*
X0250860Y0013581D01*
X0250763Y0013706D01*
X0250668Y0013833D01*
X0250577Y0013962D01*
X0250488Y0014093D01*
X0250404Y0014227D01*
X0250322Y0014363D01*
X0250244Y0014500D01*
X0250170Y0014640D01*
X0250099Y0014782D01*
X0250031Y0014925D01*
X0249967Y0015070D01*
X0249907Y0015216D01*
X0249851Y0015364D01*
X0249798Y0015513D01*
X0249749Y0015664D01*
X0249704Y0015816D01*
X0249663Y0015969D01*
X0249625Y0016122D01*
X0249592Y0016277D01*
X0249562Y0016433D01*
X0249536Y0016589D01*
X0249515Y0016746D01*
X0249497Y0016903D01*
X0249483Y0017061D01*
X0249473Y0017219D01*
X0249467Y0017377D01*
X0249465Y0017535D01*
X0255764Y0005724D02*
X0256049Y0005727D01*
X0256335Y0005738D01*
X0256620Y0005755D01*
X0256904Y0005779D01*
X0257188Y0005810D01*
X0257471Y0005848D01*
X0257752Y0005893D01*
X0258033Y0005944D01*
X0258313Y0006002D01*
X0258591Y0006067D01*
X0258867Y0006139D01*
X0259141Y0006217D01*
X0259414Y0006302D01*
X0259684Y0006394D01*
X0259952Y0006492D01*
X0260218Y0006596D01*
X0260481Y0006707D01*
X0260741Y0006824D01*
X0260999Y0006947D01*
X0261253Y0007077D01*
X0261504Y0007213D01*
X0261752Y0007354D01*
X0261996Y0007502D01*
X0262237Y0007655D01*
X0262473Y0007815D01*
X0262706Y0007980D01*
X0262935Y0008150D01*
X0263160Y0008326D01*
X0263380Y0008508D01*
X0263596Y0008694D01*
X0263807Y0008886D01*
X0264014Y0009083D01*
X0264216Y0009285D01*
X0264413Y0009492D01*
X0264605Y0009703D01*
X0264791Y0009919D01*
X0264973Y0010139D01*
X0265149Y0010364D01*
X0265319Y0010593D01*
X0265484Y0010826D01*
X0265644Y0011062D01*
X0265797Y0011303D01*
X0265945Y0011547D01*
X0266086Y0011795D01*
X0266222Y0012046D01*
X0266352Y0012300D01*
X0266475Y0012558D01*
X0266592Y0012818D01*
X0266703Y0013081D01*
X0266807Y0013347D01*
X0266905Y0013615D01*
X0266997Y0013885D01*
X0267082Y0014158D01*
X0267160Y0014432D01*
X0267232Y0014708D01*
X0267297Y0014986D01*
X0267355Y0015266D01*
X0267406Y0015547D01*
X0267451Y0015828D01*
X0267489Y0016111D01*
X0267520Y0016395D01*
X0267544Y0016679D01*
X0267561Y0016964D01*
X0267572Y0017250D01*
X0267575Y0017535D01*
X0255764Y0005724D02*
X0027417Y0005724D01*
X0027132Y0005727D01*
X0026846Y0005738D01*
X0026561Y0005755D01*
X0026277Y0005779D01*
X0025993Y0005810D01*
X0025710Y0005848D01*
X0025429Y0005893D01*
X0025148Y0005944D01*
X0024868Y0006002D01*
X0024590Y0006067D01*
X0024314Y0006139D01*
X0024040Y0006217D01*
X0023767Y0006302D01*
X0023497Y0006394D01*
X0023229Y0006492D01*
X0022963Y0006596D01*
X0022700Y0006707D01*
X0022440Y0006824D01*
X0022182Y0006947D01*
X0021928Y0007077D01*
X0021677Y0007213D01*
X0021429Y0007354D01*
X0021185Y0007502D01*
X0020944Y0007655D01*
X0020708Y0007815D01*
X0020475Y0007980D01*
X0020246Y0008150D01*
X0020021Y0008326D01*
X0019801Y0008508D01*
X0019585Y0008694D01*
X0019374Y0008886D01*
X0019167Y0009083D01*
X0018965Y0009285D01*
X0018768Y0009492D01*
X0018576Y0009703D01*
X0018390Y0009919D01*
X0018208Y0010139D01*
X0018032Y0010364D01*
X0017862Y0010593D01*
X0017697Y0010826D01*
X0017537Y0011062D01*
X0017384Y0011303D01*
X0017236Y0011547D01*
X0017095Y0011795D01*
X0016959Y0012046D01*
X0016829Y0012300D01*
X0016706Y0012558D01*
X0016589Y0012818D01*
X0016478Y0013081D01*
X0016374Y0013347D01*
X0016276Y0013615D01*
X0016184Y0013885D01*
X0016099Y0014158D01*
X0016021Y0014432D01*
X0015949Y0014708D01*
X0015884Y0014986D01*
X0015826Y0015266D01*
X0015775Y0015547D01*
X0015730Y0015828D01*
X0015692Y0016111D01*
X0015661Y0016395D01*
X0015637Y0016679D01*
X0015620Y0016964D01*
X0015609Y0017250D01*
X0015606Y0017535D01*
X0021118Y0019535D02*
X0021120Y0019693D01*
X0021126Y0019851D01*
X0021136Y0020009D01*
X0021150Y0020167D01*
X0021168Y0020324D01*
X0021189Y0020481D01*
X0021215Y0020637D01*
X0021245Y0020793D01*
X0021278Y0020948D01*
X0021316Y0021101D01*
X0021357Y0021254D01*
X0021402Y0021406D01*
X0021451Y0021557D01*
X0021504Y0021706D01*
X0021560Y0021854D01*
X0021620Y0022000D01*
X0021684Y0022145D01*
X0021752Y0022288D01*
X0021823Y0022430D01*
X0021897Y0022570D01*
X0021975Y0022707D01*
X0022057Y0022843D01*
X0022141Y0022977D01*
X0022230Y0023108D01*
X0022321Y0023237D01*
X0022416Y0023364D01*
X0022513Y0023489D01*
X0022614Y0023611D01*
X0022718Y0023730D01*
X0022825Y0023847D01*
X0022935Y0023961D01*
X0023048Y0024072D01*
X0023163Y0024181D01*
X0023281Y0024286D01*
X0023402Y0024388D01*
X0023525Y0024488D01*
X0023651Y0024584D01*
X0023779Y0024677D01*
X0023909Y0024767D01*
X0024042Y0024853D01*
X0024177Y0024937D01*
X0024313Y0025016D01*
X0024452Y0025093D01*
X0024593Y0025165D01*
X0024735Y0025235D01*
X0024879Y0025300D01*
X0025025Y0025362D01*
X0025172Y0025420D01*
X0025321Y0025475D01*
X0025471Y0025526D01*
X0025622Y0025573D01*
X0025774Y0025616D01*
X0025927Y0025655D01*
X0026082Y0025691D01*
X0026237Y0025722D01*
X0026393Y0025750D01*
X0026549Y0025774D01*
X0026706Y0025794D01*
X0026864Y0025810D01*
X0027021Y0025822D01*
X0027180Y0025830D01*
X0027338Y0025834D01*
X0027496Y0025834D01*
X0027654Y0025830D01*
X0027813Y0025822D01*
X0027970Y0025810D01*
X0028128Y0025794D01*
X0028285Y0025774D01*
X0028441Y0025750D01*
X0028597Y0025722D01*
X0028752Y0025691D01*
X0028907Y0025655D01*
X0029060Y0025616D01*
X0029212Y0025573D01*
X0029363Y0025526D01*
X0029513Y0025475D01*
X0029662Y0025420D01*
X0029809Y0025362D01*
X0029955Y0025300D01*
X0030099Y0025235D01*
X0030241Y0025165D01*
X0030382Y0025093D01*
X0030521Y0025016D01*
X0030657Y0024937D01*
X0030792Y0024853D01*
X0030925Y0024767D01*
X0031055Y0024677D01*
X0031183Y0024584D01*
X0031309Y0024488D01*
X0031432Y0024388D01*
X0031553Y0024286D01*
X0031671Y0024181D01*
X0031786Y0024072D01*
X0031899Y0023961D01*
X0032009Y0023847D01*
X0032116Y0023730D01*
X0032220Y0023611D01*
X0032321Y0023489D01*
X0032418Y0023364D01*
X0032513Y0023237D01*
X0032604Y0023108D01*
X0032693Y0022977D01*
X0032777Y0022843D01*
X0032859Y0022707D01*
X0032937Y0022570D01*
X0033011Y0022430D01*
X0033082Y0022288D01*
X0033150Y0022145D01*
X0033214Y0022000D01*
X0033274Y0021854D01*
X0033330Y0021706D01*
X0033383Y0021557D01*
X0033432Y0021406D01*
X0033477Y0021254D01*
X0033518Y0021101D01*
X0033556Y0020948D01*
X0033589Y0020793D01*
X0033619Y0020637D01*
X0033645Y0020481D01*
X0033666Y0020324D01*
X0033684Y0020167D01*
X0033698Y0020009D01*
X0033708Y0019851D01*
X0033714Y0019693D01*
X0033716Y0019535D01*
X0033714Y0019377D01*
X0033708Y0019219D01*
X0033698Y0019061D01*
X0033684Y0018903D01*
X0033666Y0018746D01*
X0033645Y0018589D01*
X0033619Y0018433D01*
X0033589Y0018277D01*
X0033556Y0018122D01*
X0033518Y0017969D01*
X0033477Y0017816D01*
X0033432Y0017664D01*
X0033383Y0017513D01*
X0033330Y0017364D01*
X0033274Y0017216D01*
X0033214Y0017070D01*
X0033150Y0016925D01*
X0033082Y0016782D01*
X0033011Y0016640D01*
X0032937Y0016500D01*
X0032859Y0016363D01*
X0032777Y0016227D01*
X0032693Y0016093D01*
X0032604Y0015962D01*
X0032513Y0015833D01*
X0032418Y0015706D01*
X0032321Y0015581D01*
X0032220Y0015459D01*
X0032116Y0015340D01*
X0032009Y0015223D01*
X0031899Y0015109D01*
X0031786Y0014998D01*
X0031671Y0014889D01*
X0031553Y0014784D01*
X0031432Y0014682D01*
X0031309Y0014582D01*
X0031183Y0014486D01*
X0031055Y0014393D01*
X0030925Y0014303D01*
X0030792Y0014217D01*
X0030657Y0014133D01*
X0030521Y0014054D01*
X0030382Y0013977D01*
X0030241Y0013905D01*
X0030099Y0013835D01*
X0029955Y0013770D01*
X0029809Y0013708D01*
X0029662Y0013650D01*
X0029513Y0013595D01*
X0029363Y0013544D01*
X0029212Y0013497D01*
X0029060Y0013454D01*
X0028907Y0013415D01*
X0028752Y0013379D01*
X0028597Y0013348D01*
X0028441Y0013320D01*
X0028285Y0013296D01*
X0028128Y0013276D01*
X0027970Y0013260D01*
X0027813Y0013248D01*
X0027654Y0013240D01*
X0027496Y0013236D01*
X0027338Y0013236D01*
X0027180Y0013240D01*
X0027021Y0013248D01*
X0026864Y0013260D01*
X0026706Y0013276D01*
X0026549Y0013296D01*
X0026393Y0013320D01*
X0026237Y0013348D01*
X0026082Y0013379D01*
X0025927Y0013415D01*
X0025774Y0013454D01*
X0025622Y0013497D01*
X0025471Y0013544D01*
X0025321Y0013595D01*
X0025172Y0013650D01*
X0025025Y0013708D01*
X0024879Y0013770D01*
X0024735Y0013835D01*
X0024593Y0013905D01*
X0024452Y0013977D01*
X0024313Y0014054D01*
X0024177Y0014133D01*
X0024042Y0014217D01*
X0023909Y0014303D01*
X0023779Y0014393D01*
X0023651Y0014486D01*
X0023525Y0014582D01*
X0023402Y0014682D01*
X0023281Y0014784D01*
X0023163Y0014889D01*
X0023048Y0014998D01*
X0022935Y0015109D01*
X0022825Y0015223D01*
X0022718Y0015340D01*
X0022614Y0015459D01*
X0022513Y0015581D01*
X0022416Y0015706D01*
X0022321Y0015833D01*
X0022230Y0015962D01*
X0022141Y0016093D01*
X0022057Y0016227D01*
X0021975Y0016363D01*
X0021897Y0016500D01*
X0021823Y0016640D01*
X0021752Y0016782D01*
X0021684Y0016925D01*
X0021620Y0017070D01*
X0021560Y0017216D01*
X0021504Y0017364D01*
X0021451Y0017513D01*
X0021402Y0017664D01*
X0021357Y0017816D01*
X0021316Y0017969D01*
X0021278Y0018122D01*
X0021245Y0018277D01*
X0021215Y0018433D01*
X0021189Y0018589D01*
X0021168Y0018746D01*
X0021150Y0018903D01*
X0021136Y0019061D01*
X0021126Y0019219D01*
X0021120Y0019377D01*
X0021118Y0019535D01*
X0036866Y0078480D02*
X0036868Y0078638D01*
X0036874Y0078796D01*
X0036884Y0078954D01*
X0036898Y0079112D01*
X0036916Y0079269D01*
X0036937Y0079426D01*
X0036963Y0079582D01*
X0036993Y0079738D01*
X0037026Y0079893D01*
X0037064Y0080046D01*
X0037105Y0080199D01*
X0037150Y0080351D01*
X0037199Y0080502D01*
X0037252Y0080651D01*
X0037308Y0080799D01*
X0037368Y0080945D01*
X0037432Y0081090D01*
X0037500Y0081233D01*
X0037571Y0081375D01*
X0037645Y0081515D01*
X0037723Y0081652D01*
X0037805Y0081788D01*
X0037889Y0081922D01*
X0037978Y0082053D01*
X0038069Y0082182D01*
X0038164Y0082309D01*
X0038261Y0082434D01*
X0038362Y0082556D01*
X0038466Y0082675D01*
X0038573Y0082792D01*
X0038683Y0082906D01*
X0038796Y0083017D01*
X0038911Y0083126D01*
X0039029Y0083231D01*
X0039150Y0083333D01*
X0039273Y0083433D01*
X0039399Y0083529D01*
X0039527Y0083622D01*
X0039657Y0083712D01*
X0039790Y0083798D01*
X0039925Y0083882D01*
X0040061Y0083961D01*
X0040200Y0084038D01*
X0040341Y0084110D01*
X0040483Y0084180D01*
X0040627Y0084245D01*
X0040773Y0084307D01*
X0040920Y0084365D01*
X0041069Y0084420D01*
X0041219Y0084471D01*
X0041370Y0084518D01*
X0041522Y0084561D01*
X0041675Y0084600D01*
X0041830Y0084636D01*
X0041985Y0084667D01*
X0042141Y0084695D01*
X0042297Y0084719D01*
X0042454Y0084739D01*
X0042612Y0084755D01*
X0042769Y0084767D01*
X0042928Y0084775D01*
X0043086Y0084779D01*
X0043244Y0084779D01*
X0043402Y0084775D01*
X0043561Y0084767D01*
X0043718Y0084755D01*
X0043876Y0084739D01*
X0044033Y0084719D01*
X0044189Y0084695D01*
X0044345Y0084667D01*
X0044500Y0084636D01*
X0044655Y0084600D01*
X0044808Y0084561D01*
X0044960Y0084518D01*
X0045111Y0084471D01*
X0045261Y0084420D01*
X0045410Y0084365D01*
X0045557Y0084307D01*
X0045703Y0084245D01*
X0045847Y0084180D01*
X0045989Y0084110D01*
X0046130Y0084038D01*
X0046269Y0083961D01*
X0046405Y0083882D01*
X0046540Y0083798D01*
X0046673Y0083712D01*
X0046803Y0083622D01*
X0046931Y0083529D01*
X0047057Y0083433D01*
X0047180Y0083333D01*
X0047301Y0083231D01*
X0047419Y0083126D01*
X0047534Y0083017D01*
X0047647Y0082906D01*
X0047757Y0082792D01*
X0047864Y0082675D01*
X0047968Y0082556D01*
X0048069Y0082434D01*
X0048166Y0082309D01*
X0048261Y0082182D01*
X0048352Y0082053D01*
X0048441Y0081922D01*
X0048525Y0081788D01*
X0048607Y0081652D01*
X0048685Y0081515D01*
X0048759Y0081375D01*
X0048830Y0081233D01*
X0048898Y0081090D01*
X0048962Y0080945D01*
X0049022Y0080799D01*
X0049078Y0080651D01*
X0049131Y0080502D01*
X0049180Y0080351D01*
X0049225Y0080199D01*
X0049266Y0080046D01*
X0049304Y0079893D01*
X0049337Y0079738D01*
X0049367Y0079582D01*
X0049393Y0079426D01*
X0049414Y0079269D01*
X0049432Y0079112D01*
X0049446Y0078954D01*
X0049456Y0078796D01*
X0049462Y0078638D01*
X0049464Y0078480D01*
X0049462Y0078322D01*
X0049456Y0078164D01*
X0049446Y0078006D01*
X0049432Y0077848D01*
X0049414Y0077691D01*
X0049393Y0077534D01*
X0049367Y0077378D01*
X0049337Y0077222D01*
X0049304Y0077067D01*
X0049266Y0076914D01*
X0049225Y0076761D01*
X0049180Y0076609D01*
X0049131Y0076458D01*
X0049078Y0076309D01*
X0049022Y0076161D01*
X0048962Y0076015D01*
X0048898Y0075870D01*
X0048830Y0075727D01*
X0048759Y0075585D01*
X0048685Y0075445D01*
X0048607Y0075308D01*
X0048525Y0075172D01*
X0048441Y0075038D01*
X0048352Y0074907D01*
X0048261Y0074778D01*
X0048166Y0074651D01*
X0048069Y0074526D01*
X0047968Y0074404D01*
X0047864Y0074285D01*
X0047757Y0074168D01*
X0047647Y0074054D01*
X0047534Y0073943D01*
X0047419Y0073834D01*
X0047301Y0073729D01*
X0047180Y0073627D01*
X0047057Y0073527D01*
X0046931Y0073431D01*
X0046803Y0073338D01*
X0046673Y0073248D01*
X0046540Y0073162D01*
X0046405Y0073078D01*
X0046269Y0072999D01*
X0046130Y0072922D01*
X0045989Y0072850D01*
X0045847Y0072780D01*
X0045703Y0072715D01*
X0045557Y0072653D01*
X0045410Y0072595D01*
X0045261Y0072540D01*
X0045111Y0072489D01*
X0044960Y0072442D01*
X0044808Y0072399D01*
X0044655Y0072360D01*
X0044500Y0072324D01*
X0044345Y0072293D01*
X0044189Y0072265D01*
X0044033Y0072241D01*
X0043876Y0072221D01*
X0043718Y0072205D01*
X0043561Y0072193D01*
X0043402Y0072185D01*
X0043244Y0072181D01*
X0043086Y0072181D01*
X0042928Y0072185D01*
X0042769Y0072193D01*
X0042612Y0072205D01*
X0042454Y0072221D01*
X0042297Y0072241D01*
X0042141Y0072265D01*
X0041985Y0072293D01*
X0041830Y0072324D01*
X0041675Y0072360D01*
X0041522Y0072399D01*
X0041370Y0072442D01*
X0041219Y0072489D01*
X0041069Y0072540D01*
X0040920Y0072595D01*
X0040773Y0072653D01*
X0040627Y0072715D01*
X0040483Y0072780D01*
X0040341Y0072850D01*
X0040200Y0072922D01*
X0040061Y0072999D01*
X0039925Y0073078D01*
X0039790Y0073162D01*
X0039657Y0073248D01*
X0039527Y0073338D01*
X0039399Y0073431D01*
X0039273Y0073527D01*
X0039150Y0073627D01*
X0039029Y0073729D01*
X0038911Y0073834D01*
X0038796Y0073943D01*
X0038683Y0074054D01*
X0038573Y0074168D01*
X0038466Y0074285D01*
X0038362Y0074404D01*
X0038261Y0074526D01*
X0038164Y0074651D01*
X0038069Y0074778D01*
X0037978Y0074907D01*
X0037889Y0075038D01*
X0037805Y0075172D01*
X0037723Y0075308D01*
X0037645Y0075445D01*
X0037571Y0075585D01*
X0037500Y0075727D01*
X0037432Y0075870D01*
X0037368Y0076015D01*
X0037308Y0076161D01*
X0037252Y0076309D01*
X0037199Y0076458D01*
X0037150Y0076609D01*
X0037105Y0076761D01*
X0037064Y0076914D01*
X0037026Y0077067D01*
X0036993Y0077222D01*
X0036963Y0077378D01*
X0036937Y0077534D01*
X0036916Y0077691D01*
X0036898Y0077848D01*
X0036884Y0078006D01*
X0036874Y0078164D01*
X0036868Y0078322D01*
X0036866Y0078480D01*
X0131355Y0078480D02*
X0131357Y0078638D01*
X0131363Y0078796D01*
X0131373Y0078954D01*
X0131387Y0079112D01*
X0131405Y0079269D01*
X0131426Y0079426D01*
X0131452Y0079582D01*
X0131482Y0079738D01*
X0131515Y0079893D01*
X0131553Y0080046D01*
X0131594Y0080199D01*
X0131639Y0080351D01*
X0131688Y0080502D01*
X0131741Y0080651D01*
X0131797Y0080799D01*
X0131857Y0080945D01*
X0131921Y0081090D01*
X0131989Y0081233D01*
X0132060Y0081375D01*
X0132134Y0081515D01*
X0132212Y0081652D01*
X0132294Y0081788D01*
X0132378Y0081922D01*
X0132467Y0082053D01*
X0132558Y0082182D01*
X0132653Y0082309D01*
X0132750Y0082434D01*
X0132851Y0082556D01*
X0132955Y0082675D01*
X0133062Y0082792D01*
X0133172Y0082906D01*
X0133285Y0083017D01*
X0133400Y0083126D01*
X0133518Y0083231D01*
X0133639Y0083333D01*
X0133762Y0083433D01*
X0133888Y0083529D01*
X0134016Y0083622D01*
X0134146Y0083712D01*
X0134279Y0083798D01*
X0134414Y0083882D01*
X0134550Y0083961D01*
X0134689Y0084038D01*
X0134830Y0084110D01*
X0134972Y0084180D01*
X0135116Y0084245D01*
X0135262Y0084307D01*
X0135409Y0084365D01*
X0135558Y0084420D01*
X0135708Y0084471D01*
X0135859Y0084518D01*
X0136011Y0084561D01*
X0136164Y0084600D01*
X0136319Y0084636D01*
X0136474Y0084667D01*
X0136630Y0084695D01*
X0136786Y0084719D01*
X0136943Y0084739D01*
X0137101Y0084755D01*
X0137258Y0084767D01*
X0137417Y0084775D01*
X0137575Y0084779D01*
X0137733Y0084779D01*
X0137891Y0084775D01*
X0138050Y0084767D01*
X0138207Y0084755D01*
X0138365Y0084739D01*
X0138522Y0084719D01*
X0138678Y0084695D01*
X0138834Y0084667D01*
X0138989Y0084636D01*
X0139144Y0084600D01*
X0139297Y0084561D01*
X0139449Y0084518D01*
X0139600Y0084471D01*
X0139750Y0084420D01*
X0139899Y0084365D01*
X0140046Y0084307D01*
X0140192Y0084245D01*
X0140336Y0084180D01*
X0140478Y0084110D01*
X0140619Y0084038D01*
X0140758Y0083961D01*
X0140894Y0083882D01*
X0141029Y0083798D01*
X0141162Y0083712D01*
X0141292Y0083622D01*
X0141420Y0083529D01*
X0141546Y0083433D01*
X0141669Y0083333D01*
X0141790Y0083231D01*
X0141908Y0083126D01*
X0142023Y0083017D01*
X0142136Y0082906D01*
X0142246Y0082792D01*
X0142353Y0082675D01*
X0142457Y0082556D01*
X0142558Y0082434D01*
X0142655Y0082309D01*
X0142750Y0082182D01*
X0142841Y0082053D01*
X0142930Y0081922D01*
X0143014Y0081788D01*
X0143096Y0081652D01*
X0143174Y0081515D01*
X0143248Y0081375D01*
X0143319Y0081233D01*
X0143387Y0081090D01*
X0143451Y0080945D01*
X0143511Y0080799D01*
X0143567Y0080651D01*
X0143620Y0080502D01*
X0143669Y0080351D01*
X0143714Y0080199D01*
X0143755Y0080046D01*
X0143793Y0079893D01*
X0143826Y0079738D01*
X0143856Y0079582D01*
X0143882Y0079426D01*
X0143903Y0079269D01*
X0143921Y0079112D01*
X0143935Y0078954D01*
X0143945Y0078796D01*
X0143951Y0078638D01*
X0143953Y0078480D01*
X0143951Y0078322D01*
X0143945Y0078164D01*
X0143935Y0078006D01*
X0143921Y0077848D01*
X0143903Y0077691D01*
X0143882Y0077534D01*
X0143856Y0077378D01*
X0143826Y0077222D01*
X0143793Y0077067D01*
X0143755Y0076914D01*
X0143714Y0076761D01*
X0143669Y0076609D01*
X0143620Y0076458D01*
X0143567Y0076309D01*
X0143511Y0076161D01*
X0143451Y0076015D01*
X0143387Y0075870D01*
X0143319Y0075727D01*
X0143248Y0075585D01*
X0143174Y0075445D01*
X0143096Y0075308D01*
X0143014Y0075172D01*
X0142930Y0075038D01*
X0142841Y0074907D01*
X0142750Y0074778D01*
X0142655Y0074651D01*
X0142558Y0074526D01*
X0142457Y0074404D01*
X0142353Y0074285D01*
X0142246Y0074168D01*
X0142136Y0074054D01*
X0142023Y0073943D01*
X0141908Y0073834D01*
X0141790Y0073729D01*
X0141669Y0073627D01*
X0141546Y0073527D01*
X0141420Y0073431D01*
X0141292Y0073338D01*
X0141162Y0073248D01*
X0141029Y0073162D01*
X0140894Y0073078D01*
X0140758Y0072999D01*
X0140619Y0072922D01*
X0140478Y0072850D01*
X0140336Y0072780D01*
X0140192Y0072715D01*
X0140046Y0072653D01*
X0139899Y0072595D01*
X0139750Y0072540D01*
X0139600Y0072489D01*
X0139449Y0072442D01*
X0139297Y0072399D01*
X0139144Y0072360D01*
X0138989Y0072324D01*
X0138834Y0072293D01*
X0138678Y0072265D01*
X0138522Y0072241D01*
X0138365Y0072221D01*
X0138207Y0072205D01*
X0138050Y0072193D01*
X0137891Y0072185D01*
X0137733Y0072181D01*
X0137575Y0072181D01*
X0137417Y0072185D01*
X0137258Y0072193D01*
X0137101Y0072205D01*
X0136943Y0072221D01*
X0136786Y0072241D01*
X0136630Y0072265D01*
X0136474Y0072293D01*
X0136319Y0072324D01*
X0136164Y0072360D01*
X0136011Y0072399D01*
X0135859Y0072442D01*
X0135708Y0072489D01*
X0135558Y0072540D01*
X0135409Y0072595D01*
X0135262Y0072653D01*
X0135116Y0072715D01*
X0134972Y0072780D01*
X0134830Y0072850D01*
X0134689Y0072922D01*
X0134550Y0072999D01*
X0134414Y0073078D01*
X0134279Y0073162D01*
X0134146Y0073248D01*
X0134016Y0073338D01*
X0133888Y0073431D01*
X0133762Y0073527D01*
X0133639Y0073627D01*
X0133518Y0073729D01*
X0133400Y0073834D01*
X0133285Y0073943D01*
X0133172Y0074054D01*
X0133062Y0074168D01*
X0132955Y0074285D01*
X0132851Y0074404D01*
X0132750Y0074526D01*
X0132653Y0074651D01*
X0132558Y0074778D01*
X0132467Y0074907D01*
X0132378Y0075038D01*
X0132294Y0075172D01*
X0132212Y0075308D01*
X0132134Y0075445D01*
X0132060Y0075585D01*
X0131989Y0075727D01*
X0131921Y0075870D01*
X0131857Y0076015D01*
X0131797Y0076161D01*
X0131741Y0076309D01*
X0131688Y0076458D01*
X0131639Y0076609D01*
X0131594Y0076761D01*
X0131553Y0076914D01*
X0131515Y0077067D01*
X0131482Y0077222D01*
X0131452Y0077378D01*
X0131426Y0077534D01*
X0131405Y0077691D01*
X0131387Y0077848D01*
X0131373Y0078006D01*
X0131363Y0078164D01*
X0131357Y0078322D01*
X0131355Y0078480D01*
X0131355Y0172969D02*
X0131357Y0173127D01*
X0131363Y0173285D01*
X0131373Y0173443D01*
X0131387Y0173601D01*
X0131405Y0173758D01*
X0131426Y0173915D01*
X0131452Y0174071D01*
X0131482Y0174227D01*
X0131515Y0174382D01*
X0131553Y0174535D01*
X0131594Y0174688D01*
X0131639Y0174840D01*
X0131688Y0174991D01*
X0131741Y0175140D01*
X0131797Y0175288D01*
X0131857Y0175434D01*
X0131921Y0175579D01*
X0131989Y0175722D01*
X0132060Y0175864D01*
X0132134Y0176004D01*
X0132212Y0176141D01*
X0132294Y0176277D01*
X0132378Y0176411D01*
X0132467Y0176542D01*
X0132558Y0176671D01*
X0132653Y0176798D01*
X0132750Y0176923D01*
X0132851Y0177045D01*
X0132955Y0177164D01*
X0133062Y0177281D01*
X0133172Y0177395D01*
X0133285Y0177506D01*
X0133400Y0177615D01*
X0133518Y0177720D01*
X0133639Y0177822D01*
X0133762Y0177922D01*
X0133888Y0178018D01*
X0134016Y0178111D01*
X0134146Y0178201D01*
X0134279Y0178287D01*
X0134414Y0178371D01*
X0134550Y0178450D01*
X0134689Y0178527D01*
X0134830Y0178599D01*
X0134972Y0178669D01*
X0135116Y0178734D01*
X0135262Y0178796D01*
X0135409Y0178854D01*
X0135558Y0178909D01*
X0135708Y0178960D01*
X0135859Y0179007D01*
X0136011Y0179050D01*
X0136164Y0179089D01*
X0136319Y0179125D01*
X0136474Y0179156D01*
X0136630Y0179184D01*
X0136786Y0179208D01*
X0136943Y0179228D01*
X0137101Y0179244D01*
X0137258Y0179256D01*
X0137417Y0179264D01*
X0137575Y0179268D01*
X0137733Y0179268D01*
X0137891Y0179264D01*
X0138050Y0179256D01*
X0138207Y0179244D01*
X0138365Y0179228D01*
X0138522Y0179208D01*
X0138678Y0179184D01*
X0138834Y0179156D01*
X0138989Y0179125D01*
X0139144Y0179089D01*
X0139297Y0179050D01*
X0139449Y0179007D01*
X0139600Y0178960D01*
X0139750Y0178909D01*
X0139899Y0178854D01*
X0140046Y0178796D01*
X0140192Y0178734D01*
X0140336Y0178669D01*
X0140478Y0178599D01*
X0140619Y0178527D01*
X0140758Y0178450D01*
X0140894Y0178371D01*
X0141029Y0178287D01*
X0141162Y0178201D01*
X0141292Y0178111D01*
X0141420Y0178018D01*
X0141546Y0177922D01*
X0141669Y0177822D01*
X0141790Y0177720D01*
X0141908Y0177615D01*
X0142023Y0177506D01*
X0142136Y0177395D01*
X0142246Y0177281D01*
X0142353Y0177164D01*
X0142457Y0177045D01*
X0142558Y0176923D01*
X0142655Y0176798D01*
X0142750Y0176671D01*
X0142841Y0176542D01*
X0142930Y0176411D01*
X0143014Y0176277D01*
X0143096Y0176141D01*
X0143174Y0176004D01*
X0143248Y0175864D01*
X0143319Y0175722D01*
X0143387Y0175579D01*
X0143451Y0175434D01*
X0143511Y0175288D01*
X0143567Y0175140D01*
X0143620Y0174991D01*
X0143669Y0174840D01*
X0143714Y0174688D01*
X0143755Y0174535D01*
X0143793Y0174382D01*
X0143826Y0174227D01*
X0143856Y0174071D01*
X0143882Y0173915D01*
X0143903Y0173758D01*
X0143921Y0173601D01*
X0143935Y0173443D01*
X0143945Y0173285D01*
X0143951Y0173127D01*
X0143953Y0172969D01*
X0143951Y0172811D01*
X0143945Y0172653D01*
X0143935Y0172495D01*
X0143921Y0172337D01*
X0143903Y0172180D01*
X0143882Y0172023D01*
X0143856Y0171867D01*
X0143826Y0171711D01*
X0143793Y0171556D01*
X0143755Y0171403D01*
X0143714Y0171250D01*
X0143669Y0171098D01*
X0143620Y0170947D01*
X0143567Y0170798D01*
X0143511Y0170650D01*
X0143451Y0170504D01*
X0143387Y0170359D01*
X0143319Y0170216D01*
X0143248Y0170074D01*
X0143174Y0169934D01*
X0143096Y0169797D01*
X0143014Y0169661D01*
X0142930Y0169527D01*
X0142841Y0169396D01*
X0142750Y0169267D01*
X0142655Y0169140D01*
X0142558Y0169015D01*
X0142457Y0168893D01*
X0142353Y0168774D01*
X0142246Y0168657D01*
X0142136Y0168543D01*
X0142023Y0168432D01*
X0141908Y0168323D01*
X0141790Y0168218D01*
X0141669Y0168116D01*
X0141546Y0168016D01*
X0141420Y0167920D01*
X0141292Y0167827D01*
X0141162Y0167737D01*
X0141029Y0167651D01*
X0140894Y0167567D01*
X0140758Y0167488D01*
X0140619Y0167411D01*
X0140478Y0167339D01*
X0140336Y0167269D01*
X0140192Y0167204D01*
X0140046Y0167142D01*
X0139899Y0167084D01*
X0139750Y0167029D01*
X0139600Y0166978D01*
X0139449Y0166931D01*
X0139297Y0166888D01*
X0139144Y0166849D01*
X0138989Y0166813D01*
X0138834Y0166782D01*
X0138678Y0166754D01*
X0138522Y0166730D01*
X0138365Y0166710D01*
X0138207Y0166694D01*
X0138050Y0166682D01*
X0137891Y0166674D01*
X0137733Y0166670D01*
X0137575Y0166670D01*
X0137417Y0166674D01*
X0137258Y0166682D01*
X0137101Y0166694D01*
X0136943Y0166710D01*
X0136786Y0166730D01*
X0136630Y0166754D01*
X0136474Y0166782D01*
X0136319Y0166813D01*
X0136164Y0166849D01*
X0136011Y0166888D01*
X0135859Y0166931D01*
X0135708Y0166978D01*
X0135558Y0167029D01*
X0135409Y0167084D01*
X0135262Y0167142D01*
X0135116Y0167204D01*
X0134972Y0167269D01*
X0134830Y0167339D01*
X0134689Y0167411D01*
X0134550Y0167488D01*
X0134414Y0167567D01*
X0134279Y0167651D01*
X0134146Y0167737D01*
X0134016Y0167827D01*
X0133888Y0167920D01*
X0133762Y0168016D01*
X0133639Y0168116D01*
X0133518Y0168218D01*
X0133400Y0168323D01*
X0133285Y0168432D01*
X0133172Y0168543D01*
X0133062Y0168657D01*
X0132955Y0168774D01*
X0132851Y0168893D01*
X0132750Y0169015D01*
X0132653Y0169140D01*
X0132558Y0169267D01*
X0132467Y0169396D01*
X0132378Y0169527D01*
X0132294Y0169661D01*
X0132212Y0169797D01*
X0132134Y0169934D01*
X0132060Y0170074D01*
X0131989Y0170216D01*
X0131921Y0170359D01*
X0131857Y0170504D01*
X0131797Y0170650D01*
X0131741Y0170798D01*
X0131688Y0170947D01*
X0131639Y0171098D01*
X0131594Y0171250D01*
X0131553Y0171403D01*
X0131515Y0171556D01*
X0131482Y0171711D01*
X0131452Y0171867D01*
X0131426Y0172023D01*
X0131405Y0172180D01*
X0131387Y0172337D01*
X0131373Y0172495D01*
X0131363Y0172653D01*
X0131357Y0172811D01*
X0131355Y0172969D01*
X0036866Y0172969D02*
X0036868Y0173127D01*
X0036874Y0173285D01*
X0036884Y0173443D01*
X0036898Y0173601D01*
X0036916Y0173758D01*
X0036937Y0173915D01*
X0036963Y0174071D01*
X0036993Y0174227D01*
X0037026Y0174382D01*
X0037064Y0174535D01*
X0037105Y0174688D01*
X0037150Y0174840D01*
X0037199Y0174991D01*
X0037252Y0175140D01*
X0037308Y0175288D01*
X0037368Y0175434D01*
X0037432Y0175579D01*
X0037500Y0175722D01*
X0037571Y0175864D01*
X0037645Y0176004D01*
X0037723Y0176141D01*
X0037805Y0176277D01*
X0037889Y0176411D01*
X0037978Y0176542D01*
X0038069Y0176671D01*
X0038164Y0176798D01*
X0038261Y0176923D01*
X0038362Y0177045D01*
X0038466Y0177164D01*
X0038573Y0177281D01*
X0038683Y0177395D01*
X0038796Y0177506D01*
X0038911Y0177615D01*
X0039029Y0177720D01*
X0039150Y0177822D01*
X0039273Y0177922D01*
X0039399Y0178018D01*
X0039527Y0178111D01*
X0039657Y0178201D01*
X0039790Y0178287D01*
X0039925Y0178371D01*
X0040061Y0178450D01*
X0040200Y0178527D01*
X0040341Y0178599D01*
X0040483Y0178669D01*
X0040627Y0178734D01*
X0040773Y0178796D01*
X0040920Y0178854D01*
X0041069Y0178909D01*
X0041219Y0178960D01*
X0041370Y0179007D01*
X0041522Y0179050D01*
X0041675Y0179089D01*
X0041830Y0179125D01*
X0041985Y0179156D01*
X0042141Y0179184D01*
X0042297Y0179208D01*
X0042454Y0179228D01*
X0042612Y0179244D01*
X0042769Y0179256D01*
X0042928Y0179264D01*
X0043086Y0179268D01*
X0043244Y0179268D01*
X0043402Y0179264D01*
X0043561Y0179256D01*
X0043718Y0179244D01*
X0043876Y0179228D01*
X0044033Y0179208D01*
X0044189Y0179184D01*
X0044345Y0179156D01*
X0044500Y0179125D01*
X0044655Y0179089D01*
X0044808Y0179050D01*
X0044960Y0179007D01*
X0045111Y0178960D01*
X0045261Y0178909D01*
X0045410Y0178854D01*
X0045557Y0178796D01*
X0045703Y0178734D01*
X0045847Y0178669D01*
X0045989Y0178599D01*
X0046130Y0178527D01*
X0046269Y0178450D01*
X0046405Y0178371D01*
X0046540Y0178287D01*
X0046673Y0178201D01*
X0046803Y0178111D01*
X0046931Y0178018D01*
X0047057Y0177922D01*
X0047180Y0177822D01*
X0047301Y0177720D01*
X0047419Y0177615D01*
X0047534Y0177506D01*
X0047647Y0177395D01*
X0047757Y0177281D01*
X0047864Y0177164D01*
X0047968Y0177045D01*
X0048069Y0176923D01*
X0048166Y0176798D01*
X0048261Y0176671D01*
X0048352Y0176542D01*
X0048441Y0176411D01*
X0048525Y0176277D01*
X0048607Y0176141D01*
X0048685Y0176004D01*
X0048759Y0175864D01*
X0048830Y0175722D01*
X0048898Y0175579D01*
X0048962Y0175434D01*
X0049022Y0175288D01*
X0049078Y0175140D01*
X0049131Y0174991D01*
X0049180Y0174840D01*
X0049225Y0174688D01*
X0049266Y0174535D01*
X0049304Y0174382D01*
X0049337Y0174227D01*
X0049367Y0174071D01*
X0049393Y0173915D01*
X0049414Y0173758D01*
X0049432Y0173601D01*
X0049446Y0173443D01*
X0049456Y0173285D01*
X0049462Y0173127D01*
X0049464Y0172969D01*
X0049462Y0172811D01*
X0049456Y0172653D01*
X0049446Y0172495D01*
X0049432Y0172337D01*
X0049414Y0172180D01*
X0049393Y0172023D01*
X0049367Y0171867D01*
X0049337Y0171711D01*
X0049304Y0171556D01*
X0049266Y0171403D01*
X0049225Y0171250D01*
X0049180Y0171098D01*
X0049131Y0170947D01*
X0049078Y0170798D01*
X0049022Y0170650D01*
X0048962Y0170504D01*
X0048898Y0170359D01*
X0048830Y0170216D01*
X0048759Y0170074D01*
X0048685Y0169934D01*
X0048607Y0169797D01*
X0048525Y0169661D01*
X0048441Y0169527D01*
X0048352Y0169396D01*
X0048261Y0169267D01*
X0048166Y0169140D01*
X0048069Y0169015D01*
X0047968Y0168893D01*
X0047864Y0168774D01*
X0047757Y0168657D01*
X0047647Y0168543D01*
X0047534Y0168432D01*
X0047419Y0168323D01*
X0047301Y0168218D01*
X0047180Y0168116D01*
X0047057Y0168016D01*
X0046931Y0167920D01*
X0046803Y0167827D01*
X0046673Y0167737D01*
X0046540Y0167651D01*
X0046405Y0167567D01*
X0046269Y0167488D01*
X0046130Y0167411D01*
X0045989Y0167339D01*
X0045847Y0167269D01*
X0045703Y0167204D01*
X0045557Y0167142D01*
X0045410Y0167084D01*
X0045261Y0167029D01*
X0045111Y0166978D01*
X0044960Y0166931D01*
X0044808Y0166888D01*
X0044655Y0166849D01*
X0044500Y0166813D01*
X0044345Y0166782D01*
X0044189Y0166754D01*
X0044033Y0166730D01*
X0043876Y0166710D01*
X0043718Y0166694D01*
X0043561Y0166682D01*
X0043402Y0166674D01*
X0043244Y0166670D01*
X0043086Y0166670D01*
X0042928Y0166674D01*
X0042769Y0166682D01*
X0042612Y0166694D01*
X0042454Y0166710D01*
X0042297Y0166730D01*
X0042141Y0166754D01*
X0041985Y0166782D01*
X0041830Y0166813D01*
X0041675Y0166849D01*
X0041522Y0166888D01*
X0041370Y0166931D01*
X0041219Y0166978D01*
X0041069Y0167029D01*
X0040920Y0167084D01*
X0040773Y0167142D01*
X0040627Y0167204D01*
X0040483Y0167269D01*
X0040341Y0167339D01*
X0040200Y0167411D01*
X0040061Y0167488D01*
X0039925Y0167567D01*
X0039790Y0167651D01*
X0039657Y0167737D01*
X0039527Y0167827D01*
X0039399Y0167920D01*
X0039273Y0168016D01*
X0039150Y0168116D01*
X0039029Y0168218D01*
X0038911Y0168323D01*
X0038796Y0168432D01*
X0038683Y0168543D01*
X0038573Y0168657D01*
X0038466Y0168774D01*
X0038362Y0168893D01*
X0038261Y0169015D01*
X0038164Y0169140D01*
X0038069Y0169267D01*
X0037978Y0169396D01*
X0037889Y0169527D01*
X0037805Y0169661D01*
X0037723Y0169797D01*
X0037645Y0169934D01*
X0037571Y0170074D01*
X0037500Y0170216D01*
X0037432Y0170359D01*
X0037368Y0170504D01*
X0037308Y0170650D01*
X0037252Y0170798D01*
X0037199Y0170947D01*
X0037150Y0171098D01*
X0037105Y0171250D01*
X0037064Y0171403D01*
X0037026Y0171556D01*
X0036993Y0171711D01*
X0036963Y0171867D01*
X0036937Y0172023D01*
X0036916Y0172180D01*
X0036898Y0172337D01*
X0036884Y0172495D01*
X0036874Y0172653D01*
X0036868Y0172811D01*
X0036866Y0172969D01*
X0021118Y0192764D02*
X0021120Y0192922D01*
X0021126Y0193080D01*
X0021136Y0193238D01*
X0021150Y0193396D01*
X0021168Y0193553D01*
X0021189Y0193710D01*
X0021215Y0193866D01*
X0021245Y0194022D01*
X0021278Y0194177D01*
X0021316Y0194330D01*
X0021357Y0194483D01*
X0021402Y0194635D01*
X0021451Y0194786D01*
X0021504Y0194935D01*
X0021560Y0195083D01*
X0021620Y0195229D01*
X0021684Y0195374D01*
X0021752Y0195517D01*
X0021823Y0195659D01*
X0021897Y0195799D01*
X0021975Y0195936D01*
X0022057Y0196072D01*
X0022141Y0196206D01*
X0022230Y0196337D01*
X0022321Y0196466D01*
X0022416Y0196593D01*
X0022513Y0196718D01*
X0022614Y0196840D01*
X0022718Y0196959D01*
X0022825Y0197076D01*
X0022935Y0197190D01*
X0023048Y0197301D01*
X0023163Y0197410D01*
X0023281Y0197515D01*
X0023402Y0197617D01*
X0023525Y0197717D01*
X0023651Y0197813D01*
X0023779Y0197906D01*
X0023909Y0197996D01*
X0024042Y0198082D01*
X0024177Y0198166D01*
X0024313Y0198245D01*
X0024452Y0198322D01*
X0024593Y0198394D01*
X0024735Y0198464D01*
X0024879Y0198529D01*
X0025025Y0198591D01*
X0025172Y0198649D01*
X0025321Y0198704D01*
X0025471Y0198755D01*
X0025622Y0198802D01*
X0025774Y0198845D01*
X0025927Y0198884D01*
X0026082Y0198920D01*
X0026237Y0198951D01*
X0026393Y0198979D01*
X0026549Y0199003D01*
X0026706Y0199023D01*
X0026864Y0199039D01*
X0027021Y0199051D01*
X0027180Y0199059D01*
X0027338Y0199063D01*
X0027496Y0199063D01*
X0027654Y0199059D01*
X0027813Y0199051D01*
X0027970Y0199039D01*
X0028128Y0199023D01*
X0028285Y0199003D01*
X0028441Y0198979D01*
X0028597Y0198951D01*
X0028752Y0198920D01*
X0028907Y0198884D01*
X0029060Y0198845D01*
X0029212Y0198802D01*
X0029363Y0198755D01*
X0029513Y0198704D01*
X0029662Y0198649D01*
X0029809Y0198591D01*
X0029955Y0198529D01*
X0030099Y0198464D01*
X0030241Y0198394D01*
X0030382Y0198322D01*
X0030521Y0198245D01*
X0030657Y0198166D01*
X0030792Y0198082D01*
X0030925Y0197996D01*
X0031055Y0197906D01*
X0031183Y0197813D01*
X0031309Y0197717D01*
X0031432Y0197617D01*
X0031553Y0197515D01*
X0031671Y0197410D01*
X0031786Y0197301D01*
X0031899Y0197190D01*
X0032009Y0197076D01*
X0032116Y0196959D01*
X0032220Y0196840D01*
X0032321Y0196718D01*
X0032418Y0196593D01*
X0032513Y0196466D01*
X0032604Y0196337D01*
X0032693Y0196206D01*
X0032777Y0196072D01*
X0032859Y0195936D01*
X0032937Y0195799D01*
X0033011Y0195659D01*
X0033082Y0195517D01*
X0033150Y0195374D01*
X0033214Y0195229D01*
X0033274Y0195083D01*
X0033330Y0194935D01*
X0033383Y0194786D01*
X0033432Y0194635D01*
X0033477Y0194483D01*
X0033518Y0194330D01*
X0033556Y0194177D01*
X0033589Y0194022D01*
X0033619Y0193866D01*
X0033645Y0193710D01*
X0033666Y0193553D01*
X0033684Y0193396D01*
X0033698Y0193238D01*
X0033708Y0193080D01*
X0033714Y0192922D01*
X0033716Y0192764D01*
X0033714Y0192606D01*
X0033708Y0192448D01*
X0033698Y0192290D01*
X0033684Y0192132D01*
X0033666Y0191975D01*
X0033645Y0191818D01*
X0033619Y0191662D01*
X0033589Y0191506D01*
X0033556Y0191351D01*
X0033518Y0191198D01*
X0033477Y0191045D01*
X0033432Y0190893D01*
X0033383Y0190742D01*
X0033330Y0190593D01*
X0033274Y0190445D01*
X0033214Y0190299D01*
X0033150Y0190154D01*
X0033082Y0190011D01*
X0033011Y0189869D01*
X0032937Y0189729D01*
X0032859Y0189592D01*
X0032777Y0189456D01*
X0032693Y0189322D01*
X0032604Y0189191D01*
X0032513Y0189062D01*
X0032418Y0188935D01*
X0032321Y0188810D01*
X0032220Y0188688D01*
X0032116Y0188569D01*
X0032009Y0188452D01*
X0031899Y0188338D01*
X0031786Y0188227D01*
X0031671Y0188118D01*
X0031553Y0188013D01*
X0031432Y0187911D01*
X0031309Y0187811D01*
X0031183Y0187715D01*
X0031055Y0187622D01*
X0030925Y0187532D01*
X0030792Y0187446D01*
X0030657Y0187362D01*
X0030521Y0187283D01*
X0030382Y0187206D01*
X0030241Y0187134D01*
X0030099Y0187064D01*
X0029955Y0186999D01*
X0029809Y0186937D01*
X0029662Y0186879D01*
X0029513Y0186824D01*
X0029363Y0186773D01*
X0029212Y0186726D01*
X0029060Y0186683D01*
X0028907Y0186644D01*
X0028752Y0186608D01*
X0028597Y0186577D01*
X0028441Y0186549D01*
X0028285Y0186525D01*
X0028128Y0186505D01*
X0027970Y0186489D01*
X0027813Y0186477D01*
X0027654Y0186469D01*
X0027496Y0186465D01*
X0027338Y0186465D01*
X0027180Y0186469D01*
X0027021Y0186477D01*
X0026864Y0186489D01*
X0026706Y0186505D01*
X0026549Y0186525D01*
X0026393Y0186549D01*
X0026237Y0186577D01*
X0026082Y0186608D01*
X0025927Y0186644D01*
X0025774Y0186683D01*
X0025622Y0186726D01*
X0025471Y0186773D01*
X0025321Y0186824D01*
X0025172Y0186879D01*
X0025025Y0186937D01*
X0024879Y0186999D01*
X0024735Y0187064D01*
X0024593Y0187134D01*
X0024452Y0187206D01*
X0024313Y0187283D01*
X0024177Y0187362D01*
X0024042Y0187446D01*
X0023909Y0187532D01*
X0023779Y0187622D01*
X0023651Y0187715D01*
X0023525Y0187811D01*
X0023402Y0187911D01*
X0023281Y0188013D01*
X0023163Y0188118D01*
X0023048Y0188227D01*
X0022935Y0188338D01*
X0022825Y0188452D01*
X0022718Y0188569D01*
X0022614Y0188688D01*
X0022513Y0188810D01*
X0022416Y0188935D01*
X0022321Y0189062D01*
X0022230Y0189191D01*
X0022141Y0189322D01*
X0022057Y0189456D01*
X0021975Y0189592D01*
X0021897Y0189729D01*
X0021823Y0189869D01*
X0021752Y0190011D01*
X0021684Y0190154D01*
X0021620Y0190299D01*
X0021560Y0190445D01*
X0021504Y0190593D01*
X0021451Y0190742D01*
X0021402Y0190893D01*
X0021357Y0191045D01*
X0021316Y0191198D01*
X0021278Y0191351D01*
X0021245Y0191506D01*
X0021215Y0191662D01*
X0021189Y0191818D01*
X0021168Y0191975D01*
X0021150Y0192132D01*
X0021136Y0192290D01*
X0021126Y0192448D01*
X0021120Y0192606D01*
X0021118Y0192764D01*
D11*
X0027417Y0192764D03*
X0043165Y0172969D03*
X0137654Y0172969D03*
X0255764Y0190764D03*
X0137654Y0078480D03*
X0043165Y0078480D03*
X0027417Y0019535D03*
X0255764Y0017535D03*
D12*
X0260724Y0085488D03*
X0260724Y0099661D03*
X0187575Y0125488D03*
X0187575Y0139661D03*
D13*
X0187575Y0142575D03*
X0202575Y0137575D03*
X0187575Y0122575D03*
X0174012Y0104937D03*
X0163224Y0104937D03*
X0163224Y0074937D03*
X0174012Y0074937D03*
X0189937Y0064937D03*
X0187575Y0047575D03*
X0207575Y0047575D03*
X0227575Y0047575D03*
X0219937Y0064937D03*
X0260724Y0082575D03*
X0260724Y0102575D03*
X0232575Y0137575D03*
X0167575Y0047575D03*
X0177575Y0027575D03*
X0177575Y0017575D03*
X0187575Y0017575D03*
X0197575Y0017575D03*
X0197575Y0027575D03*
X0207575Y0017575D03*
X0217575Y0017575D03*
X0227575Y0017575D03*
X0237575Y0017575D03*
X0237575Y0027575D03*
X0217575Y0027575D03*
X0167575Y0017575D03*
D14*
X0190724Y0074975D02*
X0190724Y0080175D01*
X0200724Y0080175D02*
X0200724Y0074975D01*
X0210724Y0074975D02*
X0210724Y0080175D01*
X0220724Y0080175D02*
X0220724Y0074975D01*
X0230724Y0074975D02*
X0230724Y0080175D01*
X0240724Y0080175D02*
X0240724Y0074975D01*
X0250724Y0074975D02*
X0250724Y0080175D01*
X0250724Y0104975D02*
X0250724Y0110175D01*
X0240724Y0110175D02*
X0240724Y0104975D01*
X0230724Y0104975D02*
X0230724Y0110175D01*
X0220724Y0110175D02*
X0220724Y0104975D01*
X0210724Y0104975D02*
X0210724Y0110175D01*
X0200724Y0110175D02*
X0200724Y0104975D01*
X0190724Y0104975D02*
X0190724Y0110175D01*
D15*
X0210488Y0137575D03*
X0224661Y0137575D03*
X0212024Y0064937D03*
X0197850Y0064937D03*
D16*
X0202654Y0154031D03*
X0202654Y0161906D03*
X0212496Y0161906D03*
X0212496Y0154031D03*
D17*
X0231276Y0172575D03*
X0183874Y0172575D03*
D18*
X0174012Y0097024D03*
X0163224Y0097024D03*
X0163224Y0082850D03*
X0174012Y0082850D03*
X0167575Y0039661D03*
X0167575Y0025488D03*
X0187575Y0025488D03*
X0187575Y0039661D03*
X0207575Y0039661D03*
X0207575Y0025488D03*
X0227575Y0025488D03*
X0227575Y0039661D03*
D19*
X0237575Y0024661D03*
X0237575Y0020488D03*
X0217575Y0020488D03*
X0217575Y0024661D03*
X0197575Y0024661D03*
X0197575Y0020488D03*
X0177575Y0020488D03*
X0177575Y0024661D03*
D20*
X0110409Y0071669D03*
X0100409Y0071669D03*
X0090409Y0071669D03*
X0080409Y0071669D03*
X0070409Y0071669D03*
X0257575Y0127575D03*
X0257575Y0137575D03*
X0257575Y0147575D03*
X0257575Y0157575D03*
D21*
X0100409Y0051354D03*
D22*
X0090409Y0051354D03*
X0080409Y0051354D03*
X0080409Y0021354D03*
X0090409Y0021354D03*
X0100409Y0021354D03*
M02*
