G75*
%MOIN*%
%OFA0B0*%
%FSLAX25Y25*%
%IPPOS*%
%LPD*%
%AMOC8*
5,1,8,0,0,1.08239X$1,22.5*
%
%ADD10C,0.00000*%
%ADD11C,0.00900*%
%ADD12C,0.01200*%
%ADD13C,0.00800*%
%ADD14C,0.00600*%
%ADD15C,0.01000*%
%ADD16C,0.00500*%
%ADD17C,0.00787*%
%ADD18R,0.10000X0.05000*%
D10*
X0015606Y0017535D02*
X0015606Y0190764D01*
X0015609Y0191049D01*
X0015620Y0191335D01*
X0015637Y0191620D01*
X0015661Y0191904D01*
X0015692Y0192188D01*
X0015730Y0192471D01*
X0015775Y0192752D01*
X0015826Y0193033D01*
X0015884Y0193313D01*
X0015949Y0193591D01*
X0016021Y0193867D01*
X0016099Y0194141D01*
X0016184Y0194414D01*
X0016276Y0194684D01*
X0016374Y0194952D01*
X0016478Y0195218D01*
X0016589Y0195481D01*
X0016706Y0195741D01*
X0016829Y0195999D01*
X0016959Y0196253D01*
X0017095Y0196504D01*
X0017236Y0196752D01*
X0017384Y0196996D01*
X0017537Y0197237D01*
X0017697Y0197473D01*
X0017862Y0197706D01*
X0018032Y0197935D01*
X0018208Y0198160D01*
X0018390Y0198380D01*
X0018576Y0198596D01*
X0018768Y0198807D01*
X0018965Y0199014D01*
X0019167Y0199216D01*
X0019374Y0199413D01*
X0019585Y0199605D01*
X0019801Y0199791D01*
X0020021Y0199973D01*
X0020246Y0200149D01*
X0020475Y0200319D01*
X0020708Y0200484D01*
X0020944Y0200644D01*
X0021185Y0200797D01*
X0021429Y0200945D01*
X0021677Y0201086D01*
X0021928Y0201222D01*
X0022182Y0201352D01*
X0022440Y0201475D01*
X0022700Y0201592D01*
X0022963Y0201703D01*
X0023229Y0201807D01*
X0023497Y0201905D01*
X0023767Y0201997D01*
X0024040Y0202082D01*
X0024314Y0202160D01*
X0024590Y0202232D01*
X0024868Y0202297D01*
X0025148Y0202355D01*
X0025429Y0202406D01*
X0025710Y0202451D01*
X0025993Y0202489D01*
X0026277Y0202520D01*
X0026561Y0202544D01*
X0026846Y0202561D01*
X0027132Y0202572D01*
X0027417Y0202575D01*
X0255764Y0202575D01*
X0249465Y0190764D02*
X0249467Y0190922D01*
X0249473Y0191080D01*
X0249483Y0191238D01*
X0249497Y0191396D01*
X0249515Y0191553D01*
X0249536Y0191710D01*
X0249562Y0191866D01*
X0249592Y0192022D01*
X0249625Y0192177D01*
X0249663Y0192330D01*
X0249704Y0192483D01*
X0249749Y0192635D01*
X0249798Y0192786D01*
X0249851Y0192935D01*
X0249907Y0193083D01*
X0249967Y0193229D01*
X0250031Y0193374D01*
X0250099Y0193517D01*
X0250170Y0193659D01*
X0250244Y0193799D01*
X0250322Y0193936D01*
X0250404Y0194072D01*
X0250488Y0194206D01*
X0250577Y0194337D01*
X0250668Y0194466D01*
X0250763Y0194593D01*
X0250860Y0194718D01*
X0250961Y0194840D01*
X0251065Y0194959D01*
X0251172Y0195076D01*
X0251282Y0195190D01*
X0251395Y0195301D01*
X0251510Y0195410D01*
X0251628Y0195515D01*
X0251749Y0195617D01*
X0251872Y0195717D01*
X0251998Y0195813D01*
X0252126Y0195906D01*
X0252256Y0195996D01*
X0252389Y0196082D01*
X0252524Y0196166D01*
X0252660Y0196245D01*
X0252799Y0196322D01*
X0252940Y0196394D01*
X0253082Y0196464D01*
X0253226Y0196529D01*
X0253372Y0196591D01*
X0253519Y0196649D01*
X0253668Y0196704D01*
X0253818Y0196755D01*
X0253969Y0196802D01*
X0254121Y0196845D01*
X0254274Y0196884D01*
X0254429Y0196920D01*
X0254584Y0196951D01*
X0254740Y0196979D01*
X0254896Y0197003D01*
X0255053Y0197023D01*
X0255211Y0197039D01*
X0255368Y0197051D01*
X0255527Y0197059D01*
X0255685Y0197063D01*
X0255843Y0197063D01*
X0256001Y0197059D01*
X0256160Y0197051D01*
X0256317Y0197039D01*
X0256475Y0197023D01*
X0256632Y0197003D01*
X0256788Y0196979D01*
X0256944Y0196951D01*
X0257099Y0196920D01*
X0257254Y0196884D01*
X0257407Y0196845D01*
X0257559Y0196802D01*
X0257710Y0196755D01*
X0257860Y0196704D01*
X0258009Y0196649D01*
X0258156Y0196591D01*
X0258302Y0196529D01*
X0258446Y0196464D01*
X0258588Y0196394D01*
X0258729Y0196322D01*
X0258868Y0196245D01*
X0259004Y0196166D01*
X0259139Y0196082D01*
X0259272Y0195996D01*
X0259402Y0195906D01*
X0259530Y0195813D01*
X0259656Y0195717D01*
X0259779Y0195617D01*
X0259900Y0195515D01*
X0260018Y0195410D01*
X0260133Y0195301D01*
X0260246Y0195190D01*
X0260356Y0195076D01*
X0260463Y0194959D01*
X0260567Y0194840D01*
X0260668Y0194718D01*
X0260765Y0194593D01*
X0260860Y0194466D01*
X0260951Y0194337D01*
X0261040Y0194206D01*
X0261124Y0194072D01*
X0261206Y0193936D01*
X0261284Y0193799D01*
X0261358Y0193659D01*
X0261429Y0193517D01*
X0261497Y0193374D01*
X0261561Y0193229D01*
X0261621Y0193083D01*
X0261677Y0192935D01*
X0261730Y0192786D01*
X0261779Y0192635D01*
X0261824Y0192483D01*
X0261865Y0192330D01*
X0261903Y0192177D01*
X0261936Y0192022D01*
X0261966Y0191866D01*
X0261992Y0191710D01*
X0262013Y0191553D01*
X0262031Y0191396D01*
X0262045Y0191238D01*
X0262055Y0191080D01*
X0262061Y0190922D01*
X0262063Y0190764D01*
X0262061Y0190606D01*
X0262055Y0190448D01*
X0262045Y0190290D01*
X0262031Y0190132D01*
X0262013Y0189975D01*
X0261992Y0189818D01*
X0261966Y0189662D01*
X0261936Y0189506D01*
X0261903Y0189351D01*
X0261865Y0189198D01*
X0261824Y0189045D01*
X0261779Y0188893D01*
X0261730Y0188742D01*
X0261677Y0188593D01*
X0261621Y0188445D01*
X0261561Y0188299D01*
X0261497Y0188154D01*
X0261429Y0188011D01*
X0261358Y0187869D01*
X0261284Y0187729D01*
X0261206Y0187592D01*
X0261124Y0187456D01*
X0261040Y0187322D01*
X0260951Y0187191D01*
X0260860Y0187062D01*
X0260765Y0186935D01*
X0260668Y0186810D01*
X0260567Y0186688D01*
X0260463Y0186569D01*
X0260356Y0186452D01*
X0260246Y0186338D01*
X0260133Y0186227D01*
X0260018Y0186118D01*
X0259900Y0186013D01*
X0259779Y0185911D01*
X0259656Y0185811D01*
X0259530Y0185715D01*
X0259402Y0185622D01*
X0259272Y0185532D01*
X0259139Y0185446D01*
X0259004Y0185362D01*
X0258868Y0185283D01*
X0258729Y0185206D01*
X0258588Y0185134D01*
X0258446Y0185064D01*
X0258302Y0184999D01*
X0258156Y0184937D01*
X0258009Y0184879D01*
X0257860Y0184824D01*
X0257710Y0184773D01*
X0257559Y0184726D01*
X0257407Y0184683D01*
X0257254Y0184644D01*
X0257099Y0184608D01*
X0256944Y0184577D01*
X0256788Y0184549D01*
X0256632Y0184525D01*
X0256475Y0184505D01*
X0256317Y0184489D01*
X0256160Y0184477D01*
X0256001Y0184469D01*
X0255843Y0184465D01*
X0255685Y0184465D01*
X0255527Y0184469D01*
X0255368Y0184477D01*
X0255211Y0184489D01*
X0255053Y0184505D01*
X0254896Y0184525D01*
X0254740Y0184549D01*
X0254584Y0184577D01*
X0254429Y0184608D01*
X0254274Y0184644D01*
X0254121Y0184683D01*
X0253969Y0184726D01*
X0253818Y0184773D01*
X0253668Y0184824D01*
X0253519Y0184879D01*
X0253372Y0184937D01*
X0253226Y0184999D01*
X0253082Y0185064D01*
X0252940Y0185134D01*
X0252799Y0185206D01*
X0252660Y0185283D01*
X0252524Y0185362D01*
X0252389Y0185446D01*
X0252256Y0185532D01*
X0252126Y0185622D01*
X0251998Y0185715D01*
X0251872Y0185811D01*
X0251749Y0185911D01*
X0251628Y0186013D01*
X0251510Y0186118D01*
X0251395Y0186227D01*
X0251282Y0186338D01*
X0251172Y0186452D01*
X0251065Y0186569D01*
X0250961Y0186688D01*
X0250860Y0186810D01*
X0250763Y0186935D01*
X0250668Y0187062D01*
X0250577Y0187191D01*
X0250488Y0187322D01*
X0250404Y0187456D01*
X0250322Y0187592D01*
X0250244Y0187729D01*
X0250170Y0187869D01*
X0250099Y0188011D01*
X0250031Y0188154D01*
X0249967Y0188299D01*
X0249907Y0188445D01*
X0249851Y0188593D01*
X0249798Y0188742D01*
X0249749Y0188893D01*
X0249704Y0189045D01*
X0249663Y0189198D01*
X0249625Y0189351D01*
X0249592Y0189506D01*
X0249562Y0189662D01*
X0249536Y0189818D01*
X0249515Y0189975D01*
X0249497Y0190132D01*
X0249483Y0190290D01*
X0249473Y0190448D01*
X0249467Y0190606D01*
X0249465Y0190764D01*
X0255764Y0202575D02*
X0256049Y0202572D01*
X0256335Y0202561D01*
X0256620Y0202544D01*
X0256904Y0202520D01*
X0257188Y0202489D01*
X0257471Y0202451D01*
X0257752Y0202406D01*
X0258033Y0202355D01*
X0258313Y0202297D01*
X0258591Y0202232D01*
X0258867Y0202160D01*
X0259141Y0202082D01*
X0259414Y0201997D01*
X0259684Y0201905D01*
X0259952Y0201807D01*
X0260218Y0201703D01*
X0260481Y0201592D01*
X0260741Y0201475D01*
X0260999Y0201352D01*
X0261253Y0201222D01*
X0261504Y0201086D01*
X0261752Y0200945D01*
X0261996Y0200797D01*
X0262237Y0200644D01*
X0262473Y0200484D01*
X0262706Y0200319D01*
X0262935Y0200149D01*
X0263160Y0199973D01*
X0263380Y0199791D01*
X0263596Y0199605D01*
X0263807Y0199413D01*
X0264014Y0199216D01*
X0264216Y0199014D01*
X0264413Y0198807D01*
X0264605Y0198596D01*
X0264791Y0198380D01*
X0264973Y0198160D01*
X0265149Y0197935D01*
X0265319Y0197706D01*
X0265484Y0197473D01*
X0265644Y0197237D01*
X0265797Y0196996D01*
X0265945Y0196752D01*
X0266086Y0196504D01*
X0266222Y0196253D01*
X0266352Y0195999D01*
X0266475Y0195741D01*
X0266592Y0195481D01*
X0266703Y0195218D01*
X0266807Y0194952D01*
X0266905Y0194684D01*
X0266997Y0194414D01*
X0267082Y0194141D01*
X0267160Y0193867D01*
X0267232Y0193591D01*
X0267297Y0193313D01*
X0267355Y0193033D01*
X0267406Y0192752D01*
X0267451Y0192471D01*
X0267489Y0192188D01*
X0267520Y0191904D01*
X0267544Y0191620D01*
X0267561Y0191335D01*
X0267572Y0191049D01*
X0267575Y0190764D01*
X0267575Y0017535D01*
X0249465Y0017535D02*
X0249467Y0017693D01*
X0249473Y0017851D01*
X0249483Y0018009D01*
X0249497Y0018167D01*
X0249515Y0018324D01*
X0249536Y0018481D01*
X0249562Y0018637D01*
X0249592Y0018793D01*
X0249625Y0018948D01*
X0249663Y0019101D01*
X0249704Y0019254D01*
X0249749Y0019406D01*
X0249798Y0019557D01*
X0249851Y0019706D01*
X0249907Y0019854D01*
X0249967Y0020000D01*
X0250031Y0020145D01*
X0250099Y0020288D01*
X0250170Y0020430D01*
X0250244Y0020570D01*
X0250322Y0020707D01*
X0250404Y0020843D01*
X0250488Y0020977D01*
X0250577Y0021108D01*
X0250668Y0021237D01*
X0250763Y0021364D01*
X0250860Y0021489D01*
X0250961Y0021611D01*
X0251065Y0021730D01*
X0251172Y0021847D01*
X0251282Y0021961D01*
X0251395Y0022072D01*
X0251510Y0022181D01*
X0251628Y0022286D01*
X0251749Y0022388D01*
X0251872Y0022488D01*
X0251998Y0022584D01*
X0252126Y0022677D01*
X0252256Y0022767D01*
X0252389Y0022853D01*
X0252524Y0022937D01*
X0252660Y0023016D01*
X0252799Y0023093D01*
X0252940Y0023165D01*
X0253082Y0023235D01*
X0253226Y0023300D01*
X0253372Y0023362D01*
X0253519Y0023420D01*
X0253668Y0023475D01*
X0253818Y0023526D01*
X0253969Y0023573D01*
X0254121Y0023616D01*
X0254274Y0023655D01*
X0254429Y0023691D01*
X0254584Y0023722D01*
X0254740Y0023750D01*
X0254896Y0023774D01*
X0255053Y0023794D01*
X0255211Y0023810D01*
X0255368Y0023822D01*
X0255527Y0023830D01*
X0255685Y0023834D01*
X0255843Y0023834D01*
X0256001Y0023830D01*
X0256160Y0023822D01*
X0256317Y0023810D01*
X0256475Y0023794D01*
X0256632Y0023774D01*
X0256788Y0023750D01*
X0256944Y0023722D01*
X0257099Y0023691D01*
X0257254Y0023655D01*
X0257407Y0023616D01*
X0257559Y0023573D01*
X0257710Y0023526D01*
X0257860Y0023475D01*
X0258009Y0023420D01*
X0258156Y0023362D01*
X0258302Y0023300D01*
X0258446Y0023235D01*
X0258588Y0023165D01*
X0258729Y0023093D01*
X0258868Y0023016D01*
X0259004Y0022937D01*
X0259139Y0022853D01*
X0259272Y0022767D01*
X0259402Y0022677D01*
X0259530Y0022584D01*
X0259656Y0022488D01*
X0259779Y0022388D01*
X0259900Y0022286D01*
X0260018Y0022181D01*
X0260133Y0022072D01*
X0260246Y0021961D01*
X0260356Y0021847D01*
X0260463Y0021730D01*
X0260567Y0021611D01*
X0260668Y0021489D01*
X0260765Y0021364D01*
X0260860Y0021237D01*
X0260951Y0021108D01*
X0261040Y0020977D01*
X0261124Y0020843D01*
X0261206Y0020707D01*
X0261284Y0020570D01*
X0261358Y0020430D01*
X0261429Y0020288D01*
X0261497Y0020145D01*
X0261561Y0020000D01*
X0261621Y0019854D01*
X0261677Y0019706D01*
X0261730Y0019557D01*
X0261779Y0019406D01*
X0261824Y0019254D01*
X0261865Y0019101D01*
X0261903Y0018948D01*
X0261936Y0018793D01*
X0261966Y0018637D01*
X0261992Y0018481D01*
X0262013Y0018324D01*
X0262031Y0018167D01*
X0262045Y0018009D01*
X0262055Y0017851D01*
X0262061Y0017693D01*
X0262063Y0017535D01*
X0262061Y0017377D01*
X0262055Y0017219D01*
X0262045Y0017061D01*
X0262031Y0016903D01*
X0262013Y0016746D01*
X0261992Y0016589D01*
X0261966Y0016433D01*
X0261936Y0016277D01*
X0261903Y0016122D01*
X0261865Y0015969D01*
X0261824Y0015816D01*
X0261779Y0015664D01*
X0261730Y0015513D01*
X0261677Y0015364D01*
X0261621Y0015216D01*
X0261561Y0015070D01*
X0261497Y0014925D01*
X0261429Y0014782D01*
X0261358Y0014640D01*
X0261284Y0014500D01*
X0261206Y0014363D01*
X0261124Y0014227D01*
X0261040Y0014093D01*
X0260951Y0013962D01*
X0260860Y0013833D01*
X0260765Y0013706D01*
X0260668Y0013581D01*
X0260567Y0013459D01*
X0260463Y0013340D01*
X0260356Y0013223D01*
X0260246Y0013109D01*
X0260133Y0012998D01*
X0260018Y0012889D01*
X0259900Y0012784D01*
X0259779Y0012682D01*
X0259656Y0012582D01*
X0259530Y0012486D01*
X0259402Y0012393D01*
X0259272Y0012303D01*
X0259139Y0012217D01*
X0259004Y0012133D01*
X0258868Y0012054D01*
X0258729Y0011977D01*
X0258588Y0011905D01*
X0258446Y0011835D01*
X0258302Y0011770D01*
X0258156Y0011708D01*
X0258009Y0011650D01*
X0257860Y0011595D01*
X0257710Y0011544D01*
X0257559Y0011497D01*
X0257407Y0011454D01*
X0257254Y0011415D01*
X0257099Y0011379D01*
X0256944Y0011348D01*
X0256788Y0011320D01*
X0256632Y0011296D01*
X0256475Y0011276D01*
X0256317Y0011260D01*
X0256160Y0011248D01*
X0256001Y0011240D01*
X0255843Y0011236D01*
X0255685Y0011236D01*
X0255527Y0011240D01*
X0255368Y0011248D01*
X0255211Y0011260D01*
X0255053Y0011276D01*
X0254896Y0011296D01*
X0254740Y0011320D01*
X0254584Y0011348D01*
X0254429Y0011379D01*
X0254274Y0011415D01*
X0254121Y0011454D01*
X0253969Y0011497D01*
X0253818Y0011544D01*
X0253668Y0011595D01*
X0253519Y0011650D01*
X0253372Y0011708D01*
X0253226Y0011770D01*
X0253082Y0011835D01*
X0252940Y0011905D01*
X0252799Y0011977D01*
X0252660Y0012054D01*
X0252524Y0012133D01*
X0252389Y0012217D01*
X0252256Y0012303D01*
X0252126Y0012393D01*
X0251998Y0012486D01*
X0251872Y0012582D01*
X0251749Y0012682D01*
X0251628Y0012784D01*
X0251510Y0012889D01*
X0251395Y0012998D01*
X0251282Y0013109D01*
X0251172Y0013223D01*
X0251065Y0013340D01*
X0250961Y0013459D01*
X0250860Y0013581D01*
X0250763Y0013706D01*
X0250668Y0013833D01*
X0250577Y0013962D01*
X0250488Y0014093D01*
X0250404Y0014227D01*
X0250322Y0014363D01*
X0250244Y0014500D01*
X0250170Y0014640D01*
X0250099Y0014782D01*
X0250031Y0014925D01*
X0249967Y0015070D01*
X0249907Y0015216D01*
X0249851Y0015364D01*
X0249798Y0015513D01*
X0249749Y0015664D01*
X0249704Y0015816D01*
X0249663Y0015969D01*
X0249625Y0016122D01*
X0249592Y0016277D01*
X0249562Y0016433D01*
X0249536Y0016589D01*
X0249515Y0016746D01*
X0249497Y0016903D01*
X0249483Y0017061D01*
X0249473Y0017219D01*
X0249467Y0017377D01*
X0249465Y0017535D01*
X0255764Y0005724D02*
X0256049Y0005727D01*
X0256335Y0005738D01*
X0256620Y0005755D01*
X0256904Y0005779D01*
X0257188Y0005810D01*
X0257471Y0005848D01*
X0257752Y0005893D01*
X0258033Y0005944D01*
X0258313Y0006002D01*
X0258591Y0006067D01*
X0258867Y0006139D01*
X0259141Y0006217D01*
X0259414Y0006302D01*
X0259684Y0006394D01*
X0259952Y0006492D01*
X0260218Y0006596D01*
X0260481Y0006707D01*
X0260741Y0006824D01*
X0260999Y0006947D01*
X0261253Y0007077D01*
X0261504Y0007213D01*
X0261752Y0007354D01*
X0261996Y0007502D01*
X0262237Y0007655D01*
X0262473Y0007815D01*
X0262706Y0007980D01*
X0262935Y0008150D01*
X0263160Y0008326D01*
X0263380Y0008508D01*
X0263596Y0008694D01*
X0263807Y0008886D01*
X0264014Y0009083D01*
X0264216Y0009285D01*
X0264413Y0009492D01*
X0264605Y0009703D01*
X0264791Y0009919D01*
X0264973Y0010139D01*
X0265149Y0010364D01*
X0265319Y0010593D01*
X0265484Y0010826D01*
X0265644Y0011062D01*
X0265797Y0011303D01*
X0265945Y0011547D01*
X0266086Y0011795D01*
X0266222Y0012046D01*
X0266352Y0012300D01*
X0266475Y0012558D01*
X0266592Y0012818D01*
X0266703Y0013081D01*
X0266807Y0013347D01*
X0266905Y0013615D01*
X0266997Y0013885D01*
X0267082Y0014158D01*
X0267160Y0014432D01*
X0267232Y0014708D01*
X0267297Y0014986D01*
X0267355Y0015266D01*
X0267406Y0015547D01*
X0267451Y0015828D01*
X0267489Y0016111D01*
X0267520Y0016395D01*
X0267544Y0016679D01*
X0267561Y0016964D01*
X0267572Y0017250D01*
X0267575Y0017535D01*
X0255764Y0005724D02*
X0027417Y0005724D01*
X0027132Y0005727D01*
X0026846Y0005738D01*
X0026561Y0005755D01*
X0026277Y0005779D01*
X0025993Y0005810D01*
X0025710Y0005848D01*
X0025429Y0005893D01*
X0025148Y0005944D01*
X0024868Y0006002D01*
X0024590Y0006067D01*
X0024314Y0006139D01*
X0024040Y0006217D01*
X0023767Y0006302D01*
X0023497Y0006394D01*
X0023229Y0006492D01*
X0022963Y0006596D01*
X0022700Y0006707D01*
X0022440Y0006824D01*
X0022182Y0006947D01*
X0021928Y0007077D01*
X0021677Y0007213D01*
X0021429Y0007354D01*
X0021185Y0007502D01*
X0020944Y0007655D01*
X0020708Y0007815D01*
X0020475Y0007980D01*
X0020246Y0008150D01*
X0020021Y0008326D01*
X0019801Y0008508D01*
X0019585Y0008694D01*
X0019374Y0008886D01*
X0019167Y0009083D01*
X0018965Y0009285D01*
X0018768Y0009492D01*
X0018576Y0009703D01*
X0018390Y0009919D01*
X0018208Y0010139D01*
X0018032Y0010364D01*
X0017862Y0010593D01*
X0017697Y0010826D01*
X0017537Y0011062D01*
X0017384Y0011303D01*
X0017236Y0011547D01*
X0017095Y0011795D01*
X0016959Y0012046D01*
X0016829Y0012300D01*
X0016706Y0012558D01*
X0016589Y0012818D01*
X0016478Y0013081D01*
X0016374Y0013347D01*
X0016276Y0013615D01*
X0016184Y0013885D01*
X0016099Y0014158D01*
X0016021Y0014432D01*
X0015949Y0014708D01*
X0015884Y0014986D01*
X0015826Y0015266D01*
X0015775Y0015547D01*
X0015730Y0015828D01*
X0015692Y0016111D01*
X0015661Y0016395D01*
X0015637Y0016679D01*
X0015620Y0016964D01*
X0015609Y0017250D01*
X0015606Y0017535D01*
X0021118Y0019535D02*
X0021120Y0019693D01*
X0021126Y0019851D01*
X0021136Y0020009D01*
X0021150Y0020167D01*
X0021168Y0020324D01*
X0021189Y0020481D01*
X0021215Y0020637D01*
X0021245Y0020793D01*
X0021278Y0020948D01*
X0021316Y0021101D01*
X0021357Y0021254D01*
X0021402Y0021406D01*
X0021451Y0021557D01*
X0021504Y0021706D01*
X0021560Y0021854D01*
X0021620Y0022000D01*
X0021684Y0022145D01*
X0021752Y0022288D01*
X0021823Y0022430D01*
X0021897Y0022570D01*
X0021975Y0022707D01*
X0022057Y0022843D01*
X0022141Y0022977D01*
X0022230Y0023108D01*
X0022321Y0023237D01*
X0022416Y0023364D01*
X0022513Y0023489D01*
X0022614Y0023611D01*
X0022718Y0023730D01*
X0022825Y0023847D01*
X0022935Y0023961D01*
X0023048Y0024072D01*
X0023163Y0024181D01*
X0023281Y0024286D01*
X0023402Y0024388D01*
X0023525Y0024488D01*
X0023651Y0024584D01*
X0023779Y0024677D01*
X0023909Y0024767D01*
X0024042Y0024853D01*
X0024177Y0024937D01*
X0024313Y0025016D01*
X0024452Y0025093D01*
X0024593Y0025165D01*
X0024735Y0025235D01*
X0024879Y0025300D01*
X0025025Y0025362D01*
X0025172Y0025420D01*
X0025321Y0025475D01*
X0025471Y0025526D01*
X0025622Y0025573D01*
X0025774Y0025616D01*
X0025927Y0025655D01*
X0026082Y0025691D01*
X0026237Y0025722D01*
X0026393Y0025750D01*
X0026549Y0025774D01*
X0026706Y0025794D01*
X0026864Y0025810D01*
X0027021Y0025822D01*
X0027180Y0025830D01*
X0027338Y0025834D01*
X0027496Y0025834D01*
X0027654Y0025830D01*
X0027813Y0025822D01*
X0027970Y0025810D01*
X0028128Y0025794D01*
X0028285Y0025774D01*
X0028441Y0025750D01*
X0028597Y0025722D01*
X0028752Y0025691D01*
X0028907Y0025655D01*
X0029060Y0025616D01*
X0029212Y0025573D01*
X0029363Y0025526D01*
X0029513Y0025475D01*
X0029662Y0025420D01*
X0029809Y0025362D01*
X0029955Y0025300D01*
X0030099Y0025235D01*
X0030241Y0025165D01*
X0030382Y0025093D01*
X0030521Y0025016D01*
X0030657Y0024937D01*
X0030792Y0024853D01*
X0030925Y0024767D01*
X0031055Y0024677D01*
X0031183Y0024584D01*
X0031309Y0024488D01*
X0031432Y0024388D01*
X0031553Y0024286D01*
X0031671Y0024181D01*
X0031786Y0024072D01*
X0031899Y0023961D01*
X0032009Y0023847D01*
X0032116Y0023730D01*
X0032220Y0023611D01*
X0032321Y0023489D01*
X0032418Y0023364D01*
X0032513Y0023237D01*
X0032604Y0023108D01*
X0032693Y0022977D01*
X0032777Y0022843D01*
X0032859Y0022707D01*
X0032937Y0022570D01*
X0033011Y0022430D01*
X0033082Y0022288D01*
X0033150Y0022145D01*
X0033214Y0022000D01*
X0033274Y0021854D01*
X0033330Y0021706D01*
X0033383Y0021557D01*
X0033432Y0021406D01*
X0033477Y0021254D01*
X0033518Y0021101D01*
X0033556Y0020948D01*
X0033589Y0020793D01*
X0033619Y0020637D01*
X0033645Y0020481D01*
X0033666Y0020324D01*
X0033684Y0020167D01*
X0033698Y0020009D01*
X0033708Y0019851D01*
X0033714Y0019693D01*
X0033716Y0019535D01*
X0033714Y0019377D01*
X0033708Y0019219D01*
X0033698Y0019061D01*
X0033684Y0018903D01*
X0033666Y0018746D01*
X0033645Y0018589D01*
X0033619Y0018433D01*
X0033589Y0018277D01*
X0033556Y0018122D01*
X0033518Y0017969D01*
X0033477Y0017816D01*
X0033432Y0017664D01*
X0033383Y0017513D01*
X0033330Y0017364D01*
X0033274Y0017216D01*
X0033214Y0017070D01*
X0033150Y0016925D01*
X0033082Y0016782D01*
X0033011Y0016640D01*
X0032937Y0016500D01*
X0032859Y0016363D01*
X0032777Y0016227D01*
X0032693Y0016093D01*
X0032604Y0015962D01*
X0032513Y0015833D01*
X0032418Y0015706D01*
X0032321Y0015581D01*
X0032220Y0015459D01*
X0032116Y0015340D01*
X0032009Y0015223D01*
X0031899Y0015109D01*
X0031786Y0014998D01*
X0031671Y0014889D01*
X0031553Y0014784D01*
X0031432Y0014682D01*
X0031309Y0014582D01*
X0031183Y0014486D01*
X0031055Y0014393D01*
X0030925Y0014303D01*
X0030792Y0014217D01*
X0030657Y0014133D01*
X0030521Y0014054D01*
X0030382Y0013977D01*
X0030241Y0013905D01*
X0030099Y0013835D01*
X0029955Y0013770D01*
X0029809Y0013708D01*
X0029662Y0013650D01*
X0029513Y0013595D01*
X0029363Y0013544D01*
X0029212Y0013497D01*
X0029060Y0013454D01*
X0028907Y0013415D01*
X0028752Y0013379D01*
X0028597Y0013348D01*
X0028441Y0013320D01*
X0028285Y0013296D01*
X0028128Y0013276D01*
X0027970Y0013260D01*
X0027813Y0013248D01*
X0027654Y0013240D01*
X0027496Y0013236D01*
X0027338Y0013236D01*
X0027180Y0013240D01*
X0027021Y0013248D01*
X0026864Y0013260D01*
X0026706Y0013276D01*
X0026549Y0013296D01*
X0026393Y0013320D01*
X0026237Y0013348D01*
X0026082Y0013379D01*
X0025927Y0013415D01*
X0025774Y0013454D01*
X0025622Y0013497D01*
X0025471Y0013544D01*
X0025321Y0013595D01*
X0025172Y0013650D01*
X0025025Y0013708D01*
X0024879Y0013770D01*
X0024735Y0013835D01*
X0024593Y0013905D01*
X0024452Y0013977D01*
X0024313Y0014054D01*
X0024177Y0014133D01*
X0024042Y0014217D01*
X0023909Y0014303D01*
X0023779Y0014393D01*
X0023651Y0014486D01*
X0023525Y0014582D01*
X0023402Y0014682D01*
X0023281Y0014784D01*
X0023163Y0014889D01*
X0023048Y0014998D01*
X0022935Y0015109D01*
X0022825Y0015223D01*
X0022718Y0015340D01*
X0022614Y0015459D01*
X0022513Y0015581D01*
X0022416Y0015706D01*
X0022321Y0015833D01*
X0022230Y0015962D01*
X0022141Y0016093D01*
X0022057Y0016227D01*
X0021975Y0016363D01*
X0021897Y0016500D01*
X0021823Y0016640D01*
X0021752Y0016782D01*
X0021684Y0016925D01*
X0021620Y0017070D01*
X0021560Y0017216D01*
X0021504Y0017364D01*
X0021451Y0017513D01*
X0021402Y0017664D01*
X0021357Y0017816D01*
X0021316Y0017969D01*
X0021278Y0018122D01*
X0021245Y0018277D01*
X0021215Y0018433D01*
X0021189Y0018589D01*
X0021168Y0018746D01*
X0021150Y0018903D01*
X0021136Y0019061D01*
X0021126Y0019219D01*
X0021120Y0019377D01*
X0021118Y0019535D01*
X0036866Y0078480D02*
X0036868Y0078638D01*
X0036874Y0078796D01*
X0036884Y0078954D01*
X0036898Y0079112D01*
X0036916Y0079269D01*
X0036937Y0079426D01*
X0036963Y0079582D01*
X0036993Y0079738D01*
X0037026Y0079893D01*
X0037064Y0080046D01*
X0037105Y0080199D01*
X0037150Y0080351D01*
X0037199Y0080502D01*
X0037252Y0080651D01*
X0037308Y0080799D01*
X0037368Y0080945D01*
X0037432Y0081090D01*
X0037500Y0081233D01*
X0037571Y0081375D01*
X0037645Y0081515D01*
X0037723Y0081652D01*
X0037805Y0081788D01*
X0037889Y0081922D01*
X0037978Y0082053D01*
X0038069Y0082182D01*
X0038164Y0082309D01*
X0038261Y0082434D01*
X0038362Y0082556D01*
X0038466Y0082675D01*
X0038573Y0082792D01*
X0038683Y0082906D01*
X0038796Y0083017D01*
X0038911Y0083126D01*
X0039029Y0083231D01*
X0039150Y0083333D01*
X0039273Y0083433D01*
X0039399Y0083529D01*
X0039527Y0083622D01*
X0039657Y0083712D01*
X0039790Y0083798D01*
X0039925Y0083882D01*
X0040061Y0083961D01*
X0040200Y0084038D01*
X0040341Y0084110D01*
X0040483Y0084180D01*
X0040627Y0084245D01*
X0040773Y0084307D01*
X0040920Y0084365D01*
X0041069Y0084420D01*
X0041219Y0084471D01*
X0041370Y0084518D01*
X0041522Y0084561D01*
X0041675Y0084600D01*
X0041830Y0084636D01*
X0041985Y0084667D01*
X0042141Y0084695D01*
X0042297Y0084719D01*
X0042454Y0084739D01*
X0042612Y0084755D01*
X0042769Y0084767D01*
X0042928Y0084775D01*
X0043086Y0084779D01*
X0043244Y0084779D01*
X0043402Y0084775D01*
X0043561Y0084767D01*
X0043718Y0084755D01*
X0043876Y0084739D01*
X0044033Y0084719D01*
X0044189Y0084695D01*
X0044345Y0084667D01*
X0044500Y0084636D01*
X0044655Y0084600D01*
X0044808Y0084561D01*
X0044960Y0084518D01*
X0045111Y0084471D01*
X0045261Y0084420D01*
X0045410Y0084365D01*
X0045557Y0084307D01*
X0045703Y0084245D01*
X0045847Y0084180D01*
X0045989Y0084110D01*
X0046130Y0084038D01*
X0046269Y0083961D01*
X0046405Y0083882D01*
X0046540Y0083798D01*
X0046673Y0083712D01*
X0046803Y0083622D01*
X0046931Y0083529D01*
X0047057Y0083433D01*
X0047180Y0083333D01*
X0047301Y0083231D01*
X0047419Y0083126D01*
X0047534Y0083017D01*
X0047647Y0082906D01*
X0047757Y0082792D01*
X0047864Y0082675D01*
X0047968Y0082556D01*
X0048069Y0082434D01*
X0048166Y0082309D01*
X0048261Y0082182D01*
X0048352Y0082053D01*
X0048441Y0081922D01*
X0048525Y0081788D01*
X0048607Y0081652D01*
X0048685Y0081515D01*
X0048759Y0081375D01*
X0048830Y0081233D01*
X0048898Y0081090D01*
X0048962Y0080945D01*
X0049022Y0080799D01*
X0049078Y0080651D01*
X0049131Y0080502D01*
X0049180Y0080351D01*
X0049225Y0080199D01*
X0049266Y0080046D01*
X0049304Y0079893D01*
X0049337Y0079738D01*
X0049367Y0079582D01*
X0049393Y0079426D01*
X0049414Y0079269D01*
X0049432Y0079112D01*
X0049446Y0078954D01*
X0049456Y0078796D01*
X0049462Y0078638D01*
X0049464Y0078480D01*
X0049462Y0078322D01*
X0049456Y0078164D01*
X0049446Y0078006D01*
X0049432Y0077848D01*
X0049414Y0077691D01*
X0049393Y0077534D01*
X0049367Y0077378D01*
X0049337Y0077222D01*
X0049304Y0077067D01*
X0049266Y0076914D01*
X0049225Y0076761D01*
X0049180Y0076609D01*
X0049131Y0076458D01*
X0049078Y0076309D01*
X0049022Y0076161D01*
X0048962Y0076015D01*
X0048898Y0075870D01*
X0048830Y0075727D01*
X0048759Y0075585D01*
X0048685Y0075445D01*
X0048607Y0075308D01*
X0048525Y0075172D01*
X0048441Y0075038D01*
X0048352Y0074907D01*
X0048261Y0074778D01*
X0048166Y0074651D01*
X0048069Y0074526D01*
X0047968Y0074404D01*
X0047864Y0074285D01*
X0047757Y0074168D01*
X0047647Y0074054D01*
X0047534Y0073943D01*
X0047419Y0073834D01*
X0047301Y0073729D01*
X0047180Y0073627D01*
X0047057Y0073527D01*
X0046931Y0073431D01*
X0046803Y0073338D01*
X0046673Y0073248D01*
X0046540Y0073162D01*
X0046405Y0073078D01*
X0046269Y0072999D01*
X0046130Y0072922D01*
X0045989Y0072850D01*
X0045847Y0072780D01*
X0045703Y0072715D01*
X0045557Y0072653D01*
X0045410Y0072595D01*
X0045261Y0072540D01*
X0045111Y0072489D01*
X0044960Y0072442D01*
X0044808Y0072399D01*
X0044655Y0072360D01*
X0044500Y0072324D01*
X0044345Y0072293D01*
X0044189Y0072265D01*
X0044033Y0072241D01*
X0043876Y0072221D01*
X0043718Y0072205D01*
X0043561Y0072193D01*
X0043402Y0072185D01*
X0043244Y0072181D01*
X0043086Y0072181D01*
X0042928Y0072185D01*
X0042769Y0072193D01*
X0042612Y0072205D01*
X0042454Y0072221D01*
X0042297Y0072241D01*
X0042141Y0072265D01*
X0041985Y0072293D01*
X0041830Y0072324D01*
X0041675Y0072360D01*
X0041522Y0072399D01*
X0041370Y0072442D01*
X0041219Y0072489D01*
X0041069Y0072540D01*
X0040920Y0072595D01*
X0040773Y0072653D01*
X0040627Y0072715D01*
X0040483Y0072780D01*
X0040341Y0072850D01*
X0040200Y0072922D01*
X0040061Y0072999D01*
X0039925Y0073078D01*
X0039790Y0073162D01*
X0039657Y0073248D01*
X0039527Y0073338D01*
X0039399Y0073431D01*
X0039273Y0073527D01*
X0039150Y0073627D01*
X0039029Y0073729D01*
X0038911Y0073834D01*
X0038796Y0073943D01*
X0038683Y0074054D01*
X0038573Y0074168D01*
X0038466Y0074285D01*
X0038362Y0074404D01*
X0038261Y0074526D01*
X0038164Y0074651D01*
X0038069Y0074778D01*
X0037978Y0074907D01*
X0037889Y0075038D01*
X0037805Y0075172D01*
X0037723Y0075308D01*
X0037645Y0075445D01*
X0037571Y0075585D01*
X0037500Y0075727D01*
X0037432Y0075870D01*
X0037368Y0076015D01*
X0037308Y0076161D01*
X0037252Y0076309D01*
X0037199Y0076458D01*
X0037150Y0076609D01*
X0037105Y0076761D01*
X0037064Y0076914D01*
X0037026Y0077067D01*
X0036993Y0077222D01*
X0036963Y0077378D01*
X0036937Y0077534D01*
X0036916Y0077691D01*
X0036898Y0077848D01*
X0036884Y0078006D01*
X0036874Y0078164D01*
X0036868Y0078322D01*
X0036866Y0078480D01*
X0131355Y0078480D02*
X0131357Y0078638D01*
X0131363Y0078796D01*
X0131373Y0078954D01*
X0131387Y0079112D01*
X0131405Y0079269D01*
X0131426Y0079426D01*
X0131452Y0079582D01*
X0131482Y0079738D01*
X0131515Y0079893D01*
X0131553Y0080046D01*
X0131594Y0080199D01*
X0131639Y0080351D01*
X0131688Y0080502D01*
X0131741Y0080651D01*
X0131797Y0080799D01*
X0131857Y0080945D01*
X0131921Y0081090D01*
X0131989Y0081233D01*
X0132060Y0081375D01*
X0132134Y0081515D01*
X0132212Y0081652D01*
X0132294Y0081788D01*
X0132378Y0081922D01*
X0132467Y0082053D01*
X0132558Y0082182D01*
X0132653Y0082309D01*
X0132750Y0082434D01*
X0132851Y0082556D01*
X0132955Y0082675D01*
X0133062Y0082792D01*
X0133172Y0082906D01*
X0133285Y0083017D01*
X0133400Y0083126D01*
X0133518Y0083231D01*
X0133639Y0083333D01*
X0133762Y0083433D01*
X0133888Y0083529D01*
X0134016Y0083622D01*
X0134146Y0083712D01*
X0134279Y0083798D01*
X0134414Y0083882D01*
X0134550Y0083961D01*
X0134689Y0084038D01*
X0134830Y0084110D01*
X0134972Y0084180D01*
X0135116Y0084245D01*
X0135262Y0084307D01*
X0135409Y0084365D01*
X0135558Y0084420D01*
X0135708Y0084471D01*
X0135859Y0084518D01*
X0136011Y0084561D01*
X0136164Y0084600D01*
X0136319Y0084636D01*
X0136474Y0084667D01*
X0136630Y0084695D01*
X0136786Y0084719D01*
X0136943Y0084739D01*
X0137101Y0084755D01*
X0137258Y0084767D01*
X0137417Y0084775D01*
X0137575Y0084779D01*
X0137733Y0084779D01*
X0137891Y0084775D01*
X0138050Y0084767D01*
X0138207Y0084755D01*
X0138365Y0084739D01*
X0138522Y0084719D01*
X0138678Y0084695D01*
X0138834Y0084667D01*
X0138989Y0084636D01*
X0139144Y0084600D01*
X0139297Y0084561D01*
X0139449Y0084518D01*
X0139600Y0084471D01*
X0139750Y0084420D01*
X0139899Y0084365D01*
X0140046Y0084307D01*
X0140192Y0084245D01*
X0140336Y0084180D01*
X0140478Y0084110D01*
X0140619Y0084038D01*
X0140758Y0083961D01*
X0140894Y0083882D01*
X0141029Y0083798D01*
X0141162Y0083712D01*
X0141292Y0083622D01*
X0141420Y0083529D01*
X0141546Y0083433D01*
X0141669Y0083333D01*
X0141790Y0083231D01*
X0141908Y0083126D01*
X0142023Y0083017D01*
X0142136Y0082906D01*
X0142246Y0082792D01*
X0142353Y0082675D01*
X0142457Y0082556D01*
X0142558Y0082434D01*
X0142655Y0082309D01*
X0142750Y0082182D01*
X0142841Y0082053D01*
X0142930Y0081922D01*
X0143014Y0081788D01*
X0143096Y0081652D01*
X0143174Y0081515D01*
X0143248Y0081375D01*
X0143319Y0081233D01*
X0143387Y0081090D01*
X0143451Y0080945D01*
X0143511Y0080799D01*
X0143567Y0080651D01*
X0143620Y0080502D01*
X0143669Y0080351D01*
X0143714Y0080199D01*
X0143755Y0080046D01*
X0143793Y0079893D01*
X0143826Y0079738D01*
X0143856Y0079582D01*
X0143882Y0079426D01*
X0143903Y0079269D01*
X0143921Y0079112D01*
X0143935Y0078954D01*
X0143945Y0078796D01*
X0143951Y0078638D01*
X0143953Y0078480D01*
X0143951Y0078322D01*
X0143945Y0078164D01*
X0143935Y0078006D01*
X0143921Y0077848D01*
X0143903Y0077691D01*
X0143882Y0077534D01*
X0143856Y0077378D01*
X0143826Y0077222D01*
X0143793Y0077067D01*
X0143755Y0076914D01*
X0143714Y0076761D01*
X0143669Y0076609D01*
X0143620Y0076458D01*
X0143567Y0076309D01*
X0143511Y0076161D01*
X0143451Y0076015D01*
X0143387Y0075870D01*
X0143319Y0075727D01*
X0143248Y0075585D01*
X0143174Y0075445D01*
X0143096Y0075308D01*
X0143014Y0075172D01*
X0142930Y0075038D01*
X0142841Y0074907D01*
X0142750Y0074778D01*
X0142655Y0074651D01*
X0142558Y0074526D01*
X0142457Y0074404D01*
X0142353Y0074285D01*
X0142246Y0074168D01*
X0142136Y0074054D01*
X0142023Y0073943D01*
X0141908Y0073834D01*
X0141790Y0073729D01*
X0141669Y0073627D01*
X0141546Y0073527D01*
X0141420Y0073431D01*
X0141292Y0073338D01*
X0141162Y0073248D01*
X0141029Y0073162D01*
X0140894Y0073078D01*
X0140758Y0072999D01*
X0140619Y0072922D01*
X0140478Y0072850D01*
X0140336Y0072780D01*
X0140192Y0072715D01*
X0140046Y0072653D01*
X0139899Y0072595D01*
X0139750Y0072540D01*
X0139600Y0072489D01*
X0139449Y0072442D01*
X0139297Y0072399D01*
X0139144Y0072360D01*
X0138989Y0072324D01*
X0138834Y0072293D01*
X0138678Y0072265D01*
X0138522Y0072241D01*
X0138365Y0072221D01*
X0138207Y0072205D01*
X0138050Y0072193D01*
X0137891Y0072185D01*
X0137733Y0072181D01*
X0137575Y0072181D01*
X0137417Y0072185D01*
X0137258Y0072193D01*
X0137101Y0072205D01*
X0136943Y0072221D01*
X0136786Y0072241D01*
X0136630Y0072265D01*
X0136474Y0072293D01*
X0136319Y0072324D01*
X0136164Y0072360D01*
X0136011Y0072399D01*
X0135859Y0072442D01*
X0135708Y0072489D01*
X0135558Y0072540D01*
X0135409Y0072595D01*
X0135262Y0072653D01*
X0135116Y0072715D01*
X0134972Y0072780D01*
X0134830Y0072850D01*
X0134689Y0072922D01*
X0134550Y0072999D01*
X0134414Y0073078D01*
X0134279Y0073162D01*
X0134146Y0073248D01*
X0134016Y0073338D01*
X0133888Y0073431D01*
X0133762Y0073527D01*
X0133639Y0073627D01*
X0133518Y0073729D01*
X0133400Y0073834D01*
X0133285Y0073943D01*
X0133172Y0074054D01*
X0133062Y0074168D01*
X0132955Y0074285D01*
X0132851Y0074404D01*
X0132750Y0074526D01*
X0132653Y0074651D01*
X0132558Y0074778D01*
X0132467Y0074907D01*
X0132378Y0075038D01*
X0132294Y0075172D01*
X0132212Y0075308D01*
X0132134Y0075445D01*
X0132060Y0075585D01*
X0131989Y0075727D01*
X0131921Y0075870D01*
X0131857Y0076015D01*
X0131797Y0076161D01*
X0131741Y0076309D01*
X0131688Y0076458D01*
X0131639Y0076609D01*
X0131594Y0076761D01*
X0131553Y0076914D01*
X0131515Y0077067D01*
X0131482Y0077222D01*
X0131452Y0077378D01*
X0131426Y0077534D01*
X0131405Y0077691D01*
X0131387Y0077848D01*
X0131373Y0078006D01*
X0131363Y0078164D01*
X0131357Y0078322D01*
X0131355Y0078480D01*
X0131355Y0172969D02*
X0131357Y0173127D01*
X0131363Y0173285D01*
X0131373Y0173443D01*
X0131387Y0173601D01*
X0131405Y0173758D01*
X0131426Y0173915D01*
X0131452Y0174071D01*
X0131482Y0174227D01*
X0131515Y0174382D01*
X0131553Y0174535D01*
X0131594Y0174688D01*
X0131639Y0174840D01*
X0131688Y0174991D01*
X0131741Y0175140D01*
X0131797Y0175288D01*
X0131857Y0175434D01*
X0131921Y0175579D01*
X0131989Y0175722D01*
X0132060Y0175864D01*
X0132134Y0176004D01*
X0132212Y0176141D01*
X0132294Y0176277D01*
X0132378Y0176411D01*
X0132467Y0176542D01*
X0132558Y0176671D01*
X0132653Y0176798D01*
X0132750Y0176923D01*
X0132851Y0177045D01*
X0132955Y0177164D01*
X0133062Y0177281D01*
X0133172Y0177395D01*
X0133285Y0177506D01*
X0133400Y0177615D01*
X0133518Y0177720D01*
X0133639Y0177822D01*
X0133762Y0177922D01*
X0133888Y0178018D01*
X0134016Y0178111D01*
X0134146Y0178201D01*
X0134279Y0178287D01*
X0134414Y0178371D01*
X0134550Y0178450D01*
X0134689Y0178527D01*
X0134830Y0178599D01*
X0134972Y0178669D01*
X0135116Y0178734D01*
X0135262Y0178796D01*
X0135409Y0178854D01*
X0135558Y0178909D01*
X0135708Y0178960D01*
X0135859Y0179007D01*
X0136011Y0179050D01*
X0136164Y0179089D01*
X0136319Y0179125D01*
X0136474Y0179156D01*
X0136630Y0179184D01*
X0136786Y0179208D01*
X0136943Y0179228D01*
X0137101Y0179244D01*
X0137258Y0179256D01*
X0137417Y0179264D01*
X0137575Y0179268D01*
X0137733Y0179268D01*
X0137891Y0179264D01*
X0138050Y0179256D01*
X0138207Y0179244D01*
X0138365Y0179228D01*
X0138522Y0179208D01*
X0138678Y0179184D01*
X0138834Y0179156D01*
X0138989Y0179125D01*
X0139144Y0179089D01*
X0139297Y0179050D01*
X0139449Y0179007D01*
X0139600Y0178960D01*
X0139750Y0178909D01*
X0139899Y0178854D01*
X0140046Y0178796D01*
X0140192Y0178734D01*
X0140336Y0178669D01*
X0140478Y0178599D01*
X0140619Y0178527D01*
X0140758Y0178450D01*
X0140894Y0178371D01*
X0141029Y0178287D01*
X0141162Y0178201D01*
X0141292Y0178111D01*
X0141420Y0178018D01*
X0141546Y0177922D01*
X0141669Y0177822D01*
X0141790Y0177720D01*
X0141908Y0177615D01*
X0142023Y0177506D01*
X0142136Y0177395D01*
X0142246Y0177281D01*
X0142353Y0177164D01*
X0142457Y0177045D01*
X0142558Y0176923D01*
X0142655Y0176798D01*
X0142750Y0176671D01*
X0142841Y0176542D01*
X0142930Y0176411D01*
X0143014Y0176277D01*
X0143096Y0176141D01*
X0143174Y0176004D01*
X0143248Y0175864D01*
X0143319Y0175722D01*
X0143387Y0175579D01*
X0143451Y0175434D01*
X0143511Y0175288D01*
X0143567Y0175140D01*
X0143620Y0174991D01*
X0143669Y0174840D01*
X0143714Y0174688D01*
X0143755Y0174535D01*
X0143793Y0174382D01*
X0143826Y0174227D01*
X0143856Y0174071D01*
X0143882Y0173915D01*
X0143903Y0173758D01*
X0143921Y0173601D01*
X0143935Y0173443D01*
X0143945Y0173285D01*
X0143951Y0173127D01*
X0143953Y0172969D01*
X0143951Y0172811D01*
X0143945Y0172653D01*
X0143935Y0172495D01*
X0143921Y0172337D01*
X0143903Y0172180D01*
X0143882Y0172023D01*
X0143856Y0171867D01*
X0143826Y0171711D01*
X0143793Y0171556D01*
X0143755Y0171403D01*
X0143714Y0171250D01*
X0143669Y0171098D01*
X0143620Y0170947D01*
X0143567Y0170798D01*
X0143511Y0170650D01*
X0143451Y0170504D01*
X0143387Y0170359D01*
X0143319Y0170216D01*
X0143248Y0170074D01*
X0143174Y0169934D01*
X0143096Y0169797D01*
X0143014Y0169661D01*
X0142930Y0169527D01*
X0142841Y0169396D01*
X0142750Y0169267D01*
X0142655Y0169140D01*
X0142558Y0169015D01*
X0142457Y0168893D01*
X0142353Y0168774D01*
X0142246Y0168657D01*
X0142136Y0168543D01*
X0142023Y0168432D01*
X0141908Y0168323D01*
X0141790Y0168218D01*
X0141669Y0168116D01*
X0141546Y0168016D01*
X0141420Y0167920D01*
X0141292Y0167827D01*
X0141162Y0167737D01*
X0141029Y0167651D01*
X0140894Y0167567D01*
X0140758Y0167488D01*
X0140619Y0167411D01*
X0140478Y0167339D01*
X0140336Y0167269D01*
X0140192Y0167204D01*
X0140046Y0167142D01*
X0139899Y0167084D01*
X0139750Y0167029D01*
X0139600Y0166978D01*
X0139449Y0166931D01*
X0139297Y0166888D01*
X0139144Y0166849D01*
X0138989Y0166813D01*
X0138834Y0166782D01*
X0138678Y0166754D01*
X0138522Y0166730D01*
X0138365Y0166710D01*
X0138207Y0166694D01*
X0138050Y0166682D01*
X0137891Y0166674D01*
X0137733Y0166670D01*
X0137575Y0166670D01*
X0137417Y0166674D01*
X0137258Y0166682D01*
X0137101Y0166694D01*
X0136943Y0166710D01*
X0136786Y0166730D01*
X0136630Y0166754D01*
X0136474Y0166782D01*
X0136319Y0166813D01*
X0136164Y0166849D01*
X0136011Y0166888D01*
X0135859Y0166931D01*
X0135708Y0166978D01*
X0135558Y0167029D01*
X0135409Y0167084D01*
X0135262Y0167142D01*
X0135116Y0167204D01*
X0134972Y0167269D01*
X0134830Y0167339D01*
X0134689Y0167411D01*
X0134550Y0167488D01*
X0134414Y0167567D01*
X0134279Y0167651D01*
X0134146Y0167737D01*
X0134016Y0167827D01*
X0133888Y0167920D01*
X0133762Y0168016D01*
X0133639Y0168116D01*
X0133518Y0168218D01*
X0133400Y0168323D01*
X0133285Y0168432D01*
X0133172Y0168543D01*
X0133062Y0168657D01*
X0132955Y0168774D01*
X0132851Y0168893D01*
X0132750Y0169015D01*
X0132653Y0169140D01*
X0132558Y0169267D01*
X0132467Y0169396D01*
X0132378Y0169527D01*
X0132294Y0169661D01*
X0132212Y0169797D01*
X0132134Y0169934D01*
X0132060Y0170074D01*
X0131989Y0170216D01*
X0131921Y0170359D01*
X0131857Y0170504D01*
X0131797Y0170650D01*
X0131741Y0170798D01*
X0131688Y0170947D01*
X0131639Y0171098D01*
X0131594Y0171250D01*
X0131553Y0171403D01*
X0131515Y0171556D01*
X0131482Y0171711D01*
X0131452Y0171867D01*
X0131426Y0172023D01*
X0131405Y0172180D01*
X0131387Y0172337D01*
X0131373Y0172495D01*
X0131363Y0172653D01*
X0131357Y0172811D01*
X0131355Y0172969D01*
X0036866Y0172969D02*
X0036868Y0173127D01*
X0036874Y0173285D01*
X0036884Y0173443D01*
X0036898Y0173601D01*
X0036916Y0173758D01*
X0036937Y0173915D01*
X0036963Y0174071D01*
X0036993Y0174227D01*
X0037026Y0174382D01*
X0037064Y0174535D01*
X0037105Y0174688D01*
X0037150Y0174840D01*
X0037199Y0174991D01*
X0037252Y0175140D01*
X0037308Y0175288D01*
X0037368Y0175434D01*
X0037432Y0175579D01*
X0037500Y0175722D01*
X0037571Y0175864D01*
X0037645Y0176004D01*
X0037723Y0176141D01*
X0037805Y0176277D01*
X0037889Y0176411D01*
X0037978Y0176542D01*
X0038069Y0176671D01*
X0038164Y0176798D01*
X0038261Y0176923D01*
X0038362Y0177045D01*
X0038466Y0177164D01*
X0038573Y0177281D01*
X0038683Y0177395D01*
X0038796Y0177506D01*
X0038911Y0177615D01*
X0039029Y0177720D01*
X0039150Y0177822D01*
X0039273Y0177922D01*
X0039399Y0178018D01*
X0039527Y0178111D01*
X0039657Y0178201D01*
X0039790Y0178287D01*
X0039925Y0178371D01*
X0040061Y0178450D01*
X0040200Y0178527D01*
X0040341Y0178599D01*
X0040483Y0178669D01*
X0040627Y0178734D01*
X0040773Y0178796D01*
X0040920Y0178854D01*
X0041069Y0178909D01*
X0041219Y0178960D01*
X0041370Y0179007D01*
X0041522Y0179050D01*
X0041675Y0179089D01*
X0041830Y0179125D01*
X0041985Y0179156D01*
X0042141Y0179184D01*
X0042297Y0179208D01*
X0042454Y0179228D01*
X0042612Y0179244D01*
X0042769Y0179256D01*
X0042928Y0179264D01*
X0043086Y0179268D01*
X0043244Y0179268D01*
X0043402Y0179264D01*
X0043561Y0179256D01*
X0043718Y0179244D01*
X0043876Y0179228D01*
X0044033Y0179208D01*
X0044189Y0179184D01*
X0044345Y0179156D01*
X0044500Y0179125D01*
X0044655Y0179089D01*
X0044808Y0179050D01*
X0044960Y0179007D01*
X0045111Y0178960D01*
X0045261Y0178909D01*
X0045410Y0178854D01*
X0045557Y0178796D01*
X0045703Y0178734D01*
X0045847Y0178669D01*
X0045989Y0178599D01*
X0046130Y0178527D01*
X0046269Y0178450D01*
X0046405Y0178371D01*
X0046540Y0178287D01*
X0046673Y0178201D01*
X0046803Y0178111D01*
X0046931Y0178018D01*
X0047057Y0177922D01*
X0047180Y0177822D01*
X0047301Y0177720D01*
X0047419Y0177615D01*
X0047534Y0177506D01*
X0047647Y0177395D01*
X0047757Y0177281D01*
X0047864Y0177164D01*
X0047968Y0177045D01*
X0048069Y0176923D01*
X0048166Y0176798D01*
X0048261Y0176671D01*
X0048352Y0176542D01*
X0048441Y0176411D01*
X0048525Y0176277D01*
X0048607Y0176141D01*
X0048685Y0176004D01*
X0048759Y0175864D01*
X0048830Y0175722D01*
X0048898Y0175579D01*
X0048962Y0175434D01*
X0049022Y0175288D01*
X0049078Y0175140D01*
X0049131Y0174991D01*
X0049180Y0174840D01*
X0049225Y0174688D01*
X0049266Y0174535D01*
X0049304Y0174382D01*
X0049337Y0174227D01*
X0049367Y0174071D01*
X0049393Y0173915D01*
X0049414Y0173758D01*
X0049432Y0173601D01*
X0049446Y0173443D01*
X0049456Y0173285D01*
X0049462Y0173127D01*
X0049464Y0172969D01*
X0049462Y0172811D01*
X0049456Y0172653D01*
X0049446Y0172495D01*
X0049432Y0172337D01*
X0049414Y0172180D01*
X0049393Y0172023D01*
X0049367Y0171867D01*
X0049337Y0171711D01*
X0049304Y0171556D01*
X0049266Y0171403D01*
X0049225Y0171250D01*
X0049180Y0171098D01*
X0049131Y0170947D01*
X0049078Y0170798D01*
X0049022Y0170650D01*
X0048962Y0170504D01*
X0048898Y0170359D01*
X0048830Y0170216D01*
X0048759Y0170074D01*
X0048685Y0169934D01*
X0048607Y0169797D01*
X0048525Y0169661D01*
X0048441Y0169527D01*
X0048352Y0169396D01*
X0048261Y0169267D01*
X0048166Y0169140D01*
X0048069Y0169015D01*
X0047968Y0168893D01*
X0047864Y0168774D01*
X0047757Y0168657D01*
X0047647Y0168543D01*
X0047534Y0168432D01*
X0047419Y0168323D01*
X0047301Y0168218D01*
X0047180Y0168116D01*
X0047057Y0168016D01*
X0046931Y0167920D01*
X0046803Y0167827D01*
X0046673Y0167737D01*
X0046540Y0167651D01*
X0046405Y0167567D01*
X0046269Y0167488D01*
X0046130Y0167411D01*
X0045989Y0167339D01*
X0045847Y0167269D01*
X0045703Y0167204D01*
X0045557Y0167142D01*
X0045410Y0167084D01*
X0045261Y0167029D01*
X0045111Y0166978D01*
X0044960Y0166931D01*
X0044808Y0166888D01*
X0044655Y0166849D01*
X0044500Y0166813D01*
X0044345Y0166782D01*
X0044189Y0166754D01*
X0044033Y0166730D01*
X0043876Y0166710D01*
X0043718Y0166694D01*
X0043561Y0166682D01*
X0043402Y0166674D01*
X0043244Y0166670D01*
X0043086Y0166670D01*
X0042928Y0166674D01*
X0042769Y0166682D01*
X0042612Y0166694D01*
X0042454Y0166710D01*
X0042297Y0166730D01*
X0042141Y0166754D01*
X0041985Y0166782D01*
X0041830Y0166813D01*
X0041675Y0166849D01*
X0041522Y0166888D01*
X0041370Y0166931D01*
X0041219Y0166978D01*
X0041069Y0167029D01*
X0040920Y0167084D01*
X0040773Y0167142D01*
X0040627Y0167204D01*
X0040483Y0167269D01*
X0040341Y0167339D01*
X0040200Y0167411D01*
X0040061Y0167488D01*
X0039925Y0167567D01*
X0039790Y0167651D01*
X0039657Y0167737D01*
X0039527Y0167827D01*
X0039399Y0167920D01*
X0039273Y0168016D01*
X0039150Y0168116D01*
X0039029Y0168218D01*
X0038911Y0168323D01*
X0038796Y0168432D01*
X0038683Y0168543D01*
X0038573Y0168657D01*
X0038466Y0168774D01*
X0038362Y0168893D01*
X0038261Y0169015D01*
X0038164Y0169140D01*
X0038069Y0169267D01*
X0037978Y0169396D01*
X0037889Y0169527D01*
X0037805Y0169661D01*
X0037723Y0169797D01*
X0037645Y0169934D01*
X0037571Y0170074D01*
X0037500Y0170216D01*
X0037432Y0170359D01*
X0037368Y0170504D01*
X0037308Y0170650D01*
X0037252Y0170798D01*
X0037199Y0170947D01*
X0037150Y0171098D01*
X0037105Y0171250D01*
X0037064Y0171403D01*
X0037026Y0171556D01*
X0036993Y0171711D01*
X0036963Y0171867D01*
X0036937Y0172023D01*
X0036916Y0172180D01*
X0036898Y0172337D01*
X0036884Y0172495D01*
X0036874Y0172653D01*
X0036868Y0172811D01*
X0036866Y0172969D01*
X0021118Y0192764D02*
X0021120Y0192922D01*
X0021126Y0193080D01*
X0021136Y0193238D01*
X0021150Y0193396D01*
X0021168Y0193553D01*
X0021189Y0193710D01*
X0021215Y0193866D01*
X0021245Y0194022D01*
X0021278Y0194177D01*
X0021316Y0194330D01*
X0021357Y0194483D01*
X0021402Y0194635D01*
X0021451Y0194786D01*
X0021504Y0194935D01*
X0021560Y0195083D01*
X0021620Y0195229D01*
X0021684Y0195374D01*
X0021752Y0195517D01*
X0021823Y0195659D01*
X0021897Y0195799D01*
X0021975Y0195936D01*
X0022057Y0196072D01*
X0022141Y0196206D01*
X0022230Y0196337D01*
X0022321Y0196466D01*
X0022416Y0196593D01*
X0022513Y0196718D01*
X0022614Y0196840D01*
X0022718Y0196959D01*
X0022825Y0197076D01*
X0022935Y0197190D01*
X0023048Y0197301D01*
X0023163Y0197410D01*
X0023281Y0197515D01*
X0023402Y0197617D01*
X0023525Y0197717D01*
X0023651Y0197813D01*
X0023779Y0197906D01*
X0023909Y0197996D01*
X0024042Y0198082D01*
X0024177Y0198166D01*
X0024313Y0198245D01*
X0024452Y0198322D01*
X0024593Y0198394D01*
X0024735Y0198464D01*
X0024879Y0198529D01*
X0025025Y0198591D01*
X0025172Y0198649D01*
X0025321Y0198704D01*
X0025471Y0198755D01*
X0025622Y0198802D01*
X0025774Y0198845D01*
X0025927Y0198884D01*
X0026082Y0198920D01*
X0026237Y0198951D01*
X0026393Y0198979D01*
X0026549Y0199003D01*
X0026706Y0199023D01*
X0026864Y0199039D01*
X0027021Y0199051D01*
X0027180Y0199059D01*
X0027338Y0199063D01*
X0027496Y0199063D01*
X0027654Y0199059D01*
X0027813Y0199051D01*
X0027970Y0199039D01*
X0028128Y0199023D01*
X0028285Y0199003D01*
X0028441Y0198979D01*
X0028597Y0198951D01*
X0028752Y0198920D01*
X0028907Y0198884D01*
X0029060Y0198845D01*
X0029212Y0198802D01*
X0029363Y0198755D01*
X0029513Y0198704D01*
X0029662Y0198649D01*
X0029809Y0198591D01*
X0029955Y0198529D01*
X0030099Y0198464D01*
X0030241Y0198394D01*
X0030382Y0198322D01*
X0030521Y0198245D01*
X0030657Y0198166D01*
X0030792Y0198082D01*
X0030925Y0197996D01*
X0031055Y0197906D01*
X0031183Y0197813D01*
X0031309Y0197717D01*
X0031432Y0197617D01*
X0031553Y0197515D01*
X0031671Y0197410D01*
X0031786Y0197301D01*
X0031899Y0197190D01*
X0032009Y0197076D01*
X0032116Y0196959D01*
X0032220Y0196840D01*
X0032321Y0196718D01*
X0032418Y0196593D01*
X0032513Y0196466D01*
X0032604Y0196337D01*
X0032693Y0196206D01*
X0032777Y0196072D01*
X0032859Y0195936D01*
X0032937Y0195799D01*
X0033011Y0195659D01*
X0033082Y0195517D01*
X0033150Y0195374D01*
X0033214Y0195229D01*
X0033274Y0195083D01*
X0033330Y0194935D01*
X0033383Y0194786D01*
X0033432Y0194635D01*
X0033477Y0194483D01*
X0033518Y0194330D01*
X0033556Y0194177D01*
X0033589Y0194022D01*
X0033619Y0193866D01*
X0033645Y0193710D01*
X0033666Y0193553D01*
X0033684Y0193396D01*
X0033698Y0193238D01*
X0033708Y0193080D01*
X0033714Y0192922D01*
X0033716Y0192764D01*
X0033714Y0192606D01*
X0033708Y0192448D01*
X0033698Y0192290D01*
X0033684Y0192132D01*
X0033666Y0191975D01*
X0033645Y0191818D01*
X0033619Y0191662D01*
X0033589Y0191506D01*
X0033556Y0191351D01*
X0033518Y0191198D01*
X0033477Y0191045D01*
X0033432Y0190893D01*
X0033383Y0190742D01*
X0033330Y0190593D01*
X0033274Y0190445D01*
X0033214Y0190299D01*
X0033150Y0190154D01*
X0033082Y0190011D01*
X0033011Y0189869D01*
X0032937Y0189729D01*
X0032859Y0189592D01*
X0032777Y0189456D01*
X0032693Y0189322D01*
X0032604Y0189191D01*
X0032513Y0189062D01*
X0032418Y0188935D01*
X0032321Y0188810D01*
X0032220Y0188688D01*
X0032116Y0188569D01*
X0032009Y0188452D01*
X0031899Y0188338D01*
X0031786Y0188227D01*
X0031671Y0188118D01*
X0031553Y0188013D01*
X0031432Y0187911D01*
X0031309Y0187811D01*
X0031183Y0187715D01*
X0031055Y0187622D01*
X0030925Y0187532D01*
X0030792Y0187446D01*
X0030657Y0187362D01*
X0030521Y0187283D01*
X0030382Y0187206D01*
X0030241Y0187134D01*
X0030099Y0187064D01*
X0029955Y0186999D01*
X0029809Y0186937D01*
X0029662Y0186879D01*
X0029513Y0186824D01*
X0029363Y0186773D01*
X0029212Y0186726D01*
X0029060Y0186683D01*
X0028907Y0186644D01*
X0028752Y0186608D01*
X0028597Y0186577D01*
X0028441Y0186549D01*
X0028285Y0186525D01*
X0028128Y0186505D01*
X0027970Y0186489D01*
X0027813Y0186477D01*
X0027654Y0186469D01*
X0027496Y0186465D01*
X0027338Y0186465D01*
X0027180Y0186469D01*
X0027021Y0186477D01*
X0026864Y0186489D01*
X0026706Y0186505D01*
X0026549Y0186525D01*
X0026393Y0186549D01*
X0026237Y0186577D01*
X0026082Y0186608D01*
X0025927Y0186644D01*
X0025774Y0186683D01*
X0025622Y0186726D01*
X0025471Y0186773D01*
X0025321Y0186824D01*
X0025172Y0186879D01*
X0025025Y0186937D01*
X0024879Y0186999D01*
X0024735Y0187064D01*
X0024593Y0187134D01*
X0024452Y0187206D01*
X0024313Y0187283D01*
X0024177Y0187362D01*
X0024042Y0187446D01*
X0023909Y0187532D01*
X0023779Y0187622D01*
X0023651Y0187715D01*
X0023525Y0187811D01*
X0023402Y0187911D01*
X0023281Y0188013D01*
X0023163Y0188118D01*
X0023048Y0188227D01*
X0022935Y0188338D01*
X0022825Y0188452D01*
X0022718Y0188569D01*
X0022614Y0188688D01*
X0022513Y0188810D01*
X0022416Y0188935D01*
X0022321Y0189062D01*
X0022230Y0189191D01*
X0022141Y0189322D01*
X0022057Y0189456D01*
X0021975Y0189592D01*
X0021897Y0189729D01*
X0021823Y0189869D01*
X0021752Y0190011D01*
X0021684Y0190154D01*
X0021620Y0190299D01*
X0021560Y0190445D01*
X0021504Y0190593D01*
X0021451Y0190742D01*
X0021402Y0190893D01*
X0021357Y0191045D01*
X0021316Y0191198D01*
X0021278Y0191351D01*
X0021245Y0191506D01*
X0021215Y0191662D01*
X0021189Y0191818D01*
X0021168Y0191975D01*
X0021150Y0192132D01*
X0021136Y0192290D01*
X0021126Y0192448D01*
X0021120Y0192606D01*
X0021118Y0192764D01*
D11*
X0166683Y0116836D02*
X0167321Y0115560D01*
X0168597Y0114284D01*
X0168597Y0116198D01*
X0169235Y0116836D01*
X0169873Y0116836D01*
X0170511Y0116198D01*
X0170511Y0114922D01*
X0169873Y0114284D01*
X0168597Y0114284D01*
X0168597Y0112486D02*
X0167321Y0112486D01*
X0166683Y0111848D01*
X0166683Y0109934D01*
X0170511Y0109934D01*
X0169235Y0109934D02*
X0169235Y0111848D01*
X0168597Y0112486D01*
X0169235Y0111210D02*
X0170511Y0112486D01*
X0175896Y0113497D02*
X0175896Y0116049D01*
X0176534Y0116049D01*
X0179085Y0113497D01*
X0179723Y0113497D01*
X0179723Y0111699D02*
X0178447Y0110423D01*
X0178447Y0111061D02*
X0178447Y0109147D01*
X0179723Y0109147D02*
X0175896Y0109147D01*
X0175896Y0111061D01*
X0176534Y0111699D01*
X0177809Y0111699D01*
X0178447Y0111061D01*
X0199365Y0093467D02*
X0200641Y0092191D01*
X0201917Y0093467D01*
X0201917Y0089639D01*
X0203715Y0090277D02*
X0204353Y0089639D01*
X0205629Y0089639D01*
X0206267Y0090277D01*
X0208065Y0090915D02*
X0209979Y0090915D01*
X0210617Y0091553D01*
X0210617Y0092829D01*
X0209979Y0093467D01*
X0208065Y0093467D01*
X0208065Y0089639D01*
X0203715Y0090277D02*
X0203715Y0092829D01*
X0204353Y0093467D01*
X0205629Y0093467D01*
X0206267Y0092829D01*
X0199365Y0093467D02*
X0199365Y0089639D01*
X0212416Y0089639D02*
X0214967Y0092191D01*
X0214967Y0092829D01*
X0214329Y0093467D01*
X0213054Y0093467D01*
X0212416Y0092829D01*
X0216766Y0092829D02*
X0217404Y0093467D01*
X0218680Y0093467D01*
X0219318Y0092829D01*
X0219318Y0092191D01*
X0216766Y0089639D01*
X0219318Y0089639D01*
X0221116Y0089639D02*
X0223668Y0092191D01*
X0223668Y0092829D01*
X0223030Y0093467D01*
X0221754Y0093467D01*
X0221116Y0092829D01*
X0225466Y0092191D02*
X0226742Y0093467D01*
X0226742Y0089639D01*
X0225466Y0089639D02*
X0228018Y0089639D01*
X0229816Y0089639D02*
X0229816Y0092191D01*
X0231092Y0093467D01*
X0232368Y0092191D01*
X0232368Y0089639D01*
X0232368Y0091553D02*
X0229816Y0091553D01*
X0223668Y0089639D02*
X0221116Y0089639D01*
X0214967Y0089639D02*
X0212416Y0089639D01*
X0185616Y0068399D02*
X0183064Y0068399D01*
X0184340Y0068399D02*
X0184340Y0072226D01*
X0183064Y0070951D01*
X0181266Y0071589D02*
X0181266Y0070313D01*
X0180628Y0069675D01*
X0178714Y0069675D01*
X0179990Y0069675D02*
X0181266Y0068399D01*
X0178714Y0068399D02*
X0178714Y0072226D01*
X0180628Y0072226D01*
X0181266Y0071589D01*
X0180447Y0077525D02*
X0180447Y0078801D01*
X0180447Y0078163D02*
X0184274Y0078163D01*
X0184274Y0077525D02*
X0184274Y0078801D01*
X0183636Y0080425D02*
X0181085Y0080425D01*
X0180447Y0081063D01*
X0180447Y0082339D01*
X0181085Y0082977D01*
X0181723Y0084775D02*
X0180447Y0086051D01*
X0184274Y0086051D01*
X0184274Y0084775D02*
X0184274Y0087327D01*
X0183636Y0082977D02*
X0184274Y0082339D01*
X0184274Y0081063D01*
X0183636Y0080425D01*
X0179763Y0056148D02*
X0179763Y0053596D01*
X0179763Y0054872D02*
X0175935Y0054872D01*
X0177211Y0053596D01*
X0176573Y0051798D02*
X0175935Y0051160D01*
X0175935Y0049246D01*
X0179763Y0049246D01*
X0179763Y0051160D01*
X0179125Y0051798D01*
X0176573Y0051798D01*
X0175935Y0047447D02*
X0175935Y0044896D01*
X0179763Y0044896D01*
X0179763Y0047447D01*
X0177849Y0046171D02*
X0177849Y0044896D01*
X0179763Y0043097D02*
X0179763Y0040545D01*
X0175935Y0040545D01*
X0195935Y0040333D02*
X0199763Y0040333D01*
X0199763Y0042885D01*
X0199763Y0044683D02*
X0199763Y0047235D01*
X0199763Y0049033D02*
X0199763Y0050947D01*
X0199125Y0051585D01*
X0196573Y0051585D01*
X0195935Y0050947D01*
X0195935Y0049033D01*
X0199763Y0049033D01*
X0197849Y0045959D02*
X0197849Y0044683D01*
X0195935Y0044683D02*
X0199763Y0044683D01*
X0195935Y0044683D02*
X0195935Y0047235D01*
X0196573Y0053383D02*
X0195935Y0054021D01*
X0195935Y0055297D01*
X0196573Y0055935D01*
X0197211Y0055935D01*
X0199763Y0053383D01*
X0199763Y0055935D01*
X0215935Y0055297D02*
X0216573Y0055935D01*
X0217211Y0055935D01*
X0217849Y0055297D01*
X0218487Y0055935D01*
X0219125Y0055935D01*
X0219763Y0055297D01*
X0219763Y0054021D01*
X0219125Y0053383D01*
X0219125Y0051585D02*
X0216573Y0051585D01*
X0215935Y0050947D01*
X0215935Y0049033D01*
X0219763Y0049033D01*
X0219763Y0050947D01*
X0219125Y0051585D01*
X0216573Y0053383D02*
X0215935Y0054021D01*
X0215935Y0055297D01*
X0217849Y0055297D02*
X0217849Y0054659D01*
X0219763Y0047235D02*
X0219763Y0044683D01*
X0215935Y0044683D01*
X0215935Y0047235D01*
X0217849Y0045959D02*
X0217849Y0044683D01*
X0219763Y0042885D02*
X0219763Y0040333D01*
X0215935Y0040333D01*
X0235722Y0040545D02*
X0239550Y0040545D01*
X0239550Y0043097D01*
X0239550Y0044896D02*
X0239550Y0047447D01*
X0239550Y0049246D02*
X0239550Y0051160D01*
X0238912Y0051798D01*
X0236360Y0051798D01*
X0235722Y0051160D01*
X0235722Y0049246D01*
X0239550Y0049246D01*
X0237636Y0046171D02*
X0237636Y0044896D01*
X0235722Y0044896D02*
X0239550Y0044896D01*
X0235722Y0044896D02*
X0235722Y0047447D01*
X0237636Y0053596D02*
X0235722Y0055510D01*
X0239550Y0055510D01*
X0237636Y0056148D02*
X0237636Y0053596D01*
X0190458Y0012274D02*
X0189820Y0012912D01*
X0188544Y0012912D01*
X0187906Y0012274D01*
X0187906Y0011636D01*
X0188544Y0010998D01*
X0190458Y0010998D01*
X0190458Y0009722D02*
X0190458Y0012274D01*
X0190458Y0009722D02*
X0189820Y0009084D01*
X0188544Y0009084D01*
X0187906Y0009722D01*
X0186108Y0009084D02*
X0184832Y0010360D01*
X0185470Y0010360D02*
X0183556Y0010360D01*
X0183556Y0009084D02*
X0183556Y0012912D01*
X0185470Y0012912D01*
X0186108Y0012274D01*
X0186108Y0010998D01*
X0185470Y0010360D01*
X0169986Y0010045D02*
X0169986Y0009407D01*
X0169348Y0008769D01*
X0168072Y0008769D01*
X0167434Y0009407D01*
X0167434Y0010045D01*
X0168072Y0010683D01*
X0169348Y0010683D01*
X0169986Y0010045D01*
X0169348Y0010683D02*
X0169986Y0011321D01*
X0169986Y0011959D01*
X0169348Y0012597D01*
X0168072Y0012597D01*
X0167434Y0011959D01*
X0167434Y0011321D01*
X0168072Y0010683D01*
X0165636Y0010683D02*
X0165636Y0011959D01*
X0164998Y0012597D01*
X0163084Y0012597D01*
X0163084Y0008769D01*
X0163084Y0010045D02*
X0164998Y0010045D01*
X0165636Y0010683D01*
X0164360Y0010045D02*
X0165636Y0008769D01*
X0201667Y0008611D02*
X0201667Y0012439D01*
X0203580Y0012439D01*
X0204218Y0011801D01*
X0204218Y0010525D01*
X0203580Y0009887D01*
X0201667Y0009887D01*
X0202942Y0009887D02*
X0204218Y0008611D01*
X0206017Y0008611D02*
X0208568Y0008611D01*
X0207293Y0008611D02*
X0207293Y0012439D01*
X0206017Y0011163D01*
X0210367Y0011801D02*
X0210367Y0009249D01*
X0212919Y0011801D01*
X0212919Y0009249D01*
X0212281Y0008611D01*
X0211005Y0008611D01*
X0210367Y0009249D01*
X0210367Y0011801D02*
X0211005Y0012439D01*
X0212281Y0012439D01*
X0212919Y0011801D01*
X0222352Y0011967D02*
X0222352Y0008139D01*
X0222352Y0009415D02*
X0224265Y0009415D01*
X0224903Y0010053D01*
X0224903Y0011329D01*
X0224265Y0011967D01*
X0222352Y0011967D01*
X0223627Y0009415D02*
X0224903Y0008139D01*
X0226702Y0008139D02*
X0229254Y0008139D01*
X0227978Y0008139D02*
X0227978Y0011967D01*
X0226702Y0010691D01*
X0231052Y0010691D02*
X0232328Y0011967D01*
X0232328Y0008139D01*
X0231052Y0008139D02*
X0233604Y0008139D01*
X0258837Y0108163D02*
X0258199Y0108801D01*
X0258199Y0110076D01*
X0258837Y0110714D01*
X0259475Y0112513D02*
X0258199Y0113789D01*
X0262026Y0113789D01*
X0262026Y0112513D02*
X0262026Y0115065D01*
X0261388Y0110714D02*
X0262026Y0110076D01*
X0262026Y0108801D01*
X0261388Y0108163D01*
X0258837Y0108163D01*
X0250163Y0125938D02*
X0250163Y0128490D01*
X0248888Y0129766D01*
X0247612Y0128490D01*
X0247612Y0125938D01*
X0245813Y0126576D02*
X0245175Y0125938D01*
X0243261Y0125938D01*
X0243261Y0129766D01*
X0245175Y0129766D01*
X0245813Y0129128D01*
X0245813Y0126576D01*
X0247612Y0127852D02*
X0250163Y0127852D01*
X0241463Y0127214D02*
X0241463Y0126576D01*
X0240825Y0125938D01*
X0239549Y0125938D01*
X0238911Y0126576D01*
X0239549Y0127852D02*
X0238911Y0128490D01*
X0238911Y0129128D01*
X0239549Y0129766D01*
X0240825Y0129766D01*
X0241463Y0129128D01*
X0240825Y0127852D02*
X0241463Y0127214D01*
X0240825Y0127852D02*
X0239549Y0127852D01*
X0239549Y0135938D02*
X0238911Y0136576D01*
X0239549Y0135938D02*
X0240825Y0135938D01*
X0241463Y0136576D01*
X0241463Y0137214D01*
X0240825Y0137852D01*
X0239549Y0137852D01*
X0238911Y0138490D01*
X0238911Y0139128D01*
X0239549Y0139766D01*
X0240825Y0139766D01*
X0241463Y0139128D01*
X0243261Y0139128D02*
X0243261Y0136576D01*
X0243899Y0135938D01*
X0245175Y0135938D01*
X0245813Y0136576D01*
X0247612Y0135938D02*
X0250163Y0135938D01*
X0247612Y0135938D02*
X0247612Y0139766D01*
X0245813Y0139128D02*
X0245175Y0139766D01*
X0243899Y0139766D01*
X0243261Y0139128D01*
X0243899Y0145938D02*
X0243261Y0146576D01*
X0243899Y0145938D02*
X0245175Y0145938D01*
X0245813Y0146576D01*
X0245813Y0147852D01*
X0245175Y0148490D01*
X0244537Y0148490D01*
X0243261Y0147852D01*
X0243261Y0149766D01*
X0245813Y0149766D01*
X0247612Y0149766D02*
X0247612Y0147214D01*
X0248888Y0145938D01*
X0250163Y0147214D01*
X0250163Y0149766D01*
X0248738Y0155938D02*
X0246824Y0155938D01*
X0246824Y0159766D01*
X0248738Y0159766D01*
X0249376Y0159128D01*
X0249376Y0156576D01*
X0248738Y0155938D01*
X0245026Y0155938D02*
X0245026Y0159766D01*
X0242474Y0159766D02*
X0245026Y0155938D01*
X0242474Y0155938D02*
X0242474Y0159766D01*
X0240676Y0159128D02*
X0240038Y0159766D01*
X0238762Y0159766D01*
X0238124Y0159128D01*
X0238124Y0156576D01*
X0238762Y0155938D01*
X0240038Y0155938D01*
X0240676Y0156576D01*
X0240676Y0157852D01*
X0239400Y0157852D01*
X0240187Y0149128D02*
X0240187Y0146576D01*
X0238911Y0147852D02*
X0241463Y0147852D01*
X0221089Y0142438D02*
X0218537Y0142438D01*
X0219813Y0142438D02*
X0219813Y0146266D01*
X0218537Y0144990D01*
X0216738Y0146266D02*
X0214187Y0146266D01*
X0214187Y0142438D01*
X0214187Y0144352D02*
X0215463Y0144352D01*
X0182499Y0135726D02*
X0182499Y0133175D01*
X0179947Y0135726D01*
X0179309Y0135726D01*
X0178671Y0135088D01*
X0178671Y0133813D01*
X0179309Y0133175D01*
X0179309Y0131376D02*
X0178671Y0130738D01*
X0178671Y0129462D01*
X0179309Y0128824D01*
X0181861Y0128824D01*
X0182499Y0129462D01*
X0182499Y0130738D01*
X0181861Y0131376D01*
D12*
X0145171Y0193962D02*
X0143601Y0193962D01*
X0142816Y0194747D01*
X0142816Y0196317D02*
X0144386Y0197102D01*
X0145171Y0197102D01*
X0145956Y0196317D01*
X0145956Y0194747D01*
X0145171Y0193962D01*
X0142816Y0196317D02*
X0142816Y0198672D01*
X0145956Y0198672D01*
X0140518Y0198672D02*
X0137378Y0198672D01*
X0137378Y0196317D01*
X0138948Y0197102D01*
X0139733Y0197102D01*
X0140518Y0196317D01*
X0140518Y0194747D01*
X0139733Y0193962D01*
X0138163Y0193962D01*
X0137378Y0194747D01*
X0135080Y0194747D02*
X0134295Y0193962D01*
X0132725Y0193962D01*
X0131941Y0194747D01*
X0135080Y0197887D01*
X0135080Y0194747D01*
X0131941Y0194747D02*
X0131941Y0197887D01*
X0132725Y0198672D01*
X0134295Y0198672D01*
X0135080Y0197887D01*
X0129643Y0198672D02*
X0126503Y0193962D01*
X0124205Y0193962D02*
X0124205Y0198672D01*
X0122635Y0197102D01*
X0121065Y0198672D01*
X0121065Y0193962D01*
X0118767Y0194747D02*
X0117982Y0193962D01*
X0115627Y0193962D01*
X0115627Y0198672D01*
X0117982Y0198672D01*
X0118767Y0197887D01*
X0118767Y0197102D01*
X0117982Y0196317D01*
X0115627Y0196317D01*
X0113329Y0196317D02*
X0110190Y0196317D01*
X0111760Y0197887D02*
X0111760Y0194747D01*
X0107892Y0194747D02*
X0107892Y0195532D01*
X0107107Y0196317D01*
X0105537Y0196317D01*
X0104752Y0197102D01*
X0104752Y0197887D01*
X0105537Y0198672D01*
X0107107Y0198672D01*
X0107892Y0197887D01*
X0107892Y0194747D02*
X0107107Y0193962D01*
X0105537Y0193962D01*
X0104752Y0194747D01*
X0102454Y0196317D02*
X0101669Y0195532D01*
X0099314Y0195532D01*
X0099314Y0193962D02*
X0099314Y0198672D01*
X0101669Y0198672D01*
X0102454Y0197887D01*
X0102454Y0196317D01*
X0097016Y0196317D02*
X0097016Y0194747D01*
X0096231Y0193962D01*
X0094661Y0193962D01*
X0093877Y0194747D01*
X0093877Y0197887D01*
X0094661Y0198672D01*
X0096231Y0198672D01*
X0097016Y0197887D01*
X0097016Y0196317D02*
X0095446Y0196317D01*
X0091579Y0196317D02*
X0088439Y0196317D01*
X0086141Y0197102D02*
X0085356Y0196317D01*
X0083001Y0196317D01*
X0083001Y0193962D02*
X0083001Y0198672D01*
X0085356Y0198672D01*
X0086141Y0197887D01*
X0086141Y0197102D01*
X0085356Y0196317D02*
X0086141Y0195532D01*
X0086141Y0194747D01*
X0085356Y0193962D01*
X0083001Y0193962D01*
X0080703Y0194747D02*
X0080703Y0195532D01*
X0079918Y0196317D01*
X0078348Y0196317D01*
X0077563Y0197102D01*
X0077563Y0197887D01*
X0078348Y0198672D01*
X0079918Y0198672D01*
X0080703Y0197887D01*
X0080703Y0194747D02*
X0079918Y0193962D01*
X0078348Y0193962D01*
X0077563Y0194747D01*
X0075265Y0194747D02*
X0075265Y0198672D01*
X0072126Y0198672D02*
X0072126Y0194747D01*
X0072911Y0193962D01*
X0074480Y0193962D01*
X0075265Y0194747D01*
X0069828Y0196317D02*
X0066688Y0196317D01*
X0064390Y0193962D02*
X0064390Y0198672D01*
X0061250Y0198672D02*
X0064390Y0193962D01*
X0061250Y0193962D02*
X0061250Y0198672D01*
X0058952Y0197102D02*
X0058952Y0193962D01*
X0058952Y0196317D02*
X0055813Y0196317D01*
X0055813Y0197102D02*
X0055813Y0193962D01*
X0055813Y0197102D02*
X0057382Y0198672D01*
X0058952Y0197102D01*
X0117982Y0196317D02*
X0118767Y0195532D01*
X0118767Y0194747D01*
X0126503Y0198672D02*
X0129643Y0193962D01*
X0054930Y0051656D02*
X0055715Y0050871D01*
X0055715Y0049301D01*
X0054930Y0048517D01*
X0053360Y0048517D02*
X0052575Y0050086D01*
X0052575Y0050871D01*
X0053360Y0051656D01*
X0054930Y0051656D01*
X0051005Y0051656D02*
X0051005Y0048517D01*
X0053360Y0048517D01*
X0053360Y0046219D02*
X0054930Y0046219D01*
X0055715Y0045434D01*
X0055715Y0043864D01*
X0054930Y0043079D01*
X0053360Y0043079D02*
X0052575Y0044649D01*
X0052575Y0045434D01*
X0053360Y0046219D01*
X0051005Y0046219D02*
X0051005Y0043079D01*
X0053360Y0043079D01*
X0051790Y0040781D02*
X0054930Y0037641D01*
X0055715Y0038426D01*
X0055715Y0039996D01*
X0054930Y0040781D01*
X0051790Y0040781D01*
X0051005Y0039996D01*
X0051005Y0038426D01*
X0051790Y0037641D01*
X0054930Y0037641D01*
X0055715Y0035343D02*
X0051005Y0032203D01*
X0051005Y0035343D02*
X0055715Y0032203D01*
X0055715Y0029905D02*
X0051005Y0029905D01*
X0052575Y0028336D01*
X0051005Y0026766D01*
X0055715Y0026766D01*
X0054930Y0024468D02*
X0055715Y0023683D01*
X0055715Y0021328D01*
X0051005Y0021328D01*
X0051005Y0023683D01*
X0051790Y0024468D01*
X0052575Y0024468D01*
X0053360Y0023683D01*
X0053360Y0021328D01*
X0053360Y0023683D02*
X0054145Y0024468D01*
X0054930Y0024468D01*
D13*
X0097439Y0188227D02*
X0098485Y0190320D01*
X0100017Y0190320D02*
X0101064Y0191366D01*
X0101064Y0188227D01*
X0102110Y0188227D02*
X0100017Y0188227D01*
X0097439Y0188227D02*
X0096392Y0190320D01*
X0103642Y0188750D02*
X0103642Y0188227D01*
X0104166Y0188227D01*
X0104166Y0188750D01*
X0103642Y0188750D01*
X0105455Y0188750D02*
X0105978Y0188227D01*
X0107025Y0188227D01*
X0107548Y0188750D01*
X0107548Y0190843D01*
X0105455Y0188750D01*
X0105455Y0190843D01*
X0105978Y0191366D01*
X0107025Y0191366D01*
X0107548Y0190843D01*
X0112705Y0190843D02*
X0113229Y0191366D01*
X0114275Y0191366D01*
X0114798Y0190843D01*
X0114798Y0190320D01*
X0112705Y0188227D01*
X0114798Y0188227D01*
X0116330Y0188750D02*
X0118423Y0190843D01*
X0118423Y0188750D01*
X0117900Y0188227D01*
X0116854Y0188227D01*
X0116330Y0188750D01*
X0116330Y0190843D01*
X0116854Y0191366D01*
X0117900Y0191366D01*
X0118423Y0190843D01*
X0119955Y0190320D02*
X0121002Y0191366D01*
X0121002Y0188227D01*
X0119955Y0188227D02*
X0122049Y0188227D01*
X0123581Y0188750D02*
X0123581Y0189273D01*
X0124104Y0189797D01*
X0125150Y0189797D01*
X0125674Y0189273D01*
X0125674Y0188750D01*
X0125150Y0188227D01*
X0124104Y0188227D01*
X0123581Y0188750D01*
X0124104Y0189797D02*
X0123581Y0190320D01*
X0123581Y0190843D01*
X0124104Y0191366D01*
X0125150Y0191366D01*
X0125674Y0190843D01*
X0125674Y0190320D01*
X0125150Y0189797D01*
X0127206Y0188227D02*
X0129299Y0191366D01*
X0130831Y0190843D02*
X0130831Y0188750D01*
X0132924Y0190843D01*
X0132924Y0188750D01*
X0132401Y0188227D01*
X0131354Y0188227D01*
X0130831Y0188750D01*
X0130831Y0190843D02*
X0131354Y0191366D01*
X0132401Y0191366D01*
X0132924Y0190843D01*
X0134456Y0190843D02*
X0134979Y0191366D01*
X0136026Y0191366D01*
X0136549Y0190843D01*
X0136549Y0190320D01*
X0136026Y0189797D01*
X0136549Y0189273D01*
X0136549Y0188750D01*
X0136026Y0188227D01*
X0134979Y0188227D01*
X0134456Y0188750D01*
X0135503Y0189797D02*
X0136026Y0189797D01*
X0138081Y0188227D02*
X0140174Y0191366D01*
X0141706Y0190320D02*
X0142753Y0191366D01*
X0142753Y0188227D01*
X0143799Y0188227D02*
X0141706Y0188227D01*
X0145331Y0188750D02*
X0145855Y0188227D01*
X0146901Y0188227D01*
X0147425Y0188750D01*
X0147425Y0190843D01*
X0146901Y0191366D01*
X0145855Y0191366D01*
X0145331Y0190843D01*
X0145331Y0190320D01*
X0145855Y0189797D01*
X0147425Y0189797D01*
D14*
X0185724Y0112575D02*
X0185724Y0102575D01*
X0185724Y0096575D01*
X0185850Y0096573D01*
X0185975Y0096567D01*
X0186100Y0096557D01*
X0186225Y0096543D01*
X0186350Y0096526D01*
X0186474Y0096504D01*
X0186597Y0096479D01*
X0186719Y0096449D01*
X0186840Y0096416D01*
X0186960Y0096379D01*
X0187079Y0096339D01*
X0187196Y0096294D01*
X0187313Y0096246D01*
X0187427Y0096194D01*
X0187540Y0096139D01*
X0187651Y0096080D01*
X0187760Y0096018D01*
X0187867Y0095952D01*
X0187972Y0095883D01*
X0188075Y0095811D01*
X0188176Y0095736D01*
X0188274Y0095657D01*
X0188369Y0095575D01*
X0188462Y0095491D01*
X0188552Y0095403D01*
X0188640Y0095313D01*
X0188724Y0095220D01*
X0188806Y0095125D01*
X0188885Y0095027D01*
X0188960Y0094926D01*
X0189032Y0094823D01*
X0189101Y0094718D01*
X0189167Y0094611D01*
X0189229Y0094502D01*
X0189288Y0094391D01*
X0189343Y0094278D01*
X0189395Y0094164D01*
X0189443Y0094047D01*
X0189488Y0093930D01*
X0189528Y0093811D01*
X0189565Y0093691D01*
X0189598Y0093570D01*
X0189628Y0093448D01*
X0189653Y0093325D01*
X0189675Y0093201D01*
X0189692Y0093076D01*
X0189706Y0092951D01*
X0189716Y0092826D01*
X0189722Y0092701D01*
X0189724Y0092575D01*
X0189722Y0092449D01*
X0189716Y0092324D01*
X0189706Y0092199D01*
X0189692Y0092074D01*
X0189675Y0091949D01*
X0189653Y0091825D01*
X0189628Y0091702D01*
X0189598Y0091580D01*
X0189565Y0091459D01*
X0189528Y0091339D01*
X0189488Y0091220D01*
X0189443Y0091103D01*
X0189395Y0090986D01*
X0189343Y0090872D01*
X0189288Y0090759D01*
X0189229Y0090648D01*
X0189167Y0090539D01*
X0189101Y0090432D01*
X0189032Y0090327D01*
X0188960Y0090224D01*
X0188885Y0090123D01*
X0188806Y0090025D01*
X0188724Y0089930D01*
X0188640Y0089837D01*
X0188552Y0089747D01*
X0188462Y0089659D01*
X0188369Y0089575D01*
X0188274Y0089493D01*
X0188176Y0089414D01*
X0188075Y0089339D01*
X0187972Y0089267D01*
X0187867Y0089198D01*
X0187760Y0089132D01*
X0187651Y0089070D01*
X0187540Y0089011D01*
X0187427Y0088956D01*
X0187313Y0088904D01*
X0187196Y0088856D01*
X0187079Y0088811D01*
X0186960Y0088771D01*
X0186840Y0088734D01*
X0186719Y0088701D01*
X0186597Y0088671D01*
X0186474Y0088646D01*
X0186350Y0088624D01*
X0186225Y0088607D01*
X0186100Y0088593D01*
X0185975Y0088583D01*
X0185850Y0088577D01*
X0185724Y0088575D01*
X0185724Y0082575D01*
X0255724Y0082575D01*
X0255724Y0072575D01*
X0185724Y0072575D01*
X0185724Y0082575D01*
X0185724Y0102575D02*
X0255724Y0102575D01*
X0255724Y0082575D01*
X0255724Y0102575D02*
X0255724Y0112575D01*
X0185724Y0112575D01*
D15*
X0184346Y0150528D02*
X0184346Y0165035D01*
X0184346Y0150528D02*
X0230803Y0150528D01*
X0230803Y0165035D01*
X0230803Y0180528D02*
X0230803Y0212535D01*
X0184346Y0212535D01*
X0184346Y0180528D01*
X0072409Y0094538D02*
X0072409Y0093203D01*
X0071742Y0092536D01*
X0070408Y0093203D02*
X0070408Y0094538D01*
X0071075Y0095205D01*
X0071742Y0095205D01*
X0072409Y0094538D01*
X0070408Y0093203D02*
X0069741Y0092536D01*
X0069073Y0092536D01*
X0068406Y0093203D01*
X0068406Y0094538D01*
X0069073Y0095205D01*
X0069073Y0090601D02*
X0068406Y0089934D01*
X0068406Y0087932D01*
X0072409Y0087932D01*
X0071075Y0087932D02*
X0071075Y0089934D01*
X0070408Y0090601D01*
X0069073Y0090601D01*
X0069073Y0085997D02*
X0070408Y0085997D01*
X0071075Y0085330D01*
X0071075Y0083328D01*
X0072409Y0083328D02*
X0068406Y0083328D01*
X0068406Y0085330D01*
X0069073Y0085997D01*
X0072409Y0081393D02*
X0072409Y0078724D01*
X0072409Y0080059D02*
X0068406Y0080059D01*
X0069741Y0078724D01*
X0078406Y0078724D02*
X0078406Y0081393D01*
X0078406Y0080059D02*
X0082409Y0080059D01*
X0082409Y0083328D02*
X0078406Y0085997D01*
X0078406Y0087932D02*
X0078406Y0089934D01*
X0079073Y0090601D01*
X0081742Y0090601D01*
X0082409Y0089934D01*
X0082409Y0087932D01*
X0078406Y0087932D01*
X0082409Y0085997D02*
X0078406Y0083328D01*
X0088406Y0083328D02*
X0092409Y0085997D01*
X0092409Y0087932D02*
X0088406Y0087932D01*
X0088406Y0089934D01*
X0089073Y0090601D01*
X0091742Y0090601D01*
X0092409Y0089934D01*
X0092409Y0087932D01*
X0088406Y0085997D02*
X0092409Y0083328D01*
X0092409Y0081393D02*
X0091075Y0080059D01*
X0091075Y0080726D02*
X0091075Y0078724D01*
X0092409Y0078724D02*
X0088406Y0078724D01*
X0088406Y0080726D01*
X0089073Y0081393D01*
X0090408Y0081393D01*
X0091075Y0080726D01*
X0098406Y0080726D02*
X0098406Y0079392D01*
X0099073Y0078724D01*
X0101742Y0078724D01*
X0102409Y0079392D01*
X0102409Y0080726D01*
X0101742Y0081393D01*
X0100408Y0081393D01*
X0100408Y0080059D01*
X0099073Y0081393D02*
X0098406Y0080726D01*
X0098406Y0083328D02*
X0102409Y0085997D01*
X0098406Y0085997D01*
X0098406Y0087932D02*
X0098406Y0089934D01*
X0099073Y0090601D01*
X0101742Y0090601D01*
X0102409Y0089934D01*
X0102409Y0087932D01*
X0098406Y0087932D01*
X0098406Y0083328D02*
X0102409Y0083328D01*
X0108406Y0083328D02*
X0108406Y0085997D01*
X0109741Y0085330D02*
X0110408Y0085997D01*
X0111742Y0085997D01*
X0112409Y0085330D01*
X0112409Y0083996D01*
X0111742Y0083328D01*
X0110408Y0083328D02*
X0109741Y0084663D01*
X0109741Y0085330D01*
X0110408Y0083328D02*
X0108406Y0083328D01*
X0110408Y0081393D02*
X0110408Y0078724D01*
X0109073Y0080059D02*
X0111742Y0080059D01*
X0111075Y0087932D02*
X0108406Y0087932D01*
X0111075Y0087932D02*
X0112409Y0089267D01*
X0111075Y0090601D01*
X0108406Y0090601D01*
D16*
X0144465Y0066669D02*
X0144605Y0066671D01*
X0144745Y0066677D01*
X0144885Y0066687D01*
X0145025Y0066700D01*
X0145164Y0066718D01*
X0145303Y0066740D01*
X0145440Y0066765D01*
X0145578Y0066794D01*
X0145714Y0066827D01*
X0145849Y0066864D01*
X0145983Y0066905D01*
X0146116Y0066950D01*
X0146248Y0066998D01*
X0146378Y0067050D01*
X0146507Y0067105D01*
X0146634Y0067164D01*
X0146760Y0067227D01*
X0146884Y0067293D01*
X0147005Y0067362D01*
X0147125Y0067435D01*
X0147243Y0067512D01*
X0147358Y0067591D01*
X0147472Y0067674D01*
X0147582Y0067760D01*
X0147691Y0067849D01*
X0147797Y0067941D01*
X0147900Y0068036D01*
X0148001Y0068133D01*
X0148098Y0068234D01*
X0148193Y0068337D01*
X0148285Y0068443D01*
X0148374Y0068552D01*
X0148460Y0068662D01*
X0148543Y0068776D01*
X0148622Y0068891D01*
X0148699Y0069009D01*
X0148772Y0069129D01*
X0148841Y0069250D01*
X0148907Y0069374D01*
X0148970Y0069500D01*
X0149029Y0069627D01*
X0149084Y0069756D01*
X0149136Y0069886D01*
X0149184Y0070018D01*
X0149229Y0070151D01*
X0149270Y0070285D01*
X0149307Y0070420D01*
X0149340Y0070556D01*
X0149369Y0070694D01*
X0149394Y0070831D01*
X0149416Y0070970D01*
X0149434Y0071109D01*
X0149447Y0071249D01*
X0149457Y0071389D01*
X0149463Y0071529D01*
X0149465Y0071669D01*
X0149465Y0179780D01*
X0149463Y0179920D01*
X0149457Y0180060D01*
X0149447Y0180200D01*
X0149434Y0180340D01*
X0149416Y0180479D01*
X0149394Y0180618D01*
X0149369Y0180755D01*
X0149340Y0180893D01*
X0149307Y0181029D01*
X0149270Y0181164D01*
X0149229Y0181298D01*
X0149184Y0181431D01*
X0149136Y0181563D01*
X0149084Y0181693D01*
X0149029Y0181822D01*
X0148970Y0181949D01*
X0148907Y0182075D01*
X0148841Y0182199D01*
X0148772Y0182320D01*
X0148699Y0182440D01*
X0148622Y0182558D01*
X0148543Y0182673D01*
X0148460Y0182787D01*
X0148374Y0182897D01*
X0148285Y0183006D01*
X0148193Y0183112D01*
X0148098Y0183215D01*
X0148001Y0183316D01*
X0147900Y0183413D01*
X0147797Y0183508D01*
X0147691Y0183600D01*
X0147582Y0183689D01*
X0147472Y0183775D01*
X0147358Y0183858D01*
X0147243Y0183937D01*
X0147125Y0184014D01*
X0147005Y0184087D01*
X0146884Y0184156D01*
X0146760Y0184222D01*
X0146634Y0184285D01*
X0146507Y0184344D01*
X0146378Y0184399D01*
X0146248Y0184451D01*
X0146116Y0184499D01*
X0145983Y0184544D01*
X0145849Y0184585D01*
X0145714Y0184622D01*
X0145578Y0184655D01*
X0145440Y0184684D01*
X0145303Y0184709D01*
X0145164Y0184731D01*
X0145025Y0184749D01*
X0144885Y0184762D01*
X0144745Y0184772D01*
X0144605Y0184778D01*
X0144465Y0184780D01*
X0036354Y0184780D01*
X0036214Y0184778D01*
X0036074Y0184772D01*
X0035934Y0184762D01*
X0035794Y0184749D01*
X0035655Y0184731D01*
X0035516Y0184709D01*
X0035379Y0184684D01*
X0035241Y0184655D01*
X0035105Y0184622D01*
X0034970Y0184585D01*
X0034836Y0184544D01*
X0034703Y0184499D01*
X0034571Y0184451D01*
X0034441Y0184399D01*
X0034312Y0184344D01*
X0034185Y0184285D01*
X0034059Y0184222D01*
X0033935Y0184156D01*
X0033814Y0184087D01*
X0033694Y0184014D01*
X0033576Y0183937D01*
X0033461Y0183858D01*
X0033347Y0183775D01*
X0033237Y0183689D01*
X0033128Y0183600D01*
X0033022Y0183508D01*
X0032919Y0183413D01*
X0032818Y0183316D01*
X0032721Y0183215D01*
X0032626Y0183112D01*
X0032534Y0183006D01*
X0032445Y0182897D01*
X0032359Y0182787D01*
X0032276Y0182673D01*
X0032197Y0182558D01*
X0032120Y0182440D01*
X0032047Y0182320D01*
X0031978Y0182199D01*
X0031912Y0182075D01*
X0031849Y0181949D01*
X0031790Y0181822D01*
X0031735Y0181693D01*
X0031683Y0181563D01*
X0031635Y0181431D01*
X0031590Y0181298D01*
X0031549Y0181164D01*
X0031512Y0181029D01*
X0031479Y0180893D01*
X0031450Y0180755D01*
X0031425Y0180618D01*
X0031403Y0180479D01*
X0031385Y0180340D01*
X0031372Y0180200D01*
X0031362Y0180060D01*
X0031356Y0179920D01*
X0031354Y0179780D01*
X0031354Y0071669D01*
X0031355Y0071670D02*
X0031366Y0071524D01*
X0031382Y0071380D01*
X0031402Y0071235D01*
X0031426Y0071091D01*
X0031453Y0070948D01*
X0031485Y0070806D01*
X0031520Y0070665D01*
X0031559Y0070524D01*
X0031602Y0070385D01*
X0031648Y0070247D01*
X0031699Y0070110D01*
X0031753Y0069975D01*
X0031810Y0069841D01*
X0031872Y0069709D01*
X0031937Y0069579D01*
X0032005Y0069450D01*
X0032077Y0069323D01*
X0032152Y0069198D01*
X0032230Y0069076D01*
X0032312Y0068955D01*
X0032397Y0068837D01*
X0032486Y0068721D01*
X0032577Y0068607D01*
X0032671Y0068496D01*
X0032769Y0068388D01*
X0032869Y0068282D01*
X0032972Y0068179D01*
X0033078Y0068079D01*
X0033186Y0067982D01*
X0033298Y0067888D01*
X0033411Y0067796D01*
X0033527Y0067708D01*
X0033646Y0067623D01*
X0033766Y0067542D01*
X0033889Y0067463D01*
X0034014Y0067388D01*
X0034141Y0067317D01*
X0034270Y0067248D01*
X0034400Y0067184D01*
X0034532Y0067123D01*
X0034666Y0067065D01*
X0034802Y0067011D01*
X0034939Y0066961D01*
X0035077Y0066915D01*
X0035216Y0066872D01*
X0035356Y0066833D01*
X0035498Y0066798D01*
X0035640Y0066767D01*
X0035783Y0066740D01*
X0035927Y0066716D01*
X0036071Y0066696D01*
X0036216Y0066681D01*
X0036361Y0066669D01*
X0036507Y0066661D01*
X0036653Y0066657D01*
X0036798Y0066658D01*
X0036944Y0066662D01*
X0037089Y0066670D01*
X0037089Y0066669D02*
X0144465Y0066669D01*
X0120409Y0056354D02*
X0105409Y0056354D01*
X0105409Y0046354D01*
X0095409Y0046354D01*
X0095409Y0056354D01*
X0105409Y0056354D01*
X0095409Y0056354D02*
X0060409Y0056354D01*
X0060409Y0016354D01*
X0120409Y0016354D01*
X0120409Y0056354D01*
X0175575Y0034575D02*
X0177575Y0032575D01*
X0179575Y0034575D01*
X0175575Y0034575D01*
X0176010Y0034140D02*
X0179140Y0034140D01*
X0178641Y0033641D02*
X0176509Y0033641D01*
X0177007Y0033143D02*
X0178143Y0033143D01*
X0177644Y0032644D02*
X0177506Y0032644D01*
X0195575Y0034575D02*
X0197575Y0032575D01*
X0199575Y0034575D01*
X0195575Y0034575D01*
X0196010Y0034140D02*
X0199140Y0034140D01*
X0198641Y0033641D02*
X0196509Y0033641D01*
X0197007Y0033143D02*
X0198143Y0033143D01*
X0197644Y0032644D02*
X0197506Y0032644D01*
X0215575Y0034575D02*
X0217575Y0032575D01*
X0219575Y0034575D01*
X0215575Y0034575D01*
X0216010Y0034140D02*
X0219140Y0034140D01*
X0218641Y0033641D02*
X0216509Y0033641D01*
X0217007Y0033143D02*
X0218143Y0033143D01*
X0217644Y0032644D02*
X0217506Y0032644D01*
X0235575Y0034575D02*
X0237575Y0032575D01*
X0239575Y0034575D01*
X0235575Y0034575D01*
X0236010Y0034140D02*
X0239140Y0034140D01*
X0238641Y0033641D02*
X0236509Y0033641D01*
X0237007Y0033143D02*
X0238143Y0033143D01*
X0237644Y0032644D02*
X0237506Y0032644D01*
X0043266Y0058474D02*
X0040263Y0058474D01*
X0041765Y0058474D02*
X0041765Y0062978D01*
X0040263Y0061477D01*
X0038662Y0062978D02*
X0038662Y0059225D01*
X0037911Y0058474D01*
X0036410Y0058474D01*
X0035659Y0059225D01*
X0035659Y0062978D01*
D17*
X0252575Y0122575D02*
X0252575Y0167575D01*
X0262575Y0167575D01*
X0262575Y0122575D01*
X0252575Y0122575D01*
D18*
X0257575Y0165075D03*
M02*
