%
M48
M72
T01C0.01575
T02C0.03150
T03C0.03200
T04C0.03740
T05C0.03937
T06C0.09055
T07C0.12598
%
T01
X162724Y125724
X177724Y62724
X170724Y61724
T02
X167575Y47575
X187575Y47575
X207575Y47575
X227575Y47575
X219937Y64937
X189937Y64937
X174012Y74937
X163224Y74937
X163224Y104937
X174012Y104937
X187575Y122575
X202575Y137575
X187575Y142575
X232575Y137575
X260724Y102575
X260724Y82575
X237575Y27575
X237575Y17575
X227575Y17575
X217575Y17575
X217575Y27575
X207575Y17575
X197575Y17575
X187575Y17575
X177575Y17575
X177575Y27575
X167575Y17575
X197575Y27575
X100409Y21354
X90409Y21354
X80409Y21354
X80409Y51354
X90409Y51354
X100409Y51354
T03
X190724Y77575
X200724Y77575
X210724Y77575
X220724Y77575
X230724Y77575
X240724Y77575
X250724Y77575
X250724Y107575
X240724Y107575
X230724Y107575
X220724Y107575
X210724Y107575
X200724Y107575
X190724Y107575
T04
X202654Y154031
X202654Y161906
X212496Y161906
X212496Y154031
T05
X257575Y157575
X257575Y147575
X257575Y137575
X257575Y127575
X110409Y71669
X100409Y71669
X90409Y71669
X80409Y71669
X70409Y71669
T06
X183874Y172575
X231276Y172575
T07
X27417Y19535
X43165Y78480
X137654Y78480
X255764Y17535
X137654Y172969
X43165Y172969
X27417Y192764
X255764Y190764
M30
