G75*
%MOIN*%
%OFA0B0*%
%FSLAX25Y25*%
%IPPOS*%
%LPD*%
%AMOC8*
5,1,8,0,0,1.08239X$1,22.5*
%
%ADD10C,0.00000*%
%ADD11C,0.00900*%
%ADD12C,0.01200*%
%ADD13C,0.00800*%
%ADD14C,0.02200*%
%ADD15C,0.01181*%
%ADD16C,0.00600*%
%ADD17C,0.01000*%
%ADD18C,0.00500*%
%ADD19C,0.00787*%
%ADD20R,0.10000X0.05000*%
%ADD21C,0.02400*%
%ADD22C,0.00080*%
%ADD23R,0.00787X0.00787*%
D10*
X0005724Y0017535D02*
X0005724Y0190764D01*
X0011236Y0190764D02*
X0011238Y0190922D01*
X0011244Y0191080D01*
X0011254Y0191238D01*
X0011268Y0191396D01*
X0011286Y0191553D01*
X0011307Y0191710D01*
X0011333Y0191866D01*
X0011363Y0192022D01*
X0011396Y0192177D01*
X0011434Y0192330D01*
X0011475Y0192483D01*
X0011520Y0192635D01*
X0011569Y0192786D01*
X0011622Y0192935D01*
X0011678Y0193083D01*
X0011738Y0193229D01*
X0011802Y0193374D01*
X0011870Y0193517D01*
X0011941Y0193659D01*
X0012015Y0193799D01*
X0012093Y0193936D01*
X0012175Y0194072D01*
X0012259Y0194206D01*
X0012348Y0194337D01*
X0012439Y0194466D01*
X0012534Y0194593D01*
X0012631Y0194718D01*
X0012732Y0194840D01*
X0012836Y0194959D01*
X0012943Y0195076D01*
X0013053Y0195190D01*
X0013166Y0195301D01*
X0013281Y0195410D01*
X0013399Y0195515D01*
X0013520Y0195617D01*
X0013643Y0195717D01*
X0013769Y0195813D01*
X0013897Y0195906D01*
X0014027Y0195996D01*
X0014160Y0196082D01*
X0014295Y0196166D01*
X0014431Y0196245D01*
X0014570Y0196322D01*
X0014711Y0196394D01*
X0014853Y0196464D01*
X0014997Y0196529D01*
X0015143Y0196591D01*
X0015290Y0196649D01*
X0015439Y0196704D01*
X0015589Y0196755D01*
X0015740Y0196802D01*
X0015892Y0196845D01*
X0016045Y0196884D01*
X0016200Y0196920D01*
X0016355Y0196951D01*
X0016511Y0196979D01*
X0016667Y0197003D01*
X0016824Y0197023D01*
X0016982Y0197039D01*
X0017139Y0197051D01*
X0017298Y0197059D01*
X0017456Y0197063D01*
X0017614Y0197063D01*
X0017772Y0197059D01*
X0017931Y0197051D01*
X0018088Y0197039D01*
X0018246Y0197023D01*
X0018403Y0197003D01*
X0018559Y0196979D01*
X0018715Y0196951D01*
X0018870Y0196920D01*
X0019025Y0196884D01*
X0019178Y0196845D01*
X0019330Y0196802D01*
X0019481Y0196755D01*
X0019631Y0196704D01*
X0019780Y0196649D01*
X0019927Y0196591D01*
X0020073Y0196529D01*
X0020217Y0196464D01*
X0020359Y0196394D01*
X0020500Y0196322D01*
X0020639Y0196245D01*
X0020775Y0196166D01*
X0020910Y0196082D01*
X0021043Y0195996D01*
X0021173Y0195906D01*
X0021301Y0195813D01*
X0021427Y0195717D01*
X0021550Y0195617D01*
X0021671Y0195515D01*
X0021789Y0195410D01*
X0021904Y0195301D01*
X0022017Y0195190D01*
X0022127Y0195076D01*
X0022234Y0194959D01*
X0022338Y0194840D01*
X0022439Y0194718D01*
X0022536Y0194593D01*
X0022631Y0194466D01*
X0022722Y0194337D01*
X0022811Y0194206D01*
X0022895Y0194072D01*
X0022977Y0193936D01*
X0023055Y0193799D01*
X0023129Y0193659D01*
X0023200Y0193517D01*
X0023268Y0193374D01*
X0023332Y0193229D01*
X0023392Y0193083D01*
X0023448Y0192935D01*
X0023501Y0192786D01*
X0023550Y0192635D01*
X0023595Y0192483D01*
X0023636Y0192330D01*
X0023674Y0192177D01*
X0023707Y0192022D01*
X0023737Y0191866D01*
X0023763Y0191710D01*
X0023784Y0191553D01*
X0023802Y0191396D01*
X0023816Y0191238D01*
X0023826Y0191080D01*
X0023832Y0190922D01*
X0023834Y0190764D01*
X0023832Y0190606D01*
X0023826Y0190448D01*
X0023816Y0190290D01*
X0023802Y0190132D01*
X0023784Y0189975D01*
X0023763Y0189818D01*
X0023737Y0189662D01*
X0023707Y0189506D01*
X0023674Y0189351D01*
X0023636Y0189198D01*
X0023595Y0189045D01*
X0023550Y0188893D01*
X0023501Y0188742D01*
X0023448Y0188593D01*
X0023392Y0188445D01*
X0023332Y0188299D01*
X0023268Y0188154D01*
X0023200Y0188011D01*
X0023129Y0187869D01*
X0023055Y0187729D01*
X0022977Y0187592D01*
X0022895Y0187456D01*
X0022811Y0187322D01*
X0022722Y0187191D01*
X0022631Y0187062D01*
X0022536Y0186935D01*
X0022439Y0186810D01*
X0022338Y0186688D01*
X0022234Y0186569D01*
X0022127Y0186452D01*
X0022017Y0186338D01*
X0021904Y0186227D01*
X0021789Y0186118D01*
X0021671Y0186013D01*
X0021550Y0185911D01*
X0021427Y0185811D01*
X0021301Y0185715D01*
X0021173Y0185622D01*
X0021043Y0185532D01*
X0020910Y0185446D01*
X0020775Y0185362D01*
X0020639Y0185283D01*
X0020500Y0185206D01*
X0020359Y0185134D01*
X0020217Y0185064D01*
X0020073Y0184999D01*
X0019927Y0184937D01*
X0019780Y0184879D01*
X0019631Y0184824D01*
X0019481Y0184773D01*
X0019330Y0184726D01*
X0019178Y0184683D01*
X0019025Y0184644D01*
X0018870Y0184608D01*
X0018715Y0184577D01*
X0018559Y0184549D01*
X0018403Y0184525D01*
X0018246Y0184505D01*
X0018088Y0184489D01*
X0017931Y0184477D01*
X0017772Y0184469D01*
X0017614Y0184465D01*
X0017456Y0184465D01*
X0017298Y0184469D01*
X0017139Y0184477D01*
X0016982Y0184489D01*
X0016824Y0184505D01*
X0016667Y0184525D01*
X0016511Y0184549D01*
X0016355Y0184577D01*
X0016200Y0184608D01*
X0016045Y0184644D01*
X0015892Y0184683D01*
X0015740Y0184726D01*
X0015589Y0184773D01*
X0015439Y0184824D01*
X0015290Y0184879D01*
X0015143Y0184937D01*
X0014997Y0184999D01*
X0014853Y0185064D01*
X0014711Y0185134D01*
X0014570Y0185206D01*
X0014431Y0185283D01*
X0014295Y0185362D01*
X0014160Y0185446D01*
X0014027Y0185532D01*
X0013897Y0185622D01*
X0013769Y0185715D01*
X0013643Y0185811D01*
X0013520Y0185911D01*
X0013399Y0186013D01*
X0013281Y0186118D01*
X0013166Y0186227D01*
X0013053Y0186338D01*
X0012943Y0186452D01*
X0012836Y0186569D01*
X0012732Y0186688D01*
X0012631Y0186810D01*
X0012534Y0186935D01*
X0012439Y0187062D01*
X0012348Y0187191D01*
X0012259Y0187322D01*
X0012175Y0187456D01*
X0012093Y0187592D01*
X0012015Y0187729D01*
X0011941Y0187869D01*
X0011870Y0188011D01*
X0011802Y0188154D01*
X0011738Y0188299D01*
X0011678Y0188445D01*
X0011622Y0188593D01*
X0011569Y0188742D01*
X0011520Y0188893D01*
X0011475Y0189045D01*
X0011434Y0189198D01*
X0011396Y0189351D01*
X0011363Y0189506D01*
X0011333Y0189662D01*
X0011307Y0189818D01*
X0011286Y0189975D01*
X0011268Y0190132D01*
X0011254Y0190290D01*
X0011244Y0190448D01*
X0011238Y0190606D01*
X0011236Y0190764D01*
X0005724Y0190764D02*
X0005727Y0191049D01*
X0005738Y0191335D01*
X0005755Y0191620D01*
X0005779Y0191904D01*
X0005810Y0192188D01*
X0005848Y0192471D01*
X0005893Y0192752D01*
X0005944Y0193033D01*
X0006002Y0193313D01*
X0006067Y0193591D01*
X0006139Y0193867D01*
X0006217Y0194141D01*
X0006302Y0194414D01*
X0006394Y0194684D01*
X0006492Y0194952D01*
X0006596Y0195218D01*
X0006707Y0195481D01*
X0006824Y0195741D01*
X0006947Y0195999D01*
X0007077Y0196253D01*
X0007213Y0196504D01*
X0007354Y0196752D01*
X0007502Y0196996D01*
X0007655Y0197237D01*
X0007815Y0197473D01*
X0007980Y0197706D01*
X0008150Y0197935D01*
X0008326Y0198160D01*
X0008508Y0198380D01*
X0008694Y0198596D01*
X0008886Y0198807D01*
X0009083Y0199014D01*
X0009285Y0199216D01*
X0009492Y0199413D01*
X0009703Y0199605D01*
X0009919Y0199791D01*
X0010139Y0199973D01*
X0010364Y0200149D01*
X0010593Y0200319D01*
X0010826Y0200484D01*
X0011062Y0200644D01*
X0011303Y0200797D01*
X0011547Y0200945D01*
X0011795Y0201086D01*
X0012046Y0201222D01*
X0012300Y0201352D01*
X0012558Y0201475D01*
X0012818Y0201592D01*
X0013081Y0201703D01*
X0013347Y0201807D01*
X0013615Y0201905D01*
X0013885Y0201997D01*
X0014158Y0202082D01*
X0014432Y0202160D01*
X0014708Y0202232D01*
X0014986Y0202297D01*
X0015266Y0202355D01*
X0015547Y0202406D01*
X0015828Y0202451D01*
X0016111Y0202489D01*
X0016395Y0202520D01*
X0016679Y0202544D01*
X0016964Y0202561D01*
X0017250Y0202572D01*
X0017535Y0202575D01*
X0190764Y0202575D01*
X0184465Y0190764D02*
X0184467Y0190922D01*
X0184473Y0191080D01*
X0184483Y0191238D01*
X0184497Y0191396D01*
X0184515Y0191553D01*
X0184536Y0191710D01*
X0184562Y0191866D01*
X0184592Y0192022D01*
X0184625Y0192177D01*
X0184663Y0192330D01*
X0184704Y0192483D01*
X0184749Y0192635D01*
X0184798Y0192786D01*
X0184851Y0192935D01*
X0184907Y0193083D01*
X0184967Y0193229D01*
X0185031Y0193374D01*
X0185099Y0193517D01*
X0185170Y0193659D01*
X0185244Y0193799D01*
X0185322Y0193936D01*
X0185404Y0194072D01*
X0185488Y0194206D01*
X0185577Y0194337D01*
X0185668Y0194466D01*
X0185763Y0194593D01*
X0185860Y0194718D01*
X0185961Y0194840D01*
X0186065Y0194959D01*
X0186172Y0195076D01*
X0186282Y0195190D01*
X0186395Y0195301D01*
X0186510Y0195410D01*
X0186628Y0195515D01*
X0186749Y0195617D01*
X0186872Y0195717D01*
X0186998Y0195813D01*
X0187126Y0195906D01*
X0187256Y0195996D01*
X0187389Y0196082D01*
X0187524Y0196166D01*
X0187660Y0196245D01*
X0187799Y0196322D01*
X0187940Y0196394D01*
X0188082Y0196464D01*
X0188226Y0196529D01*
X0188372Y0196591D01*
X0188519Y0196649D01*
X0188668Y0196704D01*
X0188818Y0196755D01*
X0188969Y0196802D01*
X0189121Y0196845D01*
X0189274Y0196884D01*
X0189429Y0196920D01*
X0189584Y0196951D01*
X0189740Y0196979D01*
X0189896Y0197003D01*
X0190053Y0197023D01*
X0190211Y0197039D01*
X0190368Y0197051D01*
X0190527Y0197059D01*
X0190685Y0197063D01*
X0190843Y0197063D01*
X0191001Y0197059D01*
X0191160Y0197051D01*
X0191317Y0197039D01*
X0191475Y0197023D01*
X0191632Y0197003D01*
X0191788Y0196979D01*
X0191944Y0196951D01*
X0192099Y0196920D01*
X0192254Y0196884D01*
X0192407Y0196845D01*
X0192559Y0196802D01*
X0192710Y0196755D01*
X0192860Y0196704D01*
X0193009Y0196649D01*
X0193156Y0196591D01*
X0193302Y0196529D01*
X0193446Y0196464D01*
X0193588Y0196394D01*
X0193729Y0196322D01*
X0193868Y0196245D01*
X0194004Y0196166D01*
X0194139Y0196082D01*
X0194272Y0195996D01*
X0194402Y0195906D01*
X0194530Y0195813D01*
X0194656Y0195717D01*
X0194779Y0195617D01*
X0194900Y0195515D01*
X0195018Y0195410D01*
X0195133Y0195301D01*
X0195246Y0195190D01*
X0195356Y0195076D01*
X0195463Y0194959D01*
X0195567Y0194840D01*
X0195668Y0194718D01*
X0195765Y0194593D01*
X0195860Y0194466D01*
X0195951Y0194337D01*
X0196040Y0194206D01*
X0196124Y0194072D01*
X0196206Y0193936D01*
X0196284Y0193799D01*
X0196358Y0193659D01*
X0196429Y0193517D01*
X0196497Y0193374D01*
X0196561Y0193229D01*
X0196621Y0193083D01*
X0196677Y0192935D01*
X0196730Y0192786D01*
X0196779Y0192635D01*
X0196824Y0192483D01*
X0196865Y0192330D01*
X0196903Y0192177D01*
X0196936Y0192022D01*
X0196966Y0191866D01*
X0196992Y0191710D01*
X0197013Y0191553D01*
X0197031Y0191396D01*
X0197045Y0191238D01*
X0197055Y0191080D01*
X0197061Y0190922D01*
X0197063Y0190764D01*
X0197061Y0190606D01*
X0197055Y0190448D01*
X0197045Y0190290D01*
X0197031Y0190132D01*
X0197013Y0189975D01*
X0196992Y0189818D01*
X0196966Y0189662D01*
X0196936Y0189506D01*
X0196903Y0189351D01*
X0196865Y0189198D01*
X0196824Y0189045D01*
X0196779Y0188893D01*
X0196730Y0188742D01*
X0196677Y0188593D01*
X0196621Y0188445D01*
X0196561Y0188299D01*
X0196497Y0188154D01*
X0196429Y0188011D01*
X0196358Y0187869D01*
X0196284Y0187729D01*
X0196206Y0187592D01*
X0196124Y0187456D01*
X0196040Y0187322D01*
X0195951Y0187191D01*
X0195860Y0187062D01*
X0195765Y0186935D01*
X0195668Y0186810D01*
X0195567Y0186688D01*
X0195463Y0186569D01*
X0195356Y0186452D01*
X0195246Y0186338D01*
X0195133Y0186227D01*
X0195018Y0186118D01*
X0194900Y0186013D01*
X0194779Y0185911D01*
X0194656Y0185811D01*
X0194530Y0185715D01*
X0194402Y0185622D01*
X0194272Y0185532D01*
X0194139Y0185446D01*
X0194004Y0185362D01*
X0193868Y0185283D01*
X0193729Y0185206D01*
X0193588Y0185134D01*
X0193446Y0185064D01*
X0193302Y0184999D01*
X0193156Y0184937D01*
X0193009Y0184879D01*
X0192860Y0184824D01*
X0192710Y0184773D01*
X0192559Y0184726D01*
X0192407Y0184683D01*
X0192254Y0184644D01*
X0192099Y0184608D01*
X0191944Y0184577D01*
X0191788Y0184549D01*
X0191632Y0184525D01*
X0191475Y0184505D01*
X0191317Y0184489D01*
X0191160Y0184477D01*
X0191001Y0184469D01*
X0190843Y0184465D01*
X0190685Y0184465D01*
X0190527Y0184469D01*
X0190368Y0184477D01*
X0190211Y0184489D01*
X0190053Y0184505D01*
X0189896Y0184525D01*
X0189740Y0184549D01*
X0189584Y0184577D01*
X0189429Y0184608D01*
X0189274Y0184644D01*
X0189121Y0184683D01*
X0188969Y0184726D01*
X0188818Y0184773D01*
X0188668Y0184824D01*
X0188519Y0184879D01*
X0188372Y0184937D01*
X0188226Y0184999D01*
X0188082Y0185064D01*
X0187940Y0185134D01*
X0187799Y0185206D01*
X0187660Y0185283D01*
X0187524Y0185362D01*
X0187389Y0185446D01*
X0187256Y0185532D01*
X0187126Y0185622D01*
X0186998Y0185715D01*
X0186872Y0185811D01*
X0186749Y0185911D01*
X0186628Y0186013D01*
X0186510Y0186118D01*
X0186395Y0186227D01*
X0186282Y0186338D01*
X0186172Y0186452D01*
X0186065Y0186569D01*
X0185961Y0186688D01*
X0185860Y0186810D01*
X0185763Y0186935D01*
X0185668Y0187062D01*
X0185577Y0187191D01*
X0185488Y0187322D01*
X0185404Y0187456D01*
X0185322Y0187592D01*
X0185244Y0187729D01*
X0185170Y0187869D01*
X0185099Y0188011D01*
X0185031Y0188154D01*
X0184967Y0188299D01*
X0184907Y0188445D01*
X0184851Y0188593D01*
X0184798Y0188742D01*
X0184749Y0188893D01*
X0184704Y0189045D01*
X0184663Y0189198D01*
X0184625Y0189351D01*
X0184592Y0189506D01*
X0184562Y0189662D01*
X0184536Y0189818D01*
X0184515Y0189975D01*
X0184497Y0190132D01*
X0184483Y0190290D01*
X0184473Y0190448D01*
X0184467Y0190606D01*
X0184465Y0190764D01*
X0190764Y0202575D02*
X0191049Y0202572D01*
X0191335Y0202561D01*
X0191620Y0202544D01*
X0191904Y0202520D01*
X0192188Y0202489D01*
X0192471Y0202451D01*
X0192752Y0202406D01*
X0193033Y0202355D01*
X0193313Y0202297D01*
X0193591Y0202232D01*
X0193867Y0202160D01*
X0194141Y0202082D01*
X0194414Y0201997D01*
X0194684Y0201905D01*
X0194952Y0201807D01*
X0195218Y0201703D01*
X0195481Y0201592D01*
X0195741Y0201475D01*
X0195999Y0201352D01*
X0196253Y0201222D01*
X0196504Y0201086D01*
X0196752Y0200945D01*
X0196996Y0200797D01*
X0197237Y0200644D01*
X0197473Y0200484D01*
X0197706Y0200319D01*
X0197935Y0200149D01*
X0198160Y0199973D01*
X0198380Y0199791D01*
X0198596Y0199605D01*
X0198807Y0199413D01*
X0199014Y0199216D01*
X0199216Y0199014D01*
X0199413Y0198807D01*
X0199605Y0198596D01*
X0199791Y0198380D01*
X0199973Y0198160D01*
X0200149Y0197935D01*
X0200319Y0197706D01*
X0200484Y0197473D01*
X0200644Y0197237D01*
X0200797Y0196996D01*
X0200945Y0196752D01*
X0201086Y0196504D01*
X0201222Y0196253D01*
X0201352Y0195999D01*
X0201475Y0195741D01*
X0201592Y0195481D01*
X0201703Y0195218D01*
X0201807Y0194952D01*
X0201905Y0194684D01*
X0201997Y0194414D01*
X0202082Y0194141D01*
X0202160Y0193867D01*
X0202232Y0193591D01*
X0202297Y0193313D01*
X0202355Y0193033D01*
X0202406Y0192752D01*
X0202451Y0192471D01*
X0202489Y0192188D01*
X0202520Y0191904D01*
X0202544Y0191620D01*
X0202561Y0191335D01*
X0202572Y0191049D01*
X0202575Y0190764D01*
X0202575Y0017535D01*
X0184465Y0017535D02*
X0184467Y0017693D01*
X0184473Y0017851D01*
X0184483Y0018009D01*
X0184497Y0018167D01*
X0184515Y0018324D01*
X0184536Y0018481D01*
X0184562Y0018637D01*
X0184592Y0018793D01*
X0184625Y0018948D01*
X0184663Y0019101D01*
X0184704Y0019254D01*
X0184749Y0019406D01*
X0184798Y0019557D01*
X0184851Y0019706D01*
X0184907Y0019854D01*
X0184967Y0020000D01*
X0185031Y0020145D01*
X0185099Y0020288D01*
X0185170Y0020430D01*
X0185244Y0020570D01*
X0185322Y0020707D01*
X0185404Y0020843D01*
X0185488Y0020977D01*
X0185577Y0021108D01*
X0185668Y0021237D01*
X0185763Y0021364D01*
X0185860Y0021489D01*
X0185961Y0021611D01*
X0186065Y0021730D01*
X0186172Y0021847D01*
X0186282Y0021961D01*
X0186395Y0022072D01*
X0186510Y0022181D01*
X0186628Y0022286D01*
X0186749Y0022388D01*
X0186872Y0022488D01*
X0186998Y0022584D01*
X0187126Y0022677D01*
X0187256Y0022767D01*
X0187389Y0022853D01*
X0187524Y0022937D01*
X0187660Y0023016D01*
X0187799Y0023093D01*
X0187940Y0023165D01*
X0188082Y0023235D01*
X0188226Y0023300D01*
X0188372Y0023362D01*
X0188519Y0023420D01*
X0188668Y0023475D01*
X0188818Y0023526D01*
X0188969Y0023573D01*
X0189121Y0023616D01*
X0189274Y0023655D01*
X0189429Y0023691D01*
X0189584Y0023722D01*
X0189740Y0023750D01*
X0189896Y0023774D01*
X0190053Y0023794D01*
X0190211Y0023810D01*
X0190368Y0023822D01*
X0190527Y0023830D01*
X0190685Y0023834D01*
X0190843Y0023834D01*
X0191001Y0023830D01*
X0191160Y0023822D01*
X0191317Y0023810D01*
X0191475Y0023794D01*
X0191632Y0023774D01*
X0191788Y0023750D01*
X0191944Y0023722D01*
X0192099Y0023691D01*
X0192254Y0023655D01*
X0192407Y0023616D01*
X0192559Y0023573D01*
X0192710Y0023526D01*
X0192860Y0023475D01*
X0193009Y0023420D01*
X0193156Y0023362D01*
X0193302Y0023300D01*
X0193446Y0023235D01*
X0193588Y0023165D01*
X0193729Y0023093D01*
X0193868Y0023016D01*
X0194004Y0022937D01*
X0194139Y0022853D01*
X0194272Y0022767D01*
X0194402Y0022677D01*
X0194530Y0022584D01*
X0194656Y0022488D01*
X0194779Y0022388D01*
X0194900Y0022286D01*
X0195018Y0022181D01*
X0195133Y0022072D01*
X0195246Y0021961D01*
X0195356Y0021847D01*
X0195463Y0021730D01*
X0195567Y0021611D01*
X0195668Y0021489D01*
X0195765Y0021364D01*
X0195860Y0021237D01*
X0195951Y0021108D01*
X0196040Y0020977D01*
X0196124Y0020843D01*
X0196206Y0020707D01*
X0196284Y0020570D01*
X0196358Y0020430D01*
X0196429Y0020288D01*
X0196497Y0020145D01*
X0196561Y0020000D01*
X0196621Y0019854D01*
X0196677Y0019706D01*
X0196730Y0019557D01*
X0196779Y0019406D01*
X0196824Y0019254D01*
X0196865Y0019101D01*
X0196903Y0018948D01*
X0196936Y0018793D01*
X0196966Y0018637D01*
X0196992Y0018481D01*
X0197013Y0018324D01*
X0197031Y0018167D01*
X0197045Y0018009D01*
X0197055Y0017851D01*
X0197061Y0017693D01*
X0197063Y0017535D01*
X0197061Y0017377D01*
X0197055Y0017219D01*
X0197045Y0017061D01*
X0197031Y0016903D01*
X0197013Y0016746D01*
X0196992Y0016589D01*
X0196966Y0016433D01*
X0196936Y0016277D01*
X0196903Y0016122D01*
X0196865Y0015969D01*
X0196824Y0015816D01*
X0196779Y0015664D01*
X0196730Y0015513D01*
X0196677Y0015364D01*
X0196621Y0015216D01*
X0196561Y0015070D01*
X0196497Y0014925D01*
X0196429Y0014782D01*
X0196358Y0014640D01*
X0196284Y0014500D01*
X0196206Y0014363D01*
X0196124Y0014227D01*
X0196040Y0014093D01*
X0195951Y0013962D01*
X0195860Y0013833D01*
X0195765Y0013706D01*
X0195668Y0013581D01*
X0195567Y0013459D01*
X0195463Y0013340D01*
X0195356Y0013223D01*
X0195246Y0013109D01*
X0195133Y0012998D01*
X0195018Y0012889D01*
X0194900Y0012784D01*
X0194779Y0012682D01*
X0194656Y0012582D01*
X0194530Y0012486D01*
X0194402Y0012393D01*
X0194272Y0012303D01*
X0194139Y0012217D01*
X0194004Y0012133D01*
X0193868Y0012054D01*
X0193729Y0011977D01*
X0193588Y0011905D01*
X0193446Y0011835D01*
X0193302Y0011770D01*
X0193156Y0011708D01*
X0193009Y0011650D01*
X0192860Y0011595D01*
X0192710Y0011544D01*
X0192559Y0011497D01*
X0192407Y0011454D01*
X0192254Y0011415D01*
X0192099Y0011379D01*
X0191944Y0011348D01*
X0191788Y0011320D01*
X0191632Y0011296D01*
X0191475Y0011276D01*
X0191317Y0011260D01*
X0191160Y0011248D01*
X0191001Y0011240D01*
X0190843Y0011236D01*
X0190685Y0011236D01*
X0190527Y0011240D01*
X0190368Y0011248D01*
X0190211Y0011260D01*
X0190053Y0011276D01*
X0189896Y0011296D01*
X0189740Y0011320D01*
X0189584Y0011348D01*
X0189429Y0011379D01*
X0189274Y0011415D01*
X0189121Y0011454D01*
X0188969Y0011497D01*
X0188818Y0011544D01*
X0188668Y0011595D01*
X0188519Y0011650D01*
X0188372Y0011708D01*
X0188226Y0011770D01*
X0188082Y0011835D01*
X0187940Y0011905D01*
X0187799Y0011977D01*
X0187660Y0012054D01*
X0187524Y0012133D01*
X0187389Y0012217D01*
X0187256Y0012303D01*
X0187126Y0012393D01*
X0186998Y0012486D01*
X0186872Y0012582D01*
X0186749Y0012682D01*
X0186628Y0012784D01*
X0186510Y0012889D01*
X0186395Y0012998D01*
X0186282Y0013109D01*
X0186172Y0013223D01*
X0186065Y0013340D01*
X0185961Y0013459D01*
X0185860Y0013581D01*
X0185763Y0013706D01*
X0185668Y0013833D01*
X0185577Y0013962D01*
X0185488Y0014093D01*
X0185404Y0014227D01*
X0185322Y0014363D01*
X0185244Y0014500D01*
X0185170Y0014640D01*
X0185099Y0014782D01*
X0185031Y0014925D01*
X0184967Y0015070D01*
X0184907Y0015216D01*
X0184851Y0015364D01*
X0184798Y0015513D01*
X0184749Y0015664D01*
X0184704Y0015816D01*
X0184663Y0015969D01*
X0184625Y0016122D01*
X0184592Y0016277D01*
X0184562Y0016433D01*
X0184536Y0016589D01*
X0184515Y0016746D01*
X0184497Y0016903D01*
X0184483Y0017061D01*
X0184473Y0017219D01*
X0184467Y0017377D01*
X0184465Y0017535D01*
X0190764Y0005724D02*
X0191049Y0005727D01*
X0191335Y0005738D01*
X0191620Y0005755D01*
X0191904Y0005779D01*
X0192188Y0005810D01*
X0192471Y0005848D01*
X0192752Y0005893D01*
X0193033Y0005944D01*
X0193313Y0006002D01*
X0193591Y0006067D01*
X0193867Y0006139D01*
X0194141Y0006217D01*
X0194414Y0006302D01*
X0194684Y0006394D01*
X0194952Y0006492D01*
X0195218Y0006596D01*
X0195481Y0006707D01*
X0195741Y0006824D01*
X0195999Y0006947D01*
X0196253Y0007077D01*
X0196504Y0007213D01*
X0196752Y0007354D01*
X0196996Y0007502D01*
X0197237Y0007655D01*
X0197473Y0007815D01*
X0197706Y0007980D01*
X0197935Y0008150D01*
X0198160Y0008326D01*
X0198380Y0008508D01*
X0198596Y0008694D01*
X0198807Y0008886D01*
X0199014Y0009083D01*
X0199216Y0009285D01*
X0199413Y0009492D01*
X0199605Y0009703D01*
X0199791Y0009919D01*
X0199973Y0010139D01*
X0200149Y0010364D01*
X0200319Y0010593D01*
X0200484Y0010826D01*
X0200644Y0011062D01*
X0200797Y0011303D01*
X0200945Y0011547D01*
X0201086Y0011795D01*
X0201222Y0012046D01*
X0201352Y0012300D01*
X0201475Y0012558D01*
X0201592Y0012818D01*
X0201703Y0013081D01*
X0201807Y0013347D01*
X0201905Y0013615D01*
X0201997Y0013885D01*
X0202082Y0014158D01*
X0202160Y0014432D01*
X0202232Y0014708D01*
X0202297Y0014986D01*
X0202355Y0015266D01*
X0202406Y0015547D01*
X0202451Y0015828D01*
X0202489Y0016111D01*
X0202520Y0016395D01*
X0202544Y0016679D01*
X0202561Y0016964D01*
X0202572Y0017250D01*
X0202575Y0017535D01*
X0190764Y0005724D02*
X0017535Y0005724D01*
X0011236Y0017535D02*
X0011238Y0017693D01*
X0011244Y0017851D01*
X0011254Y0018009D01*
X0011268Y0018167D01*
X0011286Y0018324D01*
X0011307Y0018481D01*
X0011333Y0018637D01*
X0011363Y0018793D01*
X0011396Y0018948D01*
X0011434Y0019101D01*
X0011475Y0019254D01*
X0011520Y0019406D01*
X0011569Y0019557D01*
X0011622Y0019706D01*
X0011678Y0019854D01*
X0011738Y0020000D01*
X0011802Y0020145D01*
X0011870Y0020288D01*
X0011941Y0020430D01*
X0012015Y0020570D01*
X0012093Y0020707D01*
X0012175Y0020843D01*
X0012259Y0020977D01*
X0012348Y0021108D01*
X0012439Y0021237D01*
X0012534Y0021364D01*
X0012631Y0021489D01*
X0012732Y0021611D01*
X0012836Y0021730D01*
X0012943Y0021847D01*
X0013053Y0021961D01*
X0013166Y0022072D01*
X0013281Y0022181D01*
X0013399Y0022286D01*
X0013520Y0022388D01*
X0013643Y0022488D01*
X0013769Y0022584D01*
X0013897Y0022677D01*
X0014027Y0022767D01*
X0014160Y0022853D01*
X0014295Y0022937D01*
X0014431Y0023016D01*
X0014570Y0023093D01*
X0014711Y0023165D01*
X0014853Y0023235D01*
X0014997Y0023300D01*
X0015143Y0023362D01*
X0015290Y0023420D01*
X0015439Y0023475D01*
X0015589Y0023526D01*
X0015740Y0023573D01*
X0015892Y0023616D01*
X0016045Y0023655D01*
X0016200Y0023691D01*
X0016355Y0023722D01*
X0016511Y0023750D01*
X0016667Y0023774D01*
X0016824Y0023794D01*
X0016982Y0023810D01*
X0017139Y0023822D01*
X0017298Y0023830D01*
X0017456Y0023834D01*
X0017614Y0023834D01*
X0017772Y0023830D01*
X0017931Y0023822D01*
X0018088Y0023810D01*
X0018246Y0023794D01*
X0018403Y0023774D01*
X0018559Y0023750D01*
X0018715Y0023722D01*
X0018870Y0023691D01*
X0019025Y0023655D01*
X0019178Y0023616D01*
X0019330Y0023573D01*
X0019481Y0023526D01*
X0019631Y0023475D01*
X0019780Y0023420D01*
X0019927Y0023362D01*
X0020073Y0023300D01*
X0020217Y0023235D01*
X0020359Y0023165D01*
X0020500Y0023093D01*
X0020639Y0023016D01*
X0020775Y0022937D01*
X0020910Y0022853D01*
X0021043Y0022767D01*
X0021173Y0022677D01*
X0021301Y0022584D01*
X0021427Y0022488D01*
X0021550Y0022388D01*
X0021671Y0022286D01*
X0021789Y0022181D01*
X0021904Y0022072D01*
X0022017Y0021961D01*
X0022127Y0021847D01*
X0022234Y0021730D01*
X0022338Y0021611D01*
X0022439Y0021489D01*
X0022536Y0021364D01*
X0022631Y0021237D01*
X0022722Y0021108D01*
X0022811Y0020977D01*
X0022895Y0020843D01*
X0022977Y0020707D01*
X0023055Y0020570D01*
X0023129Y0020430D01*
X0023200Y0020288D01*
X0023268Y0020145D01*
X0023332Y0020000D01*
X0023392Y0019854D01*
X0023448Y0019706D01*
X0023501Y0019557D01*
X0023550Y0019406D01*
X0023595Y0019254D01*
X0023636Y0019101D01*
X0023674Y0018948D01*
X0023707Y0018793D01*
X0023737Y0018637D01*
X0023763Y0018481D01*
X0023784Y0018324D01*
X0023802Y0018167D01*
X0023816Y0018009D01*
X0023826Y0017851D01*
X0023832Y0017693D01*
X0023834Y0017535D01*
X0023832Y0017377D01*
X0023826Y0017219D01*
X0023816Y0017061D01*
X0023802Y0016903D01*
X0023784Y0016746D01*
X0023763Y0016589D01*
X0023737Y0016433D01*
X0023707Y0016277D01*
X0023674Y0016122D01*
X0023636Y0015969D01*
X0023595Y0015816D01*
X0023550Y0015664D01*
X0023501Y0015513D01*
X0023448Y0015364D01*
X0023392Y0015216D01*
X0023332Y0015070D01*
X0023268Y0014925D01*
X0023200Y0014782D01*
X0023129Y0014640D01*
X0023055Y0014500D01*
X0022977Y0014363D01*
X0022895Y0014227D01*
X0022811Y0014093D01*
X0022722Y0013962D01*
X0022631Y0013833D01*
X0022536Y0013706D01*
X0022439Y0013581D01*
X0022338Y0013459D01*
X0022234Y0013340D01*
X0022127Y0013223D01*
X0022017Y0013109D01*
X0021904Y0012998D01*
X0021789Y0012889D01*
X0021671Y0012784D01*
X0021550Y0012682D01*
X0021427Y0012582D01*
X0021301Y0012486D01*
X0021173Y0012393D01*
X0021043Y0012303D01*
X0020910Y0012217D01*
X0020775Y0012133D01*
X0020639Y0012054D01*
X0020500Y0011977D01*
X0020359Y0011905D01*
X0020217Y0011835D01*
X0020073Y0011770D01*
X0019927Y0011708D01*
X0019780Y0011650D01*
X0019631Y0011595D01*
X0019481Y0011544D01*
X0019330Y0011497D01*
X0019178Y0011454D01*
X0019025Y0011415D01*
X0018870Y0011379D01*
X0018715Y0011348D01*
X0018559Y0011320D01*
X0018403Y0011296D01*
X0018246Y0011276D01*
X0018088Y0011260D01*
X0017931Y0011248D01*
X0017772Y0011240D01*
X0017614Y0011236D01*
X0017456Y0011236D01*
X0017298Y0011240D01*
X0017139Y0011248D01*
X0016982Y0011260D01*
X0016824Y0011276D01*
X0016667Y0011296D01*
X0016511Y0011320D01*
X0016355Y0011348D01*
X0016200Y0011379D01*
X0016045Y0011415D01*
X0015892Y0011454D01*
X0015740Y0011497D01*
X0015589Y0011544D01*
X0015439Y0011595D01*
X0015290Y0011650D01*
X0015143Y0011708D01*
X0014997Y0011770D01*
X0014853Y0011835D01*
X0014711Y0011905D01*
X0014570Y0011977D01*
X0014431Y0012054D01*
X0014295Y0012133D01*
X0014160Y0012217D01*
X0014027Y0012303D01*
X0013897Y0012393D01*
X0013769Y0012486D01*
X0013643Y0012582D01*
X0013520Y0012682D01*
X0013399Y0012784D01*
X0013281Y0012889D01*
X0013166Y0012998D01*
X0013053Y0013109D01*
X0012943Y0013223D01*
X0012836Y0013340D01*
X0012732Y0013459D01*
X0012631Y0013581D01*
X0012534Y0013706D01*
X0012439Y0013833D01*
X0012348Y0013962D01*
X0012259Y0014093D01*
X0012175Y0014227D01*
X0012093Y0014363D01*
X0012015Y0014500D01*
X0011941Y0014640D01*
X0011870Y0014782D01*
X0011802Y0014925D01*
X0011738Y0015070D01*
X0011678Y0015216D01*
X0011622Y0015364D01*
X0011569Y0015513D01*
X0011520Y0015664D01*
X0011475Y0015816D01*
X0011434Y0015969D01*
X0011396Y0016122D01*
X0011363Y0016277D01*
X0011333Y0016433D01*
X0011307Y0016589D01*
X0011286Y0016746D01*
X0011268Y0016903D01*
X0011254Y0017061D01*
X0011244Y0017219D01*
X0011238Y0017377D01*
X0011236Y0017535D01*
X0005724Y0017535D02*
X0005727Y0017250D01*
X0005738Y0016964D01*
X0005755Y0016679D01*
X0005779Y0016395D01*
X0005810Y0016111D01*
X0005848Y0015828D01*
X0005893Y0015547D01*
X0005944Y0015266D01*
X0006002Y0014986D01*
X0006067Y0014708D01*
X0006139Y0014432D01*
X0006217Y0014158D01*
X0006302Y0013885D01*
X0006394Y0013615D01*
X0006492Y0013347D01*
X0006596Y0013081D01*
X0006707Y0012818D01*
X0006824Y0012558D01*
X0006947Y0012300D01*
X0007077Y0012046D01*
X0007213Y0011795D01*
X0007354Y0011547D01*
X0007502Y0011303D01*
X0007655Y0011062D01*
X0007815Y0010826D01*
X0007980Y0010593D01*
X0008150Y0010364D01*
X0008326Y0010139D01*
X0008508Y0009919D01*
X0008694Y0009703D01*
X0008886Y0009492D01*
X0009083Y0009285D01*
X0009285Y0009083D01*
X0009492Y0008886D01*
X0009703Y0008694D01*
X0009919Y0008508D01*
X0010139Y0008326D01*
X0010364Y0008150D01*
X0010593Y0007980D01*
X0010826Y0007815D01*
X0011062Y0007655D01*
X0011303Y0007502D01*
X0011547Y0007354D01*
X0011795Y0007213D01*
X0012046Y0007077D01*
X0012300Y0006947D01*
X0012558Y0006824D01*
X0012818Y0006707D01*
X0013081Y0006596D01*
X0013347Y0006492D01*
X0013615Y0006394D01*
X0013885Y0006302D01*
X0014158Y0006217D01*
X0014432Y0006139D01*
X0014708Y0006067D01*
X0014986Y0006002D01*
X0015266Y0005944D01*
X0015547Y0005893D01*
X0015828Y0005848D01*
X0016111Y0005810D01*
X0016395Y0005779D01*
X0016679Y0005755D01*
X0016964Y0005738D01*
X0017250Y0005727D01*
X0017535Y0005724D01*
D11*
X0036174Y0011174D02*
X0038088Y0011174D01*
X0038726Y0011812D01*
X0038726Y0014364D01*
X0038088Y0015002D01*
X0036174Y0015002D01*
X0036174Y0011174D01*
X0040525Y0011174D02*
X0043076Y0013726D01*
X0043076Y0014364D01*
X0042438Y0015002D01*
X0041163Y0015002D01*
X0040525Y0014364D01*
X0040525Y0011174D02*
X0043076Y0011174D01*
X0083674Y0029502D02*
X0086226Y0029502D01*
X0084950Y0029502D02*
X0084950Y0025674D01*
X0088025Y0025674D02*
X0088025Y0029502D01*
X0089938Y0029502D01*
X0090576Y0028864D01*
X0090576Y0027588D01*
X0089938Y0026950D01*
X0088025Y0026950D01*
X0089300Y0026950D02*
X0090576Y0025674D01*
X0092375Y0025674D02*
X0094927Y0028226D01*
X0094927Y0028864D01*
X0094289Y0029502D01*
X0093013Y0029502D01*
X0092375Y0028864D01*
X0092375Y0025674D02*
X0094927Y0025674D01*
X0098084Y0012597D02*
X0099998Y0012597D01*
X0100636Y0011959D01*
X0100636Y0010683D01*
X0099998Y0010045D01*
X0098084Y0010045D01*
X0099360Y0010045D02*
X0100636Y0008769D01*
X0102434Y0009407D02*
X0102434Y0010045D01*
X0103072Y0010683D01*
X0104348Y0010683D01*
X0104986Y0010045D01*
X0104986Y0009407D01*
X0104348Y0008769D01*
X0103072Y0008769D01*
X0102434Y0009407D01*
X0103072Y0010683D02*
X0102434Y0011321D01*
X0102434Y0011959D01*
X0103072Y0012597D01*
X0104348Y0012597D01*
X0104986Y0011959D01*
X0104986Y0011321D01*
X0104348Y0010683D01*
X0098084Y0008769D02*
X0098084Y0012597D01*
X0118556Y0012912D02*
X0118556Y0009084D01*
X0118556Y0010360D02*
X0120470Y0010360D01*
X0121108Y0010998D01*
X0121108Y0012274D01*
X0120470Y0012912D01*
X0118556Y0012912D01*
X0119832Y0010360D02*
X0121108Y0009084D01*
X0122906Y0009722D02*
X0123544Y0009084D01*
X0124820Y0009084D01*
X0125458Y0009722D01*
X0125458Y0012274D01*
X0124820Y0012912D01*
X0123544Y0012912D01*
X0122906Y0012274D01*
X0122906Y0011636D01*
X0123544Y0010998D01*
X0125458Y0010998D01*
X0136667Y0009887D02*
X0138580Y0009887D01*
X0139218Y0010525D01*
X0139218Y0011801D01*
X0138580Y0012439D01*
X0136667Y0012439D01*
X0136667Y0008611D01*
X0137942Y0009887D02*
X0139218Y0008611D01*
X0141017Y0008611D02*
X0143568Y0008611D01*
X0142293Y0008611D02*
X0142293Y0012439D01*
X0141017Y0011163D01*
X0145367Y0011801D02*
X0145367Y0009249D01*
X0147919Y0011801D01*
X0147919Y0009249D01*
X0147281Y0008611D01*
X0146005Y0008611D01*
X0145367Y0009249D01*
X0145367Y0011801D02*
X0146005Y0012439D01*
X0147281Y0012439D01*
X0147919Y0011801D01*
X0157352Y0011967D02*
X0157352Y0008139D01*
X0157352Y0009415D02*
X0159265Y0009415D01*
X0159903Y0010053D01*
X0159903Y0011329D01*
X0159265Y0011967D01*
X0157352Y0011967D01*
X0158627Y0009415D02*
X0159903Y0008139D01*
X0161702Y0008139D02*
X0164254Y0008139D01*
X0162978Y0008139D02*
X0162978Y0011967D01*
X0161702Y0010691D01*
X0166052Y0010691D02*
X0167328Y0011967D01*
X0167328Y0008139D01*
X0166052Y0008139D02*
X0168604Y0008139D01*
X0170722Y0040545D02*
X0174550Y0040545D01*
X0174550Y0043097D01*
X0174550Y0044896D02*
X0174550Y0047447D01*
X0174550Y0049246D02*
X0174550Y0051160D01*
X0173912Y0051798D01*
X0171360Y0051798D01*
X0170722Y0051160D01*
X0170722Y0049246D01*
X0174550Y0049246D01*
X0172636Y0046171D02*
X0172636Y0044896D01*
X0170722Y0044896D02*
X0174550Y0044896D01*
X0170722Y0044896D02*
X0170722Y0047447D01*
X0172636Y0053596D02*
X0170722Y0055510D01*
X0174550Y0055510D01*
X0172636Y0056148D02*
X0172636Y0053596D01*
X0154763Y0054021D02*
X0154125Y0053383D01*
X0154763Y0054021D02*
X0154763Y0055297D01*
X0154125Y0055935D01*
X0153487Y0055935D01*
X0152849Y0055297D01*
X0152849Y0054659D01*
X0152849Y0055297D02*
X0152211Y0055935D01*
X0151573Y0055935D01*
X0150935Y0055297D01*
X0150935Y0054021D01*
X0151573Y0053383D01*
X0151573Y0051585D02*
X0150935Y0050947D01*
X0150935Y0049033D01*
X0154763Y0049033D01*
X0154763Y0050947D01*
X0154125Y0051585D01*
X0151573Y0051585D01*
X0150935Y0047235D02*
X0150935Y0044683D01*
X0154763Y0044683D01*
X0154763Y0047235D01*
X0152849Y0045959D02*
X0152849Y0044683D01*
X0154763Y0042885D02*
X0154763Y0040333D01*
X0150935Y0040333D01*
X0134763Y0040333D02*
X0134763Y0042885D01*
X0134763Y0044683D02*
X0134763Y0047235D01*
X0134763Y0049033D02*
X0134763Y0050947D01*
X0134125Y0051585D01*
X0131573Y0051585D01*
X0130935Y0050947D01*
X0130935Y0049033D01*
X0134763Y0049033D01*
X0132849Y0045959D02*
X0132849Y0044683D01*
X0130935Y0044683D02*
X0134763Y0044683D01*
X0130935Y0044683D02*
X0130935Y0047235D01*
X0131573Y0053383D02*
X0130935Y0054021D01*
X0130935Y0055297D01*
X0131573Y0055935D01*
X0132211Y0055935D01*
X0134763Y0053383D01*
X0134763Y0055935D01*
X0120616Y0068399D02*
X0118064Y0068399D01*
X0119340Y0068399D02*
X0119340Y0072226D01*
X0118064Y0070951D01*
X0116266Y0071589D02*
X0116266Y0070313D01*
X0115628Y0069675D01*
X0113714Y0069675D01*
X0114990Y0069675D02*
X0116266Y0068399D01*
X0113714Y0068399D02*
X0113714Y0072226D01*
X0115628Y0072226D01*
X0116266Y0071589D01*
X0115447Y0077525D02*
X0115447Y0078801D01*
X0115447Y0078163D02*
X0119274Y0078163D01*
X0119274Y0077525D02*
X0119274Y0078801D01*
X0118636Y0080425D02*
X0116085Y0080425D01*
X0115447Y0081063D01*
X0115447Y0082339D01*
X0116085Y0082977D01*
X0116723Y0084775D02*
X0115447Y0086051D01*
X0119274Y0086051D01*
X0119274Y0084775D02*
X0119274Y0087327D01*
X0118636Y0082977D02*
X0119274Y0082339D01*
X0119274Y0081063D01*
X0118636Y0080425D01*
X0134365Y0089639D02*
X0134365Y0093467D01*
X0135641Y0092191D01*
X0136917Y0093467D01*
X0136917Y0089639D01*
X0138715Y0090277D02*
X0139353Y0089639D01*
X0140629Y0089639D01*
X0141267Y0090277D01*
X0143065Y0090915D02*
X0144979Y0090915D01*
X0145617Y0091553D01*
X0145617Y0092829D01*
X0144979Y0093467D01*
X0143065Y0093467D01*
X0143065Y0089639D01*
X0141267Y0092829D02*
X0140629Y0093467D01*
X0139353Y0093467D01*
X0138715Y0092829D01*
X0138715Y0090277D01*
X0147416Y0089639D02*
X0149967Y0092191D01*
X0149967Y0092829D01*
X0149329Y0093467D01*
X0148054Y0093467D01*
X0147416Y0092829D01*
X0147416Y0089639D02*
X0149967Y0089639D01*
X0151766Y0089639D02*
X0154318Y0092191D01*
X0154318Y0092829D01*
X0153680Y0093467D01*
X0152404Y0093467D01*
X0151766Y0092829D01*
X0151766Y0089639D02*
X0154318Y0089639D01*
X0156116Y0089639D02*
X0158668Y0092191D01*
X0158668Y0092829D01*
X0158030Y0093467D01*
X0156754Y0093467D01*
X0156116Y0092829D01*
X0156116Y0089639D02*
X0158668Y0089639D01*
X0160466Y0089639D02*
X0163018Y0089639D01*
X0161742Y0089639D02*
X0161742Y0093467D01*
X0160466Y0092191D01*
X0164816Y0092191D02*
X0164816Y0089639D01*
X0164816Y0091553D02*
X0167368Y0091553D01*
X0167368Y0092191D02*
X0167368Y0089639D01*
X0167368Y0092191D02*
X0166092Y0093467D01*
X0164816Y0092191D01*
X0193199Y0108801D02*
X0193837Y0108163D01*
X0196388Y0108163D01*
X0197026Y0108801D01*
X0197026Y0110076D01*
X0196388Y0110714D01*
X0197026Y0112513D02*
X0197026Y0115065D01*
X0197026Y0113789D02*
X0193199Y0113789D01*
X0194475Y0112513D01*
X0193837Y0110714D02*
X0193199Y0110076D01*
X0193199Y0108801D01*
X0185163Y0125938D02*
X0185163Y0128490D01*
X0183888Y0129766D01*
X0182612Y0128490D01*
X0182612Y0125938D01*
X0180813Y0126576D02*
X0180813Y0129128D01*
X0180175Y0129766D01*
X0178261Y0129766D01*
X0178261Y0125938D01*
X0180175Y0125938D01*
X0180813Y0126576D01*
X0182612Y0127852D02*
X0185163Y0127852D01*
X0185163Y0135938D02*
X0182612Y0135938D01*
X0182612Y0139766D01*
X0180813Y0139128D02*
X0180175Y0139766D01*
X0178899Y0139766D01*
X0178261Y0139128D01*
X0178261Y0136576D01*
X0178899Y0135938D01*
X0180175Y0135938D01*
X0180813Y0136576D01*
X0176463Y0136576D02*
X0175825Y0135938D01*
X0174549Y0135938D01*
X0173911Y0136576D01*
X0174549Y0137852D02*
X0173911Y0138490D01*
X0173911Y0139128D01*
X0174549Y0139766D01*
X0175825Y0139766D01*
X0176463Y0139128D01*
X0175825Y0137852D02*
X0176463Y0137214D01*
X0176463Y0136576D01*
X0175825Y0137852D02*
X0174549Y0137852D01*
X0174549Y0129766D02*
X0173911Y0129128D01*
X0173911Y0128490D01*
X0174549Y0127852D01*
X0175825Y0127852D01*
X0176463Y0127214D01*
X0176463Y0126576D01*
X0175825Y0125938D01*
X0174549Y0125938D01*
X0173911Y0126576D01*
X0174549Y0129766D02*
X0175825Y0129766D01*
X0176463Y0129128D01*
X0178899Y0145938D02*
X0178261Y0146576D01*
X0178899Y0145938D02*
X0180175Y0145938D01*
X0180813Y0146576D01*
X0180813Y0147852D01*
X0180175Y0148490D01*
X0179537Y0148490D01*
X0178261Y0147852D01*
X0178261Y0149766D01*
X0180813Y0149766D01*
X0182612Y0149766D02*
X0182612Y0147214D01*
X0183888Y0145938D01*
X0185163Y0147214D01*
X0185163Y0149766D01*
X0183738Y0155938D02*
X0181824Y0155938D01*
X0181824Y0159766D01*
X0183738Y0159766D01*
X0184376Y0159128D01*
X0184376Y0156576D01*
X0183738Y0155938D01*
X0180026Y0155938D02*
X0180026Y0159766D01*
X0177474Y0159766D02*
X0180026Y0155938D01*
X0177474Y0155938D02*
X0177474Y0159766D01*
X0175676Y0159128D02*
X0175038Y0159766D01*
X0173762Y0159766D01*
X0173124Y0159128D01*
X0173124Y0156576D01*
X0173762Y0155938D01*
X0175038Y0155938D01*
X0175676Y0156576D01*
X0175676Y0157852D01*
X0174400Y0157852D01*
X0175187Y0149128D02*
X0175187Y0146576D01*
X0173911Y0147852D02*
X0176463Y0147852D01*
X0156089Y0142438D02*
X0153537Y0142438D01*
X0154813Y0142438D02*
X0154813Y0146266D01*
X0153537Y0144990D01*
X0151738Y0146266D02*
X0149187Y0146266D01*
X0149187Y0142438D01*
X0149187Y0144352D02*
X0150463Y0144352D01*
X0117499Y0135726D02*
X0117499Y0133175D01*
X0114947Y0135726D01*
X0114309Y0135726D01*
X0113671Y0135088D01*
X0113671Y0133813D01*
X0114309Y0133175D01*
X0114309Y0131376D02*
X0113671Y0130738D01*
X0113671Y0129462D01*
X0114309Y0128824D01*
X0116861Y0128824D01*
X0117499Y0129462D01*
X0117499Y0130738D01*
X0116861Y0131376D01*
X0111534Y0116049D02*
X0110896Y0116049D01*
X0110896Y0113497D01*
X0111534Y0111699D02*
X0112809Y0111699D01*
X0113447Y0111061D01*
X0113447Y0109147D01*
X0113447Y0110423D02*
X0114723Y0111699D01*
X0114723Y0113497D02*
X0114085Y0113497D01*
X0111534Y0116049D01*
X0111534Y0111699D02*
X0110896Y0111061D01*
X0110896Y0109147D01*
X0114723Y0109147D01*
X0105511Y0109934D02*
X0101683Y0109934D01*
X0101683Y0111848D01*
X0102321Y0112486D01*
X0103597Y0112486D01*
X0104235Y0111848D01*
X0104235Y0109934D01*
X0104235Y0111210D02*
X0105511Y0112486D01*
X0104873Y0114284D02*
X0105511Y0114922D01*
X0105511Y0116198D01*
X0104873Y0116836D01*
X0104235Y0116836D01*
X0103597Y0116198D01*
X0103597Y0114284D01*
X0104873Y0114284D01*
X0103597Y0114284D02*
X0102321Y0115560D01*
X0101683Y0116836D01*
X0096927Y0117674D02*
X0094375Y0117674D01*
X0095651Y0117674D02*
X0095651Y0121502D01*
X0094375Y0120226D01*
X0092576Y0120864D02*
X0092576Y0119588D01*
X0091938Y0118950D01*
X0090025Y0118950D01*
X0091300Y0118950D02*
X0092576Y0117674D01*
X0090025Y0117674D02*
X0090025Y0121502D01*
X0091938Y0121502D01*
X0092576Y0120864D01*
X0088226Y0121502D02*
X0085674Y0121502D01*
X0086950Y0121502D02*
X0086950Y0117674D01*
X0086652Y0097715D02*
X0086652Y0095163D01*
X0084101Y0097715D01*
X0083463Y0097715D01*
X0082825Y0097077D01*
X0082825Y0095801D01*
X0083463Y0095163D01*
X0086652Y0093364D02*
X0086652Y0090813D01*
X0082825Y0090813D01*
X0083463Y0089014D02*
X0084739Y0089014D01*
X0085376Y0088376D01*
X0085376Y0086462D01*
X0085376Y0087738D02*
X0086652Y0089014D01*
X0086652Y0086462D02*
X0082825Y0086462D01*
X0082825Y0088376D01*
X0083463Y0089014D01*
X0114763Y0056148D02*
X0114763Y0053596D01*
X0114763Y0054872D02*
X0110935Y0054872D01*
X0112211Y0053596D01*
X0111573Y0051798D02*
X0110935Y0051160D01*
X0110935Y0049246D01*
X0114763Y0049246D01*
X0114763Y0051160D01*
X0114125Y0051798D01*
X0111573Y0051798D01*
X0110935Y0047447D02*
X0110935Y0044896D01*
X0114763Y0044896D01*
X0114763Y0047447D01*
X0112849Y0046171D02*
X0112849Y0044896D01*
X0114763Y0043097D02*
X0114763Y0040545D01*
X0110935Y0040545D01*
X0130935Y0040333D02*
X0134763Y0040333D01*
X0045076Y0103174D02*
X0042525Y0103174D01*
X0043800Y0103174D02*
X0043800Y0107002D01*
X0042525Y0105726D01*
X0040726Y0106364D02*
X0040726Y0103812D01*
X0040088Y0103174D01*
X0038174Y0103174D01*
X0038174Y0107002D01*
X0040088Y0107002D01*
X0040726Y0106364D01*
X0082825Y0165462D02*
X0082825Y0167376D01*
X0083463Y0168014D01*
X0084739Y0168014D01*
X0085376Y0167376D01*
X0085376Y0165462D01*
X0085376Y0166738D02*
X0086652Y0168014D01*
X0086652Y0169813D02*
X0086652Y0172364D01*
X0086652Y0174163D02*
X0086652Y0176715D01*
X0086652Y0175439D02*
X0082825Y0175439D01*
X0084101Y0174163D01*
X0082825Y0169813D02*
X0086652Y0169813D01*
X0086652Y0165462D02*
X0082825Y0165462D01*
D12*
X0105385Y0192392D02*
X0106170Y0192392D01*
X0106955Y0193177D01*
X0106955Y0197102D01*
X0103815Y0197102D02*
X0103815Y0194747D01*
X0104600Y0193962D01*
X0106955Y0193962D01*
X0101517Y0193962D02*
X0099162Y0193962D01*
X0098377Y0194747D01*
X0099162Y0195532D01*
X0101517Y0195532D01*
X0101517Y0196317D02*
X0101517Y0193962D01*
X0101517Y0196317D02*
X0100732Y0197102D01*
X0099162Y0197102D01*
X0095537Y0198672D02*
X0095537Y0193962D01*
X0094752Y0193962D02*
X0096322Y0193962D01*
X0092454Y0195532D02*
X0089314Y0195532D01*
X0089314Y0194747D02*
X0089314Y0196317D01*
X0090099Y0197102D01*
X0091669Y0197102D01*
X0092454Y0196317D01*
X0092454Y0195532D01*
X0091669Y0193962D02*
X0090099Y0193962D01*
X0089314Y0194747D01*
X0087016Y0193962D02*
X0085446Y0195532D01*
X0086231Y0195532D02*
X0083877Y0195532D01*
X0083877Y0193962D02*
X0083877Y0198672D01*
X0086231Y0198672D01*
X0087016Y0197887D01*
X0087016Y0196317D01*
X0086231Y0195532D01*
X0081579Y0196317D02*
X0078439Y0196317D01*
X0076141Y0197102D02*
X0075356Y0196317D01*
X0073001Y0196317D01*
X0073001Y0193962D02*
X0073001Y0198672D01*
X0075356Y0198672D01*
X0076141Y0197887D01*
X0076141Y0197102D01*
X0075356Y0196317D02*
X0076141Y0195532D01*
X0076141Y0194747D01*
X0075356Y0193962D01*
X0073001Y0193962D01*
X0070703Y0194747D02*
X0070703Y0195532D01*
X0069918Y0196317D01*
X0068348Y0196317D01*
X0067563Y0197102D01*
X0067563Y0197887D01*
X0068348Y0198672D01*
X0069918Y0198672D01*
X0070703Y0197887D01*
X0070703Y0194747D02*
X0069918Y0193962D01*
X0068348Y0193962D01*
X0067563Y0194747D01*
X0065265Y0194747D02*
X0065265Y0198672D01*
X0062126Y0198672D02*
X0062126Y0194747D01*
X0062911Y0193962D01*
X0064480Y0193962D01*
X0065265Y0194747D01*
X0059828Y0196317D02*
X0056688Y0196317D01*
X0054390Y0193962D02*
X0054390Y0198672D01*
X0051250Y0198672D02*
X0054390Y0193962D01*
X0051250Y0193962D02*
X0051250Y0198672D01*
X0048952Y0197102D02*
X0048952Y0193962D01*
X0048952Y0196317D02*
X0045813Y0196317D01*
X0045813Y0197102D02*
X0045813Y0193962D01*
X0045813Y0197102D02*
X0047382Y0198672D01*
X0048952Y0197102D01*
X0094752Y0198672D02*
X0095537Y0198672D01*
D13*
X0094025Y0191366D02*
X0094548Y0190843D01*
X0092455Y0188750D01*
X0092978Y0188227D01*
X0094025Y0188227D01*
X0094548Y0188750D01*
X0094548Y0190843D01*
X0094025Y0191366D02*
X0092978Y0191366D01*
X0092455Y0190843D01*
X0092455Y0188750D01*
X0091166Y0188750D02*
X0091166Y0188227D01*
X0090642Y0188227D01*
X0090642Y0188750D01*
X0091166Y0188750D01*
X0089110Y0188227D02*
X0087017Y0188227D01*
X0088064Y0188227D02*
X0088064Y0191366D01*
X0087017Y0190320D01*
X0085485Y0190320D02*
X0084439Y0188227D01*
X0083392Y0190320D01*
X0099705Y0190843D02*
X0100229Y0191366D01*
X0101275Y0191366D01*
X0101798Y0190843D01*
X0101798Y0190320D01*
X0099705Y0188227D01*
X0101798Y0188227D01*
X0103330Y0188750D02*
X0105423Y0190843D01*
X0105423Y0188750D01*
X0104900Y0188227D01*
X0103854Y0188227D01*
X0103330Y0188750D01*
X0103330Y0190843D01*
X0103854Y0191366D01*
X0104900Y0191366D01*
X0105423Y0190843D01*
X0106955Y0190320D02*
X0108002Y0191366D01*
X0108002Y0188227D01*
X0106955Y0188227D02*
X0109049Y0188227D01*
X0110581Y0188750D02*
X0110581Y0189273D01*
X0111104Y0189797D01*
X0112150Y0189797D01*
X0112674Y0189273D01*
X0112674Y0188750D01*
X0112150Y0188227D01*
X0111104Y0188227D01*
X0110581Y0188750D01*
X0111104Y0189797D02*
X0110581Y0190320D01*
X0110581Y0190843D01*
X0111104Y0191366D01*
X0112150Y0191366D01*
X0112674Y0190843D01*
X0112674Y0190320D01*
X0112150Y0189797D01*
X0114206Y0188227D02*
X0116299Y0191366D01*
X0115986Y0185366D02*
X0113893Y0185366D01*
X0112361Y0184843D02*
X0112361Y0182750D01*
X0111837Y0182227D01*
X0110791Y0182227D01*
X0110268Y0182750D01*
X0112361Y0184843D01*
X0111837Y0185366D01*
X0110791Y0185366D01*
X0110268Y0184843D01*
X0110268Y0182750D01*
X0108736Y0185366D02*
X0106642Y0182227D01*
X0105110Y0182750D02*
X0104587Y0182227D01*
X0103541Y0182227D01*
X0103017Y0182750D01*
X0104064Y0183797D02*
X0104587Y0183797D01*
X0105110Y0183273D01*
X0105110Y0182750D01*
X0104587Y0183797D02*
X0105110Y0184320D01*
X0105110Y0184843D01*
X0104587Y0185366D01*
X0103541Y0185366D01*
X0103017Y0184843D01*
X0101485Y0184843D02*
X0101485Y0182750D01*
X0100962Y0182227D01*
X0099915Y0182227D01*
X0099392Y0182750D01*
X0101485Y0184843D01*
X0100962Y0185366D01*
X0099915Y0185366D01*
X0099392Y0184843D01*
X0099392Y0182750D01*
X0113893Y0182750D02*
X0113893Y0182227D01*
X0113893Y0182750D02*
X0115986Y0184843D01*
X0115986Y0185366D01*
X0084224Y0145970D02*
X0084224Y0129478D01*
X0100724Y0135224D02*
X0100781Y0135499D01*
X0100832Y0135776D01*
X0100876Y0136054D01*
X0100914Y0136332D01*
X0100944Y0136612D01*
X0100968Y0136892D01*
X0100985Y0137173D01*
X0100995Y0137454D01*
X0100998Y0137735D01*
X0100994Y0138016D01*
X0100984Y0138297D01*
X0100966Y0138578D01*
X0100942Y0138858D01*
X0100911Y0139137D01*
X0100873Y0139416D01*
X0100828Y0139694D01*
X0100777Y0139970D01*
X0100719Y0140245D01*
X0100654Y0140519D01*
X0100582Y0140791D01*
X0100504Y0141061D01*
X0100420Y0141329D01*
X0100328Y0141595D01*
X0100231Y0141859D01*
X0100127Y0142120D01*
X0100016Y0142379D01*
X0099899Y0142635D01*
X0099776Y0142888D01*
X0099647Y0143137D01*
X0099512Y0143384D01*
X0099371Y0143627D01*
X0099224Y0143867D01*
X0099071Y0144103D01*
X0098913Y0144335D01*
X0098749Y0144564D01*
X0098579Y0144788D01*
X0098404Y0145008D01*
X0098224Y0145224D01*
X0100724Y0135224D02*
X0100659Y0134949D01*
X0100588Y0134676D01*
X0100510Y0134405D01*
X0100425Y0134135D01*
X0100334Y0133868D01*
X0100236Y0133603D01*
X0100132Y0133341D01*
X0100021Y0133081D01*
X0099905Y0132824D01*
X0099781Y0132570D01*
X0099652Y0132319D01*
X0099517Y0132072D01*
X0099375Y0131827D01*
X0099228Y0131587D01*
X0099074Y0131350D01*
X0098915Y0131116D01*
X0098751Y0130887D01*
X0098580Y0130662D01*
X0098405Y0130441D01*
X0098224Y0130224D01*
X0100724Y0135224D02*
X0100781Y0135498D01*
X0100832Y0135773D01*
X0100876Y0136050D01*
X0100913Y0136327D01*
X0100944Y0136606D01*
X0100967Y0136885D01*
X0100984Y0137164D01*
X0100995Y0137444D01*
X0100998Y0137724D01*
X0100995Y0138004D01*
X0100984Y0138284D01*
X0100967Y0138563D01*
X0100944Y0138842D01*
X0100913Y0139121D01*
X0100876Y0139398D01*
X0100832Y0139675D01*
X0100781Y0139950D01*
X0100724Y0140224D01*
X0082224Y0054970D02*
X0082224Y0038478D01*
X0098724Y0044224D02*
X0098781Y0044499D01*
X0098832Y0044776D01*
X0098876Y0045054D01*
X0098914Y0045332D01*
X0098944Y0045612D01*
X0098968Y0045892D01*
X0098985Y0046173D01*
X0098995Y0046454D01*
X0098998Y0046735D01*
X0098994Y0047016D01*
X0098984Y0047297D01*
X0098966Y0047578D01*
X0098942Y0047858D01*
X0098911Y0048137D01*
X0098873Y0048416D01*
X0098828Y0048694D01*
X0098777Y0048970D01*
X0098719Y0049245D01*
X0098654Y0049519D01*
X0098582Y0049791D01*
X0098504Y0050061D01*
X0098420Y0050329D01*
X0098328Y0050595D01*
X0098231Y0050859D01*
X0098127Y0051120D01*
X0098016Y0051379D01*
X0097899Y0051635D01*
X0097776Y0051888D01*
X0097647Y0052137D01*
X0097512Y0052384D01*
X0097371Y0052627D01*
X0097224Y0052867D01*
X0097071Y0053103D01*
X0096913Y0053335D01*
X0096749Y0053564D01*
X0096579Y0053788D01*
X0096404Y0054008D01*
X0096224Y0054224D01*
X0098724Y0044224D02*
X0098659Y0043949D01*
X0098588Y0043676D01*
X0098510Y0043405D01*
X0098425Y0043135D01*
X0098334Y0042868D01*
X0098236Y0042603D01*
X0098132Y0042341D01*
X0098021Y0042081D01*
X0097905Y0041824D01*
X0097781Y0041570D01*
X0097652Y0041319D01*
X0097517Y0041072D01*
X0097375Y0040827D01*
X0097228Y0040587D01*
X0097074Y0040350D01*
X0096915Y0040116D01*
X0096751Y0039887D01*
X0096580Y0039662D01*
X0096405Y0039441D01*
X0096224Y0039224D01*
X0098724Y0044224D02*
X0098781Y0044498D01*
X0098832Y0044773D01*
X0098876Y0045050D01*
X0098913Y0045327D01*
X0098944Y0045606D01*
X0098967Y0045885D01*
X0098984Y0046164D01*
X0098995Y0046444D01*
X0098998Y0046724D01*
X0098995Y0047004D01*
X0098984Y0047284D01*
X0098967Y0047563D01*
X0098944Y0047842D01*
X0098913Y0048121D01*
X0098876Y0048398D01*
X0098832Y0048675D01*
X0098781Y0048950D01*
X0098724Y0049224D01*
D14*
X0022632Y0041001D02*
X0022632Y0038057D01*
X0022632Y0039529D02*
X0013801Y0039529D01*
X0013801Y0038057D02*
X0013801Y0041001D01*
X0013801Y0034234D02*
X0013801Y0031291D01*
X0013801Y0032762D02*
X0022632Y0032762D01*
X0022632Y0031291D02*
X0022632Y0034234D01*
X0022632Y0113057D02*
X0022632Y0116001D01*
X0022632Y0114529D02*
X0013801Y0114529D01*
X0013801Y0113057D02*
X0013801Y0116001D01*
D15*
X0016724Y0094724D02*
X0022724Y0094724D01*
X0019724Y0090724D01*
X0016724Y0094724D01*
X0017121Y0094195D02*
X0022328Y0094195D01*
X0021443Y0093016D02*
X0018006Y0093016D01*
X0018891Y0091836D02*
X0020558Y0091836D01*
X0019724Y0168724D02*
X0022724Y0172724D01*
X0016724Y0172724D01*
X0019724Y0168724D01*
X0019000Y0169691D02*
X0020449Y0169691D01*
X0021334Y0170870D02*
X0018115Y0170870D01*
X0017230Y0172050D02*
X0022219Y0172050D01*
D16*
X0120724Y0112575D02*
X0120724Y0102575D01*
X0120724Y0096575D01*
X0120850Y0096573D01*
X0120975Y0096567D01*
X0121100Y0096557D01*
X0121225Y0096543D01*
X0121350Y0096526D01*
X0121474Y0096504D01*
X0121597Y0096479D01*
X0121719Y0096449D01*
X0121840Y0096416D01*
X0121960Y0096379D01*
X0122079Y0096339D01*
X0122196Y0096294D01*
X0122313Y0096246D01*
X0122427Y0096194D01*
X0122540Y0096139D01*
X0122651Y0096080D01*
X0122760Y0096018D01*
X0122867Y0095952D01*
X0122972Y0095883D01*
X0123075Y0095811D01*
X0123176Y0095736D01*
X0123274Y0095657D01*
X0123369Y0095575D01*
X0123462Y0095491D01*
X0123552Y0095403D01*
X0123640Y0095313D01*
X0123724Y0095220D01*
X0123806Y0095125D01*
X0123885Y0095027D01*
X0123960Y0094926D01*
X0124032Y0094823D01*
X0124101Y0094718D01*
X0124167Y0094611D01*
X0124229Y0094502D01*
X0124288Y0094391D01*
X0124343Y0094278D01*
X0124395Y0094164D01*
X0124443Y0094047D01*
X0124488Y0093930D01*
X0124528Y0093811D01*
X0124565Y0093691D01*
X0124598Y0093570D01*
X0124628Y0093448D01*
X0124653Y0093325D01*
X0124675Y0093201D01*
X0124692Y0093076D01*
X0124706Y0092951D01*
X0124716Y0092826D01*
X0124722Y0092701D01*
X0124724Y0092575D01*
X0124722Y0092449D01*
X0124716Y0092324D01*
X0124706Y0092199D01*
X0124692Y0092074D01*
X0124675Y0091949D01*
X0124653Y0091825D01*
X0124628Y0091702D01*
X0124598Y0091580D01*
X0124565Y0091459D01*
X0124528Y0091339D01*
X0124488Y0091220D01*
X0124443Y0091103D01*
X0124395Y0090986D01*
X0124343Y0090872D01*
X0124288Y0090759D01*
X0124229Y0090648D01*
X0124167Y0090539D01*
X0124101Y0090432D01*
X0124032Y0090327D01*
X0123960Y0090224D01*
X0123885Y0090123D01*
X0123806Y0090025D01*
X0123724Y0089930D01*
X0123640Y0089837D01*
X0123552Y0089747D01*
X0123462Y0089659D01*
X0123369Y0089575D01*
X0123274Y0089493D01*
X0123176Y0089414D01*
X0123075Y0089339D01*
X0122972Y0089267D01*
X0122867Y0089198D01*
X0122760Y0089132D01*
X0122651Y0089070D01*
X0122540Y0089011D01*
X0122427Y0088956D01*
X0122313Y0088904D01*
X0122196Y0088856D01*
X0122079Y0088811D01*
X0121960Y0088771D01*
X0121840Y0088734D01*
X0121719Y0088701D01*
X0121597Y0088671D01*
X0121474Y0088646D01*
X0121350Y0088624D01*
X0121225Y0088607D01*
X0121100Y0088593D01*
X0120975Y0088583D01*
X0120850Y0088577D01*
X0120724Y0088575D01*
X0120724Y0082575D01*
X0190724Y0082575D01*
X0190724Y0072575D01*
X0120724Y0072575D01*
X0120724Y0082575D01*
X0120724Y0102575D02*
X0190724Y0102575D01*
X0190724Y0082575D01*
X0190724Y0102575D02*
X0190724Y0112575D01*
X0120724Y0112575D01*
D17*
X0119346Y0150528D02*
X0119346Y0165035D01*
X0119346Y0150528D02*
X0165803Y0150528D01*
X0165803Y0165035D01*
X0165803Y0180528D02*
X0165803Y0212535D01*
X0119346Y0212535D01*
X0119346Y0180528D01*
D18*
X0080567Y0191094D02*
X0038441Y0191094D01*
X0038441Y0110228D01*
X0080567Y0110228D01*
X0080567Y0191094D01*
X0044976Y0191094D02*
X0044976Y0185189D01*
X0038441Y0185189D01*
X0036724Y0165693D02*
X0036724Y0121756D01*
X0006803Y0121756D01*
X0006803Y0165693D01*
X0036724Y0165693D01*
X0070724Y0112724D02*
X0070724Y0108724D01*
X0072724Y0110724D01*
X0070724Y0112724D01*
X0070724Y0112406D02*
X0071043Y0112406D01*
X0070724Y0111907D02*
X0071541Y0111907D01*
X0072040Y0111409D02*
X0070724Y0111409D01*
X0070724Y0110910D02*
X0072539Y0110910D01*
X0072412Y0110412D02*
X0070724Y0110412D01*
X0070724Y0109913D02*
X0071913Y0109913D01*
X0071415Y0109415D02*
X0070724Y0109415D01*
X0070724Y0108916D02*
X0070916Y0108916D01*
X0080567Y0099094D02*
X0038441Y0099094D01*
X0038441Y0018228D01*
X0080567Y0018228D01*
X0080567Y0099094D01*
X0044976Y0099094D02*
X0044976Y0093189D01*
X0038441Y0093189D01*
X0036724Y0088693D02*
X0036724Y0044756D01*
X0006803Y0044756D01*
X0006803Y0088693D01*
X0036724Y0088693D01*
X0068724Y0020724D02*
X0068724Y0016724D01*
X0070724Y0018724D01*
X0068724Y0020724D01*
X0068724Y0020680D02*
X0068769Y0020680D01*
X0068724Y0020181D02*
X0069268Y0020181D01*
X0069766Y0019683D02*
X0068724Y0019683D01*
X0068724Y0019184D02*
X0070265Y0019184D01*
X0070686Y0018686D02*
X0068724Y0018686D01*
X0068724Y0018187D02*
X0070187Y0018187D01*
X0069689Y0017689D02*
X0068724Y0017689D01*
X0068724Y0017190D02*
X0069190Y0017190D01*
X0110575Y0034575D02*
X0112575Y0032575D01*
X0114575Y0034575D01*
X0110575Y0034575D01*
X0111010Y0034140D02*
X0114140Y0034140D01*
X0113641Y0033641D02*
X0111509Y0033641D01*
X0112007Y0033143D02*
X0113143Y0033143D01*
X0112644Y0032644D02*
X0112506Y0032644D01*
X0130575Y0034575D02*
X0132575Y0032575D01*
X0134575Y0034575D01*
X0130575Y0034575D01*
X0131010Y0034140D02*
X0134140Y0034140D01*
X0133641Y0033641D02*
X0131509Y0033641D01*
X0132007Y0033143D02*
X0133143Y0033143D01*
X0132644Y0032644D02*
X0132506Y0032644D01*
X0150575Y0034575D02*
X0152575Y0032575D01*
X0154575Y0034575D01*
X0150575Y0034575D01*
X0151010Y0034140D02*
X0154140Y0034140D01*
X0153641Y0033641D02*
X0151509Y0033641D01*
X0152007Y0033143D02*
X0153143Y0033143D01*
X0152644Y0032644D02*
X0152506Y0032644D01*
X0170575Y0034575D02*
X0172575Y0032575D01*
X0174575Y0034575D01*
X0170575Y0034575D01*
X0171010Y0034140D02*
X0174140Y0034140D01*
X0173641Y0033641D02*
X0171509Y0033641D01*
X0172007Y0033143D02*
X0173143Y0033143D01*
X0172644Y0032644D02*
X0172506Y0032644D01*
D19*
X0187575Y0122575D02*
X0187575Y0167575D01*
X0197575Y0167575D01*
X0197575Y0122575D01*
X0187575Y0122575D01*
D20*
X0192575Y0165075D03*
D21*
X0011724Y0153724D02*
X0006724Y0153724D01*
X0006724Y0133724D02*
X0011724Y0133724D01*
X0011724Y0076724D02*
X0006724Y0076724D01*
X0006724Y0056724D02*
X0011724Y0056724D01*
D22*
X0082033Y0038171D02*
X0082479Y0038736D01*
X0082478Y0038736D02*
X0082675Y0038586D01*
X0082876Y0038440D01*
X0083080Y0038300D01*
X0083288Y0038164D01*
X0083499Y0038034D01*
X0083713Y0037909D01*
X0083930Y0037789D01*
X0084150Y0037674D01*
X0084372Y0037565D01*
X0084597Y0037462D01*
X0084825Y0037364D01*
X0085055Y0037271D01*
X0085287Y0037184D01*
X0085521Y0037103D01*
X0085757Y0037028D01*
X0085995Y0036958D01*
X0086235Y0036894D01*
X0086476Y0036836D01*
X0086718Y0036784D01*
X0086962Y0036738D01*
X0087206Y0036698D01*
X0087452Y0036664D01*
X0087698Y0036636D01*
X0087945Y0036614D01*
X0088192Y0036598D01*
X0088440Y0036588D01*
X0088688Y0036584D01*
X0088936Y0036586D01*
X0089183Y0036594D01*
X0089431Y0036609D01*
X0089678Y0036629D01*
X0089924Y0036655D01*
X0090170Y0036688D01*
X0090415Y0036726D01*
X0090659Y0036770D01*
X0090902Y0036821D01*
X0091143Y0036877D01*
X0091383Y0036939D01*
X0091621Y0037007D01*
X0091858Y0037080D01*
X0092093Y0037160D01*
X0092326Y0037245D01*
X0092556Y0037336D01*
X0092784Y0037432D01*
X0093010Y0037535D01*
X0093234Y0037642D01*
X0093454Y0037755D01*
X0093672Y0037873D01*
X0093887Y0037997D01*
X0094099Y0038126D01*
X0094307Y0038260D01*
X0094513Y0038399D01*
X0094714Y0038543D01*
X0094912Y0038691D01*
X0095107Y0038845D01*
X0095298Y0039003D01*
X0095484Y0039166D01*
X0095667Y0039334D01*
X0095846Y0039506D01*
X0096020Y0039682D01*
X0096190Y0039863D01*
X0096355Y0040047D01*
X0096516Y0040236D01*
X0096673Y0040428D01*
X0096824Y0040624D01*
X0096971Y0040824D01*
X0097113Y0041027D01*
X0097249Y0041234D01*
X0097381Y0041444D01*
X0097507Y0041657D01*
X0097629Y0041873D01*
X0097744Y0042093D01*
X0097855Y0042314D01*
X0097960Y0042539D01*
X0098060Y0042766D01*
X0098154Y0042995D01*
X0098242Y0043227D01*
X0098325Y0043461D01*
X0098401Y0043696D01*
X0099089Y0043484D01*
X0099007Y0043231D01*
X0098919Y0042981D01*
X0098824Y0042733D01*
X0098723Y0042487D01*
X0098617Y0042244D01*
X0098504Y0042003D01*
X0098386Y0041766D01*
X0098262Y0041531D01*
X0098132Y0041299D01*
X0097997Y0041071D01*
X0097856Y0040846D01*
X0097709Y0040624D01*
X0097557Y0040407D01*
X0097400Y0040193D01*
X0097238Y0039982D01*
X0097071Y0039776D01*
X0096898Y0039574D01*
X0096721Y0039376D01*
X0096539Y0039183D01*
X0096352Y0038994D01*
X0096161Y0038810D01*
X0095965Y0038631D01*
X0095765Y0038456D01*
X0095561Y0038286D01*
X0095353Y0038122D01*
X0095140Y0037962D01*
X0094924Y0037808D01*
X0094704Y0037659D01*
X0094481Y0037516D01*
X0094254Y0037378D01*
X0094024Y0037245D01*
X0093791Y0037118D01*
X0093554Y0036997D01*
X0093315Y0036882D01*
X0093073Y0036773D01*
X0092828Y0036669D01*
X0092581Y0036572D01*
X0092332Y0036481D01*
X0092081Y0036396D01*
X0091827Y0036317D01*
X0091572Y0036244D01*
X0091315Y0036178D01*
X0091056Y0036117D01*
X0090796Y0036063D01*
X0090535Y0036016D01*
X0090272Y0035975D01*
X0090009Y0035940D01*
X0089745Y0035912D01*
X0089480Y0035890D01*
X0089215Y0035875D01*
X0088950Y0035866D01*
X0088684Y0035864D01*
X0088419Y0035868D01*
X0088153Y0035879D01*
X0087889Y0035896D01*
X0087624Y0035920D01*
X0087360Y0035950D01*
X0087097Y0035987D01*
X0086835Y0036030D01*
X0086574Y0036079D01*
X0086315Y0036135D01*
X0086056Y0036197D01*
X0085800Y0036265D01*
X0085545Y0036340D01*
X0085292Y0036421D01*
X0085041Y0036508D01*
X0084793Y0036601D01*
X0084546Y0036700D01*
X0084302Y0036805D01*
X0084061Y0036916D01*
X0083823Y0037033D01*
X0083587Y0037156D01*
X0083355Y0037284D01*
X0083126Y0037418D01*
X0082900Y0037558D01*
X0082677Y0037703D01*
X0082459Y0037854D01*
X0082244Y0038009D01*
X0082033Y0038170D01*
X0082079Y0038229D01*
X0082289Y0038069D01*
X0082502Y0037915D01*
X0082719Y0037765D01*
X0082940Y0037621D01*
X0083165Y0037482D01*
X0083392Y0037349D01*
X0083623Y0037222D01*
X0083857Y0037100D01*
X0084094Y0036984D01*
X0084333Y0036873D01*
X0084575Y0036769D01*
X0084820Y0036670D01*
X0085067Y0036578D01*
X0085316Y0036492D01*
X0085567Y0036411D01*
X0085820Y0036337D01*
X0086075Y0036269D01*
X0086331Y0036208D01*
X0086589Y0036152D01*
X0086848Y0036103D01*
X0087109Y0036061D01*
X0087370Y0036024D01*
X0087632Y0035994D01*
X0087894Y0035971D01*
X0088158Y0035954D01*
X0088421Y0035943D01*
X0088685Y0035939D01*
X0088948Y0035941D01*
X0089212Y0035950D01*
X0089475Y0035965D01*
X0089738Y0035987D01*
X0090000Y0036015D01*
X0090262Y0036049D01*
X0090522Y0036090D01*
X0090782Y0036137D01*
X0091040Y0036191D01*
X0091297Y0036250D01*
X0091552Y0036316D01*
X0091806Y0036389D01*
X0092057Y0036467D01*
X0092307Y0036552D01*
X0092555Y0036642D01*
X0092800Y0036739D01*
X0093043Y0036842D01*
X0093283Y0036950D01*
X0093521Y0037065D01*
X0093756Y0037185D01*
X0093987Y0037311D01*
X0094216Y0037442D01*
X0094441Y0037579D01*
X0094663Y0037722D01*
X0094881Y0037869D01*
X0095096Y0038023D01*
X0095307Y0038181D01*
X0095514Y0038345D01*
X0095717Y0038513D01*
X0095915Y0038686D01*
X0096110Y0038865D01*
X0096300Y0039048D01*
X0096485Y0039235D01*
X0096666Y0039427D01*
X0096842Y0039623D01*
X0097013Y0039824D01*
X0097179Y0040029D01*
X0097340Y0040237D01*
X0097496Y0040450D01*
X0097647Y0040666D01*
X0097793Y0040886D01*
X0097933Y0041110D01*
X0098067Y0041337D01*
X0098196Y0041567D01*
X0098319Y0041800D01*
X0098437Y0042036D01*
X0098548Y0042275D01*
X0098654Y0042516D01*
X0098754Y0042760D01*
X0098848Y0043007D01*
X0098936Y0043255D01*
X0099018Y0043506D01*
X0098946Y0043528D01*
X0098865Y0043279D01*
X0098778Y0043032D01*
X0098684Y0042788D01*
X0098585Y0042545D01*
X0098480Y0042305D01*
X0098369Y0042068D01*
X0098252Y0041834D01*
X0098130Y0041602D01*
X0098002Y0041374D01*
X0097868Y0041149D01*
X0097729Y0040927D01*
X0097585Y0040708D01*
X0097435Y0040494D01*
X0097280Y0040282D01*
X0097120Y0040075D01*
X0096955Y0039872D01*
X0096785Y0039673D01*
X0096610Y0039478D01*
X0096431Y0039287D01*
X0096247Y0039101D01*
X0096058Y0038919D01*
X0095865Y0038742D01*
X0095668Y0038570D01*
X0095466Y0038403D01*
X0095261Y0038240D01*
X0095052Y0038083D01*
X0094839Y0037931D01*
X0094622Y0037784D01*
X0094401Y0037643D01*
X0094178Y0037507D01*
X0093951Y0037376D01*
X0093721Y0037251D01*
X0093488Y0037132D01*
X0093252Y0037018D01*
X0093013Y0036910D01*
X0092772Y0036808D01*
X0092528Y0036712D01*
X0092282Y0036622D01*
X0092034Y0036538D01*
X0091784Y0036460D01*
X0091532Y0036389D01*
X0091279Y0036323D01*
X0091024Y0036264D01*
X0090767Y0036211D01*
X0090510Y0036164D01*
X0090251Y0036123D01*
X0089991Y0036089D01*
X0089731Y0036061D01*
X0089470Y0036040D01*
X0089209Y0036025D01*
X0088947Y0036016D01*
X0088685Y0036014D01*
X0088423Y0036018D01*
X0088162Y0036029D01*
X0087900Y0036046D01*
X0087639Y0036069D01*
X0087379Y0036099D01*
X0087120Y0036135D01*
X0086862Y0036177D01*
X0086604Y0036226D01*
X0086348Y0036281D01*
X0086094Y0036342D01*
X0085841Y0036409D01*
X0085589Y0036483D01*
X0085340Y0036563D01*
X0085092Y0036649D01*
X0084847Y0036740D01*
X0084604Y0036838D01*
X0084364Y0036942D01*
X0084126Y0037051D01*
X0083891Y0037167D01*
X0083659Y0037288D01*
X0083429Y0037414D01*
X0083203Y0037546D01*
X0082981Y0037684D01*
X0082761Y0037827D01*
X0082546Y0037976D01*
X0082334Y0038129D01*
X0082125Y0038288D01*
X0082172Y0038347D01*
X0082379Y0038189D01*
X0082589Y0038037D01*
X0082803Y0037889D01*
X0083021Y0037747D01*
X0083242Y0037611D01*
X0083467Y0037479D01*
X0083694Y0037354D01*
X0083925Y0037233D01*
X0084158Y0037119D01*
X0084395Y0037010D01*
X0084633Y0036907D01*
X0084874Y0036810D01*
X0085118Y0036719D01*
X0085364Y0036634D01*
X0085611Y0036555D01*
X0085861Y0036482D01*
X0086112Y0036415D01*
X0086365Y0036354D01*
X0086619Y0036299D01*
X0086875Y0036251D01*
X0087131Y0036209D01*
X0087389Y0036173D01*
X0087647Y0036144D01*
X0087906Y0036120D01*
X0088166Y0036104D01*
X0088425Y0036093D01*
X0088685Y0036089D01*
X0088945Y0036091D01*
X0089205Y0036100D01*
X0089465Y0036115D01*
X0089724Y0036136D01*
X0089983Y0036164D01*
X0090240Y0036198D01*
X0090497Y0036238D01*
X0090753Y0036284D01*
X0091008Y0036337D01*
X0091261Y0036396D01*
X0091513Y0036461D01*
X0091763Y0036532D01*
X0092011Y0036610D01*
X0092257Y0036693D01*
X0092501Y0036782D01*
X0092743Y0036878D01*
X0092983Y0036979D01*
X0093220Y0037086D01*
X0093454Y0037199D01*
X0093686Y0037317D01*
X0093914Y0037441D01*
X0094139Y0037571D01*
X0094362Y0037706D01*
X0094580Y0037847D01*
X0094796Y0037993D01*
X0095007Y0038144D01*
X0095215Y0038300D01*
X0095419Y0038461D01*
X0095619Y0038627D01*
X0095815Y0038798D01*
X0096007Y0038974D01*
X0096194Y0039154D01*
X0096377Y0039339D01*
X0096555Y0039528D01*
X0096729Y0039722D01*
X0096897Y0039920D01*
X0097061Y0040122D01*
X0097220Y0040327D01*
X0097374Y0040537D01*
X0097523Y0040750D01*
X0097666Y0040967D01*
X0097804Y0041188D01*
X0097937Y0041411D01*
X0098064Y0041638D01*
X0098186Y0041868D01*
X0098301Y0042101D01*
X0098412Y0042336D01*
X0098516Y0042574D01*
X0098615Y0042815D01*
X0098707Y0043058D01*
X0098794Y0043303D01*
X0098874Y0043550D01*
X0098803Y0043572D01*
X0098723Y0043327D01*
X0098637Y0043084D01*
X0098545Y0042842D01*
X0098447Y0042603D01*
X0098343Y0042367D01*
X0098234Y0042133D01*
X0098119Y0041902D01*
X0097998Y0041674D01*
X0097872Y0041448D01*
X0097740Y0041226D01*
X0097603Y0041008D01*
X0097461Y0040792D01*
X0097313Y0040581D01*
X0097160Y0040372D01*
X0097002Y0040168D01*
X0096840Y0039968D01*
X0096672Y0039771D01*
X0096500Y0039579D01*
X0096323Y0039391D01*
X0096141Y0039207D01*
X0095955Y0039028D01*
X0095765Y0038854D01*
X0095570Y0038684D01*
X0095372Y0038519D01*
X0095169Y0038359D01*
X0094963Y0038204D01*
X0094753Y0038054D01*
X0094539Y0037909D01*
X0094322Y0037770D01*
X0094101Y0037636D01*
X0093877Y0037507D01*
X0093651Y0037384D01*
X0093421Y0037266D01*
X0093188Y0037154D01*
X0092953Y0037048D01*
X0092715Y0036947D01*
X0092475Y0036853D01*
X0092232Y0036764D01*
X0091988Y0036681D01*
X0091741Y0036604D01*
X0091493Y0036534D01*
X0091243Y0036469D01*
X0090992Y0036410D01*
X0090739Y0036358D01*
X0090485Y0036312D01*
X0090230Y0036272D01*
X0089974Y0036238D01*
X0089717Y0036211D01*
X0089460Y0036190D01*
X0089202Y0036175D01*
X0088944Y0036166D01*
X0088686Y0036164D01*
X0088428Y0036168D01*
X0088170Y0036179D01*
X0087912Y0036195D01*
X0087655Y0036218D01*
X0087398Y0036248D01*
X0087143Y0036283D01*
X0086888Y0036325D01*
X0086634Y0036373D01*
X0086382Y0036427D01*
X0086131Y0036487D01*
X0085881Y0036554D01*
X0085633Y0036626D01*
X0085388Y0036705D01*
X0085144Y0036789D01*
X0084902Y0036880D01*
X0084662Y0036976D01*
X0084425Y0037079D01*
X0084191Y0037187D01*
X0083959Y0037300D01*
X0083730Y0037420D01*
X0083504Y0037544D01*
X0083281Y0037675D01*
X0083062Y0037811D01*
X0082845Y0037952D01*
X0082633Y0038098D01*
X0082424Y0038249D01*
X0082218Y0038406D01*
X0082265Y0038465D01*
X0082469Y0038309D01*
X0082676Y0038159D01*
X0082887Y0038014D01*
X0083102Y0037874D01*
X0083320Y0037739D01*
X0083541Y0037609D01*
X0083766Y0037486D01*
X0083993Y0037367D01*
X0084223Y0037254D01*
X0084456Y0037147D01*
X0084691Y0037046D01*
X0084929Y0036950D01*
X0085169Y0036860D01*
X0085411Y0036776D01*
X0085656Y0036698D01*
X0085902Y0036626D01*
X0086149Y0036560D01*
X0086399Y0036500D01*
X0086649Y0036446D01*
X0086901Y0036399D01*
X0087154Y0036357D01*
X0087408Y0036322D01*
X0087663Y0036293D01*
X0087918Y0036270D01*
X0088174Y0036253D01*
X0088430Y0036243D01*
X0088686Y0036239D01*
X0088942Y0036241D01*
X0089199Y0036250D01*
X0089455Y0036264D01*
X0089710Y0036285D01*
X0089965Y0036313D01*
X0090219Y0036346D01*
X0090472Y0036386D01*
X0090725Y0036432D01*
X0090976Y0036484D01*
X0091225Y0036542D01*
X0091473Y0036606D01*
X0091720Y0036676D01*
X0091965Y0036752D01*
X0092207Y0036835D01*
X0092448Y0036923D01*
X0092687Y0037017D01*
X0092923Y0037116D01*
X0093156Y0037222D01*
X0093387Y0037333D01*
X0093615Y0037450D01*
X0093841Y0037572D01*
X0094063Y0037700D01*
X0094282Y0037833D01*
X0094498Y0037972D01*
X0094710Y0038116D01*
X0094919Y0038264D01*
X0095123Y0038418D01*
X0095325Y0038577D01*
X0095522Y0038741D01*
X0095715Y0038910D01*
X0095904Y0039083D01*
X0096088Y0039261D01*
X0096269Y0039443D01*
X0096444Y0039630D01*
X0096616Y0039820D01*
X0096782Y0040015D01*
X0096944Y0040214D01*
X0097100Y0040417D01*
X0097252Y0040624D01*
X0097398Y0040834D01*
X0097540Y0041048D01*
X0097676Y0041265D01*
X0097807Y0041486D01*
X0097932Y0041709D01*
X0098052Y0041936D01*
X0098166Y0042165D01*
X0098275Y0042398D01*
X0098378Y0042632D01*
X0098475Y0042870D01*
X0098566Y0043109D01*
X0098652Y0043351D01*
X0098731Y0043595D01*
X0098659Y0043617D01*
X0098580Y0043375D01*
X0098496Y0043135D01*
X0098405Y0042897D01*
X0098309Y0042661D01*
X0098206Y0042428D01*
X0098099Y0042198D01*
X0097985Y0041970D01*
X0097866Y0041745D01*
X0097742Y0041523D01*
X0097612Y0041304D01*
X0097477Y0041089D01*
X0097336Y0040876D01*
X0097191Y0040667D01*
X0097040Y0040462D01*
X0096885Y0040261D01*
X0096724Y0040063D01*
X0096559Y0039870D01*
X0096389Y0039680D01*
X0096215Y0039495D01*
X0096036Y0039314D01*
X0095852Y0039138D01*
X0095665Y0038966D01*
X0095473Y0038798D01*
X0095277Y0038636D01*
X0095078Y0038478D01*
X0094874Y0038325D01*
X0094667Y0038177D01*
X0094456Y0038034D01*
X0094242Y0037897D01*
X0094025Y0037765D01*
X0093804Y0037638D01*
X0093580Y0037516D01*
X0093354Y0037400D01*
X0093125Y0037290D01*
X0092893Y0037185D01*
X0092658Y0037086D01*
X0092421Y0036993D01*
X0092182Y0036905D01*
X0091941Y0036824D01*
X0091698Y0036748D01*
X0091454Y0036678D01*
X0091207Y0036615D01*
X0090959Y0036557D01*
X0090710Y0036505D01*
X0090460Y0036460D01*
X0090208Y0036420D01*
X0089956Y0036387D01*
X0089703Y0036360D01*
X0089449Y0036339D01*
X0089195Y0036325D01*
X0088941Y0036316D01*
X0088686Y0036314D01*
X0088432Y0036318D01*
X0088178Y0036328D01*
X0087924Y0036345D01*
X0087670Y0036367D01*
X0087417Y0036396D01*
X0087165Y0036431D01*
X0086914Y0036473D01*
X0086664Y0036520D01*
X0086415Y0036573D01*
X0086168Y0036633D01*
X0085922Y0036698D01*
X0085678Y0036770D01*
X0085435Y0036847D01*
X0085195Y0036930D01*
X0084956Y0037020D01*
X0084720Y0037115D01*
X0084487Y0037215D01*
X0084256Y0037322D01*
X0084027Y0037434D01*
X0083801Y0037551D01*
X0083579Y0037675D01*
X0083359Y0037803D01*
X0083142Y0037937D01*
X0082929Y0038076D01*
X0082720Y0038220D01*
X0082514Y0038369D01*
X0082311Y0038524D01*
X0082358Y0038583D01*
X0082558Y0038430D01*
X0082763Y0038281D01*
X0082971Y0038138D01*
X0083183Y0038000D01*
X0083398Y0037867D01*
X0083616Y0037740D01*
X0083837Y0037617D01*
X0084061Y0037501D01*
X0084288Y0037389D01*
X0084517Y0037284D01*
X0084749Y0037184D01*
X0084984Y0037090D01*
X0085220Y0037001D01*
X0085459Y0036918D01*
X0085700Y0036841D01*
X0085942Y0036770D01*
X0086186Y0036705D01*
X0086432Y0036646D01*
X0086679Y0036593D01*
X0086927Y0036546D01*
X0087177Y0036505D01*
X0087427Y0036471D01*
X0087678Y0036442D01*
X0087930Y0036420D01*
X0088182Y0036403D01*
X0088434Y0036393D01*
X0088687Y0036389D01*
X0088939Y0036391D01*
X0089192Y0036400D01*
X0089444Y0036414D01*
X0089696Y0036435D01*
X0089947Y0036462D01*
X0090198Y0036495D01*
X0090447Y0036534D01*
X0090696Y0036579D01*
X0090943Y0036630D01*
X0091189Y0036687D01*
X0091434Y0036751D01*
X0091677Y0036820D01*
X0091918Y0036895D01*
X0092158Y0036976D01*
X0092395Y0037063D01*
X0092630Y0037155D01*
X0092863Y0037254D01*
X0093093Y0037358D01*
X0093321Y0037467D01*
X0093545Y0037583D01*
X0093767Y0037703D01*
X0093986Y0037829D01*
X0094202Y0037960D01*
X0094415Y0038097D01*
X0094624Y0038239D01*
X0094830Y0038385D01*
X0095032Y0038537D01*
X0095230Y0038694D01*
X0095424Y0038855D01*
X0095615Y0039021D01*
X0095801Y0039192D01*
X0095983Y0039367D01*
X0096161Y0039547D01*
X0096334Y0039731D01*
X0096502Y0039919D01*
X0096666Y0040111D01*
X0096826Y0040307D01*
X0096980Y0040507D01*
X0097130Y0040711D01*
X0097274Y0040918D01*
X0097414Y0041129D01*
X0097548Y0041343D01*
X0097677Y0041560D01*
X0097800Y0041781D01*
X0097918Y0042004D01*
X0098031Y0042230D01*
X0098138Y0042459D01*
X0098239Y0042690D01*
X0098335Y0042924D01*
X0098425Y0043160D01*
X0098509Y0043399D01*
X0098588Y0043639D01*
X0098516Y0043661D01*
X0098438Y0043422D01*
X0098355Y0043186D01*
X0098265Y0042952D01*
X0098170Y0042719D01*
X0098070Y0042490D01*
X0097963Y0042263D01*
X0097851Y0042038D01*
X0097734Y0041816D01*
X0097612Y0041598D01*
X0097484Y0041382D01*
X0097350Y0041169D01*
X0097212Y0040960D01*
X0097069Y0040754D01*
X0096920Y0040552D01*
X0096767Y0040354D01*
X0096609Y0040159D01*
X0096446Y0039968D01*
X0096278Y0039782D01*
X0096106Y0039599D01*
X0095930Y0039421D01*
X0095749Y0039247D01*
X0095565Y0039077D01*
X0095376Y0038912D01*
X0095183Y0038752D01*
X0094986Y0038596D01*
X0094785Y0038446D01*
X0094581Y0038300D01*
X0094374Y0038160D01*
X0094162Y0038024D01*
X0093948Y0037894D01*
X0093731Y0037769D01*
X0093510Y0037649D01*
X0093287Y0037535D01*
X0093061Y0037426D01*
X0092833Y0037323D01*
X0092602Y0037225D01*
X0092368Y0037133D01*
X0092133Y0037047D01*
X0091895Y0036966D01*
X0091656Y0036892D01*
X0091414Y0036823D01*
X0091172Y0036760D01*
X0090927Y0036703D01*
X0090682Y0036653D01*
X0090435Y0036608D01*
X0090187Y0036569D01*
X0089938Y0036536D01*
X0089689Y0036509D01*
X0089439Y0036489D01*
X0089189Y0036475D01*
X0088938Y0036466D01*
X0088687Y0036464D01*
X0088436Y0036468D01*
X0088186Y0036478D01*
X0087936Y0036494D01*
X0087686Y0036517D01*
X0087437Y0036545D01*
X0087188Y0036580D01*
X0086941Y0036620D01*
X0086694Y0036667D01*
X0086449Y0036719D01*
X0086205Y0036778D01*
X0085963Y0036843D01*
X0085722Y0036913D01*
X0085483Y0036989D01*
X0085246Y0037071D01*
X0085011Y0037159D01*
X0084778Y0037253D01*
X0084548Y0037352D01*
X0084320Y0037457D01*
X0084095Y0037568D01*
X0083873Y0037683D01*
X0083653Y0037805D01*
X0083437Y0037931D01*
X0083223Y0038063D01*
X0083013Y0038200D01*
X0082807Y0038342D01*
X0082603Y0038490D01*
X0082404Y0038642D01*
X0082450Y0038701D01*
X0082648Y0038550D01*
X0082850Y0038403D01*
X0083055Y0038262D01*
X0083264Y0038126D01*
X0083475Y0037995D01*
X0083690Y0037870D01*
X0083908Y0037749D01*
X0084129Y0037634D01*
X0084353Y0037525D01*
X0084579Y0037421D01*
X0084807Y0037322D01*
X0085038Y0037229D01*
X0085272Y0037142D01*
X0085507Y0037060D01*
X0085744Y0036985D01*
X0085983Y0036915D01*
X0086224Y0036851D01*
X0086466Y0036793D01*
X0086709Y0036740D01*
X0086954Y0036694D01*
X0087199Y0036654D01*
X0087446Y0036619D01*
X0087693Y0036591D01*
X0087941Y0036569D01*
X0088190Y0036553D01*
X0088439Y0036543D01*
X0088688Y0036539D01*
X0088937Y0036541D01*
X0089185Y0036549D01*
X0089434Y0036564D01*
X0089682Y0036584D01*
X0089930Y0036611D01*
X0090176Y0036643D01*
X0090422Y0036682D01*
X0090667Y0036726D01*
X0090911Y0036777D01*
X0091154Y0036833D01*
X0091395Y0036895D01*
X0091634Y0036964D01*
X0091872Y0037038D01*
X0092108Y0037118D01*
X0092342Y0037203D01*
X0092573Y0037294D01*
X0092802Y0037391D01*
X0093029Y0037494D01*
X0093254Y0037602D01*
X0093475Y0037715D01*
X0093694Y0037834D01*
X0093910Y0037958D01*
X0094123Y0038088D01*
X0094332Y0038222D01*
X0094538Y0038362D01*
X0094741Y0038506D01*
X0094940Y0038656D01*
X0095135Y0038810D01*
X0095327Y0038969D01*
X0095514Y0039133D01*
X0095698Y0039301D01*
X0095877Y0039474D01*
X0096052Y0039651D01*
X0096223Y0039832D01*
X0096389Y0040018D01*
X0096551Y0040207D01*
X0096708Y0040400D01*
X0096860Y0040597D01*
X0097007Y0040798D01*
X0097150Y0041002D01*
X0097287Y0041210D01*
X0097419Y0041421D01*
X0097546Y0041635D01*
X0097668Y0041852D01*
X0097785Y0042072D01*
X0097896Y0042295D01*
X0098001Y0042520D01*
X0098101Y0042749D01*
X0098195Y0042979D01*
X0098284Y0043212D01*
X0098367Y0043446D01*
X0098444Y0043683D01*
X0099089Y0049963D02*
X0098401Y0049751D01*
X0098401Y0049752D02*
X0098325Y0049987D01*
X0098242Y0050221D01*
X0098154Y0050453D01*
X0098060Y0050682D01*
X0097960Y0050909D01*
X0097855Y0051133D01*
X0097745Y0051355D01*
X0097629Y0051574D01*
X0097507Y0051791D01*
X0097381Y0052004D01*
X0097249Y0052214D01*
X0097113Y0052421D01*
X0096971Y0052624D01*
X0096824Y0052824D01*
X0096673Y0053020D01*
X0096516Y0053212D01*
X0096355Y0053401D01*
X0096190Y0053585D01*
X0096020Y0053766D01*
X0095846Y0053942D01*
X0095667Y0054114D01*
X0095485Y0054281D01*
X0095298Y0054444D01*
X0095107Y0054603D01*
X0094913Y0054756D01*
X0094714Y0054905D01*
X0094513Y0055049D01*
X0094307Y0055188D01*
X0094099Y0055322D01*
X0093887Y0055451D01*
X0093672Y0055575D01*
X0093454Y0055693D01*
X0093234Y0055806D01*
X0093010Y0055913D01*
X0092785Y0056015D01*
X0092556Y0056112D01*
X0092326Y0056203D01*
X0092093Y0056288D01*
X0091858Y0056367D01*
X0091621Y0056441D01*
X0091383Y0056509D01*
X0091143Y0056571D01*
X0090902Y0056627D01*
X0090659Y0056678D01*
X0090415Y0056722D01*
X0090170Y0056760D01*
X0089924Y0056793D01*
X0089678Y0056819D01*
X0089431Y0056839D01*
X0089184Y0056854D01*
X0088936Y0056862D01*
X0088688Y0056864D01*
X0088440Y0056860D01*
X0088192Y0056850D01*
X0087945Y0056834D01*
X0087698Y0056812D01*
X0087452Y0056784D01*
X0087206Y0056750D01*
X0086962Y0056710D01*
X0086718Y0056664D01*
X0086476Y0056612D01*
X0086235Y0056554D01*
X0085995Y0056490D01*
X0085758Y0056420D01*
X0085521Y0056345D01*
X0085287Y0056264D01*
X0085055Y0056177D01*
X0084825Y0056084D01*
X0084597Y0055986D01*
X0084372Y0055883D01*
X0084150Y0055774D01*
X0083930Y0055659D01*
X0083713Y0055539D01*
X0083499Y0055414D01*
X0083288Y0055284D01*
X0083081Y0055148D01*
X0082876Y0055008D01*
X0082676Y0054863D01*
X0082478Y0054712D01*
X0082033Y0055277D01*
X0082033Y0055278D01*
X0082244Y0055439D01*
X0082459Y0055595D01*
X0082678Y0055745D01*
X0082900Y0055890D01*
X0083126Y0056030D01*
X0083355Y0056164D01*
X0083587Y0056292D01*
X0083823Y0056415D01*
X0084061Y0056532D01*
X0084303Y0056643D01*
X0084546Y0056748D01*
X0084793Y0056847D01*
X0085041Y0056941D01*
X0085292Y0057028D01*
X0085545Y0057108D01*
X0085800Y0057183D01*
X0086057Y0057251D01*
X0086315Y0057313D01*
X0086574Y0057369D01*
X0086835Y0057419D01*
X0087097Y0057461D01*
X0087360Y0057498D01*
X0087624Y0057528D01*
X0087889Y0057552D01*
X0088154Y0057569D01*
X0088419Y0057580D01*
X0088684Y0057584D01*
X0088950Y0057582D01*
X0089215Y0057573D01*
X0089481Y0057558D01*
X0089745Y0057536D01*
X0090009Y0057508D01*
X0090272Y0057473D01*
X0090535Y0057432D01*
X0090796Y0057384D01*
X0091056Y0057331D01*
X0091315Y0057270D01*
X0091572Y0057204D01*
X0091827Y0057131D01*
X0092081Y0057052D01*
X0092332Y0056967D01*
X0092582Y0056876D01*
X0092829Y0056778D01*
X0093073Y0056675D01*
X0093315Y0056566D01*
X0093554Y0056451D01*
X0093791Y0056330D01*
X0094024Y0056203D01*
X0094254Y0056070D01*
X0094481Y0055932D01*
X0094705Y0055789D01*
X0094924Y0055640D01*
X0095141Y0055486D01*
X0095353Y0055326D01*
X0095561Y0055162D01*
X0095765Y0054992D01*
X0095965Y0054817D01*
X0096161Y0054638D01*
X0096352Y0054454D01*
X0096539Y0054265D01*
X0096721Y0054071D01*
X0096898Y0053874D01*
X0097071Y0053672D01*
X0097238Y0053466D01*
X0097400Y0053255D01*
X0097558Y0053041D01*
X0097709Y0052823D01*
X0097856Y0052602D01*
X0097997Y0052377D01*
X0098132Y0052149D01*
X0098262Y0051917D01*
X0098386Y0051682D01*
X0098504Y0051444D01*
X0098617Y0051204D01*
X0098724Y0050961D01*
X0098824Y0050715D01*
X0098919Y0050467D01*
X0099007Y0050216D01*
X0099089Y0049964D01*
X0099018Y0049942D01*
X0098936Y0050193D01*
X0098848Y0050441D01*
X0098754Y0050688D01*
X0098654Y0050932D01*
X0098549Y0051173D01*
X0098437Y0051412D01*
X0098319Y0051648D01*
X0098196Y0051881D01*
X0098067Y0052111D01*
X0097933Y0052338D01*
X0097793Y0052562D01*
X0097647Y0052781D01*
X0097496Y0052998D01*
X0097340Y0053210D01*
X0097179Y0053419D01*
X0097013Y0053624D01*
X0096842Y0053824D01*
X0096666Y0054021D01*
X0096485Y0054213D01*
X0096300Y0054400D01*
X0096110Y0054583D01*
X0095915Y0054761D01*
X0095717Y0054935D01*
X0095514Y0055103D01*
X0095307Y0055267D01*
X0095096Y0055425D01*
X0094882Y0055578D01*
X0094663Y0055726D01*
X0094441Y0055869D01*
X0094216Y0056006D01*
X0093987Y0056137D01*
X0093756Y0056263D01*
X0093521Y0056383D01*
X0093283Y0056498D01*
X0093043Y0056606D01*
X0092800Y0056709D01*
X0092555Y0056806D01*
X0092307Y0056896D01*
X0092058Y0056981D01*
X0091806Y0057059D01*
X0091552Y0057132D01*
X0091297Y0057198D01*
X0091040Y0057257D01*
X0090782Y0057311D01*
X0090522Y0057358D01*
X0090262Y0057399D01*
X0090000Y0057433D01*
X0089738Y0057461D01*
X0089475Y0057483D01*
X0089212Y0057498D01*
X0088949Y0057507D01*
X0088685Y0057509D01*
X0088421Y0057505D01*
X0088158Y0057494D01*
X0087895Y0057477D01*
X0087632Y0057454D01*
X0087370Y0057424D01*
X0087109Y0057387D01*
X0086849Y0057345D01*
X0086589Y0057296D01*
X0086332Y0057240D01*
X0086075Y0057179D01*
X0085820Y0057111D01*
X0085567Y0057037D01*
X0085316Y0056956D01*
X0085067Y0056870D01*
X0084820Y0056778D01*
X0084575Y0056679D01*
X0084333Y0056575D01*
X0084094Y0056464D01*
X0083857Y0056348D01*
X0083623Y0056226D01*
X0083392Y0056099D01*
X0083165Y0055966D01*
X0082940Y0055827D01*
X0082720Y0055683D01*
X0082502Y0055534D01*
X0082289Y0055379D01*
X0082079Y0055219D01*
X0082126Y0055160D01*
X0082334Y0055319D01*
X0082546Y0055472D01*
X0082762Y0055621D01*
X0082981Y0055764D01*
X0083204Y0055902D01*
X0083430Y0056034D01*
X0083659Y0056161D01*
X0083891Y0056282D01*
X0084126Y0056397D01*
X0084364Y0056506D01*
X0084604Y0056610D01*
X0084847Y0056708D01*
X0085093Y0056800D01*
X0085340Y0056885D01*
X0085589Y0056965D01*
X0085841Y0057039D01*
X0086094Y0057106D01*
X0086348Y0057167D01*
X0086604Y0057222D01*
X0086862Y0057271D01*
X0087120Y0057313D01*
X0087379Y0057349D01*
X0087640Y0057379D01*
X0087900Y0057402D01*
X0088162Y0057419D01*
X0088423Y0057430D01*
X0088685Y0057434D01*
X0088947Y0057432D01*
X0089209Y0057423D01*
X0089470Y0057408D01*
X0089731Y0057387D01*
X0089992Y0057359D01*
X0090251Y0057325D01*
X0090510Y0057284D01*
X0090768Y0057237D01*
X0091024Y0057184D01*
X0091279Y0057125D01*
X0091532Y0057059D01*
X0091784Y0056987D01*
X0092034Y0056910D01*
X0092282Y0056826D01*
X0092528Y0056736D01*
X0092772Y0056640D01*
X0093013Y0056538D01*
X0093252Y0056430D01*
X0093488Y0056316D01*
X0093721Y0056197D01*
X0093951Y0056072D01*
X0094178Y0055941D01*
X0094402Y0055805D01*
X0094622Y0055664D01*
X0094839Y0055517D01*
X0095052Y0055365D01*
X0095261Y0055208D01*
X0095467Y0055045D01*
X0095668Y0054878D01*
X0095865Y0054706D01*
X0096058Y0054529D01*
X0096247Y0054347D01*
X0096431Y0054161D01*
X0096611Y0053970D01*
X0096785Y0053775D01*
X0096955Y0053576D01*
X0097120Y0053373D01*
X0097280Y0053165D01*
X0097435Y0052954D01*
X0097585Y0052740D01*
X0097729Y0052521D01*
X0097868Y0052299D01*
X0098002Y0052074D01*
X0098130Y0051846D01*
X0098252Y0051614D01*
X0098369Y0051380D01*
X0098480Y0051142D01*
X0098585Y0050903D01*
X0098684Y0050660D01*
X0098778Y0050416D01*
X0098865Y0050169D01*
X0098946Y0049920D01*
X0098874Y0049898D01*
X0098794Y0050145D01*
X0098707Y0050390D01*
X0098615Y0050633D01*
X0098516Y0050874D01*
X0098412Y0051112D01*
X0098302Y0051347D01*
X0098186Y0051580D01*
X0098064Y0051810D01*
X0097937Y0052037D01*
X0097804Y0052260D01*
X0097666Y0052481D01*
X0097523Y0052698D01*
X0097374Y0052911D01*
X0097220Y0053120D01*
X0097061Y0053326D01*
X0096898Y0053528D01*
X0096729Y0053726D01*
X0096555Y0053920D01*
X0096377Y0054109D01*
X0096194Y0054294D01*
X0096007Y0054474D01*
X0095815Y0054650D01*
X0095619Y0054821D01*
X0095419Y0054987D01*
X0095215Y0055148D01*
X0095007Y0055304D01*
X0094796Y0055455D01*
X0094580Y0055601D01*
X0094362Y0055742D01*
X0094140Y0055877D01*
X0093914Y0056007D01*
X0093686Y0056131D01*
X0093454Y0056249D01*
X0093220Y0056362D01*
X0092983Y0056469D01*
X0092743Y0056570D01*
X0092502Y0056665D01*
X0092257Y0056755D01*
X0092011Y0056838D01*
X0091763Y0056916D01*
X0091513Y0056987D01*
X0091261Y0057052D01*
X0091008Y0057111D01*
X0090753Y0057164D01*
X0090497Y0057210D01*
X0090241Y0057250D01*
X0089983Y0057284D01*
X0089724Y0057312D01*
X0089465Y0057333D01*
X0089205Y0057348D01*
X0088946Y0057357D01*
X0088686Y0057359D01*
X0088426Y0057355D01*
X0088166Y0057344D01*
X0087906Y0057328D01*
X0087647Y0057304D01*
X0087389Y0057275D01*
X0087131Y0057239D01*
X0086875Y0057197D01*
X0086619Y0057149D01*
X0086365Y0057094D01*
X0086112Y0057033D01*
X0085861Y0056966D01*
X0085612Y0056893D01*
X0085364Y0056814D01*
X0085118Y0056729D01*
X0084875Y0056638D01*
X0084633Y0056541D01*
X0084395Y0056438D01*
X0084159Y0056329D01*
X0083925Y0056215D01*
X0083694Y0056095D01*
X0083467Y0055969D01*
X0083242Y0055837D01*
X0083021Y0055701D01*
X0082804Y0055559D01*
X0082589Y0055411D01*
X0082379Y0055259D01*
X0082172Y0055101D01*
X0082218Y0055042D01*
X0082424Y0055199D01*
X0082633Y0055350D01*
X0082846Y0055497D01*
X0083062Y0055638D01*
X0083281Y0055773D01*
X0083504Y0055904D01*
X0083730Y0056029D01*
X0083959Y0056148D01*
X0084191Y0056262D01*
X0084425Y0056370D01*
X0084662Y0056472D01*
X0084902Y0056568D01*
X0085144Y0056659D01*
X0085388Y0056743D01*
X0085634Y0056822D01*
X0085881Y0056894D01*
X0086131Y0056961D01*
X0086382Y0057021D01*
X0086634Y0057075D01*
X0086888Y0057123D01*
X0087143Y0057165D01*
X0087399Y0057200D01*
X0087655Y0057230D01*
X0087912Y0057253D01*
X0088170Y0057269D01*
X0088428Y0057280D01*
X0088686Y0057284D01*
X0088944Y0057282D01*
X0089202Y0057273D01*
X0089460Y0057258D01*
X0089717Y0057237D01*
X0089974Y0057210D01*
X0090230Y0057176D01*
X0090485Y0057136D01*
X0090739Y0057090D01*
X0090992Y0057038D01*
X0091243Y0056979D01*
X0091493Y0056914D01*
X0091741Y0056844D01*
X0091988Y0056767D01*
X0092232Y0056684D01*
X0092475Y0056595D01*
X0092715Y0056501D01*
X0092953Y0056400D01*
X0093188Y0056294D01*
X0093421Y0056182D01*
X0093651Y0056064D01*
X0093878Y0055941D01*
X0094101Y0055812D01*
X0094322Y0055678D01*
X0094539Y0055539D01*
X0094753Y0055394D01*
X0094963Y0055244D01*
X0095169Y0055089D01*
X0095372Y0054929D01*
X0095571Y0054764D01*
X0095765Y0054594D01*
X0095955Y0054420D01*
X0096141Y0054240D01*
X0096323Y0054057D01*
X0096500Y0053869D01*
X0096672Y0053677D01*
X0096840Y0053480D01*
X0097003Y0053280D01*
X0097160Y0053076D01*
X0097313Y0052867D01*
X0097461Y0052656D01*
X0097603Y0052440D01*
X0097740Y0052221D01*
X0097872Y0051999D01*
X0097998Y0051774D01*
X0098119Y0051546D01*
X0098234Y0051315D01*
X0098343Y0051081D01*
X0098447Y0050845D01*
X0098545Y0050606D01*
X0098637Y0050364D01*
X0098723Y0050121D01*
X0098803Y0049876D01*
X0098731Y0049853D01*
X0098652Y0050097D01*
X0098566Y0050339D01*
X0098475Y0050578D01*
X0098378Y0050816D01*
X0098275Y0051050D01*
X0098166Y0051282D01*
X0098052Y0051512D01*
X0097932Y0051739D01*
X0097807Y0051962D01*
X0097676Y0052183D01*
X0097540Y0052400D01*
X0097399Y0052614D01*
X0097252Y0052824D01*
X0097100Y0053031D01*
X0096944Y0053233D01*
X0096782Y0053432D01*
X0096616Y0053627D01*
X0096445Y0053818D01*
X0096269Y0054005D01*
X0096089Y0054187D01*
X0095904Y0054365D01*
X0095715Y0054538D01*
X0095522Y0054707D01*
X0095325Y0054871D01*
X0095124Y0055029D01*
X0094919Y0055183D01*
X0094710Y0055332D01*
X0094498Y0055476D01*
X0094282Y0055615D01*
X0094063Y0055748D01*
X0093841Y0055876D01*
X0093616Y0055998D01*
X0093387Y0056115D01*
X0093156Y0056226D01*
X0092923Y0056332D01*
X0092687Y0056431D01*
X0092448Y0056525D01*
X0092208Y0056613D01*
X0091965Y0056696D01*
X0091720Y0056772D01*
X0091474Y0056842D01*
X0091225Y0056906D01*
X0090976Y0056964D01*
X0090725Y0057016D01*
X0090472Y0057062D01*
X0090219Y0057102D01*
X0089965Y0057135D01*
X0089710Y0057163D01*
X0089455Y0057184D01*
X0089199Y0057198D01*
X0088943Y0057207D01*
X0088686Y0057209D01*
X0088430Y0057205D01*
X0088174Y0057195D01*
X0087918Y0057178D01*
X0087663Y0057155D01*
X0087408Y0057126D01*
X0087154Y0057091D01*
X0086901Y0057049D01*
X0086649Y0057002D01*
X0086399Y0056948D01*
X0086149Y0056888D01*
X0085902Y0056822D01*
X0085656Y0056750D01*
X0085412Y0056672D01*
X0085169Y0056588D01*
X0084929Y0056498D01*
X0084692Y0056403D01*
X0084456Y0056301D01*
X0084223Y0056194D01*
X0083993Y0056081D01*
X0083766Y0055963D01*
X0083541Y0055839D01*
X0083320Y0055709D01*
X0083102Y0055574D01*
X0082887Y0055434D01*
X0082676Y0055289D01*
X0082469Y0055139D01*
X0082265Y0054983D01*
X0082311Y0054924D01*
X0082514Y0055079D01*
X0082720Y0055228D01*
X0082929Y0055372D01*
X0083143Y0055511D01*
X0083359Y0055645D01*
X0083579Y0055774D01*
X0083801Y0055897D01*
X0084027Y0056014D01*
X0084256Y0056126D01*
X0084487Y0056233D01*
X0084721Y0056333D01*
X0084957Y0056428D01*
X0085195Y0056518D01*
X0085435Y0056601D01*
X0085678Y0056678D01*
X0085922Y0056750D01*
X0086168Y0056815D01*
X0086416Y0056875D01*
X0086664Y0056928D01*
X0086914Y0056976D01*
X0087166Y0057017D01*
X0087418Y0057052D01*
X0087670Y0057081D01*
X0087924Y0057103D01*
X0088178Y0057120D01*
X0088432Y0057130D01*
X0088687Y0057134D01*
X0088941Y0057132D01*
X0089195Y0057123D01*
X0089450Y0057109D01*
X0089703Y0057088D01*
X0089956Y0057061D01*
X0090209Y0057028D01*
X0090460Y0056988D01*
X0090710Y0056943D01*
X0090960Y0056891D01*
X0091207Y0056833D01*
X0091454Y0056770D01*
X0091699Y0056700D01*
X0091942Y0056624D01*
X0092183Y0056543D01*
X0092422Y0056455D01*
X0092658Y0056362D01*
X0092893Y0056263D01*
X0093125Y0056158D01*
X0093354Y0056048D01*
X0093581Y0055932D01*
X0093804Y0055810D01*
X0094025Y0055683D01*
X0094242Y0055551D01*
X0094456Y0055414D01*
X0094667Y0055271D01*
X0094874Y0055123D01*
X0095078Y0054970D01*
X0095277Y0054812D01*
X0095473Y0054650D01*
X0095665Y0054482D01*
X0095852Y0054310D01*
X0096036Y0054134D01*
X0096215Y0053953D01*
X0096389Y0053768D01*
X0096559Y0053578D01*
X0096724Y0053385D01*
X0096885Y0053187D01*
X0097040Y0052986D01*
X0097191Y0052780D01*
X0097336Y0052572D01*
X0097477Y0052359D01*
X0097612Y0052144D01*
X0097742Y0051925D01*
X0097866Y0051703D01*
X0097985Y0051478D01*
X0098099Y0051250D01*
X0098206Y0051020D01*
X0098309Y0050786D01*
X0098405Y0050551D01*
X0098496Y0050313D01*
X0098581Y0050073D01*
X0098659Y0049831D01*
X0098588Y0049809D01*
X0098509Y0050049D01*
X0098425Y0050288D01*
X0098335Y0050524D01*
X0098239Y0050757D01*
X0098138Y0050989D01*
X0098031Y0051218D01*
X0097918Y0051444D01*
X0097800Y0051667D01*
X0097677Y0051888D01*
X0097548Y0052105D01*
X0097414Y0052319D01*
X0097274Y0052530D01*
X0097130Y0052737D01*
X0096980Y0052941D01*
X0096826Y0053141D01*
X0096667Y0053337D01*
X0096503Y0053529D01*
X0096334Y0053717D01*
X0096161Y0053901D01*
X0095983Y0054081D01*
X0095801Y0054256D01*
X0095615Y0054427D01*
X0095424Y0054593D01*
X0095230Y0054754D01*
X0095032Y0054911D01*
X0094830Y0055063D01*
X0094624Y0055209D01*
X0094415Y0055351D01*
X0094202Y0055488D01*
X0093987Y0055619D01*
X0093768Y0055745D01*
X0093546Y0055865D01*
X0093321Y0055981D01*
X0093093Y0056090D01*
X0092863Y0056194D01*
X0092630Y0056292D01*
X0092395Y0056385D01*
X0092158Y0056472D01*
X0091918Y0056553D01*
X0091677Y0056628D01*
X0091434Y0056697D01*
X0091190Y0056761D01*
X0090944Y0056818D01*
X0090696Y0056869D01*
X0090448Y0056914D01*
X0090198Y0056953D01*
X0089947Y0056986D01*
X0089696Y0057013D01*
X0089444Y0057034D01*
X0089192Y0057048D01*
X0088940Y0057057D01*
X0088687Y0057059D01*
X0088434Y0057055D01*
X0088182Y0057045D01*
X0087930Y0057028D01*
X0087678Y0057006D01*
X0087427Y0056977D01*
X0087177Y0056943D01*
X0086928Y0056902D01*
X0086679Y0056855D01*
X0086432Y0056802D01*
X0086187Y0056743D01*
X0085942Y0056678D01*
X0085700Y0056607D01*
X0085459Y0056530D01*
X0085221Y0056447D01*
X0084984Y0056359D01*
X0084750Y0056264D01*
X0084518Y0056164D01*
X0084288Y0056059D01*
X0084061Y0055947D01*
X0083837Y0055831D01*
X0083616Y0055708D01*
X0083398Y0055581D01*
X0083183Y0055448D01*
X0082971Y0055310D01*
X0082763Y0055167D01*
X0082559Y0055019D01*
X0082358Y0054865D01*
X0082404Y0054807D01*
X0082604Y0054959D01*
X0082807Y0055106D01*
X0083013Y0055248D01*
X0083223Y0055385D01*
X0083437Y0055517D01*
X0083653Y0055643D01*
X0083873Y0055765D01*
X0084095Y0055881D01*
X0084320Y0055991D01*
X0084548Y0056096D01*
X0084779Y0056195D01*
X0085011Y0056289D01*
X0085246Y0056377D01*
X0085483Y0056459D01*
X0085722Y0056535D01*
X0085963Y0056605D01*
X0086205Y0056670D01*
X0086449Y0056729D01*
X0086694Y0056781D01*
X0086941Y0056828D01*
X0087188Y0056868D01*
X0087437Y0056903D01*
X0087686Y0056931D01*
X0087936Y0056954D01*
X0088186Y0056970D01*
X0088437Y0056980D01*
X0088687Y0056984D01*
X0088938Y0056982D01*
X0089189Y0056973D01*
X0089439Y0056959D01*
X0089689Y0056938D01*
X0089939Y0056912D01*
X0090187Y0056879D01*
X0090435Y0056840D01*
X0090682Y0056795D01*
X0090927Y0056745D01*
X0091172Y0056688D01*
X0091415Y0056625D01*
X0091656Y0056556D01*
X0091895Y0056482D01*
X0092133Y0056401D01*
X0092368Y0056315D01*
X0092602Y0056223D01*
X0092833Y0056125D01*
X0093061Y0056022D01*
X0093287Y0055913D01*
X0093511Y0055799D01*
X0093731Y0055679D01*
X0093948Y0055554D01*
X0094163Y0055424D01*
X0094374Y0055288D01*
X0094581Y0055148D01*
X0094785Y0055002D01*
X0094986Y0054851D01*
X0095183Y0054696D01*
X0095376Y0054536D01*
X0095565Y0054371D01*
X0095750Y0054201D01*
X0095930Y0054027D01*
X0096107Y0053849D01*
X0096279Y0053666D01*
X0096446Y0053480D01*
X0096609Y0053289D01*
X0096767Y0053094D01*
X0096920Y0052896D01*
X0097069Y0052693D01*
X0097212Y0052488D01*
X0097350Y0052279D01*
X0097484Y0052066D01*
X0097612Y0051850D01*
X0097734Y0051632D01*
X0097851Y0051410D01*
X0097963Y0051185D01*
X0098070Y0050958D01*
X0098170Y0050728D01*
X0098265Y0050496D01*
X0098355Y0050262D01*
X0098438Y0050025D01*
X0098516Y0049787D01*
X0098444Y0049765D01*
X0098367Y0050002D01*
X0098284Y0050236D01*
X0098195Y0050469D01*
X0098101Y0050699D01*
X0098001Y0050927D01*
X0097896Y0051153D01*
X0097785Y0051376D01*
X0097668Y0051596D01*
X0097546Y0051813D01*
X0097419Y0052027D01*
X0097287Y0052238D01*
X0097150Y0052446D01*
X0097008Y0052650D01*
X0096860Y0052851D01*
X0096708Y0053048D01*
X0096551Y0053241D01*
X0096389Y0053430D01*
X0096223Y0053616D01*
X0096053Y0053797D01*
X0095877Y0053974D01*
X0095698Y0054147D01*
X0095515Y0054315D01*
X0095327Y0054479D01*
X0095135Y0054638D01*
X0094940Y0054792D01*
X0094741Y0054942D01*
X0094538Y0055086D01*
X0094332Y0055226D01*
X0094123Y0055360D01*
X0093910Y0055490D01*
X0093694Y0055614D01*
X0093475Y0055733D01*
X0093254Y0055846D01*
X0093030Y0055954D01*
X0092803Y0056057D01*
X0092573Y0056154D01*
X0092342Y0056245D01*
X0092108Y0056330D01*
X0091872Y0056410D01*
X0091634Y0056484D01*
X0091395Y0056553D01*
X0091154Y0056615D01*
X0090911Y0056671D01*
X0090668Y0056722D01*
X0090423Y0056766D01*
X0090177Y0056805D01*
X0089930Y0056837D01*
X0089682Y0056864D01*
X0089434Y0056884D01*
X0089186Y0056899D01*
X0088937Y0056907D01*
X0088688Y0056909D01*
X0088439Y0056905D01*
X0088190Y0056895D01*
X0087942Y0056879D01*
X0087694Y0056857D01*
X0087446Y0056829D01*
X0087200Y0056794D01*
X0086954Y0056754D01*
X0086709Y0056708D01*
X0086466Y0056656D01*
X0086224Y0056597D01*
X0085983Y0056533D01*
X0085744Y0056463D01*
X0085507Y0056388D01*
X0085272Y0056306D01*
X0085039Y0056219D01*
X0084808Y0056126D01*
X0084579Y0056027D01*
X0084353Y0055923D01*
X0084129Y0055814D01*
X0083909Y0055699D01*
X0083691Y0055578D01*
X0083476Y0055453D01*
X0083264Y0055322D01*
X0083055Y0055186D01*
X0082850Y0055045D01*
X0082649Y0054899D01*
X0082451Y0054748D01*
X0084033Y0129171D02*
X0084479Y0129736D01*
X0084478Y0129736D02*
X0084675Y0129586D01*
X0084876Y0129440D01*
X0085080Y0129300D01*
X0085288Y0129164D01*
X0085499Y0129034D01*
X0085713Y0128909D01*
X0085930Y0128789D01*
X0086150Y0128674D01*
X0086372Y0128565D01*
X0086597Y0128462D01*
X0086825Y0128364D01*
X0087055Y0128271D01*
X0087287Y0128184D01*
X0087521Y0128103D01*
X0087757Y0128028D01*
X0087995Y0127958D01*
X0088235Y0127894D01*
X0088476Y0127836D01*
X0088718Y0127784D01*
X0088962Y0127738D01*
X0089206Y0127698D01*
X0089452Y0127664D01*
X0089698Y0127636D01*
X0089945Y0127614D01*
X0090192Y0127598D01*
X0090440Y0127588D01*
X0090688Y0127584D01*
X0090936Y0127586D01*
X0091183Y0127594D01*
X0091431Y0127609D01*
X0091678Y0127629D01*
X0091924Y0127655D01*
X0092170Y0127688D01*
X0092415Y0127726D01*
X0092659Y0127770D01*
X0092902Y0127821D01*
X0093143Y0127877D01*
X0093383Y0127939D01*
X0093621Y0128007D01*
X0093858Y0128080D01*
X0094093Y0128160D01*
X0094326Y0128245D01*
X0094556Y0128336D01*
X0094784Y0128432D01*
X0095010Y0128535D01*
X0095234Y0128642D01*
X0095454Y0128755D01*
X0095672Y0128873D01*
X0095887Y0128997D01*
X0096099Y0129126D01*
X0096307Y0129260D01*
X0096513Y0129399D01*
X0096714Y0129543D01*
X0096912Y0129691D01*
X0097107Y0129845D01*
X0097298Y0130003D01*
X0097484Y0130166D01*
X0097667Y0130334D01*
X0097846Y0130506D01*
X0098020Y0130682D01*
X0098190Y0130863D01*
X0098355Y0131047D01*
X0098516Y0131236D01*
X0098673Y0131428D01*
X0098824Y0131624D01*
X0098971Y0131824D01*
X0099113Y0132027D01*
X0099249Y0132234D01*
X0099381Y0132444D01*
X0099507Y0132657D01*
X0099629Y0132873D01*
X0099744Y0133093D01*
X0099855Y0133314D01*
X0099960Y0133539D01*
X0100060Y0133766D01*
X0100154Y0133995D01*
X0100242Y0134227D01*
X0100325Y0134461D01*
X0100401Y0134696D01*
X0101089Y0134484D01*
X0101007Y0134231D01*
X0100919Y0133981D01*
X0100824Y0133733D01*
X0100723Y0133487D01*
X0100617Y0133244D01*
X0100504Y0133003D01*
X0100386Y0132766D01*
X0100262Y0132531D01*
X0100132Y0132299D01*
X0099997Y0132071D01*
X0099856Y0131846D01*
X0099709Y0131624D01*
X0099557Y0131407D01*
X0099400Y0131193D01*
X0099238Y0130982D01*
X0099071Y0130776D01*
X0098898Y0130574D01*
X0098721Y0130376D01*
X0098539Y0130183D01*
X0098352Y0129994D01*
X0098161Y0129810D01*
X0097965Y0129631D01*
X0097765Y0129456D01*
X0097561Y0129286D01*
X0097353Y0129122D01*
X0097140Y0128962D01*
X0096924Y0128808D01*
X0096704Y0128659D01*
X0096481Y0128516D01*
X0096254Y0128378D01*
X0096024Y0128245D01*
X0095791Y0128118D01*
X0095554Y0127997D01*
X0095315Y0127882D01*
X0095073Y0127773D01*
X0094828Y0127669D01*
X0094581Y0127572D01*
X0094332Y0127481D01*
X0094081Y0127396D01*
X0093827Y0127317D01*
X0093572Y0127244D01*
X0093315Y0127178D01*
X0093056Y0127117D01*
X0092796Y0127063D01*
X0092535Y0127016D01*
X0092272Y0126975D01*
X0092009Y0126940D01*
X0091745Y0126912D01*
X0091480Y0126890D01*
X0091215Y0126875D01*
X0090950Y0126866D01*
X0090684Y0126864D01*
X0090419Y0126868D01*
X0090153Y0126879D01*
X0089889Y0126896D01*
X0089624Y0126920D01*
X0089360Y0126950D01*
X0089097Y0126987D01*
X0088835Y0127030D01*
X0088574Y0127079D01*
X0088315Y0127135D01*
X0088056Y0127197D01*
X0087800Y0127265D01*
X0087545Y0127340D01*
X0087292Y0127421D01*
X0087041Y0127508D01*
X0086793Y0127601D01*
X0086546Y0127700D01*
X0086302Y0127805D01*
X0086061Y0127916D01*
X0085823Y0128033D01*
X0085587Y0128156D01*
X0085355Y0128284D01*
X0085126Y0128418D01*
X0084900Y0128558D01*
X0084677Y0128703D01*
X0084459Y0128854D01*
X0084244Y0129009D01*
X0084033Y0129170D01*
X0084079Y0129229D01*
X0084289Y0129069D01*
X0084502Y0128915D01*
X0084719Y0128765D01*
X0084940Y0128621D01*
X0085165Y0128482D01*
X0085392Y0128349D01*
X0085623Y0128222D01*
X0085857Y0128100D01*
X0086094Y0127984D01*
X0086333Y0127873D01*
X0086575Y0127769D01*
X0086820Y0127670D01*
X0087067Y0127578D01*
X0087316Y0127492D01*
X0087567Y0127411D01*
X0087820Y0127337D01*
X0088075Y0127269D01*
X0088331Y0127208D01*
X0088589Y0127152D01*
X0088848Y0127103D01*
X0089109Y0127061D01*
X0089370Y0127024D01*
X0089632Y0126994D01*
X0089894Y0126971D01*
X0090158Y0126954D01*
X0090421Y0126943D01*
X0090685Y0126939D01*
X0090948Y0126941D01*
X0091212Y0126950D01*
X0091475Y0126965D01*
X0091738Y0126987D01*
X0092000Y0127015D01*
X0092262Y0127049D01*
X0092522Y0127090D01*
X0092782Y0127137D01*
X0093040Y0127191D01*
X0093297Y0127250D01*
X0093552Y0127316D01*
X0093806Y0127389D01*
X0094057Y0127467D01*
X0094307Y0127552D01*
X0094555Y0127642D01*
X0094800Y0127739D01*
X0095043Y0127842D01*
X0095283Y0127950D01*
X0095521Y0128065D01*
X0095756Y0128185D01*
X0095987Y0128311D01*
X0096216Y0128442D01*
X0096441Y0128579D01*
X0096663Y0128722D01*
X0096881Y0128869D01*
X0097096Y0129023D01*
X0097307Y0129181D01*
X0097514Y0129345D01*
X0097717Y0129513D01*
X0097915Y0129686D01*
X0098110Y0129865D01*
X0098300Y0130048D01*
X0098485Y0130235D01*
X0098666Y0130427D01*
X0098842Y0130623D01*
X0099013Y0130824D01*
X0099179Y0131029D01*
X0099340Y0131237D01*
X0099496Y0131450D01*
X0099647Y0131666D01*
X0099793Y0131886D01*
X0099933Y0132110D01*
X0100067Y0132337D01*
X0100196Y0132567D01*
X0100319Y0132800D01*
X0100437Y0133036D01*
X0100548Y0133275D01*
X0100654Y0133516D01*
X0100754Y0133760D01*
X0100848Y0134007D01*
X0100936Y0134255D01*
X0101018Y0134506D01*
X0100946Y0134528D01*
X0100865Y0134279D01*
X0100778Y0134032D01*
X0100684Y0133788D01*
X0100585Y0133545D01*
X0100480Y0133305D01*
X0100369Y0133068D01*
X0100252Y0132834D01*
X0100130Y0132602D01*
X0100002Y0132374D01*
X0099868Y0132149D01*
X0099729Y0131927D01*
X0099585Y0131708D01*
X0099435Y0131494D01*
X0099280Y0131282D01*
X0099120Y0131075D01*
X0098955Y0130872D01*
X0098785Y0130673D01*
X0098610Y0130478D01*
X0098431Y0130287D01*
X0098247Y0130101D01*
X0098058Y0129919D01*
X0097865Y0129742D01*
X0097668Y0129570D01*
X0097466Y0129403D01*
X0097261Y0129240D01*
X0097052Y0129083D01*
X0096839Y0128931D01*
X0096622Y0128784D01*
X0096401Y0128643D01*
X0096178Y0128507D01*
X0095951Y0128376D01*
X0095721Y0128251D01*
X0095488Y0128132D01*
X0095252Y0128018D01*
X0095013Y0127910D01*
X0094772Y0127808D01*
X0094528Y0127712D01*
X0094282Y0127622D01*
X0094034Y0127538D01*
X0093784Y0127460D01*
X0093532Y0127389D01*
X0093279Y0127323D01*
X0093024Y0127264D01*
X0092767Y0127211D01*
X0092510Y0127164D01*
X0092251Y0127123D01*
X0091991Y0127089D01*
X0091731Y0127061D01*
X0091470Y0127040D01*
X0091209Y0127025D01*
X0090947Y0127016D01*
X0090685Y0127014D01*
X0090423Y0127018D01*
X0090162Y0127029D01*
X0089900Y0127046D01*
X0089639Y0127069D01*
X0089379Y0127099D01*
X0089120Y0127135D01*
X0088862Y0127177D01*
X0088604Y0127226D01*
X0088348Y0127281D01*
X0088094Y0127342D01*
X0087841Y0127409D01*
X0087589Y0127483D01*
X0087340Y0127563D01*
X0087092Y0127649D01*
X0086847Y0127740D01*
X0086604Y0127838D01*
X0086364Y0127942D01*
X0086126Y0128051D01*
X0085891Y0128167D01*
X0085659Y0128288D01*
X0085429Y0128414D01*
X0085203Y0128546D01*
X0084981Y0128684D01*
X0084761Y0128827D01*
X0084546Y0128976D01*
X0084334Y0129129D01*
X0084125Y0129288D01*
X0084172Y0129347D01*
X0084379Y0129189D01*
X0084589Y0129037D01*
X0084803Y0128889D01*
X0085021Y0128747D01*
X0085242Y0128611D01*
X0085467Y0128479D01*
X0085694Y0128354D01*
X0085925Y0128233D01*
X0086158Y0128119D01*
X0086395Y0128010D01*
X0086633Y0127907D01*
X0086874Y0127810D01*
X0087118Y0127719D01*
X0087364Y0127634D01*
X0087611Y0127555D01*
X0087861Y0127482D01*
X0088112Y0127415D01*
X0088365Y0127354D01*
X0088619Y0127299D01*
X0088875Y0127251D01*
X0089131Y0127209D01*
X0089389Y0127173D01*
X0089647Y0127144D01*
X0089906Y0127120D01*
X0090166Y0127104D01*
X0090425Y0127093D01*
X0090685Y0127089D01*
X0090945Y0127091D01*
X0091205Y0127100D01*
X0091465Y0127115D01*
X0091724Y0127136D01*
X0091983Y0127164D01*
X0092240Y0127198D01*
X0092497Y0127238D01*
X0092753Y0127284D01*
X0093008Y0127337D01*
X0093261Y0127396D01*
X0093513Y0127461D01*
X0093763Y0127532D01*
X0094011Y0127610D01*
X0094257Y0127693D01*
X0094501Y0127782D01*
X0094743Y0127878D01*
X0094983Y0127979D01*
X0095220Y0128086D01*
X0095454Y0128199D01*
X0095686Y0128317D01*
X0095914Y0128441D01*
X0096139Y0128571D01*
X0096362Y0128706D01*
X0096580Y0128847D01*
X0096796Y0128993D01*
X0097007Y0129144D01*
X0097215Y0129300D01*
X0097419Y0129461D01*
X0097619Y0129627D01*
X0097815Y0129798D01*
X0098007Y0129974D01*
X0098194Y0130154D01*
X0098377Y0130339D01*
X0098555Y0130528D01*
X0098729Y0130722D01*
X0098897Y0130920D01*
X0099061Y0131122D01*
X0099220Y0131327D01*
X0099374Y0131537D01*
X0099523Y0131750D01*
X0099666Y0131967D01*
X0099804Y0132188D01*
X0099937Y0132411D01*
X0100064Y0132638D01*
X0100186Y0132868D01*
X0100301Y0133101D01*
X0100412Y0133336D01*
X0100516Y0133574D01*
X0100615Y0133815D01*
X0100707Y0134058D01*
X0100794Y0134303D01*
X0100874Y0134550D01*
X0100803Y0134572D01*
X0100723Y0134327D01*
X0100637Y0134084D01*
X0100545Y0133842D01*
X0100447Y0133603D01*
X0100343Y0133367D01*
X0100234Y0133133D01*
X0100119Y0132902D01*
X0099998Y0132674D01*
X0099872Y0132448D01*
X0099740Y0132226D01*
X0099603Y0132008D01*
X0099461Y0131792D01*
X0099313Y0131581D01*
X0099160Y0131372D01*
X0099002Y0131168D01*
X0098840Y0130968D01*
X0098672Y0130771D01*
X0098500Y0130579D01*
X0098323Y0130391D01*
X0098141Y0130207D01*
X0097955Y0130028D01*
X0097765Y0129854D01*
X0097570Y0129684D01*
X0097372Y0129519D01*
X0097169Y0129359D01*
X0096963Y0129204D01*
X0096753Y0129054D01*
X0096539Y0128909D01*
X0096322Y0128770D01*
X0096101Y0128636D01*
X0095877Y0128507D01*
X0095651Y0128384D01*
X0095421Y0128266D01*
X0095188Y0128154D01*
X0094953Y0128048D01*
X0094715Y0127947D01*
X0094475Y0127853D01*
X0094232Y0127764D01*
X0093988Y0127681D01*
X0093741Y0127604D01*
X0093493Y0127534D01*
X0093243Y0127469D01*
X0092992Y0127410D01*
X0092739Y0127358D01*
X0092485Y0127312D01*
X0092230Y0127272D01*
X0091974Y0127238D01*
X0091717Y0127211D01*
X0091460Y0127190D01*
X0091202Y0127175D01*
X0090944Y0127166D01*
X0090686Y0127164D01*
X0090428Y0127168D01*
X0090170Y0127179D01*
X0089912Y0127195D01*
X0089655Y0127218D01*
X0089398Y0127248D01*
X0089143Y0127283D01*
X0088888Y0127325D01*
X0088634Y0127373D01*
X0088382Y0127427D01*
X0088131Y0127487D01*
X0087881Y0127554D01*
X0087633Y0127626D01*
X0087388Y0127705D01*
X0087144Y0127789D01*
X0086902Y0127880D01*
X0086662Y0127976D01*
X0086425Y0128079D01*
X0086191Y0128187D01*
X0085959Y0128300D01*
X0085730Y0128420D01*
X0085504Y0128544D01*
X0085281Y0128675D01*
X0085062Y0128811D01*
X0084845Y0128952D01*
X0084633Y0129098D01*
X0084424Y0129249D01*
X0084218Y0129406D01*
X0084265Y0129465D01*
X0084469Y0129309D01*
X0084676Y0129159D01*
X0084887Y0129014D01*
X0085102Y0128874D01*
X0085320Y0128739D01*
X0085541Y0128609D01*
X0085766Y0128486D01*
X0085993Y0128367D01*
X0086223Y0128254D01*
X0086456Y0128147D01*
X0086691Y0128046D01*
X0086929Y0127950D01*
X0087169Y0127860D01*
X0087411Y0127776D01*
X0087656Y0127698D01*
X0087902Y0127626D01*
X0088149Y0127560D01*
X0088399Y0127500D01*
X0088649Y0127446D01*
X0088901Y0127399D01*
X0089154Y0127357D01*
X0089408Y0127322D01*
X0089663Y0127293D01*
X0089918Y0127270D01*
X0090174Y0127253D01*
X0090430Y0127243D01*
X0090686Y0127239D01*
X0090942Y0127241D01*
X0091199Y0127250D01*
X0091455Y0127264D01*
X0091710Y0127285D01*
X0091965Y0127313D01*
X0092219Y0127346D01*
X0092472Y0127386D01*
X0092725Y0127432D01*
X0092976Y0127484D01*
X0093225Y0127542D01*
X0093473Y0127606D01*
X0093720Y0127676D01*
X0093965Y0127752D01*
X0094207Y0127835D01*
X0094448Y0127923D01*
X0094687Y0128017D01*
X0094923Y0128116D01*
X0095156Y0128222D01*
X0095387Y0128333D01*
X0095615Y0128450D01*
X0095841Y0128572D01*
X0096063Y0128700D01*
X0096282Y0128833D01*
X0096498Y0128972D01*
X0096710Y0129116D01*
X0096919Y0129264D01*
X0097123Y0129418D01*
X0097325Y0129577D01*
X0097522Y0129741D01*
X0097715Y0129910D01*
X0097904Y0130083D01*
X0098088Y0130261D01*
X0098269Y0130443D01*
X0098444Y0130630D01*
X0098616Y0130820D01*
X0098782Y0131015D01*
X0098944Y0131214D01*
X0099100Y0131417D01*
X0099252Y0131624D01*
X0099398Y0131834D01*
X0099540Y0132048D01*
X0099676Y0132265D01*
X0099807Y0132486D01*
X0099932Y0132709D01*
X0100052Y0132936D01*
X0100166Y0133165D01*
X0100275Y0133398D01*
X0100378Y0133632D01*
X0100475Y0133870D01*
X0100566Y0134109D01*
X0100652Y0134351D01*
X0100731Y0134595D01*
X0100659Y0134617D01*
X0100580Y0134375D01*
X0100496Y0134135D01*
X0100405Y0133897D01*
X0100309Y0133661D01*
X0100206Y0133428D01*
X0100099Y0133198D01*
X0099985Y0132970D01*
X0099866Y0132745D01*
X0099742Y0132523D01*
X0099612Y0132304D01*
X0099477Y0132089D01*
X0099336Y0131876D01*
X0099191Y0131667D01*
X0099040Y0131462D01*
X0098885Y0131261D01*
X0098724Y0131063D01*
X0098559Y0130870D01*
X0098389Y0130680D01*
X0098215Y0130495D01*
X0098036Y0130314D01*
X0097852Y0130138D01*
X0097665Y0129966D01*
X0097473Y0129798D01*
X0097277Y0129636D01*
X0097078Y0129478D01*
X0096874Y0129325D01*
X0096667Y0129177D01*
X0096456Y0129034D01*
X0096242Y0128897D01*
X0096025Y0128765D01*
X0095804Y0128638D01*
X0095580Y0128516D01*
X0095354Y0128400D01*
X0095125Y0128290D01*
X0094893Y0128185D01*
X0094658Y0128086D01*
X0094421Y0127993D01*
X0094182Y0127905D01*
X0093941Y0127824D01*
X0093698Y0127748D01*
X0093454Y0127678D01*
X0093207Y0127615D01*
X0092959Y0127557D01*
X0092710Y0127505D01*
X0092460Y0127460D01*
X0092208Y0127420D01*
X0091956Y0127387D01*
X0091703Y0127360D01*
X0091449Y0127339D01*
X0091195Y0127325D01*
X0090941Y0127316D01*
X0090686Y0127314D01*
X0090432Y0127318D01*
X0090178Y0127328D01*
X0089924Y0127345D01*
X0089670Y0127367D01*
X0089417Y0127396D01*
X0089165Y0127431D01*
X0088914Y0127473D01*
X0088664Y0127520D01*
X0088415Y0127573D01*
X0088168Y0127633D01*
X0087922Y0127698D01*
X0087678Y0127770D01*
X0087435Y0127847D01*
X0087195Y0127930D01*
X0086956Y0128020D01*
X0086720Y0128115D01*
X0086487Y0128215D01*
X0086256Y0128322D01*
X0086027Y0128434D01*
X0085801Y0128551D01*
X0085579Y0128675D01*
X0085359Y0128803D01*
X0085142Y0128937D01*
X0084929Y0129076D01*
X0084720Y0129220D01*
X0084514Y0129369D01*
X0084311Y0129524D01*
X0084358Y0129583D01*
X0084558Y0129430D01*
X0084763Y0129281D01*
X0084971Y0129138D01*
X0085183Y0129000D01*
X0085398Y0128867D01*
X0085616Y0128740D01*
X0085837Y0128617D01*
X0086061Y0128501D01*
X0086288Y0128389D01*
X0086517Y0128284D01*
X0086749Y0128184D01*
X0086984Y0128090D01*
X0087220Y0128001D01*
X0087459Y0127918D01*
X0087700Y0127841D01*
X0087942Y0127770D01*
X0088186Y0127705D01*
X0088432Y0127646D01*
X0088679Y0127593D01*
X0088927Y0127546D01*
X0089177Y0127505D01*
X0089427Y0127471D01*
X0089678Y0127442D01*
X0089930Y0127420D01*
X0090182Y0127403D01*
X0090434Y0127393D01*
X0090687Y0127389D01*
X0090939Y0127391D01*
X0091192Y0127400D01*
X0091444Y0127414D01*
X0091696Y0127435D01*
X0091947Y0127462D01*
X0092198Y0127495D01*
X0092447Y0127534D01*
X0092696Y0127579D01*
X0092943Y0127630D01*
X0093189Y0127687D01*
X0093434Y0127751D01*
X0093677Y0127820D01*
X0093918Y0127895D01*
X0094158Y0127976D01*
X0094395Y0128063D01*
X0094630Y0128155D01*
X0094863Y0128254D01*
X0095093Y0128358D01*
X0095321Y0128467D01*
X0095545Y0128583D01*
X0095767Y0128703D01*
X0095986Y0128829D01*
X0096202Y0128960D01*
X0096415Y0129097D01*
X0096624Y0129239D01*
X0096830Y0129385D01*
X0097032Y0129537D01*
X0097230Y0129694D01*
X0097424Y0129855D01*
X0097615Y0130021D01*
X0097801Y0130192D01*
X0097983Y0130367D01*
X0098161Y0130547D01*
X0098334Y0130731D01*
X0098502Y0130919D01*
X0098666Y0131111D01*
X0098826Y0131307D01*
X0098980Y0131507D01*
X0099130Y0131711D01*
X0099274Y0131918D01*
X0099414Y0132129D01*
X0099548Y0132343D01*
X0099677Y0132560D01*
X0099800Y0132781D01*
X0099918Y0133004D01*
X0100031Y0133230D01*
X0100138Y0133459D01*
X0100239Y0133690D01*
X0100335Y0133924D01*
X0100425Y0134160D01*
X0100509Y0134399D01*
X0100588Y0134639D01*
X0100516Y0134661D01*
X0100438Y0134422D01*
X0100355Y0134186D01*
X0100265Y0133952D01*
X0100170Y0133719D01*
X0100070Y0133490D01*
X0099963Y0133263D01*
X0099851Y0133038D01*
X0099734Y0132816D01*
X0099612Y0132598D01*
X0099484Y0132382D01*
X0099350Y0132169D01*
X0099212Y0131960D01*
X0099069Y0131754D01*
X0098920Y0131552D01*
X0098767Y0131354D01*
X0098609Y0131159D01*
X0098446Y0130968D01*
X0098278Y0130782D01*
X0098106Y0130599D01*
X0097930Y0130421D01*
X0097749Y0130247D01*
X0097565Y0130077D01*
X0097376Y0129912D01*
X0097183Y0129752D01*
X0096986Y0129596D01*
X0096785Y0129446D01*
X0096581Y0129300D01*
X0096374Y0129160D01*
X0096162Y0129024D01*
X0095948Y0128894D01*
X0095731Y0128769D01*
X0095510Y0128649D01*
X0095287Y0128535D01*
X0095061Y0128426D01*
X0094833Y0128323D01*
X0094602Y0128225D01*
X0094368Y0128133D01*
X0094133Y0128047D01*
X0093895Y0127966D01*
X0093656Y0127892D01*
X0093414Y0127823D01*
X0093172Y0127760D01*
X0092927Y0127703D01*
X0092682Y0127653D01*
X0092435Y0127608D01*
X0092187Y0127569D01*
X0091938Y0127536D01*
X0091689Y0127509D01*
X0091439Y0127489D01*
X0091189Y0127475D01*
X0090938Y0127466D01*
X0090687Y0127464D01*
X0090436Y0127468D01*
X0090186Y0127478D01*
X0089936Y0127494D01*
X0089686Y0127517D01*
X0089437Y0127545D01*
X0089188Y0127580D01*
X0088941Y0127620D01*
X0088694Y0127667D01*
X0088449Y0127719D01*
X0088205Y0127778D01*
X0087963Y0127843D01*
X0087722Y0127913D01*
X0087483Y0127989D01*
X0087246Y0128071D01*
X0087011Y0128159D01*
X0086778Y0128253D01*
X0086548Y0128352D01*
X0086320Y0128457D01*
X0086095Y0128568D01*
X0085873Y0128683D01*
X0085653Y0128805D01*
X0085437Y0128931D01*
X0085223Y0129063D01*
X0085013Y0129200D01*
X0084807Y0129342D01*
X0084603Y0129490D01*
X0084404Y0129642D01*
X0084450Y0129701D01*
X0084648Y0129550D01*
X0084850Y0129403D01*
X0085055Y0129262D01*
X0085264Y0129126D01*
X0085475Y0128995D01*
X0085690Y0128870D01*
X0085908Y0128749D01*
X0086129Y0128634D01*
X0086353Y0128525D01*
X0086579Y0128421D01*
X0086807Y0128322D01*
X0087038Y0128229D01*
X0087272Y0128142D01*
X0087507Y0128060D01*
X0087744Y0127985D01*
X0087983Y0127915D01*
X0088224Y0127851D01*
X0088466Y0127793D01*
X0088709Y0127740D01*
X0088954Y0127694D01*
X0089199Y0127654D01*
X0089446Y0127619D01*
X0089693Y0127591D01*
X0089941Y0127569D01*
X0090190Y0127553D01*
X0090439Y0127543D01*
X0090688Y0127539D01*
X0090937Y0127541D01*
X0091185Y0127549D01*
X0091434Y0127564D01*
X0091682Y0127584D01*
X0091930Y0127611D01*
X0092176Y0127643D01*
X0092422Y0127682D01*
X0092667Y0127726D01*
X0092911Y0127777D01*
X0093154Y0127833D01*
X0093395Y0127895D01*
X0093634Y0127964D01*
X0093872Y0128038D01*
X0094108Y0128118D01*
X0094342Y0128203D01*
X0094573Y0128294D01*
X0094802Y0128391D01*
X0095029Y0128494D01*
X0095254Y0128602D01*
X0095475Y0128715D01*
X0095694Y0128834D01*
X0095910Y0128958D01*
X0096123Y0129088D01*
X0096332Y0129222D01*
X0096538Y0129362D01*
X0096741Y0129506D01*
X0096940Y0129656D01*
X0097135Y0129810D01*
X0097327Y0129969D01*
X0097514Y0130133D01*
X0097698Y0130301D01*
X0097877Y0130474D01*
X0098052Y0130651D01*
X0098223Y0130832D01*
X0098389Y0131018D01*
X0098551Y0131207D01*
X0098708Y0131400D01*
X0098860Y0131597D01*
X0099007Y0131798D01*
X0099150Y0132002D01*
X0099287Y0132210D01*
X0099419Y0132421D01*
X0099546Y0132635D01*
X0099668Y0132852D01*
X0099785Y0133072D01*
X0099896Y0133295D01*
X0100001Y0133520D01*
X0100101Y0133749D01*
X0100195Y0133979D01*
X0100284Y0134212D01*
X0100367Y0134446D01*
X0100444Y0134683D01*
X0101089Y0140963D02*
X0100401Y0140751D01*
X0100401Y0140752D02*
X0100325Y0140987D01*
X0100242Y0141221D01*
X0100154Y0141453D01*
X0100060Y0141682D01*
X0099960Y0141909D01*
X0099855Y0142133D01*
X0099745Y0142355D01*
X0099629Y0142574D01*
X0099507Y0142791D01*
X0099381Y0143004D01*
X0099249Y0143214D01*
X0099113Y0143421D01*
X0098971Y0143624D01*
X0098824Y0143824D01*
X0098673Y0144020D01*
X0098516Y0144212D01*
X0098355Y0144401D01*
X0098190Y0144585D01*
X0098020Y0144766D01*
X0097846Y0144942D01*
X0097667Y0145114D01*
X0097485Y0145281D01*
X0097298Y0145444D01*
X0097107Y0145603D01*
X0096913Y0145756D01*
X0096714Y0145905D01*
X0096513Y0146049D01*
X0096307Y0146188D01*
X0096099Y0146322D01*
X0095887Y0146451D01*
X0095672Y0146575D01*
X0095454Y0146693D01*
X0095234Y0146806D01*
X0095010Y0146913D01*
X0094785Y0147015D01*
X0094556Y0147112D01*
X0094326Y0147203D01*
X0094093Y0147288D01*
X0093858Y0147367D01*
X0093621Y0147441D01*
X0093383Y0147509D01*
X0093143Y0147571D01*
X0092902Y0147627D01*
X0092659Y0147678D01*
X0092415Y0147722D01*
X0092170Y0147760D01*
X0091924Y0147793D01*
X0091678Y0147819D01*
X0091431Y0147839D01*
X0091184Y0147854D01*
X0090936Y0147862D01*
X0090688Y0147864D01*
X0090440Y0147860D01*
X0090192Y0147850D01*
X0089945Y0147834D01*
X0089698Y0147812D01*
X0089452Y0147784D01*
X0089206Y0147750D01*
X0088962Y0147710D01*
X0088718Y0147664D01*
X0088476Y0147612D01*
X0088235Y0147554D01*
X0087995Y0147490D01*
X0087758Y0147420D01*
X0087521Y0147345D01*
X0087287Y0147264D01*
X0087055Y0147177D01*
X0086825Y0147084D01*
X0086597Y0146986D01*
X0086372Y0146883D01*
X0086150Y0146774D01*
X0085930Y0146659D01*
X0085713Y0146539D01*
X0085499Y0146414D01*
X0085288Y0146284D01*
X0085081Y0146148D01*
X0084876Y0146008D01*
X0084676Y0145863D01*
X0084478Y0145712D01*
X0084033Y0146277D01*
X0084033Y0146278D01*
X0084244Y0146439D01*
X0084459Y0146595D01*
X0084678Y0146745D01*
X0084900Y0146890D01*
X0085126Y0147030D01*
X0085355Y0147164D01*
X0085587Y0147292D01*
X0085823Y0147415D01*
X0086061Y0147532D01*
X0086303Y0147643D01*
X0086546Y0147748D01*
X0086793Y0147847D01*
X0087041Y0147941D01*
X0087292Y0148028D01*
X0087545Y0148108D01*
X0087800Y0148183D01*
X0088057Y0148251D01*
X0088315Y0148313D01*
X0088574Y0148369D01*
X0088835Y0148419D01*
X0089097Y0148461D01*
X0089360Y0148498D01*
X0089624Y0148528D01*
X0089889Y0148552D01*
X0090154Y0148569D01*
X0090419Y0148580D01*
X0090684Y0148584D01*
X0090950Y0148582D01*
X0091215Y0148573D01*
X0091481Y0148558D01*
X0091745Y0148536D01*
X0092009Y0148508D01*
X0092272Y0148473D01*
X0092535Y0148432D01*
X0092796Y0148384D01*
X0093056Y0148331D01*
X0093315Y0148270D01*
X0093572Y0148204D01*
X0093827Y0148131D01*
X0094081Y0148052D01*
X0094332Y0147967D01*
X0094582Y0147876D01*
X0094829Y0147778D01*
X0095073Y0147675D01*
X0095315Y0147566D01*
X0095554Y0147451D01*
X0095791Y0147330D01*
X0096024Y0147203D01*
X0096254Y0147070D01*
X0096481Y0146932D01*
X0096705Y0146789D01*
X0096924Y0146640D01*
X0097141Y0146486D01*
X0097353Y0146326D01*
X0097561Y0146162D01*
X0097765Y0145992D01*
X0097965Y0145817D01*
X0098161Y0145638D01*
X0098352Y0145454D01*
X0098539Y0145265D01*
X0098721Y0145071D01*
X0098898Y0144874D01*
X0099071Y0144672D01*
X0099238Y0144466D01*
X0099400Y0144255D01*
X0099558Y0144041D01*
X0099709Y0143823D01*
X0099856Y0143602D01*
X0099997Y0143377D01*
X0100132Y0143149D01*
X0100262Y0142917D01*
X0100386Y0142682D01*
X0100504Y0142444D01*
X0100617Y0142204D01*
X0100724Y0141961D01*
X0100824Y0141715D01*
X0100919Y0141467D01*
X0101007Y0141216D01*
X0101089Y0140964D01*
X0101018Y0140942D01*
X0100936Y0141193D01*
X0100848Y0141441D01*
X0100754Y0141688D01*
X0100654Y0141932D01*
X0100549Y0142173D01*
X0100437Y0142412D01*
X0100319Y0142648D01*
X0100196Y0142881D01*
X0100067Y0143111D01*
X0099933Y0143338D01*
X0099793Y0143562D01*
X0099647Y0143781D01*
X0099496Y0143998D01*
X0099340Y0144210D01*
X0099179Y0144419D01*
X0099013Y0144624D01*
X0098842Y0144824D01*
X0098666Y0145021D01*
X0098485Y0145213D01*
X0098300Y0145400D01*
X0098110Y0145583D01*
X0097915Y0145761D01*
X0097717Y0145935D01*
X0097514Y0146103D01*
X0097307Y0146267D01*
X0097096Y0146425D01*
X0096882Y0146578D01*
X0096663Y0146726D01*
X0096441Y0146869D01*
X0096216Y0147006D01*
X0095987Y0147137D01*
X0095756Y0147263D01*
X0095521Y0147383D01*
X0095283Y0147498D01*
X0095043Y0147606D01*
X0094800Y0147709D01*
X0094555Y0147806D01*
X0094307Y0147896D01*
X0094058Y0147981D01*
X0093806Y0148059D01*
X0093552Y0148132D01*
X0093297Y0148198D01*
X0093040Y0148257D01*
X0092782Y0148311D01*
X0092522Y0148358D01*
X0092262Y0148399D01*
X0092000Y0148433D01*
X0091738Y0148461D01*
X0091475Y0148483D01*
X0091212Y0148498D01*
X0090949Y0148507D01*
X0090685Y0148509D01*
X0090421Y0148505D01*
X0090158Y0148494D01*
X0089895Y0148477D01*
X0089632Y0148454D01*
X0089370Y0148424D01*
X0089109Y0148387D01*
X0088849Y0148345D01*
X0088589Y0148296D01*
X0088332Y0148240D01*
X0088075Y0148179D01*
X0087820Y0148111D01*
X0087567Y0148037D01*
X0087316Y0147956D01*
X0087067Y0147870D01*
X0086820Y0147778D01*
X0086575Y0147679D01*
X0086333Y0147575D01*
X0086094Y0147464D01*
X0085857Y0147348D01*
X0085623Y0147226D01*
X0085392Y0147099D01*
X0085165Y0146966D01*
X0084940Y0146827D01*
X0084720Y0146683D01*
X0084502Y0146534D01*
X0084289Y0146379D01*
X0084079Y0146219D01*
X0084126Y0146160D01*
X0084334Y0146319D01*
X0084546Y0146472D01*
X0084762Y0146621D01*
X0084981Y0146764D01*
X0085204Y0146902D01*
X0085430Y0147034D01*
X0085659Y0147161D01*
X0085891Y0147282D01*
X0086126Y0147397D01*
X0086364Y0147506D01*
X0086604Y0147610D01*
X0086847Y0147708D01*
X0087093Y0147800D01*
X0087340Y0147885D01*
X0087589Y0147965D01*
X0087841Y0148039D01*
X0088094Y0148106D01*
X0088348Y0148167D01*
X0088604Y0148222D01*
X0088862Y0148271D01*
X0089120Y0148313D01*
X0089379Y0148349D01*
X0089640Y0148379D01*
X0089900Y0148402D01*
X0090162Y0148419D01*
X0090423Y0148430D01*
X0090685Y0148434D01*
X0090947Y0148432D01*
X0091209Y0148423D01*
X0091470Y0148408D01*
X0091731Y0148387D01*
X0091992Y0148359D01*
X0092251Y0148325D01*
X0092510Y0148284D01*
X0092768Y0148237D01*
X0093024Y0148184D01*
X0093279Y0148125D01*
X0093532Y0148059D01*
X0093784Y0147987D01*
X0094034Y0147910D01*
X0094282Y0147826D01*
X0094528Y0147736D01*
X0094772Y0147640D01*
X0095013Y0147538D01*
X0095252Y0147430D01*
X0095488Y0147316D01*
X0095721Y0147197D01*
X0095951Y0147072D01*
X0096178Y0146941D01*
X0096402Y0146805D01*
X0096622Y0146664D01*
X0096839Y0146517D01*
X0097052Y0146365D01*
X0097261Y0146208D01*
X0097467Y0146045D01*
X0097668Y0145878D01*
X0097865Y0145706D01*
X0098058Y0145529D01*
X0098247Y0145347D01*
X0098431Y0145161D01*
X0098611Y0144970D01*
X0098785Y0144775D01*
X0098955Y0144576D01*
X0099120Y0144373D01*
X0099280Y0144165D01*
X0099435Y0143954D01*
X0099585Y0143740D01*
X0099729Y0143521D01*
X0099868Y0143299D01*
X0100002Y0143074D01*
X0100130Y0142846D01*
X0100252Y0142614D01*
X0100369Y0142380D01*
X0100480Y0142142D01*
X0100585Y0141903D01*
X0100684Y0141660D01*
X0100778Y0141416D01*
X0100865Y0141169D01*
X0100946Y0140920D01*
X0100874Y0140898D01*
X0100794Y0141145D01*
X0100707Y0141390D01*
X0100615Y0141633D01*
X0100516Y0141874D01*
X0100412Y0142112D01*
X0100302Y0142347D01*
X0100186Y0142580D01*
X0100064Y0142810D01*
X0099937Y0143037D01*
X0099804Y0143260D01*
X0099666Y0143481D01*
X0099523Y0143698D01*
X0099374Y0143911D01*
X0099220Y0144120D01*
X0099061Y0144326D01*
X0098898Y0144528D01*
X0098729Y0144726D01*
X0098555Y0144920D01*
X0098377Y0145109D01*
X0098194Y0145294D01*
X0098007Y0145474D01*
X0097815Y0145650D01*
X0097619Y0145821D01*
X0097419Y0145987D01*
X0097215Y0146148D01*
X0097007Y0146304D01*
X0096796Y0146455D01*
X0096580Y0146601D01*
X0096362Y0146742D01*
X0096140Y0146877D01*
X0095914Y0147007D01*
X0095686Y0147131D01*
X0095454Y0147249D01*
X0095220Y0147362D01*
X0094983Y0147469D01*
X0094743Y0147570D01*
X0094502Y0147665D01*
X0094257Y0147755D01*
X0094011Y0147838D01*
X0093763Y0147916D01*
X0093513Y0147987D01*
X0093261Y0148052D01*
X0093008Y0148111D01*
X0092753Y0148164D01*
X0092497Y0148210D01*
X0092241Y0148250D01*
X0091983Y0148284D01*
X0091724Y0148312D01*
X0091465Y0148333D01*
X0091205Y0148348D01*
X0090946Y0148357D01*
X0090686Y0148359D01*
X0090426Y0148355D01*
X0090166Y0148344D01*
X0089906Y0148328D01*
X0089647Y0148304D01*
X0089389Y0148275D01*
X0089131Y0148239D01*
X0088875Y0148197D01*
X0088619Y0148149D01*
X0088365Y0148094D01*
X0088112Y0148033D01*
X0087861Y0147966D01*
X0087612Y0147893D01*
X0087364Y0147814D01*
X0087118Y0147729D01*
X0086875Y0147638D01*
X0086633Y0147541D01*
X0086395Y0147438D01*
X0086159Y0147329D01*
X0085925Y0147215D01*
X0085694Y0147095D01*
X0085467Y0146969D01*
X0085242Y0146837D01*
X0085021Y0146701D01*
X0084804Y0146559D01*
X0084589Y0146411D01*
X0084379Y0146259D01*
X0084172Y0146101D01*
X0084218Y0146042D01*
X0084424Y0146199D01*
X0084633Y0146350D01*
X0084846Y0146497D01*
X0085062Y0146638D01*
X0085281Y0146773D01*
X0085504Y0146904D01*
X0085730Y0147029D01*
X0085959Y0147148D01*
X0086191Y0147262D01*
X0086425Y0147370D01*
X0086662Y0147472D01*
X0086902Y0147568D01*
X0087144Y0147659D01*
X0087388Y0147743D01*
X0087634Y0147822D01*
X0087881Y0147894D01*
X0088131Y0147961D01*
X0088382Y0148021D01*
X0088634Y0148075D01*
X0088888Y0148123D01*
X0089143Y0148165D01*
X0089399Y0148200D01*
X0089655Y0148230D01*
X0089912Y0148253D01*
X0090170Y0148269D01*
X0090428Y0148280D01*
X0090686Y0148284D01*
X0090944Y0148282D01*
X0091202Y0148273D01*
X0091460Y0148258D01*
X0091717Y0148237D01*
X0091974Y0148210D01*
X0092230Y0148176D01*
X0092485Y0148136D01*
X0092739Y0148090D01*
X0092992Y0148038D01*
X0093243Y0147979D01*
X0093493Y0147914D01*
X0093741Y0147844D01*
X0093988Y0147767D01*
X0094232Y0147684D01*
X0094475Y0147595D01*
X0094715Y0147501D01*
X0094953Y0147400D01*
X0095188Y0147294D01*
X0095421Y0147182D01*
X0095651Y0147064D01*
X0095878Y0146941D01*
X0096101Y0146812D01*
X0096322Y0146678D01*
X0096539Y0146539D01*
X0096753Y0146394D01*
X0096963Y0146244D01*
X0097169Y0146089D01*
X0097372Y0145929D01*
X0097571Y0145764D01*
X0097765Y0145594D01*
X0097955Y0145420D01*
X0098141Y0145240D01*
X0098323Y0145057D01*
X0098500Y0144869D01*
X0098672Y0144677D01*
X0098840Y0144480D01*
X0099003Y0144280D01*
X0099160Y0144076D01*
X0099313Y0143867D01*
X0099461Y0143656D01*
X0099603Y0143440D01*
X0099740Y0143221D01*
X0099872Y0142999D01*
X0099998Y0142774D01*
X0100119Y0142546D01*
X0100234Y0142315D01*
X0100343Y0142081D01*
X0100447Y0141845D01*
X0100545Y0141606D01*
X0100637Y0141364D01*
X0100723Y0141121D01*
X0100803Y0140876D01*
X0100731Y0140853D01*
X0100652Y0141097D01*
X0100566Y0141339D01*
X0100475Y0141578D01*
X0100378Y0141816D01*
X0100275Y0142050D01*
X0100166Y0142282D01*
X0100052Y0142512D01*
X0099932Y0142739D01*
X0099807Y0142962D01*
X0099676Y0143183D01*
X0099540Y0143400D01*
X0099399Y0143614D01*
X0099252Y0143824D01*
X0099100Y0144031D01*
X0098944Y0144233D01*
X0098782Y0144432D01*
X0098616Y0144627D01*
X0098445Y0144818D01*
X0098269Y0145005D01*
X0098089Y0145187D01*
X0097904Y0145365D01*
X0097715Y0145538D01*
X0097522Y0145707D01*
X0097325Y0145871D01*
X0097124Y0146029D01*
X0096919Y0146183D01*
X0096710Y0146332D01*
X0096498Y0146476D01*
X0096282Y0146615D01*
X0096063Y0146748D01*
X0095841Y0146876D01*
X0095616Y0146998D01*
X0095387Y0147115D01*
X0095156Y0147226D01*
X0094923Y0147332D01*
X0094687Y0147431D01*
X0094448Y0147525D01*
X0094208Y0147613D01*
X0093965Y0147696D01*
X0093720Y0147772D01*
X0093474Y0147842D01*
X0093225Y0147906D01*
X0092976Y0147964D01*
X0092725Y0148016D01*
X0092472Y0148062D01*
X0092219Y0148102D01*
X0091965Y0148135D01*
X0091710Y0148163D01*
X0091455Y0148184D01*
X0091199Y0148198D01*
X0090943Y0148207D01*
X0090686Y0148209D01*
X0090430Y0148205D01*
X0090174Y0148195D01*
X0089918Y0148178D01*
X0089663Y0148155D01*
X0089408Y0148126D01*
X0089154Y0148091D01*
X0088901Y0148049D01*
X0088649Y0148002D01*
X0088399Y0147948D01*
X0088149Y0147888D01*
X0087902Y0147822D01*
X0087656Y0147750D01*
X0087412Y0147672D01*
X0087169Y0147588D01*
X0086929Y0147498D01*
X0086692Y0147403D01*
X0086456Y0147301D01*
X0086223Y0147194D01*
X0085993Y0147081D01*
X0085766Y0146963D01*
X0085541Y0146839D01*
X0085320Y0146709D01*
X0085102Y0146574D01*
X0084887Y0146434D01*
X0084676Y0146289D01*
X0084469Y0146139D01*
X0084265Y0145983D01*
X0084311Y0145924D01*
X0084514Y0146079D01*
X0084720Y0146228D01*
X0084929Y0146372D01*
X0085143Y0146511D01*
X0085359Y0146645D01*
X0085579Y0146774D01*
X0085801Y0146897D01*
X0086027Y0147014D01*
X0086256Y0147126D01*
X0086487Y0147233D01*
X0086721Y0147333D01*
X0086957Y0147428D01*
X0087195Y0147518D01*
X0087435Y0147601D01*
X0087678Y0147678D01*
X0087922Y0147750D01*
X0088168Y0147815D01*
X0088416Y0147875D01*
X0088664Y0147928D01*
X0088914Y0147976D01*
X0089166Y0148017D01*
X0089418Y0148052D01*
X0089670Y0148081D01*
X0089924Y0148103D01*
X0090178Y0148120D01*
X0090432Y0148130D01*
X0090687Y0148134D01*
X0090941Y0148132D01*
X0091195Y0148123D01*
X0091450Y0148109D01*
X0091703Y0148088D01*
X0091956Y0148061D01*
X0092209Y0148028D01*
X0092460Y0147988D01*
X0092710Y0147943D01*
X0092960Y0147891D01*
X0093207Y0147833D01*
X0093454Y0147770D01*
X0093699Y0147700D01*
X0093942Y0147624D01*
X0094183Y0147543D01*
X0094422Y0147455D01*
X0094658Y0147362D01*
X0094893Y0147263D01*
X0095125Y0147158D01*
X0095354Y0147048D01*
X0095581Y0146932D01*
X0095804Y0146810D01*
X0096025Y0146683D01*
X0096242Y0146551D01*
X0096456Y0146414D01*
X0096667Y0146271D01*
X0096874Y0146123D01*
X0097078Y0145970D01*
X0097277Y0145812D01*
X0097473Y0145650D01*
X0097665Y0145482D01*
X0097852Y0145310D01*
X0098036Y0145134D01*
X0098215Y0144953D01*
X0098389Y0144768D01*
X0098559Y0144578D01*
X0098724Y0144385D01*
X0098885Y0144187D01*
X0099040Y0143986D01*
X0099191Y0143780D01*
X0099336Y0143572D01*
X0099477Y0143359D01*
X0099612Y0143144D01*
X0099742Y0142925D01*
X0099866Y0142703D01*
X0099985Y0142478D01*
X0100099Y0142250D01*
X0100206Y0142020D01*
X0100309Y0141786D01*
X0100405Y0141551D01*
X0100496Y0141313D01*
X0100581Y0141073D01*
X0100659Y0140831D01*
X0100588Y0140809D01*
X0100509Y0141049D01*
X0100425Y0141288D01*
X0100335Y0141524D01*
X0100239Y0141757D01*
X0100138Y0141989D01*
X0100031Y0142218D01*
X0099918Y0142444D01*
X0099800Y0142667D01*
X0099677Y0142888D01*
X0099548Y0143105D01*
X0099414Y0143319D01*
X0099274Y0143530D01*
X0099130Y0143737D01*
X0098980Y0143941D01*
X0098826Y0144141D01*
X0098667Y0144337D01*
X0098503Y0144529D01*
X0098334Y0144717D01*
X0098161Y0144901D01*
X0097983Y0145081D01*
X0097801Y0145256D01*
X0097615Y0145427D01*
X0097424Y0145593D01*
X0097230Y0145754D01*
X0097032Y0145911D01*
X0096830Y0146063D01*
X0096624Y0146209D01*
X0096415Y0146351D01*
X0096202Y0146488D01*
X0095987Y0146619D01*
X0095768Y0146745D01*
X0095546Y0146865D01*
X0095321Y0146981D01*
X0095093Y0147090D01*
X0094863Y0147194D01*
X0094630Y0147292D01*
X0094395Y0147385D01*
X0094158Y0147472D01*
X0093918Y0147553D01*
X0093677Y0147628D01*
X0093434Y0147697D01*
X0093190Y0147761D01*
X0092944Y0147818D01*
X0092696Y0147869D01*
X0092448Y0147914D01*
X0092198Y0147953D01*
X0091947Y0147986D01*
X0091696Y0148013D01*
X0091444Y0148034D01*
X0091192Y0148048D01*
X0090940Y0148057D01*
X0090687Y0148059D01*
X0090434Y0148055D01*
X0090182Y0148045D01*
X0089930Y0148028D01*
X0089678Y0148006D01*
X0089427Y0147977D01*
X0089177Y0147943D01*
X0088928Y0147902D01*
X0088679Y0147855D01*
X0088432Y0147802D01*
X0088187Y0147743D01*
X0087942Y0147678D01*
X0087700Y0147607D01*
X0087459Y0147530D01*
X0087221Y0147447D01*
X0086984Y0147359D01*
X0086750Y0147264D01*
X0086518Y0147164D01*
X0086288Y0147059D01*
X0086061Y0146947D01*
X0085837Y0146831D01*
X0085616Y0146708D01*
X0085398Y0146581D01*
X0085183Y0146448D01*
X0084971Y0146310D01*
X0084763Y0146167D01*
X0084559Y0146019D01*
X0084358Y0145865D01*
X0084404Y0145807D01*
X0084604Y0145959D01*
X0084807Y0146106D01*
X0085013Y0146248D01*
X0085223Y0146385D01*
X0085437Y0146517D01*
X0085653Y0146643D01*
X0085873Y0146765D01*
X0086095Y0146881D01*
X0086320Y0146991D01*
X0086548Y0147096D01*
X0086779Y0147195D01*
X0087011Y0147289D01*
X0087246Y0147377D01*
X0087483Y0147459D01*
X0087722Y0147535D01*
X0087963Y0147605D01*
X0088205Y0147670D01*
X0088449Y0147729D01*
X0088694Y0147781D01*
X0088941Y0147828D01*
X0089188Y0147868D01*
X0089437Y0147903D01*
X0089686Y0147931D01*
X0089936Y0147954D01*
X0090186Y0147970D01*
X0090437Y0147980D01*
X0090687Y0147984D01*
X0090938Y0147982D01*
X0091189Y0147973D01*
X0091439Y0147959D01*
X0091689Y0147938D01*
X0091939Y0147912D01*
X0092187Y0147879D01*
X0092435Y0147840D01*
X0092682Y0147795D01*
X0092927Y0147745D01*
X0093172Y0147688D01*
X0093415Y0147625D01*
X0093656Y0147556D01*
X0093895Y0147482D01*
X0094133Y0147401D01*
X0094368Y0147315D01*
X0094602Y0147223D01*
X0094833Y0147125D01*
X0095061Y0147022D01*
X0095287Y0146913D01*
X0095511Y0146799D01*
X0095731Y0146679D01*
X0095948Y0146554D01*
X0096163Y0146424D01*
X0096374Y0146288D01*
X0096581Y0146148D01*
X0096785Y0146002D01*
X0096986Y0145851D01*
X0097183Y0145696D01*
X0097376Y0145536D01*
X0097565Y0145371D01*
X0097750Y0145201D01*
X0097930Y0145027D01*
X0098107Y0144849D01*
X0098279Y0144666D01*
X0098446Y0144480D01*
X0098609Y0144289D01*
X0098767Y0144094D01*
X0098920Y0143896D01*
X0099069Y0143693D01*
X0099212Y0143488D01*
X0099350Y0143279D01*
X0099484Y0143066D01*
X0099612Y0142850D01*
X0099734Y0142632D01*
X0099851Y0142410D01*
X0099963Y0142185D01*
X0100070Y0141958D01*
X0100170Y0141728D01*
X0100265Y0141496D01*
X0100355Y0141262D01*
X0100438Y0141025D01*
X0100516Y0140787D01*
X0100444Y0140765D01*
X0100367Y0141002D01*
X0100284Y0141236D01*
X0100195Y0141469D01*
X0100101Y0141699D01*
X0100001Y0141927D01*
X0099896Y0142153D01*
X0099785Y0142376D01*
X0099668Y0142596D01*
X0099546Y0142813D01*
X0099419Y0143027D01*
X0099287Y0143238D01*
X0099150Y0143446D01*
X0099008Y0143650D01*
X0098860Y0143851D01*
X0098708Y0144048D01*
X0098551Y0144241D01*
X0098389Y0144430D01*
X0098223Y0144616D01*
X0098053Y0144797D01*
X0097877Y0144974D01*
X0097698Y0145147D01*
X0097515Y0145315D01*
X0097327Y0145479D01*
X0097135Y0145638D01*
X0096940Y0145792D01*
X0096741Y0145942D01*
X0096538Y0146086D01*
X0096332Y0146226D01*
X0096123Y0146360D01*
X0095910Y0146490D01*
X0095694Y0146614D01*
X0095475Y0146733D01*
X0095254Y0146846D01*
X0095030Y0146954D01*
X0094803Y0147057D01*
X0094573Y0147154D01*
X0094342Y0147245D01*
X0094108Y0147330D01*
X0093872Y0147410D01*
X0093634Y0147484D01*
X0093395Y0147553D01*
X0093154Y0147615D01*
X0092911Y0147671D01*
X0092668Y0147722D01*
X0092423Y0147766D01*
X0092177Y0147805D01*
X0091930Y0147837D01*
X0091682Y0147864D01*
X0091434Y0147884D01*
X0091186Y0147899D01*
X0090937Y0147907D01*
X0090688Y0147909D01*
X0090439Y0147905D01*
X0090190Y0147895D01*
X0089942Y0147879D01*
X0089694Y0147857D01*
X0089446Y0147829D01*
X0089200Y0147794D01*
X0088954Y0147754D01*
X0088709Y0147708D01*
X0088466Y0147656D01*
X0088224Y0147597D01*
X0087983Y0147533D01*
X0087744Y0147463D01*
X0087507Y0147388D01*
X0087272Y0147306D01*
X0087039Y0147219D01*
X0086808Y0147126D01*
X0086579Y0147027D01*
X0086353Y0146923D01*
X0086129Y0146814D01*
X0085909Y0146699D01*
X0085691Y0146578D01*
X0085476Y0146453D01*
X0085264Y0146322D01*
X0085055Y0146186D01*
X0084850Y0146045D01*
X0084649Y0145899D01*
X0084451Y0145748D01*
D23*
X0061118Y0104724D03*
X0059118Y0012724D03*
M02*
