G75*
%MOIN*%
%OFA0B0*%
%FSLAX25Y25*%
%IPPOS*%
%LPD*%
%AMOC8*
5,1,8,0,0,1.08239X$1,22.5*
%
%ADD10C,0.00000*%
%ADD11R,0.03937X0.10236*%
%ADD12C,0.07087*%
%ADD13C,0.05200*%
%ADD14R,0.12598X0.03937*%
%ADD15OC8,0.05740*%
%ADD16C,0.13055*%
%ADD17R,0.03937X0.12598*%
%ADD18R,0.04724X0.03150*%
%ADD19C,0.07874*%
%ADD20C,0.09449*%
%ADD21OC8,0.10000*%
%ADD22C,0.07400*%
%ADD23R,0.10236X0.04724*%
%ADD24C,0.03150*%
%ADD25C,0.01600*%
%ADD26C,0.03150*%
D10*
X0005724Y0017535D02*
X0005724Y0190764D01*
X0011236Y0190764D02*
X0011238Y0190922D01*
X0011244Y0191080D01*
X0011254Y0191238D01*
X0011268Y0191396D01*
X0011286Y0191553D01*
X0011307Y0191710D01*
X0011333Y0191866D01*
X0011363Y0192022D01*
X0011396Y0192177D01*
X0011434Y0192330D01*
X0011475Y0192483D01*
X0011520Y0192635D01*
X0011569Y0192786D01*
X0011622Y0192935D01*
X0011678Y0193083D01*
X0011738Y0193229D01*
X0011802Y0193374D01*
X0011870Y0193517D01*
X0011941Y0193659D01*
X0012015Y0193799D01*
X0012093Y0193936D01*
X0012175Y0194072D01*
X0012259Y0194206D01*
X0012348Y0194337D01*
X0012439Y0194466D01*
X0012534Y0194593D01*
X0012631Y0194718D01*
X0012732Y0194840D01*
X0012836Y0194959D01*
X0012943Y0195076D01*
X0013053Y0195190D01*
X0013166Y0195301D01*
X0013281Y0195410D01*
X0013399Y0195515D01*
X0013520Y0195617D01*
X0013643Y0195717D01*
X0013769Y0195813D01*
X0013897Y0195906D01*
X0014027Y0195996D01*
X0014160Y0196082D01*
X0014295Y0196166D01*
X0014431Y0196245D01*
X0014570Y0196322D01*
X0014711Y0196394D01*
X0014853Y0196464D01*
X0014997Y0196529D01*
X0015143Y0196591D01*
X0015290Y0196649D01*
X0015439Y0196704D01*
X0015589Y0196755D01*
X0015740Y0196802D01*
X0015892Y0196845D01*
X0016045Y0196884D01*
X0016200Y0196920D01*
X0016355Y0196951D01*
X0016511Y0196979D01*
X0016667Y0197003D01*
X0016824Y0197023D01*
X0016982Y0197039D01*
X0017139Y0197051D01*
X0017298Y0197059D01*
X0017456Y0197063D01*
X0017614Y0197063D01*
X0017772Y0197059D01*
X0017931Y0197051D01*
X0018088Y0197039D01*
X0018246Y0197023D01*
X0018403Y0197003D01*
X0018559Y0196979D01*
X0018715Y0196951D01*
X0018870Y0196920D01*
X0019025Y0196884D01*
X0019178Y0196845D01*
X0019330Y0196802D01*
X0019481Y0196755D01*
X0019631Y0196704D01*
X0019780Y0196649D01*
X0019927Y0196591D01*
X0020073Y0196529D01*
X0020217Y0196464D01*
X0020359Y0196394D01*
X0020500Y0196322D01*
X0020639Y0196245D01*
X0020775Y0196166D01*
X0020910Y0196082D01*
X0021043Y0195996D01*
X0021173Y0195906D01*
X0021301Y0195813D01*
X0021427Y0195717D01*
X0021550Y0195617D01*
X0021671Y0195515D01*
X0021789Y0195410D01*
X0021904Y0195301D01*
X0022017Y0195190D01*
X0022127Y0195076D01*
X0022234Y0194959D01*
X0022338Y0194840D01*
X0022439Y0194718D01*
X0022536Y0194593D01*
X0022631Y0194466D01*
X0022722Y0194337D01*
X0022811Y0194206D01*
X0022895Y0194072D01*
X0022977Y0193936D01*
X0023055Y0193799D01*
X0023129Y0193659D01*
X0023200Y0193517D01*
X0023268Y0193374D01*
X0023332Y0193229D01*
X0023392Y0193083D01*
X0023448Y0192935D01*
X0023501Y0192786D01*
X0023550Y0192635D01*
X0023595Y0192483D01*
X0023636Y0192330D01*
X0023674Y0192177D01*
X0023707Y0192022D01*
X0023737Y0191866D01*
X0023763Y0191710D01*
X0023784Y0191553D01*
X0023802Y0191396D01*
X0023816Y0191238D01*
X0023826Y0191080D01*
X0023832Y0190922D01*
X0023834Y0190764D01*
X0023832Y0190606D01*
X0023826Y0190448D01*
X0023816Y0190290D01*
X0023802Y0190132D01*
X0023784Y0189975D01*
X0023763Y0189818D01*
X0023737Y0189662D01*
X0023707Y0189506D01*
X0023674Y0189351D01*
X0023636Y0189198D01*
X0023595Y0189045D01*
X0023550Y0188893D01*
X0023501Y0188742D01*
X0023448Y0188593D01*
X0023392Y0188445D01*
X0023332Y0188299D01*
X0023268Y0188154D01*
X0023200Y0188011D01*
X0023129Y0187869D01*
X0023055Y0187729D01*
X0022977Y0187592D01*
X0022895Y0187456D01*
X0022811Y0187322D01*
X0022722Y0187191D01*
X0022631Y0187062D01*
X0022536Y0186935D01*
X0022439Y0186810D01*
X0022338Y0186688D01*
X0022234Y0186569D01*
X0022127Y0186452D01*
X0022017Y0186338D01*
X0021904Y0186227D01*
X0021789Y0186118D01*
X0021671Y0186013D01*
X0021550Y0185911D01*
X0021427Y0185811D01*
X0021301Y0185715D01*
X0021173Y0185622D01*
X0021043Y0185532D01*
X0020910Y0185446D01*
X0020775Y0185362D01*
X0020639Y0185283D01*
X0020500Y0185206D01*
X0020359Y0185134D01*
X0020217Y0185064D01*
X0020073Y0184999D01*
X0019927Y0184937D01*
X0019780Y0184879D01*
X0019631Y0184824D01*
X0019481Y0184773D01*
X0019330Y0184726D01*
X0019178Y0184683D01*
X0019025Y0184644D01*
X0018870Y0184608D01*
X0018715Y0184577D01*
X0018559Y0184549D01*
X0018403Y0184525D01*
X0018246Y0184505D01*
X0018088Y0184489D01*
X0017931Y0184477D01*
X0017772Y0184469D01*
X0017614Y0184465D01*
X0017456Y0184465D01*
X0017298Y0184469D01*
X0017139Y0184477D01*
X0016982Y0184489D01*
X0016824Y0184505D01*
X0016667Y0184525D01*
X0016511Y0184549D01*
X0016355Y0184577D01*
X0016200Y0184608D01*
X0016045Y0184644D01*
X0015892Y0184683D01*
X0015740Y0184726D01*
X0015589Y0184773D01*
X0015439Y0184824D01*
X0015290Y0184879D01*
X0015143Y0184937D01*
X0014997Y0184999D01*
X0014853Y0185064D01*
X0014711Y0185134D01*
X0014570Y0185206D01*
X0014431Y0185283D01*
X0014295Y0185362D01*
X0014160Y0185446D01*
X0014027Y0185532D01*
X0013897Y0185622D01*
X0013769Y0185715D01*
X0013643Y0185811D01*
X0013520Y0185911D01*
X0013399Y0186013D01*
X0013281Y0186118D01*
X0013166Y0186227D01*
X0013053Y0186338D01*
X0012943Y0186452D01*
X0012836Y0186569D01*
X0012732Y0186688D01*
X0012631Y0186810D01*
X0012534Y0186935D01*
X0012439Y0187062D01*
X0012348Y0187191D01*
X0012259Y0187322D01*
X0012175Y0187456D01*
X0012093Y0187592D01*
X0012015Y0187729D01*
X0011941Y0187869D01*
X0011870Y0188011D01*
X0011802Y0188154D01*
X0011738Y0188299D01*
X0011678Y0188445D01*
X0011622Y0188593D01*
X0011569Y0188742D01*
X0011520Y0188893D01*
X0011475Y0189045D01*
X0011434Y0189198D01*
X0011396Y0189351D01*
X0011363Y0189506D01*
X0011333Y0189662D01*
X0011307Y0189818D01*
X0011286Y0189975D01*
X0011268Y0190132D01*
X0011254Y0190290D01*
X0011244Y0190448D01*
X0011238Y0190606D01*
X0011236Y0190764D01*
X0005724Y0190764D02*
X0005727Y0191049D01*
X0005738Y0191335D01*
X0005755Y0191620D01*
X0005779Y0191904D01*
X0005810Y0192188D01*
X0005848Y0192471D01*
X0005893Y0192752D01*
X0005944Y0193033D01*
X0006002Y0193313D01*
X0006067Y0193591D01*
X0006139Y0193867D01*
X0006217Y0194141D01*
X0006302Y0194414D01*
X0006394Y0194684D01*
X0006492Y0194952D01*
X0006596Y0195218D01*
X0006707Y0195481D01*
X0006824Y0195741D01*
X0006947Y0195999D01*
X0007077Y0196253D01*
X0007213Y0196504D01*
X0007354Y0196752D01*
X0007502Y0196996D01*
X0007655Y0197237D01*
X0007815Y0197473D01*
X0007980Y0197706D01*
X0008150Y0197935D01*
X0008326Y0198160D01*
X0008508Y0198380D01*
X0008694Y0198596D01*
X0008886Y0198807D01*
X0009083Y0199014D01*
X0009285Y0199216D01*
X0009492Y0199413D01*
X0009703Y0199605D01*
X0009919Y0199791D01*
X0010139Y0199973D01*
X0010364Y0200149D01*
X0010593Y0200319D01*
X0010826Y0200484D01*
X0011062Y0200644D01*
X0011303Y0200797D01*
X0011547Y0200945D01*
X0011795Y0201086D01*
X0012046Y0201222D01*
X0012300Y0201352D01*
X0012558Y0201475D01*
X0012818Y0201592D01*
X0013081Y0201703D01*
X0013347Y0201807D01*
X0013615Y0201905D01*
X0013885Y0201997D01*
X0014158Y0202082D01*
X0014432Y0202160D01*
X0014708Y0202232D01*
X0014986Y0202297D01*
X0015266Y0202355D01*
X0015547Y0202406D01*
X0015828Y0202451D01*
X0016111Y0202489D01*
X0016395Y0202520D01*
X0016679Y0202544D01*
X0016964Y0202561D01*
X0017250Y0202572D01*
X0017535Y0202575D01*
X0190764Y0202575D01*
X0184465Y0190764D02*
X0184467Y0190922D01*
X0184473Y0191080D01*
X0184483Y0191238D01*
X0184497Y0191396D01*
X0184515Y0191553D01*
X0184536Y0191710D01*
X0184562Y0191866D01*
X0184592Y0192022D01*
X0184625Y0192177D01*
X0184663Y0192330D01*
X0184704Y0192483D01*
X0184749Y0192635D01*
X0184798Y0192786D01*
X0184851Y0192935D01*
X0184907Y0193083D01*
X0184967Y0193229D01*
X0185031Y0193374D01*
X0185099Y0193517D01*
X0185170Y0193659D01*
X0185244Y0193799D01*
X0185322Y0193936D01*
X0185404Y0194072D01*
X0185488Y0194206D01*
X0185577Y0194337D01*
X0185668Y0194466D01*
X0185763Y0194593D01*
X0185860Y0194718D01*
X0185961Y0194840D01*
X0186065Y0194959D01*
X0186172Y0195076D01*
X0186282Y0195190D01*
X0186395Y0195301D01*
X0186510Y0195410D01*
X0186628Y0195515D01*
X0186749Y0195617D01*
X0186872Y0195717D01*
X0186998Y0195813D01*
X0187126Y0195906D01*
X0187256Y0195996D01*
X0187389Y0196082D01*
X0187524Y0196166D01*
X0187660Y0196245D01*
X0187799Y0196322D01*
X0187940Y0196394D01*
X0188082Y0196464D01*
X0188226Y0196529D01*
X0188372Y0196591D01*
X0188519Y0196649D01*
X0188668Y0196704D01*
X0188818Y0196755D01*
X0188969Y0196802D01*
X0189121Y0196845D01*
X0189274Y0196884D01*
X0189429Y0196920D01*
X0189584Y0196951D01*
X0189740Y0196979D01*
X0189896Y0197003D01*
X0190053Y0197023D01*
X0190211Y0197039D01*
X0190368Y0197051D01*
X0190527Y0197059D01*
X0190685Y0197063D01*
X0190843Y0197063D01*
X0191001Y0197059D01*
X0191160Y0197051D01*
X0191317Y0197039D01*
X0191475Y0197023D01*
X0191632Y0197003D01*
X0191788Y0196979D01*
X0191944Y0196951D01*
X0192099Y0196920D01*
X0192254Y0196884D01*
X0192407Y0196845D01*
X0192559Y0196802D01*
X0192710Y0196755D01*
X0192860Y0196704D01*
X0193009Y0196649D01*
X0193156Y0196591D01*
X0193302Y0196529D01*
X0193446Y0196464D01*
X0193588Y0196394D01*
X0193729Y0196322D01*
X0193868Y0196245D01*
X0194004Y0196166D01*
X0194139Y0196082D01*
X0194272Y0195996D01*
X0194402Y0195906D01*
X0194530Y0195813D01*
X0194656Y0195717D01*
X0194779Y0195617D01*
X0194900Y0195515D01*
X0195018Y0195410D01*
X0195133Y0195301D01*
X0195246Y0195190D01*
X0195356Y0195076D01*
X0195463Y0194959D01*
X0195567Y0194840D01*
X0195668Y0194718D01*
X0195765Y0194593D01*
X0195860Y0194466D01*
X0195951Y0194337D01*
X0196040Y0194206D01*
X0196124Y0194072D01*
X0196206Y0193936D01*
X0196284Y0193799D01*
X0196358Y0193659D01*
X0196429Y0193517D01*
X0196497Y0193374D01*
X0196561Y0193229D01*
X0196621Y0193083D01*
X0196677Y0192935D01*
X0196730Y0192786D01*
X0196779Y0192635D01*
X0196824Y0192483D01*
X0196865Y0192330D01*
X0196903Y0192177D01*
X0196936Y0192022D01*
X0196966Y0191866D01*
X0196992Y0191710D01*
X0197013Y0191553D01*
X0197031Y0191396D01*
X0197045Y0191238D01*
X0197055Y0191080D01*
X0197061Y0190922D01*
X0197063Y0190764D01*
X0197061Y0190606D01*
X0197055Y0190448D01*
X0197045Y0190290D01*
X0197031Y0190132D01*
X0197013Y0189975D01*
X0196992Y0189818D01*
X0196966Y0189662D01*
X0196936Y0189506D01*
X0196903Y0189351D01*
X0196865Y0189198D01*
X0196824Y0189045D01*
X0196779Y0188893D01*
X0196730Y0188742D01*
X0196677Y0188593D01*
X0196621Y0188445D01*
X0196561Y0188299D01*
X0196497Y0188154D01*
X0196429Y0188011D01*
X0196358Y0187869D01*
X0196284Y0187729D01*
X0196206Y0187592D01*
X0196124Y0187456D01*
X0196040Y0187322D01*
X0195951Y0187191D01*
X0195860Y0187062D01*
X0195765Y0186935D01*
X0195668Y0186810D01*
X0195567Y0186688D01*
X0195463Y0186569D01*
X0195356Y0186452D01*
X0195246Y0186338D01*
X0195133Y0186227D01*
X0195018Y0186118D01*
X0194900Y0186013D01*
X0194779Y0185911D01*
X0194656Y0185811D01*
X0194530Y0185715D01*
X0194402Y0185622D01*
X0194272Y0185532D01*
X0194139Y0185446D01*
X0194004Y0185362D01*
X0193868Y0185283D01*
X0193729Y0185206D01*
X0193588Y0185134D01*
X0193446Y0185064D01*
X0193302Y0184999D01*
X0193156Y0184937D01*
X0193009Y0184879D01*
X0192860Y0184824D01*
X0192710Y0184773D01*
X0192559Y0184726D01*
X0192407Y0184683D01*
X0192254Y0184644D01*
X0192099Y0184608D01*
X0191944Y0184577D01*
X0191788Y0184549D01*
X0191632Y0184525D01*
X0191475Y0184505D01*
X0191317Y0184489D01*
X0191160Y0184477D01*
X0191001Y0184469D01*
X0190843Y0184465D01*
X0190685Y0184465D01*
X0190527Y0184469D01*
X0190368Y0184477D01*
X0190211Y0184489D01*
X0190053Y0184505D01*
X0189896Y0184525D01*
X0189740Y0184549D01*
X0189584Y0184577D01*
X0189429Y0184608D01*
X0189274Y0184644D01*
X0189121Y0184683D01*
X0188969Y0184726D01*
X0188818Y0184773D01*
X0188668Y0184824D01*
X0188519Y0184879D01*
X0188372Y0184937D01*
X0188226Y0184999D01*
X0188082Y0185064D01*
X0187940Y0185134D01*
X0187799Y0185206D01*
X0187660Y0185283D01*
X0187524Y0185362D01*
X0187389Y0185446D01*
X0187256Y0185532D01*
X0187126Y0185622D01*
X0186998Y0185715D01*
X0186872Y0185811D01*
X0186749Y0185911D01*
X0186628Y0186013D01*
X0186510Y0186118D01*
X0186395Y0186227D01*
X0186282Y0186338D01*
X0186172Y0186452D01*
X0186065Y0186569D01*
X0185961Y0186688D01*
X0185860Y0186810D01*
X0185763Y0186935D01*
X0185668Y0187062D01*
X0185577Y0187191D01*
X0185488Y0187322D01*
X0185404Y0187456D01*
X0185322Y0187592D01*
X0185244Y0187729D01*
X0185170Y0187869D01*
X0185099Y0188011D01*
X0185031Y0188154D01*
X0184967Y0188299D01*
X0184907Y0188445D01*
X0184851Y0188593D01*
X0184798Y0188742D01*
X0184749Y0188893D01*
X0184704Y0189045D01*
X0184663Y0189198D01*
X0184625Y0189351D01*
X0184592Y0189506D01*
X0184562Y0189662D01*
X0184536Y0189818D01*
X0184515Y0189975D01*
X0184497Y0190132D01*
X0184483Y0190290D01*
X0184473Y0190448D01*
X0184467Y0190606D01*
X0184465Y0190764D01*
X0190764Y0202575D02*
X0191049Y0202572D01*
X0191335Y0202561D01*
X0191620Y0202544D01*
X0191904Y0202520D01*
X0192188Y0202489D01*
X0192471Y0202451D01*
X0192752Y0202406D01*
X0193033Y0202355D01*
X0193313Y0202297D01*
X0193591Y0202232D01*
X0193867Y0202160D01*
X0194141Y0202082D01*
X0194414Y0201997D01*
X0194684Y0201905D01*
X0194952Y0201807D01*
X0195218Y0201703D01*
X0195481Y0201592D01*
X0195741Y0201475D01*
X0195999Y0201352D01*
X0196253Y0201222D01*
X0196504Y0201086D01*
X0196752Y0200945D01*
X0196996Y0200797D01*
X0197237Y0200644D01*
X0197473Y0200484D01*
X0197706Y0200319D01*
X0197935Y0200149D01*
X0198160Y0199973D01*
X0198380Y0199791D01*
X0198596Y0199605D01*
X0198807Y0199413D01*
X0199014Y0199216D01*
X0199216Y0199014D01*
X0199413Y0198807D01*
X0199605Y0198596D01*
X0199791Y0198380D01*
X0199973Y0198160D01*
X0200149Y0197935D01*
X0200319Y0197706D01*
X0200484Y0197473D01*
X0200644Y0197237D01*
X0200797Y0196996D01*
X0200945Y0196752D01*
X0201086Y0196504D01*
X0201222Y0196253D01*
X0201352Y0195999D01*
X0201475Y0195741D01*
X0201592Y0195481D01*
X0201703Y0195218D01*
X0201807Y0194952D01*
X0201905Y0194684D01*
X0201997Y0194414D01*
X0202082Y0194141D01*
X0202160Y0193867D01*
X0202232Y0193591D01*
X0202297Y0193313D01*
X0202355Y0193033D01*
X0202406Y0192752D01*
X0202451Y0192471D01*
X0202489Y0192188D01*
X0202520Y0191904D01*
X0202544Y0191620D01*
X0202561Y0191335D01*
X0202572Y0191049D01*
X0202575Y0190764D01*
X0202575Y0017535D01*
X0184465Y0017535D02*
X0184467Y0017693D01*
X0184473Y0017851D01*
X0184483Y0018009D01*
X0184497Y0018167D01*
X0184515Y0018324D01*
X0184536Y0018481D01*
X0184562Y0018637D01*
X0184592Y0018793D01*
X0184625Y0018948D01*
X0184663Y0019101D01*
X0184704Y0019254D01*
X0184749Y0019406D01*
X0184798Y0019557D01*
X0184851Y0019706D01*
X0184907Y0019854D01*
X0184967Y0020000D01*
X0185031Y0020145D01*
X0185099Y0020288D01*
X0185170Y0020430D01*
X0185244Y0020570D01*
X0185322Y0020707D01*
X0185404Y0020843D01*
X0185488Y0020977D01*
X0185577Y0021108D01*
X0185668Y0021237D01*
X0185763Y0021364D01*
X0185860Y0021489D01*
X0185961Y0021611D01*
X0186065Y0021730D01*
X0186172Y0021847D01*
X0186282Y0021961D01*
X0186395Y0022072D01*
X0186510Y0022181D01*
X0186628Y0022286D01*
X0186749Y0022388D01*
X0186872Y0022488D01*
X0186998Y0022584D01*
X0187126Y0022677D01*
X0187256Y0022767D01*
X0187389Y0022853D01*
X0187524Y0022937D01*
X0187660Y0023016D01*
X0187799Y0023093D01*
X0187940Y0023165D01*
X0188082Y0023235D01*
X0188226Y0023300D01*
X0188372Y0023362D01*
X0188519Y0023420D01*
X0188668Y0023475D01*
X0188818Y0023526D01*
X0188969Y0023573D01*
X0189121Y0023616D01*
X0189274Y0023655D01*
X0189429Y0023691D01*
X0189584Y0023722D01*
X0189740Y0023750D01*
X0189896Y0023774D01*
X0190053Y0023794D01*
X0190211Y0023810D01*
X0190368Y0023822D01*
X0190527Y0023830D01*
X0190685Y0023834D01*
X0190843Y0023834D01*
X0191001Y0023830D01*
X0191160Y0023822D01*
X0191317Y0023810D01*
X0191475Y0023794D01*
X0191632Y0023774D01*
X0191788Y0023750D01*
X0191944Y0023722D01*
X0192099Y0023691D01*
X0192254Y0023655D01*
X0192407Y0023616D01*
X0192559Y0023573D01*
X0192710Y0023526D01*
X0192860Y0023475D01*
X0193009Y0023420D01*
X0193156Y0023362D01*
X0193302Y0023300D01*
X0193446Y0023235D01*
X0193588Y0023165D01*
X0193729Y0023093D01*
X0193868Y0023016D01*
X0194004Y0022937D01*
X0194139Y0022853D01*
X0194272Y0022767D01*
X0194402Y0022677D01*
X0194530Y0022584D01*
X0194656Y0022488D01*
X0194779Y0022388D01*
X0194900Y0022286D01*
X0195018Y0022181D01*
X0195133Y0022072D01*
X0195246Y0021961D01*
X0195356Y0021847D01*
X0195463Y0021730D01*
X0195567Y0021611D01*
X0195668Y0021489D01*
X0195765Y0021364D01*
X0195860Y0021237D01*
X0195951Y0021108D01*
X0196040Y0020977D01*
X0196124Y0020843D01*
X0196206Y0020707D01*
X0196284Y0020570D01*
X0196358Y0020430D01*
X0196429Y0020288D01*
X0196497Y0020145D01*
X0196561Y0020000D01*
X0196621Y0019854D01*
X0196677Y0019706D01*
X0196730Y0019557D01*
X0196779Y0019406D01*
X0196824Y0019254D01*
X0196865Y0019101D01*
X0196903Y0018948D01*
X0196936Y0018793D01*
X0196966Y0018637D01*
X0196992Y0018481D01*
X0197013Y0018324D01*
X0197031Y0018167D01*
X0197045Y0018009D01*
X0197055Y0017851D01*
X0197061Y0017693D01*
X0197063Y0017535D01*
X0197061Y0017377D01*
X0197055Y0017219D01*
X0197045Y0017061D01*
X0197031Y0016903D01*
X0197013Y0016746D01*
X0196992Y0016589D01*
X0196966Y0016433D01*
X0196936Y0016277D01*
X0196903Y0016122D01*
X0196865Y0015969D01*
X0196824Y0015816D01*
X0196779Y0015664D01*
X0196730Y0015513D01*
X0196677Y0015364D01*
X0196621Y0015216D01*
X0196561Y0015070D01*
X0196497Y0014925D01*
X0196429Y0014782D01*
X0196358Y0014640D01*
X0196284Y0014500D01*
X0196206Y0014363D01*
X0196124Y0014227D01*
X0196040Y0014093D01*
X0195951Y0013962D01*
X0195860Y0013833D01*
X0195765Y0013706D01*
X0195668Y0013581D01*
X0195567Y0013459D01*
X0195463Y0013340D01*
X0195356Y0013223D01*
X0195246Y0013109D01*
X0195133Y0012998D01*
X0195018Y0012889D01*
X0194900Y0012784D01*
X0194779Y0012682D01*
X0194656Y0012582D01*
X0194530Y0012486D01*
X0194402Y0012393D01*
X0194272Y0012303D01*
X0194139Y0012217D01*
X0194004Y0012133D01*
X0193868Y0012054D01*
X0193729Y0011977D01*
X0193588Y0011905D01*
X0193446Y0011835D01*
X0193302Y0011770D01*
X0193156Y0011708D01*
X0193009Y0011650D01*
X0192860Y0011595D01*
X0192710Y0011544D01*
X0192559Y0011497D01*
X0192407Y0011454D01*
X0192254Y0011415D01*
X0192099Y0011379D01*
X0191944Y0011348D01*
X0191788Y0011320D01*
X0191632Y0011296D01*
X0191475Y0011276D01*
X0191317Y0011260D01*
X0191160Y0011248D01*
X0191001Y0011240D01*
X0190843Y0011236D01*
X0190685Y0011236D01*
X0190527Y0011240D01*
X0190368Y0011248D01*
X0190211Y0011260D01*
X0190053Y0011276D01*
X0189896Y0011296D01*
X0189740Y0011320D01*
X0189584Y0011348D01*
X0189429Y0011379D01*
X0189274Y0011415D01*
X0189121Y0011454D01*
X0188969Y0011497D01*
X0188818Y0011544D01*
X0188668Y0011595D01*
X0188519Y0011650D01*
X0188372Y0011708D01*
X0188226Y0011770D01*
X0188082Y0011835D01*
X0187940Y0011905D01*
X0187799Y0011977D01*
X0187660Y0012054D01*
X0187524Y0012133D01*
X0187389Y0012217D01*
X0187256Y0012303D01*
X0187126Y0012393D01*
X0186998Y0012486D01*
X0186872Y0012582D01*
X0186749Y0012682D01*
X0186628Y0012784D01*
X0186510Y0012889D01*
X0186395Y0012998D01*
X0186282Y0013109D01*
X0186172Y0013223D01*
X0186065Y0013340D01*
X0185961Y0013459D01*
X0185860Y0013581D01*
X0185763Y0013706D01*
X0185668Y0013833D01*
X0185577Y0013962D01*
X0185488Y0014093D01*
X0185404Y0014227D01*
X0185322Y0014363D01*
X0185244Y0014500D01*
X0185170Y0014640D01*
X0185099Y0014782D01*
X0185031Y0014925D01*
X0184967Y0015070D01*
X0184907Y0015216D01*
X0184851Y0015364D01*
X0184798Y0015513D01*
X0184749Y0015664D01*
X0184704Y0015816D01*
X0184663Y0015969D01*
X0184625Y0016122D01*
X0184592Y0016277D01*
X0184562Y0016433D01*
X0184536Y0016589D01*
X0184515Y0016746D01*
X0184497Y0016903D01*
X0184483Y0017061D01*
X0184473Y0017219D01*
X0184467Y0017377D01*
X0184465Y0017535D01*
X0190764Y0005724D02*
X0191049Y0005727D01*
X0191335Y0005738D01*
X0191620Y0005755D01*
X0191904Y0005779D01*
X0192188Y0005810D01*
X0192471Y0005848D01*
X0192752Y0005893D01*
X0193033Y0005944D01*
X0193313Y0006002D01*
X0193591Y0006067D01*
X0193867Y0006139D01*
X0194141Y0006217D01*
X0194414Y0006302D01*
X0194684Y0006394D01*
X0194952Y0006492D01*
X0195218Y0006596D01*
X0195481Y0006707D01*
X0195741Y0006824D01*
X0195999Y0006947D01*
X0196253Y0007077D01*
X0196504Y0007213D01*
X0196752Y0007354D01*
X0196996Y0007502D01*
X0197237Y0007655D01*
X0197473Y0007815D01*
X0197706Y0007980D01*
X0197935Y0008150D01*
X0198160Y0008326D01*
X0198380Y0008508D01*
X0198596Y0008694D01*
X0198807Y0008886D01*
X0199014Y0009083D01*
X0199216Y0009285D01*
X0199413Y0009492D01*
X0199605Y0009703D01*
X0199791Y0009919D01*
X0199973Y0010139D01*
X0200149Y0010364D01*
X0200319Y0010593D01*
X0200484Y0010826D01*
X0200644Y0011062D01*
X0200797Y0011303D01*
X0200945Y0011547D01*
X0201086Y0011795D01*
X0201222Y0012046D01*
X0201352Y0012300D01*
X0201475Y0012558D01*
X0201592Y0012818D01*
X0201703Y0013081D01*
X0201807Y0013347D01*
X0201905Y0013615D01*
X0201997Y0013885D01*
X0202082Y0014158D01*
X0202160Y0014432D01*
X0202232Y0014708D01*
X0202297Y0014986D01*
X0202355Y0015266D01*
X0202406Y0015547D01*
X0202451Y0015828D01*
X0202489Y0016111D01*
X0202520Y0016395D01*
X0202544Y0016679D01*
X0202561Y0016964D01*
X0202572Y0017250D01*
X0202575Y0017535D01*
X0190764Y0005724D02*
X0017535Y0005724D01*
X0011236Y0017535D02*
X0011238Y0017693D01*
X0011244Y0017851D01*
X0011254Y0018009D01*
X0011268Y0018167D01*
X0011286Y0018324D01*
X0011307Y0018481D01*
X0011333Y0018637D01*
X0011363Y0018793D01*
X0011396Y0018948D01*
X0011434Y0019101D01*
X0011475Y0019254D01*
X0011520Y0019406D01*
X0011569Y0019557D01*
X0011622Y0019706D01*
X0011678Y0019854D01*
X0011738Y0020000D01*
X0011802Y0020145D01*
X0011870Y0020288D01*
X0011941Y0020430D01*
X0012015Y0020570D01*
X0012093Y0020707D01*
X0012175Y0020843D01*
X0012259Y0020977D01*
X0012348Y0021108D01*
X0012439Y0021237D01*
X0012534Y0021364D01*
X0012631Y0021489D01*
X0012732Y0021611D01*
X0012836Y0021730D01*
X0012943Y0021847D01*
X0013053Y0021961D01*
X0013166Y0022072D01*
X0013281Y0022181D01*
X0013399Y0022286D01*
X0013520Y0022388D01*
X0013643Y0022488D01*
X0013769Y0022584D01*
X0013897Y0022677D01*
X0014027Y0022767D01*
X0014160Y0022853D01*
X0014295Y0022937D01*
X0014431Y0023016D01*
X0014570Y0023093D01*
X0014711Y0023165D01*
X0014853Y0023235D01*
X0014997Y0023300D01*
X0015143Y0023362D01*
X0015290Y0023420D01*
X0015439Y0023475D01*
X0015589Y0023526D01*
X0015740Y0023573D01*
X0015892Y0023616D01*
X0016045Y0023655D01*
X0016200Y0023691D01*
X0016355Y0023722D01*
X0016511Y0023750D01*
X0016667Y0023774D01*
X0016824Y0023794D01*
X0016982Y0023810D01*
X0017139Y0023822D01*
X0017298Y0023830D01*
X0017456Y0023834D01*
X0017614Y0023834D01*
X0017772Y0023830D01*
X0017931Y0023822D01*
X0018088Y0023810D01*
X0018246Y0023794D01*
X0018403Y0023774D01*
X0018559Y0023750D01*
X0018715Y0023722D01*
X0018870Y0023691D01*
X0019025Y0023655D01*
X0019178Y0023616D01*
X0019330Y0023573D01*
X0019481Y0023526D01*
X0019631Y0023475D01*
X0019780Y0023420D01*
X0019927Y0023362D01*
X0020073Y0023300D01*
X0020217Y0023235D01*
X0020359Y0023165D01*
X0020500Y0023093D01*
X0020639Y0023016D01*
X0020775Y0022937D01*
X0020910Y0022853D01*
X0021043Y0022767D01*
X0021173Y0022677D01*
X0021301Y0022584D01*
X0021427Y0022488D01*
X0021550Y0022388D01*
X0021671Y0022286D01*
X0021789Y0022181D01*
X0021904Y0022072D01*
X0022017Y0021961D01*
X0022127Y0021847D01*
X0022234Y0021730D01*
X0022338Y0021611D01*
X0022439Y0021489D01*
X0022536Y0021364D01*
X0022631Y0021237D01*
X0022722Y0021108D01*
X0022811Y0020977D01*
X0022895Y0020843D01*
X0022977Y0020707D01*
X0023055Y0020570D01*
X0023129Y0020430D01*
X0023200Y0020288D01*
X0023268Y0020145D01*
X0023332Y0020000D01*
X0023392Y0019854D01*
X0023448Y0019706D01*
X0023501Y0019557D01*
X0023550Y0019406D01*
X0023595Y0019254D01*
X0023636Y0019101D01*
X0023674Y0018948D01*
X0023707Y0018793D01*
X0023737Y0018637D01*
X0023763Y0018481D01*
X0023784Y0018324D01*
X0023802Y0018167D01*
X0023816Y0018009D01*
X0023826Y0017851D01*
X0023832Y0017693D01*
X0023834Y0017535D01*
X0023832Y0017377D01*
X0023826Y0017219D01*
X0023816Y0017061D01*
X0023802Y0016903D01*
X0023784Y0016746D01*
X0023763Y0016589D01*
X0023737Y0016433D01*
X0023707Y0016277D01*
X0023674Y0016122D01*
X0023636Y0015969D01*
X0023595Y0015816D01*
X0023550Y0015664D01*
X0023501Y0015513D01*
X0023448Y0015364D01*
X0023392Y0015216D01*
X0023332Y0015070D01*
X0023268Y0014925D01*
X0023200Y0014782D01*
X0023129Y0014640D01*
X0023055Y0014500D01*
X0022977Y0014363D01*
X0022895Y0014227D01*
X0022811Y0014093D01*
X0022722Y0013962D01*
X0022631Y0013833D01*
X0022536Y0013706D01*
X0022439Y0013581D01*
X0022338Y0013459D01*
X0022234Y0013340D01*
X0022127Y0013223D01*
X0022017Y0013109D01*
X0021904Y0012998D01*
X0021789Y0012889D01*
X0021671Y0012784D01*
X0021550Y0012682D01*
X0021427Y0012582D01*
X0021301Y0012486D01*
X0021173Y0012393D01*
X0021043Y0012303D01*
X0020910Y0012217D01*
X0020775Y0012133D01*
X0020639Y0012054D01*
X0020500Y0011977D01*
X0020359Y0011905D01*
X0020217Y0011835D01*
X0020073Y0011770D01*
X0019927Y0011708D01*
X0019780Y0011650D01*
X0019631Y0011595D01*
X0019481Y0011544D01*
X0019330Y0011497D01*
X0019178Y0011454D01*
X0019025Y0011415D01*
X0018870Y0011379D01*
X0018715Y0011348D01*
X0018559Y0011320D01*
X0018403Y0011296D01*
X0018246Y0011276D01*
X0018088Y0011260D01*
X0017931Y0011248D01*
X0017772Y0011240D01*
X0017614Y0011236D01*
X0017456Y0011236D01*
X0017298Y0011240D01*
X0017139Y0011248D01*
X0016982Y0011260D01*
X0016824Y0011276D01*
X0016667Y0011296D01*
X0016511Y0011320D01*
X0016355Y0011348D01*
X0016200Y0011379D01*
X0016045Y0011415D01*
X0015892Y0011454D01*
X0015740Y0011497D01*
X0015589Y0011544D01*
X0015439Y0011595D01*
X0015290Y0011650D01*
X0015143Y0011708D01*
X0014997Y0011770D01*
X0014853Y0011835D01*
X0014711Y0011905D01*
X0014570Y0011977D01*
X0014431Y0012054D01*
X0014295Y0012133D01*
X0014160Y0012217D01*
X0014027Y0012303D01*
X0013897Y0012393D01*
X0013769Y0012486D01*
X0013643Y0012582D01*
X0013520Y0012682D01*
X0013399Y0012784D01*
X0013281Y0012889D01*
X0013166Y0012998D01*
X0013053Y0013109D01*
X0012943Y0013223D01*
X0012836Y0013340D01*
X0012732Y0013459D01*
X0012631Y0013581D01*
X0012534Y0013706D01*
X0012439Y0013833D01*
X0012348Y0013962D01*
X0012259Y0014093D01*
X0012175Y0014227D01*
X0012093Y0014363D01*
X0012015Y0014500D01*
X0011941Y0014640D01*
X0011870Y0014782D01*
X0011802Y0014925D01*
X0011738Y0015070D01*
X0011678Y0015216D01*
X0011622Y0015364D01*
X0011569Y0015513D01*
X0011520Y0015664D01*
X0011475Y0015816D01*
X0011434Y0015969D01*
X0011396Y0016122D01*
X0011363Y0016277D01*
X0011333Y0016433D01*
X0011307Y0016589D01*
X0011286Y0016746D01*
X0011268Y0016903D01*
X0011254Y0017061D01*
X0011244Y0017219D01*
X0011238Y0017377D01*
X0011236Y0017535D01*
X0005724Y0017535D02*
X0005727Y0017250D01*
X0005738Y0016964D01*
X0005755Y0016679D01*
X0005779Y0016395D01*
X0005810Y0016111D01*
X0005848Y0015828D01*
X0005893Y0015547D01*
X0005944Y0015266D01*
X0006002Y0014986D01*
X0006067Y0014708D01*
X0006139Y0014432D01*
X0006217Y0014158D01*
X0006302Y0013885D01*
X0006394Y0013615D01*
X0006492Y0013347D01*
X0006596Y0013081D01*
X0006707Y0012818D01*
X0006824Y0012558D01*
X0006947Y0012300D01*
X0007077Y0012046D01*
X0007213Y0011795D01*
X0007354Y0011547D01*
X0007502Y0011303D01*
X0007655Y0011062D01*
X0007815Y0010826D01*
X0007980Y0010593D01*
X0008150Y0010364D01*
X0008326Y0010139D01*
X0008508Y0009919D01*
X0008694Y0009703D01*
X0008886Y0009492D01*
X0009083Y0009285D01*
X0009285Y0009083D01*
X0009492Y0008886D01*
X0009703Y0008694D01*
X0009919Y0008508D01*
X0010139Y0008326D01*
X0010364Y0008150D01*
X0010593Y0007980D01*
X0010826Y0007815D01*
X0011062Y0007655D01*
X0011303Y0007502D01*
X0011547Y0007354D01*
X0011795Y0007213D01*
X0012046Y0007077D01*
X0012300Y0006947D01*
X0012558Y0006824D01*
X0012818Y0006707D01*
X0013081Y0006596D01*
X0013347Y0006492D01*
X0013615Y0006394D01*
X0013885Y0006302D01*
X0014158Y0006217D01*
X0014432Y0006139D01*
X0014708Y0006067D01*
X0014986Y0006002D01*
X0015266Y0005944D01*
X0015547Y0005893D01*
X0015828Y0005848D01*
X0016111Y0005810D01*
X0016395Y0005779D01*
X0016679Y0005755D01*
X0016964Y0005738D01*
X0017250Y0005727D01*
X0017535Y0005724D01*
D11*
X0122575Y0125488D03*
X0122575Y0139661D03*
X0195724Y0099661D03*
X0195724Y0085488D03*
D12*
X0195724Y0082575D03*
X0195724Y0102575D03*
X0167575Y0137575D03*
X0137575Y0137575D03*
X0122575Y0142575D03*
X0122575Y0122575D03*
X0109012Y0104937D03*
X0098224Y0104937D03*
X0070724Y0104724D03*
X0050724Y0104724D03*
X0098224Y0074937D03*
X0109012Y0074937D03*
X0124937Y0064937D03*
X0122575Y0047575D03*
X0142575Y0047575D03*
X0154937Y0064937D03*
X0162575Y0047575D03*
X0172575Y0027575D03*
X0172575Y0017575D03*
X0162575Y0017575D03*
X0152575Y0017575D03*
X0152575Y0027575D03*
X0142575Y0017575D03*
X0132575Y0017575D03*
X0132575Y0027575D03*
X0122575Y0017575D03*
X0112575Y0017575D03*
X0112575Y0027575D03*
X0102575Y0017575D03*
X0102575Y0047575D03*
X0068724Y0012724D03*
X0048724Y0012724D03*
D13*
X0125724Y0074975D02*
X0125724Y0080175D01*
X0135724Y0080175D02*
X0135724Y0074975D01*
X0145724Y0074975D02*
X0145724Y0080175D01*
X0155724Y0080175D02*
X0155724Y0074975D01*
X0165724Y0074975D02*
X0165724Y0080175D01*
X0175724Y0080175D02*
X0175724Y0074975D01*
X0185724Y0074975D02*
X0185724Y0080175D01*
X0185724Y0104975D02*
X0185724Y0110175D01*
X0175724Y0110175D02*
X0175724Y0104975D01*
X0165724Y0104975D02*
X0165724Y0110175D01*
X0155724Y0110175D02*
X0155724Y0104975D01*
X0145724Y0104975D02*
X0145724Y0110175D01*
X0135724Y0110175D02*
X0135724Y0104975D01*
X0125724Y0104975D02*
X0125724Y0110175D01*
D14*
X0145488Y0137575D03*
X0159661Y0137575D03*
X0147024Y0064937D03*
X0132850Y0064937D03*
D15*
X0137654Y0154031D03*
X0137654Y0161906D03*
X0147496Y0161906D03*
X0147496Y0154031D03*
D16*
X0166276Y0172575D03*
X0118874Y0172575D03*
D17*
X0109012Y0097024D03*
X0098224Y0097024D03*
X0098224Y0082850D03*
X0109012Y0082850D03*
X0102575Y0039661D03*
X0102575Y0025488D03*
X0122575Y0025488D03*
X0122575Y0039661D03*
X0142575Y0039661D03*
X0142575Y0025488D03*
X0162575Y0025488D03*
X0162575Y0039661D03*
D18*
X0172575Y0024661D03*
X0172575Y0020488D03*
X0152575Y0020488D03*
X0152575Y0024661D03*
X0132575Y0024661D03*
X0132575Y0020488D03*
X0112575Y0020488D03*
X0112575Y0024661D03*
D19*
X0074504Y0024291D03*
X0044504Y0024291D03*
X0044504Y0116291D03*
X0074504Y0116291D03*
X0192575Y0127575D03*
X0192575Y0137575D03*
X0192575Y0147575D03*
X0192575Y0157575D03*
D20*
X0074504Y0156291D03*
X0074504Y0186291D03*
X0044504Y0176291D03*
X0074504Y0094291D03*
X0074504Y0064291D03*
X0044504Y0084291D03*
D21*
X0020189Y0076724D03*
X0020189Y0056724D03*
X0020189Y0133724D03*
X0020189Y0153724D03*
D22*
X0090724Y0147724D03*
X0090724Y0137724D03*
X0090724Y0127724D03*
X0088724Y0056724D03*
X0088724Y0046724D03*
X0088724Y0036724D03*
D23*
X0065811Y0012724D03*
X0051638Y0012724D03*
X0053638Y0104724D03*
X0067811Y0104724D03*
D24*
X0066608Y0098819D02*
X0066710Y0098717D01*
X0067289Y0098477D01*
X0066236Y0095936D01*
X0066236Y0092647D01*
X0067495Y0089608D01*
X0069821Y0087282D01*
X0072859Y0086024D01*
X0076148Y0086024D01*
X0079187Y0087282D01*
X0081513Y0089608D01*
X0082772Y0092647D01*
X0082772Y0095936D01*
X0081513Y0098975D01*
X0079187Y0101300D01*
X0077300Y0102082D01*
X0077811Y0103315D01*
X0077811Y0106134D01*
X0076732Y0108739D01*
X0076464Y0109007D01*
X0078741Y0109950D01*
X0080845Y0112054D01*
X0081984Y0114803D01*
X0081984Y0117779D01*
X0080845Y0120529D01*
X0078741Y0122633D01*
X0075992Y0123772D01*
X0073016Y0123772D01*
X0070267Y0122633D01*
X0068162Y0120529D01*
X0067024Y0117779D01*
X0067024Y0114803D01*
X0068162Y0112054D01*
X0068672Y0111545D01*
X0066710Y0110732D01*
X0066608Y0110630D01*
X0061988Y0110630D01*
X0060724Y0110106D01*
X0059461Y0110630D01*
X0054841Y0110630D01*
X0054739Y0110732D01*
X0052134Y0111811D01*
X0050602Y0111811D01*
X0050845Y0112054D01*
X0051984Y0114803D01*
X0051984Y0117779D01*
X0050845Y0120529D01*
X0048741Y0122633D01*
X0045992Y0123772D01*
X0043016Y0123772D01*
X0040267Y0122633D01*
X0038162Y0120529D01*
X0037024Y0117779D01*
X0037024Y0114803D01*
X0038162Y0112054D01*
X0040267Y0109950D01*
X0043016Y0108811D01*
X0044789Y0108811D01*
X0044717Y0108739D01*
X0043638Y0106134D01*
X0043638Y0103315D01*
X0044717Y0100710D01*
X0046710Y0098717D01*
X0049315Y0097638D01*
X0052134Y0097638D01*
X0054739Y0098717D01*
X0054841Y0098819D01*
X0059461Y0098819D01*
X0060724Y0099342D01*
X0061988Y0098819D01*
X0066608Y0098819D01*
X0066685Y0097020D02*
X0009268Y0097020D01*
X0009268Y0100168D02*
X0045259Y0100168D01*
X0043638Y0103316D02*
X0009268Y0103316D01*
X0009268Y0106464D02*
X0043775Y0106464D01*
X0041082Y0109612D02*
X0009268Y0109612D01*
X0009268Y0112760D02*
X0037870Y0112760D01*
X0037024Y0115909D02*
X0009268Y0115909D01*
X0009268Y0119057D02*
X0037553Y0119057D01*
X0039839Y0122205D02*
X0009268Y0122205D01*
X0009268Y0125353D02*
X0016478Y0125353D01*
X0016650Y0125181D02*
X0023728Y0125181D01*
X0028732Y0130186D01*
X0028732Y0137263D01*
X0023728Y0142268D01*
X0016650Y0142268D01*
X0011646Y0137263D01*
X0011646Y0130186D01*
X0016650Y0125181D01*
X0013330Y0128501D02*
X0009268Y0128501D01*
X0009268Y0131649D02*
X0011646Y0131649D01*
X0011646Y0134797D02*
X0009268Y0134797D01*
X0009268Y0137945D02*
X0012328Y0137945D01*
X0009268Y0141093D02*
X0015476Y0141093D01*
X0016650Y0145181D02*
X0023728Y0145181D01*
X0028732Y0150186D01*
X0028732Y0157263D01*
X0023728Y0162268D01*
X0016650Y0162268D01*
X0011646Y0157263D01*
X0011646Y0150186D01*
X0016650Y0145181D01*
X0014442Y0147390D02*
X0009268Y0147390D01*
X0009268Y0144242D02*
X0085499Y0144242D01*
X0085358Y0144436D02*
X0085938Y0143637D01*
X0086166Y0143409D01*
X0084584Y0141827D01*
X0083481Y0139165D01*
X0083481Y0136284D01*
X0084584Y0133621D01*
X0085481Y0132724D01*
X0084584Y0131827D01*
X0083481Y0129165D01*
X0083481Y0126284D01*
X0084584Y0123621D01*
X0085606Y0122599D01*
X0085606Y0069706D01*
X0086385Y0067825D01*
X0092403Y0061808D01*
X0092013Y0062091D01*
X0091133Y0062539D01*
X0090194Y0062845D01*
X0089218Y0062999D01*
X0088724Y0062999D01*
X0088231Y0062999D01*
X0087255Y0062845D01*
X0086316Y0062539D01*
X0085436Y0062091D01*
X0084637Y0061511D01*
X0083938Y0060812D01*
X0083358Y0060013D01*
X0082909Y0059133D01*
X0082604Y0058194D01*
X0082450Y0057218D01*
X0082450Y0056724D01*
X0082450Y0056231D01*
X0082604Y0055255D01*
X0082909Y0054316D01*
X0083358Y0053436D01*
X0083938Y0052637D01*
X0084166Y0052409D01*
X0082584Y0050827D01*
X0081481Y0048165D01*
X0081481Y0045284D01*
X0082584Y0042621D01*
X0083481Y0041724D01*
X0082584Y0040827D01*
X0081481Y0038165D01*
X0081481Y0035284D01*
X0082584Y0032621D01*
X0084621Y0030584D01*
X0087284Y0029481D01*
X0090165Y0029481D01*
X0092827Y0030584D01*
X0094865Y0032621D01*
X0094869Y0032631D01*
X0097063Y0034825D01*
X0097063Y0032657D01*
X0097097Y0032575D01*
X0097063Y0032492D01*
X0097063Y0022085D01*
X0096567Y0021589D01*
X0095488Y0018984D01*
X0095488Y0016165D01*
X0096567Y0013561D01*
X0098561Y0011567D01*
X0101165Y0010488D01*
X0103984Y0010488D01*
X0106589Y0011567D01*
X0108260Y0013238D01*
X0108589Y0012908D01*
X0109368Y0012342D01*
X0110226Y0011905D01*
X0111142Y0011607D01*
X0112093Y0011457D01*
X0112575Y0011457D01*
X0113056Y0011457D01*
X0114007Y0011607D01*
X0114923Y0011905D01*
X0115781Y0012342D01*
X0116560Y0012908D01*
X0116890Y0013238D01*
X0118561Y0011567D01*
X0121165Y0010488D01*
X0123984Y0010488D01*
X0126589Y0011567D01*
X0128260Y0013238D01*
X0128589Y0012908D01*
X0129368Y0012342D01*
X0130226Y0011905D01*
X0131142Y0011607D01*
X0132093Y0011457D01*
X0132575Y0011457D01*
X0133056Y0011457D01*
X0134007Y0011607D01*
X0134923Y0011905D01*
X0135781Y0012342D01*
X0136560Y0012908D01*
X0136890Y0013238D01*
X0138561Y0011567D01*
X0141165Y0010488D01*
X0143984Y0010488D01*
X0146589Y0011567D01*
X0148260Y0013238D01*
X0148589Y0012908D01*
X0149368Y0012342D01*
X0150226Y0011905D01*
X0151142Y0011607D01*
X0152093Y0011457D01*
X0152575Y0011457D01*
X0153056Y0011457D01*
X0154007Y0011607D01*
X0154923Y0011905D01*
X0155781Y0012342D01*
X0156560Y0012908D01*
X0156890Y0013238D01*
X0158561Y0011567D01*
X0161165Y0010488D01*
X0163984Y0010488D01*
X0166589Y0011567D01*
X0168260Y0013238D01*
X0168589Y0012908D01*
X0169368Y0012342D01*
X0170226Y0011905D01*
X0171142Y0011607D01*
X0172093Y0011457D01*
X0172575Y0011457D01*
X0173056Y0011457D01*
X0174007Y0011607D01*
X0174923Y0011905D01*
X0175781Y0012342D01*
X0176560Y0012908D01*
X0177241Y0013589D01*
X0177807Y0014368D01*
X0178245Y0015226D01*
X0178542Y0016142D01*
X0178693Y0017093D01*
X0178693Y0017575D01*
X0178693Y0018056D01*
X0178542Y0019007D01*
X0178245Y0019923D01*
X0177807Y0020781D01*
X0177738Y0020877D01*
X0177941Y0021079D01*
X0178480Y0022382D01*
X0178480Y0023458D01*
X0178583Y0023561D01*
X0179661Y0026165D01*
X0179661Y0028984D01*
X0178583Y0031589D01*
X0176589Y0033583D01*
X0173984Y0034661D01*
X0171165Y0034661D01*
X0168561Y0033583D01*
X0168321Y0033343D01*
X0168087Y0033343D01*
X0168087Y0043065D01*
X0168128Y0043106D01*
X0171742Y0043106D01*
X0173624Y0043885D01*
X0175063Y0045325D01*
X0185063Y0055325D01*
X0185843Y0057206D01*
X0185843Y0068831D01*
X0186946Y0068831D01*
X0189204Y0069767D01*
X0190932Y0071495D01*
X0191868Y0073753D01*
X0191868Y0077814D01*
X0192518Y0077342D01*
X0193376Y0076905D01*
X0194292Y0076607D01*
X0195243Y0076457D01*
X0195724Y0076457D01*
X0195724Y0082575D01*
X0195724Y0085488D01*
X0195724Y0085488D01*
X0195724Y0088693D01*
X0195724Y0091000D01*
X0195724Y0091000D01*
X0195724Y0085488D01*
X0195724Y0085488D01*
X0195724Y0082575D01*
X0195724Y0082575D01*
X0195724Y0082575D01*
X0195724Y0076457D01*
X0196206Y0076457D01*
X0197157Y0076607D01*
X0198073Y0076905D01*
X0198931Y0077342D01*
X0199031Y0077415D01*
X0199031Y0023187D01*
X0196339Y0025880D01*
X0192722Y0027378D01*
X0188806Y0027378D01*
X0185188Y0025880D01*
X0182420Y0023111D01*
X0180921Y0019493D01*
X0180921Y0015578D01*
X0182420Y0011960D01*
X0185112Y0009268D01*
X0074963Y0009268D01*
X0075811Y0011315D01*
X0075811Y0014134D01*
X0074732Y0016739D01*
X0074660Y0016811D01*
X0075992Y0016811D01*
X0078741Y0017950D01*
X0080845Y0020054D01*
X0081984Y0022803D01*
X0081984Y0025779D01*
X0080845Y0028529D01*
X0078741Y0030633D01*
X0075992Y0031772D01*
X0073016Y0031772D01*
X0070267Y0030633D01*
X0068162Y0028529D01*
X0067024Y0025779D01*
X0067024Y0022803D01*
X0068162Y0020054D01*
X0068405Y0019811D01*
X0067315Y0019811D01*
X0064710Y0018732D01*
X0064608Y0018630D01*
X0059988Y0018630D01*
X0058724Y0018106D01*
X0057461Y0018630D01*
X0052841Y0018630D01*
X0052739Y0018732D01*
X0050465Y0019674D01*
X0050845Y0020054D01*
X0051984Y0022803D01*
X0051984Y0025779D01*
X0050845Y0028529D01*
X0048741Y0030633D01*
X0045992Y0031772D01*
X0043016Y0031772D01*
X0040267Y0030633D01*
X0038162Y0028529D01*
X0037024Y0025779D01*
X0037024Y0022803D01*
X0038162Y0020054D01*
X0040267Y0017950D01*
X0042856Y0016877D01*
X0042717Y0016739D01*
X0041638Y0014134D01*
X0041638Y0011315D01*
X0042486Y0009268D01*
X0023187Y0009268D01*
X0025880Y0011960D01*
X0027378Y0015578D01*
X0027378Y0019493D01*
X0025880Y0023111D01*
X0023111Y0025880D01*
X0019493Y0027378D01*
X0015578Y0027378D01*
X0011960Y0025880D01*
X0009268Y0023187D01*
X0009268Y0185112D01*
X0011960Y0182420D01*
X0015578Y0180921D01*
X0019493Y0180921D01*
X0023111Y0182420D01*
X0025880Y0185188D01*
X0027378Y0188806D01*
X0027378Y0192722D01*
X0025880Y0196339D01*
X0023187Y0199031D01*
X0185112Y0199031D01*
X0182420Y0196339D01*
X0180921Y0192722D01*
X0180921Y0188806D01*
X0182420Y0185188D01*
X0185188Y0182420D01*
X0188806Y0180921D01*
X0192722Y0180921D01*
X0196339Y0182420D01*
X0199031Y0185112D01*
X0199031Y0158420D01*
X0198975Y0158848D01*
X0198754Y0159672D01*
X0198428Y0160461D01*
X0198001Y0161200D01*
X0197481Y0161878D01*
X0196878Y0162481D01*
X0196200Y0163001D01*
X0195461Y0163428D01*
X0194672Y0163754D01*
X0193848Y0163975D01*
X0193002Y0164087D01*
X0192575Y0164087D01*
X0192575Y0157575D01*
X0192575Y0157575D01*
X0192575Y0164087D01*
X0192148Y0164087D01*
X0191302Y0163975D01*
X0190477Y0163754D01*
X0189689Y0163428D01*
X0188949Y0163001D01*
X0188272Y0162481D01*
X0187668Y0161878D01*
X0187149Y0161200D01*
X0186722Y0160461D01*
X0186395Y0159672D01*
X0186174Y0158848D01*
X0186063Y0158002D01*
X0186063Y0157575D01*
X0192575Y0157575D01*
X0192575Y0157575D01*
X0186063Y0157575D01*
X0186063Y0157148D01*
X0186174Y0156302D01*
X0186395Y0155477D01*
X0186722Y0154689D01*
X0187149Y0153949D01*
X0187668Y0153272D01*
X0187681Y0153260D01*
X0187114Y0152693D01*
X0171557Y0152693D01*
X0169676Y0151914D01*
X0165325Y0147563D01*
X0163885Y0146124D01*
X0163106Y0144242D01*
X0139998Y0144242D01*
X0138984Y0144661D02*
X0136165Y0144661D01*
X0135843Y0144528D01*
X0135843Y0147618D01*
X0140310Y0147618D01*
X0142575Y0149883D01*
X0144840Y0147618D01*
X0150153Y0147618D01*
X0153909Y0151375D01*
X0153909Y0156688D01*
X0152629Y0157968D01*
X0153909Y0159249D01*
X0153909Y0164562D01*
X0152614Y0165857D01*
X0152614Y0167471D01*
X0151835Y0169352D01*
X0150063Y0171124D01*
X0148624Y0172563D01*
X0146742Y0173343D01*
X0132206Y0173343D01*
X0130325Y0172563D01*
X0128921Y0171159D01*
X0128945Y0171249D01*
X0128945Y0173901D01*
X0128259Y0176462D01*
X0126933Y0178758D01*
X0125058Y0180633D01*
X0122761Y0181959D01*
X0120200Y0182646D01*
X0117548Y0182646D01*
X0114987Y0181959D01*
X0112690Y0180633D01*
X0110815Y0178758D01*
X0109489Y0176462D01*
X0108803Y0173901D01*
X0108803Y0171249D01*
X0109489Y0168688D01*
X0110815Y0166391D01*
X0112690Y0164516D01*
X0114987Y0163190D01*
X0117548Y0162504D01*
X0120200Y0162504D01*
X0122761Y0163190D01*
X0125058Y0164516D01*
X0125606Y0165065D01*
X0125606Y0147897D01*
X0124923Y0148245D01*
X0124007Y0148542D01*
X0123056Y0148693D01*
X0122575Y0148693D01*
X0122575Y0142575D01*
X0122575Y0142575D01*
X0122575Y0148693D01*
X0122093Y0148693D01*
X0121142Y0148542D01*
X0120226Y0148245D01*
X0119368Y0147807D01*
X0118589Y0147241D01*
X0117908Y0146560D01*
X0117342Y0145781D01*
X0116905Y0144923D01*
X0116607Y0144007D01*
X0116457Y0143056D01*
X0116457Y0142575D01*
X0118031Y0142575D01*
X0118031Y0142575D01*
X0116457Y0142575D01*
X0116457Y0142093D01*
X0116607Y0141142D01*
X0116905Y0140226D01*
X0117342Y0139368D01*
X0117908Y0138589D01*
X0118031Y0138466D01*
X0118031Y0134290D01*
X0118130Y0133792D01*
X0118321Y0133332D01*
X0117602Y0132613D01*
X0117063Y0131311D01*
X0117063Y0127085D01*
X0116567Y0126589D01*
X0115488Y0123984D01*
X0115488Y0121165D01*
X0116567Y0118561D01*
X0118561Y0116567D01*
X0121165Y0115488D01*
X0123984Y0115488D01*
X0126589Y0116567D01*
X0128366Y0118344D01*
X0130606Y0116104D01*
X0130606Y0113745D01*
X0130516Y0113655D01*
X0130177Y0112835D01*
X0130150Y0112887D01*
X0129672Y0113546D01*
X0129096Y0114122D01*
X0128437Y0114601D01*
X0127711Y0114970D01*
X0126936Y0115222D01*
X0126132Y0115350D01*
X0125724Y0115350D01*
X0125317Y0115350D01*
X0124513Y0115222D01*
X0123738Y0114970D01*
X0123012Y0114601D01*
X0122353Y0114122D01*
X0121777Y0113546D01*
X0121299Y0112887D01*
X0120929Y0112161D01*
X0120677Y0111387D01*
X0120550Y0110582D01*
X0120550Y0107575D01*
X0125724Y0107575D01*
X0125724Y0107575D01*
X0125724Y0115350D01*
X0125724Y0107575D01*
X0125724Y0107575D01*
X0120550Y0107575D01*
X0120550Y0104568D01*
X0120677Y0103763D01*
X0120929Y0102988D01*
X0121299Y0102263D01*
X0121777Y0101604D01*
X0122353Y0101028D01*
X0123012Y0100549D01*
X0123738Y0100179D01*
X0124513Y0099927D01*
X0125317Y0099800D01*
X0125724Y0099800D01*
X0125724Y0107575D01*
X0125724Y0107575D01*
X0125724Y0099800D01*
X0126132Y0099800D01*
X0126936Y0099927D01*
X0127711Y0100179D01*
X0128437Y0100549D01*
X0129096Y0101028D01*
X0129672Y0101604D01*
X0130150Y0102263D01*
X0130177Y0102315D01*
X0130516Y0101495D01*
X0132245Y0099767D01*
X0132445Y0099684D01*
X0131385Y0098624D01*
X0120736Y0087974D01*
X0119957Y0086093D01*
X0119957Y0083343D01*
X0119706Y0083343D01*
X0117825Y0082563D01*
X0116385Y0081124D01*
X0115317Y0080055D01*
X0114524Y0080055D01*
X0114524Y0089854D01*
X0114489Y0089937D01*
X0114524Y0090020D01*
X0114524Y0100427D01*
X0115020Y0100923D01*
X0116098Y0103527D01*
X0116098Y0106347D01*
X0115020Y0108951D01*
X0113026Y0110945D01*
X0110421Y0112024D01*
X0107602Y0112024D01*
X0104998Y0110945D01*
X0103618Y0109565D01*
X0102239Y0110945D01*
X0099634Y0112024D01*
X0096815Y0112024D01*
X0095843Y0111621D01*
X0095843Y0122599D01*
X0096865Y0123621D01*
X0097968Y0126284D01*
X0097968Y0129165D01*
X0096865Y0131827D01*
X0095968Y0132724D01*
X0096865Y0133621D01*
X0097968Y0136284D01*
X0097968Y0139165D01*
X0096865Y0141827D01*
X0095283Y0143409D01*
X0095511Y0143637D01*
X0096091Y0144436D01*
X0096539Y0145316D01*
X0096845Y0146255D01*
X0096999Y0147231D01*
X0096999Y0147724D01*
X0090725Y0147724D01*
X0090725Y0147724D01*
X0096999Y0147724D01*
X0096999Y0148218D01*
X0096845Y0149194D01*
X0096539Y0150133D01*
X0096091Y0151013D01*
X0095511Y0151812D01*
X0094812Y0152511D01*
X0094013Y0153091D01*
X0093133Y0153539D01*
X0092194Y0153845D01*
X0091218Y0153999D01*
X0090724Y0153999D01*
X0090231Y0153999D01*
X0089255Y0153845D01*
X0088316Y0153539D01*
X0087436Y0153091D01*
X0086637Y0152511D01*
X0085938Y0151812D01*
X0085358Y0151013D01*
X0084909Y0150133D01*
X0084604Y0149194D01*
X0084450Y0148218D01*
X0084450Y0147724D01*
X0084450Y0147231D01*
X0084604Y0146255D01*
X0084909Y0145316D01*
X0085358Y0144436D01*
X0084450Y0147390D02*
X0025936Y0147390D01*
X0028732Y0150538D02*
X0068565Y0150538D01*
X0067495Y0151608D02*
X0069821Y0149282D01*
X0072859Y0148024D01*
X0076148Y0148024D01*
X0079187Y0149282D01*
X0081513Y0151608D01*
X0082772Y0154647D01*
X0082772Y0157936D01*
X0081513Y0160975D01*
X0079187Y0163300D01*
X0076148Y0164559D01*
X0072859Y0164559D01*
X0069821Y0163300D01*
X0067495Y0160975D01*
X0066236Y0157936D01*
X0066236Y0154647D01*
X0067495Y0151608D01*
X0066634Y0153686D02*
X0028732Y0153686D01*
X0028732Y0156834D02*
X0066236Y0156834D01*
X0067084Y0159982D02*
X0026013Y0159982D01*
X0014365Y0159982D02*
X0009268Y0159982D01*
X0009268Y0156834D02*
X0011646Y0156834D01*
X0011646Y0153686D02*
X0009268Y0153686D01*
X0009268Y0150538D02*
X0011646Y0150538D01*
X0009268Y0163130D02*
X0069651Y0163130D01*
X0079357Y0163130D02*
X0115211Y0163130D01*
X0110928Y0166278D02*
X0009268Y0166278D01*
X0009268Y0169427D02*
X0039676Y0169427D01*
X0039821Y0169282D02*
X0042859Y0168024D01*
X0046148Y0168024D01*
X0049187Y0169282D01*
X0051513Y0171608D01*
X0052772Y0174647D01*
X0052772Y0177936D01*
X0051513Y0180975D01*
X0049187Y0183300D01*
X0046148Y0184559D01*
X0042859Y0184559D01*
X0039821Y0183300D01*
X0037495Y0180975D01*
X0036236Y0177936D01*
X0036236Y0174647D01*
X0037495Y0171608D01*
X0039821Y0169282D01*
X0037095Y0172575D02*
X0009268Y0172575D01*
X0009268Y0175723D02*
X0036236Y0175723D01*
X0036624Y0178871D02*
X0009268Y0178871D01*
X0009268Y0182019D02*
X0012927Y0182019D01*
X0022143Y0182019D02*
X0038539Y0182019D01*
X0027378Y0191463D02*
X0067984Y0191463D01*
X0067495Y0190975D02*
X0066236Y0187936D01*
X0066236Y0184647D01*
X0067495Y0181608D01*
X0069821Y0179282D01*
X0072859Y0178024D01*
X0076148Y0178024D01*
X0079187Y0179282D01*
X0081513Y0181608D01*
X0082772Y0184647D01*
X0082772Y0187936D01*
X0081513Y0190975D01*
X0079187Y0193300D01*
X0076148Y0194559D01*
X0072859Y0194559D01*
X0069821Y0193300D01*
X0067495Y0190975D01*
X0066393Y0188315D02*
X0027175Y0188315D01*
X0025858Y0185167D02*
X0066236Y0185167D01*
X0067325Y0182019D02*
X0050469Y0182019D01*
X0052384Y0178871D02*
X0070814Y0178871D01*
X0078194Y0178871D02*
X0110928Y0178871D01*
X0109291Y0175723D02*
X0052772Y0175723D01*
X0051913Y0172575D02*
X0108803Y0172575D01*
X0109291Y0169427D02*
X0049331Y0169427D01*
X0026595Y0194611D02*
X0181704Y0194611D01*
X0180921Y0191463D02*
X0081024Y0191463D01*
X0082615Y0188315D02*
X0181125Y0188315D01*
X0182441Y0185167D02*
X0082772Y0185167D01*
X0081683Y0182019D02*
X0115209Y0182019D01*
X0122539Y0182019D02*
X0162611Y0182019D01*
X0162388Y0181959D02*
X0160092Y0180633D01*
X0158217Y0178758D01*
X0156891Y0176462D01*
X0156205Y0173901D01*
X0156205Y0171249D01*
X0156891Y0168688D01*
X0158217Y0166391D01*
X0160092Y0164516D01*
X0162388Y0163190D01*
X0164950Y0162504D01*
X0167601Y0162504D01*
X0170163Y0163190D01*
X0172459Y0164516D01*
X0174334Y0166391D01*
X0175660Y0168688D01*
X0176346Y0171249D01*
X0176346Y0173901D01*
X0175660Y0176462D01*
X0174334Y0178758D01*
X0172459Y0180633D01*
X0170163Y0181959D01*
X0167601Y0182646D01*
X0164950Y0182646D01*
X0162388Y0181959D01*
X0158329Y0178871D02*
X0126820Y0178871D01*
X0128457Y0175723D02*
X0156693Y0175723D01*
X0156205Y0172575D02*
X0148596Y0172575D01*
X0151760Y0169427D02*
X0156693Y0169427D01*
X0158330Y0166278D02*
X0152614Y0166278D01*
X0153909Y0163130D02*
X0162612Y0163130D01*
X0169939Y0163130D02*
X0189174Y0163130D01*
X0192575Y0163130D02*
X0192575Y0163130D01*
X0192575Y0159982D02*
X0192575Y0159982D01*
X0195976Y0163130D02*
X0199031Y0163130D01*
X0199031Y0166278D02*
X0174222Y0166278D01*
X0175858Y0169427D02*
X0199031Y0169427D01*
X0199031Y0172575D02*
X0176346Y0172575D01*
X0175858Y0175723D02*
X0199031Y0175723D01*
X0199031Y0178871D02*
X0174222Y0178871D01*
X0169940Y0182019D02*
X0186156Y0182019D01*
X0195372Y0182019D02*
X0199031Y0182019D01*
X0183840Y0197760D02*
X0024459Y0197760D01*
X0024902Y0141093D02*
X0084280Y0141093D01*
X0083481Y0137945D02*
X0028050Y0137945D01*
X0028732Y0134797D02*
X0084097Y0134797D01*
X0084510Y0131649D02*
X0028732Y0131649D01*
X0027048Y0128501D02*
X0083481Y0128501D01*
X0083867Y0125353D02*
X0023899Y0125353D01*
X0049169Y0122205D02*
X0069839Y0122205D01*
X0067553Y0119057D02*
X0051455Y0119057D01*
X0051984Y0115909D02*
X0067024Y0115909D01*
X0067870Y0112760D02*
X0051138Y0112760D01*
X0046148Y0092559D02*
X0042859Y0092559D01*
X0039821Y0091300D01*
X0037495Y0088975D01*
X0036236Y0085936D01*
X0036236Y0082647D01*
X0037495Y0079608D01*
X0039821Y0077282D01*
X0042859Y0076024D01*
X0046148Y0076024D01*
X0049187Y0077282D01*
X0051513Y0079608D01*
X0052772Y0082647D01*
X0052772Y0085936D01*
X0051513Y0088975D01*
X0049187Y0091300D01*
X0046148Y0092559D01*
X0049764Y0090724D02*
X0067033Y0090724D01*
X0066236Y0093872D02*
X0009268Y0093872D01*
X0009268Y0090724D02*
X0039244Y0090724D01*
X0036915Y0087575D02*
X0009268Y0087575D01*
X0009268Y0084427D02*
X0015810Y0084427D01*
X0016650Y0085268D02*
X0011646Y0080263D01*
X0011646Y0073186D01*
X0016650Y0068181D01*
X0023728Y0068181D01*
X0028732Y0073186D01*
X0028732Y0080263D01*
X0023728Y0085268D01*
X0016650Y0085268D01*
X0012662Y0081279D02*
X0009268Y0081279D01*
X0009268Y0078131D02*
X0011646Y0078131D01*
X0011646Y0074983D02*
X0009268Y0074983D01*
X0009268Y0071835D02*
X0012996Y0071835D01*
X0016145Y0068687D02*
X0009268Y0068687D01*
X0009268Y0065539D02*
X0066236Y0065539D01*
X0066236Y0065936D02*
X0066236Y0062647D01*
X0067495Y0059608D01*
X0069821Y0057282D01*
X0072859Y0056024D01*
X0076148Y0056024D01*
X0079187Y0057282D01*
X0081513Y0059608D01*
X0082772Y0062647D01*
X0082772Y0065936D01*
X0081513Y0068975D01*
X0079187Y0071300D01*
X0076148Y0072559D01*
X0072859Y0072559D01*
X0069821Y0071300D01*
X0067495Y0068975D01*
X0066236Y0065936D01*
X0066342Y0062391D02*
X0026605Y0062391D01*
X0028732Y0060263D02*
X0023728Y0065268D01*
X0016650Y0065268D01*
X0011646Y0060263D01*
X0011646Y0053186D01*
X0016650Y0048181D01*
X0023728Y0048181D01*
X0028732Y0053186D01*
X0028732Y0060263D01*
X0028732Y0059242D02*
X0067861Y0059242D01*
X0072689Y0056094D02*
X0028732Y0056094D01*
X0028493Y0052946D02*
X0083713Y0052946D01*
X0082157Y0049798D02*
X0025345Y0049798D01*
X0015033Y0049798D02*
X0009268Y0049798D01*
X0009268Y0052946D02*
X0011885Y0052946D01*
X0011646Y0056094D02*
X0009268Y0056094D01*
X0009268Y0059242D02*
X0011646Y0059242D01*
X0013773Y0062391D02*
X0009268Y0062391D01*
X0024233Y0068687D02*
X0067376Y0068687D01*
X0071111Y0071835D02*
X0027381Y0071835D01*
X0028732Y0074983D02*
X0085606Y0074983D01*
X0085606Y0078131D02*
X0050036Y0078131D01*
X0052205Y0081279D02*
X0085606Y0081279D01*
X0085606Y0084427D02*
X0052772Y0084427D01*
X0052093Y0087575D02*
X0069527Y0087575D01*
X0079480Y0087575D02*
X0085606Y0087575D01*
X0085606Y0090724D02*
X0081975Y0090724D01*
X0082772Y0093872D02*
X0085606Y0093872D01*
X0085606Y0097020D02*
X0082323Y0097020D01*
X0080320Y0100168D02*
X0085606Y0100168D01*
X0085606Y0103316D02*
X0077811Y0103316D01*
X0077674Y0106464D02*
X0085606Y0106464D01*
X0085606Y0109612D02*
X0077926Y0109612D01*
X0081138Y0112760D02*
X0085606Y0112760D01*
X0085606Y0115909D02*
X0081984Y0115909D01*
X0081455Y0119057D02*
X0085606Y0119057D01*
X0085606Y0122205D02*
X0079169Y0122205D01*
X0090724Y0127724D02*
X0090724Y0070724D01*
X0107724Y0053724D01*
X0116425Y0053724D01*
X0122575Y0047575D01*
X0124937Y0064937D02*
X0125724Y0065724D01*
X0125724Y0077575D01*
X0125075Y0078224D01*
X0125075Y0085075D01*
X0135724Y0095724D01*
X0155724Y0095724D01*
X0160724Y0100724D01*
X0160724Y0120724D01*
X0163224Y0118224D01*
X0190724Y0118224D01*
X0195724Y0113224D01*
X0195724Y0102575D01*
X0195724Y0099661D01*
X0195724Y0090724D02*
X0195724Y0090724D01*
X0195724Y0087575D02*
X0195724Y0087575D01*
X0195724Y0084427D02*
X0195724Y0084427D01*
X0195724Y0081279D02*
X0195724Y0081279D01*
X0195724Y0078131D02*
X0195724Y0078131D01*
X0199031Y0074983D02*
X0191868Y0074983D01*
X0191073Y0071835D02*
X0199031Y0071835D01*
X0199031Y0068687D02*
X0185843Y0068687D01*
X0185843Y0065539D02*
X0199031Y0065539D01*
X0199031Y0062391D02*
X0185843Y0062391D01*
X0185843Y0059242D02*
X0199031Y0059242D01*
X0199031Y0056094D02*
X0185382Y0056094D01*
X0182684Y0052946D02*
X0199031Y0052946D01*
X0199031Y0049798D02*
X0179536Y0049798D01*
X0176388Y0046650D02*
X0199031Y0046650D01*
X0199031Y0043502D02*
X0172697Y0043502D01*
X0170724Y0048224D02*
X0163224Y0048224D01*
X0162575Y0047575D01*
X0170724Y0048224D02*
X0180724Y0058224D01*
X0180724Y0085724D01*
X0185724Y0090724D01*
X0185724Y0107575D01*
X0160724Y0120724D02*
X0160724Y0130724D01*
X0167575Y0137575D01*
X0168224Y0138224D01*
X0168224Y0143224D01*
X0172575Y0147575D01*
X0192575Y0147575D01*
X0187351Y0153686D02*
X0153909Y0153686D01*
X0153072Y0150538D02*
X0168300Y0150538D01*
X0165152Y0147390D02*
X0135843Y0147390D01*
X0138984Y0144661D02*
X0141589Y0143583D01*
X0142085Y0143087D01*
X0152492Y0143087D01*
X0152575Y0143052D01*
X0152657Y0143087D01*
X0163065Y0143087D01*
X0163106Y0143128D01*
X0163106Y0144242D01*
X0159661Y0137575D02*
X0167575Y0137575D01*
X0153763Y0156834D02*
X0186104Y0156834D01*
X0186524Y0159982D02*
X0153909Y0159982D01*
X0147496Y0161906D02*
X0147496Y0166453D01*
X0145724Y0168224D01*
X0133224Y0168224D01*
X0130724Y0165724D01*
X0130724Y0123224D01*
X0135724Y0118224D01*
X0135724Y0107575D01*
X0131843Y0100168D02*
X0127676Y0100168D01*
X0125724Y0100168D02*
X0125724Y0100168D01*
X0123772Y0100168D02*
X0114524Y0100168D01*
X0114524Y0097020D02*
X0129782Y0097020D01*
X0126634Y0093872D02*
X0114524Y0093872D01*
X0114524Y0090724D02*
X0123485Y0090724D01*
X0120571Y0087575D02*
X0114524Y0087575D01*
X0114524Y0084427D02*
X0119957Y0084427D01*
X0116541Y0081279D02*
X0114524Y0081279D01*
X0120724Y0078224D02*
X0117437Y0074937D01*
X0109012Y0074937D01*
X0098224Y0074937D01*
X0098012Y0074724D01*
X0088672Y0065539D02*
X0082772Y0065539D01*
X0082665Y0062391D02*
X0086023Y0062391D01*
X0088724Y0062391D02*
X0088724Y0062391D01*
X0088724Y0062999D02*
X0088724Y0056725D01*
X0088724Y0062999D01*
X0091425Y0062391D02*
X0091820Y0062391D01*
X0093808Y0060403D02*
X0100023Y0054188D01*
X0098561Y0053583D01*
X0096567Y0051589D01*
X0095558Y0049154D01*
X0094865Y0050827D01*
X0093283Y0052409D01*
X0093511Y0052637D01*
X0094091Y0053436D01*
X0094539Y0054316D01*
X0094845Y0055255D01*
X0094999Y0056231D01*
X0094999Y0056724D01*
X0088725Y0056724D01*
X0088725Y0056724D01*
X0094999Y0056724D01*
X0094999Y0057218D01*
X0094845Y0058194D01*
X0094539Y0059133D01*
X0094091Y0060013D01*
X0093808Y0060403D01*
X0094484Y0059242D02*
X0094968Y0059242D01*
X0094978Y0056094D02*
X0098116Y0056094D01*
X0097924Y0052946D02*
X0093735Y0052946D01*
X0095291Y0049798D02*
X0095825Y0049798D01*
X0102575Y0047575D02*
X0091724Y0036724D01*
X0088724Y0036724D01*
X0081989Y0034057D02*
X0009268Y0034057D01*
X0009268Y0030909D02*
X0040934Y0030909D01*
X0037845Y0027761D02*
X0009268Y0027761D01*
X0009268Y0024613D02*
X0010694Y0024613D01*
X0009268Y0037206D02*
X0081481Y0037206D01*
X0082388Y0040354D02*
X0009268Y0040354D01*
X0009268Y0043502D02*
X0082219Y0043502D01*
X0081481Y0046650D02*
X0009268Y0046650D01*
X0024377Y0024613D02*
X0037024Y0024613D01*
X0037578Y0021465D02*
X0026561Y0021465D01*
X0027378Y0018317D02*
X0039900Y0018317D01*
X0042066Y0015169D02*
X0027209Y0015169D01*
X0025905Y0012021D02*
X0041638Y0012021D01*
X0051430Y0021465D02*
X0067578Y0021465D01*
X0067024Y0024613D02*
X0051984Y0024613D01*
X0051163Y0027761D02*
X0067845Y0027761D01*
X0070934Y0030909D02*
X0048074Y0030909D01*
X0058216Y0018317D02*
X0059232Y0018317D01*
X0075382Y0015169D02*
X0095901Y0015169D01*
X0095488Y0018317D02*
X0079108Y0018317D01*
X0081430Y0021465D02*
X0096516Y0021465D01*
X0097063Y0024613D02*
X0081984Y0024613D01*
X0081163Y0027761D02*
X0097063Y0027761D01*
X0097063Y0030909D02*
X0093153Y0030909D01*
X0096296Y0034057D02*
X0097063Y0034057D01*
X0105311Y0028224D02*
X0102575Y0025488D01*
X0102575Y0017575D01*
X0107043Y0012021D02*
X0109999Y0012021D01*
X0112575Y0012021D02*
X0112575Y0012021D01*
X0112575Y0011457D02*
X0112575Y0017575D01*
X0112575Y0019543D01*
X0112575Y0019543D01*
X0112575Y0017575D01*
X0112575Y0017575D01*
X0112575Y0017575D01*
X0112575Y0011457D01*
X0115150Y0012021D02*
X0118107Y0012021D01*
X0112575Y0015169D02*
X0112575Y0015169D01*
X0112575Y0018317D02*
X0112575Y0018317D01*
X0112575Y0024661D02*
X0112575Y0027575D01*
X0113224Y0028224D01*
X0105311Y0028224D01*
X0122575Y0025488D02*
X0122575Y0017575D01*
X0127043Y0012021D02*
X0129999Y0012021D01*
X0132575Y0012021D02*
X0132575Y0012021D01*
X0132575Y0011457D02*
X0132575Y0017575D01*
X0132575Y0019543D01*
X0132575Y0019543D01*
X0132575Y0017575D01*
X0132575Y0017575D01*
X0132575Y0017575D01*
X0132575Y0011457D01*
X0135150Y0012021D02*
X0138107Y0012021D01*
X0132575Y0015169D02*
X0132575Y0015169D01*
X0132575Y0018317D02*
X0132575Y0018317D01*
X0132575Y0024661D02*
X0132575Y0027575D01*
X0133224Y0028224D01*
X0125311Y0028224D01*
X0122575Y0025488D01*
X0142575Y0025488D02*
X0142575Y0021374D01*
X0143224Y0018224D01*
X0142575Y0017575D01*
X0147043Y0012021D02*
X0149999Y0012021D01*
X0152575Y0012021D02*
X0152575Y0012021D01*
X0152575Y0011457D02*
X0152575Y0017575D01*
X0152575Y0017575D01*
X0152575Y0019543D01*
X0152575Y0019543D01*
X0152575Y0017575D01*
X0152575Y0017575D01*
X0152575Y0011457D01*
X0155150Y0012021D02*
X0158107Y0012021D01*
X0152575Y0015169D02*
X0152575Y0015169D01*
X0152575Y0018317D02*
X0152575Y0018317D01*
X0152575Y0024661D02*
X0152575Y0027575D01*
X0153224Y0028224D01*
X0145311Y0028224D01*
X0142575Y0025488D01*
X0162575Y0025488D02*
X0163224Y0024839D01*
X0163224Y0023224D01*
X0163224Y0018224D01*
X0162575Y0017575D01*
X0167043Y0012021D02*
X0169999Y0012021D01*
X0172575Y0012021D02*
X0172575Y0012021D01*
X0172575Y0011457D02*
X0172575Y0017575D01*
X0172575Y0019543D01*
X0172575Y0019543D01*
X0172575Y0017575D01*
X0172575Y0017575D01*
X0172575Y0020488D01*
X0172575Y0018317D02*
X0172575Y0018317D01*
X0172575Y0017575D02*
X0172575Y0017575D01*
X0172575Y0011457D01*
X0175150Y0012021D02*
X0182395Y0012021D01*
X0181091Y0015169D02*
X0178215Y0015169D01*
X0178693Y0017575D02*
X0177139Y0017575D01*
X0178693Y0017575D01*
X0178652Y0018317D02*
X0180921Y0018317D01*
X0181738Y0021465D02*
X0178101Y0021465D01*
X0179019Y0024613D02*
X0183922Y0024613D01*
X0179661Y0027761D02*
X0199031Y0027761D01*
X0199031Y0024613D02*
X0197605Y0024613D01*
X0199031Y0030909D02*
X0178864Y0030909D01*
X0175442Y0034057D02*
X0199031Y0034057D01*
X0199031Y0037206D02*
X0168087Y0037206D01*
X0168087Y0040354D02*
X0199031Y0040354D01*
X0177139Y0017575D02*
X0177139Y0017575D01*
X0172575Y0015169D02*
X0172575Y0015169D01*
X0172575Y0024661D02*
X0172575Y0027575D01*
X0173224Y0028224D01*
X0163224Y0028224D01*
X0163224Y0024839D01*
X0168087Y0034057D02*
X0169707Y0034057D01*
X0154937Y0064937D02*
X0155724Y0065724D01*
X0155724Y0077575D01*
X0125075Y0078224D02*
X0120724Y0078224D01*
X0120822Y0103316D02*
X0116011Y0103316D01*
X0116050Y0106464D02*
X0120550Y0106464D01*
X0120550Y0109612D02*
X0114358Y0109612D01*
X0121234Y0112760D02*
X0095843Y0112760D01*
X0095843Y0115909D02*
X0120150Y0115909D01*
X0124999Y0115909D02*
X0130606Y0115909D01*
X0125724Y0112760D02*
X0125724Y0112760D01*
X0125724Y0109612D02*
X0125724Y0109612D01*
X0125724Y0106464D02*
X0125724Y0106464D01*
X0125724Y0103316D02*
X0125724Y0103316D01*
X0116362Y0119057D02*
X0095843Y0119057D01*
X0095843Y0122205D02*
X0115488Y0122205D01*
X0116055Y0125353D02*
X0097582Y0125353D01*
X0097968Y0128501D02*
X0117063Y0128501D01*
X0117203Y0131649D02*
X0096939Y0131649D01*
X0097352Y0134797D02*
X0118031Y0134797D01*
X0118031Y0137945D02*
X0097968Y0137945D01*
X0097169Y0141093D02*
X0116623Y0141093D01*
X0116683Y0144242D02*
X0095950Y0144242D01*
X0096999Y0147390D02*
X0118793Y0147390D01*
X0122575Y0147390D02*
X0122575Y0147390D01*
X0122575Y0144242D02*
X0122575Y0144242D01*
X0122575Y0142575D02*
X0122575Y0139662D01*
X0122575Y0139662D01*
X0122575Y0142575D01*
X0122575Y0142575D01*
X0122575Y0141093D02*
X0122575Y0141093D01*
X0122575Y0139661D02*
X0122575Y0139661D01*
X0122575Y0134150D01*
X0122575Y0134150D01*
X0122575Y0139661D01*
X0122575Y0137945D02*
X0122575Y0137945D01*
X0122575Y0134797D02*
X0122575Y0134797D01*
X0137575Y0137575D02*
X0145488Y0137575D01*
X0125606Y0150538D02*
X0096333Y0150538D01*
X0092682Y0153686D02*
X0125606Y0153686D01*
X0125606Y0156834D02*
X0082772Y0156834D01*
X0081924Y0159982D02*
X0125606Y0159982D01*
X0125606Y0163130D02*
X0122537Y0163130D01*
X0128945Y0172575D02*
X0130353Y0172575D01*
X0090724Y0153999D02*
X0090724Y0147725D01*
X0090724Y0153999D01*
X0090724Y0153686D02*
X0090724Y0153686D01*
X0088766Y0153686D02*
X0082374Y0153686D01*
X0080443Y0150538D02*
X0085116Y0150538D01*
X0084450Y0147724D02*
X0090724Y0147724D01*
X0084450Y0147724D01*
X0090724Y0147724D02*
X0090724Y0147724D01*
X0090724Y0147725D02*
X0090724Y0147725D01*
X0090724Y0150538D02*
X0090724Y0150538D01*
X0103571Y0109612D02*
X0103665Y0109612D01*
X0085606Y0071835D02*
X0077897Y0071835D01*
X0081632Y0068687D02*
X0086029Y0068687D01*
X0088724Y0059242D02*
X0088724Y0059242D01*
X0088724Y0056725D02*
X0088724Y0056725D01*
X0088724Y0056724D02*
X0088724Y0056724D01*
X0082450Y0056724D01*
X0088724Y0056724D01*
X0082471Y0056094D02*
X0076319Y0056094D01*
X0081147Y0059242D02*
X0082965Y0059242D01*
X0084296Y0030909D02*
X0078074Y0030909D01*
X0075811Y0012021D02*
X0098107Y0012021D01*
X0038972Y0078131D02*
X0028732Y0078131D01*
X0027716Y0081279D02*
X0036803Y0081279D01*
X0036236Y0084427D02*
X0024568Y0084427D01*
X0198626Y0159982D02*
X0199031Y0159982D01*
D25*
X0122575Y0125488D02*
X0122575Y0122575D01*
X0109012Y0104937D02*
X0109012Y0097024D01*
X0098224Y0097024D02*
X0098224Y0104937D01*
X0098224Y0082850D02*
X0098224Y0074937D01*
X0109012Y0074937D02*
X0109012Y0082850D01*
X0124937Y0064937D02*
X0132850Y0064937D01*
X0147024Y0064937D02*
X0154937Y0064937D01*
X0162575Y0047575D02*
X0162575Y0039661D01*
X0142575Y0039661D02*
X0142575Y0047575D01*
X0122575Y0047575D02*
X0122575Y0039661D01*
X0102575Y0039661D02*
X0102575Y0047575D01*
D26*
X0083724Y0075724D03*
X0053724Y0094724D03*
X0035724Y0085724D03*
X0033724Y0065724D03*
X0035724Y0046724D03*
X0052724Y0044724D03*
X0089724Y0013724D03*
X0033724Y0124724D03*
X0030724Y0143724D03*
X0032724Y0161724D03*
X0055724Y0181724D03*
X0070724Y0168724D03*
X0059724Y0146724D03*
M02*
