%
M48
M72
T01C0.01575
T02C0.03150
T03C0.03200
T04C0.03740
T05C0.03937
T06C0.04724
T07C0.09055
T08C0.12598
%
T01
X52724Y44724
X35724Y46724
X33724Y65724
X35724Y85724
X53724Y94724
X83724Y75724
X33724Y124724
X30724Y143724
X32724Y161724
X55724Y181724
X70724Y168724
X59724Y146724
X89724Y13724
T02
X48724Y12724
X68724Y12724
X102575Y17575
X112575Y17575
X112575Y27575
X122575Y17575
X132575Y17575
X132575Y27575
X142575Y17575
X152575Y17575
X152575Y27575
X162575Y17575
X172575Y17575
X172575Y27575
X162575Y47575
X154937Y64937
X142575Y47575
X124937Y64937
X122575Y47575
X102575Y47575
X98224Y74937
X109012Y74937
X109012Y104937
X98224Y104937
X122575Y122575
X137575Y137575
X122575Y142575
X167575Y137575
X195724Y102575
X195724Y82575
X70724Y104724
X50724Y104724
T03
X90724Y147724
X90724Y137724
X90724Y127724
X125724Y107575
X135724Y107575
X145724Y107575
X155724Y107575
X165724Y107575
X175724Y107575
X185724Y107575
X185724Y77575
X175724Y77575
X165724Y77575
X155724Y77575
X145724Y77575
X135724Y77575
X125724Y77575
X88724Y56724
X88724Y46724
X88724Y36724
T04
X137654Y154031
X137654Y161906
X147496Y161906
X147496Y154031
T05
X44504Y116291
X74504Y116291
X74504Y24291
X44504Y24291
X192575Y127575
X192575Y137575
X192575Y147575
X192575Y157575
T06
X44504Y176291
X20189Y153724
X20189Y133724
X44504Y84291
X20189Y76724
X20189Y56724
X74504Y64291
X74504Y94291
X74504Y156291
X74504Y186291
T07
X118874Y172575
X166276Y172575
T08
X17535Y17535
X190764Y17535
X190764Y190764
X17535Y190764
M30
