G75*
%MOIN*%
%OFA0B0*%
%FSLAX25Y25*%
%IPPOS*%
%LPD*%
%AMOC8*
5,1,8,0,0,1.08239X$1,22.5*
%
%ADD10C,0.00000*%
%ADD11C,0.07087*%
%ADD12C,0.05200*%
%ADD13OC8,0.05740*%
%ADD14C,0.13055*%
%ADD15C,0.07874*%
%ADD16C,0.05600*%
%ADD17C,0.03150*%
D10*
X0005724Y0017535D02*
X0005724Y0190764D01*
X0011236Y0190764D02*
X0011238Y0190922D01*
X0011244Y0191080D01*
X0011254Y0191238D01*
X0011268Y0191396D01*
X0011286Y0191553D01*
X0011307Y0191710D01*
X0011333Y0191866D01*
X0011363Y0192022D01*
X0011396Y0192177D01*
X0011434Y0192330D01*
X0011475Y0192483D01*
X0011520Y0192635D01*
X0011569Y0192786D01*
X0011622Y0192935D01*
X0011678Y0193083D01*
X0011738Y0193229D01*
X0011802Y0193374D01*
X0011870Y0193517D01*
X0011941Y0193659D01*
X0012015Y0193799D01*
X0012093Y0193936D01*
X0012175Y0194072D01*
X0012259Y0194206D01*
X0012348Y0194337D01*
X0012439Y0194466D01*
X0012534Y0194593D01*
X0012631Y0194718D01*
X0012732Y0194840D01*
X0012836Y0194959D01*
X0012943Y0195076D01*
X0013053Y0195190D01*
X0013166Y0195301D01*
X0013281Y0195410D01*
X0013399Y0195515D01*
X0013520Y0195617D01*
X0013643Y0195717D01*
X0013769Y0195813D01*
X0013897Y0195906D01*
X0014027Y0195996D01*
X0014160Y0196082D01*
X0014295Y0196166D01*
X0014431Y0196245D01*
X0014570Y0196322D01*
X0014711Y0196394D01*
X0014853Y0196464D01*
X0014997Y0196529D01*
X0015143Y0196591D01*
X0015290Y0196649D01*
X0015439Y0196704D01*
X0015589Y0196755D01*
X0015740Y0196802D01*
X0015892Y0196845D01*
X0016045Y0196884D01*
X0016200Y0196920D01*
X0016355Y0196951D01*
X0016511Y0196979D01*
X0016667Y0197003D01*
X0016824Y0197023D01*
X0016982Y0197039D01*
X0017139Y0197051D01*
X0017298Y0197059D01*
X0017456Y0197063D01*
X0017614Y0197063D01*
X0017772Y0197059D01*
X0017931Y0197051D01*
X0018088Y0197039D01*
X0018246Y0197023D01*
X0018403Y0197003D01*
X0018559Y0196979D01*
X0018715Y0196951D01*
X0018870Y0196920D01*
X0019025Y0196884D01*
X0019178Y0196845D01*
X0019330Y0196802D01*
X0019481Y0196755D01*
X0019631Y0196704D01*
X0019780Y0196649D01*
X0019927Y0196591D01*
X0020073Y0196529D01*
X0020217Y0196464D01*
X0020359Y0196394D01*
X0020500Y0196322D01*
X0020639Y0196245D01*
X0020775Y0196166D01*
X0020910Y0196082D01*
X0021043Y0195996D01*
X0021173Y0195906D01*
X0021301Y0195813D01*
X0021427Y0195717D01*
X0021550Y0195617D01*
X0021671Y0195515D01*
X0021789Y0195410D01*
X0021904Y0195301D01*
X0022017Y0195190D01*
X0022127Y0195076D01*
X0022234Y0194959D01*
X0022338Y0194840D01*
X0022439Y0194718D01*
X0022536Y0194593D01*
X0022631Y0194466D01*
X0022722Y0194337D01*
X0022811Y0194206D01*
X0022895Y0194072D01*
X0022977Y0193936D01*
X0023055Y0193799D01*
X0023129Y0193659D01*
X0023200Y0193517D01*
X0023268Y0193374D01*
X0023332Y0193229D01*
X0023392Y0193083D01*
X0023448Y0192935D01*
X0023501Y0192786D01*
X0023550Y0192635D01*
X0023595Y0192483D01*
X0023636Y0192330D01*
X0023674Y0192177D01*
X0023707Y0192022D01*
X0023737Y0191866D01*
X0023763Y0191710D01*
X0023784Y0191553D01*
X0023802Y0191396D01*
X0023816Y0191238D01*
X0023826Y0191080D01*
X0023832Y0190922D01*
X0023834Y0190764D01*
X0023832Y0190606D01*
X0023826Y0190448D01*
X0023816Y0190290D01*
X0023802Y0190132D01*
X0023784Y0189975D01*
X0023763Y0189818D01*
X0023737Y0189662D01*
X0023707Y0189506D01*
X0023674Y0189351D01*
X0023636Y0189198D01*
X0023595Y0189045D01*
X0023550Y0188893D01*
X0023501Y0188742D01*
X0023448Y0188593D01*
X0023392Y0188445D01*
X0023332Y0188299D01*
X0023268Y0188154D01*
X0023200Y0188011D01*
X0023129Y0187869D01*
X0023055Y0187729D01*
X0022977Y0187592D01*
X0022895Y0187456D01*
X0022811Y0187322D01*
X0022722Y0187191D01*
X0022631Y0187062D01*
X0022536Y0186935D01*
X0022439Y0186810D01*
X0022338Y0186688D01*
X0022234Y0186569D01*
X0022127Y0186452D01*
X0022017Y0186338D01*
X0021904Y0186227D01*
X0021789Y0186118D01*
X0021671Y0186013D01*
X0021550Y0185911D01*
X0021427Y0185811D01*
X0021301Y0185715D01*
X0021173Y0185622D01*
X0021043Y0185532D01*
X0020910Y0185446D01*
X0020775Y0185362D01*
X0020639Y0185283D01*
X0020500Y0185206D01*
X0020359Y0185134D01*
X0020217Y0185064D01*
X0020073Y0184999D01*
X0019927Y0184937D01*
X0019780Y0184879D01*
X0019631Y0184824D01*
X0019481Y0184773D01*
X0019330Y0184726D01*
X0019178Y0184683D01*
X0019025Y0184644D01*
X0018870Y0184608D01*
X0018715Y0184577D01*
X0018559Y0184549D01*
X0018403Y0184525D01*
X0018246Y0184505D01*
X0018088Y0184489D01*
X0017931Y0184477D01*
X0017772Y0184469D01*
X0017614Y0184465D01*
X0017456Y0184465D01*
X0017298Y0184469D01*
X0017139Y0184477D01*
X0016982Y0184489D01*
X0016824Y0184505D01*
X0016667Y0184525D01*
X0016511Y0184549D01*
X0016355Y0184577D01*
X0016200Y0184608D01*
X0016045Y0184644D01*
X0015892Y0184683D01*
X0015740Y0184726D01*
X0015589Y0184773D01*
X0015439Y0184824D01*
X0015290Y0184879D01*
X0015143Y0184937D01*
X0014997Y0184999D01*
X0014853Y0185064D01*
X0014711Y0185134D01*
X0014570Y0185206D01*
X0014431Y0185283D01*
X0014295Y0185362D01*
X0014160Y0185446D01*
X0014027Y0185532D01*
X0013897Y0185622D01*
X0013769Y0185715D01*
X0013643Y0185811D01*
X0013520Y0185911D01*
X0013399Y0186013D01*
X0013281Y0186118D01*
X0013166Y0186227D01*
X0013053Y0186338D01*
X0012943Y0186452D01*
X0012836Y0186569D01*
X0012732Y0186688D01*
X0012631Y0186810D01*
X0012534Y0186935D01*
X0012439Y0187062D01*
X0012348Y0187191D01*
X0012259Y0187322D01*
X0012175Y0187456D01*
X0012093Y0187592D01*
X0012015Y0187729D01*
X0011941Y0187869D01*
X0011870Y0188011D01*
X0011802Y0188154D01*
X0011738Y0188299D01*
X0011678Y0188445D01*
X0011622Y0188593D01*
X0011569Y0188742D01*
X0011520Y0188893D01*
X0011475Y0189045D01*
X0011434Y0189198D01*
X0011396Y0189351D01*
X0011363Y0189506D01*
X0011333Y0189662D01*
X0011307Y0189818D01*
X0011286Y0189975D01*
X0011268Y0190132D01*
X0011254Y0190290D01*
X0011244Y0190448D01*
X0011238Y0190606D01*
X0011236Y0190764D01*
X0005724Y0190764D02*
X0005727Y0191049D01*
X0005738Y0191335D01*
X0005755Y0191620D01*
X0005779Y0191904D01*
X0005810Y0192188D01*
X0005848Y0192471D01*
X0005893Y0192752D01*
X0005944Y0193033D01*
X0006002Y0193313D01*
X0006067Y0193591D01*
X0006139Y0193867D01*
X0006217Y0194141D01*
X0006302Y0194414D01*
X0006394Y0194684D01*
X0006492Y0194952D01*
X0006596Y0195218D01*
X0006707Y0195481D01*
X0006824Y0195741D01*
X0006947Y0195999D01*
X0007077Y0196253D01*
X0007213Y0196504D01*
X0007354Y0196752D01*
X0007502Y0196996D01*
X0007655Y0197237D01*
X0007815Y0197473D01*
X0007980Y0197706D01*
X0008150Y0197935D01*
X0008326Y0198160D01*
X0008508Y0198380D01*
X0008694Y0198596D01*
X0008886Y0198807D01*
X0009083Y0199014D01*
X0009285Y0199216D01*
X0009492Y0199413D01*
X0009703Y0199605D01*
X0009919Y0199791D01*
X0010139Y0199973D01*
X0010364Y0200149D01*
X0010593Y0200319D01*
X0010826Y0200484D01*
X0011062Y0200644D01*
X0011303Y0200797D01*
X0011547Y0200945D01*
X0011795Y0201086D01*
X0012046Y0201222D01*
X0012300Y0201352D01*
X0012558Y0201475D01*
X0012818Y0201592D01*
X0013081Y0201703D01*
X0013347Y0201807D01*
X0013615Y0201905D01*
X0013885Y0201997D01*
X0014158Y0202082D01*
X0014432Y0202160D01*
X0014708Y0202232D01*
X0014986Y0202297D01*
X0015266Y0202355D01*
X0015547Y0202406D01*
X0015828Y0202451D01*
X0016111Y0202489D01*
X0016395Y0202520D01*
X0016679Y0202544D01*
X0016964Y0202561D01*
X0017250Y0202572D01*
X0017535Y0202575D01*
X0190764Y0202575D01*
X0184465Y0190764D02*
X0184467Y0190922D01*
X0184473Y0191080D01*
X0184483Y0191238D01*
X0184497Y0191396D01*
X0184515Y0191553D01*
X0184536Y0191710D01*
X0184562Y0191866D01*
X0184592Y0192022D01*
X0184625Y0192177D01*
X0184663Y0192330D01*
X0184704Y0192483D01*
X0184749Y0192635D01*
X0184798Y0192786D01*
X0184851Y0192935D01*
X0184907Y0193083D01*
X0184967Y0193229D01*
X0185031Y0193374D01*
X0185099Y0193517D01*
X0185170Y0193659D01*
X0185244Y0193799D01*
X0185322Y0193936D01*
X0185404Y0194072D01*
X0185488Y0194206D01*
X0185577Y0194337D01*
X0185668Y0194466D01*
X0185763Y0194593D01*
X0185860Y0194718D01*
X0185961Y0194840D01*
X0186065Y0194959D01*
X0186172Y0195076D01*
X0186282Y0195190D01*
X0186395Y0195301D01*
X0186510Y0195410D01*
X0186628Y0195515D01*
X0186749Y0195617D01*
X0186872Y0195717D01*
X0186998Y0195813D01*
X0187126Y0195906D01*
X0187256Y0195996D01*
X0187389Y0196082D01*
X0187524Y0196166D01*
X0187660Y0196245D01*
X0187799Y0196322D01*
X0187940Y0196394D01*
X0188082Y0196464D01*
X0188226Y0196529D01*
X0188372Y0196591D01*
X0188519Y0196649D01*
X0188668Y0196704D01*
X0188818Y0196755D01*
X0188969Y0196802D01*
X0189121Y0196845D01*
X0189274Y0196884D01*
X0189429Y0196920D01*
X0189584Y0196951D01*
X0189740Y0196979D01*
X0189896Y0197003D01*
X0190053Y0197023D01*
X0190211Y0197039D01*
X0190368Y0197051D01*
X0190527Y0197059D01*
X0190685Y0197063D01*
X0190843Y0197063D01*
X0191001Y0197059D01*
X0191160Y0197051D01*
X0191317Y0197039D01*
X0191475Y0197023D01*
X0191632Y0197003D01*
X0191788Y0196979D01*
X0191944Y0196951D01*
X0192099Y0196920D01*
X0192254Y0196884D01*
X0192407Y0196845D01*
X0192559Y0196802D01*
X0192710Y0196755D01*
X0192860Y0196704D01*
X0193009Y0196649D01*
X0193156Y0196591D01*
X0193302Y0196529D01*
X0193446Y0196464D01*
X0193588Y0196394D01*
X0193729Y0196322D01*
X0193868Y0196245D01*
X0194004Y0196166D01*
X0194139Y0196082D01*
X0194272Y0195996D01*
X0194402Y0195906D01*
X0194530Y0195813D01*
X0194656Y0195717D01*
X0194779Y0195617D01*
X0194900Y0195515D01*
X0195018Y0195410D01*
X0195133Y0195301D01*
X0195246Y0195190D01*
X0195356Y0195076D01*
X0195463Y0194959D01*
X0195567Y0194840D01*
X0195668Y0194718D01*
X0195765Y0194593D01*
X0195860Y0194466D01*
X0195951Y0194337D01*
X0196040Y0194206D01*
X0196124Y0194072D01*
X0196206Y0193936D01*
X0196284Y0193799D01*
X0196358Y0193659D01*
X0196429Y0193517D01*
X0196497Y0193374D01*
X0196561Y0193229D01*
X0196621Y0193083D01*
X0196677Y0192935D01*
X0196730Y0192786D01*
X0196779Y0192635D01*
X0196824Y0192483D01*
X0196865Y0192330D01*
X0196903Y0192177D01*
X0196936Y0192022D01*
X0196966Y0191866D01*
X0196992Y0191710D01*
X0197013Y0191553D01*
X0197031Y0191396D01*
X0197045Y0191238D01*
X0197055Y0191080D01*
X0197061Y0190922D01*
X0197063Y0190764D01*
X0197061Y0190606D01*
X0197055Y0190448D01*
X0197045Y0190290D01*
X0197031Y0190132D01*
X0197013Y0189975D01*
X0196992Y0189818D01*
X0196966Y0189662D01*
X0196936Y0189506D01*
X0196903Y0189351D01*
X0196865Y0189198D01*
X0196824Y0189045D01*
X0196779Y0188893D01*
X0196730Y0188742D01*
X0196677Y0188593D01*
X0196621Y0188445D01*
X0196561Y0188299D01*
X0196497Y0188154D01*
X0196429Y0188011D01*
X0196358Y0187869D01*
X0196284Y0187729D01*
X0196206Y0187592D01*
X0196124Y0187456D01*
X0196040Y0187322D01*
X0195951Y0187191D01*
X0195860Y0187062D01*
X0195765Y0186935D01*
X0195668Y0186810D01*
X0195567Y0186688D01*
X0195463Y0186569D01*
X0195356Y0186452D01*
X0195246Y0186338D01*
X0195133Y0186227D01*
X0195018Y0186118D01*
X0194900Y0186013D01*
X0194779Y0185911D01*
X0194656Y0185811D01*
X0194530Y0185715D01*
X0194402Y0185622D01*
X0194272Y0185532D01*
X0194139Y0185446D01*
X0194004Y0185362D01*
X0193868Y0185283D01*
X0193729Y0185206D01*
X0193588Y0185134D01*
X0193446Y0185064D01*
X0193302Y0184999D01*
X0193156Y0184937D01*
X0193009Y0184879D01*
X0192860Y0184824D01*
X0192710Y0184773D01*
X0192559Y0184726D01*
X0192407Y0184683D01*
X0192254Y0184644D01*
X0192099Y0184608D01*
X0191944Y0184577D01*
X0191788Y0184549D01*
X0191632Y0184525D01*
X0191475Y0184505D01*
X0191317Y0184489D01*
X0191160Y0184477D01*
X0191001Y0184469D01*
X0190843Y0184465D01*
X0190685Y0184465D01*
X0190527Y0184469D01*
X0190368Y0184477D01*
X0190211Y0184489D01*
X0190053Y0184505D01*
X0189896Y0184525D01*
X0189740Y0184549D01*
X0189584Y0184577D01*
X0189429Y0184608D01*
X0189274Y0184644D01*
X0189121Y0184683D01*
X0188969Y0184726D01*
X0188818Y0184773D01*
X0188668Y0184824D01*
X0188519Y0184879D01*
X0188372Y0184937D01*
X0188226Y0184999D01*
X0188082Y0185064D01*
X0187940Y0185134D01*
X0187799Y0185206D01*
X0187660Y0185283D01*
X0187524Y0185362D01*
X0187389Y0185446D01*
X0187256Y0185532D01*
X0187126Y0185622D01*
X0186998Y0185715D01*
X0186872Y0185811D01*
X0186749Y0185911D01*
X0186628Y0186013D01*
X0186510Y0186118D01*
X0186395Y0186227D01*
X0186282Y0186338D01*
X0186172Y0186452D01*
X0186065Y0186569D01*
X0185961Y0186688D01*
X0185860Y0186810D01*
X0185763Y0186935D01*
X0185668Y0187062D01*
X0185577Y0187191D01*
X0185488Y0187322D01*
X0185404Y0187456D01*
X0185322Y0187592D01*
X0185244Y0187729D01*
X0185170Y0187869D01*
X0185099Y0188011D01*
X0185031Y0188154D01*
X0184967Y0188299D01*
X0184907Y0188445D01*
X0184851Y0188593D01*
X0184798Y0188742D01*
X0184749Y0188893D01*
X0184704Y0189045D01*
X0184663Y0189198D01*
X0184625Y0189351D01*
X0184592Y0189506D01*
X0184562Y0189662D01*
X0184536Y0189818D01*
X0184515Y0189975D01*
X0184497Y0190132D01*
X0184483Y0190290D01*
X0184473Y0190448D01*
X0184467Y0190606D01*
X0184465Y0190764D01*
X0190764Y0202575D02*
X0191049Y0202572D01*
X0191335Y0202561D01*
X0191620Y0202544D01*
X0191904Y0202520D01*
X0192188Y0202489D01*
X0192471Y0202451D01*
X0192752Y0202406D01*
X0193033Y0202355D01*
X0193313Y0202297D01*
X0193591Y0202232D01*
X0193867Y0202160D01*
X0194141Y0202082D01*
X0194414Y0201997D01*
X0194684Y0201905D01*
X0194952Y0201807D01*
X0195218Y0201703D01*
X0195481Y0201592D01*
X0195741Y0201475D01*
X0195999Y0201352D01*
X0196253Y0201222D01*
X0196504Y0201086D01*
X0196752Y0200945D01*
X0196996Y0200797D01*
X0197237Y0200644D01*
X0197473Y0200484D01*
X0197706Y0200319D01*
X0197935Y0200149D01*
X0198160Y0199973D01*
X0198380Y0199791D01*
X0198596Y0199605D01*
X0198807Y0199413D01*
X0199014Y0199216D01*
X0199216Y0199014D01*
X0199413Y0198807D01*
X0199605Y0198596D01*
X0199791Y0198380D01*
X0199973Y0198160D01*
X0200149Y0197935D01*
X0200319Y0197706D01*
X0200484Y0197473D01*
X0200644Y0197237D01*
X0200797Y0196996D01*
X0200945Y0196752D01*
X0201086Y0196504D01*
X0201222Y0196253D01*
X0201352Y0195999D01*
X0201475Y0195741D01*
X0201592Y0195481D01*
X0201703Y0195218D01*
X0201807Y0194952D01*
X0201905Y0194684D01*
X0201997Y0194414D01*
X0202082Y0194141D01*
X0202160Y0193867D01*
X0202232Y0193591D01*
X0202297Y0193313D01*
X0202355Y0193033D01*
X0202406Y0192752D01*
X0202451Y0192471D01*
X0202489Y0192188D01*
X0202520Y0191904D01*
X0202544Y0191620D01*
X0202561Y0191335D01*
X0202572Y0191049D01*
X0202575Y0190764D01*
X0202575Y0017535D01*
X0184465Y0017535D02*
X0184467Y0017693D01*
X0184473Y0017851D01*
X0184483Y0018009D01*
X0184497Y0018167D01*
X0184515Y0018324D01*
X0184536Y0018481D01*
X0184562Y0018637D01*
X0184592Y0018793D01*
X0184625Y0018948D01*
X0184663Y0019101D01*
X0184704Y0019254D01*
X0184749Y0019406D01*
X0184798Y0019557D01*
X0184851Y0019706D01*
X0184907Y0019854D01*
X0184967Y0020000D01*
X0185031Y0020145D01*
X0185099Y0020288D01*
X0185170Y0020430D01*
X0185244Y0020570D01*
X0185322Y0020707D01*
X0185404Y0020843D01*
X0185488Y0020977D01*
X0185577Y0021108D01*
X0185668Y0021237D01*
X0185763Y0021364D01*
X0185860Y0021489D01*
X0185961Y0021611D01*
X0186065Y0021730D01*
X0186172Y0021847D01*
X0186282Y0021961D01*
X0186395Y0022072D01*
X0186510Y0022181D01*
X0186628Y0022286D01*
X0186749Y0022388D01*
X0186872Y0022488D01*
X0186998Y0022584D01*
X0187126Y0022677D01*
X0187256Y0022767D01*
X0187389Y0022853D01*
X0187524Y0022937D01*
X0187660Y0023016D01*
X0187799Y0023093D01*
X0187940Y0023165D01*
X0188082Y0023235D01*
X0188226Y0023300D01*
X0188372Y0023362D01*
X0188519Y0023420D01*
X0188668Y0023475D01*
X0188818Y0023526D01*
X0188969Y0023573D01*
X0189121Y0023616D01*
X0189274Y0023655D01*
X0189429Y0023691D01*
X0189584Y0023722D01*
X0189740Y0023750D01*
X0189896Y0023774D01*
X0190053Y0023794D01*
X0190211Y0023810D01*
X0190368Y0023822D01*
X0190527Y0023830D01*
X0190685Y0023834D01*
X0190843Y0023834D01*
X0191001Y0023830D01*
X0191160Y0023822D01*
X0191317Y0023810D01*
X0191475Y0023794D01*
X0191632Y0023774D01*
X0191788Y0023750D01*
X0191944Y0023722D01*
X0192099Y0023691D01*
X0192254Y0023655D01*
X0192407Y0023616D01*
X0192559Y0023573D01*
X0192710Y0023526D01*
X0192860Y0023475D01*
X0193009Y0023420D01*
X0193156Y0023362D01*
X0193302Y0023300D01*
X0193446Y0023235D01*
X0193588Y0023165D01*
X0193729Y0023093D01*
X0193868Y0023016D01*
X0194004Y0022937D01*
X0194139Y0022853D01*
X0194272Y0022767D01*
X0194402Y0022677D01*
X0194530Y0022584D01*
X0194656Y0022488D01*
X0194779Y0022388D01*
X0194900Y0022286D01*
X0195018Y0022181D01*
X0195133Y0022072D01*
X0195246Y0021961D01*
X0195356Y0021847D01*
X0195463Y0021730D01*
X0195567Y0021611D01*
X0195668Y0021489D01*
X0195765Y0021364D01*
X0195860Y0021237D01*
X0195951Y0021108D01*
X0196040Y0020977D01*
X0196124Y0020843D01*
X0196206Y0020707D01*
X0196284Y0020570D01*
X0196358Y0020430D01*
X0196429Y0020288D01*
X0196497Y0020145D01*
X0196561Y0020000D01*
X0196621Y0019854D01*
X0196677Y0019706D01*
X0196730Y0019557D01*
X0196779Y0019406D01*
X0196824Y0019254D01*
X0196865Y0019101D01*
X0196903Y0018948D01*
X0196936Y0018793D01*
X0196966Y0018637D01*
X0196992Y0018481D01*
X0197013Y0018324D01*
X0197031Y0018167D01*
X0197045Y0018009D01*
X0197055Y0017851D01*
X0197061Y0017693D01*
X0197063Y0017535D01*
X0197061Y0017377D01*
X0197055Y0017219D01*
X0197045Y0017061D01*
X0197031Y0016903D01*
X0197013Y0016746D01*
X0196992Y0016589D01*
X0196966Y0016433D01*
X0196936Y0016277D01*
X0196903Y0016122D01*
X0196865Y0015969D01*
X0196824Y0015816D01*
X0196779Y0015664D01*
X0196730Y0015513D01*
X0196677Y0015364D01*
X0196621Y0015216D01*
X0196561Y0015070D01*
X0196497Y0014925D01*
X0196429Y0014782D01*
X0196358Y0014640D01*
X0196284Y0014500D01*
X0196206Y0014363D01*
X0196124Y0014227D01*
X0196040Y0014093D01*
X0195951Y0013962D01*
X0195860Y0013833D01*
X0195765Y0013706D01*
X0195668Y0013581D01*
X0195567Y0013459D01*
X0195463Y0013340D01*
X0195356Y0013223D01*
X0195246Y0013109D01*
X0195133Y0012998D01*
X0195018Y0012889D01*
X0194900Y0012784D01*
X0194779Y0012682D01*
X0194656Y0012582D01*
X0194530Y0012486D01*
X0194402Y0012393D01*
X0194272Y0012303D01*
X0194139Y0012217D01*
X0194004Y0012133D01*
X0193868Y0012054D01*
X0193729Y0011977D01*
X0193588Y0011905D01*
X0193446Y0011835D01*
X0193302Y0011770D01*
X0193156Y0011708D01*
X0193009Y0011650D01*
X0192860Y0011595D01*
X0192710Y0011544D01*
X0192559Y0011497D01*
X0192407Y0011454D01*
X0192254Y0011415D01*
X0192099Y0011379D01*
X0191944Y0011348D01*
X0191788Y0011320D01*
X0191632Y0011296D01*
X0191475Y0011276D01*
X0191317Y0011260D01*
X0191160Y0011248D01*
X0191001Y0011240D01*
X0190843Y0011236D01*
X0190685Y0011236D01*
X0190527Y0011240D01*
X0190368Y0011248D01*
X0190211Y0011260D01*
X0190053Y0011276D01*
X0189896Y0011296D01*
X0189740Y0011320D01*
X0189584Y0011348D01*
X0189429Y0011379D01*
X0189274Y0011415D01*
X0189121Y0011454D01*
X0188969Y0011497D01*
X0188818Y0011544D01*
X0188668Y0011595D01*
X0188519Y0011650D01*
X0188372Y0011708D01*
X0188226Y0011770D01*
X0188082Y0011835D01*
X0187940Y0011905D01*
X0187799Y0011977D01*
X0187660Y0012054D01*
X0187524Y0012133D01*
X0187389Y0012217D01*
X0187256Y0012303D01*
X0187126Y0012393D01*
X0186998Y0012486D01*
X0186872Y0012582D01*
X0186749Y0012682D01*
X0186628Y0012784D01*
X0186510Y0012889D01*
X0186395Y0012998D01*
X0186282Y0013109D01*
X0186172Y0013223D01*
X0186065Y0013340D01*
X0185961Y0013459D01*
X0185860Y0013581D01*
X0185763Y0013706D01*
X0185668Y0013833D01*
X0185577Y0013962D01*
X0185488Y0014093D01*
X0185404Y0014227D01*
X0185322Y0014363D01*
X0185244Y0014500D01*
X0185170Y0014640D01*
X0185099Y0014782D01*
X0185031Y0014925D01*
X0184967Y0015070D01*
X0184907Y0015216D01*
X0184851Y0015364D01*
X0184798Y0015513D01*
X0184749Y0015664D01*
X0184704Y0015816D01*
X0184663Y0015969D01*
X0184625Y0016122D01*
X0184592Y0016277D01*
X0184562Y0016433D01*
X0184536Y0016589D01*
X0184515Y0016746D01*
X0184497Y0016903D01*
X0184483Y0017061D01*
X0184473Y0017219D01*
X0184467Y0017377D01*
X0184465Y0017535D01*
X0190764Y0005724D02*
X0191049Y0005727D01*
X0191335Y0005738D01*
X0191620Y0005755D01*
X0191904Y0005779D01*
X0192188Y0005810D01*
X0192471Y0005848D01*
X0192752Y0005893D01*
X0193033Y0005944D01*
X0193313Y0006002D01*
X0193591Y0006067D01*
X0193867Y0006139D01*
X0194141Y0006217D01*
X0194414Y0006302D01*
X0194684Y0006394D01*
X0194952Y0006492D01*
X0195218Y0006596D01*
X0195481Y0006707D01*
X0195741Y0006824D01*
X0195999Y0006947D01*
X0196253Y0007077D01*
X0196504Y0007213D01*
X0196752Y0007354D01*
X0196996Y0007502D01*
X0197237Y0007655D01*
X0197473Y0007815D01*
X0197706Y0007980D01*
X0197935Y0008150D01*
X0198160Y0008326D01*
X0198380Y0008508D01*
X0198596Y0008694D01*
X0198807Y0008886D01*
X0199014Y0009083D01*
X0199216Y0009285D01*
X0199413Y0009492D01*
X0199605Y0009703D01*
X0199791Y0009919D01*
X0199973Y0010139D01*
X0200149Y0010364D01*
X0200319Y0010593D01*
X0200484Y0010826D01*
X0200644Y0011062D01*
X0200797Y0011303D01*
X0200945Y0011547D01*
X0201086Y0011795D01*
X0201222Y0012046D01*
X0201352Y0012300D01*
X0201475Y0012558D01*
X0201592Y0012818D01*
X0201703Y0013081D01*
X0201807Y0013347D01*
X0201905Y0013615D01*
X0201997Y0013885D01*
X0202082Y0014158D01*
X0202160Y0014432D01*
X0202232Y0014708D01*
X0202297Y0014986D01*
X0202355Y0015266D01*
X0202406Y0015547D01*
X0202451Y0015828D01*
X0202489Y0016111D01*
X0202520Y0016395D01*
X0202544Y0016679D01*
X0202561Y0016964D01*
X0202572Y0017250D01*
X0202575Y0017535D01*
X0190764Y0005724D02*
X0017535Y0005724D01*
X0011236Y0017535D02*
X0011238Y0017693D01*
X0011244Y0017851D01*
X0011254Y0018009D01*
X0011268Y0018167D01*
X0011286Y0018324D01*
X0011307Y0018481D01*
X0011333Y0018637D01*
X0011363Y0018793D01*
X0011396Y0018948D01*
X0011434Y0019101D01*
X0011475Y0019254D01*
X0011520Y0019406D01*
X0011569Y0019557D01*
X0011622Y0019706D01*
X0011678Y0019854D01*
X0011738Y0020000D01*
X0011802Y0020145D01*
X0011870Y0020288D01*
X0011941Y0020430D01*
X0012015Y0020570D01*
X0012093Y0020707D01*
X0012175Y0020843D01*
X0012259Y0020977D01*
X0012348Y0021108D01*
X0012439Y0021237D01*
X0012534Y0021364D01*
X0012631Y0021489D01*
X0012732Y0021611D01*
X0012836Y0021730D01*
X0012943Y0021847D01*
X0013053Y0021961D01*
X0013166Y0022072D01*
X0013281Y0022181D01*
X0013399Y0022286D01*
X0013520Y0022388D01*
X0013643Y0022488D01*
X0013769Y0022584D01*
X0013897Y0022677D01*
X0014027Y0022767D01*
X0014160Y0022853D01*
X0014295Y0022937D01*
X0014431Y0023016D01*
X0014570Y0023093D01*
X0014711Y0023165D01*
X0014853Y0023235D01*
X0014997Y0023300D01*
X0015143Y0023362D01*
X0015290Y0023420D01*
X0015439Y0023475D01*
X0015589Y0023526D01*
X0015740Y0023573D01*
X0015892Y0023616D01*
X0016045Y0023655D01*
X0016200Y0023691D01*
X0016355Y0023722D01*
X0016511Y0023750D01*
X0016667Y0023774D01*
X0016824Y0023794D01*
X0016982Y0023810D01*
X0017139Y0023822D01*
X0017298Y0023830D01*
X0017456Y0023834D01*
X0017614Y0023834D01*
X0017772Y0023830D01*
X0017931Y0023822D01*
X0018088Y0023810D01*
X0018246Y0023794D01*
X0018403Y0023774D01*
X0018559Y0023750D01*
X0018715Y0023722D01*
X0018870Y0023691D01*
X0019025Y0023655D01*
X0019178Y0023616D01*
X0019330Y0023573D01*
X0019481Y0023526D01*
X0019631Y0023475D01*
X0019780Y0023420D01*
X0019927Y0023362D01*
X0020073Y0023300D01*
X0020217Y0023235D01*
X0020359Y0023165D01*
X0020500Y0023093D01*
X0020639Y0023016D01*
X0020775Y0022937D01*
X0020910Y0022853D01*
X0021043Y0022767D01*
X0021173Y0022677D01*
X0021301Y0022584D01*
X0021427Y0022488D01*
X0021550Y0022388D01*
X0021671Y0022286D01*
X0021789Y0022181D01*
X0021904Y0022072D01*
X0022017Y0021961D01*
X0022127Y0021847D01*
X0022234Y0021730D01*
X0022338Y0021611D01*
X0022439Y0021489D01*
X0022536Y0021364D01*
X0022631Y0021237D01*
X0022722Y0021108D01*
X0022811Y0020977D01*
X0022895Y0020843D01*
X0022977Y0020707D01*
X0023055Y0020570D01*
X0023129Y0020430D01*
X0023200Y0020288D01*
X0023268Y0020145D01*
X0023332Y0020000D01*
X0023392Y0019854D01*
X0023448Y0019706D01*
X0023501Y0019557D01*
X0023550Y0019406D01*
X0023595Y0019254D01*
X0023636Y0019101D01*
X0023674Y0018948D01*
X0023707Y0018793D01*
X0023737Y0018637D01*
X0023763Y0018481D01*
X0023784Y0018324D01*
X0023802Y0018167D01*
X0023816Y0018009D01*
X0023826Y0017851D01*
X0023832Y0017693D01*
X0023834Y0017535D01*
X0023832Y0017377D01*
X0023826Y0017219D01*
X0023816Y0017061D01*
X0023802Y0016903D01*
X0023784Y0016746D01*
X0023763Y0016589D01*
X0023737Y0016433D01*
X0023707Y0016277D01*
X0023674Y0016122D01*
X0023636Y0015969D01*
X0023595Y0015816D01*
X0023550Y0015664D01*
X0023501Y0015513D01*
X0023448Y0015364D01*
X0023392Y0015216D01*
X0023332Y0015070D01*
X0023268Y0014925D01*
X0023200Y0014782D01*
X0023129Y0014640D01*
X0023055Y0014500D01*
X0022977Y0014363D01*
X0022895Y0014227D01*
X0022811Y0014093D01*
X0022722Y0013962D01*
X0022631Y0013833D01*
X0022536Y0013706D01*
X0022439Y0013581D01*
X0022338Y0013459D01*
X0022234Y0013340D01*
X0022127Y0013223D01*
X0022017Y0013109D01*
X0021904Y0012998D01*
X0021789Y0012889D01*
X0021671Y0012784D01*
X0021550Y0012682D01*
X0021427Y0012582D01*
X0021301Y0012486D01*
X0021173Y0012393D01*
X0021043Y0012303D01*
X0020910Y0012217D01*
X0020775Y0012133D01*
X0020639Y0012054D01*
X0020500Y0011977D01*
X0020359Y0011905D01*
X0020217Y0011835D01*
X0020073Y0011770D01*
X0019927Y0011708D01*
X0019780Y0011650D01*
X0019631Y0011595D01*
X0019481Y0011544D01*
X0019330Y0011497D01*
X0019178Y0011454D01*
X0019025Y0011415D01*
X0018870Y0011379D01*
X0018715Y0011348D01*
X0018559Y0011320D01*
X0018403Y0011296D01*
X0018246Y0011276D01*
X0018088Y0011260D01*
X0017931Y0011248D01*
X0017772Y0011240D01*
X0017614Y0011236D01*
X0017456Y0011236D01*
X0017298Y0011240D01*
X0017139Y0011248D01*
X0016982Y0011260D01*
X0016824Y0011276D01*
X0016667Y0011296D01*
X0016511Y0011320D01*
X0016355Y0011348D01*
X0016200Y0011379D01*
X0016045Y0011415D01*
X0015892Y0011454D01*
X0015740Y0011497D01*
X0015589Y0011544D01*
X0015439Y0011595D01*
X0015290Y0011650D01*
X0015143Y0011708D01*
X0014997Y0011770D01*
X0014853Y0011835D01*
X0014711Y0011905D01*
X0014570Y0011977D01*
X0014431Y0012054D01*
X0014295Y0012133D01*
X0014160Y0012217D01*
X0014027Y0012303D01*
X0013897Y0012393D01*
X0013769Y0012486D01*
X0013643Y0012582D01*
X0013520Y0012682D01*
X0013399Y0012784D01*
X0013281Y0012889D01*
X0013166Y0012998D01*
X0013053Y0013109D01*
X0012943Y0013223D01*
X0012836Y0013340D01*
X0012732Y0013459D01*
X0012631Y0013581D01*
X0012534Y0013706D01*
X0012439Y0013833D01*
X0012348Y0013962D01*
X0012259Y0014093D01*
X0012175Y0014227D01*
X0012093Y0014363D01*
X0012015Y0014500D01*
X0011941Y0014640D01*
X0011870Y0014782D01*
X0011802Y0014925D01*
X0011738Y0015070D01*
X0011678Y0015216D01*
X0011622Y0015364D01*
X0011569Y0015513D01*
X0011520Y0015664D01*
X0011475Y0015816D01*
X0011434Y0015969D01*
X0011396Y0016122D01*
X0011363Y0016277D01*
X0011333Y0016433D01*
X0011307Y0016589D01*
X0011286Y0016746D01*
X0011268Y0016903D01*
X0011254Y0017061D01*
X0011244Y0017219D01*
X0011238Y0017377D01*
X0011236Y0017535D01*
X0005724Y0017535D02*
X0005727Y0017250D01*
X0005738Y0016964D01*
X0005755Y0016679D01*
X0005779Y0016395D01*
X0005810Y0016111D01*
X0005848Y0015828D01*
X0005893Y0015547D01*
X0005944Y0015266D01*
X0006002Y0014986D01*
X0006067Y0014708D01*
X0006139Y0014432D01*
X0006217Y0014158D01*
X0006302Y0013885D01*
X0006394Y0013615D01*
X0006492Y0013347D01*
X0006596Y0013081D01*
X0006707Y0012818D01*
X0006824Y0012558D01*
X0006947Y0012300D01*
X0007077Y0012046D01*
X0007213Y0011795D01*
X0007354Y0011547D01*
X0007502Y0011303D01*
X0007655Y0011062D01*
X0007815Y0010826D01*
X0007980Y0010593D01*
X0008150Y0010364D01*
X0008326Y0010139D01*
X0008508Y0009919D01*
X0008694Y0009703D01*
X0008886Y0009492D01*
X0009083Y0009285D01*
X0009285Y0009083D01*
X0009492Y0008886D01*
X0009703Y0008694D01*
X0009919Y0008508D01*
X0010139Y0008326D01*
X0010364Y0008150D01*
X0010593Y0007980D01*
X0010826Y0007815D01*
X0011062Y0007655D01*
X0011303Y0007502D01*
X0011547Y0007354D01*
X0011795Y0007213D01*
X0012046Y0007077D01*
X0012300Y0006947D01*
X0012558Y0006824D01*
X0012818Y0006707D01*
X0013081Y0006596D01*
X0013347Y0006492D01*
X0013615Y0006394D01*
X0013885Y0006302D01*
X0014158Y0006217D01*
X0014432Y0006139D01*
X0014708Y0006067D01*
X0014986Y0006002D01*
X0015266Y0005944D01*
X0015547Y0005893D01*
X0015828Y0005848D01*
X0016111Y0005810D01*
X0016395Y0005779D01*
X0016679Y0005755D01*
X0016964Y0005738D01*
X0017250Y0005727D01*
X0017535Y0005724D01*
D11*
X0035724Y0055724D03*
X0035724Y0074150D03*
X0045724Y0074150D03*
X0065724Y0055724D03*
X0098224Y0074937D03*
X0109012Y0074937D03*
X0124937Y0064937D03*
X0122575Y0047575D03*
X0142575Y0047575D03*
X0154937Y0064937D03*
X0162575Y0047575D03*
X0172575Y0027575D03*
X0172575Y0017575D03*
X0162575Y0017575D03*
X0152575Y0017575D03*
X0152575Y0027575D03*
X0142575Y0017575D03*
X0132575Y0017575D03*
X0132575Y0027575D03*
X0122575Y0017575D03*
X0112575Y0017575D03*
X0112575Y0027575D03*
X0102575Y0017575D03*
X0102575Y0047575D03*
X0098224Y0104937D03*
X0109012Y0104937D03*
X0122575Y0122575D03*
X0137575Y0137575D03*
X0122575Y0142575D03*
X0167575Y0137575D03*
X0195724Y0102575D03*
X0195724Y0082575D03*
D12*
X0185724Y0080175D02*
X0185724Y0074975D01*
X0175724Y0074975D02*
X0175724Y0080175D01*
X0165724Y0080175D02*
X0165724Y0074975D01*
X0155724Y0074975D02*
X0155724Y0080175D01*
X0145724Y0080175D02*
X0145724Y0074975D01*
X0135724Y0074975D02*
X0135724Y0080175D01*
X0125724Y0080175D02*
X0125724Y0074975D01*
X0125724Y0104975D02*
X0125724Y0110175D01*
X0135724Y0110175D02*
X0135724Y0104975D01*
X0145724Y0104975D02*
X0145724Y0110175D01*
X0155724Y0110175D02*
X0155724Y0104975D01*
X0165724Y0104975D02*
X0165724Y0110175D01*
X0175724Y0110175D02*
X0175724Y0104975D01*
X0185724Y0104975D02*
X0185724Y0110175D01*
D13*
X0147496Y0154031D03*
X0147496Y0161906D03*
X0137654Y0161906D03*
X0137654Y0154031D03*
D14*
X0118874Y0172575D03*
X0166276Y0172575D03*
D15*
X0192575Y0157575D03*
X0192575Y0147575D03*
X0192575Y0137575D03*
X0192575Y0127575D03*
D16*
X0045094Y0119150D03*
X0045094Y0109150D03*
X0045094Y0099150D03*
X0045094Y0089150D03*
D17*
X0035724Y0098520D01*
X0035724Y0125724D01*
X0040724Y0130724D01*
X0050724Y0130724D01*
X0058874Y0122575D01*
X0122575Y0122575D01*
X0120724Y0120724D01*
X0120724Y0100724D01*
X0125724Y0095724D01*
X0150724Y0095724D01*
X0155724Y0100724D01*
X0155724Y0107575D01*
X0160606Y0113981D02*
X0159204Y0115383D01*
X0156946Y0116318D01*
X0154502Y0116318D01*
X0152614Y0115536D01*
X0152614Y0150080D01*
X0153909Y0151375D01*
X0153909Y0156688D01*
X0152629Y0157968D01*
X0153909Y0159249D01*
X0153909Y0164562D01*
X0150153Y0168319D01*
X0144840Y0168319D01*
X0141890Y0165369D01*
X0139909Y0167350D01*
X0137654Y0167350D01*
X0137654Y0161906D01*
X0137653Y0161906D01*
X0137653Y0161905D01*
X0132209Y0161905D01*
X0132209Y0159650D01*
X0133206Y0158653D01*
X0131240Y0156688D01*
X0131240Y0151375D01*
X0132535Y0150080D01*
X0132535Y0142557D01*
X0131567Y0141589D01*
X0130488Y0138984D01*
X0130488Y0136165D01*
X0131567Y0133561D01*
X0133561Y0131567D01*
X0136165Y0130488D01*
X0138984Y0130488D01*
X0141589Y0131567D01*
X0142378Y0132356D01*
X0142378Y0115438D01*
X0142245Y0115383D01*
X0140724Y0113863D01*
X0139204Y0115383D01*
X0136946Y0116318D01*
X0134502Y0116318D01*
X0132245Y0115383D01*
X0130516Y0113655D01*
X0130177Y0112835D01*
X0130150Y0112887D01*
X0129672Y0113546D01*
X0129096Y0114122D01*
X0128437Y0114601D01*
X0127711Y0114970D01*
X0126936Y0115222D01*
X0126132Y0115350D01*
X0125843Y0115350D01*
X0125843Y0116258D01*
X0126589Y0116567D01*
X0128583Y0118561D01*
X0129661Y0121165D01*
X0129661Y0123984D01*
X0128583Y0126589D01*
X0126589Y0128583D01*
X0123984Y0129661D01*
X0121165Y0129661D01*
X0118561Y0128583D01*
X0117671Y0127693D01*
X0060994Y0127693D01*
X0055063Y0133624D01*
X0053624Y0135063D01*
X0051742Y0135843D01*
X0039706Y0135843D01*
X0037825Y0135063D01*
X0032825Y0130063D01*
X0031385Y0128624D01*
X0030606Y0126742D01*
X0030606Y0097502D01*
X0031385Y0095620D01*
X0038751Y0088255D01*
X0038751Y0087888D01*
X0039717Y0085556D01*
X0041501Y0083772D01*
X0043833Y0082806D01*
X0044319Y0082806D01*
X0047121Y0080123D01*
X0046206Y0080268D01*
X0045724Y0080268D01*
X0045243Y0080268D01*
X0044292Y0080117D01*
X0043376Y0079819D01*
X0042518Y0079382D01*
X0041739Y0078816D01*
X0041409Y0078487D01*
X0039739Y0080157D01*
X0037134Y0081236D01*
X0034315Y0081236D01*
X0031710Y0080157D01*
X0029717Y0078164D01*
X0028638Y0075559D01*
X0028638Y0072740D01*
X0029717Y0070135D01*
X0030606Y0069246D01*
X0030606Y0060628D01*
X0029717Y0059739D01*
X0028638Y0057134D01*
X0028638Y0054315D01*
X0029717Y0051710D01*
X0031710Y0049717D01*
X0034315Y0048638D01*
X0037134Y0048638D01*
X0039739Y0049717D01*
X0041732Y0051710D01*
X0042811Y0054315D01*
X0042811Y0057134D01*
X0041732Y0059739D01*
X0040843Y0060628D01*
X0040843Y0069246D01*
X0041409Y0069812D01*
X0041739Y0069483D01*
X0042518Y0068917D01*
X0043376Y0068480D01*
X0044292Y0068182D01*
X0045243Y0068031D01*
X0045724Y0068031D01*
X0045724Y0074149D01*
X0045724Y0074149D01*
X0045724Y0068031D01*
X0046206Y0068031D01*
X0047157Y0068182D01*
X0048073Y0068480D01*
X0048931Y0068917D01*
X0049710Y0069483D01*
X0050391Y0070164D01*
X0050957Y0070943D01*
X0051394Y0071801D01*
X0051692Y0072717D01*
X0051843Y0073668D01*
X0051843Y0074150D01*
X0051843Y0074631D01*
X0051692Y0075582D01*
X0051615Y0075820D01*
X0056357Y0071279D01*
X0057038Y0070598D01*
X0057091Y0070576D01*
X0057133Y0070536D01*
X0058030Y0070187D01*
X0058919Y0069819D01*
X0058976Y0069819D01*
X0059030Y0069798D01*
X0059993Y0069819D01*
X0093321Y0069819D01*
X0094210Y0068929D01*
X0096815Y0067850D01*
X0099634Y0067850D01*
X0102239Y0068929D01*
X0103618Y0070309D01*
X0104998Y0068929D01*
X0107602Y0067850D01*
X0110421Y0067850D01*
X0113026Y0068929D01*
X0115020Y0070923D01*
X0116098Y0073527D01*
X0116098Y0076347D01*
X0115020Y0078951D01*
X0113026Y0080945D01*
X0110421Y0082024D01*
X0107602Y0082024D01*
X0104998Y0080945D01*
X0103618Y0079565D01*
X0102239Y0080945D01*
X0099634Y0082024D01*
X0096815Y0082024D01*
X0094210Y0080945D01*
X0093321Y0080055D01*
X0061992Y0080055D01*
X0051438Y0090162D01*
X0051438Y0090411D01*
X0050472Y0092743D01*
X0049183Y0094031D01*
X0085179Y0094031D01*
X0091385Y0087825D01*
X0092825Y0086385D01*
X0094706Y0085606D01*
X0106675Y0085606D01*
X0112464Y0081747D01*
X0112825Y0081385D01*
X0113303Y0081188D01*
X0113732Y0080901D01*
X0114234Y0080802D01*
X0114706Y0080606D01*
X0115223Y0080606D01*
X0115730Y0080506D01*
X0116231Y0080606D01*
X0119581Y0080606D01*
X0119581Y0073753D01*
X0120516Y0071495D01*
X0121024Y0070987D01*
X0120923Y0070945D01*
X0118929Y0068951D01*
X0117850Y0066347D01*
X0117850Y0063527D01*
X0117927Y0063343D01*
X0114706Y0063343D01*
X0112825Y0062563D01*
X0111385Y0061124D01*
X0104648Y0054386D01*
X0103984Y0054661D01*
X0101165Y0054661D01*
X0098561Y0053583D01*
X0097671Y0052693D01*
X0075994Y0052693D01*
X0072811Y0055876D01*
X0072811Y0057134D01*
X0071732Y0059739D01*
X0069739Y0061732D01*
X0067134Y0062811D01*
X0064315Y0062811D01*
X0061710Y0061732D01*
X0059717Y0059739D01*
X0058638Y0057134D01*
X0058638Y0054315D01*
X0059717Y0051710D01*
X0061710Y0049717D01*
X0064315Y0048638D01*
X0065573Y0048638D01*
X0070975Y0043236D01*
X0072856Y0042457D01*
X0097671Y0042457D01*
X0098561Y0041567D01*
X0101165Y0040488D01*
X0103984Y0040488D01*
X0106589Y0041567D01*
X0108583Y0043561D01*
X0108783Y0044045D01*
X0117844Y0053106D01*
X0118084Y0053106D01*
X0116567Y0051589D01*
X0115488Y0048984D01*
X0115488Y0046165D01*
X0116567Y0043561D01*
X0118561Y0041567D01*
X0121165Y0040488D01*
X0123984Y0040488D01*
X0126589Y0041567D01*
X0128583Y0043561D01*
X0129430Y0045606D01*
X0134242Y0045606D01*
X0135503Y0046129D01*
X0136567Y0043561D01*
X0138561Y0041567D01*
X0141165Y0040488D01*
X0143984Y0040488D01*
X0146589Y0041567D01*
X0147479Y0042457D01*
X0151093Y0042457D01*
X0152974Y0043236D01*
X0155610Y0045872D01*
X0156567Y0043561D01*
X0158561Y0041567D01*
X0161165Y0040488D01*
X0163984Y0040488D01*
X0166589Y0041567D01*
X0168583Y0043561D01*
X0169661Y0046165D01*
X0169661Y0048984D01*
X0168990Y0050606D01*
X0181742Y0050606D01*
X0183624Y0051385D01*
X0188624Y0056385D01*
X0190063Y0057825D01*
X0190843Y0059706D01*
X0190843Y0071405D01*
X0190932Y0071495D01*
X0191868Y0073753D01*
X0191868Y0077814D01*
X0192518Y0077342D01*
X0193376Y0076905D01*
X0194292Y0076607D01*
X0195243Y0076457D01*
X0195724Y0076457D01*
X0195724Y0082575D01*
X0195724Y0088693D01*
X0195243Y0088693D01*
X0194292Y0088542D01*
X0193376Y0088245D01*
X0192518Y0087807D01*
X0191739Y0087241D01*
X0191058Y0086560D01*
X0190492Y0085781D01*
X0190055Y0084923D01*
X0189959Y0084628D01*
X0189204Y0085383D01*
X0186946Y0086318D01*
X0184502Y0086318D01*
X0182245Y0085383D01*
X0180724Y0083863D01*
X0179204Y0085383D01*
X0176946Y0086318D01*
X0176056Y0086318D01*
X0180063Y0090325D01*
X0180843Y0092206D01*
X0180843Y0094242D01*
X0180843Y0101169D01*
X0182245Y0099767D01*
X0184502Y0098831D01*
X0186946Y0098831D01*
X0189204Y0099767D01*
X0189213Y0099776D01*
X0189717Y0098561D01*
X0191710Y0096567D01*
X0194315Y0095488D01*
X0197134Y0095488D01*
X0199031Y0096274D01*
X0199031Y0087734D01*
X0198931Y0087807D01*
X0198073Y0088245D01*
X0197157Y0088542D01*
X0196206Y0088693D01*
X0195724Y0088693D01*
X0195724Y0082575D01*
X0195724Y0082575D01*
X0195724Y0082575D01*
X0195724Y0076457D01*
X0196206Y0076457D01*
X0197157Y0076607D01*
X0198073Y0076905D01*
X0198931Y0077342D01*
X0199031Y0077415D01*
X0199031Y0023187D01*
X0196339Y0025880D01*
X0192722Y0027378D01*
X0188806Y0027378D01*
X0185188Y0025880D01*
X0182420Y0023111D01*
X0180921Y0019493D01*
X0180921Y0015578D01*
X0182420Y0011960D01*
X0185112Y0009268D01*
X0023187Y0009268D01*
X0025880Y0011960D01*
X0027378Y0015578D01*
X0027378Y0019493D01*
X0025880Y0023111D01*
X0023111Y0025880D01*
X0019493Y0027378D01*
X0015578Y0027378D01*
X0011960Y0025880D01*
X0009268Y0023187D01*
X0009268Y0185112D01*
X0011960Y0182420D01*
X0015578Y0180921D01*
X0019493Y0180921D01*
X0023111Y0182420D01*
X0025880Y0185188D01*
X0027378Y0188806D01*
X0027378Y0192722D01*
X0025880Y0196339D01*
X0023187Y0199031D01*
X0185112Y0199031D01*
X0182420Y0196339D01*
X0180921Y0192722D01*
X0180921Y0188806D01*
X0182420Y0185188D01*
X0185188Y0182420D01*
X0188806Y0180921D01*
X0192722Y0180921D01*
X0196339Y0182420D01*
X0199031Y0185112D01*
X0199031Y0158420D01*
X0198975Y0158848D01*
X0198754Y0159672D01*
X0198428Y0160461D01*
X0198001Y0161200D01*
X0197481Y0161878D01*
X0196878Y0162481D01*
X0196200Y0163001D01*
X0195461Y0163428D01*
X0194672Y0163754D01*
X0193848Y0163975D01*
X0193002Y0164087D01*
X0192575Y0164087D01*
X0192575Y0157575D01*
X0192575Y0157575D01*
X0192575Y0164087D01*
X0192148Y0164087D01*
X0191302Y0163975D01*
X0190477Y0163754D01*
X0189689Y0163428D01*
X0188949Y0163001D01*
X0188272Y0162481D01*
X0187668Y0161878D01*
X0187149Y0161200D01*
X0186722Y0160461D01*
X0186395Y0159672D01*
X0186174Y0158848D01*
X0186063Y0158002D01*
X0186063Y0157575D01*
X0192575Y0157575D01*
X0192575Y0157575D01*
X0186063Y0157575D01*
X0186063Y0157148D01*
X0186174Y0156302D01*
X0186395Y0155477D01*
X0186722Y0154689D01*
X0187149Y0153949D01*
X0187668Y0153272D01*
X0187681Y0153260D01*
X0186233Y0151812D01*
X0185094Y0149063D01*
X0185094Y0146087D01*
X0186231Y0143343D01*
X0182206Y0143343D01*
X0180325Y0142563D01*
X0178885Y0141124D01*
X0174661Y0136899D01*
X0174661Y0138984D01*
X0173583Y0141589D01*
X0171589Y0143583D01*
X0168984Y0144661D01*
X0166165Y0144661D01*
X0163561Y0143583D01*
X0161567Y0141589D01*
X0160488Y0138984D01*
X0160488Y0136165D01*
X0161567Y0133561D01*
X0163561Y0131567D01*
X0166165Y0130488D01*
X0168250Y0130488D01*
X0161385Y0123624D01*
X0160606Y0121742D01*
X0160606Y0113981D01*
X0160606Y0115909D02*
X0157935Y0115909D01*
X0160606Y0119057D02*
X0152614Y0119057D01*
X0152614Y0115909D02*
X0153514Y0115909D01*
X0152614Y0122205D02*
X0160798Y0122205D01*
X0163115Y0125353D02*
X0152614Y0125353D01*
X0152614Y0128501D02*
X0166263Y0128501D01*
X0163479Y0131649D02*
X0152614Y0131649D01*
X0152614Y0134797D02*
X0161055Y0134797D01*
X0160488Y0137945D02*
X0152614Y0137945D01*
X0152614Y0141093D02*
X0161362Y0141093D01*
X0165152Y0144242D02*
X0152614Y0144242D01*
X0152614Y0147390D02*
X0185094Y0147390D01*
X0185859Y0144242D02*
X0169998Y0144242D01*
X0173788Y0141093D02*
X0178855Y0141093D01*
X0175707Y0137945D02*
X0174661Y0137945D01*
X0183224Y0138224D02*
X0191925Y0138224D01*
X0192575Y0137575D01*
X0183224Y0138224D02*
X0165724Y0120724D01*
X0165724Y0107575D01*
X0165724Y0095724D01*
X0160724Y0090724D01*
X0118224Y0090724D01*
X0115724Y0093224D01*
X0115724Y0113224D01*
X0113224Y0115724D01*
X0100724Y0115724D01*
X0098224Y0113224D01*
X0094150Y0109150D01*
X0045094Y0109150D01*
X0048171Y0114741D02*
X0048596Y0115050D01*
X0049194Y0115648D01*
X0049691Y0116333D01*
X0050076Y0117086D01*
X0050337Y0117891D01*
X0050469Y0118727D01*
X0050469Y0119150D01*
X0050469Y0119573D01*
X0050337Y0120408D01*
X0050076Y0121213D01*
X0049691Y0121967D01*
X0049194Y0122651D01*
X0048596Y0123249D01*
X0047911Y0123747D01*
X0047158Y0124131D01*
X0046353Y0124392D01*
X0045517Y0124524D01*
X0045095Y0124524D01*
X0045095Y0119150D01*
X0050469Y0119150D01*
X0045095Y0119150D01*
X0045095Y0119150D01*
X0045094Y0119150D01*
X0045094Y0124524D01*
X0044671Y0124524D01*
X0043836Y0124392D01*
X0043031Y0124131D01*
X0042277Y0123747D01*
X0041593Y0123249D01*
X0040995Y0122651D01*
X0040843Y0122441D01*
X0040843Y0123604D01*
X0042844Y0125606D01*
X0048604Y0125606D01*
X0055975Y0118236D01*
X0057856Y0117457D01*
X0095219Y0117457D01*
X0092030Y0114268D01*
X0048947Y0114268D01*
X0048688Y0114527D01*
X0048171Y0114741D01*
X0049383Y0115909D02*
X0093670Y0115909D01*
X0098224Y0113224D02*
X0098224Y0104937D01*
X0108224Y0104150D02*
X0109012Y0104937D01*
X0108224Y0104150D02*
X0108224Y0090724D01*
X0095724Y0090724D01*
X0087299Y0099150D01*
X0045094Y0099150D01*
X0049343Y0093872D02*
X0085339Y0093872D01*
X0088487Y0090724D02*
X0051308Y0090724D01*
X0054139Y0087575D02*
X0091635Y0087575D01*
X0095018Y0081279D02*
X0060714Y0081279D01*
X0057426Y0084427D02*
X0108443Y0084427D01*
X0105805Y0081279D02*
X0101431Y0081279D01*
X0098224Y0074937D02*
X0059937Y0074937D01*
X0045094Y0089150D01*
X0040846Y0084427D02*
X0009268Y0084427D01*
X0009268Y0087575D02*
X0038881Y0087575D01*
X0036282Y0090724D02*
X0009268Y0090724D01*
X0009268Y0093872D02*
X0033134Y0093872D01*
X0030806Y0097020D02*
X0009268Y0097020D01*
X0009268Y0100168D02*
X0030606Y0100168D01*
X0030606Y0103316D02*
X0009268Y0103316D01*
X0009268Y0106464D02*
X0030606Y0106464D01*
X0030606Y0109612D02*
X0009268Y0109612D01*
X0009268Y0112760D02*
X0030606Y0112760D01*
X0030606Y0115909D02*
X0009268Y0115909D01*
X0009268Y0119057D02*
X0030606Y0119057D01*
X0030606Y0122205D02*
X0009268Y0122205D01*
X0009268Y0125353D02*
X0030606Y0125353D01*
X0031335Y0128501D02*
X0009268Y0128501D01*
X0009268Y0131649D02*
X0034411Y0131649D01*
X0037559Y0134797D02*
X0009268Y0134797D01*
X0009268Y0137945D02*
X0118552Y0137945D01*
X0118589Y0137908D02*
X0119368Y0137342D01*
X0120226Y0136905D01*
X0121142Y0136607D01*
X0122093Y0136457D01*
X0122575Y0136457D01*
X0123056Y0136457D01*
X0124007Y0136607D01*
X0124923Y0136905D01*
X0125781Y0137342D01*
X0126560Y0137908D01*
X0127241Y0138589D01*
X0127807Y0139368D01*
X0128245Y0140226D01*
X0128542Y0141142D01*
X0128693Y0142093D01*
X0128693Y0142575D01*
X0128693Y0143056D01*
X0128542Y0144007D01*
X0128245Y0144923D01*
X0127807Y0145781D01*
X0127241Y0146560D01*
X0126560Y0147241D01*
X0125781Y0147807D01*
X0124923Y0148245D01*
X0124007Y0148542D01*
X0123056Y0148693D01*
X0122575Y0148693D01*
X0122575Y0142575D01*
X0122575Y0142575D01*
X0128693Y0142575D01*
X0122575Y0142575D01*
X0122575Y0142575D01*
X0123224Y0143224D01*
X0123224Y0155724D01*
X0129406Y0161906D01*
X0137654Y0161906D01*
X0137653Y0161906D02*
X0137653Y0167350D01*
X0135398Y0167350D01*
X0132209Y0164161D01*
X0132209Y0161906D01*
X0137653Y0161906D01*
X0137653Y0163130D02*
X0137654Y0163130D01*
X0137653Y0166278D02*
X0137654Y0166278D01*
X0140981Y0166278D02*
X0142799Y0166278D01*
X0134326Y0166278D02*
X0126820Y0166278D01*
X0126933Y0166391D02*
X0128259Y0168688D01*
X0128945Y0171249D01*
X0128945Y0173901D01*
X0128259Y0176462D01*
X0126933Y0178758D01*
X0125058Y0180633D01*
X0122761Y0181959D01*
X0120200Y0182646D01*
X0117548Y0182646D01*
X0114987Y0181959D01*
X0112690Y0180633D01*
X0110815Y0178758D01*
X0109489Y0176462D01*
X0108803Y0173901D01*
X0108803Y0171249D01*
X0109489Y0168688D01*
X0110815Y0166391D01*
X0112690Y0164516D01*
X0114987Y0163190D01*
X0117548Y0162504D01*
X0120200Y0162504D01*
X0122761Y0163190D01*
X0125058Y0164516D01*
X0126933Y0166391D01*
X0128457Y0169427D02*
X0156693Y0169427D01*
X0156891Y0168688D02*
X0158217Y0166391D01*
X0160092Y0164516D01*
X0162388Y0163190D01*
X0164950Y0162504D01*
X0167601Y0162504D01*
X0170163Y0163190D01*
X0172459Y0164516D01*
X0174334Y0166391D01*
X0175660Y0168688D01*
X0176346Y0171249D01*
X0176346Y0173901D01*
X0175660Y0176462D01*
X0174334Y0178758D01*
X0172459Y0180633D01*
X0170163Y0181959D01*
X0167601Y0182646D01*
X0164950Y0182646D01*
X0162388Y0181959D01*
X0160092Y0180633D01*
X0158217Y0178758D01*
X0156891Y0176462D01*
X0156205Y0173901D01*
X0156205Y0171249D01*
X0156891Y0168688D01*
X0158330Y0166278D02*
X0152193Y0166278D01*
X0153909Y0163130D02*
X0162612Y0163130D01*
X0169939Y0163130D02*
X0189174Y0163130D01*
X0192575Y0163130D02*
X0192575Y0163130D01*
X0192575Y0159982D02*
X0192575Y0159982D01*
X0195976Y0163130D02*
X0199031Y0163130D01*
X0199031Y0166278D02*
X0174222Y0166278D01*
X0175858Y0169427D02*
X0199031Y0169427D01*
X0199031Y0172575D02*
X0176346Y0172575D01*
X0175858Y0175723D02*
X0199031Y0175723D01*
X0199031Y0178871D02*
X0174222Y0178871D01*
X0169940Y0182019D02*
X0186156Y0182019D01*
X0182441Y0185167D02*
X0025858Y0185167D01*
X0027175Y0188315D02*
X0181125Y0188315D01*
X0180921Y0191463D02*
X0027378Y0191463D01*
X0026595Y0194611D02*
X0181704Y0194611D01*
X0183840Y0197760D02*
X0024459Y0197760D01*
X0022143Y0182019D02*
X0115209Y0182019D01*
X0110928Y0178871D02*
X0009268Y0178871D01*
X0009268Y0175723D02*
X0109291Y0175723D01*
X0108803Y0172575D02*
X0009268Y0172575D01*
X0009268Y0169427D02*
X0109291Y0169427D01*
X0110928Y0166278D02*
X0009268Y0166278D01*
X0009268Y0163130D02*
X0115211Y0163130D01*
X0122537Y0163130D02*
X0132209Y0163130D01*
X0132209Y0159982D02*
X0009268Y0159982D01*
X0009268Y0156834D02*
X0131386Y0156834D01*
X0131240Y0153686D02*
X0009268Y0153686D01*
X0009268Y0150538D02*
X0132077Y0150538D01*
X0132535Y0147390D02*
X0126356Y0147390D01*
X0128466Y0144242D02*
X0132535Y0144242D01*
X0131362Y0141093D02*
X0128526Y0141093D01*
X0126598Y0137945D02*
X0130488Y0137945D01*
X0131055Y0134797D02*
X0053890Y0134797D01*
X0057038Y0131649D02*
X0133479Y0131649D01*
X0137575Y0137575D02*
X0137654Y0137654D01*
X0137654Y0154031D01*
X0147496Y0154031D02*
X0147496Y0109346D01*
X0145724Y0107575D01*
X0142378Y0115909D02*
X0137935Y0115909D01*
X0133514Y0115909D02*
X0125843Y0115909D01*
X0128788Y0119057D02*
X0142378Y0119057D01*
X0142378Y0122205D02*
X0129661Y0122205D01*
X0129095Y0125353D02*
X0142378Y0125353D01*
X0142378Y0128501D02*
X0126671Y0128501D01*
X0122575Y0136457D02*
X0122575Y0142575D01*
X0122575Y0148693D01*
X0122093Y0148693D01*
X0121142Y0148542D01*
X0120226Y0148245D01*
X0119368Y0147807D01*
X0118589Y0147241D01*
X0117908Y0146560D01*
X0117342Y0145781D01*
X0116905Y0144923D01*
X0116607Y0144007D01*
X0116457Y0143056D01*
X0116457Y0142575D01*
X0122575Y0142575D01*
X0122575Y0142575D01*
X0122575Y0142575D01*
X0116457Y0142575D01*
X0116457Y0142093D01*
X0116607Y0141142D01*
X0116905Y0140226D01*
X0117342Y0139368D01*
X0117908Y0138589D01*
X0118589Y0137908D01*
X0116623Y0141093D02*
X0009268Y0141093D01*
X0009268Y0144242D02*
X0116683Y0144242D01*
X0118793Y0147390D02*
X0009268Y0147390D01*
X0042591Y0125353D02*
X0048858Y0125353D01*
X0049518Y0122205D02*
X0052006Y0122205D01*
X0050469Y0119057D02*
X0055154Y0119057D01*
X0045095Y0122205D02*
X0045094Y0122205D01*
X0060186Y0128501D02*
X0118479Y0128501D01*
X0122575Y0136457D02*
X0122575Y0142575D01*
X0122575Y0141093D02*
X0122575Y0141093D01*
X0122575Y0137945D02*
X0122575Y0137945D01*
X0122575Y0144242D02*
X0122575Y0144242D01*
X0122575Y0147390D02*
X0122575Y0147390D01*
X0141671Y0131649D02*
X0142378Y0131649D01*
X0153072Y0150538D02*
X0185705Y0150538D01*
X0187351Y0153686D02*
X0153909Y0153686D01*
X0153763Y0156834D02*
X0186104Y0156834D01*
X0186524Y0159982D02*
X0153909Y0159982D01*
X0156205Y0172575D02*
X0128945Y0172575D01*
X0128457Y0175723D02*
X0156693Y0175723D01*
X0158329Y0178871D02*
X0126820Y0178871D01*
X0122539Y0182019D02*
X0162611Y0182019D01*
X0195372Y0182019D02*
X0199031Y0182019D01*
X0199031Y0159982D02*
X0198626Y0159982D01*
X0191925Y0128224D02*
X0185724Y0128224D01*
X0175724Y0118224D01*
X0175724Y0107575D01*
X0175724Y0093224D01*
X0168224Y0085724D01*
X0115724Y0085724D01*
X0108224Y0090724D01*
X0112219Y0081279D02*
X0113082Y0081279D01*
X0115359Y0078131D02*
X0119581Y0078131D01*
X0119581Y0074983D02*
X0116098Y0074983D01*
X0115397Y0071835D02*
X0120376Y0071835D01*
X0118820Y0068687D02*
X0112441Y0068687D01*
X0117850Y0065539D02*
X0040843Y0065539D01*
X0040843Y0062391D02*
X0063300Y0062391D01*
X0068149Y0062391D02*
X0112652Y0062391D01*
X0109504Y0059242D02*
X0071938Y0059242D01*
X0072811Y0056094D02*
X0106356Y0056094D01*
X0105075Y0047575D02*
X0102575Y0047575D01*
X0073874Y0047575D01*
X0065724Y0055724D01*
X0059205Y0052946D02*
X0042244Y0052946D01*
X0042811Y0056094D02*
X0058638Y0056094D01*
X0059511Y0059242D02*
X0041938Y0059242D01*
X0035724Y0055724D02*
X0035724Y0074150D01*
X0029703Y0078131D02*
X0009268Y0078131D01*
X0009268Y0074983D02*
X0028638Y0074983D01*
X0029013Y0071835D02*
X0009268Y0071835D01*
X0009268Y0068687D02*
X0030606Y0068687D01*
X0030606Y0065539D02*
X0009268Y0065539D01*
X0009268Y0062391D02*
X0030606Y0062391D01*
X0029511Y0059242D02*
X0009268Y0059242D01*
X0009268Y0056094D02*
X0028638Y0056094D01*
X0029205Y0052946D02*
X0009268Y0052946D01*
X0009268Y0049798D02*
X0031629Y0049798D01*
X0039820Y0049798D02*
X0061629Y0049798D01*
X0067561Y0046650D02*
X0009268Y0046650D01*
X0009268Y0043502D02*
X0070709Y0043502D01*
X0075741Y0052946D02*
X0097924Y0052946D01*
X0105075Y0047575D02*
X0115724Y0058224D01*
X0128224Y0058224D01*
X0135724Y0065724D01*
X0135724Y0077575D01*
X0145724Y0077575D02*
X0145724Y0063224D01*
X0133224Y0050724D01*
X0125724Y0050724D01*
X0122575Y0047575D01*
X0117924Y0052946D02*
X0117684Y0052946D01*
X0115825Y0049798D02*
X0114536Y0049798D01*
X0115488Y0046650D02*
X0111388Y0046650D01*
X0108524Y0043502D02*
X0116626Y0043502D01*
X0113984Y0034661D02*
X0111165Y0034661D01*
X0108561Y0033583D01*
X0106567Y0031589D01*
X0105488Y0028984D01*
X0105488Y0026165D01*
X0106552Y0023598D01*
X0103984Y0024661D01*
X0101165Y0024661D01*
X0098561Y0023583D01*
X0096567Y0021589D01*
X0095488Y0018984D01*
X0095488Y0016165D01*
X0096567Y0013561D01*
X0098561Y0011567D01*
X0101165Y0010488D01*
X0103984Y0010488D01*
X0106589Y0011567D01*
X0108260Y0013238D01*
X0108589Y0012908D01*
X0109368Y0012342D01*
X0110226Y0011905D01*
X0111142Y0011607D01*
X0112093Y0011457D01*
X0112575Y0011457D01*
X0113056Y0011457D01*
X0114007Y0011607D01*
X0114923Y0011905D01*
X0115781Y0012342D01*
X0116560Y0012908D01*
X0116890Y0013238D01*
X0118561Y0011567D01*
X0121165Y0010488D01*
X0123984Y0010488D01*
X0126589Y0011567D01*
X0128260Y0013238D01*
X0128589Y0012908D01*
X0129368Y0012342D01*
X0130226Y0011905D01*
X0131142Y0011607D01*
X0132093Y0011457D01*
X0132575Y0011457D01*
X0133056Y0011457D01*
X0134007Y0011607D01*
X0134923Y0011905D01*
X0135781Y0012342D01*
X0136560Y0012908D01*
X0136890Y0013238D01*
X0138561Y0011567D01*
X0141165Y0010488D01*
X0143984Y0010488D01*
X0146589Y0011567D01*
X0148260Y0013238D01*
X0148589Y0012908D01*
X0149368Y0012342D01*
X0150226Y0011905D01*
X0151142Y0011607D01*
X0152093Y0011457D01*
X0152575Y0011457D01*
X0153056Y0011457D01*
X0154007Y0011607D01*
X0154923Y0011905D01*
X0155781Y0012342D01*
X0156560Y0012908D01*
X0156890Y0013238D01*
X0158561Y0011567D01*
X0161165Y0010488D01*
X0163984Y0010488D01*
X0166589Y0011567D01*
X0168260Y0013238D01*
X0168589Y0012908D01*
X0169368Y0012342D01*
X0170226Y0011905D01*
X0171142Y0011607D01*
X0172093Y0011457D01*
X0172575Y0011457D01*
X0173056Y0011457D01*
X0174007Y0011607D01*
X0174923Y0011905D01*
X0175781Y0012342D01*
X0176560Y0012908D01*
X0177241Y0013589D01*
X0177807Y0014368D01*
X0178245Y0015226D01*
X0178542Y0016142D01*
X0178693Y0017093D01*
X0178693Y0017575D01*
X0178693Y0018056D01*
X0178542Y0019007D01*
X0178245Y0019923D01*
X0177807Y0020781D01*
X0177241Y0021560D01*
X0176912Y0021890D01*
X0178583Y0023561D01*
X0179661Y0026165D01*
X0179661Y0028984D01*
X0178583Y0031589D01*
X0176589Y0033583D01*
X0173984Y0034661D01*
X0171165Y0034661D01*
X0168561Y0033583D01*
X0166567Y0031589D01*
X0165488Y0028984D01*
X0165488Y0026165D01*
X0166552Y0023598D01*
X0163984Y0024661D01*
X0161165Y0024661D01*
X0158598Y0023598D01*
X0159661Y0026165D01*
X0159661Y0028984D01*
X0158583Y0031589D01*
X0156589Y0033583D01*
X0153984Y0034661D01*
X0151165Y0034661D01*
X0148561Y0033583D01*
X0146567Y0031589D01*
X0145488Y0028984D01*
X0145488Y0026165D01*
X0146552Y0023598D01*
X0143984Y0024661D01*
X0141165Y0024661D01*
X0138598Y0023598D01*
X0139661Y0026165D01*
X0139661Y0028984D01*
X0138583Y0031589D01*
X0136589Y0033583D01*
X0133984Y0034661D01*
X0131165Y0034661D01*
X0128561Y0033583D01*
X0126567Y0031589D01*
X0125488Y0028984D01*
X0125488Y0026165D01*
X0126552Y0023598D01*
X0123984Y0024661D01*
X0121165Y0024661D01*
X0118598Y0023598D01*
X0119661Y0026165D01*
X0119661Y0028984D01*
X0118583Y0031589D01*
X0116589Y0033583D01*
X0113984Y0034661D01*
X0115442Y0034057D02*
X0129707Y0034057D01*
X0126286Y0030909D02*
X0118864Y0030909D01*
X0119661Y0027761D02*
X0125488Y0027761D01*
X0126131Y0024613D02*
X0124101Y0024613D01*
X0121049Y0024613D02*
X0119019Y0024613D01*
X0112575Y0017575D02*
X0112575Y0011457D01*
X0112575Y0017575D01*
X0112575Y0017575D01*
X0112575Y0015169D02*
X0112575Y0015169D01*
X0112575Y0012021D02*
X0112575Y0012021D01*
X0115150Y0012021D02*
X0118107Y0012021D01*
X0109999Y0012021D02*
X0107043Y0012021D01*
X0098107Y0012021D02*
X0025905Y0012021D01*
X0027209Y0015169D02*
X0095901Y0015169D01*
X0095488Y0018317D02*
X0027378Y0018317D01*
X0026561Y0021465D02*
X0096516Y0021465D01*
X0101049Y0024613D02*
X0024377Y0024613D01*
X0010694Y0024613D02*
X0009268Y0024613D01*
X0009268Y0027761D02*
X0105488Y0027761D01*
X0106131Y0024613D02*
X0104101Y0024613D01*
X0106286Y0030909D02*
X0009268Y0030909D01*
X0009268Y0034057D02*
X0109707Y0034057D01*
X0128524Y0043502D02*
X0136626Y0043502D01*
X0142575Y0047575D02*
X0150075Y0047575D01*
X0158224Y0055724D01*
X0180724Y0055724D01*
X0185724Y0060724D01*
X0185724Y0077575D01*
X0191868Y0074983D02*
X0199031Y0074983D01*
X0195724Y0078131D02*
X0195724Y0078131D01*
X0195724Y0081279D02*
X0195724Y0081279D01*
X0195724Y0084427D02*
X0195724Y0084427D01*
X0195724Y0087575D02*
X0195724Y0087575D01*
X0192198Y0087575D02*
X0177314Y0087575D01*
X0180160Y0084427D02*
X0181289Y0084427D01*
X0180228Y0090724D02*
X0199031Y0090724D01*
X0199031Y0093872D02*
X0180843Y0093872D01*
X0180843Y0097020D02*
X0191257Y0097020D01*
X0181843Y0100168D02*
X0180843Y0100168D01*
X0192575Y0127575D02*
X0191925Y0128224D01*
X0191073Y0071835D02*
X0199031Y0071835D01*
X0199031Y0068687D02*
X0190843Y0068687D01*
X0190843Y0065539D02*
X0199031Y0065539D01*
X0199031Y0062391D02*
X0190843Y0062391D01*
X0190650Y0059242D02*
X0199031Y0059242D01*
X0199031Y0056094D02*
X0188332Y0056094D01*
X0185184Y0052946D02*
X0199031Y0052946D01*
X0199031Y0049798D02*
X0169324Y0049798D01*
X0169661Y0046650D02*
X0199031Y0046650D01*
X0199031Y0043502D02*
X0168524Y0043502D01*
X0169707Y0034057D02*
X0155442Y0034057D01*
X0158864Y0030909D02*
X0166286Y0030909D01*
X0165488Y0027761D02*
X0159661Y0027761D01*
X0159019Y0024613D02*
X0161049Y0024613D01*
X0164101Y0024613D02*
X0166131Y0024613D01*
X0172575Y0017575D02*
X0178693Y0017575D01*
X0172575Y0017575D01*
X0172575Y0017575D01*
X0172575Y0011457D01*
X0172575Y0017575D01*
X0172575Y0017575D01*
X0172575Y0015169D02*
X0172575Y0015169D01*
X0172575Y0012021D02*
X0172575Y0012021D01*
X0175150Y0012021D02*
X0182395Y0012021D01*
X0181091Y0015169D02*
X0178215Y0015169D01*
X0178652Y0018317D02*
X0180921Y0018317D01*
X0181738Y0021465D02*
X0177311Y0021465D01*
X0179019Y0024613D02*
X0183922Y0024613D01*
X0179661Y0027761D02*
X0199031Y0027761D01*
X0199031Y0024613D02*
X0197605Y0024613D01*
X0199031Y0030909D02*
X0178864Y0030909D01*
X0175442Y0034057D02*
X0199031Y0034057D01*
X0199031Y0037206D02*
X0009268Y0037206D01*
X0009268Y0040354D02*
X0199031Y0040354D01*
X0169999Y0012021D02*
X0167043Y0012021D01*
X0158107Y0012021D02*
X0155150Y0012021D01*
X0152575Y0012021D02*
X0152575Y0012021D01*
X0152575Y0011457D02*
X0152575Y0017575D01*
X0152575Y0017575D01*
X0152575Y0011457D01*
X0149999Y0012021D02*
X0147043Y0012021D01*
X0152575Y0015169D02*
X0152575Y0015169D01*
X0146131Y0024613D02*
X0144101Y0024613D01*
X0141049Y0024613D02*
X0139019Y0024613D01*
X0139661Y0027761D02*
X0145488Y0027761D01*
X0146286Y0030909D02*
X0138864Y0030909D01*
X0135442Y0034057D02*
X0149707Y0034057D01*
X0153240Y0043502D02*
X0156626Y0043502D01*
X0132575Y0017575D02*
X0132575Y0011457D01*
X0132575Y0017575D01*
X0132575Y0017575D01*
X0132575Y0015169D02*
X0132575Y0015169D01*
X0132575Y0012021D02*
X0132575Y0012021D01*
X0135150Y0012021D02*
X0138107Y0012021D01*
X0129999Y0012021D02*
X0127043Y0012021D01*
X0105583Y0068687D02*
X0101653Y0068687D01*
X0094796Y0068687D02*
X0048479Y0068687D01*
X0051405Y0071835D02*
X0055776Y0071835D01*
X0052489Y0074983D02*
X0051787Y0074983D01*
X0051843Y0074150D02*
X0045725Y0074150D01*
X0045725Y0074150D01*
X0045724Y0074150D02*
X0045724Y0074150D01*
X0045724Y0080268D01*
X0045724Y0074150D01*
X0045725Y0074150D02*
X0051843Y0074150D01*
X0045724Y0074983D02*
X0045724Y0074983D01*
X0045724Y0078131D02*
X0045724Y0078131D01*
X0045913Y0081279D02*
X0009268Y0081279D01*
X0040843Y0068687D02*
X0042970Y0068687D01*
X0045724Y0068687D02*
X0045724Y0068687D01*
X0045724Y0071835D02*
X0045724Y0071835D01*
X0012927Y0182019D02*
X0009268Y0182019D01*
M02*
