%
M48
M72
T01C0.03150
T02C0.03200
T03C0.03740
T04C0.03937
T05C0.09055
T06C0.12598
%
T01
X35724Y55724
X35724Y74150
X45724Y74150
X45094Y89150
X45094Y99150
X45094Y109150
X45094Y119150
X98224Y104937
X109012Y104937
X122575Y122575
X137575Y137575
X122575Y142575
X167575Y137575
X195724Y102575
X195724Y82575
X162575Y47575
X154937Y64937
X142575Y47575
X124937Y64937
X122575Y47575
X102575Y47575
X112575Y27575
X112575Y17575
X122575Y17575
X132575Y17575
X132575Y27575
X142575Y17575
X152575Y17575
X152575Y27575
X162575Y17575
X172575Y17575
X172575Y27575
X109012Y74937
X98224Y74937
X65724Y55724
X102575Y17575
T02
X125724Y77575
X135724Y77575
X145724Y77575
X155724Y77575
X165724Y77575
X175724Y77575
X185724Y77575
X185724Y107575
X175724Y107575
X165724Y107575
X155724Y107575
X145724Y107575
X135724Y107575
X125724Y107575
T03
X137654Y161906
X137654Y154031
X147496Y154031
X147496Y161906
T04
X192575Y157575
X192575Y147575
X192575Y137575
X192575Y127575
T05
X118874Y172575
X166276Y172575
T06
X17535Y17535
X190764Y17535
X190764Y190764
X17535Y190764
M30
